<svg width="26" height="26" viewBox="0 0 26 26" fill="none" xmlns="http://www.w3.org/2000/svg">
<g clip-path="url(#clip0_227_1532)">
<path d="M9.11715 16.0577C9.14194 16.0329 9.14194 15.9927 9.11715 15.9679L6.67043 13.5212C6.63043 13.4812 6.65876 13.4128 6.71533 13.4128L20.3652 13.4128C20.4003 13.4128 20.4287 13.3844 20.4287 13.3493L20.4287 12.6509C20.4287 12.6158 20.4003 12.5874 20.3652 12.5874L6.71533 12.5874C6.65876 12.5874 6.63043 12.519 6.67043 12.479L9.11715 10.0323C9.14194 10.0075 9.14194 9.9673 9.11715 9.94251L8.62916 9.45452C8.60437 9.42973 8.56416 9.42973 8.53937 9.45452L5.03869 12.9552C5.01389 12.98 5.01389 13.0202 5.03868 13.045L8.53937 16.5457C8.56417 16.5705 8.60437 16.5705 8.62916 16.5457L9.11715 16.0577Z" fill="white" stroke="white" stroke-width="0.31746" stroke-miterlimit="10" stroke-linejoin="round"/>
<path d="M13.0003 25.7937C20.0574 25.7937 25.7939 20.0572 25.7939 13.0001C25.7939 5.94291 20.0574 0.2064 13.0003 0.206401C5.94315 0.206402 0.206642 5.94291 0.206643 13.0001C0.206644 20.0572 5.94315 25.7937 13.0003 25.7937ZM13.0003 1.0318C19.6035 1.0318 24.9685 6.39688 24.9685 13.0001C24.9685 19.6032 19.6035 24.9683 13.0003 24.9683C6.39712 24.9683 1.03204 19.6032 1.03204 13.0001C1.03204 6.39688 6.39712 1.0318 13.0003 1.0318Z" fill="white" stroke="white" stroke-width="0.31746" stroke-miterlimit="10"/>
</g>
<defs>
<clipPath id="clip0_227_1532">
<rect width="26" height="26" fill="white" transform="translate(26 26) rotate(180)"/>
</clipPath>
</defs>
</svg>
