<svg width="26" height="26" viewBox="0 0 26 26" fill="none" xmlns="http://www.w3.org/2000/svg">
<g clip-path="url(#clip0_227_1535)">
<path d="M16.8829 9.94231C16.8581 9.9671 16.8581 10.0073 16.8829 10.0321L19.3296 12.4788C19.3696 12.5188 19.3412 12.5872 19.2847 12.5872H5.63478C5.59971 12.5872 5.57129 12.6156 5.57129 12.6507V13.3491C5.57129 13.3842 5.59972 13.4126 5.63478 13.4126H19.2847C19.3412 13.4126 19.3696 13.481 19.3296 13.521L16.8829 15.9677C16.8581 15.9925 16.8581 16.0327 16.8829 16.0575L17.3708 16.5455C17.3956 16.5703 17.4358 16.5703 17.4606 16.5455L20.9613 13.0448C20.9861 13.02 20.9861 12.9798 20.9613 12.955L17.4606 9.45432C17.4358 9.42952 17.3956 9.42952 17.3708 9.45432L16.8829 9.94231Z" fill="white" stroke="white" stroke-width="0.31746" stroke-miterlimit="10" stroke-linejoin="round"/>
<path d="M12.9997 0.206299C5.94256 0.206299 0.206055 5.94281 0.206055 12.9999C0.206055 20.0571 5.94256 25.7936 12.9997 25.7936C20.0568 25.7936 25.7934 20.0571 25.7934 12.9999C25.7934 5.94281 20.0568 0.206299 12.9997 0.206299ZM12.9997 24.9682C6.39653 24.9682 1.03145 19.6031 1.03145 12.9999C1.03145 6.39678 6.39653 1.0317 12.9997 1.0317C19.6029 1.0317 24.968 6.39678 24.968 12.9999C24.968 19.6031 19.6029 24.9682 12.9997 24.9682Z" fill="white" stroke="white" stroke-width="0.31746" stroke-miterlimit="10"/>
</g>
<defs>
<clipPath id="clip0_227_1535">
<rect width="26" height="26" fill="white"/>
</clipPath>
</defs>
</svg>
