<svg width="165" height="47" viewBox="0 0 165 47" fill="none" xmlns="http://www.w3.org/2000/svg">
<g clip-path="url(#clip0_1101_1448)">
<path d="M11.1896 46.1652L4.48643 33.7625V44.7726C4.48643 45.0425 4.54825 45.2513 4.67189 45.3906C4.79554 45.5299 5.01632 45.643 5.33426 45.73V46.1652H0V45.73C0.317936 45.643 0.538725 45.5299 0.662367 45.3906C0.786009 45.2513 0.84783 45.0425 0.84783 44.7726V29.5847C0.84783 29.3236 0.786009 29.1147 0.662367 28.9754C0.538725 28.8362 0.317936 28.723 0 28.636V28.2095H6.99459V28.636C6.57951 28.7404 6.36755 28.9841 6.36755 29.3584C6.36755 29.5325 6.42937 29.7326 6.55302 29.9676L11.5075 39.211L16.5327 30.1243C16.7535 29.7152 16.8683 29.428 16.8683 29.2452C16.8683 28.8884 16.6475 28.6882 16.2059 28.636V28.2095H23.0857V28.636C22.7678 28.723 22.547 28.8362 22.4233 28.9754C22.2997 29.1147 22.2379 29.3149 22.2379 29.5847V44.7726C22.2379 45.0425 22.2997 45.2513 22.4233 45.3906C22.547 45.5299 22.7678 45.643 23.0857 45.73V46.1652H17.407V45.73C17.7161 45.6517 17.9369 45.5386 18.0605 45.3906C18.1842 45.2426 18.2548 45.0425 18.2548 44.7639V33.7538L11.1896 46.1565V46.1652ZM33.2067 38.2797V43.206H44.8908C45.1558 43.206 45.3677 43.145 45.509 43.0232C45.6503 42.9013 45.7651 42.6838 45.8534 42.3704H46.2862V47.0008H45.8534C45.7651 46.6875 45.6503 46.4699 45.509 46.348C45.3677 46.2262 45.1646 46.1652 44.8908 46.1652H28.367V45.73C28.6849 45.643 28.9057 45.5299 29.0293 45.3906C29.153 45.2513 29.2148 45.0425 29.2148 44.7726V29.6021C29.2148 29.3323 29.153 29.1234 29.0293 28.9841C28.9057 28.8449 28.6849 28.7317 28.367 28.6447V28.2182H44.564C44.829 28.2182 45.0409 28.1573 45.1734 28.0354C45.3147 27.9136 45.4295 27.696 45.5179 27.3826H45.9594V32.013H45.5179C45.4295 31.6997 45.3147 31.4908 45.1734 31.3602C45.0321 31.2384 44.829 31.1775 44.564 31.1775H33.1978V35.4336H40.5722C40.8371 35.4336 41.0403 35.3726 41.1816 35.2508C41.3229 35.1289 41.4377 34.9113 41.526 34.598H41.9587V39.1239H41.526C41.4377 38.8193 41.3229 38.6017 41.1816 38.4799C41.0403 38.358 40.8371 38.2884 40.5722 38.2884H33.1978L33.2067 38.2797ZM57.0165 43.206H66.4751C66.7401 43.206 66.952 43.145 67.0933 43.0232C67.2347 42.9013 67.3495 42.6838 67.4378 42.3704H67.8705V47.0008H67.4378C67.3495 46.6875 67.2347 46.4699 67.0933 46.348C66.952 46.2262 66.7489 46.1652 66.4751 46.1652H50.5607V45.2426L61.1409 31.1688H52.0532C51.7794 31.1688 51.5675 31.2297 51.4262 31.3428C51.2849 31.4647 51.17 31.6823 51.0817 31.9956H50.6402V27.3652H51.0817C51.1789 27.6873 51.2937 27.8962 51.435 28.018C51.5675 28.1399 51.7794 28.2008 52.0532 28.2008H67.7381V28.9493L57.0254 43.1886L57.0165 43.206ZM78.4861 43.206H87.9447C88.2096 43.206 88.4216 43.145 88.5629 43.0232C88.7042 42.9013 88.819 42.6838 88.9073 42.3704H89.3489V47.0008H88.9073C88.819 46.6875 88.7042 46.4699 88.5629 46.348C88.4216 46.2262 88.2184 46.1652 87.9447 46.1652H72.0214V45.2426L82.6016 31.1688H73.5139C73.2401 31.1688 73.0282 31.2297 72.8868 31.3428C72.7455 31.4647 72.6307 31.6823 72.5424 31.9956H72.1008V27.3652H72.5424C72.6396 27.6873 72.7544 27.8962 72.8957 28.018C73.037 28.1399 73.2401 28.2008 73.5139 28.2008H89.1987V28.9493L78.4861 43.1886V43.206ZM112.558 29.6021V39.6636C112.558 41.5697 112.205 42.9884 111.49 43.9371C110.209 45.6343 107.568 46.4873 103.559 46.4873C100.662 46.4873 98.4454 46.026 96.8999 45.1034C95.999 44.5725 95.3808 43.8413 95.0364 42.9188C94.7008 42.0049 94.533 40.9169 94.533 39.6549V29.5934C94.533 29.3236 94.4712 29.1147 94.3475 28.9754C94.2239 28.8362 94.0031 28.723 93.6852 28.636V28.2095H99.3639V28.636C99.0459 28.7143 98.834 28.8275 98.7015 28.9754C98.5779 29.1147 98.516 29.3236 98.516 29.6021V38.5669C98.516 39.5939 98.5779 40.3686 98.6927 40.8647C98.8075 41.3608 99.0283 41.7786 99.3462 42.1093C100.194 42.9971 101.651 43.4497 103.709 43.4497C105.767 43.4497 107.242 42.9971 108.089 42.1093C108.399 41.7786 108.611 41.3608 108.725 40.8647C108.84 40.3686 108.902 39.5939 108.902 38.5669V29.6021C108.902 29.3323 108.84 29.1234 108.716 28.9841C108.593 28.8449 108.372 28.7317 108.054 28.6447V28.2182H113.406V28.6447C113.088 28.7317 112.867 28.8449 112.744 28.9841C112.62 29.1234 112.558 29.3323 112.558 29.6021ZM122.776 33.8756V44.7813C122.776 45.0512 122.838 45.26 122.962 45.3993C123.085 45.5386 123.306 45.6517 123.624 45.7388V46.1739H118.299V45.7388C118.617 45.6517 118.837 45.5386 118.961 45.3993C119.085 45.26 119.147 45.0512 119.147 44.7813V29.5934C119.147 29.3323 119.085 29.1234 118.961 28.9841C118.837 28.8449 118.617 28.7317 118.299 28.6447V28.2182H124.472V28.6447C124.092 28.7404 123.907 28.9406 123.907 29.2539C123.907 29.4628 124.03 29.6978 124.278 29.9502L134.363 40.238V29.5934C134.363 29.3323 134.301 29.1234 134.178 28.9841C134.054 28.8449 133.833 28.7317 133.515 28.6447V28.2182H138.841V28.6447C138.523 28.7317 138.302 28.8449 138.179 28.9841C138.055 29.1234 137.993 29.3236 137.993 29.5934V44.7813C137.993 45.0512 138.055 45.26 138.179 45.3993C138.302 45.5386 138.523 45.6517 138.841 45.7388V46.1739H133.118V45.7388C133.489 45.6604 133.674 45.4689 133.674 45.173C133.674 44.9989 133.454 44.6943 133.021 44.2504L122.776 33.8756ZM157.634 41.5697H149.421L148.185 44.1025C148.017 44.4593 147.929 44.7291 147.929 44.9293C147.929 45.321 148.229 45.5908 148.821 45.7388V46.1739H142.797V45.7388C143.151 45.6691 143.424 45.5473 143.61 45.3732C143.795 45.1991 144.007 44.8597 144.246 44.3462L150.94 30.5595C151.152 30.1243 151.258 29.7675 151.258 29.5063C151.258 29.106 151.002 28.8188 150.481 28.636V28.2095H156.937V28.636C156.407 28.7839 156.151 29.045 156.151 29.4106C156.151 29.663 156.23 29.9502 156.398 30.2723L163.322 44.0938C163.613 44.6856 163.87 45.086 164.099 45.2949C164.32 45.5125 164.62 45.6517 164.991 45.7213V46.1565H158.27V45.7213C158.862 45.6256 159.145 45.3558 159.145 44.9032C159.145 44.7117 159.056 44.4419 158.88 44.0851L157.617 41.5523L157.634 41.5697ZM156.495 39.1239L153.572 32.7876L150.596 39.1239H156.495Z" fill="#1D1D1B"/>
<path d="M52.7597 11.1233L55.0029 7.71144L54.6055 7.51126C54.473 7.54607 54.3494 7.56348 54.2346 7.58089C54.1109 7.5983 53.9961 7.607 53.8813 7.607C53.6517 7.607 53.3514 7.53737 52.9893 7.40681C52.6272 7.28496 52.1857 7.137 51.6734 6.97163C51.17 6.80626 50.5695 6.6583 49.9071 6.53644C49.2359 6.40589 48.4852 6.33626 47.6462 6.33626C46.295 6.33626 45.0851 6.53644 44.0076 6.9107C42.9302 7.28496 42.0029 7.80718 41.2434 8.47737C40.475 9.14755 39.8921 9.93089 39.4859 10.8274C39.0796 11.7151 38.8765 12.6813 38.8677 13.7257C38.8677 14.744 39.0885 15.7014 39.4947 16.5892C39.9098 17.477 40.4839 18.2516 41.2345 18.9305C41.9852 19.6007 42.8684 20.1316 43.9017 20.5059C44.9261 20.8801 46.0566 21.0716 47.293 21.0803C48.1496 21.0803 48.9357 20.9933 49.6422 20.8453C50.3575 20.6887 50.9846 20.4972 51.5498 20.2709C52.115 20.0446 52.6007 19.8183 53.0158 19.592C53.4309 19.3657 53.7753 19.1742 54.0491 19.0176C54.3141 18.8609 54.5172 18.7826 54.6585 18.7738C54.7203 18.7738 54.7821 18.7913 54.844 18.8261C54.9058 18.8609 54.9676 18.9044 55.0471 18.974L55.4092 18.7738L53.2278 15.684L52.8304 15.8494C52.8657 15.9626 52.8834 16.0583 52.901 16.1366C52.9187 16.215 52.9275 16.2672 52.9275 16.302C52.9275 16.4151 52.795 16.5805 52.5301 16.7894C52.2652 16.9983 51.8942 17.2246 51.4262 17.4509C50.9581 17.6772 50.4017 17.8774 49.7747 18.034C49.1476 18.1907 48.4587 18.2777 47.7257 18.2864C46.6394 18.2864 45.7121 18.0863 44.9173 17.712C44.1313 17.329 43.5219 16.7981 43.0892 16.1192C42.6564 15.4403 42.4445 14.6309 42.4356 13.6996C42.4356 12.7683 42.6652 11.9501 43.1068 11.2539C43.5396 10.5489 44.1578 10.0092 44.9438 9.61755C45.7298 9.22589 46.6571 9.017 47.7257 9.017C48.3439 9.017 48.9445 9.08663 49.5097 9.20848C50.0749 9.32163 50.5783 9.4783 51.0199 9.66978C51.4615 9.85255 51.8059 10.044 52.062 10.2529C52.3181 10.4531 52.4506 10.6359 52.4506 10.81C52.4506 10.8274 52.4506 10.8448 52.4506 10.8796C52.4506 10.9057 52.4418 10.9318 52.4241 10.9405L52.7862 11.132L52.7597 11.1233ZM68.7183 8.48607L63.6667 18.6694C63.543 18.9392 63.4194 19.1829 63.3046 19.4005C63.181 19.6181 63.0308 19.8096 62.8542 19.9663C62.6776 20.1229 62.4214 20.2448 62.1123 20.3318V20.7583H67.0933V20.3318C66.8019 20.2361 66.5899 20.1316 66.4575 20.0185C66.325 19.9053 66.2632 19.7574 66.2632 19.5833C66.2632 19.505 66.2808 19.4179 66.3073 19.3135C66.3427 19.2177 66.378 19.1046 66.431 18.9914L67.2523 17.2333H73.823L74.715 18.9914C74.768 19.1046 74.8033 19.209 74.8386 19.3135C74.8651 19.4092 74.8828 19.4963 74.8828 19.5833C74.8828 19.7574 74.8209 19.9053 74.6796 20.0185C74.5383 20.1316 74.3264 20.2448 74.0261 20.3318V20.7583H79.5723V20.3318C79.2897 20.2535 79.0601 20.1403 78.8746 19.9924C78.6892 19.8444 78.5302 19.6616 78.3889 19.4353C78.2476 19.209 78.0975 18.9566 77.9562 18.6694L72.7367 8.48607C72.6837 8.37293 72.6484 8.26848 72.6131 8.18144C72.5866 8.0857 72.5689 7.98996 72.5689 7.90293C72.5689 7.72015 72.6396 7.58089 72.7809 7.46774C72.9222 7.35459 73.1341 7.25015 73.4256 7.15441V6.72793H67.95V7.15441C68.2503 7.23274 68.4711 7.35459 68.6212 7.49385C68.7713 7.63311 68.842 7.80718 68.842 8.00737C68.842 8.0683 68.8332 8.14663 68.8155 8.22496C68.789 8.3033 68.7625 8.39904 68.7095 8.49478L68.7183 8.48607ZM70.5023 10.7316L72.7809 15.2227H68.2944L70.5023 10.7316ZM100.521 6.72793H87.5472V7.15441C87.874 7.21533 88.0948 7.31107 88.2096 7.44163C88.3244 7.58089 88.3774 7.78978 88.3774 8.09441V19.3831C88.3774 19.6877 88.3244 19.9053 88.2096 20.0359C88.0948 20.1751 87.874 20.2622 87.5472 20.3231V20.7496H92.5989V20.3231C92.2721 20.2622 92.0601 20.1664 91.9365 20.0359C91.8217 19.8966 91.7687 19.6877 91.7687 19.3831V14.7963H97.1471C97.4562 14.7876 97.677 14.8398 97.8095 14.9442C97.9508 15.0487 98.0391 15.2576 98.1009 15.5796H98.5337V11.5759H98.1009C98.048 11.8109 97.9861 11.985 97.9243 12.0981C97.8536 12.2113 97.7565 12.2809 97.6417 12.3157C97.5181 12.3418 97.3591 12.3679 97.156 12.3592H91.8129V9.55663H100.53C100.839 9.54792 101.06 9.59144 101.192 9.70459C101.324 9.80904 101.422 10.0179 101.483 10.34H101.907V5.97941H101.483C101.43 6.21441 101.369 6.38848 101.298 6.49293C101.227 6.59737 101.13 6.6757 101.015 6.69311C100.892 6.71922 100.724 6.72793 100.53 6.72793H100.521ZM124.392 6.72793H111.419V7.15441C111.746 7.21533 111.966 7.31107 112.081 7.44163C112.196 7.58089 112.249 7.78978 112.249 8.09441V19.3831C112.249 19.6877 112.196 19.9053 112.081 20.0359C111.966 20.1751 111.746 20.2622 111.419 20.3231V20.7496H124.755C125.064 20.7496 125.284 20.8018 125.417 20.9063C125.549 21.0194 125.647 21.237 125.708 21.559H126.141V17.1637H125.708C125.655 17.3987 125.594 17.5727 125.523 17.6859C125.452 17.799 125.355 17.8687 125.24 17.9035C125.126 17.9383 124.958 17.9557 124.755 17.947H115.676V14.7876H121.019C121.328 14.7789 121.549 14.8311 121.69 14.9355C121.822 15.04 121.92 15.2488 121.981 15.5709H122.414V11.5672H121.981C121.928 11.8022 121.867 11.9763 121.805 12.0894C121.734 12.2026 121.637 12.2722 121.513 12.307C121.399 12.3331 121.231 12.3592 121.028 12.3505H115.685V9.54793H124.401C124.71 9.53922 124.931 9.58274 125.064 9.69589C125.196 9.80033 125.293 10.0092 125.355 10.3313H125.788V5.9707H125.355C125.302 6.2057 125.24 6.37978 125.178 6.48422C125.108 6.58867 125.011 6.667 124.896 6.68441C124.772 6.71052 124.604 6.71922 124.41 6.71922L124.392 6.72793Z" fill="#1D1D1B"/>
<path d="M116.7 4.91759L120.524 0.809445C120.763 0.557037 121.01 0.356852 121.275 0.208889C121.531 0.0696296 121.778 0 122.008 0C122.299 0 122.547 0.104444 122.75 0.313333C122.953 0.522222 123.059 0.77463 123.059 1.07056C123.059 1.31426 122.971 1.54056 122.812 1.73204C122.644 1.93222 122.344 2.16722 121.902 2.43704L117.733 4.91759H116.709H116.7Z" fill="#1D1D1B"/>
</g>
<defs>
<clipPath id="clip0_1101_1448">
<rect width="165" height="47" fill="white"/>
</clipPath>
</defs>
</svg>
