<svg width="181" height="30" viewBox="0 0 181 30" fill="none" xmlns="http://www.w3.org/2000/svg">
<path fill-rule="evenodd" clip-rule="evenodd" d="M8.86159 11.1477V13.9021H8.83848H8.80765H8.78454L8.60731 13.8638L8.4686 13.8409L8.3299 13.8256L8.1989 13.8103H8.0679L7.93691 13.8026H7.7982H7.66721H7.40521L7.15092 13.8179L6.90434 13.8409L6.66546 13.8715L6.43429 13.9097L6.21082 13.9556L5.99506 14.0092L5.78701 14.0704L5.58666 14.1393L5.39401 14.2158L5.20908 14.2999L5.03184 14.3917L4.86232 14.4912L4.69279 14.606L4.53097 14.7284L4.36145 14.8661L4.20733 14.9962L4.07633 15.1262L3.95304 15.264L3.83746 15.4017L3.72958 15.5547L3.6294 15.7154L3.53693 15.8837L3.45217 16.0597L3.37511 16.2433L3.30576 16.4422L3.24411 16.6488L3.19017 16.863L3.14394 17.0849L3.10541 17.3221L3.07459 17.5669L3.05147 17.8424L3.03606 18.0107L3.02065 18.1637V18.3168L3.00524 18.4698V18.6228L2.99753 18.7758V19.0819L3.00524 19.2349V19.3879L3.02065 19.5409L3.03606 19.694L3.05147 19.847L3.06688 20L3.09 20.1454L3.11312 20.2907L3.13623 20.4361L3.15935 20.5815L3.19017 20.7269L3.221 20.8722L3.25953 21.0176L3.29805 21.163L3.33658 21.3083L3.37511 21.4537L3.41364 21.5991L3.45987 21.7445L3.50611 21.8898L3.55234 22.0352L3.60628 22.1806L3.66022 22.3259L3.71416 22.4637L3.7681 22.6014L3.92222 22.9533L4.07633 23.2747L4.23815 23.5731L4.40768 23.8409L4.57721 24.078L4.74673 24.2923L4.92396 24.4759L5.1012 24.6366L5.28613 24.7743L5.47878 24.8891L5.67142 24.9885L5.87177 25.065L6.07982 25.1262L6.30329 25.1721L6.53446 25.1951H6.79646L6.92746 25.2028H7.06616H7.19716H7.32815H7.45915H7.58244L7.70573 25.1951H7.82132L7.93691 25.1798L8.05249 25.1645L8.16808 25.1492L8.27596 25.1339L8.38384 25.1186L8.49172 25.0956L8.5996 25.0727L8.74601 25.0344L8.85389 25.0191V27.6741H8.81536L8.66895 27.697L8.52254 27.7123L8.37613 27.7276L8.22202 27.7429L8.0679 27.7582L7.91379 27.7735L7.75968 27.7888L7.60556 27.8041L7.45145 27.8194H7.29733L7.14322 27.8347H6.9891L6.83499 27.85H6.68087H6.52676H6.27247L6.02588 27.8347L5.7793 27.8194L5.54042 27.7965L5.30155 27.7659L5.07037 27.7276L4.84691 27.6817L4.62344 27.6358L4.40768 27.5823L4.19963 27.521L3.99157 27.4522L3.78352 27.3757L3.58317 27.2915L3.39052 27.1997L3.20559 27.1002L3.02065 26.9931L2.84342 26.8783L2.67389 26.7636L2.50436 26.6412L2.34254 26.5111L2.18843 26.3734L2.03431 26.228L1.88791 26.075L1.7492 25.9143L1.6182 25.7536L1.49491 25.5853L1.37162 25.4093L1.25603 25.2334L1.14815 25.0497L1.04798 24.8585L0.955511 24.6595L0.870748 24.4683L0.801396 24.3076L0.732045 24.1393L0.662693 23.9633L0.601047 23.7873L0.539401 23.6113L0.485461 23.4354L0.431521 23.2517L0.377581 23.0681L0.331347 22.8768L0.285112 22.6855L0.246583 22.4866L0.208055 22.2877L0.177232 22.0888L0.146409 21.8822L0.115586 21.6756L0.0924688 21.469L0.0770573 21.2548L0.0539401 21.0406L0.0385287 20.8187L0.0231172 20.5968V20.3749L0.00770573 20.1454V19.9158L0 19.6787V19.2043L0.00770573 18.9594V18.7146L0.0231172 18.4698L0.0385287 18.2173L0.0539401 17.9572L0.0693516 17.697L0.0924688 17.3374L0.130997 16.9702L0.184938 16.6106L0.254289 16.2586L0.339052 15.9143L0.431521 15.5777L0.539401 15.2487L0.662693 14.9273L0.801396 14.6213L0.955511 14.3229L1.11733 14.0321L1.29456 13.7567L1.48721 13.4889L1.69526 13.2364L1.91102 12.9992L2.14219 12.7774L2.39648 12.5555L2.65848 12.3489L2.92818 12.15L3.21329 11.9663L3.50611 11.798L3.80663 11.645L4.11486 11.5073L4.4308 11.3849L4.75444 11.2777L5.08578 11.1859L5.43254 11.1094L5.78701 11.0482L6.14918 11.0023L6.51905 10.964L6.89663 10.9411H7.28192H7.48997H7.69032L7.88297 10.964L8.0679 10.987L8.25284 11.0099L8.43007 11.0329L8.60731 11.0635L8.76142 11.0865H8.77683H8.81536H8.85389L8.86159 11.1477ZM41.3567 25.3328L40.5784 26.2892H40.2162H40.1546H40.1006L40.0467 26.2969H40.0005L39.9465 26.3122L39.8849 26.3275L39.7231 26.381H39.5612L39.5073 26.3887H39.4611L39.4071 26.4116L39.3455 26.4269L39.2761 26.4422L39.1837 26.4652L39.0604 26.4805L38.783 26.4652L38.521 26.4346L38.259 26.381L38.0047 26.3045L37.7504 26.2051L37.5038 26.0826L37.2726 25.9373L37.0492 25.7689L36.8334 25.5777L36.6485 25.3711L36.4867 25.1492L36.3634 24.912L36.2709 24.6595L36.2092 24.407L36.1707 24.1469L36.1553 23.8868V23.7337L36.1784 23.5884L36.2015 23.4507L36.2324 23.3206L36.2709 23.1982L36.3094 23.0834L36.3557 22.9763L36.4867 22.6932L36.7641 22.5631L36.8488 22.5249L36.949 22.4866L37.0569 22.4407L37.1802 22.4025L37.3189 22.3718L37.4653 22.3565H37.6194H37.7581L37.8891 22.3718L38.0201 22.3948L38.1511 22.4254L38.2821 22.4637L38.4131 22.5019L38.5441 22.5478L38.6751 22.6014L38.8138 22.6626L38.9525 22.7238L39.0912 22.7927L39.2299 22.8692L39.3686 22.9457L39.5073 23.0298L39.646 23.1217L39.7924 23.2211L40.0852 23.4583L40.3472 23.6878L40.5784 23.925L40.771 24.1546L40.9329 24.3841L41.0716 24.6136L41.1794 24.8432L41.3413 25.3481L41.3567 25.3328ZM41.2411 5.66947L41.2257 5.80719L41.2103 5.95256L41.1949 6.10559L41.1717 6.26626L41.1486 6.43458L41.1255 6.61056L41.1024 6.79418L41.0716 6.99311L41.0407 7.19969L41.0099 7.41393L40.9791 7.63581L40.9406 7.86534L40.9097 8.10252L40.8712 8.34736L40.8327 8.59985L40.7942 8.86764L40.7556 9.13542L40.7094 9.41852L40.6632 9.70926L40.6169 10.0077L40.5707 10.3137L40.4859 10.8722L40.3703 11.622L40.3164 11.9816L40.2548 12.3336L40.1931 12.6702L40.1392 12.9992L40.0852 13.3129L40.0313 13.619L39.9774 13.9097L39.9234 14.1928L39.8772 14.4606L39.8309 14.7207L39.7847 14.9732L39.7385 15.2104L39.6922 15.4399L39.6537 15.6618L39.6152 15.8684L39.5767 16.0673L39.5381 16.2586L39.4996 16.4346L39.4688 16.6029L39.438 16.7559L39.4071 16.9013L39.3763 17.039L39.3532 17.1614L39.3301 17.2762L39.307 17.3833L39.2838 17.4828L39.2607 17.5746L39.2453 17.6511L39.2299 17.72L39.2145 17.7812L39.1914 17.8424L39.1683 17.9036L39.0758 18.1255L37.3343 19.2043L37.1802 18.1331L37.1648 18.0031L37.1493 17.873L37.1339 17.7353L37.1185 17.5976L37.1031 17.4598L37.0877 17.3221L37.0723 17.1844L37.0569 17.039L37.0415 16.8937V16.7483L37.0261 16.6029V16.4575L37.0106 16.3122V16.1591V16.0138V15.4399V15.2946V15.1492V14.9962V14.8432L37.0183 14.6901V14.5295L37.0338 14.3688V14.2081L37.0569 14.0398L37.0723 13.8715L37.0877 13.6955L37.1031 13.5272V13.3741L37.1262 13.2058V13.0375L37.1493 12.8692L37.1648 12.7008L37.1802 12.5325L37.1956 12.3565L37.2187 12.1806L37.2341 12.0046L37.2572 11.8286L37.2803 11.6526L37.3035 11.4767L37.3266 11.293L37.3497 11.1094L37.3728 10.9258L37.4036 10.7345L37.4345 10.5509L37.4653 10.3596L37.4961 10.1683L37.5269 9.97705L37.5578 9.78577L37.5886 9.59449L37.6194 9.40321L37.6579 9.20428L37.6965 9.00536L37.735 8.80643L37.7735 8.6075L37.812 8.40857L37.8506 8.20964L37.8891 8.01071L37.9353 7.80413L37.9816 7.6052L38.0278 7.39862L38.074 7.19204L38.1203 6.97781L38.1665 6.77123L38.2127 6.56465L38.259 6.35807L38.3052 6.15149L38.3514 5.94491L38.3977 5.73833L38.4439 5.5394L38.4901 5.34047L38.5364 5.14155L38.5826 4.94262L38.6288 4.74369L38.6751 4.54476L38.7213 4.34583L38.7676 4.1469L38.8138 3.94797L38.86 3.74904L38.9063 3.55011L38.9525 3.35119L38.9987 3.15991L39.045 2.96098L39.1297 2.57077L39.176 2.3795L39.2222 2.18057L39.3994 1.40015L39.7154 0.0306044L40.6786 1.10941L40.8327 1.33894L40.9637 1.57613L41.0716 1.82862L41.1563 2.0964L41.2257 2.37184L41.2796 2.65494L41.3181 2.93038L41.3336 3.02219L41.349 3.13695L41.3644 3.25172V3.36649L41.3875 3.48891V3.61132L41.3952 3.74139V3.87146V4.00918V4.1469L41.3875 4.29227V4.43764L41.3644 4.59067L41.349 4.74369L41.3336 4.90436L41.3181 5.03443V5.18745L41.3104 5.29457V5.40933L41.2873 5.53175L41.2719 5.66182L41.2411 5.66947ZM8.86159 27.7123V25.0574L9.008 25.0344L9.22376 24.9962L9.43952 24.9503L9.64758 24.9044L9.85563 24.8508L10.056 24.7896L10.2563 24.7284L10.4567 24.6595L10.6493 24.583L10.842 24.5065L11.0346 24.4223L11.2195 24.3305L11.4045 24.2387L11.5894 24.1393L11.7667 24.0321L11.9439 23.9174L12.2521 23.7184L12.5372 23.5119L12.8069 23.2976L13.0535 23.0757L13.2847 22.8462L13.5004 22.609L13.6931 22.3718L13.8703 22.127L14.0321 21.8745L14.1786 21.6144L14.3018 21.3466L14.4097 21.0712L14.5022 20.7881L14.5792 20.4973L14.6332 20.1989L14.6717 19.9005V19.5868V19.2655L14.6409 18.9518L14.5947 18.6534L14.5253 18.3627L14.4405 18.0796L14.3404 17.8041L14.2171 17.5287L14.0784 17.2686L13.9243 17.0084L13.747 16.7559L13.5544 16.5111L13.3309 16.2663L13.092 16.0291L12.83 15.7919L12.5372 15.5547L12.3138 15.3711L12.098 15.2104L11.8822 15.0574L11.6665 14.9197L11.4507 14.7819L11.2273 14.6595L11.0038 14.5448L10.7803 14.4376L10.5492 14.3382L10.318 14.254L10.0791 14.1775L9.84022 14.1086L9.59364 14.0474L9.34706 13.9939L9.139 13.9556H9.1313L8.81536 13.9097V11.1553H8.85389L8.90012 11.163H8.94636L8.99259 11.1783H9.01571L9.33935 11.2242L9.69381 11.2854L10.0483 11.3695L10.395 11.4614L10.7341 11.5685L11.0731 11.6909L11.4122 11.8286L11.7435 11.974L12.0672 12.1347L12.3908 12.3106L12.7068 12.4943L13.015 12.6932L13.3155 12.8998L13.6083 13.114L13.8934 13.3359L14.1786 13.5731L14.3789 13.7567L14.5638 13.9327L14.7411 14.1163L14.9183 14.2999L15.0801 14.4836L15.2419 14.6748L15.3961 14.8661L15.5425 15.0574L15.6812 15.2563L15.8122 15.4552L15.9432 15.6542L16.0588 15.8608L16.1743 16.0673L16.2822 16.2739L16.3824 16.4881L16.4749 16.7024L16.5596 16.9166L16.6367 17.1308L16.706 17.3527L16.7677 17.5746L16.8293 17.7965L16.8833 18.0184L16.9295 18.2479L16.968 18.4774L16.9988 18.707L17.022 18.9441L17.0374 19.1813V19.4185L17.0528 19.6557V19.8929L17.0451 20.1377L17.0297 20.3749L17.0143 20.5891L16.9911 20.8187L16.9603 21.0482L16.9218 21.2701L16.8756 21.492L16.8293 21.7062L16.7754 21.9204L16.7137 22.1347L16.6444 22.3412L16.5673 22.5478L16.4826 22.7467L16.3901 22.9457L16.2899 23.1446L16.1897 23.3359L16.0742 23.5272L15.9586 23.7108L15.8353 23.8944L15.7043 24.078L15.5656 24.254L15.4192 24.43L15.2728 24.5983L15.1187 24.7666L14.9568 24.9273L14.7873 25.088L14.6178 25.241L14.4405 25.394L14.2556 25.5394L14.063 25.6848L13.8626 25.8301L13.6623 25.9679L13.4542 26.1056L13.223 26.251L12.9456 26.3887L12.6913 26.5111L12.4293 26.6259L12.1751 26.733L11.9208 26.8401L11.6588 26.9396L11.3968 27.039L11.1348 27.1308L10.8728 27.2226L10.6108 27.3068L10.3488 27.391L10.0791 27.4675L9.8094 27.5363L9.5397 27.6052L9.27 27.6664L8.97718 27.7276L8.84618 27.7429L8.86159 27.7123ZM78.7449 16.5876V20.5509L78.7064 20.5815L78.4983 20.7881L78.3211 20.9793L78.167 21.1477L78.0437 21.3007L77.9512 21.4231L77.8742 21.5302L77.7971 21.645L77.7277 21.7521L77.6661 21.8592L77.6122 21.9663L77.5582 22.0735L77.512 22.1806L77.4657 22.2877L77.4272 22.3948L77.3887 22.5019L77.3579 22.609L77.327 22.7161L77.3039 22.8233L77.2808 22.9304L77.2577 23.0375L77.2346 23.1523V23.2135L77.2269 23.2441V23.3206L77.25 23.4124L77.2654 23.5195L77.2808 23.6496L77.2962 23.7873L77.3116 23.948V24.0092L77.3579 24.1316L77.381 24.1928L77.4118 24.1775L77.5197 24.1316L77.6199 24.0933L77.7123 24.0474L77.8048 24.0015L77.8973 23.9556L77.982 23.9097L78.0668 23.8562L78.298 23.7108L78.5523 23.4583L78.7372 23.3206V26.5723H78.7141L78.5754 26.6259L78.4444 26.6718L78.3134 26.7177L78.1824 26.7559L78.0591 26.7942L77.9358 26.8324L77.8125 26.863L77.6892 26.8936L77.5659 26.9166L77.4426 26.9396L77.3193 26.9549L77.196 26.9702H77.0805L76.9495 26.9855L76.6412 26.9702L76.333 26.9166L76.0325 26.8248L75.7474 26.6871L75.4777 26.4958L75.2388 26.2663L75.0384 25.9908L74.8766 25.6848L74.8227 25.5471L74.7842 25.4323L74.7456 25.3099L74.7148 25.1875L74.684 25.0574L74.6609 24.9273L74.6377 24.7972L74.6146 24.6595L74.5992 24.5218V24.3764L74.5838 24.2311V23.9327L74.5992 23.7796L74.6146 23.6266L74.63 23.4813L74.6532 23.2517L74.684 22.9992L74.7225 22.7467L74.7687 22.4943L74.8227 22.2341L74.8843 21.974L74.9537 21.7139L75.0307 21.4537L75.077 21.3236L73.8363 23.0451L73.6976 23.2288L73.5589 23.4124L73.4125 23.596L73.2661 23.7796L73.112 23.9633L72.9579 24.1469L72.7961 24.3229L72.6343 24.5065L72.4724 24.6825L72.3029 24.8661L72.1334 25.0497L71.9639 25.2334L71.7866 25.4093L71.6094 25.5853L71.4245 25.7689L71.1856 25.9985L70.9467 26.2127L70.7155 26.4116L70.4844 26.6029L70.2609 26.7789L70.0374 26.9396L69.8139 27.0849L69.5905 27.215L69.3747 27.3298L69.159 27.4369L68.9432 27.521L68.7274 27.5976L68.5117 27.6511L68.2959 27.697L68.0802 27.72H67.8798L67.6718 27.7276H67.2788H67.0861H66.8935H66.7008H66.5082L66.3156 27.72H66.1229L65.9303 27.7123H65.7453L65.5527 27.697H65.3677L65.1828 27.6817H64.9979L64.8129 27.6588H64.628L64.4431 27.6358L64.2581 27.6205L64.0809 27.6052L63.9037 27.5899L63.7264 27.5746L63.5492 27.5593L63.372 27.544L63.1947 27.521L63.0252 27.4981L62.8557 27.4751L62.6861 27.4522L62.5166 27.4292L62.3471 27.4063L62.1776 27.3833L62.0003 27.3527L61.7615 27.3068L61.5303 27.2609L61.2991 27.215L61.0757 27.1614L60.8522 27.1079L60.6364 27.0543L60.4207 27.0008L60.2126 26.9472L60.0046 26.8936L59.7965 26.8324L59.5962 26.7712L59.3958 26.71L59.1954 26.6488L59.0028 26.58L58.8102 26.5111L58.6252 26.4422L58.4403 26.3734L58.2631 26.3045L58.0858 26.228L57.9086 26.1515L57.7391 26.075L57.5695 25.9985L57.4077 25.9143L57.2459 25.8301L57.0841 25.746L56.93 25.6542L56.7759 25.5624L56.6217 25.4705L56.4753 25.3711L56.3289 25.2716L56.1902 25.1721L56.0592 25.0727L55.7356 24.8278L55.4273 24.5601L55.1345 24.2846L54.8648 23.9939L54.6182 23.6878L54.3948 23.3741L54.2021 23.0451L54.0249 22.7085L53.8785 22.3565L53.7552 21.9969L53.655 21.6297L53.5857 21.2471L53.5394 20.8569L53.5163 20.4591V20.0536L53.5471 19.6557L53.5626 19.4568L53.578 19.2502L53.6011 19.0436L53.6242 18.837L53.655 18.6305L53.6858 18.4239L53.7244 18.2173L53.7706 18.0107L53.8169 17.8041L53.8708 17.5976L53.9247 17.391L53.9864 17.1844L54.048 16.9778L54.1174 16.7712L54.1867 16.557L54.2638 16.3504L54.3408 16.1438L54.4256 15.9296L54.5104 15.723L54.6028 15.5165L54.703 15.3099L54.8032 15.1033L54.9111 14.8967L55.0189 14.6901L55.1268 14.4759L55.2424 14.2693L55.358 14.0627L55.4813 13.8562L55.6046 13.6496L55.7356 13.443L55.8666 13.2364L56.0053 13.0222L56.1748 12.785L56.3366 12.5555L56.5062 12.3336L56.6757 12.1194L56.8452 11.9128L57.0147 11.7138L57.1843 11.5226L57.3538 11.3389L57.531 11.163L57.7082 10.9946L57.8855 10.8263L58.0627 10.6733L58.2477 10.5203L58.4326 10.3749L58.6175 10.2372L58.8025 10.1071L58.9874 9.9847L59.18 9.86993L59.3727 9.76282L59.5653 9.66335L59.758 9.57154L59.9506 9.48738L60.151 9.41086L60.3513 9.342L60.5517 9.2808L60.7597 9.22724L60.9678 9.18133L61.1681 9.14308L61.3762 9.11247L61.5842 9.08952L61.7923 9.07422H62.008L62.3625 9.08187L62.7093 9.12012L63.056 9.17368L63.3951 9.25784L63.7264 9.36496L64.0501 9.49503L64.366 9.64805L64.6665 9.82402L64.9593 10.0306L65.2445 10.2601L65.5142 10.5126L65.7761 10.7881L66.0227 11.0865L66.2616 11.4078L66.4851 11.7521L66.7008 12.1194L66.7856 12.2877L66.8627 12.4484L66.9397 12.609L67.0168 12.7697L67.0861 12.9304L67.1555 13.091L67.2248 13.2517L67.2865 13.4124L67.3481 13.5731L67.4021 13.7414L67.456 13.9097L67.5022 14.078L67.5485 14.2464L67.5947 14.4147L67.6332 14.583L67.6718 14.7513L67.7103 14.9197L67.7411 15.088L67.7719 15.2563L67.8028 15.4246L67.8259 15.6006L67.849 15.7766L67.8721 15.9449L67.8875 16.1132L67.9029 16.2892V16.4652L67.9183 16.6412V16.8171V16.9931V17.1691L67.9106 17.3451L67.8105 19.518L66.6084 17.5899L66.4697 17.368L66.3233 17.1385L66.0458 16.7024L65.7993 16.3198L65.622 16.0444L65.4833 15.8225L65.3369 15.6006L65.1982 15.3787L65.0595 15.1568L64.9131 14.935L64.7667 14.7131L64.628 14.4836L64.497 14.2693L64.3044 14.0015L64.104 13.7414L63.9114 13.4966L63.7187 13.2747L63.5338 13.0681L63.3565 12.8845L63.1793 12.7161L63.0098 12.5708L62.848 12.4407L62.7016 12.3336L62.5629 12.2494L62.4396 12.1806L62.324 12.1347L62.2315 12.1041L62.1545 12.0888H62.0851H61.8616L61.6305 12.1194L61.3993 12.1653L61.1604 12.2341L60.9215 12.3259L60.6827 12.4407L60.4361 12.5784L60.1895 12.7391L59.9429 12.9304L59.6886 13.1446L59.4343 13.3818L59.18 13.6496L58.9258 13.9403L58.6715 14.2617L58.4172 14.606L58.1629 14.9809L58.055 15.1492L57.9471 15.3175L57.8469 15.4858L57.7468 15.6542L57.6466 15.8225L57.5541 15.9908L57.4617 16.1591L57.3769 16.3198L57.2921 16.4881L57.2151 16.6488L57.138 16.8095L57.061 16.9702L56.9916 17.1308L56.9223 17.2915L56.8606 17.4522L56.799 17.6129L56.7373 17.7735L56.6757 17.9342L56.6217 18.0949L56.5678 18.2479L56.5216 18.4009L56.4753 18.5539L56.4291 18.707L56.3906 18.86L56.352 19.013L56.3135 19.166L56.2827 19.3191L56.2519 19.4721L56.2287 19.6251L56.2056 19.7781L56.1825 19.9311L56.1671 20.0612V20.2754V20.4897L56.1902 20.6963L56.2287 20.9028L56.2827 21.1018L56.352 21.293L56.4368 21.4843L56.5293 21.6679L56.6449 21.8516L56.7759 22.0352L56.9223 22.2112L57.0918 22.3871L57.2767 22.5631L57.4848 22.7314L57.716 22.8998L57.9702 23.0681L58.1706 23.1982L58.3786 23.3206L58.6021 23.443L58.8333 23.5578L59.0799 23.6725L59.3342 23.7796L59.6039 23.8868L59.8813 23.9939L60.1741 24.0933L60.4823 24.1852L60.7982 24.277L61.1296 24.3611L61.4686 24.4453L61.8231 24.5218L62.1853 24.5983L62.5552 24.6672L62.848 24.7131L63.1408 24.759L63.4336 24.7972L63.7264 24.8355L64.0192 24.8661L64.3121 24.8967L64.6049 24.9197L64.8977 24.9426L65.1905 24.9579L65.4756 24.9732L65.7607 24.9885L66.0458 25.0038H66.331L66.6161 25.0191H66.9012H67.1786H67.3712L67.5562 25.0038L67.7411 24.9885L67.9183 24.9656L68.0879 24.935L68.2574 24.9044L68.4192 24.8661L68.581 24.8202L68.7352 24.7666L68.8893 24.7131L69.0434 24.6519L69.1898 24.583L69.3362 24.5065L69.4826 24.43L69.6213 24.3458L69.76 24.2617L69.945 24.1316L70.1453 23.9862L70.3456 23.8409L70.546 23.6955L70.7541 23.5501L70.9621 23.4124L71.1702 23.267L71.3782 23.1217L71.5863 22.9763L71.7943 22.8386L72.0101 22.7008L72.2181 22.5631L72.4339 22.4254L72.6497 22.2877L72.8654 22.1423L75.3775 20.4897L75.4237 20.3902L75.5547 20.1224L75.6934 19.847L75.8475 19.5715L76.0017 19.3038L76.125 19.0742L76.2637 18.8447L76.4024 18.6305L76.5488 18.4239L76.6952 18.2249L76.8416 18.0337L76.988 17.8577L77.1421 17.6894L77.2962 17.5287L77.4503 17.3833L77.6122 17.2456L77.774 17.1155L77.9358 17.0008L78.0976 16.8937L78.2594 16.8018L78.4598 16.6871L78.6293 16.6335L78.6833 16.6182L78.7449 16.5876ZM27.2012 24.4223L27.155 24.2158L27.1088 24.0015L27.0548 23.7873L27.0086 23.5807L26.8699 23.091L26.7235 22.632L26.5771 22.2112L26.423 21.821L26.2688 21.469L26.107 21.1477L25.9452 20.8646L25.7834 20.6197L25.6216 20.4132L25.4675 20.2372L25.3133 20.0995L25.1669 19.9923L25.0359 19.9158L24.9126 19.8699L24.7971 19.8393H24.6815H24.6121L24.5351 19.8546L24.4426 19.8852L24.3347 19.9388L24.2114 20.0153L24.0804 20.1224L23.934 20.2525L23.7799 20.4055L23.6181 20.5815L23.4485 20.7881L23.2713 21.0176L23.0864 21.2701L22.9014 21.5455L22.7088 21.8516L22.5084 22.1806L22.3158 22.5172L21.9228 23.2976L21.7379 23.6649L21.5606 24.0092L21.3988 24.3305L21.2447 24.6366L21.0983 24.9197L20.9673 25.1798L20.844 25.4246L20.7284 25.6465L20.6205 25.8454L20.5281 26.0291L20.4433 26.1897L20.3663 26.3351L20.2969 26.4575L19.85 27.2226L19.2797 26.71L19.2335 26.6871L19.1642 26.6488L19.0794 26.5953L18.9176 26.4575L18.8251 26.2816L18.7943 26.228L18.7635 26.1668L18.7326 26.0903L18.7095 25.9985L18.6941 25.9067V25.8378V25.7919V25.1875L18.7249 24.8278V24.6366L18.7403 24.4529V24.2693L18.7558 24.078V23.8868L18.7712 23.7031V23.5119L18.7866 23.3282L18.802 22.9533V22.7621L18.8097 22.5708V22.1959L18.8251 22.0046V21.821V21.6297V21.4384V21.2548V20.6963V20.5126V20.329L18.8174 20.1454V19.9617L18.802 19.7781V19.5945L18.7866 19.4109V19.2196L18.7712 19.0283V18.8294L18.7558 18.6305V18.4315L18.7326 18.2326V18.0337L18.7095 17.8347V17.6358L18.6864 17.4292V17.2226L18.6633 17.0161V16.8095L18.6402 16.6029L18.6248 16.3963L18.6093 16.1821L18.5939 15.9679L18.5785 15.7536L18.5631 15.5318L18.5323 15.1033L18.5169 14.8814L18.5015 14.6595L18.4784 14.4376L18.4552 14.2158L18.4321 13.9862L18.409 13.7567L18.3859 13.5272L18.3628 13.2976L18.3396 13.0681L18.3165 12.8309L18.2857 12.5937L18.2164 11.9969L18.1778 11.6985L18.1393 11.4002L18.1008 11.1018L18.0622 10.8034L18.0237 10.4973L17.9852 10.1913L17.9467 9.88523L17.9081 9.57919L17.8696 9.27314L17.8311 8.9671L17.7925 8.66106L17.754 8.34736L17.7155 8.03366L17.6692 7.63581L17.7078 7.36037L17.7309 7.19204L17.7463 7.04667V6.9166L17.7617 6.80949V6.72533V6.66412V6.33512L18.0314 6.10559L18.1162 6.03673L18.2164 5.96021L18.3319 5.8684L18.4629 5.76894L18.6093 5.65417L18.7712 5.5241L19.7267 4.76664L19.9964 5.97552L20.0503 6.2127L20.1043 6.44988L20.1505 6.68707L20.1967 6.92425L20.243 7.16144L20.2892 7.39862L20.3354 7.63581L20.3817 7.87299L20.4279 8.11018L20.4741 8.33971L20.5127 8.56924L20.5512 8.79878L20.5897 9.02831L20.6283 9.25784L20.6668 9.48738L20.7053 9.71691L20.7361 9.94644L20.767 10.176L20.7978 10.4055L20.8286 10.6274L20.8594 10.8493L20.8902 11.0712L20.9211 11.293L20.9442 11.5149L20.9673 11.7368L20.9904 11.9587L21.0135 12.1806L21.0367 12.3948L21.0598 12.609L21.0829 12.8233L21.106 13.0375L21.1214 13.2594L21.1368 13.4813L21.1522 13.7031L21.1677 13.925L21.1831 14.1469L21.1985 14.3688L21.2139 14.5907V14.8125L21.237 15.0344V15.2563L21.2524 15.4782V15.7001L21.2601 15.922V16.1362L21.2678 16.3581V16.5723V16.7942V17.0161V17.2303V17.6664V17.8883V18.1102L21.2601 18.3244V18.5463V18.5769L21.2986 18.5463L21.4142 18.4468L21.5298 18.3397L21.6377 18.2402L21.7456 18.1408L21.8458 18.0413L21.9922 17.9036L22.2156 17.7506L22.3852 17.6358L22.5547 17.5287L22.7165 17.4216L22.8783 17.3221L23.0324 17.2303L23.1866 17.1461L23.3407 17.0696L23.4948 17.0008L23.6489 16.9396L23.803 16.886L23.9494 16.8401L24.1035 16.8018L24.2577 16.7712L24.4118 16.7559H24.5659H24.8587L25.1438 16.7865L25.4212 16.8401L25.6986 16.9166L25.9683 17.0161L26.2303 17.1385L26.4846 17.2762L26.7235 17.4369L26.9547 17.6205L27.1781 17.8194L27.3939 18.0413L27.6019 18.2785L27.7946 18.5386L27.9795 18.8141L28.1645 19.1048L28.3186 19.3879L28.4573 19.5945L28.6037 19.8393L28.7424 20.0995L28.8811 20.3673L29.0121 20.6503L29.1354 20.9411L29.2587 21.2395L29.3743 21.5532L29.4898 21.8745L29.5977 22.2112L29.7056 22.5555L29.8058 22.9151L29.906 23.2823L29.9984 23.6649L30.0909 24.0627L30.1757 24.4529L30.245 24.7054L30.3144 24.9732L30.3837 25.2487L30.4454 25.5241L30.507 25.7995L30.5686 26.075L30.6303 26.3504L30.6919 26.6259L30.7536 26.8936L30.8152 27.1614L30.8769 27.4292L30.9385 27.697L31.0002 27.9648L31.0618 28.2249L31.1312 28.4851L31.3315 29.2425L30.638 29.5715L30.3991 29.671L30.1602 29.7628L29.9137 29.8393L29.6671 29.9082L29.4128 29.9541L29.1508 29.9847L28.9042 30H27.6636L27.7098 29.2043V29.0589L27.7175 28.9135V28.4621L27.7098 28.3091V28.1484L27.6944 27.9878V27.8271L27.6713 27.6588L27.6559 27.4904L27.6405 27.3221L27.6174 27.1461L27.5942 26.9702L27.5711 26.7942L27.548 26.6106L27.5172 26.4269L27.4864 26.2433L27.4555 26.052L27.4247 25.8608L27.3939 25.6695L27.3554 25.4782L27.3168 25.2793L27.2783 25.0803L27.2321 24.8814L27.1935 24.6748L27.1473 24.4683L27.2012 24.4223ZM91.7984 25.6618L91.2359 25.3405L91.0355 25.2563L90.8275 25.1875L90.6117 25.1415L90.3728 25.1033L90.1186 25.0803L89.8489 25.065H89.5638H88.2384H87.9995L87.776 25.0574H87.5603L87.3445 25.0344L87.1364 25.0115L86.9438 24.9885L86.7512 24.9579L86.5662 24.9273L86.389 24.8891L86.2195 24.8508L86.0576 24.8049L85.8958 24.7513L85.7417 24.6978L85.5953 24.6366L85.4566 24.5677L85.3102 24.4912L85.1175 24.3917L84.948 24.2846L84.7785 24.1699L84.6167 24.0474L84.4626 23.9174L84.3161 23.772L84.1697 23.619L84.031 23.4507L83.9 23.2747L83.7767 23.0834L83.6535 22.8845L83.5379 22.6702L83.43 22.4407L83.3298 22.1959L83.2373 21.9434L83.1526 21.6756L83.0832 21.4461L83.0216 21.2242L82.9599 21.0176L82.906 20.8187L82.8521 20.635L82.8058 20.4667L82.7673 20.3137L82.7288 20.176L82.6979 20.0459L82.6671 19.9311L82.644 19.8393L82.6209 19.7628V19.7016L82.5978 19.6634L82.5901 19.5639L82.4282 19.1584L82.2895 18.8523L82.1508 18.5616L82.0044 18.2862L81.858 18.026L81.7039 17.7888L81.5421 17.5593L81.3726 17.3527L81.1953 17.1614L81.0027 16.9855L80.8023 16.8324L80.5866 16.7024L80.3554 16.5953L80.1165 16.5187L79.8699 16.4728L79.6234 16.4575H79.4615L79.3151 16.4805L79.1764 16.5034L79.0454 16.534L78.9144 16.5647L78.7911 16.6029L78.7295 16.6259V20.5891L78.9221 20.4055L79.3922 19.9847V19.9464L79.4384 19.8929L79.5463 19.7705L79.6542 19.6557L79.7621 19.5486L79.8237 19.4874L79.8391 19.518L79.9085 19.6251L79.9932 19.7475L80.024 19.8393L80.0934 20.0306L80.1473 20.1913L80.1859 20.3213L80.209 20.4285L80.2244 20.505V20.5585L80.2013 20.6963V20.8034V20.8493V20.8875L80.1936 20.9258V20.9717L80.1628 21.0329L80.1319 21.1171L80.0626 21.2624L80.0163 21.4002L79.9855 21.4996L79.9547 21.5914L79.9162 21.6756L79.8776 21.7598L79.8391 21.8363L79.7929 21.9204L79.7312 22.0199L79.5925 22.2647L79.4615 22.479L79.3228 22.6779L79.1841 22.8615L79.0454 23.0298L78.899 23.1752L78.7526 23.3053L78.7141 23.3282V26.58L78.8297 26.534L79.3768 26.3351V26.2586L79.4538 26.2204L79.5617 26.1668L79.6773 26.1056L79.8006 26.0367L79.9162 25.9602L80.1088 25.8378L80.286 25.723L80.4556 25.6159L80.6174 25.5241L80.7638 25.4323L80.9025 25.3558L81.0335 25.2793L81.1568 25.2181L81.2647 25.1645L81.3571 25.1186L81.4419 25.0803L81.5113 25.0497L81.5498 25.0344L81.5883 25.0497L81.6654 25.0956L81.7578 25.1492L81.8657 25.2181L81.9967 25.3022L82.1354 25.4017L82.2895 25.5088L82.4514 25.6312L82.6286 25.7613L82.8135 25.899L83.0139 26.052L83.2296 26.2127L83.4454 26.381L83.6766 26.5647L83.9155 26.7483L84.1543 26.9243L84.3932 27.0849L84.6321 27.2303L84.871 27.368L85.1098 27.4904L85.341 27.5976L85.5722 27.697L85.8034 27.7812L86.0345 27.85L86.258 27.9112L86.4815 27.9572L86.7049 27.9878L86.9284 28.0107H87.1441H87.2906H87.4293L87.568 28.0031H87.7144L87.8608 27.9801L88.0072 27.9648L88.1613 27.9495L88.3154 27.9265L88.4695 27.8959L88.6314 27.8653L88.7932 27.8347L88.955 27.7965L89.1168 27.7582L89.2863 27.7123L89.4559 27.6664L89.6331 27.6129L89.9644 27.4904L90.2727 27.3604L90.5501 27.215L90.8044 27.062L91.0278 26.8936L91.2282 26.7253L91.3977 26.5493L91.7753 26.0903V25.7001L91.7984 25.6618ZM91.7984 5.41699V19.2884V19.1813L91.783 18.9212V18.6611L91.7599 18.4009L91.7445 18.1331L91.7291 17.8653V17.5899L91.7059 17.3221V17.0467L91.6828 16.7712L91.6674 16.4958V16.2127L91.6443 15.9296V15.6465L91.6289 15.3634V15.0727L91.6135 14.7819V14.4912L91.5981 14.2005V13.9097L91.5826 13.6113V13.3053L91.575 12.4254V12.15V11.8822V10.6121V10.3749V10.1454V9.92349V9.70161V9.48738V9.2808V9.08187V8.89059V8.69931V8.51568V8.33971V8.17138L91.5826 8.00306V7.84239L91.5904 7.68936V7.54399L91.6058 7.39862V7.2609L91.6212 7.13083V7.00842L91.6366 6.886V6.77123L91.6674 6.5417L91.6828 6.31982L91.6982 6.09793L91.7214 5.87605L91.7445 5.66182L91.7676 5.45524V5.42464L91.7984 5.41699ZM91.7984 19.2884V19.4338L91.8215 19.6863L91.8369 19.9388L91.8524 20.1913L91.8678 20.4361L91.8832 20.681L91.8986 20.9258L91.914 21.163L91.9294 21.4002L91.9448 21.6373L91.9602 21.8669L91.9756 22.1423L91.9911 22.4178L92.0065 22.6855L92.0219 22.9457L92.045 23.1982L92.0604 23.4507L92.0758 23.6955L92.0912 23.9327L92.1143 24.1622L92.1375 24.3917L92.1606 24.6136L92.176 24.8278L92.1991 25.0344L92.2222 25.2334L92.2453 25.4323L92.2685 25.6159L92.2916 25.7995L92.3147 25.9755L92.3378 26.1438L92.3609 26.3045L92.384 26.4652L92.4149 26.6182L92.4457 26.7636L92.4765 26.9013L92.5073 27.0314L92.5382 27.1614L92.569 27.2839L92.6075 27.4063L92.646 27.521L92.6846 27.6282L92.7308 27.7353L93.0776 28.4698L93.8713 27.9572L94.0639 27.8041L94.2411 27.6435L94.403 27.4675L94.5417 27.2762L94.6649 27.0773L94.7728 26.8707L94.8653 26.6641L94.9424 26.4499L95.0117 26.2357L95.0734 26.0214L95.1196 25.8072L95.1658 25.5853L95.2044 25.3711L95.2429 25.1568L95.2814 24.9197L95.2968 24.6901L95.3122 24.4683V24.2387L95.3199 23.9939V23.7414L95.3122 23.4813L95.2968 23.2135L95.2814 22.9304L95.266 22.6396L95.2429 22.3412L95.2121 22.0352L95.1812 21.7215L95.1427 21.3925L95.1042 21.0559L95.0579 20.7116L95.004 20.3443L94.9655 20.1683L94.9347 20.0153L94.9038 19.8623L94.873 19.7093L94.8499 19.5562L94.8268 19.4032L94.8036 19.2502L94.7805 19.0972L94.7574 18.9441L94.7343 18.7911L94.7112 18.6381L94.6958 18.4851L94.6727 18.3321L94.6572 18.179L94.6418 18.0184L94.6264 17.8806V17.7582L94.6033 17.544V17.3221L94.5802 17.1767V17.0237L94.5648 16.8707V16.7177L94.5494 16.5647V16.4116L94.534 16.2586V16.1056L94.5262 15.9449V15.7842L94.5185 15.6159V15.2946L94.5031 15.1339V14.9656V14.7972V14.4606V14.2923V14.1163V13.9403V13.7643V13.5884V13.4124L94.5108 13.2364V13.0604L94.5262 12.8845V12.7008L94.5417 12.5172V12.3336L94.5571 12.15V11.9663L94.5725 11.7827V11.5991L94.5879 11.4155V11.2318L94.6033 11.0482L94.6418 10.2372L94.6727 9.59449V9.41086L94.7035 8.87529V8.69931L94.7266 8.52334V8.34736L94.742 8.17138V7.99541L94.7574 7.81943V7.65111L94.7728 7.48279L94.7882 7.31446V7.14614L94.8036 6.96251V6.74063V6.5417V6.14384V5.95256V5.76129V5.57001V5.37873L94.7959 5.1951V5.01148L94.7882 4.82785V4.64422L94.7728 4.46825V4.29227L94.7574 4.1163V3.94032L94.742 3.772V3.60367L94.7189 3.43535V3.26702L94.6958 3.10635L94.6804 2.94568L94.6649 2.785L94.6495 2.62433L94.6341 2.47131L94.6187 2.31829L94.6033 2.16526L94.5879 2.01224L94.5725 1.85922L94.5571 1.71385L94.5417 1.56848L94.349 0L93.3087 1.23183L93.1932 1.3772L93.0853 1.52257L92.9851 1.66794L92.8926 1.82096L92.8002 1.97399L92.7154 2.12701L92.6306 2.28768L92.5536 2.44836L92.4842 2.60903L92.4149 2.7697L92.3532 2.93803L92.2993 3.10635L92.2453 3.28233L92.1991 3.4583L92.1683 3.60367L92.1221 3.74904L92.0681 3.93267L92.0219 4.1163L91.9756 4.29992L91.9371 4.4912L91.9063 4.68248L91.8755 4.88141L91.8447 5.08034L91.8215 5.28692L91.7984 5.46289V19.3344V19.2884ZM91.7984 26.052V25.6618L92.0142 25.7842L91.7984 26.052ZM124.471 26.3122L124.424 26.1668L124.371 26.0138L124.317 25.8608L124.263 25.7077L124.209 25.5547L124.155 25.4017L124.101 25.2487L124.039 25.0956L123.978 24.9426L123.916 24.7819L123.854 24.6213L123.793 24.4606L123.723 24.2999L123.654 24.1393L123.585 23.9786L123.515 23.8179L123.438 23.6572L123.369 23.4966L123.292 23.3359L123.215 23.1676L123.138 22.9992L123.061 22.8309L122.984 22.6626L122.899 22.4943L122.814 22.3259L122.729 22.1576L122.644 21.9893L122.56 21.8286L122.367 21.4308L122.167 21.0406L121.966 20.6656L121.766 20.3137L121.566 19.977L121.365 19.6557L121.165 19.3497L120.965 19.0589L120.764 18.7911L120.564 18.5386L120.364 18.3015L120.163 18.0796L119.963 17.873L119.763 17.6817L119.554 17.5134L118.691 16.8783L118.314 17.8959L118.221 18.1255L118.129 18.355L118.029 18.5845L117.921 18.8064L117.813 19.0283L117.697 19.2425L117.582 19.4568L117.459 19.6634L117.335 19.8699L117.204 20.0765L117.073 20.2754L116.935 20.4744L116.796 20.6656L116.649 20.8569L116.495 21.0559L116.349 21.2471L116.21 21.4231L116.064 21.5914L115.91 21.7598L115.756 21.9204L115.594 22.0811L115.424 22.2418L115.255 22.3948L115.077 22.5478L114.9 22.7008L114.715 22.8462L114.523 22.9916L114.446 23.0451L114.399 22.8309L114.361 22.6243L114.322 22.4178L114.291 22.2188L114.261 22.0122L114.238 21.8133L114.214 21.6144L114.191 21.4155L114.168 21.2165L114.153 21.0176L114.137 20.8187L114.122 20.658V20.2601L114.13 20.0383V19.8087L114.145 19.5715V19.3267L114.168 19.0742L114.184 18.8141L114.199 18.5463L114.214 18.2785L114.23 18.0031L114.245 17.7123L114.261 17.4216L114.276 17.1232L114.291 16.8171L114.369 15.4552L113.143 16.0367L112.866 16.2051L112.604 16.404L112.365 16.6335L112.149 16.9013L111.964 17.192L111.802 17.5134L111.679 17.8424L111.641 17.9419L111.602 18.0643L111.564 18.1867L111.533 18.3091L111.502 18.4392L111.471 18.5769L111.448 18.7146L111.425 18.8523L111.402 18.9901L111.379 19.1354L111.356 19.2884L111.332 19.4415L111.317 19.5945L111.294 19.7475L111.279 19.9082L111.255 20.0995V20.7498V20.8952V21.0482V21.2089V21.3772L111.263 21.5532V21.645L110.446 21.6603H110.261L110.069 21.6909L109.876 21.7215L109.676 21.7598L109.475 21.8057L109.275 21.8592L109.075 21.9281L108.874 21.9969L108.666 22.0811L108.458 22.1729L108.242 22.2724L108.027 22.3871L107.811 22.5096L107.587 22.6396L107.349 22.7927L107.171 22.9304L107.01 23.0528L106.848 23.1752L106.686 23.2976L106.524 23.42L106.355 23.5425L106.185 23.6649L106.015 23.7873L105.846 23.9097L105.676 24.0321L105.499 24.1546L105.322 24.277L105.145 24.3994L104.968 24.5218L104.79 24.6442L104.613 24.7666L104.428 24.8967L104.251 25.0115L104.081 25.1186L103.92 25.2104L103.758 25.2946L103.604 25.3711L103.449 25.4399L103.303 25.4935L103.164 25.5394L103.026 25.5777L102.887 25.6083L102.756 25.6312L102.625 25.6465L102.494 25.6618H102.363L102.232 25.6771H102.024L101.831 25.6542L101.654 25.6312L101.485 25.593L101.33 25.5471L101.184 25.4935L101.053 25.4323L100.93 25.3634L100.814 25.2793L100.706 25.1875L100.606 25.088L100.506 24.9732L100.413 24.8432L100.329 24.7054L100.244 24.5448L100.167 24.3841L100.136 24.2846L100.097 24.1622L100.067 24.0245L100.044 23.8715L100.02 23.7031L99.9973 23.5272L99.9819 23.3359V23.137L99.9665 22.9227V22.7008V22.4713V22.2341L99.9819 21.9816L99.9973 21.7215L100.013 21.4537L100.028 21.1783L100.051 20.7804L100.074 20.4132L100.105 20.0612L100.144 19.7246L100.182 19.4032L100.228 19.0972L100.282 18.8064L100.336 18.531L100.398 18.2709L100.46 18.0337L100.529 17.8118L100.598 17.6052L100.668 17.4139L100.737 17.238L100.806 17.0849L100.876 16.9625L100.937 16.863L101.014 16.7559L101.092 16.6565L101.176 16.5647L101.261 16.4805L101.346 16.404L101.438 16.3351L101.531 16.2739L101.623 16.2204L101.716 16.1744L101.816 16.1362L101.924 16.0979L102.039 16.075L102.163 16.052L102.286 16.0367H102.402H102.455H102.494L102.548 16.0673L102.61 16.1056L102.687 16.1668L102.779 16.2586L102.879 16.3734L102.979 16.5187L103.087 16.6871L103.203 16.886L103.318 17.1079L103.434 17.3604L103.55 17.6358L103.673 17.9342L103.789 18.2555L103.904 18.5845L103.95 18.7758L104.012 18.9824L104.074 19.1813L104.135 19.365L104.197 19.5409L104.259 19.7093L104.32 19.8623L104.382 20.0077L104.444 20.1454L104.505 20.2678L104.567 20.3826L104.621 20.4897L104.675 20.5815L104.729 20.6656L104.775 20.7422L105.784 22.2724L106 20.2066L106.031 19.8929L106.054 19.5868L106.069 19.2884V18.9977L106.077 18.7146V18.4392V18.1714L106.062 17.9112L106.046 17.6588L106.023 17.4139L106 17.1767L105.969 16.9472L105.938 16.7253L105.908 16.5111L105.869 16.2816L105.784 15.9526L105.684 15.6465L105.576 15.3558L105.445 15.0803L105.307 14.8202L105.152 14.583L104.983 14.3611L104.79 14.1546L104.59 13.9709L104.374 13.8103L104.143 13.6725L103.896 13.5578L103.642 13.466L103.372 13.4047L103.095 13.3665L102.818 13.3512H102.494L102.178 13.3894L101.87 13.443L101.562 13.5119L101.261 13.596L100.968 13.7031L100.683 13.8332L100.406 13.9786L100.136 14.1469L99.874 14.3305L99.6197 14.5295L99.3809 14.7513L99.1497 14.9885L98.9262 15.241L98.7182 15.5088L98.5101 15.7995L98.356 16.0597L98.2173 16.3122L98.0863 16.5723L97.963 16.8324L97.8397 17.1002L97.7241 17.368L97.6162 17.6435L97.5161 17.9265L97.4236 18.2096L97.3388 18.5004L97.2618 18.7988L97.1924 19.1048L97.1308 19.4109L97.0768 19.7246L97.0306 20.0459L96.9844 20.3902L96.969 20.7345V21.0635V21.3849V21.6985L96.9921 22.0122L97.0152 22.3259L97.046 22.632L97.0923 22.938L97.1462 23.2364L97.2078 23.5348L97.2772 23.8256L97.362 24.1163L97.4544 24.3994L97.5623 24.6825L97.6779 24.9579L97.8012 25.2104L97.9322 25.5088L98.0863 25.8148L98.2558 26.1056L98.4408 26.3734L98.6411 26.6259L98.8569 26.863L99.088 27.0773L99.3269 27.2686L99.5812 27.4445L99.8509 27.5976L100.128 27.7276L100.421 27.8347L100.722 27.9189L101.03 27.9725L101.346 28.0107H101.669H101.924L102.186 27.9878L102.455 27.9495L102.733 27.8959L103.018 27.8271L103.311 27.7429L103.611 27.6511L103.927 27.544L104.251 27.4216L104.575 27.2839L104.914 27.1308L105.26 26.9625L105.615 26.7789L105.977 26.58L106.347 26.3657L106.717 26.1438L107.025 25.9755L107.341 25.7919L107.649 25.6083L107.95 25.4246L108.25 25.241L108.535 25.0574L108.82 24.8738L109.098 24.6901L109.36 24.4989L109.622 24.3076L109.876 24.1163L110.123 23.925L110.362 23.7261L110.593 23.5272L110.808 23.3282L111.148 22.9992L111.332 22.1194V22.28L111.356 22.5019L111.371 22.7314L111.394 22.9763L111.417 23.2135L111.44 23.4354L111.463 23.6496L111.487 23.8562L111.517 24.0474L111.548 24.2311L111.579 24.3994L111.61 24.5601L111.641 24.7054L111.664 24.8432L111.695 24.9732L111.718 25.088L111.741 25.1951L111.764 25.2869V25.3252L111.779 25.3711L111.81 25.4935L111.849 25.593L111.895 25.6848L111.941 25.7766L111.957 25.7995V26.3198L112.843 26.2969L113.105 26.2816L113.367 26.251L113.629 26.2051L113.883 26.1515L114.137 26.0826L114.392 25.9985L114.646 25.9067L114.893 25.7995L115.139 25.6848L115.386 25.5547L115.632 25.417L115.871 25.264L116.11 25.1033L116.349 24.9273L116.58 24.7437L116.78 24.5754L116.981 24.407L117.173 24.2387L117.358 24.0627L117.543 23.8791L117.721 23.6955L117.898 23.5042L118.067 23.3129L118.237 23.114L118.399 22.9074L118.56 22.6932L118.715 22.479L118.799 22.3565L118.853 22.4407L118.946 22.5937L119.046 22.7544L119.146 22.9304L119.254 23.114L119.37 23.3129L119.493 23.5195L119.616 23.7414L119.747 23.9709L119.878 24.2005L120.078 24.5754L120.294 24.9503L120.518 25.3022L120.749 25.6312L120.988 25.9373L121.227 26.2204L121.481 26.4805L121.743 26.7177L122.013 26.9243L122.29 27.1079L122.575 27.2686L122.876 27.3986L123.176 27.5057L123.492 27.5823L123.808 27.6282L124.532 27.6664V26.251L124.471 26.3122ZM124.471 17.7047V20.3443L124.008 20.4438V18.6611L124.055 18.4545L124.116 18.2862L124.193 18.1255L124.278 17.9725L124.386 17.8194L124.471 17.7047ZM124.471 27.7276L124.933 27.7506L124.617 26.7559L124.571 26.6106L124.525 26.4652L124.478 26.3198V27.7276H124.471ZM146.047 16.4881L145.9 16.58L145.685 16.71L145.484 16.8401L145.292 16.9778L145.114 17.1155L144.953 17.2533L144.798 17.391L144.66 17.5287L144.529 17.6741L144.413 17.8194L144.313 17.9725L144.221 18.1255L144.143 18.2862L144.09 18.4545L144.043 18.6611V20.4438L144.999 20.2295L145.215 20.1683L145.43 20.0995L145.654 20.0153L145.885 19.9235L146.039 19.8546V16.4805L146.047 16.4881ZM146.047 8.91354V14.3229L145.708 14.6672L145.353 13.4813L145.299 13.3053L145.245 13.1293L145.199 12.9533L145.153 12.785L145.107 12.6167L145.06 12.4484L145.014 12.28L144.968 12.1117L144.922 11.9434L144.876 11.7751L144.829 11.6067L144.791 11.469L144.552 11.5149L144.282 11.5608L144.012 11.6067L143.75 11.6526L143.488 11.6985L143.226 11.7445L142.964 11.7904L142.702 11.8363L142.448 11.8822L142.194 11.9281L141.94 11.974L141.693 12.0199L141.446 12.0735L141.2 12.127L140.83 12.1959L140.483 12.2647L140.144 12.3412L139.813 12.4178L139.489 12.4943L139.181 12.5784L138.888 12.6626L138.603 12.7467L138.333 12.8386L138.071 12.9304L137.825 13.0222L137.594 13.1217L137.37 13.2211L137.17 13.3206L136.977 13.4277L136.8 13.5348L136.538 13.7031L136.299 13.8715L136.076 14.0398L135.868 14.2081L135.675 14.3764L135.498 14.5448L135.344 14.7131L135.205 14.8891L135.082 15.0574L134.974 15.2334L134.881 15.4093L134.804 15.5853L134.742 15.7689L134.696 15.9526L134.658 16.1438L134.635 16.3351V17.1002V17.3068V17.521L134.642 17.7353V17.9572L134.658 18.179L134.673 18.4009L134.689 18.6228L134.704 18.8523L134.727 19.0819L134.75 19.3114L134.781 19.5486L134.82 19.7858L134.858 20.0842L134.897 20.3749L134.935 20.658L134.974 20.9334L135.012 21.2012L135.051 21.4614L135.082 21.7139L135.112 21.9663L135.143 22.2035L135.174 22.4407L135.205 22.6702L135.228 22.8921L135.251 23.1064L135.274 23.3129L135.297 23.5119L135.313 23.7031L135.328 23.8944L135.344 24.0704L135.359 24.2464V24.4147L135.382 24.5754V24.7284L135.397 24.8738V25.0191L135.405 25.1568V25.2869V25.4093V25.6389L135.397 25.746V25.8531L135.382 25.922V26.1515L135.359 26.4116L135.336 26.6641L135.297 26.909L135.251 27.1461L135.197 27.3757L135.128 27.5976L135.043 27.8347L134.904 28.0949L134.766 28.3244L134.611 28.5463L134.434 28.7605L134.234 28.9594L134.018 29.1431L133.779 29.3037L132.77 29.8776L132.593 28.7682L132.562 28.5386L132.531 28.2938L132.5 28.0413L132.477 27.7812L132.454 27.5134L132.431 27.2379L132.415 26.9472L132.4 26.6488V26.3428L132.385 26.0214V25.3558L132.4 25.0115L132.415 24.6519L132.431 24.2999V22.9533V22.5555V22.1806V21.8286V21.5073L132.423 21.2165V20.9487L132.415 20.7039V20.4897L132.4 20.2984V20.1377L132.377 20.0077L132.361 19.9082L132.338 19.7858L132.315 19.4262L132.292 19.1125L132.261 18.8064L132.23 18.5157L132.192 18.2326L132.146 17.9495L132.099 17.6741L132.045 17.4063L131.992 17.1461L131.93 16.8937L131.861 16.6412L131.791 16.3963L131.714 16.1515L131.699 16.1209L131.66 16.1438L131.483 16.2663L131.29 16.404L131.082 16.557L130.859 16.7177L130.612 16.8937L130.35 17.0849L130.073 17.2915L129.78 17.5057L129.472 17.7353L129.14 17.9801L128.786 18.2402L128.478 18.4545L128.185 18.6534L127.9 18.8447L127.622 19.0207L127.353 19.189L127.091 19.342L126.829 19.4874L126.582 19.6251L126.336 19.7475L126.097 19.8623L125.865 19.9617L125.634 20.0536L125.411 20.1377L125.195 20.2066L124.979 20.2678L124.486 20.3826V17.7429L124.517 17.7047L124.648 17.5593L124.787 17.4216L124.941 17.2839L125.103 17.1461L125.28 17.0084L125.472 16.8707L125.673 16.733L125.889 16.6029L126.112 16.4652L126.343 16.3351L126.721 16.1285L127.083 15.9296L127.422 15.746L127.738 15.57L128.038 15.4093L128.316 15.2563L128.57 15.1186L128.809 14.9885L129.025 14.8738L129.217 14.7666L129.387 14.6748L129.533 14.5907L129.657 14.5218L129.757 14.4606L129.834 14.4147L129.872 14.3917L130.088 14.2311L130.296 14.0627L130.489 13.8944L130.658 13.7337L130.82 13.5654L130.967 13.3971L131.098 13.2288L131.213 13.0604L131.313 12.8921L131.406 12.7238L131.483 12.5478L131.545 12.3795L131.599 12.2035L131.645 12.0199L131.676 11.8363L131.691 11.6603V10.329L131.66 10.1301L131.629 9.90054L131.599 9.67865L131.575 9.47207L131.552 9.27314L131.529 9.08952L131.514 8.91354L131.498 8.74522L131.483 8.5922V8.45448L131.468 8.32441V8.07957L131.483 7.95715L131.506 7.84239V7.03137L131.73 6.80949L131.783 6.75593L131.853 6.69472L131.93 6.62586L132.022 6.54935L132.123 6.47284L132.23 6.38868L132.909 5.92196L133.317 6.66412L133.394 6.82479L133.471 6.99311L133.548 7.16909L133.617 7.36037L133.687 7.5593L133.756 7.76588L133.825 7.98776L133.887 8.21729L133.949 8.46213L134.01 8.71461L134.064 8.97475L134.118 9.25019L134.165 9.53328L134.211 9.82402L134.249 10.1454L134.272 10.4361L134.296 10.6963L134.319 10.9487L134.342 11.1936L134.365 11.4308L134.388 11.6603L134.411 11.8822L134.434 12.0888L134.457 12.2953L134.473 12.4178L134.558 12.3718L134.75 12.2571L134.935 12.15L135.12 12.0428L135.305 11.9357L135.49 11.8286L135.675 11.7292L135.852 11.6297L136.029 11.5302L136.207 11.4384L136.384 11.3466L136.561 11.2548L136.731 11.1706L136.9 11.0865L137.07 11.0023L137.239 10.9181L137.409 10.8416L137.578 10.7651L137.748 10.6886L137.917 10.6121L138.079 10.5432L138.241 10.4744L138.403 10.4055L138.565 10.3366L138.726 10.2754L138.888 10.2142L139.05 10.153L139.189 10.0995L139.374 10.023L139.574 9.94644L139.774 9.86993L139.975 9.80107L140.175 9.73221L140.375 9.66335L140.576 9.60214L140.776 9.54093L140.976 9.47972L141.177 9.42617L141.369 9.37261L141.562 9.31905L141.755 9.26549L141.947 9.21959L142.14 9.18133L142.333 9.14308L142.525 9.10482L142.718 9.06656L142.903 9.03596L143.095 9.00536L143.28 8.97475L143.465 8.9518L143.65 8.92884L143.835 8.90589L144.02 8.88294L144.205 8.86764L144.39 8.85233L144.567 8.83703H144.745L144.922 8.82173H145.099H145.284H145.561L145.839 8.86764L146.078 8.92119L146.047 8.91354ZM146.047 14.3229L146.586 13.772L146.717 13.6419L146.84 13.5195L146.956 13.3971L147.072 13.2747L147.18 13.1446L147.28 13.0145L147.341 12.9304L147.457 12.808L147.596 12.632L147.719 12.456L147.827 12.28L147.919 12.0964L147.989 11.9051L148.035 11.7062L148.05 11.5149L148.035 11.2395L148.004 10.987L147.95 10.7345L147.873 10.4897L147.773 10.2525L147.657 10.0306L147.519 9.81637L147.318 9.54858L147.049 9.34966L146.833 9.20428L146.602 9.08187L146.355 8.9824L146.101 8.90589H146.07V14.3076L146.047 14.3229ZM167.746 16.5876L167.692 16.6029L167.523 16.6565L167.322 16.7712L167.168 16.863L167.006 16.9702L166.845 17.0849L166.683 17.215L166.529 17.3527L166.367 17.4981L166.213 17.6588L166.059 17.8271L165.904 18.0031L165.758 18.1943L165.612 18.3933L165.465 18.5998L165.327 18.8141L165.188 19.0436L165.065 19.2731L164.91 19.5409L164.756 19.8164L164.618 20.0918L164.487 20.3596L164.371 20.6274L164.263 20.8952L164.163 21.163L164.07 21.4308L163.993 21.6909L163.924 21.951L163.862 22.2112L163.809 22.4713L163.762 22.7238L163.724 22.9763L163.693 23.2288L163.67 23.4583L163.654 23.596L163.639 23.7567V23.9097L163.624 24.0627V24.3535L163.639 24.4989L163.654 24.6366L163.67 24.7743L163.693 24.912L163.716 25.0421L163.747 25.1645L163.778 25.2869L163.816 25.4093L163.855 25.5241L163.909 25.6618L164.063 25.9679L164.263 26.2433L164.502 26.4728L164.772 26.6641L165.057 26.8018L165.357 26.8936L165.666 26.9472L165.974 26.9625H166.105L166.228 26.9472L166.344 26.9319L166.467 26.9166L166.59 26.8936L166.706 26.8707L166.829 26.8401L166.952 26.8095L167.076 26.7712L167.199 26.733L167.33 26.6947L167.461 26.6488L167.592 26.6029L167.731 26.557H167.754V23.2976L167.569 23.4354L167.315 23.6878L167.083 23.8332L166.999 23.8868L166.914 23.9327L166.821 23.9786L166.729 24.0245L166.637 24.0704L166.536 24.1086L166.436 24.1546L166.405 24.1699L166.382 24.1086L166.336 23.9862V23.925L166.321 23.7643L166.305 23.6266L166.282 23.4966L166.267 23.3894L166.251 23.2976V23.2211L166.244 23.1905V23.1293L166.274 23.0145L166.297 22.9074L166.321 22.8003L166.351 22.6932L166.382 22.5861L166.413 22.479L166.452 22.3718L166.49 22.2647L166.536 22.1576L166.583 22.0505L166.637 21.9434L166.69 21.8363L166.752 21.7292L166.821 21.622L166.898 21.5073L166.976 21.4002L167.068 21.2777L167.191 21.1247L167.345 20.9564L167.523 20.7651L167.731 20.5585L167.769 20.5279V16.5647L167.746 16.5876ZM167.746 10.1607V12.4866L167.638 12.6396L167.492 12.8156L167.376 12.938L167.315 13.0222L167.214 13.1523L167.107 13.2747L166.991 13.3971L166.868 13.5195L166.744 13.6496L166.613 13.7796L165.735 14.6672L165.38 13.4813L165.327 13.3053L165.28 13.1293L165.234 12.9533L165.188 12.785L165.142 12.6167L165.095 12.4484L165.049 12.28L164.957 11.9434L164.91 11.7751L164.864 11.6067L164.826 11.469L164.579 11.5149L164.309 11.5608L164.047 11.6067L163.785 11.6526L163.523 11.6985L163.261 11.7445L162.999 11.7904L162.737 11.8363L162.483 11.8822L162.229 11.9281L161.975 11.974L161.728 12.0199L161.481 12.0735L161.227 12.127L160.857 12.1959L160.503 12.2647L160.164 12.3412L159.832 12.4178L159.509 12.4943L159.2 12.5784L158.9 12.6626L158.615 12.7467L158.345 12.8386L158.083 12.9304L157.837 13.0222L157.605 13.1217L157.39 13.2211L157.182 13.3206L156.989 13.4277L156.804 13.5348L156.542 13.7031L156.303 13.8715L156.08 14.0398L155.872 14.2081L155.679 14.3764L155.502 14.5448L155.348 14.7131L155.209 14.8891L155.086 15.0574L154.978 15.2334L154.885 15.4093L154.808 15.5853L154.747 15.7689L154.693 15.9526L154.654 16.1438L154.631 16.3581L154.616 16.534V16.7253L154.6 16.9166V17.1155V17.3145V17.521L154.616 17.7276L154.631 17.9419L154.646 18.1561L154.662 18.378L154.685 18.5998L154.708 18.8294L154.739 19.0589L154.77 19.2961L154.8 19.5333L154.839 19.7781L154.885 20.0765L154.924 20.3673L154.962 20.6503L155.001 20.9258L155.039 21.1936L155.078 21.4537L155.109 21.7062L155.14 21.9587L155.17 22.1959L155.201 22.4331L155.232 22.6626L155.255 22.8845L155.278 23.0987L155.301 23.3053L155.324 23.5042L155.348 23.6955L155.363 23.8868L155.378 24.0627L155.394 24.2387V24.407L155.417 24.5677V24.7207L155.432 24.8661V25.0115L155.44 25.1492V25.2793V25.4093V25.5318V25.6465V25.7536L155.425 25.8608V25.9296L155.417 26.1591L155.402 26.4193L155.371 26.6718L155.34 26.9166L155.294 27.1538L155.24 27.3833L155.17 27.6052L155.086 27.8424L154.947 28.1025L154.808 28.3321L154.654 28.5539L154.477 28.7682L154.277 28.9671L154.061 29.1507L153.822 29.3114L152.812 29.8852L152.635 28.7758L152.604 28.5463L152.574 28.3015L152.543 28.049L152.52 27.7888L152.496 27.521L152.473 27.2456L152.458 26.9549L152.443 26.6565V26.3504L152.427 26.0291V25.3634L152.443 25.0191L152.458 24.6595L152.473 24.3076V22.5631V22.1882V21.8363V21.5149V21.2242L152.466 20.9564V20.7116L152.45 20.4973V20.306L152.435 20.1454L152.419 20.0153L152.404 19.9158L152.381 19.8011L152.358 19.4491L152.335 19.1354L152.304 18.8294L152.273 18.531L152.234 18.2479L152.188 17.9648L152.142 17.6894L152.088 17.4216L152.026 17.1614L151.965 16.909L151.895 16.6565L151.826 16.4116L151.749 16.1744L151.734 16.1438L151.695 16.1668L151.518 16.2892L151.325 16.4269L151.117 16.58L150.886 16.7406L150.647 16.9166L150.385 17.1079L150.108 17.3145L149.815 17.5287L149.507 17.7582L149.175 18.0031L148.821 18.2632L148.513 18.4774L148.22 18.6764L147.935 18.8676L147.657 19.0436L147.388 19.2119L147.126 19.365L146.871 19.5103L146.617 19.6481L146.37 19.7705L146.132 19.8852L146.054 19.9158V16.5417L146.132 16.4958L146.363 16.3657L146.74 16.1591L147.102 15.9602L147.442 15.7766L147.757 15.6006L148.058 15.4399L148.335 15.2869L148.59 15.1492L148.829 15.0191L149.044 14.9044L149.237 14.7972L149.406 14.7054L149.553 14.6213L149.676 14.5524L149.776 14.4912L149.853 14.4453L149.892 14.4223L150.1 14.2617L150.308 14.0933L150.501 13.925L150.67 13.7643L150.832 13.596L150.978 13.4277L151.109 13.2594L151.225 13.091L151.325 12.9227L151.418 12.7544L151.495 12.5784L151.564 12.4101L151.618 12.2341L151.664 12.0505L151.695 11.8669L151.718 11.6909V10.3596L151.687 10.1607L151.657 9.93114L151.626 9.70926L151.595 9.50268L151.572 9.30375L151.556 9.12012L151.533 8.94415L151.518 8.77582V8.6228L151.495 8.48508V8.35501V8.23259V8.11018L151.51 7.98776L151.533 7.87299V7.06197L151.757 6.84009L151.811 6.78653L151.88 6.72533L151.957 6.65647L152.05 6.57995L152.15 6.50344L152.258 6.41928L152.936 5.95256L153.344 6.69472L153.421 6.85539L153.498 7.02372L153.575 7.19969L153.652 7.39097L153.722 7.5899L153.791 7.80413L153.86 8.02601L153.922 8.25555L153.984 8.50038L154.045 8.75287L154.099 9.01301L154.153 9.28845L154.199 9.57154L154.246 9.86228L154.284 10.1836L154.307 10.4744L154.33 10.7345L154.354 10.987L154.377 11.2318L154.4 11.469L154.423 11.6985L154.446 11.9204L154.469 12.127L154.492 12.3259L154.508 12.4484L154.592 12.4024L154.785 12.2877L154.97 12.1806L155.155 12.0735L155.34 11.9663L155.525 11.8592L155.702 11.7598L155.879 11.6603L156.057 11.5608L156.234 11.469L156.411 11.3772L156.588 11.2854L156.758 11.2012L156.927 11.1171L157.097 11.0329L157.266 10.9487L157.436 10.8722L157.605 10.7957L157.775 10.7192L157.944 10.6427L158.106 10.5738L158.268 10.505L158.43 10.4361L158.592 10.3673L158.754 10.306L158.915 10.2448L159.077 10.1836L159.224 10.1301L159.409 10.0536L159.609 9.97705L159.809 9.90054L160.01 9.83168L160.21 9.76282L160.41 9.69396L160.611 9.63275L160.811 9.57154L161.011 9.51033L161.204 9.45677L161.397 9.40321L161.589 9.34966L161.782 9.2961L161.975 9.25019L162.167 9.21194L162.36 9.17368L162.552 9.13542L162.737 9.09717L162.93 9.06656L163.123 9.03596L163.308 9.00536L163.493 8.9824L163.678 8.95945L163.862 8.9365L164.047 8.91354L164.232 8.89824L164.417 8.88294L164.594 8.86764H164.772L164.949 8.85233H165.126H165.311H165.589L165.866 8.89824L166.136 8.9518L166.39 9.02831L166.637 9.12777L166.868 9.25019L167.091 9.39556L167.353 9.59449L167.553 9.85463L167.692 10.0689L167.762 10.1913L167.746 10.1607ZM167.746 12.4866V10.1607L167.8 10.2678L167.9 10.505L167.977 10.7498L168.039 11.0023L168.07 11.2548V11.5302V11.7215L168.024 11.9204L167.954 12.1117L167.869 12.2953L167.762 12.4713L167.746 12.4943V12.4866ZM167.746 26.5493V23.2976L167.785 23.2747L167.931 23.1446L168.077 22.9992L168.216 22.8309L168.355 22.6473L168.494 22.4484L168.625 22.2341L168.771 21.9893L168.833 21.8898L168.879 21.8057L168.917 21.7292L168.956 21.645L168.987 21.5608L169.025 21.469L169.056 21.3695L169.102 21.2318L169.172 21.0865L169.203 21.0023L169.226 20.9411V20.8952L169.241 20.8569V20.8187V20.7728V20.6656L169.264 20.5279V20.3979L169.226 20.2907L169.179 20.1607L169.125 20L169.056 19.8087L169.025 19.7246L168.933 19.6021L168.863 19.495L168.84 19.4644L168.779 19.5256L168.671 19.6327L168.563 19.7475L168.455 19.8699L168.409 19.9235V19.9617L167.939 20.3826L167.746 20.5662V16.6029L167.808 16.58L167.931 16.5417L168.054 16.5111L168.185 16.4805L168.324 16.4575L168.47 16.4422H168.632L168.879 16.4499L169.125 16.4958L169.364 16.5723L169.596 16.6794L169.811 16.8095L170.012 16.9625L170.204 17.1385L170.382 17.3298L170.551 17.5363L170.713 17.7659L170.867 18.0031L171.013 18.2632L171.16 18.5386L171.298 18.8294L171.429 19.1354L171.591 19.5409V19.6327H171.599V19.671L171.622 19.7322L171.638 19.8087L171.661 19.9005L171.691 20.0153L171.722 20.1454L171.761 20.2831L171.799 20.4361L171.846 20.6044L171.9 20.7881L171.953 20.987L172.015 21.1936L172.077 21.4155L172.138 21.645L172.223 21.9128L172.316 22.1653L172.416 22.4101L172.524 22.6396L172.639 22.8539L172.763 23.0528L172.886 23.2441L173.017 23.42L173.156 23.5884L173.302 23.7414L173.448 23.8868L173.602 24.0168L173.764 24.1393L173.934 24.254L174.103 24.3611L174.296 24.4606L174.442 24.5371L174.581 24.606L174.728 24.6672L174.882 24.7207L175.043 24.7743L175.205 24.8202L175.375 24.8585L175.552 24.8967L175.729 24.9273L175.922 24.9579L176.122 24.9809L176.323 25.0038L176.531 25.0191H176.746L176.97 25.0344H177.209H178.534H178.819L179.089 25.0574L179.343 25.0803L179.582 25.1186L179.806 25.1645L180.014 25.2334L180.214 25.3175L181 25.7689L180.407 26.4958L180.237 26.6718L180.037 26.8401L179.813 27.0084L179.567 27.1614L179.289 27.3068L178.981 27.4369L178.65 27.5593L178.473 27.6129L178.303 27.6588L178.141 27.7047L177.979 27.7429L177.818 27.7812L177.656 27.8118L177.502 27.8424L177.347 27.873L177.193 27.8959L177.047 27.9112L176.901 27.9265L176.754 27.9419H176.608L176.469 27.9572H176.33H176.184H175.976L175.752 27.9265L175.529 27.8959L175.305 27.85L175.074 27.7888L174.843 27.72L174.612 27.6358L174.381 27.5363L174.15 27.4292L173.911 27.3068L173.672 27.1691L173.433 27.0237L173.194 26.863L172.955 26.6871L172.716 26.5034L172.485 26.3198L172.269 26.1515L172.054 25.9908L171.853 25.8378L171.668 25.7001L171.491 25.57L171.329 25.4476L171.175 25.3405L171.036 25.241L170.913 25.1568L170.798 25.088L170.705 25.0344L170.628 24.9885L170.59 24.9732L170.551 24.9885L170.482 25.0191L170.397 25.0574L170.304 25.1033L170.197 25.1568L170.073 25.2181L169.942 25.2946L169.804 25.3711L169.657 25.4629L169.495 25.5547L169.326 25.6618L169.149 25.7766L168.956 25.899L168.84 25.9755L168.717 26.0444L168.601 26.1056L168.494 26.1591L168.417 26.1974V26.2739L167.869 26.4728L167.754 26.5187L167.746 26.5493Z" fill="#1D1D1B"/>
</svg>
