<svg width="162" height="54" viewBox="0 0 162 54" fill="none" xmlns="http://www.w3.org/2000/svg">
<g clip-path="url(#clip0_1101_1209)">
<path d="M162 0H0V54H162V0Z" fill="#1D1D1B"/>
<path fill-rule="evenodd" clip-rule="evenodd" d="M81.3415 25.2722V11.8194H83.1472V18.1956L86.3316 11.8194H88.2166L85.0017 18.2139L88.2166 25.2722H86.2706L83.1472 18.3601V25.2722H81.3415ZM91.279 25.2722V11.8194H93.0968V25.2722H91.279ZM98.6359 25.2722V13.4942H96.1348V11.8194H102.967V13.4942H100.466V25.2722H98.6359ZM111.221 24.9677C110.916 25.1261 110.617 25.2418 110.306 25.3209C109.995 25.4001 109.671 25.4367 109.324 25.4367C107.945 25.4367 106.914 24.8764 106.231 23.7497C105.548 22.6231 105.206 20.9301 105.206 18.6646C105.206 16.3991 105.572 14.6025 106.298 13.415C107.03 12.2274 108.11 11.6367 109.537 11.6367C109.848 11.6367 110.147 11.6672 110.422 11.7281C110.696 11.789 110.965 11.8803 111.215 11.996V13.7195C110.959 13.5916 110.708 13.4942 110.471 13.4333C110.233 13.3724 110.013 13.3419 109.8 13.3419C108.83 13.3419 108.128 13.7621 107.683 14.6086C107.237 15.4491 107.018 16.801 107.018 18.6402C107.018 20.3576 107.231 21.6304 107.652 22.4586C108.073 23.2869 108.726 23.701 109.604 23.701C109.854 23.701 110.111 23.6584 110.367 23.5731C110.623 23.4939 110.904 23.3661 111.209 23.1894V24.9616L111.221 24.9677ZM114.466 25.2722V11.8194H116.284V16.935H119.536V11.8194H121.354V25.2722H119.536V18.628H116.284V25.2722H114.466ZM125.337 25.2722V11.8194H130.73V13.4454H127.155V17.4466H130.425V19.0482H127.155V23.6036H130.73V25.2783H125.337V25.2722ZM134.256 25.2722V11.8194H135.933L139.508 21.1615V11.8194H141.234V25.2722H139.526L135.97 15.851V25.2722H134.25H134.256ZM70.4647 22.6292V21.1188H71.6786L70.4708 15.2907V15.3029V11.8133H71.3248L74.4848 25.2661H72.6486L72.0019 22.6231H70.4708L70.4647 22.6292ZM45.7523 15.2907V15.3029V11.8133H46.6063L49.7663 25.2661H47.9301L47.2835 22.6231H45.7523V21.1128H46.9663L45.7584 15.2846L45.7523 15.2907ZM70.4647 11.8194H69.6106L66.4507 25.2722H68.2869L68.9152 22.6292H70.4647V21.1188H69.2507L70.4647 15.309V11.8194ZM52.3955 22.9154C52.8287 23.1773 53.2252 23.3721 53.5851 23.5C53.945 23.6279 54.2927 23.6888 54.6099 23.6888C55.1651 23.6888 55.6043 23.5305 55.9337 23.2016C56.257 22.8789 56.4217 22.4526 56.4217 21.9105C56.4217 21.1188 55.7995 20.2114 54.5489 19.1944C54.4025 19.0726 54.2927 18.9752 54.2134 18.9204C53.4143 18.2626 52.8531 17.6536 52.5358 17.0873C52.2186 16.527 52.0539 15.8936 52.0539 15.1933C52.0539 14.1823 52.3772 13.3358 53.0239 12.6598C53.6705 11.9838 54.4696 11.6489 55.4274 11.6489C55.8483 11.6489 56.2509 11.6976 56.6353 11.7951C57.0257 11.8925 57.41 12.0447 57.7882 12.2518V14.0605C57.4405 13.8169 57.0928 13.6281 56.7573 13.5124C56.4217 13.3906 56.0923 13.3358 55.7629 13.3358C55.1895 13.3358 54.732 13.5003 54.3842 13.8413C54.0426 14.1762 53.8657 14.6208 53.8657 15.1811C53.8657 15.9545 54.5306 16.868 55.8483 17.9277C55.9703 18.0312 56.0679 18.0982 56.135 18.153C56.9037 18.7742 57.4466 19.3649 57.7699 19.9374C58.0871 20.5098 58.2518 21.1615 58.2518 21.8984C58.2518 22.9276 57.9224 23.7802 57.2636 24.444C56.6048 25.1139 55.7629 25.4427 54.732 25.4427C54.3598 25.4427 53.9755 25.3879 53.5851 25.2783C53.1947 25.1687 52.7982 24.9982 52.3833 24.7728V22.9215L52.3955 22.9154ZM61.6375 25.2722V11.8194H63.4554V25.2722H61.6375ZM45.7523 15.3029V11.8133H44.8982L41.7383 25.2661H43.5745L44.2028 22.6231H45.7523V21.1128H44.5383L45.7523 15.3029Z" fill="white"/>
<path fill-rule="evenodd" clip-rule="evenodd" d="M89.9676 33.1035C90.1689 33.0791 90.3336 32.9878 90.4678 32.8355C90.6325 32.6528 90.7118 32.4153 90.7118 32.1291C90.7118 31.8429 90.6325 31.5993 90.48 31.4166C90.3458 31.2521 90.175 31.1669 89.9615 31.1425V30.5944H90.0225C90.3946 30.5944 90.6996 30.7345 90.9375 31.0146C91.1754 31.2948 91.2913 31.6602 91.2913 32.0986C91.2913 32.5737 91.151 32.9512 90.8643 33.2314C90.6264 33.4628 90.3214 33.6029 89.9554 33.6394V33.0974L89.9676 33.1035ZM89.2233 31.4287C89.449 31.24 89.6687 31.1425 89.8883 31.1425C89.9188 31.1425 89.9432 31.1425 89.9676 31.1425V30.5944C89.7052 30.6066 89.4551 30.6979 89.2233 30.8685V29.1328H88.6377V33.4384C88.7597 33.4993 88.9305 33.5542 89.1379 33.5907C89.3453 33.6333 89.5466 33.6516 89.7358 33.6516C89.8151 33.6516 89.8883 33.6516 89.9615 33.6394V33.0974C89.9188 33.0974 89.8761 33.1035 89.8273 33.1035C89.6198 33.1035 89.4124 33.073 89.2172 33.0121V31.4227L89.2233 31.4287Z" fill="white"/>
<path fill-rule="evenodd" clip-rule="evenodd" d="M93.6885 30.6602H94.3413L92.255 35.0998H91.6022L92.6027 32.9683L91.4619 30.6602H92.1269L92.926 32.3227L93.6885 30.6602Z" fill="white"/>
<path fill-rule="evenodd" clip-rule="evenodd" d="M44.7946 40.0062C44.3065 41.0172 43.8429 41.8149 43.7331 42.1499C43.6782 42.3021 43.6233 42.3326 43.2146 42.3326C43.0255 42.3326 42.7021 42.1499 42.7021 42.089C42.7021 42.0281 42.7266 41.9672 42.9462 41.8393C43.4342 41.5043 44.0625 40.4325 44.0625 39.9758C44.0625 39.0562 42.8913 38.6299 42.8913 38.4167C42.8913 38.3254 43.3 38.2949 43.5135 38.2949C43.7087 38.2949 43.9527 38.4472 45.1179 39.4886C45.8255 40.128 47.6983 41.3521 48.65 41.3521C49.8456 41.3521 52.1576 40.4081 52.6762 39.0562C52.7555 38.843 52.8409 38.7456 52.9202 38.7456C53.03 38.7456 53.4082 38.8065 53.4082 38.9283C53.4082 39.0866 53.1093 39.6956 53.1093 40.6761C53.1093 41.3156 53.7315 41.7419 53.7315 41.9306C53.7315 41.9915 53.2435 42.1438 53.0788 42.1438C52.8897 42.1438 52.8104 41.9916 52.7799 41.748C52.7006 41.3217 52.5054 40.5543 52.4261 40.3716L51.7428 40.737C50.7363 41.2912 49.5406 41.6566 48.534 41.6566C47.7471 41.6566 47.0395 41.4739 45.8682 40.7066L44.7824 40.0062H44.7946Z" fill="#E30613" stroke="#E30613" stroke-width="0.5" stroke-miterlimit="2.61"/>
<path fill-rule="evenodd" clip-rule="evenodd" d="M58.6117 40.8336V41.1685H57.5747C57.0317 41.1685 56.8121 41.2294 56.5986 41.4426L56.0496 42.0272C55.9703 42.1185 56.0252 42.2403 55.8361 42.2403C55.4273 42.2403 55.1528 42.1794 55.1528 42.0881C55.1528 41.9907 55.3175 41.9054 55.5066 41.7836C56.2936 41.1441 57.7089 39.7313 57.7089 39.4877C57.7089 39.3963 57.5747 39.2745 57.3245 39.1223L56.4278 38.5742C56.2082 38.4219 56.0435 38.3854 56.0435 38.3306C56.0435 38.2758 56.5315 38.1113 56.7267 38.1113C57.1354 38.1113 57.1903 38.1113 57.3245 38.3306C57.3489 38.3915 57.5442 38.5437 57.7089 38.6655C58.0322 38.9091 58.3311 39.1223 58.6056 39.3111V39.987L58.2213 39.7374L57.4832 40.5047C57.294 40.6874 57.2696 40.7483 57.2696 40.7787C57.2696 40.8396 57.3245 40.8701 58.386 40.8701C58.4714 40.8701 58.5202 40.8396 58.6056 40.8396L58.6117 40.8336ZM59.9416 40.8031C59.8318 40.8336 59.5573 40.8336 58.6117 40.8336V41.1685H60.4845C61.2165 41.6253 61.7412 41.9358 61.9547 42.149C62.034 42.2099 62.0645 42.2708 62.1743 42.2708H62.4976C62.6623 42.2708 63.0405 42.0576 63.0405 41.9907C63.0405 41.808 62.7965 41.8993 62.4976 41.7471C61.1677 41.0163 60.3503 40.5534 58.6117 39.2989V39.9749L59.9416 40.797V40.8031Z" fill="#E30613"/>
<path d="M58.6117 40.8336V41.1685M58.6117 40.8336L58.6056 40.8396C58.5202 40.8396 58.4714 40.8701 58.386 40.8701C57.3245 40.8701 57.2696 40.8396 57.2696 40.7787C57.2696 40.7483 57.294 40.6874 57.4832 40.5047L58.2213 39.7374L58.6056 39.987V39.3111C58.3311 39.1223 58.0322 38.9091 57.7089 38.6655C57.5442 38.5437 57.3489 38.3915 57.3245 38.3306C57.1903 38.1113 57.1354 38.1113 56.7267 38.1113C56.5315 38.1113 56.0435 38.2758 56.0435 38.3306C56.0435 38.3854 56.2082 38.4219 56.4278 38.5742L57.3245 39.1223C57.5747 39.2745 57.7089 39.3963 57.7089 39.4877C57.7089 39.7313 56.2936 41.1441 55.5066 41.7836C55.3175 41.9054 55.1528 41.9907 55.1528 42.0881C55.1528 42.1794 55.4273 42.2403 55.8361 42.2403C56.0252 42.2403 55.9703 42.1185 56.0496 42.0272L56.5986 41.4426C56.8121 41.2294 57.0317 41.1685 57.5747 41.1685H58.6117M58.6117 40.8336C59.5573 40.8336 59.8318 40.8336 59.9416 40.8031V40.797L58.6117 39.9749V39.2989C60.3503 40.5534 61.1677 41.0163 62.4976 41.7471C62.7965 41.8993 63.0405 41.808 63.0405 41.9907C63.0405 42.0576 62.6623 42.2708 62.4976 42.2708H62.1743C62.0645 42.2708 62.034 42.2099 61.9547 42.149C61.7412 41.9358 61.2165 41.6253 60.4845 41.1685H58.6117" stroke="#E30613" stroke-width="0.5" stroke-miterlimit="10"/>
<path fill-rule="evenodd" clip-rule="evenodd" d="M58.6117 40.8336V41.1685H57.5747C57.0317 41.1685 56.8121 41.2294 56.5986 41.4426L56.0496 42.0272C55.9703 42.1185 56.0252 42.2403 55.8361 42.2403C55.4273 42.2403 55.1528 42.1794 55.1528 42.0881C55.1528 41.9907 55.3175 41.9054 55.5066 41.7836C56.2936 41.1441 57.7089 39.7313 57.7089 39.4877C57.7089 39.3963 57.5747 39.2745 57.3245 39.1223L56.4278 38.5742C56.2082 38.4219 56.0435 38.3854 56.0435 38.3306C56.0435 38.2758 56.5315 38.1113 56.7267 38.1113C57.1354 38.1113 57.1903 38.1113 57.3245 38.3306C57.3489 38.3915 57.5442 38.5437 57.7089 38.6655C58.0322 38.9091 58.3311 39.1223 58.6056 39.3111V39.987L58.2213 39.7374L57.4832 40.5047C57.294 40.6874 57.2696 40.7483 57.2696 40.7787C57.2696 40.8396 57.3245 40.8701 58.386 40.8701C58.4714 40.8701 58.5202 40.8396 58.6056 40.8396L58.6117 40.8336ZM59.9416 40.8031C59.8318 40.8336 59.5573 40.8336 58.6117 40.8336V41.1685H60.4845C61.2165 41.6253 61.7412 41.9358 61.9547 42.149C62.034 42.2099 62.0645 42.2708 62.1743 42.2708H62.4976C62.6623 42.2708 63.0405 42.0576 63.0405 41.9907C63.0405 41.808 62.7965 41.8993 62.4976 41.7471C61.1677 41.0163 60.3503 40.5534 58.6117 39.2989V39.9749L59.9416 40.797V40.8031Z" fill="#E30613"/>
<path d="M58.6117 40.8336V41.1685M58.6117 40.8336L58.6056 40.8396C58.5202 40.8396 58.4714 40.8701 58.386 40.8701C57.3245 40.8701 57.2696 40.8396 57.2696 40.7787C57.2696 40.7483 57.294 40.6874 57.4832 40.5047L58.2213 39.7374L58.6056 39.987V39.3111C58.3311 39.1223 58.0322 38.9091 57.7089 38.6655C57.5442 38.5437 57.3489 38.3915 57.3245 38.3306C57.1903 38.1113 57.1354 38.1113 56.7267 38.1113C56.5315 38.1113 56.0435 38.2758 56.0435 38.3306C56.0435 38.3854 56.2082 38.4219 56.4278 38.5742L57.3245 39.1223C57.5747 39.2745 57.7089 39.3963 57.7089 39.4877C57.7089 39.7313 56.2936 41.1441 55.5066 41.7836C55.3175 41.9054 55.1528 41.9907 55.1528 42.0881C55.1528 42.1794 55.4273 42.2403 55.8361 42.2403C56.0252 42.2403 55.9703 42.1185 56.0496 42.0272L56.5986 41.4426C56.8121 41.2294 57.0317 41.1685 57.5747 41.1685H58.6117M58.6117 40.8336C59.5573 40.8336 59.8318 40.8336 59.9416 40.8031V40.797L58.6117 39.9749V39.2989C60.3503 40.5534 61.1677 41.0163 62.4976 41.7471C62.7965 41.8993 63.0405 41.808 63.0405 41.9907C63.0405 42.0576 62.6623 42.2708 62.4976 42.2708H62.1743C62.0645 42.2708 62.034 42.2099 61.9547 42.149C61.7412 41.9358 61.2165 41.6253 60.4845 41.1685H58.6117" stroke="#E30613" stroke-width="0.5" stroke-miterlimit="2.61"/>
<path fill-rule="evenodd" clip-rule="evenodd" d="M60.4848 41.1685C61.2168 41.6253 61.7414 41.9358 61.9549 42.149C62.0342 42.2099 62.0647 42.2708 62.1745 42.2708H62.4979C62.6626 42.2708 63.0408 42.0576 63.0408 41.9907C63.0408 41.808 62.7968 41.8993 62.4979 41.7471C61.1619 41.0345 60.3322 40.5534 58.6059 39.3111V39.9627L59.9357 40.797C59.832 40.8275 59.5697 40.8579 58.6059 40.8579V41.1624H60.4848V41.1685ZM58.6059 39.3171V39.9688L58.2276 39.7313L57.4895 40.4986C57.3004 40.6813 57.276 40.7422 57.276 40.7727C57.276 40.8336 57.3309 40.864 58.3923 40.864H58.612V41.1685H57.581C57.0381 41.1685 56.8185 41.2294 56.605 41.4426L56.0559 42.0272C55.9766 42.1185 56.0315 42.2403 55.8424 42.2403C55.4337 42.2403 55.1592 42.1794 55.1592 42.0881C55.1592 41.9907 55.3239 41.9054 55.513 41.7836C56.2999 41.1441 57.7152 39.7313 57.7152 39.4877C57.7152 39.3963 57.581 39.2745 57.3309 39.1223L56.4341 38.5742C56.2145 38.4219 56.0498 38.3854 56.0498 38.3306C56.0498 38.2758 56.5379 38.1113 56.7331 38.1113C57.1418 38.1113 57.1967 38.1113 57.3309 38.3306C57.3553 38.3915 57.5505 38.5437 57.7152 38.6655C58.0385 38.903 58.3374 39.1223 58.612 39.3171H58.6059Z" fill="#E30613" stroke="#E30613" stroke-width="0.5" stroke-miterlimit="10"/>
<path fill-rule="evenodd" clip-rule="evenodd" d="M60.4845 41.1685C61.2165 41.6253 61.7412 41.9358 61.9547 42.149C62.034 42.2099 62.0645 42.2708 62.1743 42.2708H62.4976C62.6623 42.2708 63.0405 42.0576 63.0405 41.9907C63.0405 41.808 62.7965 41.8993 62.4976 41.7471C61.1616 41.0345 60.332 40.5534 58.6056 39.3111V39.9627L59.9355 40.797C59.8318 40.8275 59.5695 40.8579 58.6056 40.8579V41.1624H60.4845V41.1685ZM58.6056 39.3171C58.3311 39.1223 58.0322 38.903 57.7089 38.6655C57.5442 38.5437 57.355 38.3915 57.3245 38.3306C57.1903 38.1113 57.1293 38.1113 56.7267 38.1113C56.5376 38.1113 56.0435 38.2697 56.0435 38.3306C56.0435 38.3915 56.2082 38.4219 56.4278 38.5742L57.3245 39.1223C57.5686 39.2745 57.7089 39.3963 57.7089 39.4877C57.7089 39.7313 56.2936 41.1381 55.5066 41.7836C55.3175 41.9054 55.1528 41.9967 55.1528 42.0881C55.1528 42.1794 55.4273 42.2403 55.8361 42.2403C56.0252 42.2403 55.9703 42.1185 56.0496 42.0272L56.5986 41.4426C56.8182 41.2294 57.0317 41.1685 57.5747 41.1685H58.6056V40.864H58.386C57.3245 40.864 57.2696 40.8336 57.2696 40.7727C57.2696 40.7422 57.294 40.6813 57.4832 40.4986L58.2213 39.7313L58.5995 39.9688V39.3171H58.6056Z" fill="#E30613" stroke="#E30613" stroke-width="0.5" stroke-miterlimit="2.61"/>
<path fill-rule="evenodd" clip-rule="evenodd" d="M64.3461 39.2389C64.3461 39.0927 64.346 39.0257 64.2667 38.9648C64.1264 38.8491 64.0715 38.7821 64.0715 38.7212C64.0715 38.5994 64.6999 38.2949 64.889 38.2949C65.0476 38.2949 65.3221 38.3863 65.3221 38.4472C65.3221 38.569 65.2123 38.6603 65.2123 38.8126C65.1574 39.2084 65.1025 40.0976 65.1025 41.687C65.1025 42.2351 64.9927 42.357 64.7487 42.357C64.4254 42.357 64.3704 42.2656 64.3704 40.1585C64.3704 39.6956 64.3461 39.452 64.3461 39.2389Z" fill="#E30613" stroke="#E30613" stroke-width="0.5" stroke-miterlimit="2.61"/>
<path fill-rule="evenodd" clip-rule="evenodd" d="M67.5853 39.2139C66.8532 38.7267 66.7434 38.6354 66.7434 38.5745C66.7434 38.4831 66.9569 38.3613 67.2314 38.3613C67.3107 38.3613 67.39 38.3613 68.238 38.8851C70.5744 40.231 71.9897 40.8704 74.2773 41.6073C74.3322 41.2114 74.3566 41.0287 74.3566 40.6938C74.3566 40.1092 74.3322 39.622 74.2773 39.1287C74.2773 38.7633 73.9479 38.7267 73.9479 38.5806C73.9479 38.4344 74.4908 38.3674 74.7348 38.3674C74.8995 38.3674 75.113 38.3979 75.113 38.5258C75.113 38.678 74.9239 38.8607 74.9239 40.8765C74.9239 41.4855 75.0337 41.7352 75.0337 41.9788C75.0337 42.2224 74.5152 42.3442 74.3261 42.3442C74.137 42.3442 74.1065 41.9788 73.6734 41.8265C70.1657 40.6024 69.5923 40.3588 68.8053 39.896C68.726 40.2979 68.6955 41.3332 68.4759 41.9788C68.3905 42.1919 68.2319 42.2833 68.0428 42.2833C67.9086 42.2833 67.5791 42.2224 67.5791 42.1006C67.5791 41.9179 68.177 41.3941 68.177 40.1761C68.177 39.7742 67.9879 39.5002 67.5791 39.2261L67.5853 39.2139Z" fill="#E30613" stroke="#E30613" stroke-width="0.5" stroke-miterlimit="2.61"/>
<path fill-rule="evenodd" clip-rule="evenodd" d="M79.7373 41.7837C79.9264 41.7837 80.146 41.6619 80.3107 41.6619C80.4205 41.6619 80.4998 41.6985 80.4998 41.7533C80.4998 41.7837 80.3351 42.2405 80.146 42.2405C80.0118 42.2405 79.9569 42.21 79.7373 42.1491H78.5416C77.5351 42.1491 77.3704 42.1491 77.291 42.1796C77.1812 42.21 77.0714 42.2405 76.9372 42.2405C76.7725 42.2405 76.5285 41.936 76.5285 41.8751C76.5285 41.8142 76.7176 41.7533 76.7481 41.5706C76.7786 41.2965 76.7786 40.7119 76.7786 40.0115C76.7786 38.6961 76.4248 38.5438 76.4248 38.422C76.4248 38.3307 77.0775 38.0566 77.2422 38.0566C77.3765 38.0566 77.6266 38.1115 77.6266 38.2089C77.6266 38.3063 77.5412 38.422 77.5412 38.5438C77.5412 38.9397 77.4619 39.3416 77.4619 39.707C77.4619 39.9506 77.4924 40.1333 77.4924 40.4378C77.4924 41.0225 77.3582 41.6315 77.3582 41.8142C77.3582 41.8446 77.407 41.8446 77.4924 41.8446H77.7364L79.7495 41.7837H79.7373Z" fill="#E30613" stroke="#E30613" stroke-width="0.5" stroke-miterlimit="2.61"/>
<path fill-rule="evenodd" clip-rule="evenodd" d="M84.6845 40.8336V41.1685H83.6779C83.1045 41.1685 82.891 41.2294 82.6714 41.4426L82.1223 42.0272C82.043 42.1185 82.0979 42.2403 81.9027 42.2403C81.494 42.2403 81.2256 42.1794 81.2256 42.0881C81.2256 41.9907 81.3903 41.9054 81.5794 41.7836C82.3663 41.1441 83.7816 39.7313 83.7816 39.4877C83.7816 39.3963 83.6474 39.2745 83.4034 39.1223L82.5067 38.5742C82.2931 38.4219 82.1284 38.3854 82.1284 38.3306C82.1284 38.2758 82.6226 38.1113 82.8422 38.1113C83.2204 38.1113 83.2753 38.1113 83.4095 38.3306C83.4339 38.3915 83.623 38.5437 83.7877 38.6655C84.1171 38.9091 84.4161 39.1223 84.6845 39.3111V39.987L84.3062 39.7374L83.5681 40.5047C83.4095 40.6874 83.3546 40.7483 83.3546 40.7787C83.3546 40.8396 83.4095 40.8701 84.4649 40.8701C84.5503 40.8701 84.6052 40.8396 84.6845 40.8396V40.8336ZM86.0204 40.8031C85.935 40.8336 85.6666 40.8336 84.6845 40.8336V41.1685H86.5634C87.2954 41.6253 87.8139 41.9358 88.0579 42.149C88.1129 42.2099 88.1373 42.2708 88.2471 42.2708H88.5765C88.7351 42.2708 89.1194 42.0576 89.1194 41.9907C89.1194 41.808 88.8754 41.8993 88.5765 41.7471C87.2405 41.0163 86.4292 40.5534 84.6845 39.2989V39.9749L86.0204 40.797V40.8031Z" fill="#E30613"/>
<path d="M84.6845 40.8336V41.1685M84.6845 40.8336V40.8396C84.6052 40.8396 84.5503 40.8701 84.4649 40.8701C83.4095 40.8701 83.3546 40.8396 83.3546 40.7787C83.3546 40.7483 83.4095 40.6874 83.5681 40.5047L84.3062 39.7374L84.6845 39.987V39.3111C84.4161 39.1223 84.1171 38.9091 83.7877 38.6655C83.623 38.5437 83.4339 38.3915 83.4095 38.3306C83.2753 38.1113 83.2204 38.1113 82.8422 38.1113C82.6226 38.1113 82.1284 38.2758 82.1284 38.3306C82.1284 38.3854 82.2931 38.4219 82.5067 38.5742L83.4034 39.1223C83.6474 39.2745 83.7816 39.3963 83.7816 39.4877C83.7816 39.7313 82.3663 41.1441 81.5794 41.7836C81.3903 41.9054 81.2256 41.9907 81.2256 42.0881C81.2256 42.1794 81.494 42.2403 81.9027 42.2403C82.0979 42.2403 82.043 42.1185 82.1223 42.0272L82.6714 41.4426C82.891 41.2294 83.1045 41.1685 83.6779 41.1685H84.6845M84.6845 40.8336C85.6666 40.8336 85.935 40.8336 86.0204 40.8031V40.797L84.6845 39.9749V39.2989C86.4292 40.5534 87.2405 41.0163 88.5765 41.7471C88.8754 41.8993 89.1194 41.808 89.1194 41.9907C89.1194 42.0576 88.7351 42.2708 88.5765 42.2708H88.2471C88.1373 42.2708 88.1129 42.2099 88.0579 42.149C87.8139 41.9358 87.2954 41.6253 86.5634 41.1685H84.6845" stroke="#E30613" stroke-width="0.5" stroke-miterlimit="10"/>
<path fill-rule="evenodd" clip-rule="evenodd" d="M84.6845 40.8336V41.1685H83.6779C83.1045 41.1685 82.891 41.2294 82.6714 41.4426L82.1223 42.0272C82.043 42.1185 82.0979 42.2403 81.9027 42.2403C81.494 42.2403 81.2256 42.1794 81.2256 42.0881C81.2256 41.9907 81.3903 41.9054 81.5794 41.7836C82.3663 41.1441 83.7816 39.7313 83.7816 39.4877C83.7816 39.3963 83.6474 39.2745 83.4034 39.1223L82.5067 38.5742C82.2931 38.4219 82.1284 38.3854 82.1284 38.3306C82.1284 38.2758 82.6226 38.1113 82.8422 38.1113C83.2204 38.1113 83.2753 38.1113 83.4095 38.3306C83.4339 38.3915 83.623 38.5437 83.7877 38.6655C84.1171 38.9091 84.4161 39.1223 84.6845 39.3111V39.987L84.3062 39.7374L83.5681 40.5047C83.4095 40.6874 83.3546 40.7483 83.3546 40.7787C83.3546 40.8396 83.4095 40.8701 84.4649 40.8701C84.5503 40.8701 84.6052 40.8396 84.6845 40.8396V40.8336ZM86.0204 40.8031C85.935 40.8336 85.6666 40.8336 84.6845 40.8336V41.1685H86.5634C87.2954 41.6253 87.8139 41.9358 88.0579 42.149C88.1129 42.2099 88.1373 42.2708 88.2471 42.2708H88.5765C88.7351 42.2708 89.1194 42.0576 89.1194 41.9907C89.1194 41.808 88.8754 41.8993 88.5765 41.7471C87.2405 41.0163 86.4292 40.5534 84.6845 39.2989V39.9749L86.0204 40.797V40.8031Z" fill="#E30613"/>
<path d="M84.6845 40.8336V41.1685M84.6845 40.8336V40.8396C84.6052 40.8396 84.5503 40.8701 84.4649 40.8701C83.4095 40.8701 83.3546 40.8396 83.3546 40.7787C83.3546 40.7483 83.4095 40.6874 83.5681 40.5047L84.3062 39.7374L84.6845 39.987V39.3111C84.4161 39.1223 84.1171 38.9091 83.7877 38.6655C83.623 38.5437 83.4339 38.3915 83.4095 38.3306C83.2753 38.1113 83.2204 38.1113 82.8422 38.1113C82.6226 38.1113 82.1284 38.2758 82.1284 38.3306C82.1284 38.3854 82.2931 38.4219 82.5067 38.5742L83.4034 39.1223C83.6474 39.2745 83.7816 39.3963 83.7816 39.4877C83.7816 39.7313 82.3663 41.1441 81.5794 41.7836C81.3903 41.9054 81.2256 41.9907 81.2256 42.0881C81.2256 42.1794 81.494 42.2403 81.9027 42.2403C82.0979 42.2403 82.043 42.1185 82.1223 42.0272L82.6714 41.4426C82.891 41.2294 83.1045 41.1685 83.6779 41.1685H84.6845M84.6845 40.8336C85.6666 40.8336 85.935 40.8336 86.0204 40.8031V40.797L84.6845 39.9749V39.2989C86.4292 40.5534 87.2405 41.0163 88.5765 41.7471C88.8754 41.8993 89.1194 41.808 89.1194 41.9907C89.1194 42.0576 88.7351 42.2708 88.5765 42.2708H88.2471C88.1373 42.2708 88.1129 42.2099 88.0579 42.149C87.8139 41.9358 87.2954 41.6253 86.5634 41.1685H84.6845" stroke="#E30613" stroke-width="0.5" stroke-miterlimit="2.61"/>
<path fill-rule="evenodd" clip-rule="evenodd" d="M86.5634 41.1705C87.2954 41.6272 87.8139 41.9378 88.0579 42.1509C88.1129 42.2118 88.1373 42.2727 88.2471 42.2727H88.5765C88.7351 42.2727 89.1194 42.0596 89.1194 41.9926C89.1194 41.8099 88.8754 41.9013 88.5765 41.749C87.2344 41.0365 86.4231 40.5493 84.6845 39.3069V39.9646L86.0143 40.7929C85.9106 40.8233 85.6422 40.8538 84.6845 40.8538V41.1583H86.5573L86.5634 41.1705ZM84.6906 39.313V39.9707L84.3062 39.7332L83.5681 40.5006C83.4095 40.6833 83.3546 40.7442 83.3546 40.7746C83.3546 40.8355 83.4095 40.866 84.4649 40.866H84.6845V41.1705H83.6779C83.1045 41.1705 82.891 41.2314 82.6714 41.4445L82.1223 42.0291C82.043 42.1205 82.0979 42.2423 81.9027 42.2423C81.494 42.2423 81.2256 42.1814 81.2256 42.09C81.2256 41.9926 81.3903 41.9073 81.5794 41.7855C82.3663 41.1461 83.7816 39.7332 83.7816 39.4896C83.7816 39.3983 83.6474 39.2765 83.4034 39.1242L82.5067 38.5761C82.2931 38.4239 82.1284 38.3873 82.1284 38.3325C82.1284 38.2777 82.6226 38.1133 82.8422 38.1133C83.2204 38.1133 83.2753 38.1133 83.4095 38.3325C83.4339 38.3934 83.623 38.5457 83.7877 38.6675C84.1171 38.905 84.41 39.1242 84.6906 39.3191V39.313Z" fill="#E30613" stroke="#E30613" stroke-width="0.5" stroke-miterlimit="10"/>
<path fill-rule="evenodd" clip-rule="evenodd" d="M86.5634 41.1687C87.2954 41.6255 87.8139 41.9361 88.0579 42.1492C88.1129 42.2101 88.1373 42.271 88.2471 42.271H88.5765C88.7351 42.271 89.1194 42.0579 89.1194 41.9909C89.1194 41.8082 88.8754 41.8995 88.5765 41.7473C87.2344 41.0348 86.4231 40.5476 84.6845 39.3052V39.9629L86.0143 40.7912C85.9106 40.8216 85.6422 40.8521 84.6845 40.8521V41.1566H86.5573L86.5634 41.1687ZM84.6906 39.3113C84.4161 39.1164 84.1171 38.8972 83.7877 38.6597C83.623 38.5379 83.4339 38.3856 83.4095 38.3247C83.2692 38.1055 83.2204 38.1055 82.8422 38.1055C82.6226 38.1055 82.1284 38.2638 82.1284 38.3247C82.1284 38.3856 82.2931 38.4161 82.5067 38.5683L83.4034 39.1164C83.6474 39.2687 83.7816 39.3905 83.7816 39.4818C83.7816 39.7254 82.3724 41.1322 81.5794 41.7777C81.3842 41.8995 81.2256 41.9909 81.2256 42.0822C81.2256 42.1736 81.5001 42.2345 81.9027 42.2345C82.0918 42.2345 82.0369 42.1127 82.1223 42.0213L82.6714 41.4367C82.891 41.2235 83.1045 41.1626 83.6779 41.1626H84.6845V40.8581H84.4649C83.4095 40.8581 83.3546 40.8277 83.3546 40.7668C83.3546 40.7363 83.4095 40.6754 83.5681 40.4927L84.3062 39.7254L84.6906 39.9629V39.3052V39.3113Z" fill="#E30613" stroke="#E30613" stroke-width="0.5" stroke-miterlimit="2.61"/>
<path fill-rule="evenodd" clip-rule="evenodd" d="M90.126 39.2139C89.3879 38.7267 89.2842 38.6354 89.2842 38.5745C89.2842 38.4831 89.5038 38.3613 89.7722 38.3613C89.8515 38.3613 89.9369 38.3613 90.7788 38.8851C93.1213 40.231 94.5305 40.8704 96.7876 41.6073C96.873 41.2114 96.873 41.0287 96.873 40.6938C96.873 40.1092 96.8425 39.622 96.8181 39.1287C96.7876 38.7633 96.4947 38.7267 96.4947 38.5806C96.4947 38.4344 97.0377 38.3674 97.2817 38.3674C97.4403 38.3674 97.6355 38.3979 97.6355 38.5258C97.6355 38.678 97.4464 38.8607 97.4464 40.8765C97.4464 41.4855 97.5867 41.7352 97.5867 41.9788C97.5867 42.2224 97.0438 42.3442 96.8486 42.3442C96.6534 42.3442 96.6595 41.9788 96.1958 41.8265C92.6882 40.6024 92.1391 40.3588 91.3522 39.896C91.2729 40.2979 91.218 41.3332 91.0289 41.9788C90.9435 42.1919 90.7544 42.2833 90.5957 42.2833C90.4371 42.2833 90.1321 42.2224 90.1321 42.1006C90.1321 41.9179 90.7056 41.3941 90.7056 40.1761C90.7056 39.7742 90.5408 39.5002 90.1321 39.2261L90.126 39.2139Z" fill="#E30613" stroke="#E30613" stroke-width="0.5" stroke-miterlimit="2.61"/>
<path fill-rule="evenodd" clip-rule="evenodd" d="M100.137 38.6903V40.5843C100.137 40.9193 100.112 41.2603 100.112 41.5283C100.112 41.8693 100.216 41.9302 100.491 41.9302C100.844 41.9302 101.168 41.8998 101.442 41.8389V42.1434C100.954 42.2347 100.521 42.2956 100.405 42.2956C100.24 42.2956 100.106 42.2956 99.9965 42.2652L99.3681 42.2347C99.1241 42.2043 99.0143 42.1738 99.0143 42.1129C99.0143 41.9607 99.3132 41.9911 99.3681 41.6257C99.3986 41.1081 99.423 40.5234 99.423 40.0362C99.423 39.6404 99.3376 39.0557 99.2583 38.8121C99.2095 38.6599 98.8252 38.8121 98.8252 38.6294C98.8252 38.5076 98.8801 38.4772 99.2583 38.4163L100.051 38.264C100.35 38.2031 100.57 38.2031 100.649 38.2031C100.704 38.2031 101.027 38.2031 101.436 38.264V38.6294C101.217 38.5685 101.003 38.5381 100.863 38.5381C100.619 38.5381 100.289 38.6294 100.131 38.6903H100.137ZM101.442 38.6294C102.04 38.8121 102.803 39.208 102.803 40.0058C102.803 41.1385 102.29 41.6562 101.442 41.8389V42.1434C102.01 42.0216 102.638 41.8389 102.912 41.6257C103.425 41.169 103.596 40.7366 103.596 39.8231C103.596 38.7817 102.315 38.4163 101.448 38.264V38.6294H101.442Z" fill="#E30613"/>
<path d="M101.442 41.8389C101.168 41.8998 100.844 41.9302 100.491 41.9302C100.216 41.9302 100.112 41.8693 100.112 41.5283C100.112 41.2603 100.137 40.9193 100.137 40.5843V38.6903H100.131C100.289 38.6294 100.619 38.5381 100.863 38.5381C101.003 38.5381 101.217 38.5685 101.436 38.6294V38.264C101.027 38.2031 100.704 38.2031 100.649 38.2031C100.57 38.2031 100.35 38.2031 100.051 38.264L99.2583 38.4163C98.8801 38.4772 98.8252 38.5076 98.8252 38.6294C98.8252 38.8121 99.2095 38.6599 99.2583 38.8121C99.3376 39.0557 99.423 39.6404 99.423 40.0362C99.423 40.5234 99.3986 41.1081 99.3681 41.6257C99.3132 41.9911 99.0143 41.9607 99.0143 42.1129C99.0143 42.1738 99.1241 42.2043 99.3681 42.2347L99.9965 42.2652C100.106 42.2956 100.24 42.2956 100.405 42.2956C100.521 42.2956 100.954 42.2347 101.442 42.1434M101.442 41.8389V42.1434M101.442 41.8389C102.29 41.6562 102.803 41.1385 102.803 40.0058C102.803 39.208 102.04 38.8121 101.442 38.6294H101.448V38.264C102.315 38.4163 103.596 38.7817 103.596 39.8231C103.596 40.7366 103.425 41.169 102.912 41.6257C102.638 41.8389 102.01 42.0216 101.442 42.1434" stroke="#E30613" stroke-width="0.5" stroke-miterlimit="10"/>
<path fill-rule="evenodd" clip-rule="evenodd" d="M100.137 38.6903V40.5843C100.137 40.9193 100.112 41.2603 100.112 41.5283C100.112 41.8693 100.216 41.9302 100.491 41.9302C100.844 41.9302 101.168 41.8998 101.442 41.8389V42.1434C100.954 42.2347 100.521 42.2956 100.405 42.2956C100.24 42.2956 100.106 42.2956 99.9965 42.2652L99.3681 42.2347C99.1241 42.2043 99.0143 42.1738 99.0143 42.1129C99.0143 41.9607 99.3132 41.9911 99.3681 41.6257C99.3986 41.1081 99.423 40.5234 99.423 40.0362C99.423 39.6404 99.3376 39.0557 99.2583 38.8121C99.2095 38.6599 98.8252 38.8121 98.8252 38.6294C98.8252 38.5076 98.8801 38.4772 99.2583 38.4163L100.051 38.264C100.35 38.2031 100.57 38.2031 100.649 38.2031C100.704 38.2031 101.027 38.2031 101.436 38.264V38.6294C101.217 38.5685 101.003 38.5381 100.863 38.5381C100.619 38.5381 100.289 38.6294 100.131 38.6903H100.137ZM101.442 38.6294C102.04 38.8121 102.803 39.208 102.803 40.0058C102.803 41.1385 102.29 41.6562 101.442 41.8389V42.1434C102.01 42.0216 102.638 41.8389 102.912 41.6257C103.425 41.169 103.596 40.7366 103.596 39.8231C103.596 38.7817 102.315 38.4163 101.448 38.264V38.6294H101.442Z" fill="#E30613"/>
<path d="M101.442 41.8389C101.168 41.8998 100.844 41.9302 100.491 41.9302C100.216 41.9302 100.112 41.8693 100.112 41.5283C100.112 41.2603 100.137 40.9193 100.137 40.5843V38.6903H100.131C100.289 38.6294 100.619 38.5381 100.863 38.5381C101.003 38.5381 101.217 38.5685 101.436 38.6294V38.264C101.027 38.2031 100.704 38.2031 100.649 38.2031C100.57 38.2031 100.35 38.2031 100.051 38.264L99.2583 38.4163C98.8801 38.4772 98.8252 38.5076 98.8252 38.6294C98.8252 38.8121 99.2095 38.6599 99.2583 38.8121C99.3376 39.0557 99.423 39.6404 99.423 40.0362C99.423 40.5234 99.3986 41.1081 99.3681 41.6257C99.3132 41.9911 99.0143 41.9607 99.0143 42.1129C99.0143 42.1738 99.1241 42.2043 99.3681 42.2347L99.9965 42.2652C100.106 42.2956 100.24 42.2956 100.405 42.2956C100.521 42.2956 100.954 42.2347 101.442 42.1434M101.442 41.8389V42.1434M101.442 41.8389C102.29 41.6562 102.803 41.1385 102.803 40.0058C102.803 39.208 102.04 38.8121 101.442 38.6294H101.448V38.264C102.315 38.4163 103.596 38.7817 103.596 39.8231C103.596 40.7366 103.425 41.169 102.912 41.6257C102.638 41.8389 102.01 42.0216 101.442 42.1434" stroke="#E30613" stroke-width="0.5" stroke-miterlimit="2.61"/>
<path fill-rule="evenodd" clip-rule="evenodd" d="M101.454 42.139C102.028 42.0172 102.662 41.8406 102.906 41.6274C103.419 41.1707 103.59 40.7383 103.59 39.8248C103.59 38.7956 102.327 38.418 101.454 38.284V38.6494C102.046 38.826 102.796 39.2341 102.796 40.0136C102.796 41.1707 102.272 41.6701 101.454 41.8528V42.1451V42.139ZM100.405 42.3034C100.24 42.3034 100.106 42.3034 99.9965 42.273L99.3681 42.2425C99.1241 42.2121 99.0143 42.1816 99.0143 42.1207C99.0143 41.9685 99.3132 41.9989 99.3681 41.6335C99.3986 41.1159 99.423 40.5312 99.423 40.044C99.423 39.6482 99.3376 39.0635 99.2583 38.8199C99.2095 38.6677 98.8252 38.8199 98.8252 38.6372C98.8252 38.5154 98.8801 38.485 99.2583 38.4241L100.051 38.2718C100.35 38.2109 100.57 38.2109 100.649 38.2109C100.692 38.2109 101.027 38.2231 101.448 38.2901V38.6555C101.204 38.5824 100.985 38.552 100.863 38.552C100.619 38.552 100.289 38.6433 100.131 38.7042V40.5982C100.131 40.9332 100.106 41.2742 100.106 41.5422C100.106 41.8832 100.21 41.9441 100.484 41.9441C100.838 41.9441 101.162 41.9197 101.448 41.8528V42.1451C100.954 42.2486 100.503 42.3095 100.399 42.3095L100.405 42.3034Z" fill="#E30613" stroke="#E30613" stroke-width="0.5" stroke-miterlimit="10"/>
<path fill-rule="evenodd" clip-rule="evenodd" d="M101.455 42.1373C102.028 42.0155 102.663 41.8389 102.907 41.6257C103.419 41.169 103.59 40.7366 103.59 39.8231C103.59 38.7939 102.327 38.4163 101.455 38.2823V38.6477C102.046 38.8243 102.797 39.2323 102.797 40.0119C102.797 41.169 102.272 41.6683 101.455 41.851V42.1434V42.1373ZM100.405 42.3017C100.509 42.3017 100.954 42.2408 101.455 42.1373V41.8449C101.168 41.9119 100.845 41.9363 100.491 41.9363C100.216 41.9363 100.113 41.8754 100.113 41.5344C100.113 41.2603 100.137 40.9254 100.137 40.5904V38.6964C100.302 38.6355 100.625 38.5442 100.869 38.5442C100.991 38.5442 101.205 38.5746 101.455 38.6477V38.2823C101.028 38.2153 100.698 38.2031 100.656 38.2031C100.57 38.2031 100.357 38.2031 100.058 38.264L99.2647 38.4163C98.8864 38.4772 98.8315 38.5076 98.8315 38.6294C98.8315 38.8121 99.2159 38.6599 99.2647 38.8121C99.3501 39.0557 99.4294 39.6404 99.4294 40.0362C99.4294 40.5234 99.3989 41.1081 99.3745 41.6257C99.3196 41.9911 99.0207 41.9607 99.0207 42.1129C99.0207 42.1738 99.1305 42.2043 99.3745 42.2347L100.003 42.2652C100.113 42.2956 100.247 42.2956 100.412 42.2956L100.405 42.3017Z" fill="#E30613"/>
<path d="M101.455 42.1373C102.028 42.0155 102.663 41.8389 102.907 41.6257C103.419 41.169 103.59 40.7366 103.59 39.8231C103.59 38.7939 102.327 38.4163 101.455 38.2823M101.455 42.1373V42.1434V41.851C102.272 41.6683 102.797 41.169 102.797 40.0119C102.797 39.2323 102.046 38.8243 101.455 38.6477M101.455 42.1373C100.954 42.2408 100.509 42.3017 100.405 42.3017L100.412 42.2956C100.247 42.2956 100.113 42.2956 100.003 42.2652L99.3745 42.2347C99.1305 42.2043 99.0207 42.1738 99.0207 42.1129C99.0207 41.9607 99.3196 41.9911 99.3745 41.6257C99.3989 41.1081 99.4294 40.5234 99.4294 40.0362C99.4294 39.6404 99.3501 39.0557 99.2647 38.8121C99.2159 38.6599 98.8315 38.8121 98.8315 38.6294C98.8315 38.5076 98.8864 38.4772 99.2647 38.4163L100.058 38.264C100.357 38.2031 100.57 38.2031 100.656 38.2031C100.698 38.2031 101.028 38.2153 101.455 38.2823M101.455 42.1373V41.8449C101.168 41.9119 100.845 41.9363 100.491 41.9363C100.216 41.9363 100.113 41.8754 100.113 41.5344C100.113 41.2603 100.137 40.9254 100.137 40.5904V38.6964C100.302 38.6355 100.625 38.5442 100.869 38.5442C100.991 38.5442 101.205 38.5746 101.455 38.6477M101.455 38.2823V38.6477" stroke="#E30613" stroke-width="0.5" stroke-miterlimit="2.61"/>
<path fill-rule="evenodd" clip-rule="evenodd" d="M44.7946 40.0062C44.3065 41.0172 43.8429 41.8149 43.7331 42.1499C43.6782 42.3021 43.6233 42.3326 43.2146 42.3326C43.0255 42.3326 42.7021 42.1499 42.7021 42.089C42.7021 42.0281 42.7266 41.9672 42.9462 41.8393C43.4342 41.5043 44.0625 40.4325 44.0625 39.9758C44.0625 39.0562 42.8913 38.6299 42.8913 38.4167C42.8913 38.3254 43.3 38.2949 43.5135 38.2949C43.7087 38.2949 43.9527 38.4472 45.1179 39.4886C45.8255 40.128 47.6983 41.3521 48.65 41.3521C49.8456 41.3521 52.1576 40.4081 52.6762 39.0562C52.7555 38.843 52.8409 38.7456 52.9202 38.7456C53.03 38.7456 53.4082 38.8065 53.4082 38.9283C53.4082 39.0866 53.1093 39.6956 53.1093 40.6761C53.1093 41.3156 53.7315 41.7419 53.7315 41.9306C53.7315 41.9915 53.2435 42.1438 53.0788 42.1438C52.8897 42.1438 52.8104 41.9916 52.7799 41.748C52.7006 41.3217 52.5054 40.5543 52.4261 40.3716L51.7428 40.737C50.7363 41.2912 49.5406 41.6566 48.534 41.6566C47.7471 41.6566 47.0395 41.4739 45.8682 40.7066L44.7824 40.0062H44.7946Z" fill="#E30613" stroke="#E30613" stroke-width="0.5" stroke-miterlimit="2.61"/>
<path fill-rule="evenodd" clip-rule="evenodd" d="M58.6117 40.8336V41.1685H57.5747C57.0317 41.1685 56.8121 41.2294 56.5986 41.4426L56.0496 42.0272C55.9703 42.1185 56.0252 42.2403 55.8361 42.2403C55.4273 42.2403 55.1528 42.1794 55.1528 42.0881C55.1528 41.9907 55.3175 41.9054 55.5066 41.7836C56.2936 41.1441 57.7089 39.7313 57.7089 39.4877C57.7089 39.3963 57.5747 39.2745 57.3245 39.1223L56.4278 38.5742C56.2082 38.4219 56.0435 38.3854 56.0435 38.3306C56.0435 38.2758 56.5315 38.1113 56.7267 38.1113C57.1354 38.1113 57.1903 38.1113 57.3245 38.3306C57.3489 38.3915 57.5442 38.5437 57.7089 38.6655C58.0322 38.9091 58.3311 39.1223 58.6056 39.3111V39.987L58.2213 39.7374L57.4832 40.5047C57.294 40.6874 57.2696 40.7483 57.2696 40.7787C57.2696 40.8396 57.3245 40.8701 58.386 40.8701C58.4714 40.8701 58.5202 40.8396 58.6056 40.8396L58.6117 40.8336ZM59.9416 40.8031C59.8318 40.8336 59.5573 40.8336 58.6117 40.8336V41.1685H60.4845C61.2165 41.6253 61.7412 41.9358 61.9547 42.149C62.034 42.2099 62.0645 42.2708 62.1743 42.2708H62.4976C62.6623 42.2708 63.0405 42.0576 63.0405 41.9907C63.0405 41.808 62.7965 41.8993 62.4976 41.7471C61.1677 41.0163 60.3503 40.5534 58.6117 39.2989V39.9749L59.9416 40.797V40.8031Z" fill="#E30613"/>
<path d="M58.6117 40.8336V41.1685M58.6117 40.8336L58.6056 40.8396C58.5202 40.8396 58.4714 40.8701 58.386 40.8701C57.3245 40.8701 57.2696 40.8396 57.2696 40.7787C57.2696 40.7483 57.294 40.6874 57.4832 40.5047L58.2213 39.7374L58.6056 39.987V39.3111C58.3311 39.1223 58.0322 38.9091 57.7089 38.6655C57.5442 38.5437 57.3489 38.3915 57.3245 38.3306C57.1903 38.1113 57.1354 38.1113 56.7267 38.1113C56.5315 38.1113 56.0435 38.2758 56.0435 38.3306C56.0435 38.3854 56.2082 38.4219 56.4278 38.5742L57.3245 39.1223C57.5747 39.2745 57.7089 39.3963 57.7089 39.4877C57.7089 39.7313 56.2936 41.1441 55.5066 41.7836C55.3175 41.9054 55.1528 41.9907 55.1528 42.0881C55.1528 42.1794 55.4273 42.2403 55.8361 42.2403C56.0252 42.2403 55.9703 42.1185 56.0496 42.0272L56.5986 41.4426C56.8121 41.2294 57.0317 41.1685 57.5747 41.1685H58.6117M58.6117 40.8336C59.5573 40.8336 59.8318 40.8336 59.9416 40.8031V40.797L58.6117 39.9749V39.2989C60.3503 40.5534 61.1677 41.0163 62.4976 41.7471C62.7965 41.8993 63.0405 41.808 63.0405 41.9907C63.0405 42.0576 62.6623 42.2708 62.4976 42.2708H62.1743C62.0645 42.2708 62.034 42.2099 61.9547 42.149C61.7412 41.9358 61.2165 41.6253 60.4845 41.1685H58.6117" stroke="#E30613" stroke-width="0.5" stroke-miterlimit="10"/>
<path fill-rule="evenodd" clip-rule="evenodd" d="M58.6117 40.8336V41.1685H57.5747C57.0317 41.1685 56.8121 41.2294 56.5986 41.4426L56.0496 42.0272C55.9703 42.1185 56.0252 42.2403 55.8361 42.2403C55.4273 42.2403 55.1528 42.1794 55.1528 42.0881C55.1528 41.9907 55.3175 41.9054 55.5066 41.7836C56.2936 41.1441 57.7089 39.7313 57.7089 39.4877C57.7089 39.3963 57.5747 39.2745 57.3245 39.1223L56.4278 38.5742C56.2082 38.4219 56.0435 38.3854 56.0435 38.3306C56.0435 38.2758 56.5315 38.1113 56.7267 38.1113C57.1354 38.1113 57.1903 38.1113 57.3245 38.3306C57.3489 38.3915 57.5442 38.5437 57.7089 38.6655C58.0322 38.9091 58.3311 39.1223 58.6056 39.3111V39.987L58.2213 39.7374L57.4832 40.5047C57.294 40.6874 57.2696 40.7483 57.2696 40.7787C57.2696 40.8396 57.3245 40.8701 58.386 40.8701C58.4714 40.8701 58.5202 40.8396 58.6056 40.8396L58.6117 40.8336ZM59.9416 40.8031C59.8318 40.8336 59.5573 40.8336 58.6117 40.8336V41.1685H60.4845C61.2165 41.6253 61.7412 41.9358 61.9547 42.149C62.034 42.2099 62.0645 42.2708 62.1743 42.2708H62.4976C62.6623 42.2708 63.0405 42.0576 63.0405 41.9907C63.0405 41.808 62.7965 41.8993 62.4976 41.7471C61.1677 41.0163 60.3503 40.5534 58.6117 39.2989V39.9749L59.9416 40.797V40.8031Z" fill="#E30613"/>
<path d="M58.6117 40.8336V41.1685M58.6117 40.8336L58.6056 40.8396C58.5202 40.8396 58.4714 40.8701 58.386 40.8701C57.3245 40.8701 57.2696 40.8396 57.2696 40.7787C57.2696 40.7483 57.294 40.6874 57.4832 40.5047L58.2213 39.7374L58.6056 39.987V39.3111C58.3311 39.1223 58.0322 38.9091 57.7089 38.6655C57.5442 38.5437 57.3489 38.3915 57.3245 38.3306C57.1903 38.1113 57.1354 38.1113 56.7267 38.1113C56.5315 38.1113 56.0435 38.2758 56.0435 38.3306C56.0435 38.3854 56.2082 38.4219 56.4278 38.5742L57.3245 39.1223C57.5747 39.2745 57.7089 39.3963 57.7089 39.4877C57.7089 39.7313 56.2936 41.1441 55.5066 41.7836C55.3175 41.9054 55.1528 41.9907 55.1528 42.0881C55.1528 42.1794 55.4273 42.2403 55.8361 42.2403C56.0252 42.2403 55.9703 42.1185 56.0496 42.0272L56.5986 41.4426C56.8121 41.2294 57.0317 41.1685 57.5747 41.1685H58.6117M58.6117 40.8336C59.5573 40.8336 59.8318 40.8336 59.9416 40.8031V40.797L58.6117 39.9749V39.2989C60.3503 40.5534 61.1677 41.0163 62.4976 41.7471C62.7965 41.8993 63.0405 41.808 63.0405 41.9907C63.0405 42.0576 62.6623 42.2708 62.4976 42.2708H62.1743C62.0645 42.2708 62.034 42.2099 61.9547 42.149C61.7412 41.9358 61.2165 41.6253 60.4845 41.1685H58.6117" stroke="#E30613" stroke-width="0.5" stroke-miterlimit="2.61"/>
<path fill-rule="evenodd" clip-rule="evenodd" d="M60.4848 41.1685C61.2168 41.6253 61.7414 41.9358 61.9549 42.149C62.0342 42.2099 62.0647 42.2708 62.1745 42.2708H62.4979C62.6626 42.2708 63.0408 42.0576 63.0408 41.9907C63.0408 41.808 62.7968 41.8993 62.4979 41.7471C61.1619 41.0345 60.3322 40.5534 58.6059 39.3111V39.9627L59.9357 40.797C59.832 40.8275 59.5697 40.8579 58.6059 40.8579V41.1624H60.4848V41.1685ZM58.6059 39.3171V39.9688L58.2276 39.7313L57.4895 40.4986C57.3004 40.6813 57.276 40.7422 57.276 40.7727C57.276 40.8336 57.3309 40.864 58.3923 40.864H58.612V41.1685H57.581C57.0381 41.1685 56.8185 41.2294 56.605 41.4426L56.0559 42.0272C55.9766 42.1185 56.0315 42.2403 55.8424 42.2403C55.4337 42.2403 55.1592 42.1794 55.1592 42.0881C55.1592 41.9907 55.3239 41.9054 55.513 41.7836C56.2999 41.1441 57.7152 39.7313 57.7152 39.4877C57.7152 39.3963 57.581 39.2745 57.3309 39.1223L56.4341 38.5742C56.2145 38.4219 56.0498 38.3854 56.0498 38.3306C56.0498 38.2758 56.5379 38.1113 56.7331 38.1113C57.1418 38.1113 57.1967 38.1113 57.3309 38.3306C57.3553 38.3915 57.5505 38.5437 57.7152 38.6655C58.0385 38.903 58.3374 39.1223 58.612 39.3171H58.6059Z" fill="#E30613" stroke="#E30613" stroke-width="0.5" stroke-miterlimit="10"/>
<path fill-rule="evenodd" clip-rule="evenodd" d="M60.4845 41.1685C61.2165 41.6253 61.7412 41.9358 61.9547 42.149C62.034 42.2099 62.0645 42.2708 62.1743 42.2708H62.4976C62.6623 42.2708 63.0405 42.0576 63.0405 41.9907C63.0405 41.808 62.7965 41.8993 62.4976 41.7471C61.1616 41.0345 60.332 40.5534 58.6056 39.3111V39.9627L59.9355 40.797C59.8318 40.8275 59.5695 40.8579 58.6056 40.8579V41.1624H60.4845V41.1685ZM58.6056 39.3171C58.3311 39.1223 58.0322 38.903 57.7089 38.6655C57.5442 38.5437 57.355 38.3915 57.3245 38.3306C57.1903 38.1113 57.1293 38.1113 56.7267 38.1113C56.5376 38.1113 56.0435 38.2697 56.0435 38.3306C56.0435 38.3915 56.2082 38.4219 56.4278 38.5742L57.3245 39.1223C57.5686 39.2745 57.7089 39.3963 57.7089 39.4877C57.7089 39.7313 56.2936 41.1381 55.5066 41.7836C55.3175 41.9054 55.1528 41.9967 55.1528 42.0881C55.1528 42.1794 55.4273 42.2403 55.8361 42.2403C56.0252 42.2403 55.9703 42.1185 56.0496 42.0272L56.5986 41.4426C56.8182 41.2294 57.0317 41.1685 57.5747 41.1685H58.6056V40.864H58.386C57.3245 40.864 57.2696 40.8336 57.2696 40.7727C57.2696 40.7422 57.294 40.6813 57.4832 40.4986L58.2213 39.7313L58.5995 39.9688V39.3171H58.6056Z" fill="#E30613" stroke="#E30613" stroke-width="0.5" stroke-miterlimit="2.61"/>
<path fill-rule="evenodd" clip-rule="evenodd" d="M64.3461 39.2389C64.3461 39.0927 64.346 39.0257 64.2667 38.9648C64.1264 38.8491 64.0715 38.7821 64.0715 38.7212C64.0715 38.5994 64.6999 38.2949 64.889 38.2949C65.0476 38.2949 65.3221 38.3863 65.3221 38.4472C65.3221 38.569 65.2123 38.6603 65.2123 38.8126C65.1574 39.2084 65.1025 40.0976 65.1025 41.687C65.1025 42.2351 64.9927 42.357 64.7487 42.357C64.4254 42.357 64.3704 42.2656 64.3704 40.1585C64.3704 39.6956 64.3461 39.452 64.3461 39.2389Z" fill="#E30613" stroke="#E30613" stroke-width="0.5" stroke-miterlimit="2.61"/>
<path fill-rule="evenodd" clip-rule="evenodd" d="M67.5853 39.2139C66.8532 38.7267 66.7434 38.6354 66.7434 38.5745C66.7434 38.4831 66.9569 38.3613 67.2314 38.3613C67.3107 38.3613 67.39 38.3613 68.238 38.8851C70.5744 40.231 71.9897 40.8704 74.2773 41.6073C74.3322 41.2114 74.3566 41.0287 74.3566 40.6938C74.3566 40.1092 74.3322 39.622 74.2773 39.1287C74.2773 38.7633 73.9479 38.7267 73.9479 38.5806C73.9479 38.4344 74.4908 38.3674 74.7348 38.3674C74.8995 38.3674 75.113 38.3979 75.113 38.5258C75.113 38.678 74.9239 38.8607 74.9239 40.8765C74.9239 41.4855 75.0337 41.7352 75.0337 41.9788C75.0337 42.2224 74.5152 42.3442 74.3261 42.3442C74.137 42.3442 74.1065 41.9788 73.6734 41.8265C70.1657 40.6024 69.5923 40.3588 68.8053 39.896C68.726 40.2979 68.6955 41.3332 68.4759 41.9788C68.3905 42.1919 68.2319 42.2833 68.0428 42.2833C67.9086 42.2833 67.5791 42.2224 67.5791 42.1006C67.5791 41.9179 68.177 41.3941 68.177 40.1761C68.177 39.7742 67.9879 39.5002 67.5791 39.2261L67.5853 39.2139Z" fill="#E30613" stroke="#E30613" stroke-width="0.5" stroke-miterlimit="2.61"/>
<path fill-rule="evenodd" clip-rule="evenodd" d="M79.7373 41.7837C79.9264 41.7837 80.146 41.6619 80.3107 41.6619C80.4205 41.6619 80.4998 41.6985 80.4998 41.7533C80.4998 41.7837 80.3351 42.2405 80.146 42.2405C80.0118 42.2405 79.9569 42.21 79.7373 42.1491H78.5416C77.5351 42.1491 77.3704 42.1491 77.291 42.1796C77.1812 42.21 77.0714 42.2405 76.9372 42.2405C76.7725 42.2405 76.5285 41.936 76.5285 41.8751C76.5285 41.8142 76.7176 41.7533 76.7481 41.5706C76.7786 41.2965 76.7786 40.7119 76.7786 40.0115C76.7786 38.6961 76.4248 38.5438 76.4248 38.422C76.4248 38.3307 77.0775 38.0566 77.2422 38.0566C77.3765 38.0566 77.6266 38.1115 77.6266 38.2089C77.6266 38.3063 77.5412 38.422 77.5412 38.5438C77.5412 38.9397 77.4619 39.3416 77.4619 39.707C77.4619 39.9506 77.4924 40.1333 77.4924 40.4378C77.4924 41.0225 77.3582 41.6315 77.3582 41.8142C77.3582 41.8446 77.407 41.8446 77.4924 41.8446H77.7364L79.7495 41.7837H79.7373Z" fill="#E30613" stroke="#E30613" stroke-width="0.5" stroke-miterlimit="2.61"/>
<path fill-rule="evenodd" clip-rule="evenodd" d="M84.6845 40.8336V41.1685H83.6779C83.1045 41.1685 82.891 41.2294 82.6714 41.4426L82.1223 42.0272C82.043 42.1185 82.0979 42.2403 81.9027 42.2403C81.494 42.2403 81.2256 42.1794 81.2256 42.0881C81.2256 41.9907 81.3903 41.9054 81.5794 41.7836C82.3663 41.1441 83.7816 39.7313 83.7816 39.4877C83.7816 39.3963 83.6474 39.2745 83.4034 39.1223L82.5067 38.5742C82.2931 38.4219 82.1284 38.3854 82.1284 38.3306C82.1284 38.2758 82.6226 38.1113 82.8422 38.1113C83.2204 38.1113 83.2753 38.1113 83.4095 38.3306C83.4339 38.3915 83.623 38.5437 83.7877 38.6655C84.1171 38.9091 84.4161 39.1223 84.6845 39.3111V39.987L84.3062 39.7374L83.5681 40.5047C83.4095 40.6874 83.3546 40.7483 83.3546 40.7787C83.3546 40.8396 83.4095 40.8701 84.4649 40.8701C84.5503 40.8701 84.6052 40.8396 84.6845 40.8396V40.8336ZM86.0204 40.8031C85.935 40.8336 85.6666 40.8336 84.6845 40.8336V41.1685H86.5634C87.2954 41.6253 87.8139 41.9358 88.0579 42.149C88.1129 42.2099 88.1373 42.2708 88.2471 42.2708H88.5765C88.7351 42.2708 89.1194 42.0576 89.1194 41.9907C89.1194 41.808 88.8754 41.8993 88.5765 41.7471C87.2405 41.0163 86.4292 40.5534 84.6845 39.2989V39.9749L86.0204 40.797V40.8031Z" fill="#E30613"/>
<path d="M84.6845 40.8336V41.1685M84.6845 40.8336V40.8396C84.6052 40.8396 84.5503 40.8701 84.4649 40.8701C83.4095 40.8701 83.3546 40.8396 83.3546 40.7787C83.3546 40.7483 83.4095 40.6874 83.5681 40.5047L84.3062 39.7374L84.6845 39.987V39.3111C84.4161 39.1223 84.1171 38.9091 83.7877 38.6655C83.623 38.5437 83.4339 38.3915 83.4095 38.3306C83.2753 38.1113 83.2204 38.1113 82.8422 38.1113C82.6226 38.1113 82.1284 38.2758 82.1284 38.3306C82.1284 38.3854 82.2931 38.4219 82.5067 38.5742L83.4034 39.1223C83.6474 39.2745 83.7816 39.3963 83.7816 39.4877C83.7816 39.7313 82.3663 41.1441 81.5794 41.7836C81.3903 41.9054 81.2256 41.9907 81.2256 42.0881C81.2256 42.1794 81.494 42.2403 81.9027 42.2403C82.0979 42.2403 82.043 42.1185 82.1223 42.0272L82.6714 41.4426C82.891 41.2294 83.1045 41.1685 83.6779 41.1685H84.6845M84.6845 40.8336C85.6666 40.8336 85.935 40.8336 86.0204 40.8031V40.797L84.6845 39.9749V39.2989C86.4292 40.5534 87.2405 41.0163 88.5765 41.7471C88.8754 41.8993 89.1194 41.808 89.1194 41.9907C89.1194 42.0576 88.7351 42.2708 88.5765 42.2708H88.2471C88.1373 42.2708 88.1129 42.2099 88.0579 42.149C87.8139 41.9358 87.2954 41.6253 86.5634 41.1685H84.6845" stroke="#E30613" stroke-width="0.5" stroke-miterlimit="10"/>
<path fill-rule="evenodd" clip-rule="evenodd" d="M84.6845 40.8336V41.1685H83.6779C83.1045 41.1685 82.891 41.2294 82.6714 41.4426L82.1223 42.0272C82.043 42.1185 82.0979 42.2403 81.9027 42.2403C81.494 42.2403 81.2256 42.1794 81.2256 42.0881C81.2256 41.9907 81.3903 41.9054 81.5794 41.7836C82.3663 41.1441 83.7816 39.7313 83.7816 39.4877C83.7816 39.3963 83.6474 39.2745 83.4034 39.1223L82.5067 38.5742C82.2931 38.4219 82.1284 38.3854 82.1284 38.3306C82.1284 38.2758 82.6226 38.1113 82.8422 38.1113C83.2204 38.1113 83.2753 38.1113 83.4095 38.3306C83.4339 38.3915 83.623 38.5437 83.7877 38.6655C84.1171 38.9091 84.4161 39.1223 84.6845 39.3111V39.987L84.3062 39.7374L83.5681 40.5047C83.4095 40.6874 83.3546 40.7483 83.3546 40.7787C83.3546 40.8396 83.4095 40.8701 84.4649 40.8701C84.5503 40.8701 84.6052 40.8396 84.6845 40.8396V40.8336ZM86.0204 40.8031C85.935 40.8336 85.6666 40.8336 84.6845 40.8336V41.1685H86.5634C87.2954 41.6253 87.8139 41.9358 88.0579 42.149C88.1129 42.2099 88.1373 42.2708 88.2471 42.2708H88.5765C88.7351 42.2708 89.1194 42.0576 89.1194 41.9907C89.1194 41.808 88.8754 41.8993 88.5765 41.7471C87.2405 41.0163 86.4292 40.5534 84.6845 39.2989V39.9749L86.0204 40.797V40.8031Z" fill="#E30613"/>
<path d="M84.6845 40.8336V41.1685M84.6845 40.8336V40.8396C84.6052 40.8396 84.5503 40.8701 84.4649 40.8701C83.4095 40.8701 83.3546 40.8396 83.3546 40.7787C83.3546 40.7483 83.4095 40.6874 83.5681 40.5047L84.3062 39.7374L84.6845 39.987V39.3111C84.4161 39.1223 84.1171 38.9091 83.7877 38.6655C83.623 38.5437 83.4339 38.3915 83.4095 38.3306C83.2753 38.1113 83.2204 38.1113 82.8422 38.1113C82.6226 38.1113 82.1284 38.2758 82.1284 38.3306C82.1284 38.3854 82.2931 38.4219 82.5067 38.5742L83.4034 39.1223C83.6474 39.2745 83.7816 39.3963 83.7816 39.4877C83.7816 39.7313 82.3663 41.1441 81.5794 41.7836C81.3903 41.9054 81.2256 41.9907 81.2256 42.0881C81.2256 42.1794 81.494 42.2403 81.9027 42.2403C82.0979 42.2403 82.043 42.1185 82.1223 42.0272L82.6714 41.4426C82.891 41.2294 83.1045 41.1685 83.6779 41.1685H84.6845M84.6845 40.8336C85.6666 40.8336 85.935 40.8336 86.0204 40.8031V40.797L84.6845 39.9749V39.2989C86.4292 40.5534 87.2405 41.0163 88.5765 41.7471C88.8754 41.8993 89.1194 41.808 89.1194 41.9907C89.1194 42.0576 88.7351 42.2708 88.5765 42.2708H88.2471C88.1373 42.2708 88.1129 42.2099 88.0579 42.149C87.8139 41.9358 87.2954 41.6253 86.5634 41.1685H84.6845" stroke="#E30613" stroke-width="0.5" stroke-miterlimit="2.61"/>
<path fill-rule="evenodd" clip-rule="evenodd" d="M86.5634 41.1705C87.2954 41.6272 87.8139 41.9378 88.0579 42.1509C88.1129 42.2118 88.1373 42.2727 88.2471 42.2727H88.5765C88.7351 42.2727 89.1194 42.0596 89.1194 41.9926C89.1194 41.8099 88.8754 41.9013 88.5765 41.749C87.2344 41.0365 86.4231 40.5493 84.6845 39.3069V39.9646L86.0143 40.7929C85.9106 40.8233 85.6422 40.8538 84.6845 40.8538V41.1583H86.5573L86.5634 41.1705ZM84.6906 39.313V39.9707L84.3062 39.7332L83.5681 40.5006C83.4095 40.6833 83.3546 40.7442 83.3546 40.7746C83.3546 40.8355 83.4095 40.866 84.4649 40.866H84.6845V41.1705H83.6779C83.1045 41.1705 82.891 41.2314 82.6714 41.4445L82.1223 42.0291C82.043 42.1205 82.0979 42.2423 81.9027 42.2423C81.494 42.2423 81.2256 42.1814 81.2256 42.09C81.2256 41.9926 81.3903 41.9073 81.5794 41.7855C82.3663 41.1461 83.7816 39.7332 83.7816 39.4896C83.7816 39.3983 83.6474 39.2765 83.4034 39.1242L82.5067 38.5761C82.2931 38.4239 82.1284 38.3873 82.1284 38.3325C82.1284 38.2777 82.6226 38.1133 82.8422 38.1133C83.2204 38.1133 83.2753 38.1133 83.4095 38.3325C83.4339 38.3934 83.623 38.5457 83.7877 38.6675C84.1171 38.905 84.41 39.1242 84.6906 39.3191V39.313Z" fill="#E30613" stroke="#E30613" stroke-width="0.5" stroke-miterlimit="10"/>
<path fill-rule="evenodd" clip-rule="evenodd" d="M86.5634 41.1687C87.2954 41.6255 87.8139 41.9361 88.0579 42.1492C88.1129 42.2101 88.1373 42.271 88.2471 42.271H88.5765C88.7351 42.271 89.1194 42.0579 89.1194 41.9909C89.1194 41.8082 88.8754 41.8995 88.5765 41.7473C87.2344 41.0348 86.4231 40.5476 84.6845 39.3052V39.9629L86.0143 40.7912C85.9106 40.8216 85.6422 40.8521 84.6845 40.8521V41.1566H86.5573L86.5634 41.1687ZM84.6906 39.3113C84.4161 39.1164 84.1171 38.8972 83.7877 38.6597C83.623 38.5379 83.4339 38.3856 83.4095 38.3247C83.2692 38.1055 83.2204 38.1055 82.8422 38.1055C82.6226 38.1055 82.1284 38.2638 82.1284 38.3247C82.1284 38.3856 82.2931 38.4161 82.5067 38.5683L83.4034 39.1164C83.6474 39.2687 83.7816 39.3905 83.7816 39.4818C83.7816 39.7254 82.3724 41.1322 81.5794 41.7777C81.3842 41.8995 81.2256 41.9909 81.2256 42.0822C81.2256 42.1736 81.5001 42.2345 81.9027 42.2345C82.0918 42.2345 82.0369 42.1127 82.1223 42.0213L82.6714 41.4367C82.891 41.2235 83.1045 41.1626 83.6779 41.1626H84.6845V40.8581H84.4649C83.4095 40.8581 83.3546 40.8277 83.3546 40.7668C83.3546 40.7363 83.4095 40.6754 83.5681 40.4927L84.3062 39.7254L84.6906 39.9629V39.3052V39.3113Z" fill="#E30613" stroke="#E30613" stroke-width="0.5" stroke-miterlimit="2.61"/>
<path fill-rule="evenodd" clip-rule="evenodd" d="M90.126 39.2139C89.3879 38.7267 89.2842 38.6354 89.2842 38.5745C89.2842 38.4831 89.5038 38.3613 89.7722 38.3613C89.8515 38.3613 89.9369 38.3613 90.7788 38.8851C93.1213 40.231 94.5305 40.8704 96.7876 41.6073C96.873 41.2114 96.873 41.0287 96.873 40.6938C96.873 40.1092 96.8425 39.622 96.8181 39.1287C96.7876 38.7633 96.4947 38.7267 96.4947 38.5806C96.4947 38.4344 97.0377 38.3674 97.2817 38.3674C97.4403 38.3674 97.6355 38.3979 97.6355 38.5258C97.6355 38.678 97.4464 38.8607 97.4464 40.8765C97.4464 41.4855 97.5867 41.7352 97.5867 41.9788C97.5867 42.2224 97.0438 42.3442 96.8486 42.3442C96.6534 42.3442 96.6595 41.9788 96.1958 41.8265C92.6882 40.6024 92.1391 40.3588 91.3522 39.896C91.2729 40.2979 91.218 41.3332 91.0289 41.9788C90.9435 42.1919 90.7544 42.2833 90.5957 42.2833C90.4371 42.2833 90.1321 42.2224 90.1321 42.1006C90.1321 41.9179 90.7056 41.3941 90.7056 40.1761C90.7056 39.7742 90.5408 39.5002 90.1321 39.2261L90.126 39.2139Z" fill="#E30613" stroke="#E30613" stroke-width="0.5" stroke-miterlimit="2.61"/>
<path fill-rule="evenodd" clip-rule="evenodd" d="M100.137 38.6903V40.5843C100.137 40.9193 100.112 41.2603 100.112 41.5283C100.112 41.8693 100.216 41.9302 100.491 41.9302C100.844 41.9302 101.168 41.8998 101.442 41.8389V42.1434C100.954 42.2347 100.521 42.2956 100.405 42.2956C100.24 42.2956 100.106 42.2956 99.9965 42.2652L99.3681 42.2347C99.1241 42.2043 99.0143 42.1738 99.0143 42.1129C99.0143 41.9607 99.3132 41.9911 99.3681 41.6257C99.3986 41.1081 99.423 40.5234 99.423 40.0362C99.423 39.6404 99.3376 39.0557 99.2583 38.8121C99.2095 38.6599 98.8252 38.8121 98.8252 38.6294C98.8252 38.5076 98.8801 38.4772 99.2583 38.4163L100.051 38.264C100.35 38.2031 100.57 38.2031 100.649 38.2031C100.704 38.2031 101.027 38.2031 101.436 38.264V38.6294C101.217 38.5685 101.003 38.5381 100.863 38.5381C100.619 38.5381 100.289 38.6294 100.131 38.6903H100.137ZM101.442 38.6294C102.04 38.8121 102.803 39.208 102.803 40.0058C102.803 41.1385 102.29 41.6562 101.442 41.8389V42.1434C102.01 42.0216 102.638 41.8389 102.912 41.6257C103.425 41.169 103.596 40.7366 103.596 39.8231C103.596 38.7817 102.315 38.4163 101.448 38.264V38.6294H101.442Z" fill="#E30613"/>
<path d="M101.442 41.8389C101.168 41.8998 100.844 41.9302 100.491 41.9302C100.216 41.9302 100.112 41.8693 100.112 41.5283C100.112 41.2603 100.137 40.9193 100.137 40.5843V38.6903H100.131C100.289 38.6294 100.619 38.5381 100.863 38.5381C101.003 38.5381 101.217 38.5685 101.436 38.6294V38.264C101.027 38.2031 100.704 38.2031 100.649 38.2031C100.57 38.2031 100.35 38.2031 100.051 38.264L99.2583 38.4163C98.8801 38.4772 98.8252 38.5076 98.8252 38.6294C98.8252 38.8121 99.2095 38.6599 99.2583 38.8121C99.3376 39.0557 99.423 39.6404 99.423 40.0362C99.423 40.5234 99.3986 41.1081 99.3681 41.6257C99.3132 41.9911 99.0143 41.9607 99.0143 42.1129C99.0143 42.1738 99.1241 42.2043 99.3681 42.2347L99.9965 42.2652C100.106 42.2956 100.24 42.2956 100.405 42.2956C100.521 42.2956 100.954 42.2347 101.442 42.1434M101.442 41.8389V42.1434M101.442 41.8389C102.29 41.6562 102.803 41.1385 102.803 40.0058C102.803 39.208 102.04 38.8121 101.442 38.6294H101.448V38.264C102.315 38.4163 103.596 38.7817 103.596 39.8231C103.596 40.7366 103.425 41.169 102.912 41.6257C102.638 41.8389 102.01 42.0216 101.442 42.1434" stroke="#E30613" stroke-width="0.5" stroke-miterlimit="10"/>
<path fill-rule="evenodd" clip-rule="evenodd" d="M100.137 38.6903V40.5843C100.137 40.9193 100.112 41.2603 100.112 41.5283C100.112 41.8693 100.216 41.9302 100.491 41.9302C100.844 41.9302 101.168 41.8998 101.442 41.8389V42.1434C100.954 42.2347 100.521 42.2956 100.405 42.2956C100.24 42.2956 100.106 42.2956 99.9965 42.2652L99.3681 42.2347C99.1241 42.2043 99.0143 42.1738 99.0143 42.1129C99.0143 41.9607 99.3132 41.9911 99.3681 41.6257C99.3986 41.1081 99.423 40.5234 99.423 40.0362C99.423 39.6404 99.3376 39.0557 99.2583 38.8121C99.2095 38.6599 98.8252 38.8121 98.8252 38.6294C98.8252 38.5076 98.8801 38.4772 99.2583 38.4163L100.051 38.264C100.35 38.2031 100.57 38.2031 100.649 38.2031C100.704 38.2031 101.027 38.2031 101.436 38.264V38.6294C101.217 38.5685 101.003 38.5381 100.863 38.5381C100.619 38.5381 100.289 38.6294 100.131 38.6903H100.137ZM101.442 38.6294C102.04 38.8121 102.803 39.208 102.803 40.0058C102.803 41.1385 102.29 41.6562 101.442 41.8389V42.1434C102.01 42.0216 102.638 41.8389 102.912 41.6257C103.425 41.169 103.596 40.7366 103.596 39.8231C103.596 38.7817 102.315 38.4163 101.448 38.264V38.6294H101.442Z" fill="#E30613"/>
<path d="M101.442 41.8389C101.168 41.8998 100.844 41.9302 100.491 41.9302C100.216 41.9302 100.112 41.8693 100.112 41.5283C100.112 41.2603 100.137 40.9193 100.137 40.5843V38.6903H100.131C100.289 38.6294 100.619 38.5381 100.863 38.5381C101.003 38.5381 101.217 38.5685 101.436 38.6294V38.264C101.027 38.2031 100.704 38.2031 100.649 38.2031C100.57 38.2031 100.35 38.2031 100.051 38.264L99.2583 38.4163C98.8801 38.4772 98.8252 38.5076 98.8252 38.6294C98.8252 38.8121 99.2095 38.6599 99.2583 38.8121C99.3376 39.0557 99.423 39.6404 99.423 40.0362C99.423 40.5234 99.3986 41.1081 99.3681 41.6257C99.3132 41.9911 99.0143 41.9607 99.0143 42.1129C99.0143 42.1738 99.1241 42.2043 99.3681 42.2347L99.9965 42.2652C100.106 42.2956 100.24 42.2956 100.405 42.2956C100.521 42.2956 100.954 42.2347 101.442 42.1434M101.442 41.8389V42.1434M101.442 41.8389C102.29 41.6562 102.803 41.1385 102.803 40.0058C102.803 39.208 102.04 38.8121 101.442 38.6294H101.448V38.264C102.315 38.4163 103.596 38.7817 103.596 39.8231C103.596 40.7366 103.425 41.169 102.912 41.6257C102.638 41.8389 102.01 42.0216 101.442 42.1434" stroke="#E30613" stroke-width="0.5" stroke-miterlimit="2.61"/>
<path fill-rule="evenodd" clip-rule="evenodd" d="M101.454 42.139C102.028 42.0172 102.662 41.8406 102.906 41.6274C103.419 41.1707 103.59 40.7383 103.59 39.8248C103.59 38.7956 102.327 38.418 101.454 38.284V38.6494C102.046 38.826 102.796 39.2341 102.796 40.0136C102.796 41.1707 102.272 41.6701 101.454 41.8528V42.1451V42.139ZM100.405 42.3034C100.24 42.3034 100.106 42.3034 99.9965 42.273L99.3681 42.2425C99.1241 42.2121 99.0143 42.1816 99.0143 42.1207C99.0143 41.9685 99.3132 41.9989 99.3681 41.6335C99.3986 41.1159 99.423 40.5312 99.423 40.044C99.423 39.6482 99.3376 39.0635 99.2583 38.8199C99.2095 38.6677 98.8252 38.8199 98.8252 38.6372C98.8252 38.5154 98.8801 38.485 99.2583 38.4241L100.051 38.2718C100.35 38.2109 100.57 38.2109 100.649 38.2109C100.692 38.2109 101.027 38.2231 101.448 38.2901V38.6555C101.204 38.5824 100.985 38.552 100.863 38.552C100.619 38.552 100.289 38.6433 100.131 38.7042V40.5982C100.131 40.9332 100.106 41.2742 100.106 41.5422C100.106 41.8832 100.21 41.9441 100.484 41.9441C100.838 41.9441 101.162 41.9197 101.448 41.8528V42.1451C100.954 42.2486 100.503 42.3095 100.399 42.3095L100.405 42.3034Z" fill="#E30613" stroke="#E30613" stroke-width="0.5" stroke-miterlimit="10"/>
<path fill-rule="evenodd" clip-rule="evenodd" d="M101.455 42.1373C102.028 42.0155 102.663 41.8389 102.907 41.6257C103.419 41.169 103.59 40.7366 103.59 39.8231C103.59 38.7939 102.327 38.4163 101.455 38.2823V38.6477C102.046 38.8243 102.797 39.2323 102.797 40.0119C102.797 41.169 102.272 41.6683 101.455 41.851V42.1434V42.1373ZM100.405 42.3017C100.509 42.3017 100.954 42.2408 101.455 42.1373V41.8449C101.168 41.9119 100.845 41.9363 100.491 41.9363C100.216 41.9363 100.113 41.8754 100.113 41.5344C100.113 41.2603 100.137 40.9254 100.137 40.5904V38.6964C100.302 38.6355 100.625 38.5442 100.869 38.5442C100.991 38.5442 101.205 38.5746 101.455 38.6477V38.2823C101.028 38.2153 100.698 38.2031 100.656 38.2031C100.57 38.2031 100.357 38.2031 100.058 38.264L99.2647 38.4163C98.8864 38.4772 98.8315 38.5076 98.8315 38.6294C98.8315 38.8121 99.2159 38.6599 99.2647 38.8121C99.3501 39.0557 99.4294 39.6404 99.4294 40.0362C99.4294 40.5234 99.3989 41.1081 99.3745 41.6257C99.3196 41.9911 99.0207 41.9607 99.0207 42.1129C99.0207 42.1738 99.1305 42.2043 99.3745 42.2347L100.003 42.2652C100.113 42.2956 100.247 42.2956 100.412 42.2956L100.405 42.3017Z" fill="#E30613"/>
<path d="M101.455 42.1373C102.028 42.0155 102.663 41.8389 102.907 41.6257C103.419 41.169 103.59 40.7366 103.59 39.8231C103.59 38.7939 102.327 38.4163 101.455 38.2823M101.455 42.1373V42.1434V41.851C102.272 41.6683 102.797 41.169 102.797 40.0119C102.797 39.2323 102.046 38.8243 101.455 38.6477M101.455 42.1373C100.954 42.2408 100.509 42.3017 100.405 42.3017L100.412 42.2956C100.247 42.2956 100.113 42.2956 100.003 42.2652L99.3745 42.2347C99.1305 42.2043 99.0207 42.1738 99.0207 42.1129C99.0207 41.9607 99.3196 41.9911 99.3745 41.6257C99.3989 41.1081 99.4294 40.5234 99.4294 40.0362C99.4294 39.6404 99.3501 39.0557 99.2647 38.8121C99.2159 38.6599 98.8315 38.8121 98.8315 38.6294C98.8315 38.5076 98.8864 38.4772 99.2647 38.4163L100.058 38.264C100.357 38.2031 100.57 38.2031 100.656 38.2031C100.698 38.2031 101.028 38.2153 101.455 38.2823M101.455 42.1373V41.8449C101.168 41.9119 100.845 41.9363 100.491 41.9363C100.216 41.9363 100.113 41.8754 100.113 41.5344C100.113 41.2603 100.137 40.9254 100.137 40.5904V38.6964C100.302 38.6355 100.625 38.5442 100.869 38.5442C100.991 38.5442 101.205 38.5746 101.455 38.6477M101.455 38.2823V38.6477" stroke="#E30613" stroke-width="0.5" stroke-miterlimit="2.61"/>
<path fill-rule="evenodd" clip-rule="evenodd" d="M110.8 38.2207C111.398 38.2207 111.752 38.4034 111.752 38.5252C111.752 38.647 111.343 38.8602 111.154 38.8602C110.989 38.8602 110.879 38.5557 110.391 38.5557C108.274 38.5557 107.921 40.0233 107.921 40.4192C107.921 40.9368 108.683 41.826 109.824 41.826C110.965 41.826 111.538 41.2779 111.813 41.2779C111.977 41.2779 112.057 41.3388 112.057 41.4301C112.057 41.4971 111.617 41.8016 111.16 41.9843C110.861 42.0757 110.129 42.1975 109.525 42.1975C108.707 42.1975 107.188 41.7712 107.188 40.5471C107.188 38.5861 109.555 38.2207 110.806 38.2207H110.8Z" fill="#E30613" stroke="#E30613" stroke-width="0.5" stroke-miterlimit="2.61"/>
<path fill-rule="evenodd" clip-rule="evenodd" d="M114.143 41.8256C114.143 42.0692 113.984 42.1606 113.655 42.1606C113.49 42.1606 113.466 42.0997 113.466 41.9779C113.466 41.5211 113.52 40.9974 113.52 40.4493C113.52 39.9621 113.49 39.3166 113.466 38.9816C113.466 38.7685 113.002 38.7075 113.002 38.5857C113.002 38.5248 113.276 38.2812 113.6 38.2812C113.868 38.2812 114.442 38.4335 114.442 38.5248C114.442 38.5857 114.277 38.738 114.253 38.9816C114.253 39.2922 114.253 39.6576 114.222 39.9925H117.156V39.347C117.156 39.012 117.107 38.738 117.107 38.6162C117.107 38.4944 117.76 38.4031 118.035 38.4031C118.169 38.4031 118.254 38.4335 118.254 38.4944C118.254 38.5857 118.09 38.6162 118.01 38.9207C117.931 39.2252 117.901 39.682 117.901 39.9621H118.254C118.389 39.9621 118.443 39.9621 118.443 40.0534C118.443 40.1448 118.364 40.3275 118.169 40.3275H118.004C117.925 40.3275 117.894 40.3275 117.894 40.3884L117.864 41.7038C117.864 41.8256 117.73 42.0692 117.541 42.0692C117.321 42.0692 117.266 42.0388 117.242 41.8865L117.132 40.3275C116.345 40.3275 114.631 40.3884 114.198 40.4493C114.173 40.5102 114.143 40.632 114.143 40.6929V41.8256Z" fill="#E30613" stroke="#E30613" stroke-width="0.5" stroke-miterlimit="2.61"/>
<path fill-rule="evenodd" clip-rule="evenodd" d="M120.231 39.1342C120.231 39.0124 120.231 38.9515 120.152 38.8906C120.011 38.7688 119.957 38.7079 119.957 38.647C119.957 38.5252 120.585 38.2207 120.774 38.2207C120.939 38.2207 121.207 38.3121 121.207 38.373C121.207 38.4643 121.097 38.5861 121.097 38.7384C121.048 39.1403 120.987 39.9929 120.987 41.6189C120.987 42.167 120.878 42.2888 120.634 42.2888C120.31 42.2888 120.249 42.1975 120.249 40.0842C120.249 39.597 120.219 39.3778 120.219 39.1403L120.231 39.1342Z" fill="#E30613" stroke="#E30613" stroke-width="0.5" stroke-miterlimit="2.61"/>
<path fill-rule="evenodd" clip-rule="evenodd" d="M123.665 39.1341C122.927 38.6408 122.817 38.5494 122.817 38.4581C122.817 38.3972 123.061 38.2754 123.336 38.2754C123.391 38.2754 123.495 38.2754 124.342 38.793C126.648 40.1389 128.094 40.7845 130.351 41.5153C130.406 41.1194 130.437 40.9367 130.437 40.5957C130.437 40.0171 130.412 39.5238 130.382 39.0366C130.351 38.6712 130.028 38.6347 130.028 38.4885C130.028 38.3424 130.571 38.2754 130.821 38.2754C130.986 38.2754 131.199 38.3058 131.199 38.4276C131.199 38.5799 131.01 38.7626 131.01 40.754C131.01 41.3996 131.12 41.6432 131.12 41.8868C131.12 42.1304 130.601 42.2522 130.412 42.2522C130.223 42.2522 130.193 41.8868 129.76 41.7345C126.252 40.5104 125.709 40.2668 124.891 39.804C124.837 40.1998 124.782 41.2412 124.562 41.8868C124.513 42.0999 124.318 42.1913 124.159 42.1913C124.001 42.1913 123.696 42.0999 123.696 42.0086C123.696 41.8259 124.269 41.3021 124.269 40.0841C124.269 39.6822 124.08 39.4142 123.671 39.1402L123.665 39.1341Z" fill="#E30613" stroke="#E30613" stroke-width="0.5" stroke-miterlimit="2.61"/>
<path fill-rule="evenodd" clip-rule="evenodd" d="M135.842 40.7542V41.0952H134.835C134.262 41.0952 134.048 41.1561 133.829 41.3693L133.286 41.9478C133.206 42.0392 133.261 42.161 133.066 42.161C132.663 42.161 132.389 42.1001 132.389 42.0087C132.389 41.9174 132.548 41.826 132.743 41.6738C133.53 41.0648 134.945 39.6275 134.945 39.4144C134.945 39.2926 134.805 39.2012 134.567 39.049L133.664 38.4704C133.45 38.3486 133.286 38.3121 133.286 38.2573C133.286 38.1659 133.774 38.0137 133.993 38.0137C134.378 38.0137 134.426 38.0441 134.567 38.2573C134.591 38.3182 134.786 38.4704 134.945 38.5922C135.268 38.8054 135.567 39.0551 135.842 39.2317V39.8772L135.463 39.6641L134.756 40.4253C134.567 40.608 134.512 40.6689 134.512 40.6994C134.512 40.7603 134.567 40.7603 135.628 40.7603H135.842V40.7542ZM137.178 40.7237C137.098 40.7542 136.824 40.7542 135.842 40.7542V41.0952H137.745C138.477 41.552 138.965 41.8565 139.215 42.0757C139.27 42.1061 139.294 42.1975 139.404 42.1975H139.728C139.886 42.1975 140.271 41.9844 140.271 41.893C140.271 41.7408 140.027 41.8321 139.728 41.6799C138.398 40.9491 137.58 40.4862 135.836 39.2317V39.8772L137.172 40.7359L137.178 40.7237Z" fill="#E30613"/>
<path d="M135.842 40.7542V41.0952M135.842 40.7542V40.7603H135.628C134.567 40.7603 134.512 40.7603 134.512 40.6994C134.512 40.6689 134.567 40.608 134.756 40.4253L135.463 39.6641L135.842 39.8772V39.2317C135.567 39.0551 135.268 38.8054 134.945 38.5922C134.786 38.4704 134.591 38.3182 134.567 38.2573C134.426 38.0441 134.378 38.0137 133.993 38.0137C133.774 38.0137 133.286 38.1659 133.286 38.2573C133.286 38.3121 133.45 38.3486 133.664 38.4704L134.567 39.049C134.805 39.2012 134.945 39.2926 134.945 39.4144C134.945 39.6275 133.53 41.0648 132.743 41.6738C132.548 41.826 132.389 41.9174 132.389 42.0087C132.389 42.1001 132.663 42.161 133.066 42.161C133.261 42.161 133.206 42.0392 133.286 41.9478L133.829 41.3693C134.048 41.1561 134.262 41.0952 134.835 41.0952H135.842M135.842 40.7542C136.824 40.7542 137.098 40.7542 137.178 40.7237L137.172 40.7359L135.836 39.8772V39.2317C137.58 40.4862 138.398 40.9491 139.728 41.6799C140.027 41.8321 140.271 41.7408 140.271 41.893C140.271 41.9844 139.886 42.1975 139.728 42.1975H139.404C139.294 42.1975 139.27 42.1061 139.215 42.0757C138.965 41.8565 138.477 41.552 137.745 41.0952H135.842" stroke="#E30613" stroke-width="0.5" stroke-miterlimit="10"/>
<path fill-rule="evenodd" clip-rule="evenodd" d="M135.842 40.7542V41.0952H134.835C134.262 41.0952 134.048 41.1561 133.829 41.3693L133.286 41.9478C133.206 42.0392 133.261 42.161 133.066 42.161C132.663 42.161 132.389 42.1001 132.389 42.0087C132.389 41.9174 132.548 41.826 132.743 41.6738C133.53 41.0648 134.945 39.6275 134.945 39.4144C134.945 39.2926 134.805 39.2012 134.567 39.049L133.664 38.4704C133.45 38.3486 133.286 38.3121 133.286 38.2573C133.286 38.1659 133.774 38.0137 133.993 38.0137C134.378 38.0137 134.426 38.0441 134.567 38.2573C134.591 38.3182 134.786 38.4704 134.945 38.5922C135.268 38.8054 135.567 39.0551 135.842 39.2317V39.8772L135.463 39.6641L134.756 40.4253C134.567 40.608 134.512 40.6689 134.512 40.6994C134.512 40.7603 134.567 40.7603 135.628 40.7603H135.842V40.7542ZM137.178 40.7237C137.098 40.7542 136.824 40.7542 135.842 40.7542V41.0952H137.745C138.477 41.552 138.965 41.8565 139.215 42.0757C139.27 42.1061 139.294 42.1975 139.404 42.1975H139.728C139.886 42.1975 140.271 41.9844 140.271 41.893C140.271 41.7408 140.027 41.8321 139.728 41.6799C138.398 40.9491 137.58 40.4862 135.836 39.2317V39.8772L137.172 40.7359L137.178 40.7237Z" fill="#E30613"/>
<path d="M135.842 40.7542V41.0952M135.842 40.7542V40.7603H135.628C134.567 40.7603 134.512 40.7603 134.512 40.6994C134.512 40.6689 134.567 40.608 134.756 40.4253L135.463 39.6641L135.842 39.8772V39.2317C135.567 39.0551 135.268 38.8054 134.945 38.5922C134.786 38.4704 134.591 38.3182 134.567 38.2573C134.426 38.0441 134.378 38.0137 133.993 38.0137C133.774 38.0137 133.286 38.1659 133.286 38.2573C133.286 38.3121 133.45 38.3486 133.664 38.4704L134.567 39.049C134.805 39.2012 134.945 39.2926 134.945 39.4144C134.945 39.6275 133.53 41.0648 132.743 41.6738C132.548 41.826 132.389 41.9174 132.389 42.0087C132.389 42.1001 132.663 42.161 133.066 42.161C133.261 42.161 133.206 42.0392 133.286 41.9478L133.829 41.3693C134.048 41.1561 134.262 41.0952 134.835 41.0952H135.842M135.842 40.7542C136.824 40.7542 137.098 40.7542 137.178 40.7237L137.172 40.7359L135.836 39.8772V39.2317C137.58 40.4862 138.398 40.9491 139.728 41.6799C140.027 41.8321 140.271 41.7408 140.271 41.893C140.271 41.9844 139.886 42.1975 139.728 42.1975H139.404C139.294 42.1975 139.27 42.1061 139.215 42.0757C138.965 41.8565 138.477 41.552 137.745 41.0952H135.842" stroke="#E30613" stroke-width="0.5" stroke-miterlimit="2.61"/>
<path fill-rule="evenodd" clip-rule="evenodd" d="M137.751 41.0972C138.483 41.5539 138.971 41.8584 139.221 42.0777C139.276 42.1081 139.301 42.1995 139.41 42.1995H139.734C139.892 42.1995 140.277 41.9863 140.277 41.895C140.277 41.7427 140.033 41.8341 139.734 41.6818C138.422 40.9449 137.586 40.476 135.848 39.2397V39.9035L137.178 40.7379C137.074 40.7622 136.806 40.7683 135.848 40.7683V41.1093H137.751V41.0972ZM135.848 39.2336V39.8974L135.47 39.6599L134.762 40.4212C134.573 40.6039 134.518 40.6648 134.518 40.6952C134.518 40.7561 134.573 40.7561 135.634 40.7561H135.848V41.0972H134.841C134.268 41.0972 134.054 41.1581 133.835 41.3712L133.292 41.9498C133.212 42.0411 133.267 42.1629 133.072 42.1629C132.67 42.1629 132.395 42.102 132.395 42.0107C132.395 41.9193 132.554 41.828 132.749 41.6757C133.536 41.0667 134.951 39.6295 134.951 39.4163C134.951 39.2945 134.811 39.2032 134.573 39.0509L133.67 38.4724C133.456 38.3506 133.292 38.314 133.292 38.2592C133.292 38.1679 133.78 38.0156 133.999 38.0156C134.384 38.0156 134.433 38.0461 134.573 38.2592C134.597 38.3201 134.792 38.4724 134.951 38.5942C135.274 38.8317 135.573 39.0448 135.848 39.2397V39.2336Z" fill="#E30613"/>
<path d="M135.848 39.2397C137.586 40.476 138.422 40.9449 139.734 41.6818C140.033 41.8341 140.277 41.7427 140.277 41.895C140.277 41.9863 139.892 42.1995 139.734 42.1995H139.41C139.301 42.1995 139.276 42.1081 139.221 42.0777C138.971 41.8584 138.483 41.5539 137.751 41.0972V41.1093H135.848V40.7683C136.806 40.7683 137.074 40.7622 137.178 40.7379L135.848 39.9035V39.2397ZM135.848 39.2397C135.573 39.0448 135.274 38.8317 134.951 38.5942C134.792 38.4724 134.597 38.3201 134.573 38.2592C134.433 38.0461 134.384 38.0156 133.999 38.0156C133.78 38.0156 133.292 38.1679 133.292 38.2592C133.292 38.314 133.456 38.3506 133.67 38.4724L134.573 39.0509C134.811 39.2032 134.951 39.2945 134.951 39.4163C134.951 39.6295 133.536 41.0667 132.749 41.6757C132.554 41.828 132.395 41.9193 132.395 42.0107C132.395 42.102 132.67 42.1629 133.072 42.1629C133.267 42.1629 133.212 42.0411 133.292 41.9498L133.835 41.3712C134.054 41.1581 134.268 41.0972 134.841 41.0972H135.848V40.7561H135.634C134.573 40.7561 134.518 40.7561 134.518 40.6952C134.518 40.6648 134.573 40.6039 134.762 40.4212L135.47 39.6599L135.848 39.8974V39.2336V39.2397Z" stroke="#E30613" stroke-width="0.5" stroke-miterlimit="10"/>
<path fill-rule="evenodd" clip-rule="evenodd" d="M137.751 41.0954C138.483 41.5522 138.971 41.8567 139.221 42.0759C139.276 42.1064 139.301 42.1977 139.41 42.1977H139.734C139.892 42.1977 140.277 41.9846 140.277 41.8932C140.277 41.741 140.033 41.8323 139.734 41.6801C138.422 40.9432 137.586 40.4743 135.848 39.238V39.9018L137.178 40.7361C137.074 40.7605 136.806 40.7666 135.848 40.7666V41.1076H137.751V41.0954ZM135.848 39.2319C135.573 39.037 135.274 38.8239 134.951 38.5864C134.786 38.4646 134.597 38.3123 134.573 38.2514C134.439 38.0383 134.384 38.0078 133.999 38.0078C133.78 38.0078 133.292 38.1601 133.292 38.2514C133.292 38.3123 133.456 38.3428 133.67 38.4646L134.573 39.0431C134.811 39.1954 134.951 39.2867 134.951 39.4085C134.951 39.6217 133.536 41.0589 132.749 41.6679C132.56 41.8201 132.395 41.9115 132.395 42.0029C132.395 42.0942 132.663 42.1551 133.072 42.1551C133.267 42.1551 133.212 42.0333 133.292 41.942L133.835 41.3634C134.054 41.1502 134.268 41.0894 134.841 41.0894H135.848V40.7483H135.634C134.573 40.7483 134.518 40.7483 134.518 40.6874C134.518 40.657 134.573 40.5961 134.762 40.4134L135.47 39.6521L135.848 39.8896V39.2258V39.2319Z" fill="#E30613" stroke="#E30613" stroke-width="0.5" stroke-miterlimit="2.61"/>
<path fill-rule="evenodd" clip-rule="evenodd" d="M110.8 38.2207C111.398 38.2207 111.752 38.4034 111.752 38.5252C111.752 38.647 111.343 38.8602 111.154 38.8602C110.989 38.8602 110.879 38.5557 110.391 38.5557C108.274 38.5557 107.921 40.0233 107.921 40.4192C107.921 40.9368 108.683 41.826 109.824 41.826C110.965 41.826 111.538 41.2779 111.813 41.2779C111.977 41.2779 112.057 41.3388 112.057 41.4301C112.057 41.4971 111.617 41.8016 111.16 41.9843C110.861 42.0757 110.129 42.1975 109.525 42.1975C108.707 42.1975 107.188 41.7712 107.188 40.5471C107.188 38.5861 109.555 38.2207 110.806 38.2207H110.8Z" fill="#E30613" stroke="#E30613" stroke-width="0.5" stroke-miterlimit="2.61"/>
<path fill-rule="evenodd" clip-rule="evenodd" d="M114.143 41.8256C114.143 42.0692 113.984 42.1606 113.655 42.1606C113.49 42.1606 113.466 42.0997 113.466 41.9779C113.466 41.5211 113.52 40.9974 113.52 40.4493C113.52 39.9621 113.49 39.3166 113.466 38.9816C113.466 38.7685 113.002 38.7075 113.002 38.5857C113.002 38.5248 113.276 38.2812 113.6 38.2812C113.868 38.2812 114.442 38.4335 114.442 38.5248C114.442 38.5857 114.277 38.738 114.253 38.9816C114.253 39.2922 114.253 39.6576 114.222 39.9925H117.156V39.347C117.156 39.012 117.107 38.738 117.107 38.6162C117.107 38.4944 117.76 38.4031 118.035 38.4031C118.169 38.4031 118.254 38.4335 118.254 38.4944C118.254 38.5857 118.09 38.6162 118.01 38.9207C117.931 39.2252 117.901 39.682 117.901 39.9621H118.254C118.389 39.9621 118.443 39.9621 118.443 40.0534C118.443 40.1448 118.364 40.3275 118.169 40.3275H118.004C117.925 40.3275 117.894 40.3275 117.894 40.3884L117.864 41.7038C117.864 41.8256 117.73 42.0692 117.541 42.0692C117.321 42.0692 117.266 42.0388 117.242 41.8865L117.132 40.3275C116.345 40.3275 114.631 40.3884 114.198 40.4493C114.173 40.5102 114.143 40.632 114.143 40.6929V41.8256Z" fill="#E30613" stroke="#E30613" stroke-width="0.5" stroke-miterlimit="2.61"/>
<path fill-rule="evenodd" clip-rule="evenodd" d="M120.231 39.1342C120.231 39.0124 120.231 38.9515 120.152 38.8906C120.011 38.7688 119.957 38.7079 119.957 38.647C119.957 38.5252 120.585 38.2207 120.774 38.2207C120.939 38.2207 121.207 38.3121 121.207 38.373C121.207 38.4643 121.097 38.5861 121.097 38.7384C121.048 39.1403 120.987 39.9929 120.987 41.6189C120.987 42.167 120.878 42.2888 120.634 42.2888C120.31 42.2888 120.249 42.1975 120.249 40.0842C120.249 39.597 120.219 39.3778 120.219 39.1403L120.231 39.1342Z" fill="#E30613" stroke="#E30613" stroke-width="0.5" stroke-miterlimit="2.61"/>
<path fill-rule="evenodd" clip-rule="evenodd" d="M123.665 39.1341C122.927 38.6408 122.817 38.5494 122.817 38.4581C122.817 38.3972 123.061 38.2754 123.336 38.2754C123.391 38.2754 123.495 38.2754 124.342 38.793C126.648 40.1389 128.094 40.7845 130.351 41.5153C130.406 41.1194 130.437 40.9367 130.437 40.5957C130.437 40.0171 130.412 39.5238 130.382 39.0366C130.351 38.6712 130.028 38.6347 130.028 38.4885C130.028 38.3424 130.571 38.2754 130.821 38.2754C130.986 38.2754 131.199 38.3058 131.199 38.4276C131.199 38.5799 131.01 38.7626 131.01 40.754C131.01 41.3996 131.12 41.6432 131.12 41.8868C131.12 42.1304 130.601 42.2522 130.412 42.2522C130.223 42.2522 130.193 41.8868 129.76 41.7345C126.252 40.5104 125.709 40.2668 124.891 39.804C124.837 40.1998 124.782 41.2412 124.562 41.8868C124.513 42.0999 124.318 42.1913 124.159 42.1913C124.001 42.1913 123.696 42.0999 123.696 42.0086C123.696 41.8259 124.269 41.3021 124.269 40.0841C124.269 39.6822 124.08 39.4142 123.671 39.1402L123.665 39.1341Z" fill="#E30613" stroke="#E30613" stroke-width="0.5" stroke-miterlimit="2.61"/>
<path fill-rule="evenodd" clip-rule="evenodd" d="M135.842 40.7542V41.0952H134.835C134.262 41.0952 134.048 41.1561 133.829 41.3693L133.286 41.9478C133.206 42.0392 133.261 42.161 133.066 42.161C132.663 42.161 132.389 42.1001 132.389 42.0087C132.389 41.9174 132.548 41.826 132.743 41.6738C133.53 41.0648 134.945 39.6275 134.945 39.4144C134.945 39.2926 134.805 39.2012 134.567 39.049L133.664 38.4704C133.45 38.3486 133.286 38.3121 133.286 38.2573C133.286 38.1659 133.774 38.0137 133.993 38.0137C134.378 38.0137 134.426 38.0441 134.567 38.2573C134.591 38.3182 134.786 38.4704 134.945 38.5922C135.268 38.8054 135.567 39.0551 135.842 39.2317V39.8772L135.463 39.6641L134.756 40.4253C134.567 40.608 134.512 40.6689 134.512 40.6994C134.512 40.7603 134.567 40.7603 135.628 40.7603H135.842V40.7542ZM137.178 40.7237C137.098 40.7542 136.824 40.7542 135.842 40.7542V41.0952H137.745C138.477 41.552 138.965 41.8565 139.215 42.0757C139.27 42.1061 139.294 42.1975 139.404 42.1975H139.728C139.886 42.1975 140.271 41.9844 140.271 41.893C140.271 41.7408 140.027 41.8321 139.728 41.6799C138.398 40.9491 137.58 40.4862 135.836 39.2317V39.8772L137.172 40.7359L137.178 40.7237Z" fill="#E30613"/>
<path d="M135.842 40.7542V41.0952M135.842 40.7542V40.7603H135.628C134.567 40.7603 134.512 40.7603 134.512 40.6994C134.512 40.6689 134.567 40.608 134.756 40.4253L135.463 39.6641L135.842 39.8772V39.2317C135.567 39.0551 135.268 38.8054 134.945 38.5922C134.786 38.4704 134.591 38.3182 134.567 38.2573C134.426 38.0441 134.378 38.0137 133.993 38.0137C133.774 38.0137 133.286 38.1659 133.286 38.2573C133.286 38.3121 133.45 38.3486 133.664 38.4704L134.567 39.049C134.805 39.2012 134.945 39.2926 134.945 39.4144C134.945 39.6275 133.53 41.0648 132.743 41.6738C132.548 41.826 132.389 41.9174 132.389 42.0087C132.389 42.1001 132.663 42.161 133.066 42.161C133.261 42.161 133.206 42.0392 133.286 41.9478L133.829 41.3693C134.048 41.1561 134.262 41.0952 134.835 41.0952H135.842M135.842 40.7542C136.824 40.7542 137.098 40.7542 137.178 40.7237L137.172 40.7359L135.836 39.8772V39.2317C137.58 40.4862 138.398 40.9491 139.728 41.6799C140.027 41.8321 140.271 41.7408 140.271 41.893C140.271 41.9844 139.886 42.1975 139.728 42.1975H139.404C139.294 42.1975 139.27 42.1061 139.215 42.0757C138.965 41.8565 138.477 41.552 137.745 41.0952H135.842" stroke="#E30613" stroke-width="0.5" stroke-miterlimit="10"/>
<path fill-rule="evenodd" clip-rule="evenodd" d="M135.842 40.7542V41.0952H134.835C134.262 41.0952 134.048 41.1561 133.829 41.3693L133.286 41.9478C133.206 42.0392 133.261 42.161 133.066 42.161C132.663 42.161 132.389 42.1001 132.389 42.0087C132.389 41.9174 132.548 41.826 132.743 41.6738C133.53 41.0648 134.945 39.6275 134.945 39.4144C134.945 39.2926 134.805 39.2012 134.567 39.049L133.664 38.4704C133.45 38.3486 133.286 38.3121 133.286 38.2573C133.286 38.1659 133.774 38.0137 133.993 38.0137C134.378 38.0137 134.426 38.0441 134.567 38.2573C134.591 38.3182 134.786 38.4704 134.945 38.5922C135.268 38.8054 135.567 39.0551 135.842 39.2317V39.8772L135.463 39.6641L134.756 40.4253C134.567 40.608 134.512 40.6689 134.512 40.6994C134.512 40.7603 134.567 40.7603 135.628 40.7603H135.842V40.7542ZM137.178 40.7237C137.098 40.7542 136.824 40.7542 135.842 40.7542V41.0952H137.745C138.477 41.552 138.965 41.8565 139.215 42.0757C139.27 42.1061 139.294 42.1975 139.404 42.1975H139.728C139.886 42.1975 140.271 41.9844 140.271 41.893C140.271 41.7408 140.027 41.8321 139.728 41.6799C138.398 40.9491 137.58 40.4862 135.836 39.2317V39.8772L137.172 40.7359L137.178 40.7237Z" fill="#E30613"/>
<path d="M135.842 40.7542V41.0952M135.842 40.7542V40.7603H135.628C134.567 40.7603 134.512 40.7603 134.512 40.6994C134.512 40.6689 134.567 40.608 134.756 40.4253L135.463 39.6641L135.842 39.8772V39.2317C135.567 39.0551 135.268 38.8054 134.945 38.5922C134.786 38.4704 134.591 38.3182 134.567 38.2573C134.426 38.0441 134.378 38.0137 133.993 38.0137C133.774 38.0137 133.286 38.1659 133.286 38.2573C133.286 38.3121 133.45 38.3486 133.664 38.4704L134.567 39.049C134.805 39.2012 134.945 39.2926 134.945 39.4144C134.945 39.6275 133.53 41.0648 132.743 41.6738C132.548 41.826 132.389 41.9174 132.389 42.0087C132.389 42.1001 132.663 42.161 133.066 42.161C133.261 42.161 133.206 42.0392 133.286 41.9478L133.829 41.3693C134.048 41.1561 134.262 41.0952 134.835 41.0952H135.842M135.842 40.7542C136.824 40.7542 137.098 40.7542 137.178 40.7237L137.172 40.7359L135.836 39.8772V39.2317C137.58 40.4862 138.398 40.9491 139.728 41.6799C140.027 41.8321 140.271 41.7408 140.271 41.893C140.271 41.9844 139.886 42.1975 139.728 42.1975H139.404C139.294 42.1975 139.27 42.1061 139.215 42.0757C138.965 41.8565 138.477 41.552 137.745 41.0952H135.842" stroke="#E30613" stroke-width="0.5" stroke-miterlimit="2.61"/>
<path fill-rule="evenodd" clip-rule="evenodd" d="M137.751 41.0972C138.483 41.5539 138.971 41.8584 139.221 42.0777C139.276 42.1081 139.301 42.1995 139.41 42.1995H139.734C139.892 42.1995 140.277 41.9863 140.277 41.895C140.277 41.7427 140.033 41.8341 139.734 41.6818C138.422 40.9449 137.586 40.476 135.848 39.2397V39.9035L137.178 40.7379C137.074 40.7622 136.806 40.7683 135.848 40.7683V41.1093H137.751V41.0972ZM135.848 39.2336V39.8974L135.47 39.6599L134.762 40.4212C134.573 40.6039 134.518 40.6648 134.518 40.6952C134.518 40.7561 134.573 40.7561 135.634 40.7561H135.848V41.0972H134.841C134.268 41.0972 134.054 41.1581 133.835 41.3712L133.292 41.9498C133.212 42.0411 133.267 42.1629 133.072 42.1629C132.67 42.1629 132.395 42.102 132.395 42.0107C132.395 41.9193 132.554 41.828 132.749 41.6757C133.536 41.0667 134.951 39.6295 134.951 39.4163C134.951 39.2945 134.811 39.2032 134.573 39.0509L133.67 38.4724C133.456 38.3506 133.292 38.314 133.292 38.2592C133.292 38.1679 133.78 38.0156 133.999 38.0156C134.384 38.0156 134.433 38.0461 134.573 38.2592C134.597 38.3201 134.792 38.4724 134.951 38.5942C135.274 38.8317 135.573 39.0448 135.848 39.2397V39.2336Z" fill="#E30613"/>
<path d="M135.848 39.2397C137.586 40.476 138.422 40.9449 139.734 41.6818C140.033 41.8341 140.277 41.7427 140.277 41.895C140.277 41.9863 139.892 42.1995 139.734 42.1995H139.41C139.301 42.1995 139.276 42.1081 139.221 42.0777C138.971 41.8584 138.483 41.5539 137.751 41.0972V41.1093H135.848V40.7683C136.806 40.7683 137.074 40.7622 137.178 40.7379L135.848 39.9035V39.2397ZM135.848 39.2397C135.573 39.0448 135.274 38.8317 134.951 38.5942C134.792 38.4724 134.597 38.3201 134.573 38.2592C134.433 38.0461 134.384 38.0156 133.999 38.0156C133.78 38.0156 133.292 38.1679 133.292 38.2592C133.292 38.314 133.456 38.3506 133.67 38.4724L134.573 39.0509C134.811 39.2032 134.951 39.2945 134.951 39.4163C134.951 39.6295 133.536 41.0667 132.749 41.6757C132.554 41.828 132.395 41.9193 132.395 42.0107C132.395 42.102 132.67 42.1629 133.072 42.1629C133.267 42.1629 133.212 42.0411 133.292 41.9498L133.835 41.3712C134.054 41.1581 134.268 41.0972 134.841 41.0972H135.848V40.7561H135.634C134.573 40.7561 134.518 40.7561 134.518 40.6952C134.518 40.6648 134.573 40.6039 134.762 40.4212L135.47 39.6599L135.848 39.8974V39.2336V39.2397Z" stroke="#E30613" stroke-width="0.5" stroke-miterlimit="10"/>
<path fill-rule="evenodd" clip-rule="evenodd" d="M137.751 41.0954C138.483 41.5522 138.971 41.8567 139.221 42.0759C139.276 42.1064 139.301 42.1977 139.41 42.1977H139.734C139.892 42.1977 140.277 41.9846 140.277 41.8932C140.277 41.741 140.033 41.8323 139.734 41.6801C138.422 40.9432 137.586 40.4743 135.848 39.238V39.9018L137.178 40.7361C137.074 40.7605 136.806 40.7666 135.848 40.7666V41.1076H137.751V41.0954ZM135.848 39.2319C135.573 39.037 135.274 38.8239 134.951 38.5864C134.786 38.4646 134.597 38.3123 134.573 38.2514C134.439 38.0383 134.384 38.0078 133.999 38.0078C133.78 38.0078 133.292 38.1601 133.292 38.2514C133.292 38.3123 133.456 38.3428 133.67 38.4646L134.573 39.0431C134.811 39.1954 134.951 39.2867 134.951 39.4085C134.951 39.6217 133.536 41.0589 132.749 41.6679C132.56 41.8201 132.395 41.9115 132.395 42.0029C132.395 42.0942 132.663 42.1551 133.072 42.1551C133.267 42.1551 133.212 42.0333 133.292 41.942L133.835 41.3634C134.054 41.1502 134.268 41.0894 134.841 41.0894H135.848V40.7483H135.634C134.573 40.7483 134.518 40.7483 134.518 40.6874C134.518 40.657 134.573 40.5961 134.762 40.4134L135.47 39.6521L135.848 39.8896V39.2258V39.2319Z" fill="#E30613" stroke="#E30613" stroke-width="0.5" stroke-miterlimit="2.61"/>
<path fill-rule="evenodd" clip-rule="evenodd" d="M30.2455 12.7285L21.9857 12.7894L20.9608 12.8503L20.3203 13.4898L19.6188 14.2571L19.1735 15.2802C19.1735 15.2802 18.9172 16.5591 18.9843 16.7479C19.0514 16.9367 19.2406 18.0268 20.3264 18.5384H28.2629L32.1061 18.4775C32.1061 18.4775 33.7715 18.8612 34.0277 20.201C34.2839 21.5408 34.2168 23.7149 33.7715 24.4822C33.3262 25.2496 32.4904 25.5662 31.1484 25.6332C29.8063 25.6941 23.9805 25.5723 23.9805 25.5723C23.9805 25.5723 22.3822 24.9329 22.3151 24.1655C22.248 23.3982 22.126 21.7356 23.6572 21.0353L31.7218 20.9074L32.6186 21.0962L32.1732 19.8173L19.0514 19.9452L18.9233 34.0009L19.4358 34.8291C19.4358 34.8291 20.0763 35.9131 19.1185 35.8522C19.1185 35.8522 18.8013 38.1543 19.1185 38.7267C19.4358 39.2992 19.631 40.6451 20.3996 40.706C21.1683 40.7669 21.9979 41.2175 21.9979 41.2175C21.9979 41.2175 21.8698 40.4502 22.5713 40.706C23.2729 40.9618 24.1696 41.4733 25.1335 41.2784C26.0973 41.0836 27.2442 41.2784 27.2442 41.2784L28.2019 41.2175L30.3797 41.3454H33.6434L34.412 40.9618L34.8574 40.1944L35.2417 41.0227L36.2665 40.4502C36.2665 40.4502 37.2243 39.9386 37.2243 39.2383V37.1311C37.2243 37.1311 37.2243 36.2359 36.1384 36.175C35.0526 36.1141 28.9035 36.3029 28.9035 36.3029L24.3587 32.3383L23.7487 32.3566C23.7487 32.3566 24.2306 35.9497 23.3644 35.901C22.4981 35.8522 22.2114 34.9448 22.2114 34.9448L22.2602 30.9681L22.2114 29.8658V28.9523L22.1626 28.3311C22.1626 28.3311 22.309 27.04 23.0289 27.2775C23.7487 27.515 23.7975 28.4285 23.7975 28.4285V30.8706L32.4355 27.6125C32.4355 27.6125 33.4421 27.04 33.7776 27.515C34.1131 27.9901 34.1619 28.3798 33.3933 28.9036C32.6247 29.4334 26.0729 31.638 26.0729 31.638L28.812 34.0801C28.812 34.0801 29.2695 34.6099 30.2028 34.5855C31.1362 34.5612 36.5167 34.4394 36.5167 34.4394C36.5167 34.4394 36.7058 34.1288 36.4678 34.0313C36.2299 33.9339 36.0347 33.8426 36.2055 33.2396C36.3763 32.6367 36.0591 32.3992 36.4678 31.9912C36.8766 31.5832 36.9254 31.5344 37.2853 31.4187C37.2853 31.4187 37.4317 29.744 37.4317 29.5004C37.4317 29.2568 37.4805 25.6454 37.4805 25.2617C37.4805 24.8781 37.3829 23.7027 37.3829 22.911C37.3829 22.1193 37.4317 21.1145 37.2853 20.9439C37.1389 20.7734 36.8522 20.4872 36.8522 20.4872C36.8522 20.4872 36.779 20.4141 36.8034 20.1766C36.8278 19.9391 37.3341 19.6468 37.3097 19.3849C37.2853 19.123 37.1389 18.2582 37.1389 17.8259C37.1389 17.3935 37.2121 16.413 37.1389 15.8101C37.0657 15.2132 37.2609 14.5616 37.0413 14.2997C36.8217 14.0379 36.535 13.7273 36.535 13.7273L36.175 14.111C36.175 14.111 35.9127 14.184 35.8639 14.0866C35.8151 13.9892 35.7907 13.6298 35.7907 13.6298L35.9798 13.3193C35.9798 13.3193 35.7175 13.1061 35.4979 13.033C35.2783 12.9599 35.4003 12.7468 34.9916 12.6981C34.5829 12.6494 33.314 12.6981 33.1188 12.6981C32.9236 12.6981 32.0634 12.625 32.0634 12.625C32.0634 12.625 31.7523 13.3436 31.246 13.3436C30.7397 13.3436 30.5017 13.1305 30.5017 13.1305C30.5017 13.1305 30.3187 12.899 30.2272 12.7163L30.2455 12.7285Z" fill="#E30613"/>
<path d="M32.1916 22.1934H24.4076C24.01 22.1934 23.6877 22.5151 23.6877 22.912V23.521C23.6877 23.9179 24.01 24.2396 24.4076 24.2396H32.1916C32.5891 24.2396 32.9114 23.9179 32.9114 23.521V22.912C32.9114 22.5151 32.5891 22.1934 32.1916 22.1934Z" fill="#E30613"/>
</g>
<defs>
<clipPath id="clip0_1101_1209">
<rect width="162" height="54" fill="white"/>
</clipPath>
</defs>
</svg>
