<svg width="181" height="57" viewBox="0 0 181 57" fill="none" xmlns="http://www.w3.org/2000/svg">
<g clip-path="url(#clip0_1101_1353)">
<path d="M181 1H0V58H181V1Z" fill="#191713"/>
<path fill-rule="evenodd" clip-rule="evenodd" d="M96.9501 13.666C96.286 13.666 95.4303 15.005 95.0471 15.5304V15.005C95.0471 14.4348 94.7598 13.666 93.9552 13.666C93.7189 13.666 93.1442 14.2426 92.7163 14.4797V14.6719C93.9999 15.0499 94.0957 16.0557 94.0957 17.8239C94.0957 19.4961 93.8594 20.3546 92.9079 21.0209V21.2131H96.1902V21.0209C95.2898 20.3482 95.0471 19.4961 95.0471 17.8239C95.0471 16.2991 95.475 15.5816 96.3307 15.5816C96.8096 15.5816 97.0906 15.8699 97.4738 16.2031C97.71 15.6777 97.9463 15.1524 98.2337 14.627C97.6653 13.9992 97.4227 13.6724 96.9501 13.6724V13.666Z" fill="white"/>
<path d="M96.9501 13.666C96.286 13.666 95.4303 15.005 95.0471 15.5304V15.005C95.0471 14.4348 94.7598 13.666 93.9552 13.666C93.7189 13.666 93.1442 14.2426 92.7163 14.4797V14.6719C93.9999 15.0499 94.0957 16.0557 94.0957 17.8239C94.0957 19.4961 93.8594 20.3546 92.9079 21.0209V21.2131H96.1902V21.0209C95.2898 20.3482 95.0471 19.4961 95.0471 17.8239C95.0471 16.2992 95.475 15.5816 96.3307 15.5816C96.8096 15.5816 97.0906 15.8699 97.4738 16.2031C97.71 15.6777 97.9463 15.1524 98.2337 14.627C97.6653 13.9992 97.4227 13.6724 96.9501 13.6724V13.666Z" stroke="white" stroke-width="0.3" stroke-miterlimit="3.86"/>
<path d="M96.9501 13.666C96.286 13.666 95.4303 15.005 95.0471 15.5304V15.005C95.0471 14.4348 94.7598 13.666 93.9552 13.666C93.7189 13.666 93.1442 14.2426 92.7163 14.4797V14.6719C93.9999 15.0499 94.0957 16.0557 94.0957 17.8239C94.0957 19.4961 93.8594 20.3546 92.9079 21.0209V21.2131H96.1902V21.0209C95.2898 20.3482 95.0471 19.4961 95.0471 17.8239C95.0471 16.2991 95.475 15.5816 96.3307 15.5816C96.8096 15.5816 97.0906 15.8699 97.4738 16.2031C97.71 15.6777 97.9463 15.1524 98.2337 14.627C97.6653 13.9992 97.4227 13.6724 96.9501 13.6724V13.666Z" fill="white"/>
<path d="M96.9501 13.666C96.286 13.666 95.4303 15.005 95.0471 15.5304V15.005C95.0471 14.4348 94.7598 13.666 93.9552 13.666C93.7189 13.666 93.1442 14.2426 92.7163 14.4797V14.6719C93.9999 15.0499 94.0957 16.0557 94.0957 17.8239C94.0957 19.4961 93.8594 20.3546 92.9079 21.0209V21.2131H96.1902V21.0209C95.2898 20.3482 95.0471 19.4961 95.0471 17.8239C95.0471 16.2992 95.475 15.5816 96.3307 15.5816C96.8096 15.5816 97.0906 15.8699 97.4738 16.2031C97.71 15.6777 97.9463 15.1524 98.2337 14.627C97.6653 13.9992 97.4227 13.6724 96.9501 13.6724V13.666Z" stroke="white" stroke-width="0.3" stroke-miterlimit="3.86"/>
<path fill-rule="evenodd" clip-rule="evenodd" d="M112.225 17.676C112.225 16.2922 113.132 15.722 113.943 15.1454C114.371 15.3376 115.277 15.863 115.277 16.7214C115.277 17.7721 114.371 17.9131 113.847 17.9131L113.706 18.1053C113.987 18.2462 114.275 18.2975 114.562 18.2975C115.609 18.2975 116.606 17.439 116.606 16.2474C116.606 15.0557 115.463 14.5304 114.275 13.6719C113.036 14.8187 111.28 15.7733 111.28 17.8234C111.28 20.354 113.374 21.1677 114.422 21.5521C114.945 21.0267 115.514 20.5462 116.229 20.2643L116.184 20.0721C114.613 20.0721 112.231 19.7838 112.231 17.6888L112.225 17.676Z" fill="white"/>
<path d="M112.225 17.676C112.225 16.2922 113.132 15.722 113.943 15.1454C114.371 15.3376 115.277 15.863 115.277 16.7214C115.277 17.7721 114.371 17.9131 113.847 17.9131L113.706 18.1053C113.987 18.2462 114.275 18.2975 114.562 18.2975C115.609 18.2975 116.606 17.439 116.606 16.2474C116.606 15.0557 115.463 14.5304 114.275 13.6719C113.036 14.8187 111.28 15.7733 111.28 17.8234C111.28 20.354 113.374 21.1677 114.422 21.5521C114.945 21.0267 115.514 20.5462 116.229 20.2643L116.184 20.0721C114.613 20.0721 112.231 19.7838 112.231 17.6888L112.225 17.676Z" stroke="white" stroke-width="0.3" stroke-miterlimit="3.86"/>
<path d="M112.225 17.676C112.225 16.2922 113.132 15.722 113.943 15.1454C114.371 15.3376 115.277 15.863 115.277 16.7214C115.277 17.7721 114.371 17.9131 113.847 17.9131L113.706 18.1053C113.987 18.2462 114.275 18.2975 114.562 18.2975C115.609 18.2975 116.606 17.439 116.606 16.2474C116.606 15.0557 115.463 14.5304 114.275 13.6719C113.036 14.8187 111.28 15.7733 111.28 17.8234C111.28 20.354 113.374 21.1677 114.422 21.5521C114.945 21.0267 115.514 20.5462 116.229 20.2643L116.184 20.0721C114.613 20.0721 112.231 19.7838 112.231 17.6888L112.225 17.676Z" fill="white"/>
<path d="M112.225 17.676C112.225 16.2922 113.132 15.722 113.943 15.1454C114.371 15.3376 115.277 15.863 115.277 16.7214C115.277 17.7721 114.371 17.9131 113.847 17.9131L113.706 18.1053C113.987 18.2462 114.275 18.2975 114.562 18.2975C115.609 18.2975 116.606 17.439 116.606 16.2474C116.606 15.0557 115.463 14.5304 114.275 13.6719C113.036 14.8187 111.28 15.7733 111.28 17.8234C111.28 20.354 113.374 21.1677 114.422 21.5521C114.945 21.0267 115.514 20.5462 116.229 20.2643L116.184 20.0721C114.613 20.0721 112.231 19.7838 112.231 17.6888L112.225 17.676Z" stroke="white" stroke-width="0.3" stroke-miterlimit="3.86"/>
<path fill-rule="evenodd" clip-rule="evenodd" d="M86.8539 19.1053C86.426 19.3423 85.9471 19.6306 85.4299 19.6306C85.2127 19.6306 84.9956 19.5986 84.7913 19.5473L84.5486 19.4704L84.4975 19.4512C83.7376 19.1437 83.1501 18.4646 82.9969 17.5741V17.5484L82.9585 17.1L82.9713 16.9206C83.0288 16.3888 83.3353 15.8571 83.7823 15.4919L83.827 15.4535L83.91 15.4022L84.0122 15.3317L84.0441 15.3125C84.3315 15.1524 84.6572 15.0499 85.002 15.0499C86.1898 15.0499 86.8603 15.8635 86.8603 17.1V19.1053H86.8539ZM87.8054 19.8228V17.1C87.8054 15.8635 88.0417 14.9538 88.4695 14.6206C88.2332 14.4284 87.4669 13.666 85.9918 13.666L85.6597 13.6852L85.4682 13.7109H85.4362C84.6763 13.8262 83.9675 14.1529 83.3992 14.659L83.2523 14.7936L83.2012 14.8448L82.9777 15.0883C82.6456 15.4919 82.3966 15.9532 82.2369 16.4849V16.517L82.1475 16.8565L82.1284 16.9462L82.0837 17.2537L82.0709 17.3562L82.0518 17.7727C82.0518 20.0599 83.4758 21.0144 84.2357 21.5462C84.7274 21.0849 85.3788 20.6749 86.094 20.3033C86.3494 20.1752 86.6048 20.047 86.8539 19.9189V21.0209L86.8411 21.3796L86.8284 21.5398L86.8092 21.7192L86.7837 21.905L86.7645 22.0395L86.7262 22.2253L86.6943 22.347L86.6496 22.5072L86.6112 22.6353L86.5665 22.7699L86.5027 22.9172L86.4644 23.0069L86.3558 23.2119C85.9471 23.9038 85.3149 24.269 84.5103 24.269C84.0314 24.269 83.5588 24.1729 83.2267 23.9871C83.463 23.7949 83.6993 23.5579 83.6993 23.3208C83.6993 22.7891 83.3225 22.4175 82.8947 22.4175C82.4157 22.4175 82.0837 22.8468 82.0837 23.3208C82.0837 23.891 82.8436 24.8969 84.5103 24.8969H84.8871C85.6789 24.8328 86.3303 24.5765 86.8667 24.2498L86.8986 24.2306L87.1157 24.0832L87.269 23.9807L87.3328 23.9231C88.1055 23.3337 88.5845 22.6225 88.8335 22.2702C88.0225 22.078 87.8373 21.3604 87.7862 19.8356L87.8054 19.8228Z" fill="white"/>
<path d="M86.8539 19.1053C86.426 19.3423 85.9471 19.6306 85.4299 19.6306C85.2127 19.6306 84.9956 19.5986 84.7913 19.5473L84.5486 19.4704L84.4975 19.4512C83.7376 19.1437 83.1501 18.4646 82.9969 17.5741V17.5484L82.9585 17.1L82.9713 16.9206C83.0288 16.3888 83.3353 15.8571 83.7823 15.4919L83.827 15.4535L83.91 15.4022L84.0122 15.3317L84.0441 15.3125C84.3315 15.1524 84.6572 15.0499 85.002 15.0499C86.1898 15.0499 86.8603 15.8635 86.8603 17.1V19.1053H86.8539ZM87.8054 19.8228V17.1C87.8054 15.8635 88.0417 14.9538 88.4695 14.6206C88.2332 14.4284 87.4669 13.666 85.9918 13.666L85.6597 13.6852L85.4682 13.7109H85.4362C84.6763 13.8262 83.9675 14.1529 83.3992 14.659L83.2523 14.7936L83.2012 14.8448L82.9777 15.0883C82.6456 15.4919 82.3966 15.9532 82.2369 16.4849V16.517L82.1475 16.8565L82.1284 16.9462L82.0837 17.2537L82.0709 17.3562L82.0518 17.7727C82.0518 20.0599 83.4758 21.0144 84.2357 21.5462C84.7274 21.0849 85.3788 20.6749 86.094 20.3033C86.3494 20.1752 86.6048 20.047 86.8539 19.9189V21.0209L86.8411 21.3796L86.8284 21.5398L86.8092 21.7192L86.7837 21.905L86.7645 22.0395L86.7262 22.2253L86.6943 22.347L86.6496 22.5072L86.6112 22.6353L86.5665 22.7699L86.5027 22.9172L86.4644 23.0069L86.3558 23.2119C85.9471 23.9038 85.3149 24.269 84.5103 24.269C84.0314 24.269 83.5588 24.1729 83.2267 23.9871C83.463 23.7949 83.6993 23.5579 83.6993 23.3208C83.6993 22.7891 83.3225 22.4175 82.8947 22.4175C82.4157 22.4175 82.0837 22.8468 82.0837 23.3208C82.0837 23.891 82.8436 24.8969 84.5103 24.8969H84.8871C85.6789 24.8328 86.3303 24.5765 86.8667 24.2498L86.8986 24.2306L87.1157 24.0832L87.269 23.9807L87.3328 23.9231C88.1055 23.3337 88.5845 22.6225 88.8335 22.2702C88.0225 22.078 87.8373 21.3604 87.7862 19.8356L87.8054 19.8228Z" stroke="white" stroke-width="0.3" stroke-miterlimit="3.86"/>
<path d="M86.8539 19.1053C86.426 19.3423 85.9471 19.6306 85.4299 19.6306C85.2127 19.6306 84.9956 19.5986 84.7913 19.5473L84.5486 19.4704L84.4975 19.4512C83.7376 19.1437 83.1501 18.4646 82.9969 17.5741V17.5484L82.9585 17.1L82.9713 16.9206C83.0288 16.3888 83.3353 15.8571 83.7823 15.4919L83.827 15.4535L83.91 15.4022L84.0122 15.3317L84.0441 15.3125C84.3315 15.1524 84.6572 15.0499 85.002 15.0499C86.1898 15.0499 86.8603 15.8635 86.8603 17.1V19.1053H86.8539ZM87.8054 19.8228V17.1C87.8054 15.8635 88.0417 14.9538 88.4695 14.6206C88.2332 14.4284 87.4669 13.666 85.9918 13.666L85.6597 13.6852L85.4682 13.7109H85.4362C84.6763 13.8262 83.9675 14.1529 83.3992 14.659L83.2523 14.7936L83.2012 14.8448L82.9777 15.0883C82.6456 15.4919 82.3966 15.9532 82.2369 16.4849V16.517L82.1475 16.8565L82.1284 16.9462L82.0837 17.2537L82.0709 17.3562L82.0518 17.7727C82.0518 20.0599 83.4758 21.0144 84.2357 21.5462C84.7274 21.0849 85.3788 20.6749 86.094 20.3033C86.3494 20.1752 86.6048 20.047 86.8539 19.9189V21.0209L86.8411 21.3796L86.8284 21.5398L86.8092 21.7192L86.7837 21.905L86.7645 22.0395L86.7262 22.2253L86.6943 22.347L86.6496 22.5072L86.6112 22.6353L86.5665 22.7699L86.5027 22.9172L86.4644 23.0069L86.3558 23.2119C85.9471 23.9038 85.3149 24.269 84.5103 24.269C84.0314 24.269 83.5588 24.1729 83.2267 23.9871C83.463 23.7949 83.6993 23.5579 83.6993 23.3208C83.6993 22.7891 83.3225 22.4175 82.8947 22.4175C82.4157 22.4175 82.0837 22.8468 82.0837 23.3208C82.0837 23.891 82.8436 24.8969 84.5103 24.8969H84.8871C85.6789 24.8328 86.3303 24.5765 86.8667 24.2498L86.8986 24.2306L87.1157 24.0832L87.269 23.9807L87.3328 23.9231C88.1055 23.3337 88.5845 22.6225 88.8335 22.2702C88.0225 22.078 87.8373 21.3604 87.7862 19.8356L87.8054 19.8228Z" fill="white"/>
<path d="M86.8539 19.1053C86.426 19.3423 85.9471 19.6306 85.4299 19.6306C85.2127 19.6306 84.9956 19.5986 84.7913 19.5473L84.5486 19.4704L84.4975 19.4512C83.7376 19.1437 83.1501 18.4646 82.9969 17.5741V17.5484L82.9585 17.1L82.9713 16.9206C83.0288 16.3888 83.3353 15.8571 83.7823 15.4919L83.827 15.4535L83.91 15.4022L84.0122 15.3317L84.0441 15.3125C84.3315 15.1524 84.6572 15.0499 85.002 15.0499C86.1898 15.0499 86.8603 15.8635 86.8603 17.1V19.1053H86.8539ZM87.8054 19.8228V17.1C87.8054 15.8635 88.0417 14.9538 88.4695 14.6206C88.2332 14.4284 87.4669 13.666 85.9918 13.666L85.6597 13.6852L85.4682 13.7109H85.4362C84.6763 13.8262 83.9675 14.1529 83.3992 14.659L83.2523 14.7936L83.2012 14.8448L82.9777 15.0883C82.6456 15.4919 82.3966 15.9532 82.2369 16.4849V16.517L82.1475 16.8565L82.1284 16.9462L82.0837 17.2537L82.0709 17.3562L82.0518 17.7727C82.0518 20.0599 83.4758 21.0144 84.2357 21.5462C84.7274 21.0849 85.3788 20.6749 86.094 20.3033C86.3494 20.1752 86.6048 20.047 86.8539 19.9189V21.0209L86.8411 21.3796L86.8284 21.5398L86.8092 21.7192L86.7837 21.905L86.7645 22.0395L86.7262 22.2253L86.6943 22.347L86.6496 22.5072L86.6112 22.6353L86.5665 22.7699L86.5027 22.9172L86.4644 23.0069L86.3558 23.2119C85.9471 23.9038 85.3149 24.269 84.5103 24.269C84.0314 24.269 83.5588 24.1729 83.2267 23.9871C83.463 23.7949 83.6993 23.5579 83.6993 23.3208C83.6993 22.7891 83.3225 22.4175 82.8947 22.4175C82.4157 22.4175 82.0837 22.8468 82.0837 23.3208C82.0837 23.891 82.8436 24.8969 84.5103 24.8969H84.8871C85.6789 24.8328 86.3303 24.5765 86.8667 24.2498L86.8986 24.2306L87.1157 24.0832L87.269 23.9807L87.3328 23.9231C88.1055 23.3337 88.5845 22.6225 88.8335 22.2702C88.0225 22.078 87.8373 21.3604 87.7862 19.8356L87.8054 19.8228Z" stroke="white" stroke-width="0.3" stroke-miterlimit="3.86"/>
<path fill-rule="evenodd" clip-rule="evenodd" d="M104.664 17.9131L104.517 18.1053C104.804 18.2462 105.092 18.2975 105.373 18.2975C106.414 18.2975 107.416 17.439 107.416 16.2474C107.416 15.0557 106.324 14.5304 105.085 13.6719C103.898 14.8187 102.084 15.7733 102.084 17.8234C102.084 20.354 104.223 21.1677 105.226 21.5521C105.749 21.0267 106.318 20.5462 107.033 20.2643L106.988 20.0721C105.417 20.0721 103.087 19.7838 103.087 17.6888C103.087 16.305 103.942 15.7348 104.753 15.1582C105.181 15.3504 106.088 15.8758 106.088 16.7343C106.088 17.7849 105.187 17.9259 104.664 17.9259V17.9131Z" fill="white"/>
<path d="M104.664 17.9131L104.517 18.1053C104.804 18.2462 105.092 18.2975 105.373 18.2975C106.414 18.2975 107.416 17.439 107.416 16.2474C107.416 15.0557 106.324 14.5304 105.085 13.6719C103.898 14.8187 102.084 15.7733 102.084 17.8234C102.084 20.354 104.223 21.1677 105.226 21.5521C105.749 21.0267 106.318 20.5462 107.033 20.2643L106.988 20.0721C105.417 20.0721 103.087 19.7838 103.087 17.6888C103.087 16.305 103.942 15.7348 104.753 15.1582C105.181 15.3504 106.088 15.8758 106.088 16.7343C106.088 17.7849 105.187 17.9259 104.664 17.9259V17.9131Z" stroke="white" stroke-width="0.3" stroke-miterlimit="3.86"/>
<path d="M104.664 17.9131L104.517 18.1053C104.804 18.2462 105.092 18.2975 105.373 18.2975C106.414 18.2975 107.416 17.439 107.416 16.2474C107.416 15.0557 106.324 14.5304 105.085 13.6719C103.898 14.8187 102.084 15.7733 102.084 17.8234C102.084 20.354 104.223 21.1677 105.226 21.5521C105.749 21.0267 106.318 20.5462 107.033 20.2643L106.988 20.0721C105.417 20.0721 103.087 19.7838 103.087 17.6888C103.087 16.305 103.942 15.7348 104.753 15.1582C105.181 15.3504 106.088 15.8758 106.088 16.7343C106.088 17.7849 105.187 17.9259 104.664 17.9259V17.9131Z" fill="white"/>
<path d="M104.664 17.9131L104.517 18.1053C104.804 18.2462 105.092 18.2975 105.373 18.2975C106.414 18.2975 107.416 17.439 107.416 16.2474C107.416 15.0557 106.324 14.5304 105.085 13.6719C103.898 14.8187 102.084 15.7733 102.084 17.8234C102.084 20.354 104.223 21.1677 105.226 21.5521C105.749 21.0267 106.318 20.5462 107.033 20.2643L106.988 20.0721C105.417 20.0721 103.087 19.7838 103.087 17.6888C103.087 16.305 103.942 15.7348 104.753 15.1582C105.181 15.3504 106.088 15.8758 106.088 16.7343C106.088 17.7849 105.187 17.9259 104.664 17.9259V17.9131Z" stroke="white" stroke-width="0.3" stroke-miterlimit="3.86"/>
<path fill-rule="evenodd" clip-rule="evenodd" d="M66.2022 15.6713C66.2022 15.146 66.8216 14.9538 67.5816 14.9538C68.2968 14.9538 69.1014 15.3317 69.6761 15.8635C70.0593 15.4791 70.436 15.146 70.8192 14.8128C69.8677 14.0504 68.9162 13.666 67.6773 13.666C65.9659 13.666 64.9634 14.768 64.9634 15.6265C64.9634 17.3434 69.6761 17.3434 69.6761 19.1117C69.6761 19.6819 69.2036 20.2585 68.1052 20.2585C67.2495 20.2585 66.3427 19.5409 65.7233 19.0156C65.3465 19.4448 64.8676 19.8741 64.395 20.2585C65.487 21.117 66.6812 21.5462 68.1052 21.5462C69.6761 21.5462 70.9597 20.4955 70.9597 19.1117C70.9597 16.8245 66.2022 16.9142 66.2022 15.6777V15.6713Z" fill="white"/>
<path d="M66.2022 15.6713C66.2022 15.146 66.8216 14.9538 67.5816 14.9538C68.2968 14.9538 69.1014 15.3317 69.6761 15.8635C70.0593 15.4791 70.436 15.146 70.8192 14.8128C69.8677 14.0504 68.9162 13.666 67.6773 13.666C65.9659 13.666 64.9634 14.768 64.9634 15.6265C64.9634 17.3434 69.6761 17.3434 69.6761 19.1117C69.6761 19.6819 69.2036 20.2585 68.1052 20.2585C67.2495 20.2585 66.3427 19.5409 65.7233 19.0156C65.3465 19.4448 64.8676 19.8741 64.395 20.2585C65.487 21.117 66.6812 21.5462 68.1052 21.5462C69.6761 21.5462 70.9597 20.4955 70.9597 19.1117C70.9597 16.8245 66.2022 16.9142 66.2022 15.6777V15.6713Z" stroke="white" stroke-width="0.3" stroke-miterlimit="3.86"/>
<path d="M66.2022 15.6713C66.2022 15.146 66.8216 14.9538 67.5816 14.9538C68.2968 14.9538 69.1014 15.3317 69.6761 15.8635C70.0593 15.4791 70.436 15.146 70.8192 14.8128C69.8677 14.0504 68.9162 13.666 67.6773 13.666C65.9659 13.666 64.9634 14.768 64.9634 15.6265C64.9634 17.3434 69.6761 17.3434 69.6761 19.1117C69.6761 19.6819 69.2036 20.2585 68.1052 20.2585C67.2495 20.2585 66.3427 19.5409 65.7233 19.0156C65.3465 19.4448 64.8676 19.8741 64.395 20.2585C65.487 21.117 66.6812 21.5462 68.1052 21.5462C69.6761 21.5462 70.9597 20.4955 70.9597 19.1117C70.9597 16.8245 66.2022 16.9142 66.2022 15.6777V15.6713Z" fill="white"/>
<path d="M66.2022 15.6713C66.2022 15.146 66.8216 14.9538 67.5816 14.9538C68.2968 14.9538 69.1014 15.3317 69.6761 15.8635C70.0593 15.4791 70.436 15.146 70.8192 14.8128C69.8677 14.0504 68.9162 13.666 67.6773 13.666C65.9659 13.666 64.9634 14.768 64.9634 15.6265C64.9634 17.3434 69.6761 17.3434 69.6761 19.1117C69.6761 19.6819 69.2036 20.2585 68.1052 20.2585C67.2495 20.2585 66.3427 19.5409 65.7233 19.0156C65.3465 19.4448 64.8676 19.8741 64.395 20.2585C65.487 21.117 66.6812 21.5462 68.1052 21.5462C69.6761 21.5462 70.9597 20.4955 70.9597 19.1117C70.9597 16.8245 66.2022 16.9142 66.2022 15.6777V15.6713Z" stroke="white" stroke-width="0.3" stroke-miterlimit="3.86"/>
<path fill-rule="evenodd" clip-rule="evenodd" d="M76.3874 11.9929C76.8664 11.9929 77.2431 11.6085 77.2431 11.128C77.2431 10.6475 76.86 10.2695 76.3874 10.2695C75.9149 10.2695 75.5317 10.6539 75.5317 11.128C75.5317 11.6021 75.9085 11.9929 76.3874 11.9929Z" fill="white"/>
<path d="M76.3874 11.9929C76.8664 11.9929 77.2431 11.6085 77.2431 11.128C77.2431 10.6475 76.86 10.2695 76.3874 10.2695C75.9149 10.2695 75.5317 10.6539 75.5317 11.128C75.5317 11.6021 75.9085 11.9929 76.3874 11.9929Z" stroke="white" stroke-width="0.3" stroke-miterlimit="3.86"/>
<path d="M76.3874 11.9929C76.8664 11.9929 77.2431 11.6085 77.2431 11.128C77.2431 10.6475 76.86 10.2695 76.3874 10.2695C75.9149 10.2695 75.5317 10.6539 75.5317 11.128C75.5317 11.6021 75.9085 11.9929 76.3874 11.9929Z" fill="white"/>
<path d="M76.3874 11.9929C76.8664 11.9929 77.2431 11.6085 77.2431 11.128C77.2431 10.6475 76.86 10.2695 76.3874 10.2695C75.9149 10.2695 75.5317 10.6539 75.5317 11.128C75.5317 11.6021 75.9085 11.9929 76.3874 11.9929Z" stroke="white" stroke-width="0.3" stroke-miterlimit="3.86"/>
<path fill-rule="evenodd" clip-rule="evenodd" d="M77.0072 17.6766C77.0072 16.0044 77.2946 14.9538 77.2946 14.4797C77.2946 14.3836 76.8156 13.9543 76.4389 13.666C76.0557 13.9992 75.4874 14.3836 74.8232 14.6206V14.8064C75.9152 15.0947 76.0621 15.3317 76.0621 17.6702C76.0621 19.4833 75.8258 20.3417 74.919 21.008V21.2002H78.2013V21.008C77.2499 20.3353 77.0072 19.4833 77.0072 17.6702V17.6766Z" fill="white"/>
<path d="M77.0072 17.6766C77.0072 16.0044 77.2946 14.9538 77.2946 14.4797C77.2946 14.3836 76.8156 13.9543 76.4389 13.666C76.0557 13.9992 75.4874 14.3836 74.8232 14.6206V14.8064C75.9152 15.0947 76.0621 15.3317 76.0621 17.6702C76.0621 19.4833 75.8258 20.3417 74.919 21.008V21.2002H78.2013V21.008C77.2499 20.3353 77.0072 19.4833 77.0072 17.6702V17.6766Z" stroke="white" stroke-width="0.3" stroke-miterlimit="3.86"/>
<path d="M77.0072 17.6766C77.0072 16.0044 77.2946 14.9538 77.2946 14.4797C77.2946 14.3836 76.8156 13.9543 76.4389 13.666C76.0557 13.9992 75.4874 14.3836 74.8232 14.6206V14.8064C75.9152 15.0947 76.0621 15.3317 76.0621 17.6702C76.0621 19.4833 75.8258 20.3417 74.919 21.008V21.2002H78.2013V21.008C77.2499 20.3353 77.0072 19.4833 77.0072 17.6702V17.6766Z" fill="white"/>
<path d="M77.0072 17.6766C77.0072 16.0044 77.2946 14.9538 77.2946 14.4797C77.2946 14.3836 76.8156 13.9543 76.4389 13.666C76.0557 13.9992 75.4874 14.3836 74.8232 14.6206V14.8064C75.9152 15.0947 76.0621 15.3317 76.0621 17.6702C76.0621 19.4833 75.8258 20.3417 74.919 21.008V21.2002H78.2013V21.008C77.2499 20.3353 77.0072 19.4833 77.0072 17.6702V17.6766Z" stroke="white" stroke-width="0.3" stroke-miterlimit="3.86"/>
<path d="M31.4313 41.0023V39.7018H35.1414V42.431C34.6178 43.2062 33.9409 43.7956 33.1107 44.1992C32.2742 44.6029 31.3035 44.8015 30.1988 44.8015C28.5385 44.8015 27.1847 44.353 26.131 43.4561C25.0773 42.5591 24.5537 41.4187 24.5537 40.0349C24.5537 38.6511 25.0837 37.5107 26.1438 36.6009C27.2038 35.6976 28.5576 35.2427 30.2052 35.2427C31.2461 35.2427 32.1656 35.4221 32.9702 35.7809C33.7749 36.1397 34.4454 36.6714 34.9754 37.3633L33.8898 38.1449C33.5066 37.6452 32.9958 37.2544 32.3444 36.9661C31.6931 36.6778 30.9779 36.5369 30.1988 36.5369C28.9663 36.5369 27.9574 36.8636 27.1719 37.5171C26.3864 38.177 25.9905 39.0034 25.9905 40.0029C25.9905 41.0023 26.3801 41.8352 27.1655 42.4887C27.9446 43.1421 28.9599 43.4689 30.1924 43.4689C30.9651 43.4689 31.6803 43.3279 32.338 43.046C32.9958 42.7641 33.4556 42.4054 33.711 41.9697V40.9959H31.4249L31.4313 41.0023ZM39.4646 44.5132V35.4798H40.8759V43.2126H47.5555V44.5132H39.4582H39.4646ZM53.9669 43.4753C55.1674 43.4753 56.1508 43.1485 56.9107 42.4951C57.6706 41.8416 58.0474 41.0087 58.0474 40.0029C58.0474 38.997 57.6642 38.1706 56.9043 37.5171C56.1444 36.8636 55.161 36.5369 53.9669 36.5369C52.7727 36.5369 51.7957 36.8636 51.0421 37.5171C50.2886 38.1706 49.9055 39.0034 49.9055 40.0093C49.9055 41.0151 50.2822 41.848 51.0421 42.5015C51.7957 43.1549 52.7727 43.4817 53.9669 43.4817V43.4753ZM53.9669 44.7951C52.364 44.7951 51.0485 44.3402 50.014 43.4304C48.9795 42.5207 48.4623 41.3803 48.4623 40.0029C48.4623 38.6254 48.9795 37.4787 50.0076 36.5817C51.0358 35.6848 52.3576 35.2363 53.9669 35.2363C55.5761 35.2363 56.9171 35.6848 57.9452 36.5817C58.9733 37.4787 59.4906 38.619 59.4906 40.0093C59.4906 41.3995 58.9733 42.5335 57.9388 43.4432C56.9043 44.353 55.5825 44.8015 53.9669 44.8015V44.7951ZM68.3924 36.7996H64.3183V38.9266H68.418C68.865 38.9266 69.2034 38.8369 69.4397 38.6575C69.6632 38.4781 69.7782 38.2154 69.7782 37.8566C69.7782 37.4979 69.6632 37.2416 69.4397 37.0622C69.2098 36.8828 68.865 36.7996 68.3988 36.7996H68.3924ZM68.865 40.2463H64.3119V43.2062H68.865C69.3567 43.2062 69.7398 43.0781 70.0081 42.8154C70.2763 42.5527 70.4167 42.1875 70.4167 41.7135C70.4167 41.2394 70.2826 40.8806 70.0081 40.6243C69.7398 40.3681 69.3567 40.2399 68.865 40.2399V40.2463ZM62.9006 44.5068V35.499H68.4371C69.3503 35.499 70.04 35.6848 70.5125 36.0628C70.9851 36.4408 71.215 36.9918 71.215 37.7285C71.215 38.1001 71.1447 38.4204 70.9979 38.7087C70.851 38.997 70.6339 39.2277 70.3529 39.4007C70.851 39.6825 71.2278 40.0221 71.4832 40.4321C71.7322 40.8357 71.86 41.2906 71.86 41.8031C71.86 42.6424 71.579 43.3023 71.0234 43.7828C70.4678 44.2697 69.6951 44.5068 68.7117 44.5068H62.907H62.9006ZM77.2624 41.0151H80.781L79.0312 37.5555L77.2624 41.0151ZM74.0056 44.5068L78.5842 35.4734H79.4719L84.0888 44.5068H82.5818L81.4131 42.2132H76.6621L75.4999 44.5068H74.012H74.0056ZM86.5218 44.5068V35.4734H87.9331V43.2062H94.6127V44.5068H86.5154H86.5218ZM110.622 40.9959V39.6954H114.332V42.4246C113.808 43.1998 113.132 43.7892 112.301 44.1928C111.465 44.5965 110.494 44.7951 109.389 44.7951C107.729 44.7951 106.375 44.3466 105.322 43.4497C104.268 42.5527 103.744 41.4123 103.744 40.0285C103.744 38.6447 104.274 37.5043 105.334 36.5945C106.395 35.6912 107.748 35.2363 109.396 35.2363C110.437 35.2363 111.356 35.4157 112.161 35.7745C112.966 36.1333 113.636 36.665 114.172 37.3569L113.087 38.1385C112.704 37.6388 112.193 37.248 111.542 36.9597C110.89 36.6714 110.175 36.5305 109.396 36.5305C108.163 36.5305 107.154 36.8572 106.369 37.5107C105.584 38.1706 105.188 38.997 105.188 39.9965C105.188 40.9959 105.577 41.8288 106.363 42.4823C107.142 43.1357 108.157 43.4625 109.396 43.4625C110.169 43.4625 110.884 43.3215 111.542 43.0396C112.199 42.7577 112.659 42.399 112.914 41.9633V40.9895H110.628L110.622 40.9959ZM119.447 39.2405H124.23C124.715 39.2405 125.086 39.1316 125.341 38.9202C125.597 38.7087 125.724 38.4012 125.724 38.0104C125.724 37.6196 125.597 37.3121 125.341 37.1071C125.086 36.9021 124.715 36.7931 124.23 36.7931H119.447V39.2405ZM119.447 40.5603V44.5068H118.036V35.499H124.237C125.156 35.499 125.878 35.7232 126.395 36.1653C126.919 36.6074 127.174 37.2224 127.174 38.0104C127.174 38.6511 126.97 39.2085 126.561 39.6761C126.152 40.1438 125.616 40.4321 124.952 40.541L127.449 44.5068H125.922L123.374 40.5603H119.454H119.447ZM131.267 44.5068V35.4542H132.698V44.5068H131.267ZM137.551 44.5068V35.4734H138.962V43.2062H145.642V44.5068H137.545H137.551ZM148.349 44.5068V35.4734H149.761V43.2062H156.44V44.5068H148.343H148.349Z" fill="#F39200" stroke="#F39200" stroke-width="0.5" stroke-miterlimit="3.86"/>
<path d="M24.5603 28.0938H156.44" stroke="#F39200" stroke-width="0.39" stroke-miterlimit="3.86"/>
</g>
<defs>
<clipPath id="clip0_1101_1353">
<rect width="181" height="57" fill="white"/>
</clipPath>
</defs>
</svg>
