<svg width="24" height="16" viewBox="0 0 24 16" fill="none" xmlns="http://www.w3.org/2000/svg">
<path d="M24 8.00001C24 8.19487 23.888 8.45361 23.7744 8.57916L17.3745 15.7372C17.0757 16.0623 16.5917 16.1 16.2433 15.77C15.9319 15.475 15.9241 14.8996 16.2121 14.5792L21.3495 8.84227H0.800003C0.358161 8.84227 0 8.46526 0 8.00017C0 7.53507 0.358161 7.15804 0.800003 7.15804H21.3495L16.2121 1.42111C15.9241 1.10077 15.9446 0.539522 16.2433 0.230345C16.5587 -0.0960541 17.0803 -0.0670013 17.3745 0.263187L23.7744 7.42114C23.9625 7.61529 23.9968 7.80229 24 8.00001Z" fill="black"/>
</svg>
