<svg width="155" height="72" viewBox="0 0 155 72" fill="none" xmlns="http://www.w3.org/2000/svg">
<g clip-path="url(#clip0_657_7932)">
<path d="M77.0089 17.56V34.9232C77.0089 35.0102 77.0808 35.0814 77.1686 35.0814H77.8312C77.919 35.0814 77.9909 35.0102 77.9909 34.9232V17.56C77.9909 17.56 77.9909 17.5125 78.0148 17.4888C78.3741 16.9983 79.6674 15.4005 81.4797 15.3767C82.6133 15.3609 83.2999 16.0175 83.6831 16.5633C84.242 17.378 84.3857 18.3194 84.2899 18.7544C84.2739 18.8177 84.3138 18.8731 84.3697 18.8968L84.9844 19.1421C85.1122 19.1895 85.192 19.1579 85.216 19.0867C85.4634 18.2719 85.1681 16.9904 84.4974 16.0175C84.3457 15.796 84.1701 15.5982 83.9865 15.4163C83.9306 15.3688 83.9386 15.2818 83.9865 15.2343C84.3138 14.9179 84.5932 14.4512 84.6252 13.7709C84.6252 13.6997 84.5693 13.6364 84.4974 13.6364H83.7789C83.7071 13.6364 83.6512 13.6918 83.6512 13.763C83.6113 14.3721 83.26 14.6252 83.0604 14.7202C83.0285 14.736 82.9886 14.736 82.9566 14.7202C82.5016 14.5145 81.9986 14.4038 81.4717 14.4117C80.0826 14.4275 78.9649 15.1394 78.2064 15.8276C78.1266 15.8988 77.9909 15.8434 77.9909 15.7327V12.7109H77.0089V15.7327C77.0089 15.8434 76.8732 15.9067 76.7933 15.8276C76.0349 15.1394 74.9252 14.4275 73.5281 14.4117C73.0012 14.4038 72.5062 14.5145 72.0431 14.7202C72.0112 14.736 71.9713 14.736 71.9473 14.7202C71.7478 14.6252 71.3965 14.3721 71.3566 13.763C71.3566 13.6918 71.3007 13.6364 71.2288 13.6364H70.5103C70.4385 13.6364 70.3746 13.6997 70.3826 13.7709C70.4145 14.4512 70.6939 14.9258 71.0213 15.2343C71.0771 15.2818 71.0771 15.3609 71.0213 15.4163C70.8376 15.5982 70.67 15.796 70.5103 16.0175C69.8397 16.9904 69.5443 18.2719 69.7918 19.0867C69.8157 19.1579 69.8956 19.1895 69.9674 19.1658L70.6381 18.8968C70.6939 18.8731 70.7339 18.8177 70.7179 18.7544C70.6141 18.3194 70.7578 17.378 71.3167 16.5633C71.6999 16.0175 72.3864 15.3609 73.5201 15.3767C75.3324 15.4005 76.6257 16.9983 76.9849 17.4888C77.0009 17.5125 77.0089 17.5363 77.0089 17.56Z" fill="#1D1D1B"/>
<path d="M80.5217 20.1382C80.8012 19.9562 81.0965 19.7585 81.4558 19.2838C82.1104 18.4216 82.3021 17.2271 82.31 17.1718L82.3819 16.7051C82.3979 16.618 82.318 16.5389 82.2302 16.5548L81.7592 16.626C79.9469 16.8949 78.9889 18.303 78.949 18.3662L78.8691 18.4849V21.3563C78.8691 21.475 79.0208 21.5383 79.1007 21.4513L79.7074 20.8105C80.0507 20.4467 80.2902 20.2884 80.5217 20.1382ZM79.8431 18.8409C79.8431 18.8409 79.8511 18.7855 79.8751 18.7538C80.0667 18.5244 80.4898 18.0815 81.1444 17.7967C81.0407 18.0894 80.889 18.4295 80.6814 18.6985C80.4259 19.0386 80.2423 19.1573 79.9868 19.3234C79.9389 19.355 79.891 19.3867 79.8431 19.4183V18.8329V18.8409Z" fill="#1D1D1B"/>
<path d="M82.5334 23.7146C82.7888 23.6592 83.0204 23.6117 83.2279 23.5247C84.0502 23.1688 84.5452 22.702 84.6889 22.1483C84.8167 21.6895 84.6889 21.2149 84.3376 20.7324C83.8906 20.1312 83.3557 19.9888 82.9964 19.9809C81.9186 19.9572 80.9047 20.9618 80.4018 21.563C79.6513 22.4647 79.5795 24.0231 79.5875 25.1147V25.2254C79.5875 25.9848 80.0425 26.7996 81.3119 26.7996C81.8468 26.7996 82.1661 26.5781 82.3418 26.3883C82.7809 25.9216 82.7409 25.265 82.733 25.1938L81.759 25.265C81.759 25.3125 81.759 25.5972 81.6232 25.7317C81.5993 25.7554 81.5274 25.8345 81.3039 25.8345C80.785 25.8345 80.5535 25.6447 80.5535 25.2254V25.0989C80.5535 25.0277 80.5535 24.9486 80.5535 24.8774C81.1283 23.9993 81.8628 23.8411 82.5174 23.7067M81.1363 22.172C81.7749 21.4047 82.4615 20.938 82.9325 20.938H82.9485C83.0842 20.938 83.2998 20.9855 83.5313 21.3019C83.7069 21.5313 83.7708 21.7291 83.7229 21.8952C83.683 22.0376 83.5153 22.3223 82.8128 22.6308C82.701 22.6783 82.5094 22.7179 82.3098 22.7653C81.8468 22.8602 81.248 22.9868 80.6572 23.3823C80.753 22.8365 80.9127 22.441 81.1283 22.18" fill="#1D1D1B"/>
<path d="M86.988 23.7149C86.996 23.62 86.8763 23.5805 86.8284 23.6517L85.8943 25.0281C85.1199 26.1672 84.561 26.4203 83.3396 26.9819C83.0442 27.1164 82.7169 27.2667 82.3496 27.4486C80.3537 28.4216 79.3398 29.7743 79.2999 29.8376L79.2041 29.9641V32.9068C79.2041 32.9859 79.2999 33.0254 79.3558 32.9701L80.0504 32.2344C81.2638 30.945 82.3736 30.415 83.4513 29.8929C83.9543 29.6556 84.4253 29.4262 84.8724 29.1335C86.4132 28.1447 86.7725 25.471 86.7884 25.3524L86.996 23.707L86.988 23.7149ZM85.1598 27.3379C84.9443 27.7492 84.6728 28.121 84.3295 28.3346C83.9303 28.5956 83.4833 28.8092 83.0122 29.0307C82.142 29.45 81.184 29.9088 80.1701 30.771V30.328C80.1701 30.328 80.1701 30.2884 80.1941 30.2726C80.4894 29.9246 81.3676 29.0149 82.7807 28.3188C83.14 28.1447 83.4593 27.9944 83.7547 27.86C84.2497 27.6306 84.6648 27.4407 85.048 27.2113C85.1279 27.1639 85.2157 27.2509 85.1758 27.33" fill="#1D1D1B"/>
<path d="M86.8524 21.7292C86.8364 22.0614 87.2276 22.449 87.2276 22.449C87.8823 23.248 88.8802 22.6151 89.2714 22.3145C89.3432 22.2592 89.3273 22.1563 89.2474 22.1168C88.9441 21.9586 88.7604 21.5156 88.5209 21.2941C88.2255 21.0251 87.6827 21.1675 87.4671 21.1359C87.2915 21.1122 86.2776 19.9889 85.9183 19.5776C85.8624 19.5143 85.7506 19.5301 85.7267 19.6171L85.5111 20.1867C85.4952 20.2341 85.5111 20.2816 85.5431 20.3132C85.8145 20.5347 86.8604 21.4365 86.8524 21.7292Z" fill="#1D1D1B"/>
<path d="M89.9742 18.2558C90.102 17.9631 90.1818 17.623 90.1579 17.267C90.1339 16.9664 90.0221 16.6579 89.8545 16.4048C89.8066 16.3336 89.7028 16.3178 89.6309 16.3731L88.7288 17.0693C88.8007 17.1721 88.8326 17.2591 88.8486 17.3778C88.8645 17.4885 88.8486 17.623 88.7927 17.7654C88.6969 18.0501 88.4494 18.3428 88.1939 18.4773C87.9624 18.6039 87.6031 18.6197 87.2119 18.4931C87.0203 18.4298 86.8207 18.3507 86.6291 18.2479C86.5333 18.2004 86.4375 18.1451 86.3417 18.0818L86.198 17.9869L86.1342 17.9394C86.1342 17.9394 86.1262 17.9157 86.0863 17.9315C86.0543 17.9473 85.9825 18.0106 85.8547 18.1134C85.751 18.24 85.7031 18.3191 85.6871 18.3586C85.6711 18.3982 85.7031 18.3903 85.7031 18.4061L85.7669 18.4773C85.9186 18.6355 86.1821 18.8728 86.3577 19.0073C86.5094 19.118 86.6611 19.2288 86.8367 19.3158C87.0762 19.4424 87.3477 19.5452 87.651 19.6006C87.9544 19.6559 88.3057 19.6322 88.617 19.5215C89.2398 19.2921 89.6868 18.8412 89.9583 18.2637" fill="#1D1D1B"/>
<path d="M80.1541 12.695L79.731 13.494C79.6751 13.5968 79.7789 13.7076 79.8827 13.668L80.7449 13.3753C80.9445 13.3041 81.176 13.2487 81.4395 13.1934C82.5572 12.9323 84.09 12.5685 85.9023 10.4643C87.2674 8.88224 86.6767 6.60406 86.6447 6.50913L86.3733 5.4887C86.3413 5.37004 86.1817 5.36213 86.1338 5.47288L85.7266 6.44585C85.2476 7.59285 84.0581 8.85851 82.1979 10.2112C81.0163 11.0655 80.1861 12.6317 80.1541 12.695ZM82.7727 10.9943C84.1139 10.0213 85.1119 9.10373 85.8065 8.20195C85.7586 8.73985 85.5829 9.34104 85.1598 9.83148C83.9543 11.2316 82.9244 11.7537 82.0382 12.0306C81.9185 12.0701 81.8227 11.9277 81.9025 11.8328C82.158 11.5243 82.4454 11.2237 82.7647 10.9943" fill="#1D1D1B"/>
<path d="M89.7027 14.1749C89.3275 14.6574 89.4153 15.5117 89.7027 15.6146C90.2536 15.8123 90.509 15.1637 90.5889 14.602C90.6447 14.2223 90.8364 13.9059 90.9561 13.7477C91.004 13.6844 90.9801 13.5816 90.9002 13.5579C90.541 13.4471 90.03 13.7556 89.7027 14.1749Z" fill="#1D1D1B"/>
<path d="M89.447 13.5334C89.447 13.5334 90.3811 13.0983 90.2134 12.5209C90.0458 11.9513 89.7184 11.5875 89.5029 11.6191C89.2953 11.6428 88.6726 12.1333 88.6087 12.3943C88.5289 12.7107 88.6087 13.2486 88.6087 13.2486C88.6087 13.2486 89.0558 13.2091 89.439 13.5413" fill="#1D1D1B"/>
<path d="M86.2618 13.0662C86.3177 13.2165 86.613 13.438 87.0681 13.8256C87.3236 13.3747 88.106 13.0504 88.106 13.0504V12.5758C88.106 12.3701 88.0341 12.1644 87.8984 12.0062C87.7068 11.7926 87.4912 11.6423 87.3795 11.6344C87.1639 11.6186 86.9643 11.4683 86.4534 11.7768C85.9424 12.0853 86.2139 12.9238 86.2618 13.0662Z" fill="#1D1D1B"/>
<path d="M85.7506 13.9219C85.4393 13.9377 85.2397 14.444 85.1997 14.8948C85.1598 15.3457 85.9262 15.8204 86.1418 15.7887C86.3574 15.765 86.9162 15.1005 86.9162 15.1005V14.2066C86.6048 13.9377 86.054 13.914 85.7506 13.9298" fill="#1D1D1B"/>
<path d="M86.7168 16.3664C87.0362 16.5009 87.5631 16.58 87.7946 16.5563C88.1059 16.5326 89.0081 16.3744 88.9921 15.7811C88.9921 15.5517 88.3614 15.2194 87.8265 15.3697C87.3874 15.4884 86.9244 15.7415 86.6529 16.0184C86.5492 16.1291 86.5891 16.3032 86.7248 16.3664" fill="#1D1D1B"/>
<path d="M87.3075 14.4364C87.2276 14.7132 87.5071 15.1087 87.6827 14.9901C87.8583 14.8714 88.3693 14.9505 88.5769 14.9901C88.7844 15.0296 88.992 14.7132 89.0559 14.4364C89.1197 14.1674 89.0239 13.7798 88.7206 13.6374C87.9302 13.2656 87.3873 14.1674 87.3075 14.4364Z" fill="#1D1D1B"/>
<path d="M80.2663 10.647C81.0008 9.80056 80.1705 8.9146 79.7155 8.41625C79.6356 8.32924 79.5079 8.2976 79.3961 8.33715C79.1885 8.41625 78.8532 8.53491 78.5658 8.59819C78.3982 8.63774 78.3024 8.81177 78.3583 8.96998C78.6297 9.7531 79.3961 11.6437 80.2663 10.6391" fill="#1D1D1B"/>
<path d="M81.3038 9.11948C81.7668 9.15903 82.5971 9.11948 82.5252 8.26516C82.4694 7.56114 81.9265 7.29219 81.7349 7.221C81.695 7.20518 81.655 7.19727 81.6071 7.19727H80.7609C80.6411 7.19727 80.5214 7.26055 80.4575 7.35547L80.226 7.69562C80.1382 7.82218 80.1462 7.9883 80.226 8.11487C80.4735 8.45501 80.9685 9.08784 81.3118 9.11157" fill="#1D1D1B"/>
<path d="M80.2424 5.87633C80.1386 5.99499 80.1386 6.18484 80.2504 6.29558C80.5538 6.58035 81.1206 6.83348 81.5038 6.77811C81.9908 6.70692 83.2442 6.03454 82.8131 5.28306C82.382 4.53948 81.5756 4.71351 81.1525 4.99828C80.8651 5.19604 80.458 5.6232 80.2424 5.87633Z" fill="#1D1D1B"/>
<path d="M78.9088 5.8364C79.1722 5.78893 79.6672 5.54371 79.755 5.48834C79.9307 5.3776 80.9845 4.68148 80.9845 3.75597C80.9845 2.83046 79.8029 2.90166 79.8029 2.90166C79.7311 3.89836 78.9327 4.8476 78.5655 5.36178C78.4617 5.49625 78.7491 5.86013 78.9168 5.82849" fill="#1D1D1B"/>
<path d="M79.38 7.86275C79.6594 7.5226 80.3221 6.94515 79.3401 6.32814C79.2283 6.25695 79.0926 6.23321 78.9649 6.25695C78.6216 6.32023 78.2304 6.43097 78.0468 6.61291C77.5678 7.07962 77.5917 7.83902 77.8552 8.02095C78.1266 8.2108 79.0846 8.21871 79.38 7.86275Z" fill="#1D1D1B"/>
<path d="M73.2488 16.626L72.7778 16.5548C72.6899 16.5389 72.6101 16.618 72.6261 16.7051L72.6979 17.1718C72.6979 17.2192 72.8975 18.4137 73.5522 19.2838C73.9114 19.7585 74.2068 19.9483 74.4862 20.1382C74.7178 20.2884 74.9573 20.4467 75.3006 20.8105L75.9073 21.4513C75.9871 21.5383 76.1388 21.4829 76.1388 21.3563V18.4849L76.059 18.3662C76.0191 18.303 75.061 16.8949 73.2488 16.626ZM75.1568 19.4262C75.1089 19.3946 75.061 19.3629 75.0131 19.3313C74.7577 19.1652 74.582 19.0465 74.3186 18.7064C74.111 18.4295 73.9593 18.0973 73.8555 17.8046C74.5102 18.0894 74.9333 18.5324 75.1249 18.7618C75.1489 18.7855 75.1568 18.8171 75.1568 18.8409V19.4262Z" fill="#1D1D1B"/>
<path d="M72.2585 25.1941C72.2585 25.2653 72.2186 25.9298 72.6497 26.3886C72.8253 26.5784 73.1526 26.7999 73.6795 26.7999C74.9489 26.7999 75.404 25.9851 75.404 25.2258V25.115C75.412 24.0234 75.3401 22.465 74.5897 21.5633C74.0867 20.9621 73.0648 19.9496 71.995 19.9812C71.6278 19.9891 71.1009 20.1315 70.6538 20.7327C70.2945 21.2152 70.1748 21.6898 70.3025 22.1486C70.4542 22.7024 70.9412 23.1612 71.7635 23.525C71.9711 23.612 72.2106 23.6674 72.4581 23.7149C73.1127 23.8494 73.8552 24.0076 74.422 24.8856C74.422 24.9568 74.422 25.028 74.422 25.1071V25.2337C74.422 25.6529 74.1905 25.8428 73.6716 25.8428C73.448 25.8428 73.3762 25.7637 73.3522 25.7399C73.2245 25.5975 73.2165 25.3207 73.2165 25.2732L72.2425 25.202L72.2585 25.1941ZM72.6656 22.7656C72.466 22.7261 72.2744 22.6865 72.1627 22.6312C71.4601 22.3227 71.2925 22.0379 71.2526 21.8955C71.2126 21.7373 71.2765 21.5316 71.4442 21.3022C71.6757 20.9858 71.8912 20.9463 72.027 20.9463H72.0429C72.5139 20.9463 73.2005 21.413 73.8392 22.1803C74.0548 22.4413 74.2144 22.8447 74.3102 23.3826C73.7274 22.9871 73.1207 22.8606 72.6577 22.7656" fill="#1D1D1B"/>
<path d="M72.6579 27.456C72.2907 27.2741 71.9634 27.1238 71.668 26.9893C70.4385 26.4277 69.8797 26.1746 69.1133 25.0355L68.1792 23.6591C68.1233 23.58 68.0036 23.6274 68.0195 23.7224L68.2271 25.3677C68.2431 25.4785 68.5943 28.1601 70.1431 29.1489C70.5982 29.4415 71.0692 29.663 71.5722 29.9083C72.65 30.4224 73.7597 30.9524 74.9732 32.2497L75.6677 32.9854C75.7236 33.0487 75.8194 33.0091 75.8194 32.9221V29.9794L75.7236 29.8529C75.6837 29.7975 74.6618 28.4448 72.6659 27.464M74.8374 30.7863C73.8156 29.9162 72.8575 29.4574 71.9953 29.046C71.5243 28.8166 71.0772 28.603 70.678 28.3499C70.3427 28.1363 70.0633 27.7646 69.8477 27.3532C69.8078 27.2741 69.8956 27.1871 69.9755 27.2346C70.3587 27.464 70.7738 27.6538 71.2688 27.8832C71.5562 28.0177 71.8756 28.1601 72.2428 28.342C73.6559 29.0302 74.5261 29.9478 74.8295 30.2959C74.8454 30.3117 74.8534 30.3275 74.8534 30.3512V30.7942L74.8374 30.7863Z" fill="#1D1D1B"/>
<path d="M69.0811 19.5772C68.7218 19.9807 67.7079 21.1118 67.5323 21.1356C67.3167 21.1593 66.7739 21.0248 66.4785 21.2938C66.231 21.5153 66.0474 21.9582 65.752 22.1165C65.6721 22.156 65.6562 22.2588 65.728 22.3142C66.1192 22.6227 67.1171 23.2476 67.7718 22.4487C67.7718 22.4487 68.163 22.0611 68.147 21.7288C68.139 21.4362 69.1849 20.5423 69.4563 20.3129C69.4962 20.2813 69.5042 20.2338 69.4883 20.1863L69.2727 19.6168C69.2408 19.5377 69.137 19.5139 69.0811 19.5772Z" fill="#1D1D1B"/>
<path d="M66.375 19.5135C66.6944 19.6322 67.0457 19.648 67.3411 19.5927C67.6444 19.5452 67.9159 19.4344 68.1554 19.3079C68.331 19.213 68.4827 19.1101 68.6344 18.9994C68.81 18.8649 69.0735 18.6276 69.2252 18.4694L69.289 18.3982C69.289 18.3982 69.321 18.3824 69.305 18.3507C69.289 18.3112 69.2411 18.2321 69.1373 18.1055C69.0096 18.0027 68.9378 17.9394 68.9058 17.9236C68.8739 17.9077 68.8739 17.9236 68.8579 17.9315L68.7941 17.9789L68.6503 18.0739C68.5545 18.1292 68.4587 18.1846 68.3629 18.24C68.1713 18.3428 67.9718 18.4219 67.7801 18.4852C67.389 18.6197 67.0297 18.6039 66.7982 18.4773C66.5427 18.3349 66.2952 18.0501 66.1994 17.7654C66.1435 17.623 66.1276 17.4885 66.1435 17.3778C66.1595 17.267 66.1914 17.1721 66.2633 17.0693L65.3611 16.3731C65.2893 16.3178 65.1855 16.3336 65.1376 16.4048C64.9699 16.6579 64.8582 16.9585 64.8342 17.267C64.8023 17.623 64.8901 17.9631 65.0179 18.2558C65.2893 18.8333 65.7444 19.2841 66.3591 19.5135" fill="#1D1D1B"/>
<path d="M73.5521 13.1856C73.8156 13.2488 74.0471 13.3042 74.2467 13.3675L75.1089 13.6602C75.2207 13.6997 75.3165 13.589 75.2606 13.4862L74.8455 12.6872C74.8135 12.6239 73.9832 11.0577 72.8017 10.2034C70.9415 8.85069 69.752 7.58504 69.273 6.43804L68.8658 5.46506C68.8179 5.35432 68.6582 5.36223 68.6263 5.48088L68.3549 6.50132C68.3309 6.59624 67.7401 8.87442 69.0973 10.4565C70.9096 12.5606 72.4424 12.9166 73.5601 13.1856M72.2269 10.9865C72.5462 11.2159 72.8416 11.5244 73.0891 11.825C73.1689 11.9199 73.0731 12.0623 72.9534 12.0227C72.0752 11.7459 71.0373 11.2238 69.8318 9.82367C69.4087 9.33322 69.241 8.73204 69.1851 8.19413C69.8717 9.088 70.8776 10.0135 72.2189 10.9865" fill="#1D1D1B"/>
<path d="M65.297 15.6146C65.5844 15.5117 65.6723 14.6574 65.297 14.1749C64.9697 13.7556 64.4588 13.4471 64.0995 13.5579C64.0197 13.5816 63.9957 13.6844 64.0436 13.7477C64.1634 13.9059 64.355 14.2223 64.4109 14.602C64.4907 15.1637 64.7462 15.8123 65.297 15.6146Z" fill="#1D1D1B"/>
<path d="M65.5525 13.5347C65.9437 13.2024 66.3828 13.242 66.3828 13.242C66.3828 13.242 66.4626 12.712 66.3828 12.3877C66.3189 12.1266 65.6962 11.6441 65.4886 11.6124C65.281 11.5887 64.9457 11.9447 64.7781 12.5142C64.6104 13.0838 65.5126 13.5505 65.5445 13.5268" fill="#1D1D1B"/>
<path d="M67.9314 13.8256C68.3865 13.438 68.6819 13.2165 68.7377 13.0662C68.7936 12.9159 69.0571 12.0774 68.5461 11.7768C68.0352 11.4683 67.8356 11.6186 67.6201 11.6344C67.5083 11.6423 67.2927 11.7926 67.1011 12.0062C66.9654 12.1644 66.8936 12.3701 66.8936 12.5758V13.0504C66.8936 13.0504 67.6759 13.3668 67.9314 13.8256Z" fill="#1D1D1B"/>
<path d="M69.7996 14.8865C69.7597 14.4356 69.5601 13.9293 69.2488 13.9135C68.9374 13.8977 68.3866 13.9293 68.0752 14.1904V15.0843C68.0752 15.0843 68.634 15.7487 68.8496 15.7804C69.0652 15.8041 69.8316 15.3374 69.7917 14.8865" fill="#1D1D1B"/>
<path d="M66.0153 15.7889C65.9994 16.3743 66.9015 16.5325 67.2129 16.5641C67.4444 16.5799 67.9713 16.5087 68.2906 16.3743C68.4264 16.3189 68.4743 16.1369 68.3625 16.0262C68.0911 15.7493 67.628 15.4962 67.1889 15.3776C66.654 15.2273 66.0233 15.5595 66.0233 15.7889" fill="#1D1D1B"/>
<path d="M65.9437 14.435C66.0076 14.7039 66.2152 15.0282 66.4227 14.9887C66.6303 14.9491 67.1412 14.8779 67.3169 14.9887C67.4925 15.1073 67.7719 14.7118 67.6921 14.435C67.6123 14.1581 67.0774 13.2642 66.279 13.636C65.9757 13.7784 65.8719 14.166 65.9437 14.435Z" fill="#1D1D1B"/>
<path d="M77.5036 11.8888C77.5036 11.8888 78.7251 11.9125 78.4057 10.5757C78.1662 9.58688 77.7671 9.09644 77.5914 8.9145C77.5435 8.86704 77.4637 8.86704 77.4158 8.9145C77.2402 9.08853 76.841 9.57897 76.6015 10.5757C76.2821 11.9125 77.4797 11.8888 77.5036 11.8888Z" fill="#1D1D1B"/>
<path d="M76.6416 8.97779C76.6974 8.81958 76.6016 8.64555 76.434 8.606C76.1466 8.53481 75.8033 8.41615 75.6037 8.34496C75.4919 8.30541 75.3642 8.33705 75.2844 8.42406C74.8293 8.93033 73.999 9.80838 74.7335 10.6548C75.5957 11.6515 76.3701 9.76091 76.6416 8.9857" fill="#1D1D1B"/>
<path d="M74.7895 7.70343L74.558 7.36329C74.4861 7.26045 74.3744 7.20508 74.2546 7.20508H73.4084C73.3605 7.20508 73.3205 7.20508 73.2806 7.22881C73.089 7.3 72.5461 7.56895 72.4903 8.27298C72.4184 9.12729 73.2407 9.15893 73.7117 9.12729C74.055 9.10356 74.55 8.47073 74.7975 8.13059C74.8853 8.00402 74.8853 7.83791 74.7975 7.71134" fill="#1D1D1B"/>
<path d="M73.4962 6.77811C73.8794 6.83348 74.4463 6.58035 74.7496 6.29558C74.8694 6.18484 74.8694 5.99499 74.7576 5.87633C74.5341 5.6232 74.1349 5.19604 73.8475 4.99828C73.4244 4.71351 72.618 4.53948 72.1869 5.28306C71.7558 6.02663 73.0092 6.70692 73.4962 6.77811Z" fill="#1D1D1B"/>
<path d="M75.2444 5.48824C75.3402 5.54362 75.8272 5.78884 76.0907 5.8363C76.2583 5.86794 76.5378 5.51197 76.442 5.36959C76.0667 4.85541 75.2764 3.90617 75.2045 2.90947C75.2045 2.90947 74.0229 2.83828 74.0229 3.76379C74.0229 4.6893 75.0688 5.38541 75.2444 5.49615" fill="#1D1D1B"/>
<path d="M77.1447 8.02877C77.4161 7.83892 77.4321 7.08743 76.9611 6.62072C76.7774 6.4467 76.3863 6.32804 76.043 6.26476C75.9152 6.24103 75.7795 6.26476 75.6677 6.33595C74.6858 6.95296 75.3484 7.53041 75.6278 7.87056C75.9232 8.22653 76.8812 8.21861 77.1527 8.02877" fill="#1D1D1B"/>
<path d="M77.025 5.11713C77.0969 5.28325 77.2565 5.44146 77.3763 5.54429C77.4162 5.58384 77.4721 5.59175 77.52 5.58384C77.5759 5.58384 77.6238 5.58384 77.6717 5.54429C77.7914 5.44146 77.9511 5.28325 78.023 5.11713C78.1826 4.72952 79.1327 4.0255 79.3562 2.21403C79.4041 1.83434 79.5877 1.52583 79.5957 1.32016C79.6436 0.481667 78.7734 1.30434 78.6537 1.25688C78.5339 1.20151 78.2705 0.924647 78.015 0.473757C77.9272 0.31555 77.8314 0.188984 77.7595 0.10197C77.6956 0.030777 77.6078 -0.000864422 77.52 0.00704593C77.4322 0.00704593 77.3444 0.030777 77.2805 0.10197C77.2007 0.188984 77.1128 0.31555 77.025 0.473757C76.7696 0.924647 76.5141 1.20942 76.3863 1.25688C76.2666 1.31225 75.3964 0.481667 75.4443 1.32016C75.4603 1.52583 75.6359 1.83434 75.6838 2.21403C75.9073 4.0255 76.8574 4.73743 77.017 5.11713M77.4162 1.89762C77.4162 1.89762 77.4641 1.88971 77.4881 1.88971C77.4881 1.88971 77.504 1.88971 77.512 1.88971C77.512 1.88971 77.528 1.88971 77.536 1.88971C77.5599 1.88971 77.5839 1.88971 77.6078 1.89762C77.8074 1.9609 78.3184 2.18239 78.2305 2.6491C78.1587 3.0288 77.8713 3.37686 77.6877 3.5667C77.6477 3.61417 77.5839 3.62999 77.528 3.62999C77.528 3.62999 77.512 3.62999 77.504 3.62999C77.504 3.62999 77.4881 3.62999 77.4801 3.62999C77.4242 3.62999 77.3683 3.60626 77.3204 3.5667C77.1368 3.37686 76.8494 3.0288 76.7775 2.6491C76.6897 2.18239 77.2086 1.96881 77.4002 1.89762" fill="#1D1D1B"/>
<path d="M12.5419 40.4619H11.1368C10.9213 40.4619 10.7616 40.6201 10.7776 40.7942L10.8814 41.6959C10.892 41.8278 10.8734 41.8357 10.8255 41.7197C10.586 41.2292 9.75569 40.2246 6.83372 40.2246C3.12138 40.2246 0.0078125 43.3729 0.0078125 47.3597C0.0078125 51.6234 3.34492 54.5186 7.84763 54.5186C9.97124 54.5186 11.4961 53.8937 12.1507 53.5535C12.3902 53.4349 12.4701 53.2213 12.3663 52.9445L11.8873 51.6709C11.7835 51.3782 11.6478 51.3782 11.3524 51.4969C10.7217 51.75 9.44433 52.2246 7.48039 52.2246C4.95759 52.2246 2.65834 50.1837 2.65834 47.4072C2.65834 44.6307 4.38278 42.5344 7.24088 42.5344C8.96532 42.5344 10.4582 43.4204 10.7137 44.8363C10.7297 44.9313 10.8095 45.1528 11.0889 45.1528H12.6377C12.8373 45.1528 12.973 44.9946 12.973 44.781L12.9571 40.8653C12.9571 40.628 12.8533 40.4698 12.5419 40.4698" fill="#1D1D1B"/>
<path d="M32.1655 40.4629H27.5032C27.2637 40.4629 27.088 40.5578 27.088 40.8347V42.306C27.088 42.6224 27.2637 42.7015 27.5431 42.7015H28.2217C28.4213 42.7015 28.6209 42.836 28.6209 43.097V46.364C28.6209 46.6171 28.4372 46.6804 28.2616 46.6804H22.1702C21.9945 46.6804 21.8109 46.6251 21.8109 46.364V43.097C21.8109 42.8439 22.0105 42.7015 22.2101 42.7015H22.8887C23.1681 42.7015 23.3438 42.6224 23.3438 42.306V40.8347C23.3438 40.5578 23.1681 40.4629 22.9286 40.4629H18.2662C17.907 40.4629 17.8271 40.5974 17.8271 40.8742V42.2902C17.8271 42.5433 17.9868 42.7015 18.2662 42.7015H18.9608C19.2003 42.7015 19.36 42.7964 19.36 43.1129V51.6244C19.36 51.838 19.2801 52.0357 19.0007 52.0357H18.1864C17.9309 52.0357 17.8271 52.1702 17.8271 52.368V53.9579C17.8271 54.1557 17.9868 54.2744 18.1864 54.2744H22.8727C23.1282 54.2744 23.3278 54.1162 23.3278 53.9026V52.3917C23.3278 52.1781 23.208 52.0357 22.9526 52.0357H22.258C21.9786 52.0357 21.8189 51.9171 21.8189 51.6402V49.1643C21.8189 48.9507 21.9387 48.832 22.1782 48.832H28.2696C28.5091 48.832 28.6288 48.9507 28.6288 49.1643V51.6402C28.6288 51.9171 28.4692 52.0357 28.1898 52.0357H27.4792C27.2237 52.0357 27.104 52.1702 27.104 52.3917V53.9026C27.104 54.1162 27.3036 54.2744 27.5591 54.2744H32.2374C32.437 54.2744 32.5967 54.1557 32.5967 53.9579V52.368C32.5967 52.1702 32.5009 52.0357 32.2374 52.0357H31.447C31.1676 52.0357 31.0878 51.838 31.0878 51.6244V43.1129C31.0878 42.7964 31.2474 42.7015 31.4869 42.7015H32.1815C32.4609 42.7015 32.6206 42.5433 32.6206 42.2902V40.8742C32.6206 40.5974 32.5408 40.4629 32.1815 40.4629" fill="#1D1D1B"/>
<path d="M70.6621 40.4629H65.9997C65.6404 40.4629 65.5606 40.5974 65.5606 40.8742V42.2902C65.5606 42.5433 65.7203 42.7015 65.9997 42.7015H66.6783C66.9976 42.7015 67.0934 42.7964 67.0934 43.1129V48.5394C67.0934 51.1972 65.8001 52.2968 63.7004 52.2968C61.6008 52.2968 60.3873 51.1972 60.3873 48.5631V43.1208C60.3873 42.8439 60.4911 42.7094 60.8024 42.7094H61.473C61.7524 42.7094 61.9121 42.5512 61.9121 42.2981V40.8821C61.9121 40.6053 61.8323 40.4708 61.473 40.4708H56.8107C56.5711 40.4708 56.3955 40.5657 56.3955 40.8426V42.3139C56.3955 42.6303 56.5711 42.7094 56.8506 42.7094H57.4653C57.8006 42.7094 57.9204 42.8439 57.9204 43.1049V48.571C57.9204 52.7002 60.2036 54.5512 63.6924 54.5512C67.1812 54.5512 69.5444 52.7002 69.5444 48.571V43.1682C69.5444 42.836 69.6641 42.7173 69.9196 42.7173H70.6142C70.8936 42.7173 71.0692 42.6382 71.0692 42.3218V40.8505C71.0692 40.5736 70.8936 40.4787 70.6541 40.4787" fill="#1D1D1B"/>
<path d="M125.964 40.4629H121.302C120.942 40.4629 120.862 40.5974 120.862 40.8742V42.2902C120.862 42.5433 121.022 42.7015 121.302 42.7015H121.98C122.26 42.7015 122.395 42.8202 122.395 43.097V49.3304C122.395 49.544 122.276 49.544 122.1 49.3304L114.675 40.7398C114.5 40.5262 114.276 40.4629 114.045 40.4629H111.905C111.546 40.4629 111.466 40.5974 111.466 40.8742V42.2902C111.466 42.5433 111.625 42.7015 111.905 42.7015H112.719C112.855 42.7015 112.999 42.7806 112.999 42.9388V51.8459C112.999 51.9645 112.959 52.0436 112.799 52.0436H111.825C111.57 52.0436 111.466 52.1781 111.466 52.3759V53.9659C111.466 54.1636 111.626 54.2823 111.825 54.2823H116.527C116.783 54.2823 116.982 54.1241 116.982 53.9105V52.3996C116.982 52.186 116.863 52.0436 116.607 52.0436H115.657C115.497 52.0436 115.458 51.9645 115.458 51.8301V45.66C115.458 45.3831 115.553 45.3436 115.697 45.5018L122.818 54.037C122.914 54.1715 123.138 54.2902 123.353 54.2902H124.447C124.766 54.2902 124.862 54.132 124.862 53.8947V43.0812C124.862 42.7885 125.038 42.7094 125.237 42.7094H125.932C126.211 42.7094 126.387 42.6303 126.387 42.3139V40.8426C126.387 40.5657 126.211 40.4708 125.972 40.4708" fill="#1D1D1B"/>
<path d="M143.743 47.0275H138.21C137.931 47.0275 137.795 47.1857 137.795 47.3597V48.8548C137.795 49.1317 138.011 49.2108 138.21 49.2108H141.484C141.619 49.2108 141.683 49.3136 141.683 49.4243V51.4889C141.683 51.6234 141.627 51.6867 141.524 51.7263C140.773 51.9794 139.719 52.2167 138.506 52.2167C135.608 52.2167 133.468 50.1758 133.468 47.3993C133.468 44.6228 135.193 42.5265 138.051 42.5265C140.055 42.5265 141.244 43.5311 141.524 44.7493C141.564 44.9234 141.683 45.1448 142.019 45.1448H143.392C143.647 45.1448 143.791 44.9708 143.791 44.7098V40.5015C143.791 40.3274 143.711 40.2246 143.512 40.2246H141.843C141.627 40.2246 141.548 40.3195 141.564 40.5015L141.699 41.8225C141.699 41.9016 141.675 41.8383 141.659 41.8067C141.5 41.3953 140.725 40.2325 137.628 40.2325C133.915 40.2325 130.802 43.3808 130.802 47.3677C130.802 51.3545 133.939 54.5265 138.658 54.5265C141.492 54.5265 143.424 53.3874 143.919 53.0473C143.999 52.9919 144.054 52.9128 144.054 52.7546V47.3044C144.054 47.1462 143.959 47.0275 143.735 47.0275" fill="#1D1D1B"/>
<path d="M153.874 42.7015H154.545C154.824 42.7015 155 42.6224 155 42.306V40.8347C155 40.5578 154.824 40.4629 154.585 40.4629H149.922C149.563 40.4629 149.483 40.5974 149.483 40.8742V42.2902C149.483 42.5433 149.643 42.7015 149.922 42.7015H150.617C150.857 42.7015 151.016 42.8044 151.016 43.1129V51.6244C151.016 51.838 150.936 52.0357 150.657 52.0357H149.843C149.587 52.0357 149.483 52.1702 149.483 52.368V53.9579C149.483 54.1557 149.643 54.2744 149.843 54.2744H154.545C154.8 54.2744 155 54.1162 155 53.9026V52.3917C155 52.1781 154.88 52.0357 154.625 52.0357H153.914C153.635 52.0357 153.475 51.9171 153.475 51.6402V43.0891C153.475 42.836 153.675 42.6936 153.874 42.6936" fill="#1D1D1B"/>
<path d="M44.7155 40.2246C40.5322 40.2246 37.2749 43.3729 37.2749 47.3597C37.2749 51.3466 40.4523 54.4949 44.7155 54.4949C48.9787 54.4949 52.1721 51.4257 52.1721 47.3597C52.1721 43.2938 49.0346 40.2246 44.7155 40.2246ZM44.7315 52.3591C42.0331 52.3591 39.9254 50.1758 39.9254 47.4072C39.9254 44.6386 41.9692 42.4316 44.7315 42.4316C47.4938 42.4316 49.5296 44.5753 49.5296 47.4072C49.5296 50.2391 47.4299 52.3591 44.7315 52.3591Z" fill="#1D1D1B"/>
<path d="M88.018 52.0734H87.8184C86.1738 52.0734 85.8704 50.6021 84.8006 49.6529C84.7607 49.6133 84.8006 49.5975 84.8405 49.5738C86.6448 48.7274 87.4032 47.2323 87.4032 45.3655C87.4032 42.4782 85.5351 40.4531 81.8227 40.4531H76.2662C76.0267 40.4531 75.8511 40.556 75.8511 40.8249V42.2962C75.8511 42.6127 76.0267 42.6918 76.3061 42.6918H77.0167C77.2322 42.6918 77.352 42.7946 77.352 43.0082V51.8519C77.352 51.9864 77.2881 52.026 77.1364 52.026H76.2263C75.9708 52.026 75.8511 52.1604 75.8511 52.3819V53.8928C75.8511 54.1064 76.0507 54.2646 76.3061 54.2646H81.2639C81.5194 54.2646 81.719 54.1064 81.719 53.8928V52.3819C81.719 52.1684 81.5992 52.026 81.3437 52.026H79.9945C79.8748 52.026 79.8189 51.9627 79.8189 51.8678V50.436C79.8189 50.3173 79.8748 50.262 79.9945 50.262H81.3437C81.5992 50.262 81.8387 50.262 82.0782 50.2461C83.7627 51.1875 83.5631 54.3516 87.036 54.3516C87.4511 54.3516 87.7705 54.3279 88.01 54.2962C88.2255 54.2804 88.3692 54.1776 88.3692 53.9798V52.4057C88.3692 52.2079 88.2734 52.0734 88.01 52.0734M81.6391 48.1024H80.2899C79.9706 48.1024 79.8189 47.9047 79.8189 47.6515V43.1901C79.8189 42.7946 80.0185 42.6997 80.3538 42.6997H81.6391C83.9623 42.6997 84.7367 43.8625 84.7367 45.3734C84.7367 46.8842 83.9464 48.1024 81.6391 48.1024Z" fill="#1D1D1B"/>
<path d="M106.692 52.0339H106.157C105.821 52.0339 105.518 51.8203 105.422 51.583L100.6 40.9277C100.464 40.6113 100.385 40.4531 99.9855 40.4531H99.5464C99.3069 40.4531 99.1711 40.5876 99.0115 40.9277L94.1495 51.6779C94.0537 51.9152 93.8701 52.0339 93.6146 52.0339H92.8801C92.6007 52.0339 92.481 52.2712 92.481 52.5085V53.8058C92.481 54.0827 92.6167 54.2725 92.936 54.2725H97.2391C97.5984 54.2725 97.6942 54.0747 97.6942 53.8058V52.5085C97.6942 52.2949 97.5904 52.0339 97.2152 52.0339H96.9597C96.7042 52.0339 96.5446 51.939 96.6404 51.7016L96.9996 50.879C97.0795 50.7049 97.1753 50.6021 97.4786 50.6021H101.981C102.261 50.6021 102.42 50.7049 102.516 50.9185L102.836 51.6621C102.939 51.8994 102.891 52.0339 102.62 52.0339H102.404C102.149 52.0339 101.949 52.2079 101.949 52.5639V53.7662C101.949 54.0985 102.029 54.2725 102.389 54.2725H106.692C106.987 54.2725 107.131 54.0194 107.131 53.7662V52.5085C107.131 52.2316 107.011 52.0339 106.692 52.0339ZM101.215 48.6562H98.3009C98.1253 48.6562 98.0215 48.5375 98.1014 48.3635L99.6661 44.7643C99.7034 44.6852 99.7353 44.6456 99.7619 44.6456C99.7619 44.6456 99.8258 44.6693 99.8577 44.7643L101.43 48.3635C101.486 48.5217 101.446 48.6562 101.215 48.6562Z" fill="#1D1D1B"/>
<path d="M0.351245 61.25H2.57865V61.4636C2.38704 61.5269 2.13157 61.7484 2.13157 61.9778V65.9804C2.13157 66.9534 2.29922 67.7048 2.7942 68.1795C3.24128 68.6224 3.91189 68.8835 4.63041 68.8835C7.31287 68.8835 7.31287 66.8505 7.31287 65.8617V62.0806C7.31287 61.6772 7.1053 61.5189 6.78596 61.4636V61.25H8.86966V61.4636C8.56629 61.4873 8.35073 61.7404 8.35073 62.0489V66.2573C8.35073 68.5829 7.04143 69.9197 4.57453 69.9197C3.31313 69.9197 2.35511 69.548 1.72441 68.8993C1.00589 68.1874 0.790339 67.2856 0.790339 66.0516V62.1439C0.790339 61.8433 0.694537 61.5822 0.343262 61.4794V61.2658L0.351245 61.25Z" fill="#1D1D1B"/>
<path d="M11.4561 64.9915C11.7674 64.7384 12.5099 64.2559 13.5797 64.2559C14.7772 64.2559 15.5596 65.0153 15.5596 66.2888V68.7727C15.5596 69.1445 15.7113 69.358 16.0306 69.4609V69.6744H13.9469V69.4609C14.2822 69.3659 14.394 69.0812 14.394 68.7489V66.6685C14.394 66.0752 14.3381 65.2209 13.1326 65.2209C12.5578 65.2209 11.8712 65.5215 11.4641 65.8775V68.8439C11.4641 69.1524 11.5998 69.3897 11.9111 69.4609V69.6744H9.85938V69.4609C10.1627 69.3897 10.3065 69.1286 10.3065 68.8201V66.0673C10.3065 65.7826 10.1867 65.5927 9.85938 65.5532V65.3475C10.3144 65.0944 10.8334 64.6435 11.2246 64.2559H11.4641V64.9915H11.4561Z" fill="#1D1D1B"/>
<path d="M22.298 68.3214C21.6833 69.3418 20.837 69.8639 19.6794 69.8639C18.1706 69.8639 16.9331 68.8672 16.9331 66.9925C16.9331 65.8296 17.6756 64.2871 19.7034 64.2871C20.2543 64.2871 20.9009 64.4532 21.3799 64.9041C21.9547 65.4658 22.0346 65.9641 22.314 66.154L22.4018 66.4545L18.2185 67.6095C18.458 68.4875 19.0487 68.9384 19.8231 68.9384C20.374 68.9384 21.0207 68.7011 21.6593 67.8942L22.298 68.3372V68.3214ZM20.8929 66.0037C20.5896 65.3708 20.1505 65.0781 19.5597 65.0781C18.8412 65.0781 18.0987 65.6002 18.0987 66.7551L20.8929 66.0037Z" fill="#1D1D1B"/>
<path d="M26.8245 64.4531H28.5489V64.6667C28.3413 64.7142 28.022 65.0622 27.8863 65.2046L26.3614 66.8183L28.1258 68.8987C28.2934 69.1044 28.517 69.4129 28.7165 69.4604V69.674H26.7127V69.4604C26.8245 69.4366 26.8644 69.3892 26.8644 69.318C26.8644 69.1835 26.6967 68.9858 26.553 68.8196L25.579 67.6647L24.4054 68.8908C24.2138 69.0965 24.142 69.2231 24.142 69.3101C24.142 69.405 24.2378 69.4525 24.3176 69.4683V69.6819H22.665V69.4683C22.9045 69.405 23.0882 69.1914 23.3037 68.9541L25.0521 67.0398L23.3357 65.0068C23.1999 64.8486 23.1281 64.7537 22.9365 64.6746V64.461H24.9563V64.6746C24.8366 64.73 24.7727 64.7933 24.7727 64.8724C24.7727 64.9436 24.8366 65.0385 24.9324 65.1571L25.8345 66.2013L26.7686 65.2125C26.9282 65.0622 27.0081 64.9515 27.0081 64.8565C27.0081 64.7854 26.9522 64.7221 26.8165 64.6667V64.4531H26.8245Z" fill="#1D1D1B"/>
<path d="M30.9041 64.9677C31.7823 64.3507 32.3332 64.2637 32.7962 64.2637C34.6804 64.2637 35.2552 65.9169 35.2552 66.9216C35.2552 68.7251 34.0656 69.8326 32.5248 69.8326C31.9979 69.8326 31.4311 69.6902 30.9041 69.4529V71.2327C30.9041 71.5096 31.0798 71.6757 31.3512 71.7785V71.9921H29.3154V71.7785C29.5949 71.7231 29.7465 71.5016 29.7465 71.2327V66.1147C29.7465 65.7825 29.6268 65.6163 29.3154 65.5689V65.3632C29.8264 65.0626 30.513 64.414 30.6806 64.2716H30.9121V64.9598L30.9041 64.9677ZM30.9041 68.3454C31.3273 68.7409 31.926 68.9624 32.4609 68.9624C33.395 68.9624 34.0656 68.298 34.0656 67.2301C34.0656 66.0751 33.4429 65.2366 32.3412 65.2366C31.7903 65.2366 31.2474 65.561 30.9041 65.8299V68.3454Z" fill="#1D1D1B"/>
<path d="M36.349 62.064C36.804 61.8109 37.3948 61.3521 37.7381 60.9961H37.9537V68.9223C37.9537 69.1596 38.1453 69.389 38.3848 69.4602V69.6737H36.333V69.4602C36.6444 69.3969 36.7881 69.1358 36.7881 68.946V62.8392C36.7881 62.4437 36.6204 62.2776 36.341 62.2459V62.0719L36.349 62.064Z" fill="#1D1D1B"/>
<path d="M39.3825 67.0805C39.3825 65.5222 40.6199 64.2012 42.4881 64.2012C44.3562 64.2012 45.3382 65.6725 45.3382 67.0014C45.3382 68.7338 44.0688 69.9124 42.2566 69.9124C40.5641 69.9124 39.3745 68.6784 39.3745 67.0726M44.1487 67.2467C44.1487 66.1155 43.4062 65.0001 42.2566 65.0001C41.4901 65.0001 40.5401 65.538 40.5401 66.8432C40.5401 67.9586 41.2586 69.0502 42.4003 69.0502C43.3743 69.0502 44.1487 68.2671 44.1487 67.2467Z" fill="#1D1D1B"/>
<path d="M46.1525 65.3552C46.5836 65.1179 47.2303 64.6037 47.5097 64.2715H47.7732V65.2919C48.0286 65.0309 48.4438 64.7066 48.803 64.5325C49.0585 64.4139 49.4018 64.2794 49.785 64.2794C49.8808 64.2794 49.9766 64.2873 50.0724 64.3031L50.3598 65.7033L50.0565 65.7745C49.8409 65.4422 49.5854 65.2761 49.2741 65.2761C48.8509 65.2761 48.34 65.6004 47.7652 66.2412V68.8753C47.7652 69.1522 47.9408 69.3499 48.2202 69.4449L48.2043 69.6584H46.1525V69.4449C46.4399 69.3262 46.5996 69.1838 46.5996 68.8041V66.083C46.5996 65.7824 46.4878 65.5846 46.1445 65.5609V65.3473L46.1525 65.3552Z" fill="#1D1D1B"/>
<path d="M56.3477 68.3214C55.7329 69.3418 54.8867 69.8639 53.7371 69.8639C52.2282 69.8639 50.9907 68.8672 50.9907 66.9925C50.9907 65.8296 51.7332 64.2871 53.761 64.2871C54.3119 64.2871 54.9585 64.4532 55.4375 64.9041C56.0124 65.4658 56.1002 65.9641 56.3716 66.154L56.4594 66.4545L52.2761 67.6095C52.5156 68.4875 53.1064 68.9384 53.8808 68.9384C54.4316 68.9384 55.0783 68.7011 55.717 67.8942L56.3556 68.3372L56.3477 68.3214ZM54.9426 66.0037C54.6392 65.3708 54.2001 65.0781 53.6093 65.0781C52.8908 65.0781 52.1483 65.6002 52.1483 66.7551L54.9426 66.0037Z" fill="#1D1D1B"/>
<path d="M61.2094 62.0567C61.7124 61.7719 62.2074 61.3289 62.5986 60.9492H62.8141V67.9578C62.8141 68.2821 62.886 68.5194 63.2452 68.5511V68.7646C62.4628 69.2314 62.0477 69.706 61.888 69.8563H61.6485V69.1681C60.7703 69.8009 59.972 69.8325 59.8043 69.8325C58.495 69.8325 57.3135 68.7172 57.3135 67.1351C57.3135 65.553 58.4312 64.2716 60.0917 64.2716C60.8582 64.2716 61.3771 64.5801 61.6485 64.7304V62.7449C61.6485 62.4917 61.5048 62.3019 61.2015 62.2465V62.0408L61.2094 62.0567ZM61.6565 65.9169C61.2254 65.379 60.6586 65.1338 60.0359 65.1338C59.1577 65.1338 58.4791 65.822 58.4791 66.8187C58.4791 67.9103 59.0938 68.8754 60.0997 68.8754C60.7145 68.8754 61.1775 68.6618 61.6565 68.2426V65.909V65.9169Z" fill="#1D1D1B"/>
<path d="M73.6795 62.064C74.1346 61.8109 74.7254 61.3521 75.0687 60.9961H75.2842V68.9223C75.2842 69.1596 75.4758 69.389 75.7153 69.4602V69.6737H73.6636V69.4602C73.9749 69.3969 74.1186 69.1358 74.1186 68.946V62.8392C74.1186 62.4437 73.951 62.2776 73.6716 62.2459V62.0719L73.6795 62.064Z" fill="#1D1D1B"/>
<path d="M77.0328 64.8251C77.6076 64.5245 78.4379 64.2793 79.1644 64.2793C81.0246 64.2793 81.3199 65.276 81.4317 66.3123L81.6473 68.2028C81.7031 68.6695 81.8628 68.978 82.2221 68.978C82.2939 68.978 82.3658 68.9622 82.4376 68.9543L82.5813 69.4922C82.2221 69.6742 81.8948 69.7691 81.6074 69.7691C81.2082 69.7691 80.8888 69.5871 80.6573 69.2312C79.7232 69.6742 79.2921 69.864 78.4778 69.864C77.0887 69.864 76.6416 68.986 76.6416 68.2345C76.6416 67.7678 76.8093 67.2931 77.1525 66.9609C77.7034 66.3993 79.0367 66.2015 80.2102 66.0829C80.1863 65.6399 79.9707 65.1178 79.0367 65.1178C78.3501 65.1178 77.7513 65.3788 77.6076 65.9642L77.4 65.9958L77.0168 64.833L77.0328 64.8251ZM80.346 66.9134C79.6514 66.9372 78.6774 67.1666 78.3421 67.309C78.0068 67.4672 77.7912 67.7361 77.7912 68.1079C77.7912 68.6695 78.1904 69.0255 78.7892 69.0255C79.332 69.0255 80.0825 68.6616 80.4817 68.4164L80.346 66.9214V66.9134Z" fill="#1D1D1B"/>
<path d="M86.8287 64.4531H88.4813V64.6667C88.3136 64.7695 88.1061 65.0701 88.0023 65.2995L85.8787 69.8717H85.0644L82.6932 65.2125C82.5495 64.9515 82.3899 64.7458 82.334 64.6667V64.4531H84.29V64.6667C84.0265 64.7142 83.9307 64.8882 83.9307 65.0701C83.9307 65.1492 83.9467 65.2283 83.9786 65.2837L85.6312 68.4953L86.9724 65.6159C87.0682 65.4024 87.1321 65.2362 87.1321 65.0939C87.1321 64.904 87.0363 64.7616 86.8287 64.6667V64.4531Z" fill="#1D1D1B"/>
<path d="M88.9839 67.0786C88.9839 65.5202 90.2213 64.1992 92.0895 64.1992C93.9576 64.1992 94.9396 65.6705 94.9396 66.9995C94.9396 68.7318 93.6702 69.9105 91.858 69.9105C90.1654 69.9105 88.9839 68.6765 88.9839 67.0707M93.758 67.2447C93.758 66.1135 93.0156 64.9982 91.8659 64.9982C91.0995 64.9982 90.1495 65.5361 90.1495 66.8413C90.1495 67.9566 90.868 69.0483 92.0096 69.0483C92.9836 69.0483 93.758 68.2651 93.758 67.2447Z" fill="#1D1D1B"/>
<path d="M95.7222 65.3475C96.1692 65.0944 96.7201 64.596 97.0634 64.2559H97.3269V67.594C97.3269 68.306 97.5823 68.8913 98.5643 68.8913C99.0912 68.8913 99.7059 68.6777 100.281 68.2269V65.9724C100.281 65.8221 100.177 65.569 99.7938 65.5769V65.3475C100.273 65.0944 100.848 64.6118 101.175 64.2559H101.454V68.1082C101.454 68.393 101.598 68.5274 101.909 68.5828V68.7727C101.438 69.0258 100.816 69.5321 100.52 69.8801H100.289V69.1286C99.4824 69.7219 98.692 69.8643 98.1891 69.8643C96.9197 69.8643 96.1772 69.1524 96.1772 67.7601V66.0594C96.1772 65.7746 96.0335 65.569 95.7302 65.5611V65.3475H95.7222Z" fill="#1D1D1B"/>
<path d="M102.748 65.3552C103.179 65.1179 103.825 64.6037 104.105 64.2715H104.368V65.2919C104.624 65.0309 105.039 64.7066 105.398 64.5325C105.654 64.4139 105.997 64.2794 106.38 64.2794C106.476 64.2794 106.572 64.2873 106.668 64.3031L106.955 65.7033L106.652 65.7745C106.436 65.4422 106.181 65.2761 105.869 65.2761C105.446 65.2761 104.935 65.6004 104.36 66.2412V68.8753C104.36 69.1522 104.536 69.3499 104.815 69.4449L104.799 69.6584H102.748V69.4449C103.035 69.3262 103.195 69.1838 103.195 68.8041V66.083C103.195 65.7824 103.083 65.5846 102.74 65.5609V65.3473L102.748 65.3552Z" fill="#1D1D1B"/>
<path d="M107.738 67.9734C108.113 68.6142 108.759 68.986 109.526 68.986C110.093 68.986 110.356 68.7328 110.356 68.3769C110.356 67.8785 109.757 67.7599 108.704 67.1903C107.913 66.7631 107.626 66.2964 107.626 65.7427C107.626 64.7697 108.416 64.2793 109.47 64.2793C110.045 64.2793 110.588 64.398 111.139 64.6115L111.282 65.9405H110.995C110.444 65.3076 109.965 65.1099 109.534 65.1099C109.015 65.1099 108.767 65.2997 108.767 65.6478C108.767 66.154 109.534 66.3281 110.508 66.8581C111.482 67.4039 111.53 68.0604 111.53 68.3057C111.53 69.4606 110.508 69.8482 109.422 69.8482C108.799 69.8482 108.28 69.7295 107.586 69.3815L107.45 67.9655H107.754L107.738 67.9734Z" fill="#1D1D1B"/>
<path d="M68.4585 63.5903C68.4585 62.2851 69.2888 61.0273 70.9893 61.0273C71.6998 61.0273 72.3305 61.1855 72.9692 61.6364L72.4502 63.0603L72.2347 63.0049C72.1628 62.1348 71.596 61.7314 70.9414 61.7314C69.9913 61.7314 69.6081 62.5303 69.6081 63.5824V64.4604H71.4922V65.3306H69.6081V68.7874C69.6081 69.1275 69.7758 69.4281 70.135 69.4677V69.6813H67.9236V69.4677C68.3068 69.3965 68.4505 69.1592 68.4505 68.6608V65.3306H67.5244V64.4604H68.4505V63.5903H68.4585Z" fill="#1D1D1B"/>
<path d="M113.893 67.0805C113.893 65.5222 115.13 64.2012 116.998 64.2012C118.866 64.2012 119.848 65.6725 119.848 67.0014C119.848 68.7338 118.579 69.9124 116.767 69.9124C115.074 69.9124 113.885 68.6784 113.885 67.0726M118.659 67.2467C118.659 66.1155 117.916 65.0001 116.767 65.0001C116 65.0001 115.05 65.538 115.05 66.8432C115.05 67.9586 115.769 69.0502 116.911 69.0502C117.885 69.0502 118.659 68.2671 118.659 67.2467Z" fill="#1D1D1B"/>
<path d="M121.589 63.5922C121.589 62.287 122.419 61.0293 124.12 61.0293C124.83 61.0293 125.461 61.1875 126.1 61.6384L125.581 63.0623L125.365 63.0069C125.293 62.1367 124.726 61.7333 124.072 61.7333C123.122 61.7333 122.738 62.5323 122.738 63.5843V64.4624H124.623V65.3325H122.738V68.7893C122.738 69.1295 122.906 69.4301 123.265 69.4696V69.6832H121.054V69.4696C121.437 69.3984 121.581 69.1611 121.581 68.6628V65.3325H120.655V64.4624H121.581V63.5922H121.589Z" fill="#1D1D1B"/>
<path d="M128.056 61.25H130.299V61.4636C129.996 61.5269 129.852 61.7721 129.852 62.0727V68.8439C129.852 69.2869 130.068 69.3897 130.307 69.4609V69.6745H128.08V69.4609C128.383 69.3977 128.535 69.2236 128.535 68.7727V62.1676C128.535 61.9066 128.463 61.5506 128.056 61.4636V61.25Z" fill="#1D1D1B"/>
<path d="M133.125 64.9915C133.436 64.7384 134.179 64.2559 135.249 64.2559C136.446 64.2559 137.229 65.0153 137.229 66.2888V68.7727C137.229 69.1445 137.388 69.358 137.7 69.4609V69.6744H135.616V69.4609C135.951 69.3659 136.063 69.0812 136.063 68.7489V66.6685C136.063 66.0752 135.999 65.2209 134.802 65.2209C134.227 65.2209 133.54 65.5215 133.133 65.8775V68.8439C133.133 69.1524 133.269 69.3897 133.58 69.4609V69.6744H131.528V69.4609C131.832 69.3897 131.975 69.1286 131.975 68.8201V66.0673C131.975 65.7826 131.856 65.5927 131.528 65.5532V65.3475C131.983 65.0944 132.502 64.6435 132.894 64.2559H133.133V64.9915H133.125Z" fill="#1D1D1B"/>
<path d="M142.466 62.0567C142.969 61.7719 143.464 61.3289 143.855 60.9492H144.07V67.9578C144.07 68.2821 144.142 68.5194 144.502 68.5511V68.7646C143.719 69.2314 143.304 69.706 143.144 69.8563H142.905V69.1681C142.027 69.8009 141.228 69.8325 141.061 69.8325C139.751 69.8325 138.57 68.7172 138.57 67.1351C138.57 65.553 139.688 64.2716 141.348 64.2716C142.115 64.2716 142.633 64.5801 142.905 64.7304V62.7449C142.905 62.4917 142.761 62.3019 142.458 62.2465V62.0408L142.466 62.0567ZM142.913 65.9169C142.482 65.379 141.915 65.1338 141.292 65.1338C140.414 65.1338 139.735 65.822 139.735 66.8187C139.735 67.9103 140.35 68.8754 141.356 68.8754C141.971 68.8754 142.434 68.6618 142.913 68.2426V65.909V65.9169Z" fill="#1D1D1B"/>
<path d="M145.571 65.3941C146.002 65.0936 146.641 64.6348 146.96 64.2551H147.192V68.8431C147.192 69.1674 147.312 69.4047 147.615 69.4601V69.6736H145.579V69.4601C145.867 69.4363 146.034 69.1595 146.034 68.8035V66.1614C146.034 65.8055 145.875 65.5998 145.579 65.5524V65.3862L145.571 65.3941ZM146.449 62.8787C146.29 62.6493 146.026 62.3328 145.779 62.2142V62.0085C146.018 61.8187 146.306 61.4943 146.473 61.3203H146.713C146.833 61.5418 147.184 61.8345 147.384 62.0006V62.23C147.192 62.3407 146.881 62.6809 146.697 62.8866H146.441L146.449 62.8787Z" fill="#1D1D1B"/>
<path d="M149.1 64.8251C149.675 64.5245 150.505 64.2793 151.232 64.2793C153.092 64.2793 153.387 65.276 153.499 66.3123L153.715 68.2028C153.771 68.6695 153.93 68.978 154.289 68.978C154.361 68.978 154.433 68.9622 154.505 68.9543L154.649 69.4922C154.289 69.6742 153.962 69.7691 153.675 69.7691C153.276 69.7691 152.956 69.5871 152.725 69.2312C151.791 69.6742 151.36 69.864 150.545 69.864C149.156 69.864 148.709 68.986 148.709 68.2345C148.709 67.7678 148.877 67.2931 149.22 66.9609C149.771 66.3993 151.104 66.2015 152.278 66.0829C152.254 65.6399 152.038 65.1178 151.104 65.1178C150.417 65.1178 149.819 65.3788 149.675 65.9642L149.475 65.9958L149.092 64.833L149.1 64.8251ZM152.413 66.9134C151.719 66.9372 150.745 67.1666 150.409 67.309C150.074 67.4672 149.859 67.7361 149.859 68.1079C149.859 68.6695 150.258 69.0255 150.857 69.0255C151.399 69.0255 152.15 68.6616 152.549 68.4164L152.413 66.9214V66.9134Z" fill="#1D1D1B"/>
</g>
<defs>
<clipPath id="clip0_657_7932">
<rect width="155" height="72" fill="white"/>
</clipPath>
</defs>
</svg>
