<svg width="169" height="22" viewBox="0 0 169 22" fill="none" xmlns="http://www.w3.org/2000/svg">
<g clip-path="url(#clip0_657_8040)">
<path d="M127.842 18.9568C129.981 18.9568 131.368 18.1876 132.226 17.3681C132.977 16.2643 133.94 14.5083 133.94 11.7573C133.94 6.10469 131.458 3.0359 125.875 2.89375L128.977 -0.0078125C134.479 0.326661 137.107 3.91389 137.107 8.3373C137.107 12.3593 135.352 15.0769 132.185 17.4266C131.222 18.8231 128.675 21.9922 125.042 21.9922C118.471 21.9922 115.989 17.8865 115.989 13.438C115.989 8.70522 118.773 5.5779 122.234 2.36695C120.201 4.47413 119.108 6.89071 119.108 10.1435C119.108 15.9633 121.867 18.9485 127.834 18.9485M125.736 13.2792L121.989 16.5737L121.948 6.6064C122.185 6.27193 122.61 5.7953 123.385 5.12636L125.63 3.10279L125.736 13.2792ZM132.56 12.4262L129.287 15.47L126.397 13.0701L129.695 9.94278L132.56 12.4262Z" fill="#1D1D1B"/>
<path d="M127.842 18.9568C129.981 18.9568 131.368 18.1876 132.226 17.3681C132.977 16.2643 133.94 14.5083 133.94 11.7573C133.94 6.10469 131.458 3.0359 125.875 2.89375L128.977 -0.0078125C134.479 0.326661 137.107 3.91389 137.107 8.3373C137.107 12.3593 135.352 15.0769 132.185 17.4266C131.222 18.8231 128.675 21.9922 125.042 21.9922C118.471 21.9922 115.989 17.8865 115.989 13.438C115.989 8.70522 118.773 5.5779 122.234 2.36695C120.201 4.47413 119.108 6.89071 119.108 10.1435C119.108 15.9633 121.867 18.9485 127.834 18.9485L127.842 18.9568ZM125.744 13.2875L121.997 16.5821L121.956 6.61476C122.193 6.28029 122.618 5.80367 123.393 5.13472L125.638 3.11115L125.744 13.2875ZM132.568 12.4346L129.295 15.4783L126.405 13.0785L129.703 9.95114L132.568 12.4346Z" fill="#1D1D1B"/>
<path d="M148.486 21.19C147.907 20.7552 147.891 19.8103 147.891 17.377C147.891 16.499 148.086 12.2679 148.086 10.9718C148.086 10.1356 147.915 9.07368 147.531 8.57197C146.764 7.67725 145.882 7.31769 145.091 7.31769C144.723 7.31769 144.103 7.8194 143.482 8.33784C143.482 11.507 143.507 15.7381 143.613 19.8103C143.613 20.914 143.825 21.0813 144.258 21.19H139.229C139.376 21.1064 139.532 21.006 139.548 20.0193C139.654 14.9688 139.654 9.84297 139.654 8.73921C139.654 6.07178 139.352 5.50318 138.217 5.40283C139.997 5.40283 142.585 5.17706 143.482 5.06836V8.30439C144.274 7.5351 145.474 6.47315 146.503 5.8042C147.254 5.30249 147.719 5.07672 148.258 5.07672C150.054 5.07672 151.915 6.7909 151.915 8.873C151.915 10.9551 151.719 15.5876 151.719 17.5693C151.719 20.6799 152.748 21.0896 153.499 21.1983H148.495L148.486 21.19Z" fill="#1D1D1B"/>
<path d="M148.486 21.19C147.907 20.7552 147.891 19.8103 147.891 17.377C147.891 16.499 148.086 12.2679 148.086 10.9718C148.086 10.1356 147.915 9.07368 147.531 8.57197C146.764 7.67725 145.882 7.31769 145.091 7.31769C144.723 7.31769 144.103 7.8194 143.482 8.33784C143.482 11.507 143.507 15.7381 143.613 19.8103C143.613 20.914 143.825 21.0813 144.258 21.19H139.229C139.376 21.1064 139.532 21.006 139.548 20.0193C139.654 14.9688 139.654 9.84297 139.654 8.73921C139.654 6.07178 139.352 5.50318 138.217 5.40283C139.997 5.40283 142.585 5.17706 143.482 5.06836V8.30439C144.274 7.5351 145.474 6.47315 146.503 5.8042C147.254 5.30249 147.719 5.07672 148.258 5.07672C150.054 5.07672 151.915 6.7909 151.915 8.873C151.915 10.9551 151.719 15.5876 151.719 17.5693C151.719 20.6799 152.748 21.0896 153.499 21.1983H148.495L148.486 21.19Z" fill="#1D1D1B"/>
<path d="M155.245 10.0349C155.931 9.19874 156.404 8.69703 157.662 7.46784C158.927 6.23865 160.445 4.98438 161.253 4.98438C162.706 4.98438 164.568 5.9878 165.874 7.21699L157.719 14.1406C157.996 16.6659 158.764 17.3933 160.674 18.2295C161.425 18.564 162.47 18.7062 162.919 18.7062C164.053 18.7062 164.821 18.355 168.992 13.9483C164.861 18.4135 163.319 20.019 162.364 20.6879C161.613 21.1645 160.845 21.4405 159.964 21.4405C158.764 21.4405 157.441 21.0642 156.519 20.504C154.698 19.4587 154.013 17.6442 154.013 14.1657C154.013 11.7491 154.266 11.2474 155.229 10.0349M157.711 14.1239L162.461 9.86769C161.18 8.6385 159.768 7.76051 158.249 7.76051C158.013 7.76051 157.931 7.7187 157.76 7.77723C157.613 8.5298 157.588 9.56666 157.588 10.9882C157.588 12.2592 157.613 13.2793 157.719 14.1155" fill="#1D1D1B"/>
<path d="M155.245 10.0349C155.931 9.19874 156.404 8.69703 157.662 7.46784C158.927 6.23865 160.445 4.98438 161.253 4.98438C162.706 4.98438 164.568 5.9878 165.874 7.21699L157.719 14.1406C157.996 16.6659 158.764 17.3933 160.674 18.2295C161.425 18.564 162.47 18.7062 162.919 18.7062C164.053 18.7062 164.821 18.355 168.992 13.9483C164.861 18.4135 163.319 20.019 162.364 20.6879C161.613 21.1645 160.845 21.4405 159.964 21.4405C158.764 21.4405 157.441 21.0642 156.519 20.504C154.698 19.4587 154.013 17.6442 154.013 14.1657C154.013 11.7491 154.266 11.2474 155.229 10.0349H155.245ZM157.727 14.1239L162.478 9.86769C161.196 8.6385 159.784 7.76051 158.266 7.76051C158.029 7.76051 157.947 7.7187 157.776 7.77723C157.629 8.5298 157.604 9.56666 157.604 10.9882C157.604 12.2592 157.629 13.2793 157.735 14.1155L157.727 14.1239Z" fill="#1D1D1B"/>
<path d="M3.35507 5.10963V9.35744H11.2732V12.0667H3.35507V16.8998H12.7018V19.6091H0.408203V2.40039H12.0814V5.10963H3.35507Z" fill="#1D1D1B" stroke="#1D1D1B" stroke-miterlimit="10"/>
<path d="M16.0566 2.40039H21.6239C23.6809 2.40039 25.6238 2.50073 26.9707 3.68811C27.9992 4.59955 28.6114 6.01271 28.6114 7.60982C28.6114 9.20693 27.9992 10.6953 26.9707 11.6068C25.6238 12.7942 23.6809 12.8945 21.6239 12.8945H19.0035V19.6007H16.0566V2.40039ZM19.0035 10.1685H22.0483C23.2238 10.1685 23.885 10.0682 24.3748 9.84243C25.1095 9.46615 25.5748 8.60488 25.5748 7.61818C25.5748 6.63148 25.1095 5.77021 24.3748 5.41901C23.885 5.19325 23.2238 5.0929 22.0483 5.0929H19.0035V10.1769V10.1685Z" fill="#1D1D1B" stroke="#1D1D1B" stroke-miterlimit="10"/>
<path d="M34.9215 19.6007H31.9746V2.40039H34.9215V19.6091V19.6007Z" fill="#1D1D1B" stroke="#1D1D1B" stroke-miterlimit="10"/>
<path d="M49.4599 6.82319C48.5293 5.63581 47.0109 4.74946 45.1416 4.74946C43.2723 4.74946 42.0723 5.73616 42.0723 7.04896C42.0723 8.36177 42.8804 8.79659 44.7661 9.22304L46.7742 9.67458C49.8925 10.4104 52.1455 11.4473 52.1455 14.583C52.1455 17.7187 49.6231 19.8928 45.4518 19.8928C41.8192 19.8928 39.3458 18.0448 38.1948 16.3724L40.6437 14.5495C41.4029 15.8373 43.2478 17.1835 45.5987 17.1835C47.8272 17.1835 48.9864 16.2219 48.9864 14.8589C48.9864 13.4959 47.8354 13.011 46.1457 12.6347L43.9171 12.1246C41.1907 11.5142 38.9132 10.3268 38.9132 7.19112C38.9132 4.05543 41.6805 2.08203 45.2151 2.08203C48.7497 2.08203 50.7088 3.82966 51.6884 4.94178L49.4599 6.81483V6.82319Z" fill="#1D1D1B" stroke="#1D1D1B" stroke-miterlimit="10"/>
<path d="M63.0026 2.09961C67.8596 2.09961 70.8963 5.74537 70.8963 11.005C70.8963 16.2646 68.0718 19.9103 63.0026 19.9103C57.9333 19.9103 55.1089 16.2395 55.1089 11.005C55.1089 5.77046 58.1537 2.09961 63.0026 2.09961ZM63.0026 17.1509C65.9739 17.1509 67.6882 14.7511 67.6882 11.005C67.6882 7.25886 65.925 4.80885 63.0026 4.80885C60.0802 4.80885 58.317 7.26723 58.317 11.005C58.317 14.7427 60.0312 17.1509 63.0026 17.1509Z" fill="#1D1D1B" stroke="#1D1D1B" stroke-miterlimit="10"/>
<path d="M74.749 19.6007V2.40039H79.4101C82.1039 2.40039 83.8019 2.40039 85.4916 3.61286C87.3038 4.97584 88.6099 7.58473 88.6099 10.9462C88.6099 13.831 87.7283 16.281 86.1855 17.8029C84.3978 19.6007 82.455 19.6007 79.3448 19.6007H74.7572H74.749ZM77.7204 16.8413H79.655C81.5162 16.8413 82.9447 16.8162 83.9733 15.8044C84.7569 14.9682 85.4671 13.1704 85.4671 11.0465C85.4671 8.92263 84.8794 7.22517 83.7529 6.21339C82.7733 5.32703 81.5244 5.20161 79.3367 5.20161H77.7204V16.8413Z" fill="#1D1D1B" stroke="#1D1D1B" stroke-miterlimit="10"/>
<path d="M95.4016 5.10963V9.35744H103.32V12.0667H95.4016V16.8998H104.748V19.6091H92.4629V2.40039H104.136V5.10963H95.4016Z" fill="#1D1D1B" stroke="#1D1D1B" stroke-miterlimit="10"/>
</g>
<defs>
<clipPath id="clip0_657_8040">
<rect width="169" height="22" fill="white"/>
</clipPath>
</defs>
</svg>
