<svg width="188" height="65" viewBox="0 0 188 65" fill="none" xmlns="http://www.w3.org/2000/svg">
<g clip-path="url(#clip0_658_8307)">
<path fill-rule="evenodd" clip-rule="evenodd" d="M124.357 62.0986C124.444 62.0986 124.532 62.0986 124.612 62.0986C125.042 62.0986 125.559 61.9246 125.902 61.5846C125.989 61.4976 126.069 61.4976 126.156 61.4976H126.244V61.5846C126.244 61.8376 125.989 62.0986 125.559 62.3516C125.217 62.5256 124.787 62.6047 124.357 62.6917V62.0907V62.0986ZM124.357 59.7975V59.5445C124.612 59.4575 124.787 59.3705 124.962 59.2835C125.392 59.0305 125.647 58.6035 125.647 58.1765C125.647 58.0025 125.559 57.9234 125.472 57.8364C125.304 57.6704 125.129 57.5834 124.954 57.5834C124.691 57.5834 124.524 57.6704 124.349 57.7574V57.4173C124.691 57.3383 124.954 57.2513 125.296 57.2513C125.639 57.2513 125.806 57.3383 126.069 57.5043C126.244 57.7574 126.324 58.0183 126.324 58.2713C126.324 58.7853 126.069 59.2044 125.551 59.4654C125.209 59.6393 124.779 59.7184 124.349 59.8054L124.357 59.7975ZM124.357 57.4094C124.357 57.4964 124.269 57.4964 124.269 57.4964C124.014 57.6704 123.752 57.8364 123.409 58.0895C123.067 58.5165 122.724 58.9435 122.637 59.2835C122.469 59.7975 122.294 60.3115 122.294 60.8176C122.294 61.4185 122.461 61.9246 122.724 62.2726C123.067 62.5256 123.497 62.6996 124.094 62.6996H124.349V62.0986C124.094 62.0116 123.752 61.9246 123.489 61.6716C123.234 61.3316 123.059 60.9915 123.059 60.4775V60.2245C123.146 60.1375 123.146 60.0505 123.146 59.9715C123.664 59.9715 124.094 59.8845 124.349 59.8054V59.5524C124.094 59.6393 123.831 59.7263 123.489 59.7263C123.401 59.7263 123.314 59.7263 123.234 59.6393V59.5524C123.234 59.3784 123.234 59.2914 123.321 59.1254C123.497 58.8723 123.576 58.6114 123.752 58.3583C123.927 58.1053 124.182 57.9313 124.269 57.8443L124.357 57.7574V57.4173V57.4094ZM119.292 62.6996V62.0986C119.372 62.0986 119.459 62.0986 119.459 62.0986C119.889 62.0986 120.407 61.9246 120.829 61.5846C120.917 61.4976 121.004 61.4976 121.092 61.4976H121.179V61.5846C121.179 61.8376 120.924 62.0986 120.407 62.2646C120.064 62.5177 119.722 62.6047 119.292 62.6917V62.6996ZM119.292 59.7975V59.5445C119.459 59.4575 119.722 59.2835 119.889 59.2044C120.232 59.0305 120.494 58.6035 120.494 58.1844C120.494 58.0104 120.407 57.8443 120.319 57.8443C120.144 57.6783 119.977 57.5913 119.802 57.5913C119.626 57.5913 119.459 57.6783 119.284 57.7653V57.4252C119.539 57.3462 119.881 57.2592 120.144 57.2592C120.487 57.2592 120.741 57.3462 121.004 57.5122C121.171 57.7653 121.259 57.9392 121.259 58.2792C121.259 58.7932 121.004 59.2123 120.399 59.4733C120.056 59.6473 119.714 59.7263 119.284 59.8133L119.292 59.7975ZM119.292 57.4173C119.292 57.5043 119.204 57.5043 119.204 57.5043C118.862 57.6783 118.607 57.8443 118.344 58.0974C118.002 58.5244 117.66 58.9514 117.484 59.2914C117.229 59.8054 117.142 60.3194 117.142 60.7464C117.142 61.4265 117.317 61.9404 117.66 62.1935C118.002 62.5335 118.344 62.7075 118.95 62.7075H119.292V62.1065C118.862 62.0195 118.607 61.9325 118.344 61.6795C118.169 61.3395 118.002 60.9994 118.002 60.4855C118.002 60.4275 118.002 60.3431 118.002 60.2324C118.002 60.1454 118.082 60.0584 118.082 59.9794C118.424 59.9794 118.942 59.8924 119.284 59.8133V59.5603C119.029 59.6473 118.679 59.7342 118.424 59.7342C118.307 59.7342 118.222 59.7052 118.169 59.6473V59.5603C118.169 59.3863 118.169 59.2202 118.257 59.1333C118.344 58.8802 118.432 58.6193 118.599 58.3662C118.774 58.1132 118.942 57.9392 119.196 57.8522L119.284 57.7653V57.4252L119.292 57.4173ZM109.33 60.5724V60.3194H109.417C109.505 60.3194 109.672 60.1454 109.672 59.8924C109.672 59.6393 109.76 59.2123 109.76 58.7853C109.76 58.6114 109.76 58.4453 109.672 58.3583C109.672 58.3003 109.643 58.2713 109.585 58.2713C109.497 58.2713 109.417 58.2713 109.33 58.3583V57.5913C109.585 57.4173 109.76 57.2513 110.015 57.2513C110.19 57.2513 110.357 57.3383 110.445 57.5913C110.532 57.6783 110.62 57.9313 110.62 58.2792C110.62 58.5323 110.532 59.0463 110.445 59.4733C110.357 60.0664 110.357 60.4934 110.357 60.8334C110.357 61.1734 110.357 61.4344 110.445 61.6004C110.532 61.7665 110.699 61.8535 110.787 61.8535C111.13 61.8535 111.472 61.5134 111.814 60.8334C112.244 60.3194 112.499 59.3863 112.674 58.5323C112.674 58.2792 112.762 58.0183 112.762 57.6783C112.85 57.4173 112.929 57.3383 113.104 57.2513H113.447L113.534 57.3383C113.622 57.3383 113.622 57.4173 113.622 57.4173C113.622 57.4173 113.534 57.7574 113.455 58.5244C113.367 59.2044 113.28 59.8924 113.28 60.4855C113.28 60.9994 113.367 61.3395 113.367 61.5925C113.455 61.8456 113.622 61.9325 113.797 61.9325C114.052 61.9325 114.14 61.8456 114.395 61.5925C114.57 61.4185 114.825 61.1655 114.992 60.7385C115.247 60.3985 115.422 60.0505 115.509 59.7184C115.597 59.3784 115.597 59.1254 115.597 58.7774C115.597 58.6035 115.597 58.3504 115.509 58.0974C115.422 57.8443 115.422 57.7574 115.422 57.6704C115.422 57.5834 115.422 57.4094 115.509 57.4094C115.597 57.3303 115.597 57.2434 115.677 57.2434C115.852 57.2434 116.019 57.3303 116.107 57.4964C116.194 57.5834 116.194 57.7494 116.194 58.0104C116.194 58.6114 116.107 59.2044 115.852 59.7184C115.677 60.3115 115.422 60.8255 114.992 61.3395C114.737 61.7665 114.395 62.0195 114.044 62.2805C113.789 62.5335 113.527 62.7075 113.272 62.7075C113.017 62.7075 112.754 62.5335 112.666 62.1065C112.579 61.8535 112.579 61.3395 112.579 60.5724V60.3194C112.236 60.9994 111.806 61.6004 111.376 62.0274C111.034 62.4544 110.692 62.6284 110.349 62.6284C110.094 62.6284 110.007 62.6284 109.831 62.4544C109.744 62.3675 109.656 62.2014 109.656 62.0274V60.7464C109.656 60.6594 109.569 60.6594 109.401 60.5724C109.401 60.5724 109.401 60.5724 109.314 60.5724H109.33ZM109.33 57.5913C109.242 57.6783 109.155 57.7653 109.075 57.9313C108.733 58.4453 108.557 59.0384 108.557 59.4654C108.557 59.8054 108.557 60.0584 108.645 60.2324C108.733 60.4064 108.9 60.4064 109.163 60.4855C109.163 60.5724 109.25 60.5724 109.338 60.5724V60.3194C109.25 60.3194 109.083 60.2324 108.995 60.0584C108.916 59.9715 108.916 59.8054 108.916 59.5524C108.916 59.2123 108.995 59.0384 109.171 58.6984C109.258 58.6114 109.258 58.4453 109.346 58.3583V57.5913H109.33ZM82.4453 62.6205V62.0195H82.6205C83.1382 62.0195 83.5682 61.8455 83.9106 61.5055C84.0778 61.4185 84.1654 61.4185 84.1654 61.4185H84.253C84.3406 61.4185 84.3406 61.5055 84.3406 61.5055C84.3406 61.7586 84.0858 62.0195 83.5682 62.2726C83.2258 62.5256 82.7957 62.6126 82.4533 62.6126L82.4453 62.6205ZM82.4453 59.7184C82.8754 59.7184 83.2178 59.6314 83.5602 59.4654C84.0778 59.1254 84.4203 58.6984 84.4203 58.2713C84.4203 57.9313 84.2451 57.6704 84.0778 57.4173C83.9106 57.2513 83.6478 57.1643 83.3054 57.1643C82.963 57.1643 82.7081 57.2513 82.4453 57.3383V57.6783C82.6205 57.5913 82.7878 57.5043 82.963 57.5043C83.1382 57.5043 83.3054 57.5913 83.4806 57.7574C83.6558 57.8443 83.6558 58.0104 83.6558 58.1844C83.6558 58.5244 83.4806 58.9514 82.963 59.2044C82.7957 59.2914 82.6205 59.4575 82.4453 59.5445V59.7184ZM85.7979 62.1065L86.3952 59.3784V59.2044C86.4828 58.9435 86.4828 58.6904 86.4828 58.6035C86.4828 58.4295 86.4828 58.3504 86.3952 58.2634C86.3076 58.1765 86.228 58.1765 86.1404 58.1765C85.9731 58.1765 85.7979 58.2634 85.6227 58.4295C85.5351 58.6825 85.3679 58.7695 85.2803 58.7695L85.1927 58.6825V58.5955C85.1927 58.5086 85.1927 58.4216 85.2803 58.3425C85.3679 58.0895 85.4555 57.9155 85.6227 57.7494C85.7979 57.5755 85.8776 57.4964 86.0528 57.3224C86.228 57.2355 86.3076 57.2355 86.4828 57.2355C86.5704 57.2355 86.7376 57.2355 86.8252 57.4015C86.9128 57.5755 87.0004 57.7415 87.0004 58.0025V58.1765C86.9128 58.2634 86.9128 58.3425 86.9128 58.4295H87.0004C87.3428 58.0895 87.6853 57.7494 88.0357 57.5755C88.3781 57.3224 88.8081 57.2355 89.1505 57.2355C89.5805 57.2355 89.7478 57.3224 89.923 57.5755C90.1778 57.7494 90.2654 58.0895 90.2654 58.5165C90.2654 58.6035 90.2654 58.6904 90.2654 58.8565C90.2654 58.9435 90.2654 59.0305 90.1778 59.1965L90.0106 61.0706C90.0106 61.1576 89.923 61.2367 89.923 61.3237V61.4976C89.923 61.5846 90.0106 61.6716 90.0106 61.6716C90.069 61.7296 90.1247 61.7586 90.1778 61.7586C90.353 61.7586 90.5202 61.6716 90.6954 61.5055C90.783 61.3316 90.8706 61.2525 90.9503 61.2525H91.0379C91.0379 61.3395 91.1255 61.3395 91.1255 61.4185C91.1255 61.4976 90.8706 61.7586 90.6078 62.0986C90.2654 62.4386 89.923 62.6126 89.6602 62.6126C89.493 62.6126 89.4054 62.5256 89.3178 62.4386C89.2302 62.3516 89.1426 62.1856 89.1426 61.9246V61.5846C89.1426 61.4976 89.1426 61.4106 89.2302 61.3316L89.485 59.1965V58.5165C89.485 58.3425 89.3974 58.0895 89.3098 57.9234C89.1346 57.7494 88.9674 57.6704 88.7046 57.6704C88.2746 57.6704 88.0197 57.9234 87.6773 58.2713C87.4225 58.6114 87.1597 59.1254 87.08 59.8054L86.5624 62.3675V62.5414C86.4748 62.6284 86.3872 62.6284 86.1324 62.6284C86.0448 62.6284 85.9652 62.6284 85.8776 62.5414C85.79 62.5414 85.79 62.4544 85.79 62.4544C85.79 62.3964 85.79 62.3411 85.79 62.2884C85.79 62.2884 85.79 62.2014 85.79 62.1144L85.7979 62.1065ZM93.0128 61.2525V61.5055C93.0128 61.5055 93.0128 61.5925 93.0128 61.6795C93.0712 61.7375 93.1296 61.7665 93.188 61.7665C93.4428 61.7665 93.618 61.6795 93.7852 61.4265C94.0401 61.1734 94.0401 60.9994 94.1277 60.9994C94.1277 60.9994 94.1569 61.0284 94.2152 61.0864V61.1734C94.2152 61.4265 94.0401 61.6004 93.7852 62.0274C93.3552 62.4544 93.0128 62.6284 92.6704 62.6284C92.5031 62.6284 92.3279 62.5414 92.2403 62.4544C92.2403 62.2884 92.1527 62.1144 92.1527 61.7744C92.1527 61.6083 92.1527 61.4344 92.2403 61.3474C92.2403 61.0943 92.2403 60.8334 92.3279 60.5803L93.188 54.6101V54.1831C93.188 54.0962 93.188 54.0092 93.1004 54.0092C93.1004 53.9222 93.0128 53.9222 92.8455 53.9222H92.3279V53.8352C92.3279 53.6612 92.5031 53.5822 92.758 53.5822C92.8456 53.5822 92.8455 53.5822 92.8455 53.5822C93.188 53.4952 93.4428 53.4952 93.618 53.4952C93.8728 53.4082 93.9604 53.4082 93.9604 53.4082C94.048 53.4082 94.048 53.4082 94.048 53.4082C94.048 53.4082 94.048 53.4952 94.048 53.5822C94.048 53.5822 94.048 53.7561 94.048 54.0092C93.9604 54.2622 93.9604 54.4362 93.9604 54.6892L93.0128 61.2525ZM98.2527 60.9994C98.4279 60.4855 98.5075 60.1454 98.5951 59.8054C98.6827 59.3784 98.6827 59.2123 98.6827 58.8644C98.6827 58.6904 98.6827 58.3504 98.5155 58.0974C98.4279 57.8443 98.3403 57.6704 98.3403 57.5834C98.3403 57.4094 98.4279 57.3303 98.5155 57.3303C98.5155 57.3303 98.6827 57.2434 98.7703 57.2434C98.9375 57.2434 99.0251 57.3303 99.1127 57.4094C99.2003 57.5834 99.28 57.7494 99.28 58.0895C99.28 58.5165 99.1924 59.1175 99.0251 59.7975C98.7703 60.3985 98.5075 61.2446 98.1651 62.0116C97.8227 63.0317 97.4802 63.8066 97.0502 64.3127C96.6202 64.7397 96.1902 64.9928 95.6726 64.9928C95.3301 64.9928 95.2425 64.9928 95.0753 64.8188C94.9001 64.7318 94.8205 64.5657 94.8205 64.3918C94.8205 64.3048 94.8205 64.2257 94.9081 64.1387C94.9957 64.0518 95.0833 64.0518 95.2505 64.0518C95.2505 64.0518 95.3381 64.0518 95.5929 64.2257C95.7681 64.3127 95.9353 64.3918 96.1105 64.3918C96.2857 64.3918 96.453 64.3048 96.6282 64.2257C96.7158 64.1387 96.883 63.9727 97.0582 63.6247C97.313 63.3717 97.4882 63.0317 97.5758 62.8577C97.6634 62.6047 97.6634 62.3437 97.6634 62.1777C97.6634 61.8376 97.6634 61.5846 97.4882 61.0706C97.313 60.4696 97.0582 59.9556 96.7158 59.2756C96.5406 58.8486 96.2857 58.5955 96.1185 58.4216C95.9433 58.2555 95.8637 58.1685 95.6885 58.1685C95.4337 58.1685 95.3461 58.3346 95.1709 58.6825C95.0833 58.8565 94.9957 59.0226 94.916 59.0226H94.8284V58.7695C94.8284 58.4295 94.916 58.0025 95.0833 57.6625C95.3381 57.3224 95.5133 57.2355 95.7681 57.2355C96.1981 57.2355 96.6282 57.4885 96.9706 58.1765C97.4882 58.8565 97.8306 59.7105 98.2607 60.9915L98.2527 60.9994ZM103.923 61.8535C103.923 61.8535 103.923 61.6874 104.01 61.6004C104.098 61.5134 104.185 61.5134 104.265 61.5134C104.52 61.5134 104.695 61.6004 104.783 61.8535C104.87 62.0274 105.045 62.1935 105.125 62.1935C105.213 62.2805 105.3 62.3675 105.468 62.3675C105.81 62.3675 105.977 62.2805 106.24 62.1144C106.415 61.9404 106.495 61.7744 106.495 61.5134C106.495 61.2525 106.407 61.0864 106.32 60.9204C106.232 60.7464 105.977 60.4064 105.635 60.1533C105.635 60.1533 105.547 60.0664 105.468 60.0664C104.95 59.3863 104.607 58.9593 104.607 58.6193C104.607 58.1923 104.775 57.8522 105.038 57.5992C105.38 57.4252 105.722 57.2592 106.24 57.2592C106.582 57.2592 106.845 57.3462 107.012 57.5122C107.267 57.5122 107.355 57.6862 107.355 57.8522C107.355 57.9392 107.355 58.1053 107.267 58.1053C107.18 58.1923 107.092 58.2792 106.925 58.2792C106.837 58.2792 106.67 58.1053 106.495 57.8522C106.32 57.6862 106.152 57.5122 105.89 57.5122C105.714 57.5122 105.547 57.5992 105.46 57.6862C105.372 57.8522 105.372 57.9392 105.372 58.1132C105.372 58.2872 105.372 58.4532 105.46 58.7063C105.539 58.8802 105.802 59.0463 106.144 59.2993C106.144 59.3863 106.232 59.4733 106.32 59.5603C106.837 60.1533 107.18 60.6673 107.18 61.1813C107.18 61.6083 107.004 61.9483 106.75 62.2884C106.32 62.5414 105.89 62.7154 105.372 62.7154C105.03 62.7154 104.6 62.6284 104.345 62.4544C104.002 62.3675 103.915 62.1144 103.915 61.8614L103.923 61.8535ZM82.4533 57.3383L82.3657 57.4173C82.1109 57.5913 81.7605 57.8443 81.4181 58.0974C81.0756 58.4374 80.8128 58.8644 80.6456 59.2914C80.4704 59.7184 80.3908 60.2324 80.3908 60.7464C80.3908 61.3395 80.566 61.8535 80.8208 62.1935C81.0756 62.5335 81.5136 62.6205 82.1109 62.6205H82.4533V62.0195C82.1109 61.9325 81.7685 61.8456 81.5057 61.5925C81.2508 61.2525 81.1632 60.9994 81.1632 60.3985V59.8845C81.6809 59.8845 82.1109 59.8845 82.4533 59.7184V59.5445C82.1985 59.6314 81.8481 59.7184 81.5057 59.7184C81.4181 59.7184 81.3305 59.6314 81.3305 59.6314C81.2429 59.6314 81.2429 59.5445 81.2429 59.5445C81.2429 59.3705 81.3305 59.2044 81.4101 59.0305C81.4977 58.7774 81.5853 58.5165 81.7525 58.3504C82.0074 58.0974 82.1825 57.9234 82.3577 57.7574C82.3577 57.7574 82.3577 57.6704 82.4453 57.6704V57.3303L82.4533 57.3383ZM75.4137 60.5803V60.2403C75.5889 60.2403 75.6685 60.0664 75.7561 59.8133C75.8437 59.6473 75.8437 59.2202 75.8437 58.7063C75.8437 58.5323 75.8437 58.3662 75.7561 58.2792C75.7561 58.1923 75.6685 58.1923 75.6685 58.1923C75.5809 58.1923 75.4933 58.1923 75.4137 58.2792V57.5913C75.5889 57.3383 75.8437 57.1643 76.0985 57.1643C76.2737 57.1643 76.4409 57.2513 76.5285 57.5043C76.5285 57.6783 76.6161 57.9313 76.6161 58.1844C76.6161 58.4374 76.6161 58.8644 76.5285 59.3784C76.4409 59.8924 76.4409 60.4064 76.3533 60.7464C76.3533 61.0864 76.4409 61.3395 76.5285 61.5134C76.6161 61.7665 76.7834 61.8535 76.9586 61.8535C77.1338 61.8535 77.301 61.7665 77.5558 61.5134C77.731 61.3395 77.8982 61.0864 78.161 60.7464C78.3362 60.3194 78.5035 59.9794 78.6787 59.6393C78.7663 59.3863 78.7663 59.0463 78.7663 58.6984C78.7663 58.5244 78.7663 58.2713 78.6787 58.0183C78.5911 57.7653 78.5114 57.6783 78.5114 57.5913C78.5114 57.5043 78.599 57.4173 78.599 57.3383C78.6866 57.2513 78.7662 57.1643 78.9414 57.1643C79.1166 57.1643 79.1963 57.2513 79.2839 57.4173C79.3715 57.5043 79.3715 57.7574 79.3715 58.0183C79.3715 58.5323 79.2839 59.1254 79.1166 59.6393C78.8618 60.2324 78.5194 60.8334 78.169 61.2604C77.8266 61.6874 77.6514 62.0274 77.309 62.2884C76.9665 62.5414 76.7117 62.6284 76.4489 62.6284C76.3613 62.6284 76.1941 62.5414 76.1065 62.4544C75.9313 62.3675 75.8516 62.2014 75.764 61.9404C75.6765 61.6874 75.6765 61.4265 75.6765 61.1734C75.6765 60.9204 75.5889 60.7464 75.5889 60.7464C75.5889 60.6594 75.5013 60.6594 75.4137 60.5724V60.5803ZM75.4137 57.5992C75.2385 57.6862 75.1588 57.7732 75.0712 57.9392C74.8164 58.3662 74.6412 58.9593 74.6412 59.4733C74.6412 59.7263 74.6412 59.9873 74.8164 60.1533C74.904 60.3273 74.9836 60.4064 75.1588 60.4934C75.1588 60.5803 75.2464 60.5803 75.4137 60.5803V60.2403C75.2385 60.2403 75.1588 60.1533 75.0712 59.9873C74.9836 59.9003 74.9836 59.7342 74.9836 59.5603C74.9836 59.2202 74.9836 58.9593 75.1588 58.6193C75.2464 58.5323 75.334 58.3662 75.4137 58.2792V57.5913V57.5992ZM70.779 62.2884V61.7744H70.8586C71.209 61.5213 71.4638 61.2604 71.8062 60.9204L72.3239 58.3583V58.1053C72.3239 57.9392 72.2363 57.7653 72.1487 57.6783C72.0611 57.6783 71.8859 57.5913 71.631 57.5913C71.4638 57.5913 71.201 57.6783 70.8586 57.8443L70.779 57.9313V57.5043C71.1214 57.4173 71.3762 57.3383 71.7186 57.3383C71.8062 57.3383 72.0611 57.3383 72.1487 57.4173C72.4035 57.4173 72.4911 57.5043 72.5787 57.5043C72.7539 57.5043 72.9211 57.3303 73.0963 57.1643C73.2715 56.9112 73.3511 56.8243 73.4387 56.8243C73.5263 56.8243 73.5263 56.9112 73.5263 56.9112C73.5263 56.9112 73.4387 57.0852 73.3511 57.3383C73.2635 57.6783 73.1839 57.9313 73.1839 58.1923L72.6663 60.4143V60.9283C72.5787 61.0153 72.5787 61.1813 72.5787 61.2683C72.5787 61.4344 72.6663 61.6083 72.6663 61.6953C72.7539 61.7823 72.8415 61.8614 72.9291 61.8614C73.0963 61.8614 73.2715 61.6953 73.4467 61.4344C73.6219 61.1813 73.6219 61.0943 73.6219 61.0943H73.7095C73.7971 61.0943 73.7971 61.1813 73.7971 61.1813C73.7971 61.2683 73.7095 61.3553 73.7095 61.5213C73.6219 61.6083 73.6219 61.7744 73.5343 61.9483C73.2795 62.2014 73.1043 62.3754 73.0167 62.4623C72.8494 62.5493 72.6742 62.5493 72.5867 62.5493C72.3318 62.5493 72.1566 62.4623 72.069 62.3754C71.9814 62.1223 71.8938 61.7744 71.8938 61.3553V61.2683C71.5514 61.6953 71.1214 62.0353 70.779 62.2963V62.2884ZM70.779 57.5122C70.779 57.5992 70.6914 57.5992 70.6914 57.5992C70.4365 57.7732 70.0861 58.0262 69.7517 58.4532C69.3217 58.8802 69.0589 59.3072 68.804 59.8212C68.6288 60.3352 68.4616 60.8413 68.4616 61.2683C68.4616 61.6953 68.5492 62.1223 68.804 62.3754C68.9792 62.5493 69.1465 62.6284 69.4889 62.6284C69.9189 62.6284 70.3489 62.5414 70.6914 62.3754C70.6914 62.2884 70.779 62.2884 70.779 62.2884V61.7744C70.6038 61.9404 70.4365 62.0274 70.1737 62.0274C69.8313 62.0274 69.6561 61.9404 69.4889 61.7744C69.3137 61.6083 69.2341 61.3474 69.2341 61.0074C69.2341 60.6673 69.3217 60.1533 69.5765 59.6393C69.7517 59.2123 70.0065 58.8723 70.2613 58.4453C70.4365 58.1923 70.6038 58.1053 70.779 57.9313V57.5043V57.5122ZM65.539 62.6284V62.0274H65.7939C66.2239 62.0274 66.6539 61.8535 67.0839 61.5134C67.1715 61.4265 67.2591 61.4265 67.3388 61.4265H67.4264C67.4264 61.4265 67.4264 61.5134 67.514 61.5134C67.514 61.7665 67.2512 62.0274 66.7415 62.2805C66.3115 62.4465 65.9691 62.5335 65.539 62.6205V62.6284ZM65.539 59.7263V59.4733C65.7939 59.3863 65.9691 59.2993 66.1363 59.2202C66.4787 58.9593 66.7415 58.5402 66.7415 58.1132C66.7415 57.9471 66.6539 57.8601 66.5663 57.7732C66.3911 57.5992 66.3115 57.5201 66.1363 57.5201C65.8815 57.5201 65.7063 57.6071 65.539 57.6941V57.5201V57.3541C65.8815 57.2671 66.1363 57.1801 66.3991 57.1801C66.7415 57.1801 67.0839 57.2671 67.2591 57.4331C67.4343 57.6941 67.5219 57.9471 67.5219 58.2002C67.5219 58.7142 67.2591 59.1412 66.6619 59.3942C66.3195 59.5682 66.0567 59.6473 65.547 59.7342L65.539 59.7263ZM65.539 57.5043V57.3383C65.539 57.3383 65.539 57.3383 65.539 57.4173V57.6783V57.5043ZM65.539 57.4252H65.4514C65.109 57.5992 64.9338 57.8522 64.5914 58.0262C64.249 58.4532 63.9065 58.8802 63.7313 59.3072C63.5562 59.7342 63.3889 60.2482 63.3889 60.7622C63.3889 61.3553 63.5641 61.8693 63.9065 62.2093C64.249 62.4623 64.679 62.6363 65.1966 62.6363H65.539V62.0353C65.1966 61.9483 64.9418 61.8614 64.679 61.6083C64.4242 61.2683 64.249 60.9283 64.249 60.4143C64.249 60.3563 64.2782 60.272 64.3366 60.1612C64.3366 60.0743 64.3366 59.9873 64.3366 59.9082C64.8542 59.9082 65.1966 59.8212 65.539 59.7421V59.4891C65.2842 59.5761 64.9418 59.6631 64.679 59.6631C64.5914 59.6631 64.5038 59.6631 64.4242 59.5761V59.4891C64.4242 59.3151 64.4242 59.2361 64.5118 59.0621C64.687 58.8091 64.7666 58.5481 64.9418 58.2951C65.0294 58.0341 65.2842 57.8681 65.4594 57.7811L65.547 57.6941V57.4331L65.539 57.4252ZM55.5768 60.5013C55.4892 60.6752 55.4892 60.8413 55.4892 61.0153V61.3553C55.4892 61.6083 55.4892 61.7823 55.6644 61.9483C55.752 62.0353 55.9193 62.0353 56.0944 62.1223H56.182C56.182 62.1223 56.182 62.1223 56.2696 62.1223C56.3572 62.2093 56.4369 62.2093 56.5245 62.2093V62.4623C56.4661 62.5203 56.4077 62.5493 56.3493 62.5493C55.752 62.4623 55.322 62.4623 54.9796 62.4623C54.6371 62.4623 54.2947 62.4623 53.8647 62.5493H53.7771C53.7187 62.5493 53.663 62.5203 53.6099 62.4623V62.3754C53.6099 62.2884 53.6975 62.2014 53.8647 62.1223C54.0399 62.1223 54.1195 62.1223 54.1195 62.0353C54.2947 62.0353 54.3823 61.9484 54.4619 61.8614C54.5495 61.6953 54.5495 61.5213 54.5495 61.2683L55.2344 55.3851V54.9581C55.2344 54.792 55.2344 54.705 55.1468 54.5311C55.0592 54.4441 54.892 54.3571 54.8044 54.278H54.6292C54.6292 54.191 54.5416 54.191 54.454 54.191C54.3664 54.191 54.2788 54.191 54.1992 54.1041V54.0171C54.1992 53.9591 54.2284 53.9301 54.2868 53.9301C54.2868 53.8431 54.3743 53.8431 54.3743 53.8431H54.5495C54.892 53.9301 55.2344 53.9301 55.5768 53.9301H56.4369C56.7793 53.8431 56.9545 53.8431 56.9545 53.8431C57.0129 53.8431 57.0713 53.8721 57.1297 53.9301V54.0171C57.1297 54.1041 57.0421 54.191 56.8749 54.191C56.7076 54.191 56.6121 54.278 56.5324 54.365C56.4448 54.452 56.3572 54.539 56.3572 54.705C56.2696 54.792 56.2696 54.9581 56.19 55.219L55.9352 57.5201V57.6071C55.9352 57.6651 55.9644 57.7231 56.0228 57.7811C56.0228 57.7811 56.1104 57.7811 56.198 57.7811L60.4106 57.8681C60.5858 57.8681 60.5858 57.7811 60.5858 57.7811C60.6734 57.6941 60.6734 57.6071 60.761 57.441L60.9362 55.393C60.9362 55.306 61.0238 55.2269 61.0238 55.14V54.966C61.0238 54.7999 60.9362 54.7129 60.8486 54.539C60.761 54.452 60.6814 54.365 60.5062 54.2859C60.4186 54.2859 60.4186 54.199 60.2513 54.199C60.1637 54.199 60.0761 54.199 59.9965 54.112C59.9965 54.112 59.9089 54.112 59.9089 54.025C59.9089 53.938 59.9965 53.938 59.9965 53.938C60.0549 53.88 60.1107 53.851 60.1637 53.851H60.3389C60.6814 53.938 61.0238 53.938 61.3662 53.938H62.2263C62.4811 53.851 62.6563 53.851 62.7439 53.851H62.8315C62.8899 53.909 62.9191 53.9644 62.9191 54.0171C62.9191 54.1041 62.8315 54.191 62.6643 54.191C62.497 54.191 62.3218 54.278 62.2342 54.365C62.1466 54.539 61.9794 54.879 61.9794 55.3851C61.921 55.4431 61.8918 55.4721 61.8918 55.4721L61.2866 60.5883C61.2866 60.7622 61.2866 60.8413 61.199 61.0153V61.3553C61.199 61.6083 61.2866 61.7823 61.3742 61.9483C61.4618 62.0353 61.629 62.1223 61.8042 62.1223C61.8626 62.1803 61.921 62.2093 61.9794 62.2093H62.2342C62.2926 62.2673 62.3218 62.3253 62.3218 62.3833C62.3218 62.4413 62.2926 62.4702 62.2342 62.4702C62.2342 62.5572 62.1466 62.5572 62.059 62.5572C61.5414 62.4702 61.0318 62.4702 60.6893 62.4702C60.4345 62.4702 60.0045 62.4702 59.662 62.5572H59.5745C59.4869 62.5572 59.3993 62.5572 59.3993 62.4702C59.3117 62.4702 59.3117 62.3833 59.3117 62.3833C59.3117 62.2963 59.3993 62.2093 59.6541 62.1302C59.7417 62.1302 59.8213 62.1302 59.9089 62.1302C59.9965 62.0432 60.0841 61.9563 60.1637 61.8772C60.2513 61.7111 60.3389 61.5372 60.3389 61.2841L60.5938 58.556V58.303C60.5938 58.303 60.5062 58.216 60.4186 58.216H56.1263C56.0387 58.216 55.9591 58.303 55.9591 58.303C55.8715 58.39 55.8715 58.469 55.7839 58.556L55.6087 60.5171L55.5768 60.5013Z" fill="#1D1D1B"/>
<path fill-rule="evenodd" clip-rule="evenodd" d="M127.884 60.652L128.314 58.0899C128.314 58.0029 128.314 58.0029 128.314 58.0029C128.314 58.0029 128.227 58.0029 128.227 57.916H127.63L127.542 57.829C127.542 57.742 127.717 57.6629 127.972 57.489C128.147 57.315 128.314 57.2359 128.49 57.062C128.577 56.975 128.752 56.8089 128.92 56.6349C129.087 56.3819 129.262 56.2949 129.35 56.2949H129.437V56.3819C129.437 56.4399 129.437 56.4979 129.437 56.5559L129.262 57.2359V57.3229H129.174L129.262 57.402C129.262 57.489 129.35 57.489 129.35 57.489H130.21C130.268 57.489 130.327 57.489 130.385 57.489V57.916H129.095V58.0029L128.665 60.391C128.665 60.6441 128.577 60.818 128.577 60.905C128.577 61.079 128.577 61.245 128.577 61.332C128.577 61.4981 128.577 61.672 128.752 61.759C128.84 61.846 128.92 61.933 129.095 61.933C129.358 61.933 129.612 61.759 129.867 61.593C130.042 61.3399 130.13 61.166 130.21 61.166C130.21 61.166 130.297 61.166 130.297 61.2529V61.3399C130.297 61.4269 130.297 61.5139 130.21 61.593C130.122 61.68 130.042 61.759 129.955 62.02C129.7 62.2809 129.437 62.447 129.182 62.534C129.015 62.621 128.752 62.7079 128.585 62.7079C128.322 62.7079 128.155 62.621 127.98 62.447C127.892 62.2809 127.805 62.02 127.805 61.68C127.805 61.419 127.805 61.166 127.892 60.739V60.652H127.884ZM131.062 61.933C131.062 61.846 131.062 61.68 131.149 61.593C131.237 61.506 131.325 61.506 131.492 61.506C131.579 61.506 131.747 61.593 131.834 61.933C131.922 61.933 131.922 61.933 131.922 61.933C132.009 62.107 132.089 62.273 132.177 62.273C132.352 62.36 132.439 62.4391 132.607 62.4391C132.862 62.4391 133.124 62.3521 133.292 62.186C133.467 62.0121 133.546 61.759 133.546 61.506C133.546 61.2529 133.546 61.079 133.371 60.992C133.284 60.818 133.029 60.478 132.766 60.138L132.678 60.051C131.994 59.4579 131.651 59.0309 131.651 58.6039C131.651 58.1769 131.826 57.9239 132.169 57.6708C132.432 57.4099 132.854 57.2438 133.371 57.2438C133.714 57.2438 133.976 57.3308 134.144 57.4969C134.319 57.5838 134.398 57.7499 134.398 57.9239C134.398 58.0109 134.398 58.0899 134.311 58.0899C134.311 58.1769 134.223 58.2639 134.136 58.2639C133.968 58.2639 133.793 58.0899 133.53 57.9239C133.355 57.7499 133.188 57.5838 132.933 57.5838C132.846 57.5838 132.678 57.6708 132.591 57.7578C132.416 57.9318 132.416 58.0109 132.416 58.0978C132.416 58.2718 132.503 58.4379 132.591 58.6909C132.678 58.8649 132.846 59.1179 133.188 59.371C133.276 59.4579 133.276 59.5449 133.355 59.5449C134.04 60.138 134.215 60.739 134.215 61.166C134.215 61.593 134.128 62.02 133.785 62.36C133.443 62.534 132.925 62.7 132.495 62.7C132.065 62.7 131.723 62.613 131.468 62.4391C131.213 62.4391 131.038 62.186 131.038 61.9251L131.062 61.933Z" fill="#1D1D1B"/>
<path d="M188 3.94531H0V43.1035H188V3.94531Z" fill="#C6171B"/>
<path fill-rule="evenodd" clip-rule="evenodd" d="M82.7318 15.2465H80.4781L79.6181 20.3785H76.9822L76.8229 21.5013H79.4429L78.113 29.3061C78.0095 29.8912 78.0095 30.3024 78.0095 30.6345C78.0095 31.3304 78.2165 31.8997 78.6784 32.2556C79.1403 32.6114 79.7933 32.7538 80.6533 32.7538C80.7011 32.7538 80.7011 32.7538 80.7011 32.7538H80.7329C82.453 32.7538 83.6953 31.9156 84.5634 30.3024L84.6748 30.0968L83.9581 29.7094L83.8387 29.8754C83.1379 30.8322 82.4849 31.2355 81.2108 31.2513C80.7489 31.2513 80.4542 31.1802 80.295 31.0615C80.1437 30.9429 80.0561 30.7769 80.0561 30.4368C80.0561 30.1601 80.1437 29.8912 80.1516 29.5591L81.4974 21.5092H85.3438L85.7499 20.3864H81.6806L82.7397 15.2544L82.7318 15.2465ZM105.443 20.5682L105.491 20.7896L105.427 20.5682C105.101 20.6552 104.782 20.7027 104.4 20.7501L104.201 20.7738V21.5804H105.587C108.979 21.5962 111.034 23.5257 111.05 26.3407C111.034 29.3614 109.17 31.3304 105.467 31.8128C104.95 31.8602 104.384 31.8997 103.827 31.8997H103.803C102.577 31.8997 100.801 31.7258 98.3958 31.3699L100.649 19.8724C101.597 15.1041 103.453 11.9885 105.603 10.7154C106.399 10.2568 107.211 9.98794 108.032 9.98794C110.532 9.98794 112.618 12.0123 112.634 14.8906C112.65 17.3261 110.102 19.5719 105.451 20.5603L105.443 20.5682ZM115.095 13.9971C115.095 10.9606 112.539 8.54877 109.266 8.54877C107.848 8.54877 106.518 8.84135 105.372 9.47395C102.362 11.1503 100.442 14.9381 99.2877 20.7501L97.3128 31.2197C96.9305 31.196 96.2138 31.1722 95.6245 31.1643L98.9691 13.9496C99.0647 13.0798 99.1603 12.4156 99.1603 11.8146C99.1603 10.7075 98.8656 9.76653 98.2524 9.10229C97.6393 8.43806 96.7314 8.06641 95.5847 8.06641C92.7975 8.06641 90.3846 10.7075 90.3846 13.9971C90.3846 14.6534 90.5359 15.3334 90.727 16.0135L90.7907 16.2507L91.7225 15.9107L91.6986 15.7288C91.603 15.0567 91.5074 14.4952 91.5074 14.005C91.5074 12.7477 91.9295 11.6169 92.5506 10.8103C93.1718 9.99585 93.9761 9.52139 94.7167 9.5293C95.4652 9.5293 95.9192 9.74281 96.2297 10.1224C96.5323 10.5019 96.6916 11.1029 96.6916 11.9095C96.6916 12.1941 96.6916 12.6528 96.604 13.4989L93.1877 31.1802C91.6667 31.3699 90.2253 31.6546 89.0547 32.0263L88.8636 32.0895L89.0388 33.1096L89.2857 33.0384C91.3243 32.4691 92.9727 32.2793 94.207 32.2793C97.4242 32.2793 101.159 32.9435 103.914 32.9435C104.456 32.9435 104.989 32.8961 105.523 32.8407C110.492 32.3742 113.598 29.6382 113.614 25.7319V25.6844C113.614 23.4545 112.276 21.7148 109.608 20.3231C113.224 18.6072 115.111 16.6382 115.111 13.9971H115.095ZM73.0642 24.6881C72.7297 25.4156 72.2997 25.7081 71.2406 25.7477H71.1689H71.153C70.93 25.7477 70.723 25.7477 70.5318 25.7477C69.7116 25.7477 69.1382 25.7398 68.7799 25.6923C69.0108 24.2452 69.2577 23.1698 69.624 22.4423C70.0142 21.6832 70.492 21.3036 71.2884 21.1613L71.2485 20.9399L71.3043 21.1613C71.4237 21.1297 71.575 21.1218 71.7662 21.1218C71.798 21.1218 71.8299 21.1218 71.8617 21.1218H71.8777C72.3634 21.1218 72.9049 21.2167 73.6376 21.2167H73.7092C73.5101 22.8377 73.3668 23.9843 73.0562 24.696L73.0642 24.6881ZM75.3178 20.1017C74.9675 20.1729 74.6011 20.1887 74.2348 20.1887C74.187 20.1887 74.1313 20.1887 74.0835 20.1887C73.4783 20.1887 72.7536 20.1017 72.0608 20.1017C71.7423 20.1017 71.4636 20.1491 71.2485 20.1491H71.2167C69.6399 20.3389 68.4454 20.9952 67.7845 22.2684C67.0041 23.5968 66.2794 26.23 66.2794 29.4563C66.2794 30.5555 66.5581 31.4016 67.1872 31.963C67.8163 32.5244 68.7401 32.7617 69.9664 32.7617C70.4602 32.7617 70.8982 32.7063 71.3043 32.6193C72.8014 32.2714 73.9641 31.362 74.8002 29.8359L74.9197 29.6145L74.0676 29.2507L73.9641 29.4247C73.319 30.5159 72.4351 31.1722 71.2167 31.3541H71.2008H71.1848C70.9459 31.4332 70.6354 31.4332 70.2929 31.4332H70.269C69.5683 31.4332 69.1223 31.275 68.8436 30.9746C68.5649 30.682 68.4136 30.1838 68.4136 29.4326C68.4136 28.7288 68.4932 27.8115 68.7082 26.5938C69.839 26.6808 70.6274 26.7677 71.153 26.7677H71.2247C73.4305 26.7282 74.6887 26.0719 75.055 24.7434C75.3497 23.4624 75.3497 22.1418 75.7718 20.5524L75.8036 20.418L75.4214 20.0622L75.3019 20.0859L75.3178 20.1017ZM121.434 21.1534C121.585 21.1139 121.768 21.1139 121.952 21.1139C122.453 21.1139 123.09 21.2087 123.727 21.2087H123.815C123.688 22.8298 123.568 23.9764 123.25 24.6802C122.915 25.4076 122.461 25.7002 121.378 25.7398C121.338 25.7398 121.306 25.7398 121.251 25.7398C121.028 25.7398 120.829 25.7398 120.646 25.7398C119.873 25.7398 119.316 25.7319 118.965 25.6923C119.148 24.2452 119.395 23.1619 119.762 22.4423C120.16 21.6832 120.646 21.2957 121.418 21.1613M125.384 20.1017C125.089 20.1808 124.675 20.1966 124.301 20.1887C123.544 20.1887 122.931 20.0938 122.19 20.0938C121.872 20.0938 121.585 20.1412 121.37 20.1491C119.722 20.2915 118.527 21.0031 117.874 22.2684C117.078 23.6047 116.465 26.2379 116.457 29.4484C116.457 30.5476 116.735 31.4016 117.373 31.963C118.01 32.5244 118.941 32.7617 120.192 32.7617H120.231C120.653 32.7617 121.052 32.7142 121.434 32.6114C122.931 32.3188 124.149 31.3541 124.89 29.828L124.978 29.6461L124.341 29.2191L124.213 29.401C123.409 30.5159 122.565 31.1722 121.346 31.4016C121.147 31.4332 120.932 31.4411 120.685 31.4411C120.622 31.4411 120.558 31.4411 120.486 31.4411C119.722 31.4411 119.244 31.283 118.957 30.9825C118.663 30.6899 118.511 30.1996 118.511 29.4405C118.511 28.7684 118.726 27.8353 118.83 26.6017C119.961 26.6966 120.821 26.7757 121.243 26.7757H121.386C123.528 26.7361 124.874 26.0798 125.248 24.7513C125.543 23.4624 125.447 22.1418 125.87 20.5682L125.901 20.4417L125.519 20.0622L125.392 20.0938L125.384 20.1017ZM147.522 30.1047C146.638 31.1802 145.897 31.6467 145.404 31.6388C144.91 31.6309 144.599 31.4253 144.345 30.9271C144.098 30.4289 143.962 29.6382 143.962 28.5944C143.962 24.7118 145.762 21.8651 147.769 21.2641C148.032 21.1692 148.294 21.1297 148.557 21.1297C149.823 21.1297 150.851 21.8651 151.376 23.4545C149.959 26.5859 148.645 28.7684 147.522 30.1126V30.1047ZM153.192 20.4101C152.881 21.0269 152.467 21.6516 152.085 22.2051C151.289 20.8055 150.094 20.0859 148.478 20.0938H148.454C148.199 20.0938 147.904 20.1491 147.673 20.1887C146.375 20.3864 145.165 21.0901 144.09 22.3079C142.473 24.1029 141.645 26.3012 141.637 28.5865C141.637 29.9229 141.956 30.9825 142.513 31.7179C143.062 32.4454 143.867 32.8486 144.759 32.8486H144.783H144.799C145.945 32.8486 146.909 32.216 147.872 31.1643C148.78 30.1285 149.704 28.6814 150.827 26.7994C149.919 32.4137 149.274 35.814 147.562 37.1424C146.885 37.7197 146.041 37.9886 144.878 37.9886C144.631 37.9886 144.297 37.9886 143.954 37.9332C143.843 36.5731 143.198 35.6954 141.972 35.7112H141.175L141.127 35.8693C141.048 36.1224 141.024 36.3359 141.024 36.5494C141.024 36.5889 141.024 36.6364 141.024 36.6917V36.7075C141.04 38.1467 142.561 38.977 144.695 38.977C145.826 38.977 146.877 38.7319 147.817 38.2811C149.561 37.3955 150.938 35.7191 151.52 33.3864C152.396 30.3182 152.722 25.9137 153.964 20.6552L154.012 20.4417L153.28 20.244L153.2 20.4101H153.192ZM160.885 29.5196C159.722 30.8797 158.647 31.5518 158.241 31.5281C158.002 31.5281 157.866 31.4253 157.723 31.1169C157.588 30.8085 157.516 30.2945 157.516 29.6224C157.516 25.1625 159.172 22.2604 161.155 21.3748C161.546 21.2008 161.999 21.1139 162.398 21.1139C163.274 21.1139 164.022 21.359 164.58 21.9837C163.672 25.3602 162.23 27.9064 160.885 29.5196ZM167.176 29.314C166.754 30.0019 166.379 30.5317 166.077 30.8718C165.782 31.2276 165.527 31.362 165.456 31.3462C165.288 31.3462 165.264 31.3146 165.225 31.2513C165.185 31.1881 165.153 31.0378 165.153 30.8164C165.153 29.1005 165.774 25.7319 167.064 20.6631L167.136 20.3785H165.057L164.986 20.8766C164.142 20.3389 163.401 20.0938 162.39 20.0938C161.928 20.0938 161.434 20.1966 160.996 20.2915C157.89 21.1929 155.223 24.7513 155.223 29.5275V29.5512C155.223 30.5476 155.446 31.3462 155.876 31.9076C156.298 32.4533 156.919 32.7458 157.643 32.7617H157.707H157.723C158.798 32.7458 159.977 31.9867 161.227 30.5476C161.96 29.7173 162.7 28.6656 163.489 27.3608C163.258 28.6339 163.122 29.7094 163.122 30.5476C163.122 31.2355 163.226 31.7732 163.497 32.1686C163.759 32.564 164.197 32.7696 164.723 32.7696H164.739C165.941 32.7538 167.032 31.71 168.004 29.741L168.107 29.5275L167.271 29.1558L167.168 29.3298L167.176 29.314ZM50.5596 19.817L50.2889 19.7775V20.0542C50.2968 20.244 50.2968 20.4259 50.2968 20.6236C50.2889 22.0944 51.1569 23.1856 52.7814 23.8182V24.0317C52.7814 25.0755 52.4231 26.1668 51.5789 27.4241C49.8668 30.1759 47.3026 31.5755 46.5142 31.5518C45.8931 31.5202 45.6303 31.3304 45.5984 30.4527C45.5984 30.1601 45.686 29.7884 45.694 29.3772L47.2309 20.1175L45.264 20.6315L44.4358 25.7081C42.9705 27.7008 41.7999 29.1716 40.9 30.1443C40.0001 31.1327 39.3233 31.5755 39.0605 31.5518C38.9331 31.5518 38.8455 31.4965 38.7419 31.3225C38.6464 31.1485 38.5747 30.848 38.5747 30.4448C38.5747 30.0257 38.5747 29.654 38.6623 29.314L39.817 22.6795V22.6637C39.817 22.2288 39.8887 21.9204 39.9125 21.6832V21.5567C39.9125 21.1139 39.8409 20.7501 39.6179 20.4892C39.3949 20.2203 39.0445 20.1096 38.6304 20.1096C37.1652 20.1096 36.2255 21.0743 35.2699 22.9405L35.1743 23.1224L35.9707 23.6522L36.0981 23.4545C36.5281 22.7665 36.8785 22.2367 37.1572 21.8888C37.4359 21.533 37.6589 21.3985 37.7226 21.4143C37.8182 21.4143 37.8022 21.4222 37.8261 21.4539C37.85 21.4855 37.8819 21.5962 37.8819 21.7702C37.8819 21.96 37.8739 22.2288 37.8739 22.553L36.7272 29.2349C36.6396 29.7963 36.5361 30.1759 36.5361 30.5555C36.5361 31.2513 36.6953 31.8048 37.0298 32.1923C37.3563 32.5798 37.8421 32.7775 38.4075 32.7775H38.4314C39.9922 32.7458 41.5849 31.0853 43.958 28.0171L43.6553 29.3377V29.3614C43.6553 29.741 43.6553 30.0336 43.6553 30.3024C43.6553 31.0853 43.8624 31.7021 44.2606 32.137C44.6587 32.564 45.2321 32.7775 45.8931 32.7775H45.909C47.2628 32.7696 49.1023 31.7653 51.0852 29.6224C52.9248 27.7008 53.9122 25.7002 53.9122 23.7629V23.7471C53.9122 21.6595 52.5266 20.1254 50.5596 19.8328V19.817ZM29.4964 16.2428L29.2655 16.3851L29.4407 16.5907L29.8946 17.1126L30.0539 17.0336C31.9571 16.0688 33.0003 14.7641 33.0003 13.1668C32.9844 10.1619 29.7433 8.09804 24.591 8.09804C19.1599 8.09804 15.4331 10.9448 15.4171 14.3608C15.4171 15.8632 16.0781 17.1205 17.2806 18.0141C19.0007 19.477 22.0586 20.6473 26.0801 22.3632C29.2257 23.6996 30.5317 24.949 30.5396 26.8547C30.5396 28.2227 29.807 29.48 28.5329 30.4131C27.2587 31.3462 25.4351 31.9393 23.3009 31.9393H23.285C21.0552 31.9393 18.9051 31.2039 17.1691 30.0336C15.6321 28.8395 14.8199 27.4557 14.8278 26.3803C14.8278 25.2495 15.441 24.5378 16.9063 23.7787L17.1213 23.668L16.7072 22.9879L16.54 23.0275C13.9519 23.6443 12.4468 25.1072 12.4468 27.0524C12.4866 30.2708 16.8266 33.0621 22.7673 33.0701C28.5329 33.0701 32.4668 29.9229 32.4747 26.1905C32.4747 24.1583 31.4395 22.7823 29.5601 21.3985C28.4453 20.5999 26.1598 19.7617 23.0062 18.3857C21.0552 17.5317 19.5979 16.8121 18.6503 16.053C17.7185 15.3018 17.2885 14.5506 17.2646 13.5384L17.2806 13.5147L17.2646 13.4435C17.2885 11.2057 19.4944 9.38697 23.4442 9.37906C25.6501 9.37906 27.5454 10.0117 28.8753 10.9368C30.2131 11.862 30.9697 13.0719 30.9697 14.2343C30.9697 14.9302 30.5078 15.626 29.4964 16.2665V16.2428ZM172.296 30.255L175.314 13.7519C175.45 13.0956 175.553 12.7081 175.553 12.376C175.553 11.7909 175.386 11.3085 175.067 10.9764C174.757 10.6443 174.319 10.4782 173.833 10.4782C172.439 10.4861 171.42 11.609 170.648 13.7203L170.56 13.9575L171.436 14.1631L171.508 13.9812C172.121 12.4551 172.647 11.8541 173.108 11.8857C173.292 11.8857 173.307 11.9174 173.339 11.9648C173.379 12.0202 173.411 12.1941 173.411 12.463C173.411 12.7477 173.411 13.0007 173.315 13.4594L170.154 30.3973V30.421C170.154 30.7531 170.011 31.109 170.003 31.4648C170.003 31.8444 170.138 32.1844 170.409 32.4137C170.688 32.6351 171.062 32.7379 171.524 32.7379H171.532C172.989 32.7379 174.128 31.7811 174.996 29.7963L175.091 29.5907L174.255 29.227L174.152 29.4089C173.363 30.8718 172.647 31.4727 172.439 31.4332C172.36 31.4332 172.272 31.4016 172.209 31.3541C172.153 31.3067 172.145 31.275 172.145 31.275C172.145 31.2355 172.145 31.2039 172.145 31.1722C172.145 30.9587 172.169 30.5713 172.28 30.2629V30.2471L172.296 30.255ZM139.367 29.2428C138.667 30.7215 138.085 31.4016 137.799 31.3462C137.496 31.3225 137.432 31.2434 137.401 30.8164C137.401 27.9934 138.722 24.8699 138.738 22.1497V22.1102C138.738 21.4776 138.643 20.9873 138.412 20.6394C138.181 20.2836 137.799 20.0938 137.361 20.1017C136.214 20.1096 135.163 21.0427 134 22.7665C132.949 24.3322 131.794 26.578 130.456 29.5196C130.958 25.7793 131.516 23.4387 131.524 22.3237C131.524 21.6357 131.412 21.098 131.165 20.7027C130.91 20.3073 130.488 20.0938 130.003 20.1017C128.657 20.1254 127.59 21.4855 126.857 23.9685L126.785 24.1978L127.661 24.4034L127.733 24.2136C128.322 22.5451 128.919 21.8334 129.19 21.8888C129.294 21.8888 129.477 21.9995 129.485 22.466C129.485 25.0676 128.442 28.1595 128.434 31.1881V31.2039C128.434 31.6467 128.482 32.0025 128.601 32.2793C128.704 32.5403 128.935 32.7379 129.222 32.7617H129.286C129.811 32.7617 130.17 32.4058 130.448 31.9156C130.735 31.4174 130.998 30.7452 131.356 29.9149C132.622 27.2659 133.65 25.2495 134.47 23.9131C135.274 22.5609 135.959 21.9362 136.214 21.9837C136.477 21.9837 136.684 22.2051 136.7 22.6558C136.708 24.8541 135.457 27.8274 135.449 31.0141C135.449 31.5597 135.561 31.9946 135.824 32.303C136.079 32.6114 136.469 32.7538 136.915 32.7538H136.931C138.476 32.7538 139.344 31.5755 140.299 29.5354L140.427 29.2665L139.431 29.0767L139.352 29.2349L139.367 29.2428ZM62.2021 24.7039C61.8677 25.4314 61.4456 25.724 60.3865 25.7635C60.3466 25.7635 60.2909 25.7635 60.2352 25.7635C59.1123 25.7635 58.3478 25.7635 57.9656 25.7081C58.1487 24.2373 58.3876 23.1461 58.754 22.4186C59.1442 21.6595 59.6299 21.2878 60.4263 21.1692C60.5935 21.1297 60.7687 21.1376 60.9757 21.1297C61.4615 21.1297 61.9951 21.2246 62.7755 21.2246H62.8073C62.6321 22.8456 62.5047 23.9922 62.1941 24.696L62.2021 24.7039ZM64.408 20.1175C64.0098 20.1966 63.5877 20.2045 63.2135 20.2045C62.5605 20.2045 61.8517 20.1175 61.2067 20.1175C60.8961 20.1175 60.6493 20.1649 60.3865 20.1649C58.738 20.2994 57.5356 21.0111 56.8905 22.2842C56.1499 23.6047 55.3854 26.23 55.3775 29.4484V29.48C55.3775 30.5713 55.6562 31.4174 56.2853 31.9788C56.9144 32.5403 57.8461 32.7775 59.0884 32.7775H59.1044C59.5901 32.7775 60.044 32.7221 60.4502 32.6272C61.9552 32.2793 63.0622 31.3225 63.9461 29.8596L64.0815 29.6382L63.2214 29.2744L63.1179 29.4405C62.4171 30.5396 61.581 31.196 60.3546 31.4253C60.1555 31.4648 59.8211 31.4648 59.5344 31.4727C58.7779 31.4727 58.3 31.3067 58.0134 31.0141C57.7187 30.7215 57.5674 30.2312 57.5674 29.4721V29.4326C57.5674 28.7367 57.655 27.8274 57.8222 26.6333C58.9451 26.7282 59.7335 26.8073 60.2511 26.8073C60.2909 26.8073 60.3228 26.8073 60.3466 26.8073H60.3785H60.3944H60.4103C62.5445 26.7677 63.7948 26.1035 64.1611 24.783C64.5115 23.5098 64.5035 22.1735 64.8778 20.592L64.9097 20.4654L64.5434 20.1017L64.4239 20.1254L64.408 20.1175Z" fill="white"/>
<path fill-rule="evenodd" clip-rule="evenodd" d="M79.8807 0.854015C79.8807 1.32847 79.4985 1.70803 79.0207 1.70803C78.5429 1.70803 78.1606 1.32847 78.1606 0.854015C78.1606 0.379562 78.5429 0 79.0207 0C79.4985 0 79.8807 0.379562 79.8807 0.854015Z" fill="#E94E1B"/>
<path fill-rule="evenodd" clip-rule="evenodd" d="M76.767 0.854015C76.767 1.32847 76.3847 1.70803 75.9069 1.70803C75.4291 1.70803 75.0469 1.32847 75.0469 0.854015C75.0469 0.379562 75.4291 0 75.9069 0C76.3847 0 76.767 0.379562 76.767 0.854015Z" fill="#E94E1B"/>
<path fill-rule="evenodd" clip-rule="evenodd" d="M82.66 0.854015C82.66 1.32847 82.2778 1.70803 81.8 1.70803C81.3222 1.70803 80.9399 1.32847 80.9399 0.854015C80.9399 0.379562 81.3222 0 81.8 0C82.2778 0 82.66 0.379562 82.66 0.854015Z" fill="#E94E1B"/>
<path fill-rule="evenodd" clip-rule="evenodd" d="M86.8568 0.854015C86.8568 1.32847 86.4746 1.70803 85.9968 1.70803C85.519 1.70803 85.1367 1.32847 85.1367 0.854015C85.1367 0.379562 85.519 0 85.9968 0C86.4746 0 86.8568 0.379562 86.8568 0.854015Z" fill="#E94E1B"/>
<path fill-rule="evenodd" clip-rule="evenodd" d="M89.6439 0.854015C89.6439 1.32847 89.2617 1.70803 88.7839 1.70803C88.3061 1.70803 87.9238 1.32847 87.9238 0.854015C87.9238 0.379562 88.3061 0 88.7839 0C89.2617 0 89.6439 0.379562 89.6439 0.854015Z" fill="#E94E1B"/>
<path fill-rule="evenodd" clip-rule="evenodd" d="M93.1322 0.854015C93.1322 1.32847 92.75 1.70803 92.2722 1.70803C91.7944 1.70803 91.4121 1.32847 91.4121 0.854015C91.4121 0.379562 91.7944 0 92.2722 0C92.75 0 93.1322 0.379562 93.1322 0.854015Z" fill="#E94E1B"/>
<path fill-rule="evenodd" clip-rule="evenodd" d="M95.911 0.854015C95.911 1.32847 95.5288 1.70803 95.051 1.70803C94.5732 1.70803 94.1909 1.32847 94.1909 0.854015C94.1909 0.379562 94.5732 0 95.051 0C95.5288 0 95.911 0.379562 95.911 0.854015Z" fill="#E94E1B"/>
<path fill-rule="evenodd" clip-rule="evenodd" d="M99.3436 0.854015C99.3436 1.32847 98.9614 1.70803 98.4836 1.70803C98.0058 1.70803 97.6235 1.32847 97.6235 0.854015C97.6235 0.379562 98.0058 0 98.4836 0C98.9614 0 99.3436 0.379562 99.3436 0.854015Z" fill="#E94E1B"/>
<path fill-rule="evenodd" clip-rule="evenodd" d="M102.122 0.854015C102.122 1.32847 101.74 1.70803 101.262 1.70803C100.785 1.70803 100.402 1.32847 100.402 0.854015C100.402 0.379562 100.785 0 101.262 0C101.74 0 102.122 0.379562 102.122 0.854015Z" fill="#E94E1B"/>
<path fill-rule="evenodd" clip-rule="evenodd" d="M106.328 0.854015C106.328 1.32847 105.945 1.70803 105.467 1.70803C104.99 1.70803 104.607 1.32847 104.607 0.854015C104.607 0.379562 104.99 0 105.467 0C105.945 0 106.328 0.379562 106.328 0.854015Z" fill="#E94E1B"/>
<path fill-rule="evenodd" clip-rule="evenodd" d="M109.107 0.854015C109.107 1.32847 108.725 1.70803 108.247 1.70803C107.769 1.70803 107.387 1.32847 107.387 0.854015C107.387 0.379562 107.769 0 108.247 0C108.725 0 109.107 0.379562 109.107 0.854015Z" fill="#E94E1B"/>
<path fill-rule="evenodd" clip-rule="evenodd" d="M112.595 0.854015C112.595 1.32847 112.212 1.70803 111.735 1.70803C111.257 1.70803 110.875 1.32847 110.875 0.854015C110.875 0.379562 111.257 0 111.735 0C112.212 0 112.595 0.379562 112.595 0.854015Z" fill="#E94E1B"/>
<path fill-rule="evenodd" clip-rule="evenodd" d="M115.374 0.854015C115.374 1.32847 114.992 1.70803 114.514 1.70803C114.036 1.70803 113.654 1.32847 113.654 0.854015C113.654 0.379562 114.036 0 114.514 0C114.992 0 115.374 0.379562 115.374 0.854015Z" fill="#E94E1B"/>
<path fill-rule="evenodd" clip-rule="evenodd" d="M119.3 0.854015C119.3 1.32847 118.917 1.70803 118.44 1.70803C117.962 1.70803 117.58 1.32847 117.58 0.854015C117.58 0.379562 117.962 0 118.44 0C118.917 0 119.3 0.379562 119.3 0.854015Z" fill="#E94E1B"/>
<path fill-rule="evenodd" clip-rule="evenodd" d="M122.087 0.854015C122.087 1.32847 121.705 1.70803 121.227 1.70803C120.749 1.70803 120.367 1.32847 120.367 0.854015C120.367 0.379562 120.749 0 121.227 0C121.705 0 122.087 0.379562 122.087 0.854015Z" fill="#E94E1B"/>
<path fill-rule="evenodd" clip-rule="evenodd" d="M126.284 0.854015C126.284 1.32847 125.901 1.70803 125.424 1.70803C124.946 1.70803 124.563 1.32847 124.563 0.854015C124.563 0.379562 124.946 0 125.424 0C125.901 0 126.284 0.379562 126.284 0.854015Z" fill="#E94E1B"/>
<path fill-rule="evenodd" clip-rule="evenodd" d="M129.063 0.854015C129.063 1.32847 128.681 1.70803 128.203 1.70803C127.725 1.70803 127.343 1.32847 127.343 0.854015C127.343 0.379562 127.725 0 128.203 0C128.681 0 129.063 0.379562 129.063 0.854015Z" fill="#E94E1B"/>
<path fill-rule="evenodd" clip-rule="evenodd" d="M132.551 0.854015C132.551 1.32847 132.168 1.70803 131.691 1.70803C131.213 1.70803 130.831 1.32847 130.831 0.854015C130.831 0.379562 131.213 0 131.691 0C132.168 0 132.551 0.379562 132.551 0.854015Z" fill="#E94E1B"/>
<path fill-rule="evenodd" clip-rule="evenodd" d="M135.338 0.854015C135.338 1.32847 134.956 1.70803 134.478 1.70803C134 1.70803 133.618 1.32847 133.618 0.854015C133.618 0.379562 134 0 134.478 0C134.956 0 135.338 0.379562 135.338 0.854015Z" fill="#E94E1B"/>
<path fill-rule="evenodd" clip-rule="evenodd" d="M138.77 0.854015C138.77 1.32847 138.388 1.70803 137.91 1.70803C137.433 1.70803 137.05 1.32847 137.05 0.854015C137.05 0.379562 137.433 0 137.91 0C138.388 0 138.77 0.379562 138.77 0.854015Z" fill="#E94E1B"/>
<path fill-rule="evenodd" clip-rule="evenodd" d="M141.55 0.854015C141.55 1.32847 141.167 1.70803 140.69 1.70803C140.212 1.70803 139.83 1.32847 139.83 0.854015C139.83 0.379562 140.212 0 140.69 0C141.167 0 141.55 0.379562 141.55 0.854015Z" fill="#E94E1B"/>
<path fill-rule="evenodd" clip-rule="evenodd" d="M145.746 0.854015C145.746 1.32847 145.364 1.70803 144.886 1.70803C144.408 1.70803 144.026 1.32847 144.026 0.854015C144.026 0.379562 144.408 0 144.886 0C145.364 0 145.746 0.379562 145.746 0.854015Z" fill="#E94E1B"/>
<path fill-rule="evenodd" clip-rule="evenodd" d="M148.534 0.854015C148.534 1.32847 148.151 1.70803 147.674 1.70803C147.196 1.70803 146.813 1.32847 146.813 0.854015C146.813 0.379562 147.196 0 147.674 0C148.151 0 148.534 0.379562 148.534 0.854015Z" fill="#E94E1B"/>
<path fill-rule="evenodd" clip-rule="evenodd" d="M154.952 0.854015C154.952 1.32847 154.57 1.70803 154.092 1.70803C153.614 1.70803 153.232 1.32847 153.232 0.854015C153.232 0.379562 153.614 0 154.092 0C154.57 0 154.952 0.379562 154.952 0.854015Z" fill="#E94E1B"/>
<path fill-rule="evenodd" clip-rule="evenodd" d="M151.846 0.854015C151.846 1.32847 151.464 1.70803 150.986 1.70803C150.508 1.70803 150.126 1.32847 150.126 0.854015C150.126 0.379562 150.508 0 150.986 0C151.464 0 151.846 0.379562 151.846 0.854015Z" fill="#E94E1B"/>
<path fill-rule="evenodd" clip-rule="evenodd" d="M157.739 0.854015C157.739 1.32847 157.357 1.70803 156.879 1.70803C156.401 1.70803 156.019 1.32847 156.019 0.854015C156.019 0.379562 156.401 0 156.879 0C157.357 0 157.739 0.379562 157.739 0.854015Z" fill="#E94E1B"/>
<path fill-rule="evenodd" clip-rule="evenodd" d="M161.936 0.854015C161.936 1.32847 161.554 1.70803 161.076 1.70803C160.598 1.70803 160.216 1.32847 160.216 0.854015C160.216 0.379562 160.598 0 161.076 0C161.554 0 161.936 0.379562 161.936 0.854015Z" fill="#E94E1B"/>
<path fill-rule="evenodd" clip-rule="evenodd" d="M164.715 0.854015C164.715 1.32847 164.333 1.70803 163.855 1.70803C163.377 1.70803 162.995 1.32847 162.995 0.854015C162.995 0.379562 163.377 0 163.855 0C164.333 0 164.715 0.379562 164.715 0.854015Z" fill="#E94E1B"/>
<path fill-rule="evenodd" clip-rule="evenodd" d="M168.203 0.854015C168.203 1.32847 167.821 1.70803 167.343 1.70803C166.865 1.70803 166.483 1.32847 166.483 0.854015C166.483 0.379562 166.865 0 167.343 0C167.821 0 168.203 0.379562 168.203 0.854015Z" fill="#E94E1B"/>
<path fill-rule="evenodd" clip-rule="evenodd" d="M170.99 0.854015C170.99 1.32847 170.608 1.70803 170.13 1.70803C169.652 1.70803 169.27 1.32847 169.27 0.854015C169.27 0.379562 169.652 0 170.13 0C170.608 0 170.99 0.379562 170.99 0.854015Z" fill="#E94E1B"/>
<path fill-rule="evenodd" clip-rule="evenodd" d="M174.422 0.854015C174.422 1.32847 174.04 1.70803 173.562 1.70803C173.084 1.70803 172.702 1.32847 172.702 0.854015C172.702 0.379562 173.084 0 173.562 0C174.04 0 174.422 0.379562 174.422 0.854015Z" fill="#E94E1B"/>
<path fill-rule="evenodd" clip-rule="evenodd" d="M177.202 0.854015C177.202 1.32847 176.819 1.70803 176.341 1.70803C175.864 1.70803 175.481 1.32847 175.481 0.854015C175.481 0.379562 175.864 0 176.341 0C176.819 0 177.202 0.379562 177.202 0.854015Z" fill="#E94E1B"/>
<path fill-rule="evenodd" clip-rule="evenodd" d="M181.398 0.854015C181.398 1.32847 181.016 1.70803 180.538 1.70803C180.06 1.70803 179.678 1.32847 179.678 0.854015C179.678 0.379562 180.06 0 180.538 0C181.016 0 181.398 0.379562 181.398 0.854015Z" fill="#E94E1B"/>
<path fill-rule="evenodd" clip-rule="evenodd" d="M184.185 0.854015C184.185 1.32847 183.803 1.70803 183.325 1.70803C182.848 1.70803 182.465 1.32847 182.465 0.854015C182.465 0.379562 182.848 0 183.325 0C183.803 0 184.185 0.379562 184.185 0.854015Z" fill="#E94E1B"/>
<path fill-rule="evenodd" clip-rule="evenodd" d="M187.674 0.854015C187.674 1.32847 187.291 1.70803 186.814 1.70803C186.336 1.70803 185.954 1.32847 185.954 0.854015C185.954 0.379562 186.336 0 186.814 0C187.291 0 187.674 0.379562 187.674 0.854015Z" fill="#E94E1B"/>
<path fill-rule="evenodd" clip-rule="evenodd" d="M1.90335 0.854015C1.90335 1.32847 1.52111 1.70803 1.0433 1.70803C0.5655 1.70803 0.175293 1.32847 0.175293 0.854015C0.175293 0.379562 0.5655 0 1.0433 0C1.52111 0 1.90335 0.379562 1.90335 0.854015Z" fill="#E94E1B"/>
<path fill-rule="evenodd" clip-rule="evenodd" d="M4.6825 0.854015C4.6825 1.32847 4.30025 1.70803 3.82245 1.70803C3.34465 1.70803 2.9624 1.32847 2.9624 0.854015C2.9624 0.379562 3.34465 0 3.82245 0C4.30025 0 4.6825 0.379562 4.6825 0.854015Z" fill="#E94E1B"/>
<path fill-rule="evenodd" clip-rule="evenodd" d="M8.17029 0.854015C8.17029 1.32847 7.78805 1.70803 7.31024 1.70803C6.83244 1.70803 6.4502 1.32847 6.4502 0.854015C6.4502 0.379562 6.83244 0 7.31024 0C7.78805 0 8.17029 0.379562 8.17029 0.854015Z" fill="#E94E1B"/>
<path fill-rule="evenodd" clip-rule="evenodd" d="M10.9574 0.854015C10.9574 1.32847 10.5752 1.70803 10.0974 1.70803C9.61955 1.70803 9.2373 1.32847 9.2373 0.854015C9.2373 0.379562 9.61955 0 10.0974 0C10.5752 0 10.9574 0.379562 10.9574 0.854015Z" fill="#E94E1B"/>
<path fill-rule="evenodd" clip-rule="evenodd" d="M14.39 0.854015C14.39 1.32847 14.0078 1.70803 13.53 1.70803C13.0522 1.70803 12.6699 1.32847 12.6699 0.854015C12.6699 0.379562 13.0522 0 13.53 0C14.0078 0 14.39 0.379562 14.39 0.854015Z" fill="#E94E1B"/>
<path fill-rule="evenodd" clip-rule="evenodd" d="M17.1693 0.854015C17.1693 1.32847 16.7871 1.70803 16.3093 1.70803C15.8315 1.70803 15.4492 1.32847 15.4492 0.854015C15.4492 0.379562 15.8315 0 16.3093 0C16.7871 0 17.1693 0.379562 17.1693 0.854015Z" fill="#E94E1B"/>
<path fill-rule="evenodd" clip-rule="evenodd" d="M21.3656 0.854015C21.3656 1.32847 20.9834 1.70803 20.5056 1.70803C20.0278 1.70803 19.6455 1.32847 19.6455 0.854015C19.6455 0.379562 20.0357 0 20.5056 0C20.9754 0 21.3656 0.379562 21.3656 0.854015Z" fill="#E94E1B"/>
<path fill-rule="evenodd" clip-rule="evenodd" d="M24.1532 0.854015C24.1532 1.32847 23.771 1.70803 23.2932 1.70803C22.8153 1.70803 22.4331 1.32847 22.4331 0.854015C22.4331 0.379562 22.8153 0 23.2932 0C23.771 0 24.1532 0.379562 24.1532 0.854015Z" fill="#E94E1B"/>
<path fill-rule="evenodd" clip-rule="evenodd" d="M27.641 0.854015C27.641 1.32847 27.2588 1.70803 26.7809 1.70803C26.3031 1.70803 25.9209 1.32847 25.9209 0.854015C25.9209 0.379562 26.3031 0 26.7809 0C27.2588 0 27.641 0.379562 27.641 0.854015Z" fill="#E94E1B"/>
<path fill-rule="evenodd" clip-rule="evenodd" d="M30.4203 0.854015C30.4203 1.32847 30.038 1.70803 29.5602 1.70803C29.0824 1.70803 28.7002 1.32847 28.7002 0.854015C28.7002 0.379562 29.0824 0 29.5602 0C30.038 0 30.4203 0.379562 30.4203 0.854015Z" fill="#E94E1B"/>
<path fill-rule="evenodd" clip-rule="evenodd" d="M34.3461 0.854015C34.3461 1.32847 33.9638 1.70803 33.486 1.70803C33.0082 1.70803 32.626 1.32847 32.626 0.854015C32.626 0.379562 33.0082 0 33.486 0C33.9638 0 34.3461 0.379562 34.3461 0.854015Z" fill="#E94E1B"/>
<path fill-rule="evenodd" clip-rule="evenodd" d="M37.1254 0.854015C37.1254 1.32847 36.7431 1.70803 36.2653 1.70803C35.7875 1.70803 35.4053 1.32847 35.4053 0.854015C35.4053 0.379562 35.7875 0 36.2653 0C36.7431 0 37.1254 0.379562 37.1254 0.854015Z" fill="#E94E1B"/>
<path fill-rule="evenodd" clip-rule="evenodd" d="M41.33 0.854015C41.33 1.32847 40.9477 1.70803 40.4699 1.70803C39.9921 1.70803 39.6099 1.32847 39.6099 0.854015C39.6099 0.379562 39.9921 0 40.4699 0C40.9477 0 41.33 0.379562 41.33 0.854015Z" fill="#E94E1B"/>
<path fill-rule="evenodd" clip-rule="evenodd" d="M44.1093 0.854015C44.1093 1.32847 43.727 1.70803 43.2492 1.70803C42.7714 1.70803 42.3892 1.32847 42.3892 0.854015C42.3892 0.379562 42.7714 0 43.2492 0C43.727 0 44.1093 0.379562 44.1093 0.854015Z" fill="#E94E1B"/>
<path fill-rule="evenodd" clip-rule="evenodd" d="M47.597 0.854015C47.597 1.32847 47.2148 1.70803 46.737 1.70803C46.2592 1.70803 45.877 1.32847 45.877 0.854015C45.877 0.379562 46.2592 0 46.737 0C47.2148 0 47.597 0.379562 47.597 0.854015Z" fill="#E94E1B"/>
<path fill-rule="evenodd" clip-rule="evenodd" d="M50.3763 0.854015C50.3763 1.32847 49.9941 1.70803 49.5163 1.70803C49.0385 1.70803 48.6562 1.32847 48.6562 0.854015C48.6562 0.379562 49.0465 0 49.5163 0C49.9861 0 50.3763 0.379562 50.3763 0.854015Z" fill="#E94E1B"/>
<path fill-rule="evenodd" clip-rule="evenodd" d="M53.8085 0.854015C53.8085 1.32847 53.4183 1.70803 52.9484 1.70803C52.4786 1.70803 52.0884 1.32847 52.0884 0.854015C52.0884 0.379562 52.4706 0 52.9484 0C53.4262 0 53.8085 0.379562 53.8085 0.854015Z" fill="#E94E1B"/>
<path fill-rule="evenodd" clip-rule="evenodd" d="M56.5961 0.854015C56.5961 1.32847 56.2138 1.70803 55.736 1.70803C55.2582 1.70803 54.876 1.32847 54.876 0.854015C54.876 0.379562 55.2582 0 55.736 0C56.2138 0 56.5961 0.379562 56.5961 0.854015Z" fill="#E94E1B"/>
<path fill-rule="evenodd" clip-rule="evenodd" d="M60.7928 0.854015C60.7928 1.32847 60.4106 1.70803 59.9328 1.70803C59.455 1.70803 59.0728 1.32847 59.0728 0.854015C59.0728 0.379562 59.455 0 59.9328 0C60.4106 0 60.7928 0.379562 60.7928 0.854015Z" fill="#E94E1B"/>
<path fill-rule="evenodd" clip-rule="evenodd" d="M63.5717 0.854015C63.5717 1.32847 63.1894 1.70803 62.7116 1.70803C62.2338 1.70803 61.8516 1.32847 61.8516 0.854015C61.8516 0.379562 62.2338 0 62.7116 0C63.1894 0 63.5717 0.379562 63.5717 0.854015Z" fill="#E94E1B"/>
<path fill-rule="evenodd" clip-rule="evenodd" d="M67.0599 0.854015C67.0599 1.32847 66.6697 1.70803 66.1999 1.70803C65.73 1.70803 65.3398 1.32847 65.3398 0.854015C65.3398 0.379562 65.7221 0 66.1999 0C66.6777 0 67.0599 0.379562 67.0599 0.854015Z" fill="#E94E1B"/>
<path fill-rule="evenodd" clip-rule="evenodd" d="M69.847 0.854015C69.847 1.32847 69.4648 1.70803 68.987 1.70803C68.5092 1.70803 68.127 1.32847 68.127 0.854015C68.127 0.379562 68.5092 0 68.987 0C69.4648 0 69.847 0.379562 69.847 0.854015Z" fill="#E94E1B"/>
<path fill-rule="evenodd" clip-rule="evenodd" d="M73.2631 0.854015C73.2631 1.32847 72.8808 1.70803 72.403 1.70803C71.9252 1.70803 71.543 1.32847 71.543 0.854015C71.543 0.379562 71.9252 0 72.403 0C72.8808 0 73.2631 0.379562 73.2631 0.854015Z" fill="#E94E1B"/>
<path d="M187.904 2H0V3.11496H187.904V2Z" fill="#C6171B"/>
<path fill-rule="evenodd" clip-rule="evenodd" d="M79.8807 46.0532C79.8807 46.5277 79.4985 46.9072 79.0207 46.9072C78.5429 46.9072 78.1606 46.5277 78.1606 46.0532C78.1606 45.5788 78.5429 45.1992 79.0207 45.1992C79.4985 45.1992 79.8807 45.5788 79.8807 46.0532Z" fill="#E94E1B"/>
<path fill-rule="evenodd" clip-rule="evenodd" d="M76.767 46.0532C76.767 46.5277 76.3847 46.9072 75.9069 46.9072C75.4291 46.9072 75.0469 46.5277 75.0469 46.0532C75.0469 45.5788 75.4291 45.1992 75.9069 45.1992C76.3847 45.1992 76.767 45.5788 76.767 46.0532Z" fill="#E94E1B"/>
<path fill-rule="evenodd" clip-rule="evenodd" d="M82.66 46.0532C82.66 46.5277 82.2778 46.9072 81.8 46.9072C81.3222 46.9072 80.9399 46.5277 80.9399 46.0532C80.9399 45.5788 81.3222 45.1992 81.8 45.1992C82.2778 45.1992 82.66 45.5788 82.66 46.0532Z" fill="#E94E1B"/>
<path fill-rule="evenodd" clip-rule="evenodd" d="M86.8568 46.0532C86.8568 46.5277 86.4746 46.9072 85.9968 46.9072C85.519 46.9072 85.1367 46.5277 85.1367 46.0532C85.1367 45.5788 85.519 45.1992 85.9968 45.1992C86.4746 45.1992 86.8568 45.5788 86.8568 46.0532Z" fill="#E94E1B"/>
<path fill-rule="evenodd" clip-rule="evenodd" d="M89.6439 46.0532C89.6439 46.5277 89.2617 46.9072 88.7839 46.9072C88.3061 46.9072 87.9238 46.5277 87.9238 46.0532C87.9238 45.5788 88.3061 45.1992 88.7839 45.1992C89.2617 45.1992 89.6439 45.5788 89.6439 46.0532Z" fill="#E94E1B"/>
<path fill-rule="evenodd" clip-rule="evenodd" d="M93.1322 46.0532C93.1322 46.5277 92.75 46.9072 92.2722 46.9072C91.7944 46.9072 91.4121 46.5277 91.4121 46.0532C91.4121 45.5788 91.7944 45.1992 92.2722 45.1992C92.75 45.1992 93.1322 45.5788 93.1322 46.0532Z" fill="#E94E1B"/>
<path fill-rule="evenodd" clip-rule="evenodd" d="M95.911 46.0532C95.911 46.5277 95.5288 46.9072 95.051 46.9072C94.5732 46.9072 94.1909 46.5277 94.1909 46.0532C94.1909 45.5788 94.5732 45.1992 95.051 45.1992C95.5288 45.1992 95.911 45.5788 95.911 46.0532Z" fill="#E94E1B"/>
<path fill-rule="evenodd" clip-rule="evenodd" d="M99.3436 46.0532C99.3436 46.5277 98.9614 46.9072 98.4836 46.9072C98.0058 46.9072 97.6235 46.5277 97.6235 46.0532C97.6235 45.5788 98.0058 45.1992 98.4836 45.1992C98.9614 45.1992 99.3436 45.5788 99.3436 46.0532Z" fill="#E94E1B"/>
<path fill-rule="evenodd" clip-rule="evenodd" d="M102.122 46.0532C102.122 46.5277 101.74 46.9072 101.262 46.9072C100.785 46.9072 100.402 46.5277 100.402 46.0532C100.402 45.5788 100.785 45.1992 101.262 45.1992C101.74 45.1992 102.122 45.5788 102.122 46.0532Z" fill="#E94E1B"/>
<path fill-rule="evenodd" clip-rule="evenodd" d="M106.328 46.0532C106.328 46.5277 105.945 46.9072 105.467 46.9072C104.99 46.9072 104.607 46.5277 104.607 46.0532C104.607 45.5788 104.99 45.1992 105.467 45.1992C105.945 45.1992 106.328 45.5788 106.328 46.0532Z" fill="#E94E1B"/>
<path fill-rule="evenodd" clip-rule="evenodd" d="M109.107 46.0532C109.107 46.5277 108.725 46.9072 108.247 46.9072C107.769 46.9072 107.387 46.5277 107.387 46.0532C107.387 45.5788 107.769 45.1992 108.247 45.1992C108.725 45.1992 109.107 45.5788 109.107 46.0532Z" fill="#E94E1B"/>
<path fill-rule="evenodd" clip-rule="evenodd" d="M112.595 46.0532C112.595 46.5277 112.212 46.9072 111.735 46.9072C111.257 46.9072 110.875 46.5277 110.875 46.0532C110.875 45.5788 111.257 45.1992 111.735 45.1992C112.212 45.1992 112.595 45.5788 112.595 46.0532Z" fill="#E94E1B"/>
<path fill-rule="evenodd" clip-rule="evenodd" d="M115.374 46.0532C115.374 46.5277 114.992 46.9072 114.514 46.9072C114.036 46.9072 113.654 46.5277 113.654 46.0532C113.654 45.5788 114.036 45.1992 114.514 45.1992C114.992 45.1992 115.374 45.5788 115.374 46.0532Z" fill="#E94E1B"/>
<path fill-rule="evenodd" clip-rule="evenodd" d="M119.3 46.0532C119.3 46.5277 118.917 46.9072 118.44 46.9072C117.962 46.9072 117.58 46.5277 117.58 46.0532C117.58 45.5788 117.962 45.1992 118.44 45.1992C118.917 45.1992 119.3 45.5788 119.3 46.0532Z" fill="#E94E1B"/>
<path fill-rule="evenodd" clip-rule="evenodd" d="M122.087 46.0532C122.087 46.5277 121.705 46.9072 121.227 46.9072C120.749 46.9072 120.367 46.5277 120.367 46.0532C120.367 45.5788 120.749 45.1992 121.227 45.1992C121.705 45.1992 122.087 45.5788 122.087 46.0532Z" fill="#E94E1B"/>
<path fill-rule="evenodd" clip-rule="evenodd" d="M126.284 46.0532C126.284 46.5277 125.901 46.9072 125.424 46.9072C124.946 46.9072 124.563 46.5277 124.563 46.0532C124.563 45.5788 124.946 45.1992 125.424 45.1992C125.901 45.1992 126.284 45.5788 126.284 46.0532Z" fill="#E94E1B"/>
<path fill-rule="evenodd" clip-rule="evenodd" d="M129.063 46.0532C129.063 46.5277 128.681 46.9072 128.203 46.9072C127.725 46.9072 127.343 46.5277 127.343 46.0532C127.343 45.5788 127.725 45.1992 128.203 45.1992C128.681 45.1992 129.063 45.5788 129.063 46.0532Z" fill="#E94E1B"/>
<path fill-rule="evenodd" clip-rule="evenodd" d="M132.551 46.0532C132.551 46.5277 132.168 46.9072 131.691 46.9072C131.213 46.9072 130.831 46.5277 130.831 46.0532C130.831 45.5788 131.213 45.1992 131.691 45.1992C132.168 45.1992 132.551 45.5788 132.551 46.0532Z" fill="#E94E1B"/>
<path fill-rule="evenodd" clip-rule="evenodd" d="M135.338 46.0532C135.338 46.5277 134.956 46.9072 134.478 46.9072C134 46.9072 133.618 46.5277 133.618 46.0532C133.618 45.5788 134 45.1992 134.478 45.1992C134.956 45.1992 135.338 45.5788 135.338 46.0532Z" fill="#E94E1B"/>
<path fill-rule="evenodd" clip-rule="evenodd" d="M138.77 46.0532C138.77 46.5277 138.388 46.9072 137.91 46.9072C137.433 46.9072 137.05 46.5277 137.05 46.0532C137.05 45.5788 137.433 45.1992 137.91 45.1992C138.388 45.1992 138.77 45.5788 138.77 46.0532Z" fill="#E94E1B"/>
<path fill-rule="evenodd" clip-rule="evenodd" d="M141.55 46.0532C141.55 46.5277 141.167 46.9072 140.69 46.9072C140.212 46.9072 139.83 46.5277 139.83 46.0532C139.83 45.5788 140.212 45.1992 140.69 45.1992C141.167 45.1992 141.55 45.5788 141.55 46.0532Z" fill="#E94E1B"/>
<path fill-rule="evenodd" clip-rule="evenodd" d="M145.746 46.0532C145.746 46.5277 145.364 46.9072 144.886 46.9072C144.408 46.9072 144.026 46.5277 144.026 46.0532C144.026 45.5788 144.408 45.1992 144.886 45.1992C145.364 45.1992 145.746 45.5788 145.746 46.0532Z" fill="#E94E1B"/>
<path fill-rule="evenodd" clip-rule="evenodd" d="M148.534 46.0532C148.534 46.5277 148.151 46.9072 147.674 46.9072C147.196 46.9072 146.813 46.5277 146.813 46.0532C146.813 45.5788 147.196 45.1992 147.674 45.1992C148.151 45.1992 148.534 45.5788 148.534 46.0532Z" fill="#E94E1B"/>
<path fill-rule="evenodd" clip-rule="evenodd" d="M154.952 46.0532C154.952 46.5277 154.57 46.9072 154.092 46.9072C153.614 46.9072 153.232 46.5277 153.232 46.0532C153.232 45.5788 153.614 45.1992 154.092 45.1992C154.57 45.1992 154.952 45.5788 154.952 46.0532Z" fill="#E94E1B"/>
<path fill-rule="evenodd" clip-rule="evenodd" d="M151.846 46.0532C151.846 46.5277 151.464 46.9072 150.986 46.9072C150.508 46.9072 150.126 46.5277 150.126 46.0532C150.126 45.5788 150.508 45.1992 150.986 45.1992C151.464 45.1992 151.846 45.5788 151.846 46.0532Z" fill="#E94E1B"/>
<path fill-rule="evenodd" clip-rule="evenodd" d="M157.739 46.0532C157.739 46.5277 157.357 46.9072 156.879 46.9072C156.401 46.9072 156.019 46.5277 156.019 46.0532C156.019 45.5788 156.401 45.1992 156.879 45.1992C157.357 45.1992 157.739 45.5788 157.739 46.0532Z" fill="#E94E1B"/>
<path fill-rule="evenodd" clip-rule="evenodd" d="M161.936 46.0532C161.936 46.5277 161.554 46.9072 161.076 46.9072C160.598 46.9072 160.216 46.5277 160.216 46.0532C160.216 45.5788 160.598 45.1992 161.076 45.1992C161.554 45.1992 161.936 45.5788 161.936 46.0532Z" fill="#E94E1B"/>
<path fill-rule="evenodd" clip-rule="evenodd" d="M164.715 46.0532C164.715 46.5277 164.333 46.9072 163.855 46.9072C163.377 46.9072 162.995 46.5277 162.995 46.0532C162.995 45.5788 163.377 45.1992 163.855 45.1992C164.333 45.1992 164.715 45.5788 164.715 46.0532Z" fill="#E94E1B"/>
<path fill-rule="evenodd" clip-rule="evenodd" d="M168.203 46.0532C168.203 46.5277 167.821 46.9072 167.343 46.9072C166.865 46.9072 166.483 46.5277 166.483 46.0532C166.483 45.5788 166.865 45.1992 167.343 45.1992C167.821 45.1992 168.203 45.5788 168.203 46.0532Z" fill="#E94E1B"/>
<path fill-rule="evenodd" clip-rule="evenodd" d="M170.99 46.0532C170.99 46.5277 170.608 46.9072 170.13 46.9072C169.652 46.9072 169.27 46.5277 169.27 46.0532C169.27 45.5788 169.652 45.1992 170.13 45.1992C170.608 45.1992 170.99 45.5788 170.99 46.0532Z" fill="#E94E1B"/>
<path fill-rule="evenodd" clip-rule="evenodd" d="M174.422 46.0532C174.422 46.5277 174.04 46.9072 173.562 46.9072C173.084 46.9072 172.702 46.5277 172.702 46.0532C172.702 45.5788 173.084 45.1992 173.562 45.1992C174.04 45.1992 174.422 45.5788 174.422 46.0532Z" fill="#E94E1B"/>
<path fill-rule="evenodd" clip-rule="evenodd" d="M177.202 46.0532C177.202 46.5277 176.819 46.9072 176.341 46.9072C175.864 46.9072 175.481 46.5277 175.481 46.0532C175.481 45.5788 175.864 45.1992 176.341 45.1992C176.819 45.1992 177.202 45.5788 177.202 46.0532Z" fill="#E94E1B"/>
<path fill-rule="evenodd" clip-rule="evenodd" d="M181.398 46.0532C181.398 46.5277 181.016 46.9072 180.538 46.9072C180.06 46.9072 179.678 46.5277 179.678 46.0532C179.678 45.5788 180.06 45.1992 180.538 45.1992C181.016 45.1992 181.398 45.5788 181.398 46.0532Z" fill="#E94E1B"/>
<path fill-rule="evenodd" clip-rule="evenodd" d="M184.185 46.0532C184.185 46.5277 183.803 46.9072 183.325 46.9072C182.848 46.9072 182.465 46.5277 182.465 46.0532C182.465 45.5788 182.848 45.1992 183.325 45.1992C183.803 45.1992 184.185 45.5788 184.185 46.0532Z" fill="#E94E1B"/>
<path fill-rule="evenodd" clip-rule="evenodd" d="M187.674 46.0532C187.674 46.5277 187.291 46.9072 186.814 46.9072C186.336 46.9072 185.954 46.5277 185.954 46.0532C185.954 45.5788 186.336 45.1992 186.814 45.1992C187.291 45.1992 187.674 45.5788 187.674 46.0532Z" fill="#E94E1B"/>
<path fill-rule="evenodd" clip-rule="evenodd" d="M1.9032 46.0532C1.9032 46.5277 1.52096 46.9072 1.04315 46.9072C0.565349 46.9072 0.183105 46.5277 0.183105 46.0532C0.183105 45.5788 0.565349 45.1992 1.04315 45.1992C1.52096 45.1992 1.9032 45.5788 1.9032 46.0532Z" fill="#E94E1B"/>
<path fill-rule="evenodd" clip-rule="evenodd" d="M4.6825 46.0532C4.6825 46.5277 4.30025 46.9072 3.82245 46.9072C3.34465 46.9072 2.9624 46.5277 2.9624 46.0532C2.9624 45.5788 3.34465 45.1992 3.82245 45.1992C4.30025 45.1992 4.6825 45.5788 4.6825 46.0532Z" fill="#E94E1B"/>
<path fill-rule="evenodd" clip-rule="evenodd" d="M8.17029 46.0532C8.17029 46.5277 7.78805 46.9072 7.31024 46.9072C6.83244 46.9072 6.4502 46.5277 6.4502 46.0532C6.4502 45.5788 6.83244 45.1992 7.31024 45.1992C7.78805 45.1992 8.17029 45.5788 8.17029 46.0532Z" fill="#E94E1B"/>
<path fill-rule="evenodd" clip-rule="evenodd" d="M10.9574 46.0532C10.9574 46.5277 10.5752 46.9072 10.0974 46.9072C9.61955 46.9072 9.2373 46.5277 9.2373 46.0532C9.2373 45.5788 9.61955 45.1992 10.0974 45.1992C10.5752 45.1992 10.9574 45.5788 10.9574 46.0532Z" fill="#E94E1B"/>
<path fill-rule="evenodd" clip-rule="evenodd" d="M14.39 46.0532C14.39 46.5277 14.0078 46.9072 13.53 46.9072C13.0522 46.9072 12.6699 46.5277 12.6699 46.0532C12.6699 45.5788 13.0522 45.1992 13.53 45.1992C14.0078 45.1992 14.39 45.5788 14.39 46.0532Z" fill="#E94E1B"/>
<path fill-rule="evenodd" clip-rule="evenodd" d="M17.1693 46.0532C17.1693 46.5277 16.7871 46.9072 16.3093 46.9072C15.8315 46.9072 15.4492 46.5277 15.4492 46.0532C15.4492 45.5788 15.8315 45.1992 16.3093 45.1992C16.7871 45.1992 17.1693 45.5788 17.1693 46.0532Z" fill="#E94E1B"/>
<path fill-rule="evenodd" clip-rule="evenodd" d="M21.3656 46.0532C21.3656 46.5277 20.9834 46.9072 20.5056 46.9072C20.0278 46.9072 19.6455 46.5277 19.6455 46.0532C19.6455 45.5788 20.0357 45.1992 20.5056 45.1992C20.9754 45.1992 21.3656 45.5788 21.3656 46.0532Z" fill="#E94E1B"/>
<path fill-rule="evenodd" clip-rule="evenodd" d="M24.1532 46.0532C24.1532 46.5277 23.771 46.9072 23.2932 46.9072C22.8153 46.9072 22.4331 46.5277 22.4331 46.0532C22.4331 45.5788 22.8153 45.1992 23.2932 45.1992C23.771 45.1992 24.1532 45.5788 24.1532 46.0532Z" fill="#E94E1B"/>
<path fill-rule="evenodd" clip-rule="evenodd" d="M27.641 46.0532C27.641 46.5277 27.2588 46.9072 26.7809 46.9072C26.3031 46.9072 25.9209 46.5277 25.9209 46.0532C25.9209 45.5788 26.3031 45.1992 26.7809 45.1992C27.2588 45.1992 27.641 45.5788 27.641 46.0532Z" fill="#E94E1B"/>
<path fill-rule="evenodd" clip-rule="evenodd" d="M30.4203 46.0532C30.4203 46.5277 30.038 46.9072 29.5602 46.9072C29.0824 46.9072 28.7002 46.5277 28.7002 46.0532C28.7002 45.5788 29.0824 45.1992 29.5602 45.1992C30.038 45.1992 30.4203 45.5788 30.4203 46.0532Z" fill="#E94E1B"/>
<path fill-rule="evenodd" clip-rule="evenodd" d="M34.3461 46.0532C34.3461 46.5277 33.9638 46.9072 33.486 46.9072C33.0082 46.9072 32.626 46.5277 32.626 46.0532C32.626 45.5788 33.0082 45.1992 33.486 45.1992C33.9638 45.1992 34.3461 45.5788 34.3461 46.0532Z" fill="#E94E1B"/>
<path fill-rule="evenodd" clip-rule="evenodd" d="M37.1254 46.0532C37.1254 46.5277 36.7431 46.9072 36.2653 46.9072C35.7875 46.9072 35.4053 46.5277 35.4053 46.0532C35.4053 45.5788 35.7875 45.1992 36.2653 45.1992C36.7431 45.1992 37.1254 45.5788 37.1254 46.0532Z" fill="#E94E1B"/>
<path fill-rule="evenodd" clip-rule="evenodd" d="M41.33 46.0532C41.33 46.5277 40.9477 46.9072 40.4699 46.9072C39.9921 46.9072 39.6099 46.5277 39.6099 46.0532C39.6099 45.5788 39.9921 45.1992 40.4699 45.1992C40.9477 45.1992 41.33 45.5788 41.33 46.0532Z" fill="#E94E1B"/>
<path fill-rule="evenodd" clip-rule="evenodd" d="M44.1093 46.0532C44.1093 46.5277 43.727 46.9072 43.2492 46.9072C42.7714 46.9072 42.3892 46.5277 42.3892 46.0532C42.3892 45.5788 42.7714 45.1992 43.2492 45.1992C43.727 45.1992 44.1093 45.5788 44.1093 46.0532Z" fill="#E94E1B"/>
<path fill-rule="evenodd" clip-rule="evenodd" d="M47.597 46.0532C47.597 46.5277 47.2148 46.9072 46.737 46.9072C46.2592 46.9072 45.877 46.5277 45.877 46.0532C45.877 45.5788 46.2592 45.1992 46.737 45.1992C47.2148 45.1992 47.597 45.5788 47.597 46.0532Z" fill="#E94E1B"/>
<path fill-rule="evenodd" clip-rule="evenodd" d="M50.3763 46.0532C50.3763 46.5277 49.9941 46.9072 49.5163 46.9072C49.0385 46.9072 48.6562 46.5277 48.6562 46.0532C48.6562 45.5788 49.0465 45.1992 49.5163 45.1992C49.9861 45.1992 50.3763 45.5788 50.3763 46.0532Z" fill="#E94E1B"/>
<path fill-rule="evenodd" clip-rule="evenodd" d="M53.8085 46.0532C53.8085 46.5277 53.4183 46.9072 52.9484 46.9072C52.4786 46.9072 52.0884 46.5277 52.0884 46.0532C52.0884 45.5788 52.4706 45.1992 52.9484 45.1992C53.4262 45.1992 53.8085 45.5788 53.8085 46.0532Z" fill="#E94E1B"/>
<path fill-rule="evenodd" clip-rule="evenodd" d="M56.5961 46.0532C56.5961 46.5277 56.2138 46.9072 55.736 46.9072C55.2582 46.9072 54.876 46.5277 54.876 46.0532C54.876 45.5788 55.2582 45.1992 55.736 45.1992C56.2138 45.1992 56.5961 45.5788 56.5961 46.0532Z" fill="#E94E1B"/>
<path fill-rule="evenodd" clip-rule="evenodd" d="M60.7928 46.0532C60.7928 46.5277 60.4106 46.9072 59.9328 46.9072C59.455 46.9072 59.0728 46.5277 59.0728 46.0532C59.0728 45.5788 59.455 45.1992 59.9328 45.1992C60.4106 45.1992 60.7928 45.5788 60.7928 46.0532Z" fill="#E94E1B"/>
<path fill-rule="evenodd" clip-rule="evenodd" d="M63.5717 46.0532C63.5717 46.5277 63.1894 46.9072 62.7116 46.9072C62.2338 46.9072 61.8516 46.5277 61.8516 46.0532C61.8516 45.5788 62.2338 45.1992 62.7116 45.1992C63.1894 45.1992 63.5717 45.5788 63.5717 46.0532Z" fill="#E94E1B"/>
<path fill-rule="evenodd" clip-rule="evenodd" d="M67.0599 46.0532C67.0599 46.5277 66.6697 46.9072 66.1999 46.9072C65.73 46.9072 65.3398 46.5277 65.3398 46.0532C65.3398 45.5788 65.7221 45.1992 66.1999 45.1992C66.6777 45.1992 67.0599 45.5788 67.0599 46.0532Z" fill="#E94E1B"/>
<path fill-rule="evenodd" clip-rule="evenodd" d="M69.847 46.0532C69.847 46.5277 69.4648 46.9072 68.987 46.9072C68.5092 46.9072 68.127 46.5277 68.127 46.0532C68.127 45.5788 68.5092 45.1992 68.987 45.1992C69.4648 45.1992 69.847 45.5788 69.847 46.0532Z" fill="#E94E1B"/>
<path fill-rule="evenodd" clip-rule="evenodd" d="M73.2631 46.0532C73.2631 46.5277 72.8808 46.9072 72.403 46.9072C71.9252 46.9072 71.543 46.5277 71.543 46.0532C71.543 45.5788 71.9252 45.1992 72.403 45.1992C72.8808 45.1992 73.2631 45.5788 73.2631 46.0532Z" fill="#E94E1B"/>
<path d="M187.904 43.8008H0V44.9157H187.904V43.8008Z" fill="#C6171B"/>
</g>
<defs>
<clipPath id="clip0_658_8307">
<rect width="188" height="65" fill="white"/>
</clipPath>
</defs>
</svg>
