<?xml version="1.0" encoding="utf-8"?>
<!-- Generator: Adobe Illustrator 26.1.0, SVG Export Plug-In . SVG Version: 6.00 Build 0)  -->
<svg version="1.1" xmlns="http://www.w3.org/2000/svg" xmlns:xlink="http://www.w3.org/1999/xlink" x="0px" y="0px"
	 viewBox="0 0 98.4 98.4" style="enable-background:new 0 0 98.4 98.4;" xml:space="preserve">
<style type="text/css">
	.st0{enable-background:new    ;}
	.st1{fill-rule:evenodd;clip-rule:evenodd;fill:#B7946E;}
	.st2{fill:#2B2A28;}
	.st3{fill:#2B2A28;stroke:#2B2A28;stroke-width:0.15;stroke-miterlimit:10;}
</style>
<g id="Ellipse_1_copy_00000121250220920934403150000013877218906560131502_" class="st0">
</g>
<g id="Layer_8_copy_7_xA0_Image_00000173162008019251212200000013526813678876576434_">
</g>
<g id="see_awards_____see_awards_____see_awards_00000013881861866126479060000010414633569447298722_">
	<g>
		<g id="Ellipse_1_copy">
			<g>
				
					<ellipse transform="matrix(0.0985 -0.9951 0.9951 0.0985 -4.6536 93.3104)" class="st1" cx="49.18" cy="49.22" rx="48.38" ry="48.38"/>
			</g>
		</g>
		<g id="F371_x2C__Arrow_x2C__left_x2C__up">
			<path class="st2" d="M39.11,48.83c0.06-0.06,0.13-0.09,0.24-0.09l20.96-0.12c0.18,0,0.33,0.14,0.33,0.33
				c0,0.18-0.15,0.33-0.33,0.33L39.35,49.4c-0.18,0-0.33-0.14-0.33-0.33C39.02,48.96,39.06,48.89,39.11,48.83z"/>
			<path class="st2" d="M53.75,43.26c0.11-0.11,0.31-0.13,0.44,0l6.35,5.43c0.15,0.11,0.14,0.33,0.02,0.46
				c-0.11,0.15-0.33,0.15-0.46,0.02l-6.35-5.43C53.63,43.63,53.62,43.43,53.75,43.26C53.73,43.28,53.73,43.28,53.75,43.26z"/>
			<path class="st2" d="M53.66,54.22C53.68,54.2,53.68,54.2,53.66,54.22l6.43-5.52c0.15-0.11,0.35-0.09,0.46,0.02
				c0.11,0.15,0.09,0.35-0.02,0.46l-6.41,5.5c-0.15,0.11-0.35,0.09-0.46-0.02C53.55,54.51,53.56,54.33,53.66,54.22z"/>
		</g>
		<path class="st3" d="M15.02,48.93l-2.34,2.96c-0.03,0.04-0.08,0.04-0.12,0.01l-2.92-2.31c-0.04-0.03-0.04-0.08-0.01-0.12
			l2.34-2.96c0.03-0.04,0.08-0.04,0.12-0.01l2.93,2.31C15.03,48.84,15.04,48.89,15.02,48.93z M12.6,51.73l2.24-2.83l-2.8-2.21
			l-2.24,2.83L12.6,51.73z"/>
		<path class="st3" d="M69.53,18.82l-3.65,0.99c-0.04,0.01-0.09-0.02-0.1-0.06l-0.97-3.6c-0.01-0.04,0.02-0.09,0.06-0.1l3.65-0.99
			c0.04-0.01,0.09,0.02,0.1,0.06l0.98,3.6C69.6,18.77,69.57,18.81,69.53,18.82z M65.92,19.64l3.49-0.95l-0.93-3.45l-3.49,0.95
			L65.92,19.64z"/>
		<path class="st3" d="M69.1,82.69l-3.7-0.77c-0.04-0.01-0.08-0.06-0.07-0.1l0.76-3.65c0.01-0.04,0.06-0.07,0.1-0.07l3.7,0.77
			c0.04,0.01,0.08,0.06,0.07,0.1l-0.76,3.65C69.19,82.66,69.14,82.69,69.1,82.69z M65.52,81.77l3.54,0.74l0.73-3.5l-3.54-0.74
			L65.52,81.77z"/>
		<g>
			<path class="st2" d="M17.88,41.78c-0.19,0.77-0.64,1.52-0.96,1.96l-1.68-1.09l0.01-0.05c1.29,0.19,2.18-0.16,2.43-1.14
				c0.24-0.96-0.36-1.8-1.14-2c-0.99-0.25-1.56,0.43-2.17,1.15c-0.66,0.78-1.38,1.59-2.67,1.26c-1.16-0.29-1.9-1.4-1.55-2.77
				c0.14-0.54,0.35-1.01,0.59-1.47l1.62,0.92l-0.01,0.05c-1.05-0.16-1.82,0.13-2.02,0.9c-0.17,0.68,0.24,1.35,1.06,1.56
				c0.93,0.24,1.49-0.5,2.12-1.24c0.65-0.75,1.4-1.49,2.67-1.16C17.48,38.99,18.28,40.2,17.88,41.78z"/>
			<path class="st2" d="M12.98,31.87c0.14-0.31,0.14-0.6,0-0.82l0.01-0.03l2,0.62l0,0.05c-1.09,0.19-1.92,0.46-2.33,1.36
				c-0.27,0.61-0.11,0.92,0.46,1.18l2.09,0.94l0.56-1.25c0.19-0.43,0.13-0.89-0.29-1.41l0.01-0.03l1.79,0.8l-0.01,0.03
				c-0.61,0.08-1.09,0.28-1.27,0.7l-0.56,1.26l2.83,1.27c0.56,0.25,0.95,0.06,1.2-0.51c0.47-1.05,0.04-2-0.55-2.95l0.03-0.02
				l1.88,1.28l-0.02,0.04c-0.26,0.05-0.46,0.21-0.6,0.52l-1.56,3.47l-0.03-0.01c-0.02-0.32-0.16-0.63-0.66-0.86l-5.35-2.4
				c-0.41-0.18-0.79-0.18-1.08,0.08l-0.03-0.01L12.98,31.87z"/>
			<path class="st2" d="M16.63,25.79c0.19-0.28,0.25-0.56,0.15-0.81l0.02-0.03l1.85,0.97l-0.01,0.05c-1.1-0.01-1.97,0.11-2.53,0.92
				c-0.38,0.55-0.27,0.89,0.24,1.24l1.89,1.3l0.77-1.13c0.27-0.39,0.28-0.86-0.04-1.44L19,26.84l1.62,1.11l-0.02,0.03
				c-0.61-0.03-1.12,0.08-1.38,0.46l-0.78,1.14L21,31.31c0.51,0.35,0.92,0.23,1.27-0.29c0.65-0.95,0.39-1.96-0.02-3l0.03-0.01
				l1.62,1.59l-0.02,0.03c-0.27,0.01-0.49,0.12-0.68,0.41l-2.14,3.13l-0.03-0.02c0.04-0.31-0.05-0.65-0.49-0.96l-4.84-3.31
				c-0.37-0.25-0.74-0.32-1.07-0.11l-0.03-0.02L16.63,25.79z"/>
			<path class="st2" d="M22.37,19.41l0.09-0.08l5.99,3.43c0.75,0.42,1.14,0.53,1.47,0.44l0.02,0.02l-1.62,1.44l-0.02-0.02
				c0.13-0.31-0.04-0.79-0.68-1.16l-1.21-0.72l-1.66,1.47l0.58,1.31c0.27,0.62,0.87,0.76,1.21,0.66l0.02,0.02l-1.21,1.07l-0.02-0.02
				c0.12-0.29,0.05-0.92-0.21-1.53L22.37,19.41z M26.17,22.62l-2.94-1.73l1.39,3.1L26.17,22.62z"/>
			<path class="st2" d="M34.45,20.66l-0.11,0.06l-3.85-3.84l1.28,5.31l-0.11,0.06l-4.85-4.77c-0.6-0.59-0.98-0.77-1.29-0.75
				L25.5,16.7l1.91-1.09l0.02,0.03c-0.22,0.34-0.22,0.79,0.31,1.33l3.38,3.47l-0.98-3.89l-0.61-0.61c-0.64-0.63-1.02-0.72-1.36-0.72
				l-0.02-0.03l1.93-1.1l0.02,0.03c-0.19,0.3-0.17,0.75,0.36,1.31l3.32,3.45l-1.21-4.68c-0.17-0.66-0.7-0.9-1.09-0.87l-0.02-0.03
				l1.41-0.8l0.02,0.03c-0.16,0.25-0.27,0.72-0.08,1.52L34.45,20.66z"/>
			<path class="st2" d="M36.61,11.28l0.12-0.04l4.1,5.56c0.52,0.69,0.83,0.94,1.16,1L42,17.82l-2.07,0.66l-0.01-0.03
				c0.24-0.23,0.28-0.73-0.15-1.33l-0.82-1.15l-2.12,0.68l0.01,1.43c0,0.68,0.49,1.05,0.84,1.09l0.01,0.03l-1.54,0.49l-0.01-0.03
				c0.23-0.21,0.42-0.82,0.42-1.48L36.61,11.28z M38.8,15.75l-1.99-2.77l0.02,3.4L38.8,15.75z"/>
			<path class="st2" d="M43.7,9.64c1.63-0.2,2.74,0.58,2.9,1.91c0.18,1.46-0.78,2.38-1.78,2.65c0.72,1.17,1.69,2.49,2.91,3.36
				l-0.02,0.03c-1.51-0.48-3.1-1.63-4.05-3.34c-0.05-0.01-0.11-0.03-0.15-0.03l0.3,2.42c0.05,0.45,0.26,0.77,0.63,0.88l0,0.03
				l-2.01,0.25l0-0.03c0.33-0.2,0.45-0.56,0.39-1l-0.71-5.78c-0.05-0.41-0.25-0.71-0.62-0.82l0-0.03C42.27,9.9,43.03,9.72,43.7,9.64
				z M43.5,14.03c0.26,0.04,0.48,0.04,0.69,0.01c0.99-0.12,1.51-0.93,1.35-2.22s-0.78-2.08-1.69-1.97c-0.58,0.07-0.8,0.43-0.72,1.05
				L43.5,14.03z"/>
			<path class="st2" d="M48.26,17.02l0-0.03c0.35-0.13,0.54-0.42,0.57-0.85l0.39-5.77c0.02-0.33-0.12-0.74-0.45-0.92l0-0.03
				c0.65-0.06,1.29-0.12,2.07-0.07c2.24,0.15,3.35,1.8,3.19,4.2c-0.19,2.76-1.82,3.94-3.58,3.83
				C49.65,17.33,48.83,17.17,48.26,17.02z M52.87,13.71c0.17-2.47-0.46-3.99-1.79-4.08c-0.55-0.04-0.82,0.26-0.86,0.87l-0.38,5.57
				c-0.04,0.63,0.22,1.03,0.79,1.07C51.91,17.22,52.7,16.28,52.87,13.71z"/>
			<path class="st2" d="M56.39,18.3c-0.77-0.2-1.51-0.65-1.96-0.97l1.1-1.68l0.05,0.01c-0.19,1.29,0.15,2.18,1.13,2.43
				c0.96,0.25,1.8-0.36,2-1.13c0.25-0.99-0.43-1.56-1.15-2.17c-0.78-0.66-1.58-1.39-1.25-2.67c0.3-1.16,1.4-1.89,2.77-1.54
				c0.54,0.14,1.01,0.36,1.46,0.59l-0.92,1.62l-0.05-0.01c0.16-1.05-0.12-1.82-0.89-2.02c-0.68-0.17-1.35,0.23-1.56,1.05
				c-0.24,0.93,0.5,1.5,1.23,2.12c0.75,0.66,1.48,1.4,1.15,2.68C59.18,17.91,57.97,18.71,56.39,18.3z"/>
			<path class="st2" d="M70.87,26.27c-0.57-0.56-0.98-1.32-1.21-1.82l1.79-0.9l0.04,0.04c-0.81,1.02-0.97,1.96-0.25,2.67
				c0.71,0.7,1.74,0.6,2.3,0.03c0.72-0.73,0.42-1.57,0.1-2.45c-0.34-0.96-0.67-1.99,0.26-2.94c0.84-0.85,2.16-0.93,3.17,0.07
				c0.39,0.39,0.69,0.81,0.97,1.25l-1.61,0.93l-0.04-0.04c0.67-0.82,0.81-1.64,0.24-2.19c-0.5-0.49-1.29-0.48-1.88,0.12
				c-0.67,0.68-0.32,1.54,0,2.46c0.32,0.94,0.58,1.96-0.35,2.89C73.49,27.34,72.03,27.41,70.87,26.27z"/>
			<path class="st2" d="M81.9,27.04c0.2,0.28,0.45,0.43,0.71,0.42l0.02,0.03l-1.54,1.41l-0.04-0.02c0.39-1.04,0.57-1.9,0-2.69
				c-0.39-0.54-0.75-0.56-1.25-0.2l-1.87,1.34l0.79,1.11c0.27,0.38,0.71,0.56,1.37,0.46l0.02,0.03l-1.59,1.14l-0.02-0.03
				c0.24-0.57,0.31-1.08,0.04-1.45l-0.8-1.12l-2.52,1.8c-0.5,0.36-0.53,0.79-0.16,1.3c0.67,0.93,1.71,1.04,2.83,1.01l0,0.04
				l-2.05,0.98l-0.02-0.03c0.09-0.25,0.05-0.5-0.15-0.78l-2.21-3.09l0.03-0.02c0.28,0.14,0.63,0.18,1.07-0.14l4.77-3.41
				c0.36-0.26,0.55-0.59,0.47-0.97l0.03-0.02L81.9,27.04z"/>
			<path class="st2" d="M85.31,33.25c0.15,0.31,0.36,0.5,0.62,0.54l0.01,0.03l-1.77,1.12l-0.04-0.03c0.57-0.95,0.9-1.76,0.48-2.65
				c-0.29-0.6-0.63-0.68-1.19-0.42l-2.07,0.98l0.59,1.24c0.2,0.42,0.6,0.68,1.26,0.69l0.01,0.03l-1.77,0.84l-0.01-0.03
				c0.33-0.52,0.49-1.01,0.3-1.42l-0.59-1.24l-2.8,1.33c-0.56,0.26-0.66,0.68-0.39,1.25c0.49,1.04,1.49,1.32,2.6,1.49l0,0.04
				l-2.19,0.6l-0.02-0.04c0.13-0.24,0.14-0.48-0.01-0.79l-1.63-3.43l0.03-0.01c0.25,0.19,0.59,0.29,1.08,0.06l5.3-2.51
				c0.41-0.19,0.65-0.48,0.64-0.87L83.78,30L85.31,33.25z"/>
			<path class="st2" d="M87.93,41.47l0.02,0.12l-6,3.42c-0.75,0.43-1.03,0.71-1.13,1.04l-0.03,0.01l-0.42-2.13l0.03-0.01
				c0.2,0.27,0.7,0.36,1.34,0l1.24-0.68l-0.43-2.18l-1.42-0.16c-0.67-0.08-1.1,0.36-1.18,0.71l-0.03,0.01l-0.31-1.59l0.03-0.01
				c0.19,0.25,0.77,0.51,1.42,0.59L87.93,41.47z M83.23,43.12l2.98-1.66l-3.38-0.37L83.23,43.12z"/>
			<path class="st2" d="M80.73,51.27l0-0.12L86,49.78l-5.23-1.6l0-0.12l6.58-1.75c0.82-0.22,1.16-0.45,1.31-0.73l0.03,0l-0.04,2.2
				l-0.03,0c-0.18-0.36-0.56-0.59-1.31-0.41l-4.71,1.15l3.85,1.14l0.84-0.22c0.87-0.23,1.15-0.51,1.31-0.8l0.03,0l-0.04,2.22h-0.03
				c-0.16-0.32-0.56-0.53-1.31-0.36l-4.66,1.1l4.64,1.34c0.65,0.19,1.13-0.15,1.3-0.5l0.03,0l-0.03,1.63l-0.03,0
				c-0.13-0.26-0.48-0.6-1.27-0.84L80.73,51.27z"/>
			<path class="st2" d="M87.74,57.88l-0.03,0.12l-6.87,0.72c-0.86,0.1-1.23,0.24-1.45,0.5l-0.03-0.01l0.48-2.12l0.03,0.01
				c0.08,0.33,0.49,0.61,1.22,0.54l1.41-0.12l0.49-2.17l-1.24-0.72c-0.58-0.35-1.15-0.11-1.37,0.17l-0.03-0.01l0.35-1.58l0.03,0.01
				c0.07,0.3,0.5,0.77,1.06,1.12L87.74,57.88z M82.77,57.51l3.4-0.32l-2.94-1.7L82.77,57.51z"/>
			<path class="st2" d="M85.58,64.8c-0.65,1.5-1.88,2.07-3.11,1.54c-1.35-0.58-1.66-1.88-1.39-2.87c-1.38,0.03-3,0.21-4.37,0.82
				l-0.02-0.03c1.17-1.06,2.97-1.86,4.93-1.81c0.04-0.04,0.08-0.08,0.11-0.11l-2.24-0.97c-0.41-0.18-0.79-0.16-1.08,0.1l-0.03-0.01
				l0.8-1.86l0.03,0.01c0,0.39,0.26,0.67,0.67,0.85l5.35,2.31c0.38,0.17,0.74,0.14,1.02-0.12l0.03,0.01
				C86.08,63.43,85.85,64.17,85.58,64.8z M81.9,62.41c-0.17,0.2-0.27,0.39-0.35,0.58c-0.4,0.92,0.04,1.77,1.23,2.28
				s2.19,0.38,2.55-0.47c0.23-0.54,0.03-0.91-0.54-1.15L81.9,62.41z"/>
			<path class="st2" d="M76.91,65l0.03,0.02c-0.07,0.37,0.09,0.68,0.44,0.92l4.77,3.26c0.28,0.19,0.7,0.27,1.02,0.08l0.03,0.02
				c-0.28,0.59-0.55,1.18-0.99,1.82c-1.27,1.85-3.25,1.97-5.23,0.61c-2.28-1.56-2.47-3.57-1.47-5.03
				C75.94,66.04,76.49,65.42,76.91,65z M77.42,70.65c2.04,1.4,3.67,1.63,4.43,0.53c0.31-0.46,0.2-0.84-0.31-1.19l-4.6-3.15
				c-0.53-0.36-1-0.33-1.32,0.13C74.89,68.05,75.3,69.2,77.42,70.65z"/>
			<path class="st2" d="M71.68,71.37c0.56-0.56,1.32-0.98,1.83-1.2l0.89,1.8l-0.04,0.04c-1.01-0.82-1.96-0.98-2.67-0.26
				c-0.7,0.7-0.61,1.74-0.04,2.3c0.73,0.72,1.57,0.42,2.45,0.11c0.97-0.33,2-0.66,2.94,0.27c0.85,0.85,0.92,2.17-0.08,3.17
				c-0.39,0.39-0.82,0.69-1.25,0.96l-0.93-1.61l0.04-0.04c0.82,0.67,1.63,0.81,2.19,0.25c0.49-0.5,0.48-1.29-0.12-1.88
				c-0.68-0.68-1.54-0.33-2.46-0.01c-0.94,0.31-1.96,0.57-2.89-0.36C70.6,73.98,70.53,72.53,71.68,71.37z"/>
			<path class="st2" d="M57.48,79.86c0.77-0.21,1.64-0.18,2.18-0.12l-0.13,2l-0.05,0.01c-0.47-1.21-1.2-1.83-2.18-1.56
				c-0.96,0.26-1.4,1.2-1.19,1.97c0.26,0.99,1.14,1.15,2.06,1.33c1,0.2,2.06,0.43,2.4,1.71c0.31,1.16-0.29,2.33-1.66,2.7
				c-0.53,0.14-1.05,0.18-1.56,0.2l0.01-1.86l0.05-0.01c0.37,0.99,1,1.52,1.77,1.32c0.67-0.18,1.06-0.87,0.84-1.68
				c-0.25-0.93-1.17-1.06-2.12-1.25c-0.97-0.2-1.98-0.5-2.32-1.76C55.24,81.57,55.91,80.28,57.48,79.86z"/>
			<path class="st2" d="M51.21,88.97c-0.34,0.03-0.59,0.17-0.72,0.4l-0.03,0l-0.43-2.05l0.04-0.02c0.69,0.86,1.34,1.45,2.32,1.37
				c0.67-0.06,0.86-0.36,0.8-0.97l-0.2-2.29l-1.36,0.12c-0.47,0.04-0.84,0.33-1.09,0.94l-0.03,0l-0.17-1.95l0.03,0
				c0.37,0.49,0.77,0.81,1.23,0.77l1.37-0.12l-0.27-3.09c-0.05-0.61-0.41-0.85-1.03-0.8c-1.14,0.1-1.76,0.94-2.3,1.92l-0.03-0.02
				l0.2-2.26l0.04,0c0.17,0.2,0.4,0.3,0.75,0.27l3.78-0.33l0,0.03c-0.27,0.17-0.47,0.45-0.43,0.99l0.51,5.84
				c0.04,0.45,0.22,0.78,0.59,0.9l0,0.03L51.21,88.97z"/>
			<path class="st2" d="M44.16,88.77c-0.34-0.03-0.61,0.06-0.78,0.27l-0.03,0l-0.07-2.09l0.04-0.02c0.53,0.97,1.07,1.66,2.05,1.75
				c0.67,0.06,0.91-0.2,0.96-0.82l0.2-2.29l-1.36-0.12c-0.47-0.04-0.88,0.17-1.24,0.74l-0.03,0l0.17-1.95l0.03,0
				c0.28,0.55,0.62,0.93,1.08,0.97l1.37,0.12l0.27-3.09c0.05-0.61-0.26-0.91-0.88-0.97c-1.14-0.1-1.9,0.62-2.6,1.49l-0.03-0.02
				l0.59-2.19l0.04,0c0.14,0.23,0.35,0.37,0.69,0.39l3.78,0.33l0,0.03c-0.29,0.12-0.54,0.36-0.59,0.9l-0.51,5.84
				c-0.04,0.45,0.09,0.8,0.43,0.99l0,0.03L44.16,88.77z"/>
			<path class="st2" d="M35.76,86.88l-0.12-0.04l0.08-6.9c0-0.86-0.09-1.25-0.33-1.5l0.01-0.03l2.05,0.72l-0.01,0.03
				c-0.33,0.04-0.67,0.42-0.68,1.15l-0.04,1.41l2.1,0.73l0.86-1.15c0.41-0.54,0.24-1.13-0.02-1.38l0.01-0.03l1.53,0.53l-0.01,0.03
				c-0.31,0.03-0.83,0.41-1.23,0.93L35.76,86.88z M36.71,82l-0.08,3.41l2.03-2.73L36.71,82z"/>
			<path class="st2" d="M30.94,75.72l0.11,0.07l-1.48,5.24l4.01-3.71l0.11,0.06l-1.8,6.57c-0.23,0.81-0.19,1.22-0.03,1.5l-0.02,0.03
				l-1.88-1.14l0.02-0.03c0.4,0.02,0.8-0.19,1.01-0.92l1.38-4.64l-2.92,2.75l-0.24,0.83c-0.24,0.87-0.13,1.25,0.04,1.53l-0.02,0.03
				l-1.9-1.15l0.02-0.03c0.35,0.02,0.74-0.21,0.97-0.95l1.4-4.58l-3.49,3.34c-0.49,0.47-0.44,1.05-0.22,1.38l-0.02,0.03l-1.39-0.84
				l0.02-0.03c0.29,0.02,0.76-0.11,1.37-0.67L30.94,75.72z"/>
			<path class="st2" d="M21.7,78.43l-0.09-0.08l2.85-6.29c0.35-0.79,0.42-1.18,0.3-1.5l0.02-0.02l1.59,1.48l-0.02,0.02
				c-0.32-0.1-0.78,0.12-1.09,0.78l-0.61,1.28l1.62,1.52l1.25-0.71c0.59-0.33,0.68-0.94,0.54-1.27l0.02-0.02l1.18,1.1l-0.02,0.02
				c-0.3-0.09-0.92,0.04-1.5,0.35L21.7,78.43z M24.53,74.34l-1.45,3.09l2.96-1.68L24.53,74.34z"/>
			<path class="st2" d="M16.81,73.05c-0.97-1.32-0.84-2.67,0.24-3.46c1.19-0.87,2.46-0.48,3.18,0.25c0.67-1.2,1.34-2.69,1.5-4.18
				l0.04,0c0.32,1.55,0.1,3.5-0.93,5.16c0.01,0.05,0.03,0.11,0.04,0.15l1.97-1.45c0.36-0.27,0.54-0.6,0.46-0.98l0.02-0.02l1.2,1.63
				l-0.03,0.02c-0.34-0.19-0.71-0.12-1.07,0.15l-4.69,3.45c-0.34,0.25-0.49,0.57-0.41,0.94l-0.02,0.02
				C17.74,74.17,17.21,73.6,16.81,73.05z M20.73,71.07c-0.09-0.25-0.2-0.43-0.33-0.6c-0.59-0.81-1.55-0.86-2.59-0.09
				c-1.04,0.77-1.43,1.7-0.89,2.44c0.35,0.47,0.77,0.48,1.27,0.12L20.73,71.07z"/>
			<path class="st2" d="M21.02,65.48l-0.03,0.01c-0.29-0.24-0.63-0.27-1.02-0.08l-5.22,2.48c-0.3,0.14-0.59,0.46-0.58,0.84
				l-0.03,0.01c-0.37-0.54-0.74-1.07-1.07-1.78c-0.96-2.03-0.06-3.81,2.11-4.83c2.5-1.18,4.33-0.33,5.09,1.26
				C20.6,64.12,20.86,64.91,21.02,65.48z M15.87,63.07c-2.23,1.06-3.26,2.35-2.69,3.56c0.24,0.5,0.63,0.59,1.18,0.33l5.04-2.39
				c0.58-0.27,0.79-0.7,0.55-1.21C19.4,62.19,18.2,61.96,15.87,63.07z"/>
			<path class="st2" d="M18.15,57.73c0.2,0.77,0.17,1.64,0.11,2.18l-2-0.14l-0.01-0.05c1.22-0.46,1.83-1.19,1.57-2.17
				c-0.25-0.96-1.19-1.4-1.97-1.2c-0.99,0.26-1.16,1.13-1.34,2.06c-0.2,1-0.44,2.06-1.72,2.39c-1.16,0.3-2.33-0.3-2.69-1.67
				c-0.14-0.53-0.18-1.05-0.2-1.57l1.86,0.02l0.01,0.05c-0.99,0.37-1.53,1-1.33,1.76c0.18,0.68,0.86,1.07,1.68,0.85
				c0.93-0.24,1.06-1.16,1.26-2.11c0.21-0.97,0.5-1.98,1.77-2.31C16.45,55.48,17.74,56.16,18.15,57.73z"/>
		</g>
	</g>
</g>
</svg>
