<svg width="186" height="52" viewBox="0 0 186 52" fill="none" xmlns="http://www.w3.org/2000/svg">
<g clip-path="url(#clip0_1101_1418)">
<path d="M1.8138 49.2909V40.0703H5.9052C6.72673 40.0703 7.34491 40.151 7.77601 40.3204C8.19898 40.4898 8.54874 40.7802 8.8009 41.1997C9.05305 41.6192 9.1832 42.0871 9.1832 42.5872C9.1832 43.2407 8.97171 43.7892 8.54874 44.241C8.12578 44.6927 7.47506 44.9751 6.58845 45.0961C6.91381 45.2574 7.15783 45.4107 7.32051 45.564C7.67841 45.8947 8.0119 46.2981 8.33726 46.7821L9.93152 49.2909H8.40233L7.18223 47.379C6.82434 46.8224 6.53151 46.4029 6.29563 46.1044C6.05974 45.814 5.85639 45.6124 5.67744 45.4913C5.4985 45.3703 5.31141 45.2897 5.12433 45.2493C4.98606 45.2171 4.7583 45.2009 4.44108 45.2009H3.02576V49.2909H1.80566H1.8138ZM3.0339 44.1442H5.66118C6.21429 44.1442 6.65352 44.0877 6.97075 43.9667C7.27984 43.8457 7.52386 43.6682 7.68654 43.4181C7.84922 43.168 7.93056 42.8938 7.93056 42.5872C7.93056 42.1516 7.77601 41.7886 7.45879 41.5062C7.14156 41.2239 6.63726 41.0868 5.954 41.0868H3.0339V44.1442Z" fill="#3C3C3B"/>
<path d="M10.9888 45.9579C10.9888 44.7236 11.3304 43.812 12.0218 43.2151C12.5993 42.7149 13.2988 42.4648 14.1204 42.4648C15.0395 42.4648 15.7878 42.7633 16.3735 43.3683C16.9591 43.9734 17.2438 44.8043 17.2438 45.8611C17.2438 46.7242 17.1137 47.4019 16.8534 47.8859C16.5931 48.378 16.2189 48.7571 15.7309 49.0314C15.2428 49.3057 14.6979 49.4428 14.1122 49.4428C13.1768 49.4428 12.4285 49.1443 11.851 48.5474C11.2735 47.9504 10.9888 47.0872 10.9888 45.9659V45.9579ZM12.1519 45.9579C12.1519 46.813 12.339 47.4503 12.7132 47.8778C13.0873 48.3054 13.5591 48.5151 14.1204 48.5151C14.6816 48.5151 15.1534 48.2973 15.5275 47.8697C15.9017 47.4422 16.0888 46.7968 16.0888 45.9175C16.0888 45.0382 15.9017 44.4574 15.5194 44.0379C15.1452 43.6104 14.6735 43.4006 14.1204 43.4006C13.5672 43.4006 13.0873 43.6104 12.7132 44.0379C12.339 44.4574 12.1519 45.1028 12.1519 45.9579Z" fill="#3C3C3B"/>
<path d="M18.9768 51.8639L18.8548 50.7991C19.0988 50.8636 19.3103 50.8959 19.4973 50.8959C19.7495 50.8959 19.9528 50.8556 20.0993 50.7749C20.2457 50.6942 20.3758 50.5732 20.4734 50.4199C20.5466 50.307 20.6686 50.0247 20.8232 49.581C20.8394 49.5164 20.872 49.4277 20.9208 49.2986L18.3911 42.6191H19.6112L21.0021 46.4832C21.1811 46.9753 21.3438 47.4916 21.482 48.0321C21.6122 47.5078 21.7667 47.0076 21.9457 46.5155L23.3691 42.6272H24.4997L21.9619 49.4116C21.6854 50.1457 21.4739 50.6458 21.3275 50.9201C21.1241 51.2912 20.8882 51.5735 20.6361 51.751C20.3839 51.9285 20.0667 52.0091 19.7007 52.0091C19.4811 52.0091 19.237 51.9607 18.9686 51.872L18.9768 51.8639Z" fill="#3C3C3B"/>
<path d="M30.2826 48.4667C29.8597 48.8217 29.453 49.0717 29.0707 49.225C28.6884 49.3783 28.2654 49.4428 27.8262 49.4428C27.0941 49.4428 26.5329 49.2653 26.1343 48.9104C25.7357 48.5554 25.5405 48.0956 25.5405 47.539C25.5405 47.2083 25.6137 46.9098 25.7601 46.6436C25.9147 46.3693 26.1018 46.1515 26.3458 45.9901C26.5898 45.8288 26.8582 45.6997 27.1592 45.619C27.3788 45.5626 27.7204 45.5061 28.1597 45.4496C29.0707 45.3367 29.7458 45.2076 30.1769 45.0544C30.1769 44.9011 30.185 44.8043 30.185 44.7639C30.185 44.3041 30.0793 43.9814 29.8597 43.7878C29.575 43.5297 29.1439 43.4006 28.5826 43.4006C28.0458 43.4006 27.6554 43.4974 27.4032 43.683C27.1511 43.8685 26.964 44.1993 26.8338 44.6752L25.7276 44.5219C25.8252 44.046 25.9879 43.6668 26.2238 43.3764C26.4515 43.086 26.785 42.8601 27.2243 42.6988C27.6635 42.5455 28.1678 42.4648 28.7372 42.4648C29.3066 42.4648 29.7783 42.5294 30.1281 42.6665C30.4779 42.8037 30.7463 42.9731 30.909 43.1747C31.0798 43.3764 31.2018 43.6346 31.2587 43.9492C31.2913 44.1428 31.3157 44.4897 31.3157 44.9898V46.4903C31.3157 47.5471 31.3401 48.2086 31.3889 48.4909C31.4377 48.7733 31.5353 49.0395 31.6736 49.2976H30.4941C30.3803 49.0637 30.2989 48.7894 30.2664 48.4748L30.2826 48.4667ZM30.185 45.9417C29.7783 46.1111 29.1602 46.2563 28.3386 46.3693C27.8668 46.4419 27.5415 46.5145 27.3463 46.5952C27.1511 46.6758 27.0046 46.7968 26.8989 46.9582C26.7932 47.1195 26.7362 47.297 26.7362 47.4987C26.7362 47.7971 26.8501 48.0472 27.086 48.2489C27.3137 48.4506 27.6554 48.5474 28.0946 48.5474C28.5338 48.5474 28.9161 48.4506 29.2578 48.265C29.5994 48.0714 29.8434 47.8133 30.0061 47.4906C30.1281 47.2325 30.1932 46.8533 30.1932 46.3612V45.9417H30.185Z" fill="#3C3C3B"/>
<path d="M33.52 49.2909V40.0703H34.6506V49.2909H33.52Z" fill="#3C3C3B"/>
<path d="M39.3277 48.2818L39.4985 49.2821C39.1732 49.3466 38.8885 49.3789 38.6363 49.3789C38.2296 49.3789 37.9043 49.3144 37.6847 49.1853C37.4569 49.0562 37.3024 48.8868 37.2048 48.669C37.1072 48.4512 37.0665 48.0075 37.0665 47.3299V43.498H36.2368V42.6187H37.0665V40.9569L38.189 40.2793V42.6107H39.3277V43.49H38.189V47.3863C38.189 47.7171 38.2052 47.9188 38.2459 48.0156C38.2866 48.1043 38.3517 48.1769 38.4411 48.2334C38.5306 48.2898 38.6607 48.314 38.8234 48.314C38.9536 48.314 39.1163 48.2979 39.3196 48.2656L39.3277 48.2818Z" fill="#3C3C3B"/>
<path d="M40.8327 51.8639L40.7107 50.7991C40.9547 50.8636 41.1743 50.8959 41.3533 50.8959C41.6054 50.8959 41.8088 50.8556 41.9633 50.7749C42.1179 50.6942 42.2399 50.5732 42.3294 50.4199C42.4026 50.307 42.5246 50.0247 42.6791 49.581C42.6954 49.5164 42.7279 49.4277 42.7767 49.2986L40.2471 42.6191H41.4672L42.8581 46.4832C43.037 46.9753 43.1997 47.4916 43.3461 48.0321C43.4763 47.5078 43.6308 47.0076 43.8098 46.5155L45.2332 42.6272H46.3638L43.826 49.4116C43.5495 50.1457 43.338 50.6458 43.1916 50.9201C42.9882 51.2912 42.7523 51.5735 42.5002 51.751C42.248 51.9285 41.9308 52.0091 41.5648 52.0091C41.3533 52.0091 41.1093 51.9607 40.8327 51.872V51.8639Z" fill="#3C3C3B"/>
<path d="M52.147 49.2909V40.0703H53.3671V49.2909H52.147Z" fill="#3C3C3B"/>
<path d="M55.8237 49.2895V42.6181H56.8405V43.57C57.3285 42.8359 58.0362 42.4648 58.9716 42.4648C59.3702 42.4648 59.7362 42.5374 60.0778 42.6827C60.4194 42.8279 60.6716 43.0215 60.8424 43.2554C61.0051 43.4894 61.1271 43.7717 61.1922 44.0863C61.241 44.2961 61.2654 44.6591 61.2654 45.1834V49.2895H60.1347V45.2238C60.1347 44.7639 60.0859 44.4251 60.0046 44.1993C59.9151 43.9734 59.7606 43.7878 59.5328 43.6507C59.3051 43.5136 59.0448 43.441 58.7357 43.441C58.2558 43.441 57.841 43.5942 57.4912 43.9008C57.1414 44.2073 56.9706 44.7881 56.9706 45.6433V49.2895H55.84H55.8237Z" fill="#3C3C3B"/>
<path d="M62.9895 47.2975L64.112 47.12C64.1689 47.5718 64.3479 47.9187 64.6326 48.1526C64.9254 48.3946 65.324 48.5076 65.8364 48.5076C66.3488 48.5076 66.7474 48.4027 66.9996 48.1929C67.2517 47.9832 67.3737 47.7331 67.3737 47.4427C67.3737 47.1926 67.268 46.991 67.0402 46.8377C66.8857 46.7409 66.5034 46.6118 65.8771 46.4585C65.0474 46.2488 64.478 46.0632 64.1527 45.918C63.8273 45.7648 63.5833 45.555 63.4206 45.2807C63.2579 45.0065 63.1766 44.708 63.1766 44.3853C63.1766 44.0868 63.2417 43.8125 63.3799 43.5544C63.5101 43.2963 63.6972 43.0865 63.933 42.9171C64.112 42.788 64.3479 42.6751 64.657 42.5864C64.9579 42.4976 65.2914 42.4492 65.6412 42.4492C66.1618 42.4492 66.6254 42.5218 67.0158 42.6751C67.4063 42.8284 67.6991 43.03 67.8943 43.2882C68.0895 43.5463 68.2115 43.8932 68.2847 44.3208L67.1785 44.466C67.1216 44.1191 66.9833 43.8529 66.7393 43.6593C66.5034 43.4657 66.1618 43.3689 65.7225 43.3689C65.2019 43.3689 64.8278 43.4576 64.6082 43.627C64.3885 43.7964 64.2747 43.9981 64.2747 44.224C64.2747 44.3772 64.3235 44.5144 64.413 44.6273C64.5024 44.7403 64.6488 44.8451 64.8441 44.9258C64.9579 44.9661 65.2996 45.0629 65.8445 45.2162C66.6417 45.4259 67.2029 45.6034 67.5201 45.7406C67.8374 45.8777 68.0814 46.0794 68.2685 46.3375C68.4474 46.5957 68.5369 46.9183 68.5369 47.3056C68.5369 47.6928 68.423 48.0316 68.2034 48.3704C67.9838 48.7092 67.6665 48.9593 67.2517 49.1448C66.8369 49.3223 66.3651 49.4191 65.8445 49.4191C64.9742 49.4191 64.3153 49.2416 63.8598 48.8786C63.4043 48.5156 63.1196 47.9832 62.9895 47.2733V47.2975Z" fill="#3C3C3B"/>
<path d="M70.3345 51.849V42.6203H71.3594V43.4835C71.6034 43.1447 71.8799 42.8865 72.189 42.7171C72.4981 42.5477 72.8641 42.459 73.3034 42.459C73.8728 42.459 74.3771 42.6042 74.8082 42.9027C75.2474 43.2011 75.5728 43.6126 75.8005 44.145C76.0283 44.6774 76.134 45.2663 76.134 45.9036C76.134 46.5893 76.012 47.2024 75.768 47.7509C75.524 48.2995 75.1661 48.719 74.6943 49.0094C74.2225 49.2998 73.7345 49.445 73.222 49.445C72.8479 49.445 72.5062 49.3644 72.2053 49.2111C71.9043 49.0578 71.6603 48.8481 71.4732 48.6061V51.8571H70.3426L70.3345 51.849ZM71.3512 45.9923C71.3512 46.8555 71.522 47.4847 71.8718 47.8962C72.2216 48.3076 72.6445 48.5092 73.1407 48.5092C73.6369 48.5092 74.0761 48.2995 74.434 47.872C74.7919 47.4525 74.9708 46.791 74.9708 45.8955C74.9708 45.0485 74.7919 44.4112 74.4421 43.9917C74.0924 43.5642 73.6694 43.3544 73.1814 43.3544C72.6933 43.3544 72.2785 43.5803 71.9043 44.0321C71.5302 44.4838 71.3431 45.1372 71.3431 46.0004L71.3512 45.9923Z" fill="#3C3C3B"/>
<path d="M77.9561 41.385V40.0781H79.0867V41.385H77.9561ZM77.9561 49.2907V42.6192H79.0867V49.2907H77.9561Z" fill="#3C3C3B"/>
<path d="M81.2505 49.2917V42.6203H82.2672V43.6287C82.5357 43.1527 82.7715 42.8381 82.9912 42.6849C83.2108 42.5316 83.4548 42.459 83.7151 42.459C84.0974 42.459 84.4797 42.58 84.8782 42.8301L84.4878 43.8868C84.2113 43.7255 83.9347 43.6448 83.6581 43.6448C83.4141 43.6448 83.1864 43.7174 82.9912 43.8626C82.7959 44.0079 82.6577 44.2176 82.5763 44.4838C82.4462 44.8791 82.3811 45.3228 82.3811 45.7987V49.2917H81.2505Z" fill="#3C3C3B"/>
<path d="M90.5718 47.1437L91.7431 47.2889C91.5641 47.9665 91.2225 48.499 90.7182 48.8701C90.222 49.2492 89.5794 49.4347 88.8067 49.4347C87.8225 49.4347 87.0497 49.1363 86.4804 48.5393C85.9029 47.9423 85.6182 47.0953 85.6182 46.0063C85.6182 44.9172 85.911 44.0137 86.4885 43.3926C87.066 42.7714 87.8143 42.4648 88.7416 42.4648C89.6689 42.4648 90.3603 42.7714 90.9297 43.3764C91.499 43.9814 91.7837 44.8365 91.7837 45.9417C91.7837 46.0143 91.7837 46.1192 91.7756 46.2483H86.7976C86.8383 46.9824 87.0416 47.539 87.4158 47.9262C87.7899 48.3134 88.2536 48.5151 88.8148 48.5151C89.2297 48.5151 89.5876 48.4022 89.8804 48.1924C90.1732 47.9746 90.4091 47.6277 90.5718 47.1518V47.1437ZM86.8545 45.3206H90.588C90.5392 44.7559 90.3928 44.3364 90.1569 44.054C89.7909 43.6104 89.3273 43.3926 88.7497 43.3926C88.2292 43.3926 87.7899 43.57 87.4402 43.9169C87.0823 44.2638 86.8871 44.7317 86.8545 45.3206Z" fill="#3C3C3B"/>
<path d="M97.9576 49.2901V48.4512C97.5346 49.1127 96.9165 49.4434 96.0868 49.4434C95.5581 49.4434 95.0619 49.2982 94.6227 49.0078C94.1753 48.7174 93.8337 48.306 93.5897 47.7816C93.3456 47.2573 93.2236 46.6522 93.2236 45.9746C93.2236 45.297 93.3375 44.7 93.5571 44.1595C93.7767 43.619 94.1102 43.1996 94.5576 42.9091C95.005 42.6187 95.5011 42.4735 96.0543 42.4735C96.4528 42.4735 96.8107 42.5623 97.128 42.7317C97.4452 42.9011 97.6973 43.1269 97.8925 43.4012V40.0938H99.0232V49.3144H97.9658L97.9576 49.2901ZM94.3787 45.9585C94.3787 46.8136 94.5576 47.4509 94.9155 47.8704C95.2734 48.2898 95.7045 48.4996 96.1925 48.4996C96.6806 48.4996 97.1035 48.2979 97.4452 47.8946C97.7949 47.4912 97.9658 46.8781 97.9658 46.0472C97.9658 45.1356 97.7868 44.4661 97.437 44.0385C97.0873 43.611 96.6562 43.3932 96.1356 43.3932C95.615 43.3932 95.2083 43.6029 94.8748 44.0063C94.5413 44.4096 94.3705 45.063 94.3705 45.9504L94.3787 45.9585Z" fill="#3C3C3B"/>
<path d="M105.62 49.2909V40.0703H106.84V49.2909H105.62Z" fill="#3C3C3B"/>
<path d="M109.296 49.2895V42.6181H110.313V43.57C110.801 42.8359 111.509 42.4648 112.444 42.4648C112.843 42.4648 113.209 42.5374 113.55 42.6827C113.892 42.8279 114.144 43.0215 114.315 43.2554C114.478 43.4894 114.6 43.7717 114.665 44.0863C114.714 44.2961 114.738 44.6591 114.738 45.1834V49.2895H113.607V45.2238C113.607 44.7639 113.559 44.4251 113.477 44.1993C113.388 43.9734 113.233 43.7878 113.005 43.6507C112.778 43.5136 112.517 43.441 112.208 43.441C111.728 43.441 111.314 43.5942 110.964 43.9008C110.614 44.2073 110.443 44.7881 110.443 45.6433V49.2895H109.313H109.296Z" fill="#3C3C3B"/>
<path d="M121.253 49.2901V48.4512C120.83 49.1127 120.204 49.4434 119.383 49.4434C118.846 49.4434 118.358 49.2982 117.918 49.0078C117.471 48.7174 117.129 48.306 116.877 47.7816C116.633 47.2573 116.511 46.6522 116.511 45.9746C116.511 45.297 116.617 44.7 116.845 44.1595C117.072 43.619 117.406 43.1996 117.845 42.9091C118.293 42.6187 118.789 42.4735 119.334 42.4735C119.732 42.4735 120.09 42.5623 120.407 42.7317C120.725 42.9011 120.977 43.1269 121.172 43.4012V40.0938H122.303V49.3144H121.245L121.253 49.2901ZM117.674 45.9585C117.674 46.8136 117.853 47.4509 118.211 47.8704C118.577 48.2898 119 48.4996 119.488 48.4996C119.976 48.4996 120.399 48.2979 120.741 47.8946C121.083 47.4912 121.261 46.8781 121.261 46.0472C121.261 45.1356 121.083 44.4661 120.733 44.0385C120.383 43.611 119.952 43.3932 119.431 43.3932C118.911 43.3932 118.504 43.6029 118.171 44.0063C117.837 44.4177 117.666 45.063 117.666 45.9504L117.674 45.9585Z" fill="#3C3C3B"/>
<path d="M124.54 41.385V40.0781H125.67V41.385H124.54ZM124.54 49.2907V42.6192H125.67V49.2907H124.54Z" fill="#3C3C3B"/>
<path d="M132.21 48.4667C131.787 48.8217 131.38 49.0717 130.998 49.225C130.616 49.3783 130.193 49.4428 129.753 49.4428C129.021 49.4428 128.46 49.2653 128.062 48.9104C127.671 48.5554 127.468 48.0956 127.468 47.539C127.468 47.2083 127.541 46.9098 127.696 46.6436C127.842 46.3693 128.037 46.1515 128.281 45.9901C128.525 45.8288 128.794 45.6997 129.103 45.619C129.322 45.5626 129.656 45.5061 130.103 45.4496C131.014 45.3367 131.689 45.2076 132.129 45.0544C132.129 44.9011 132.129 44.8043 132.129 44.7639C132.129 44.3041 132.023 43.9814 131.803 43.7878C131.51 43.5297 131.087 43.4006 130.518 43.4006C129.989 43.4006 129.591 43.4974 129.339 43.683C129.078 43.8685 128.891 44.1993 128.769 44.6752L127.663 44.5219C127.761 44.046 127.931 43.6668 128.159 43.3764C128.387 43.086 128.729 42.8601 129.16 42.6988C129.591 42.5455 130.103 42.4648 130.673 42.4648C131.242 42.4648 131.706 42.5294 132.063 42.6665C132.421 42.8037 132.682 42.9731 132.852 43.1747C133.023 43.3764 133.137 43.6346 133.202 43.9492C133.235 44.1428 133.251 44.4897 133.251 44.9898V46.4903C133.251 47.5471 133.275 48.2086 133.324 48.4909C133.373 48.7733 133.471 49.0395 133.609 49.2976H132.43C132.316 49.0637 132.234 48.7894 132.202 48.4748L132.21 48.4667ZM132.112 45.9417C131.706 46.1111 131.087 46.2563 130.266 46.3693C129.794 46.4419 129.469 46.5145 129.274 46.5952C129.078 46.6758 128.932 46.7968 128.826 46.9582C128.72 47.1195 128.672 47.297 128.672 47.4987C128.672 47.7971 128.785 48.0472 129.021 48.2489C129.249 48.4506 129.591 48.5474 130.022 48.5474C130.453 48.5474 130.843 48.4506 131.185 48.265C131.527 48.0714 131.771 47.8133 131.933 47.4906C132.055 47.2325 132.12 46.8533 132.12 46.3612V45.9417H132.112Z" fill="#3C3C3B"/>
<path d="M135.472 49.2895V42.6181H136.488V43.57C136.976 42.8359 137.684 42.4648 138.611 42.4648C139.01 42.4648 139.384 42.5374 139.717 42.6827C140.051 42.8279 140.311 43.0215 140.474 43.2554C140.637 43.4894 140.759 43.7717 140.816 44.0863C140.864 44.2961 140.889 44.6591 140.889 45.1834V49.2895H139.758V45.2238C139.758 44.7639 139.717 44.4251 139.628 44.1993C139.539 43.9734 139.384 43.7878 139.156 43.6507C138.928 43.5136 138.668 43.441 138.359 43.441C137.879 43.441 137.464 43.5942 137.115 43.9008C136.765 44.2073 136.594 44.7881 136.594 45.6433V49.2895H135.463H135.472Z" fill="#3C3C3B"/>
<path d="M147.258 49.2909V40.0703H150.438C151.154 40.0703 151.699 40.1187 152.081 40.1994C152.61 40.3204 153.057 40.5463 153.432 40.8689C153.92 41.2804 154.277 41.8047 154.521 42.442C154.765 43.0793 154.879 43.8134 154.879 44.6282C154.879 45.33 154.798 45.9512 154.635 46.4917C154.473 47.0322 154.261 47.4839 154.009 47.8308C153.757 48.1857 153.472 48.46 153.171 48.6617C152.87 48.8634 152.496 49.0166 152.065 49.1215C151.634 49.2264 151.138 49.2828 150.585 49.2828H147.258V49.2909ZM148.478 48.2019H150.446C151.056 48.2019 151.536 48.1454 151.878 48.0325C152.228 47.9195 152.496 47.7582 152.708 47.5565C153 47.2661 153.228 46.8789 153.391 46.3949C153.554 45.9028 153.635 45.3139 153.635 44.6201C153.635 43.6601 153.48 42.918 153.163 42.4017C152.846 41.8854 152.464 41.5385 152 41.361C151.675 41.232 151.146 41.1674 150.43 41.1674H148.486V48.2099L148.478 48.2019Z" fill="#3C3C3B"/>
<path d="M156.872 41.385V40.0781H158.003V41.385H156.872ZM156.872 49.2907V42.6192H158.003V49.2907H156.872Z" fill="#3C3C3B"/>
<path d="M160.183 49.2895V42.6181H161.199V43.57C161.687 42.8359 162.395 42.4648 163.322 42.4648C163.721 42.4648 164.087 42.5374 164.429 42.6827C164.77 42.8279 165.022 43.0215 165.185 43.2554C165.348 43.4894 165.47 43.7717 165.535 44.0863C165.584 44.2961 165.608 44.6591 165.608 45.1834V49.2895H164.477V45.2238C164.477 44.7639 164.429 44.4251 164.347 44.1993C164.266 43.9734 164.103 43.7878 163.875 43.6507C163.648 43.5136 163.387 43.441 163.078 43.441C162.598 43.441 162.184 43.5942 161.834 43.9008C161.484 44.2073 161.313 44.7881 161.313 45.6433V49.2895H160.183Z" fill="#3C3C3B"/>
<path d="M167.804 41.385V40.0781H168.935V41.385H167.804ZM167.804 49.2907V42.6192H168.935V49.2907H167.804Z" fill="#3C3C3B"/>
<path d="M171.115 49.2895V42.6181H172.131V43.57C172.62 42.8359 173.327 42.4648 174.263 42.4648C174.661 42.4648 175.027 42.5374 175.369 42.6827C175.71 42.8279 175.963 43.0215 176.133 43.2554C176.296 43.4894 176.418 43.7717 176.483 44.0863C176.532 44.2961 176.556 44.6591 176.556 45.1834V49.2895H175.426V45.2238C175.426 44.7639 175.377 44.4251 175.296 44.1993C175.206 43.9734 175.052 43.7878 174.824 43.6507C174.596 43.5136 174.336 43.441 174.027 43.441C173.547 43.441 173.132 43.5942 172.782 43.9008C172.432 44.2073 172.262 44.7881 172.262 45.6433V49.2895H171.131H171.115Z" fill="#3C3C3B"/>
<path d="M178.525 49.8484L179.623 50.0178C179.672 50.3566 179.802 50.6067 180.013 50.7519C180.298 50.9616 180.68 51.0665 181.16 51.0665C181.689 51.0665 182.096 50.9616 182.38 50.7519C182.665 50.5421 182.86 50.2517 182.958 49.8726C183.015 49.6386 183.039 49.1546 183.039 48.4124C182.551 49.0013 181.933 49.2917 181.193 49.2917C180.274 49.2917 179.566 48.961 179.062 48.2995C178.557 47.638 178.305 46.8474 178.305 45.9197C178.305 45.2824 178.419 44.6935 178.655 44.1531C178.883 43.6126 179.224 43.2011 179.664 42.9027C180.103 42.6042 180.615 42.459 181.209 42.459C181.99 42.459 182.641 42.7817 183.161 43.419V42.6203H184.194V48.3882C184.194 49.4289 184.088 50.163 183.877 50.5986C183.665 51.0342 183.332 51.3811 182.868 51.6312C182.405 51.8813 181.843 52.0103 181.176 52.0103C180.379 52.0103 179.737 51.8329 179.241 51.4698C178.753 51.1068 178.509 50.5663 178.525 49.8484ZM179.46 45.8391C179.46 46.7184 179.639 47.3557 179.981 47.759C180.331 48.1624 180.762 48.356 181.282 48.356C181.803 48.356 182.242 48.1624 182.592 47.759C182.942 47.3637 183.12 46.7345 183.12 45.8713C183.12 45.0566 182.942 44.4435 182.576 44.024C182.209 43.6045 181.778 43.4028 181.266 43.4028C180.754 43.4028 180.331 43.6126 179.981 44.0159C179.631 44.4193 179.452 45.0324 179.452 45.831L179.46 45.8391Z" fill="#3C3C3B"/>
<path d="M118.244 0C118.895 0.112938 119.553 0.193608 120.204 0.330748C122.49 0.822836 124.499 1.78281 125.898 3.73503C126.63 4.75147 127.069 5.88892 127.305 7.10704C127.46 7.92181 126.988 8.51877 126.158 8.58331C125.695 8.61558 125.231 8.65591 124.775 8.66398C124.182 8.67204 123.807 8.3897 123.645 7.81694C123.409 6.9699 123.108 6.14707 122.555 5.44524C121.75 4.43686 120.668 3.87217 119.415 3.63016C117.439 3.25908 115.454 3.24294 113.526 3.89637C112.192 4.34812 111.208 5.21129 110.801 6.58269C110.24 8.49457 111.444 10.6565 113.412 11.3422C113.868 11.5036 114.372 11.6084 114.518 12.1247C114.714 12.7943 114.714 13.4881 114.429 14.1415C114.234 14.5771 113.729 14.7868 113.266 14.7062C110.378 14.2222 107.629 11.6084 107.068 8.77692C106.612 6.48588 107.662 3.43655 110.151 1.79088C111.663 0.782501 113.372 0.314614 115.161 0.0887372C115.291 0.0726032 115.421 0.0322681 115.551 0.00806702C116.454 0.00806702 117.349 0.00806702 118.252 0.00806702L118.244 0ZM4.18901 3.70276C7.06844 3.70276 9.93974 3.68663 12.8192 3.71083C13.5919 3.71083 14.3728 3.79957 15.1211 3.96897C17.0488 4.40459 18.334 5.86472 18.4967 7.66367C18.6756 9.67235 17.7077 11.4552 15.9345 12.1651C15.2594 12.4393 14.4866 12.5523 13.7546 12.6087C12.2986 12.7136 10.8426 12.7298 9.38663 12.7782C8.34548 12.8104 7.54835 13.7865 7.74356 14.811C7.92251 15.7952 8.46749 16.3034 9.54931 16.4164C11.0622 16.5777 12.3149 17.1827 13.2259 18.417C13.7546 19.135 14.3402 19.8126 14.8283 20.5628C16.4225 22.991 17.9843 25.4434 19.5378 27.8958C19.8551 28.3959 20.2699 28.6299 20.8474 28.6299C21.3761 28.6299 21.913 28.6299 22.4417 28.6299C22.9785 28.6299 23.4584 28.5088 23.7187 28.0006C23.9709 27.5166 23.8245 27.0729 23.5479 26.6292C22.4986 25.0078 21.4331 23.3944 20.4407 21.7325C19.1393 19.5706 17.5044 17.6829 15.6173 16.005C15.5278 15.9243 15.4058 15.892 15.2919 15.8356C15.6742 15.6581 15.9508 15.6016 16.2273 15.529C17.9599 15.0934 19.5623 14.3916 20.7335 12.996C22.6369 10.7291 22.8891 8.13155 21.9943 5.42104C21.2704 3.21874 19.8225 1.6134 17.4881 1.01644C16.39 0.734099 15.2431 0.524356 14.1125 0.508222C9.84213 0.443686 5.57992 0.475954 1.30957 0.451753C0.479906 0.45982 0 1.00031 0 1.80701C0.024402 8.09122 0.016268 14.3835 0.016268 20.6677C0.016268 22.9184 0.016268 25.1772 0.016268 27.4279C0.016268 28.0894 0.36603 28.533 1.01675 28.5814C1.63493 28.6298 2.26938 28.6218 2.88757 28.5653C3.38374 28.5169 3.6847 28.1862 3.77417 27.6941C3.81484 27.4843 3.82298 27.2665 3.82298 27.0487C3.82298 19.4496 3.82298 11.8585 3.82298 4.25939V3.7189C3.96939 3.71083 4.07513 3.69469 4.18087 3.69469L4.18901 3.70276ZM146.672 5.34843C146.184 6.67142 145.712 7.93795 145.241 9.21253C142.914 15.4887 140.588 21.7567 138.262 28.0329C137.944 28.888 137.7 29.0574 136.789 29.0574C136.423 29.0574 136.049 29.0251 135.683 29.0574C134.634 29.1703 134.097 28.2588 134.479 27.3069C135.219 25.4595 135.911 23.588 136.627 21.7245C139.148 15.1499 141.662 8.57524 144.183 1.99255C144.517 1.12938 144.769 0.935774 145.688 0.927707C146.331 0.91964 146.973 0.951908 147.608 0.927707C148.364 0.903506 148.803 1.24232 149.088 1.93608C151.829 8.68818 154.587 15.4322 157.344 22.1762C158.043 23.8864 158.735 25.5966 159.434 27.3069C159.597 27.6941 159.67 28.0894 159.459 28.4766C159.255 28.8477 158.946 29.0574 158.499 29.0574C157.938 29.0574 157.385 29.0574 156.823 29.0574C155.986 29.0574 155.725 28.888 155.424 28.0974C154.676 26.1533 153.928 24.2011 153.179 22.2488C151.073 16.7552 148.966 11.2616 146.859 5.76792C146.81 5.64691 146.753 5.52591 146.672 5.34037V5.34843ZM85.7648 5.37263C85.6835 5.55818 85.6347 5.67111 85.5859 5.79212C82.8366 13.2057 80.0873 20.6112 77.3299 28.0248C76.9964 28.9122 76.7849 29.0574 75.8251 29.0574C75.3858 29.0574 74.9547 29.0574 74.5155 29.0574C73.7672 29.0413 73.2385 28.3798 73.4581 27.6699C73.7265 26.8228 74.06 26 74.3772 25.1691C77.3461 17.4248 80.315 9.67236 83.2839 1.92802C83.5849 1.14552 83.8859 0.943841 84.7155 0.935774C85.3825 0.935774 86.0495 0.935774 86.7165 0.935774C87.5136 0.935774 87.8146 1.14552 88.1155 1.86348C90.9787 8.87372 93.8419 15.884 96.705 22.8942C97.3151 24.3947 97.9333 25.8871 98.5189 27.3956C98.6247 27.6779 98.6409 28.0329 98.5759 28.3233C98.4701 28.7831 98.0471 29.0413 97.5672 29.0493C97.0223 29.0493 96.4773 29.0493 95.9323 29.0493C95.0538 29.0493 94.8098 28.8799 94.5007 28.0813C93.8256 26.3227 93.1505 24.5641 92.4672 22.8055C90.2873 17.1343 88.1155 11.4632 85.9356 5.79212C85.8868 5.67111 85.838 5.55818 85.7567 5.36457L85.7648 5.37263ZM117.683 29.1461C115.706 29.0977 113.778 28.8557 111.948 28.1458C108.516 26.8228 106.572 24.2898 105.986 20.7161C105.88 20.0949 106.295 19.5141 106.929 19.4173C107.442 19.3366 107.954 19.2882 108.475 19.264C109.101 19.2398 109.484 19.5625 109.654 20.1675C109.736 20.4499 109.809 20.7403 109.89 21.0226C110.354 22.5392 111.273 23.709 112.705 24.435C115.674 25.9435 118.74 26.0807 121.815 24.8222C124.483 23.7332 124.987 21.2082 124.369 19.2963C123.864 17.7394 122.604 16.9327 121.107 16.4244C120.798 16.3196 120.481 16.255 120.163 16.1824C119.537 16.0372 119.22 15.7065 119.163 15.0773C119.13 14.6739 119.122 14.2706 119.163 13.8672C119.212 13.1654 119.789 12.6814 120.481 12.7943C123.108 13.246 125.369 14.3754 126.963 16.5535C128.867 19.1511 128.704 22.7651 126.606 25.4272C125.109 27.3311 123.067 28.3394 120.725 28.7831C119.732 28.9767 118.707 29.0171 117.691 29.13L117.683 29.1461ZM56.3198 21.7487C56.3198 20.0223 56.3279 18.296 56.3198 16.5697C56.3198 16.0372 56.4499 15.5693 56.759 15.1337C59.248 11.5762 61.737 8.01862 64.2097 4.46106C64.9825 3.34781 65.7389 2.23456 66.4873 1.10518C66.7638 0.685697 67.1298 0.45982 67.6341 0.45982C68.1222 0.45982 68.6184 0.45982 69.1064 0.45982C69.5944 0.45982 69.9849 0.637294 70.2126 1.08098C70.4322 1.52467 70.3509 1.93608 70.0825 2.33944C69.0251 3.8641 67.9758 5.38877 66.9265 6.91343C64.7547 10.0596 62.5748 13.2057 60.4112 16.368C60.2729 16.5697 60.1834 16.8601 60.1834 17.1021C60.1671 20.4499 60.1671 23.7896 60.1671 27.1374C60.1671 28.2265 59.7767 28.6137 58.6624 28.6218C58.3614 28.6218 58.0604 28.6218 57.7595 28.6218C56.7834 28.6137 56.3279 28.17 56.3279 27.2101C56.3279 25.3869 56.3279 23.5718 56.3279 21.7487H56.3198ZM37.3188 14.5206C37.3188 18.7397 37.3188 22.9668 37.3188 27.1859C37.3188 28.2184 36.9039 28.6218 35.8546 28.6218C35.4317 28.6218 35.0087 28.6379 34.5857 28.5895C33.9269 28.5169 33.569 28.1216 33.4958 27.4763C33.4795 27.3553 33.4958 27.2343 33.4958 27.1132C33.4958 18.7236 33.4958 10.3339 33.4958 1.93608C33.4958 1.73441 33.512 1.53273 33.5608 1.33913C33.6747 0.83897 34.0408 0.508222 34.5613 0.475954C35.0494 0.443686 35.5455 0.451753 36.0336 0.45982C36.9121 0.475954 37.3269 0.903506 37.3269 1.76668C37.3269 6.018 37.3269 10.2693 37.3269 14.5126L37.3188 14.5206ZM172.896 16.3438C172.896 12.7136 172.896 9.08346 172.896 5.4533C172.896 4.4772 173.335 4.04964 174.311 4.04964C174.588 4.04964 174.856 4.04964 175.133 4.04964C175.881 4.06578 176.353 4.51753 176.402 5.25163C176.402 5.3565 176.402 5.46944 176.402 5.57431C176.402 12.754 176.402 19.9255 176.402 27.1052C176.402 28.2023 175.979 28.6218 174.865 28.6218C174.564 28.6218 174.263 28.6379 173.97 28.5976C173.287 28.5088 172.912 28.0732 172.904 27.3875C172.904 26.7018 172.904 26.0081 172.904 25.3224C172.904 22.3295 172.904 19.3366 172.904 16.3357L172.896 16.3438ZM174.873 3.88024C171.578 3.88024 168.276 3.88024 164.982 3.88024C164.299 3.88024 163.843 3.52529 163.77 2.87186C163.713 2.40397 163.713 1.92802 163.77 1.46013C163.843 0.863171 164.266 0.524356 164.884 0.475954C165.031 0.467887 165.185 0.467887 165.332 0.467887C171.709 0.467887 178.086 0.467887 184.463 0.467887C184.666 0.467887 184.878 0.467887 185.073 0.492088C185.601 0.564691 185.976 0.992243 185.984 1.52467C185.992 1.91188 185.984 2.30717 185.984 2.69438C185.984 3.44462 185.553 3.88024 184.804 3.88024C182.47 3.88024 180.144 3.8641 177.809 3.85603C176.825 3.85603 175.849 3.85603 174.865 3.85603V3.88024H174.873ZM47.6489 0.475954C48.7877 0.217809 49.4465 0.790568 50.0647 1.67794C52.2365 4.78374 54.4652 7.84114 56.6858 10.9066C57.1169 11.4955 57.1657 12.0441 56.7671 12.6572C56.4662 13.125 56.1978 13.6091 55.9049 14.0769C55.3762 14.9159 54.4245 14.9563 53.8714 14.1415C51.1709 10.2128 48.4705 6.27614 45.7862 2.33137C45.1925 1.46013 45.6886 0.524356 46.7542 0.475954C47.0551 0.45982 47.3561 0.475954 47.6571 0.475954H47.6489Z" fill="#F2928B"/>
</g>
<defs>
<clipPath id="clip0_1101_1418">
<rect width="186" height="52" fill="white"/>
</clipPath>
</defs>
</svg>
