<svg width="85" height="77" viewBox="0 0 85 77" fill="none" xmlns="http://www.w3.org/2000/svg">
<path fill-rule="evenodd" clip-rule="evenodd" d="M42.571 67.6601C44.3769 67.6601 45.8382 66.1881 45.8382 64.3215C45.8382 62.4548 44.378 60.9839 42.571 60.9839C40.7609 60.9839 39.3006 62.4559 39.3006 64.3215C39.2996 66.1881 40.7609 67.6601 42.571 67.6601ZM42.571 69.6772C39.6548 69.6772 37.2878 67.2601 37.2878 64.3215C37.2878 61.3881 39.6548 58.9668 42.571 58.9668C45.483 58.9668 47.8542 61.3892 47.8542 64.3215C47.8542 67.2601 45.483 69.6772 42.571 69.6772Z" fill="#B7946E"/>
<path d="M50.2329 46.5043C50.5103 46.3037 51.1097 46.2824 51.6868 46.5768C52.266 46.8659 52.6095 47.3587 52.6095 47.6936L52.6703 64.4435C52.6767 66.1331 52.6095 67.6253 51.9204 69.0099C49.3103 74.2493 43.0265 76.3539 37.9097 73.7768C32.7823 71.204 30.7321 64.8936 33.3871 59.6712C34.0868 58.2931 35.2367 57.3427 36.5935 56.3603L50.2329 46.5043ZM52.5935 44.7773C51.5268 44.244 50.154 44.0712 49.05 44.8669L35.4105 54.7325C33.7604 55.9272 32.3375 57.2883 31.5876 58.7656C28.4335 64.9384 30.8879 72.5107 37.0041 75.5827C43.1161 78.6547 50.7204 76.1501 53.7337 69.9048C54.5839 68.1501 54.6937 66.1107 54.6884 64.4317L54.6276 47.6819C54.6212 46.3272 53.6601 45.316 52.5935 44.7773Z" fill="#B7946E"/>
<path fill-rule="evenodd" clip-rule="evenodd" d="M11.2773 19.7933C6.33325 19.7933 2.35032 23.7752 2.35032 28.7096C2.35032 33.6376 6.33325 37.6163 11.2773 37.6163C16.2277 37.6163 20.217 33.6376 20.217 28.7096C20.217 23.7752 16.2277 19.7933 11.2773 19.7933ZM11.2773 17.7773C17.3103 17.7773 22.233 22.6883 22.233 28.7107C22.233 34.7331 17.3103 39.6333 11.2773 39.6333C5.24419 39.6333 0.333252 34.7331 0.333252 28.7107C0.333252 22.6883 5.24419 17.7773 11.2773 17.7773Z" fill="#B7946E"/>
<path fill-rule="evenodd" clip-rule="evenodd" d="M29.5332 12.0596C29.3998 12.0596 29.2601 12.098 29.1545 12.1438C27.45 12.7934 25.7881 13.6105 24.1838 14.5438C22.394 15.5838 20.7108 16.7721 19.1438 18.0724C18.0046 18.9214 19.3998 20.5822 20.4377 19.6169C21.611 18.6388 22.8601 17.7374 24.171 16.9161L32.0772 30.578C27.0766 33.922 24.1273 39.5166 23.7881 45.5614H7.90011C7.94384 44.1214 8.01104 42.6761 8.22118 41.2777C8.49424 39.8932 6.37691 39.5785 6.23398 40.978C5.95451 42.8116 5.80518 44.6782 5.80518 46.5673C5.80518 47.122 6.25531 47.5721 6.81744 47.5785H24.5337C25.0884 47.5785 25.5374 47.122 25.5374 46.5673C25.5374 40.4382 28.7876 34.7785 34.0537 31.7161C36.7097 30.1769 39.6164 29.4164 42.57 29.4281C45.5204 29.4164 48.4324 30.1769 51.082 31.7161C56.3524 34.7785 59.5982 40.4393 59.5982 46.5673C59.5982 47.122 60.0526 47.5785 60.6084 47.5785H78.3246C78.8804 47.5785 79.3305 47.122 79.3305 46.5673C79.3305 44.6782 79.1908 42.8116 78.9134 40.978C78.7673 39.5785 76.6468 39.8932 76.9177 41.2777C77.1342 42.6772 77.1972 44.1225 77.2345 45.5614H61.3497C61.0105 39.4708 58.0164 33.843 52.9497 30.5097L60.8601 16.8468C62.2105 17.6862 63.4937 18.6089 64.7044 19.6148C65.1268 20.0084 65.7934 19.97 66.1668 19.5252C66.538 19.0814 66.4601 18.4148 65.994 18.0702C64.427 16.77 62.7502 15.5817 60.954 14.5417C59.3497 13.6084 57.6932 12.8073 55.994 12.1417C55.8382 12.0745 55.6665 12.0521 55.5001 12.0692C54.4441 12.1854 54.2606 13.6404 55.2548 14.0137C56.571 14.53 57.851 15.1593 59.1044 15.8473L51.2046 29.4985C48.4942 28.1023 45.5438 27.4036 42.571 27.4089C39.5502 27.4036 36.5668 28.1257 33.8212 29.5593L25.9172 15.9092C27.2174 15.1924 28.538 14.5481 29.8948 14.0148C30.9604 13.6265 30.667 12.0543 29.5332 12.0596Z" fill="#B7946E"/>
<path fill-rule="evenodd" clip-rule="evenodd" d="M14.1041 32.1048C15.0043 32.0152 15.3435 30.8824 14.6374 30.3149C12.6438 28.6541 9.90992 28.6541 7.91632 30.3149C7.48752 30.6701 7.42672 31.3101 7.78725 31.7368C8.14352 32.1656 8.77712 32.22 9.20378 31.8648C10.5766 30.7267 11.9867 30.7267 13.3542 31.8648C13.5664 32.0429 13.8331 32.1272 14.1041 32.1048Z" fill="#B7946E"/>
<path d="M39.6536 12.7883C39.0936 12.7766 38.6328 13.232 38.6328 13.7942C38.6328 14.3595 39.0936 14.8107 39.6536 14.8054H45.4829C46.0429 14.8107 46.5037 14.3595 46.5037 13.7942C46.5037 13.232 46.0429 12.7766 45.4829 12.7883H39.6536Z" fill="#B7946E"/>
<path fill-rule="evenodd" clip-rule="evenodd" d="M73.8605 19.7933C68.9165 19.7933 64.9336 23.7752 64.9336 28.7096C64.9336 33.6376 68.9165 37.6163 73.8605 37.6163C78.8109 37.6163 82.8002 33.6376 82.8002 28.7096C82.8002 23.7752 78.8098 19.7933 73.8605 19.7933ZM73.8605 17.7773C79.8936 17.7773 84.8162 22.6883 84.8162 28.7107C84.8162 34.7331 79.8936 39.6333 73.8605 39.6333C67.8274 39.6333 62.9165 34.7331 62.9165 28.7107C62.9165 22.6883 67.8274 17.7773 73.8605 17.7773Z" fill="#B7946E"/>
<path fill-rule="evenodd" clip-rule="evenodd" d="M42.571 2.61561C37.6206 2.61561 33.6376 6.58681 33.6376 11.5201C33.6376 16.4481 37.6206 20.4257 42.571 20.4257C47.5171 20.4257 51.5043 16.4481 51.5043 11.5201C51.5043 6.58681 47.516 2.61561 42.571 2.61561ZM42.571 0.599609C48.604 0.599609 53.5214 5.49988 53.5214 11.5212C53.5214 17.5436 48.6051 22.4439 42.571 22.4439C36.5368 22.4439 31.627 17.5447 31.627 11.5212C31.627 5.49988 36.5379 0.599609 42.571 0.599609Z" fill="#B7946E"/>
<path fill-rule="evenodd" clip-rule="evenodd" d="M76.6873 29.0711C77.594 29.15 77.9374 30.2977 77.2206 30.8663C75.227 32.5217 72.4932 32.5217 70.4996 30.8663C70.0708 30.5111 70.01 29.8711 70.3705 29.4444C70.7268 29.0156 71.3604 28.9601 71.787 29.3153C73.1598 30.4545 74.57 30.4545 75.9374 29.3153C76.1433 29.1372 76.4164 29.0476 76.6873 29.0711Z" fill="#B7946E"/>
<path d="M8.69367 24.6817C8.13794 24.6934 7.69313 25.1542 7.7038 25.71V26.7318C7.69313 27.2918 8.14967 27.7537 8.70967 27.7537C9.26967 27.7537 9.7262 27.2929 9.7198 26.7318V25.71C9.72727 25.1372 9.26647 24.6764 8.69367 24.6817Z" fill="#B7946E"/>
<path d="M13.8275 24.6817C13.2717 24.6934 12.8269 25.1542 12.8376 25.71V26.7318C12.8269 27.2918 13.2835 27.7537 13.8435 27.7537C14.4035 27.7537 14.86 27.2929 14.8536 26.7318V25.71C14.86 25.1372 14.4003 24.6764 13.8275 24.6817Z" fill="#B7946E"/>
<path d="M39.9875 7.93852C39.4275 7.95026 38.9837 8.40572 38.9933 8.96466V9.98759C38.9869 10.5497 39.4371 11.0105 39.9992 11.0105C40.5656 11.0105 41.0157 10.5497 41.0093 9.98759V8.96466C41.0168 8.39292 40.5539 7.93319 39.9875 7.93852Z" fill="#B7946E"/>
<path d="M45.127 7.93852C44.5713 7.95026 44.1265 8.40572 44.1329 8.96466V9.98759C44.1265 10.5497 44.583 11.0105 45.143 11.0105C45.703 11.0105 46.1595 10.5497 46.1489 9.98759V8.96466C46.1606 8.39292 45.6945 7.93319 45.127 7.93852Z" fill="#B7946E"/>
<path d="M71.2769 24.6875C70.7212 24.6993 70.2764 25.1547 70.2871 25.7158V26.7366C70.2764 27.2977 70.7329 27.7595 71.2929 27.7595C71.8529 27.7595 72.3094 27.2977 72.2988 26.7366V25.7158C72.3105 25.143 71.8497 24.6822 71.2769 24.6875Z" fill="#B7946E"/>
<path d="M76.4208 24.6875C75.8608 24.6993 75.4171 25.1547 75.4267 25.7158V26.7366C75.4203 27.2977 75.8704 27.7595 76.4325 27.7595C76.9989 27.7595 77.4491 27.2977 77.4427 26.7366V25.7158C77.4501 25.143 76.9872 24.6822 76.4208 24.6875Z" fill="#B7946E"/>
</svg>
