<svg width="261" height="29" viewBox="0 0 261 29" fill="none" xmlns="http://www.w3.org/2000/svg">
<path d="M5.54483 6.77429V12.1806H17.7567V15.6287H5.54483V21.78H19.9599V25.2281H1V3.32617H19.0031V6.77429H5.54483Z" fill="#1D1D1B" stroke="#1D1D1B" stroke-miterlimit="10"/>
<path d="M25.1343 3.32617H33.7204C36.8929 3.32617 39.8893 3.45388 41.9665 4.96509C43.5528 6.12511 44.497 7.92366 44.497 9.95635C44.497 11.989 43.5528 13.8834 41.9665 15.0434C39.8893 16.5546 36.8929 16.6823 33.7204 16.6823H29.6791V25.2175H25.1343V3.32617ZM29.6791 13.2129H34.375C36.1879 13.2129 37.2077 13.0852 37.963 12.7979C39.0961 12.319 39.8137 11.2228 39.8137 9.96699C39.8137 8.7112 39.0961 7.61504 37.963 7.16806C37.2077 6.88071 36.1879 6.75301 34.375 6.75301H29.6791V13.2236V13.2129Z" fill="#1D1D1B" stroke="#1D1D1B" stroke-miterlimit="10"/>
<path d="M54.2284 25.2175H49.6836V3.32617H54.2284V25.2281V25.2175Z" fill="#1D1D1B" stroke="#1D1D1B" stroke-miterlimit="10"/>
<path d="M76.6507 8.9556C75.2155 7.44438 72.8738 6.31629 69.9908 6.31629C67.1078 6.31629 65.2571 7.57209 65.2571 9.24294C65.2571 10.9138 66.5035 11.4672 69.4117 12.0099L72.5087 12.5846C77.3179 13.5212 80.7927 14.8408 80.7927 18.8317C80.7927 22.8226 76.9025 25.5896 70.4692 25.5896C64.8669 25.5896 61.0522 23.2376 59.2771 21.1092L63.054 18.7891C64.2248 20.428 67.07 22.1415 70.6958 22.1415C74.1328 22.1415 75.9205 20.9176 75.9205 19.1829C75.9205 17.4482 74.1454 16.8309 71.5393 16.352L68.1024 15.7028C63.8975 14.926 60.385 13.4147 60.385 9.42386C60.385 5.43298 64.6528 2.92139 70.1041 2.92139C75.5554 2.92139 78.5769 5.14564 80.0877 6.56107L76.6507 8.94495V8.9556Z" fill="#1D1D1B" stroke="#1D1D1B" stroke-miterlimit="10"/>
<path d="M97.5369 2.94287C105.028 2.94287 109.711 7.58293 109.711 14.277C109.711 20.971 105.355 25.6111 97.5369 25.6111C89.7188 25.6111 85.3628 20.9391 85.3628 14.277C85.3628 7.61486 90.0587 2.94287 97.5369 2.94287ZM97.5369 22.0991C102.12 22.0991 104.763 19.0447 104.763 14.277C104.763 9.5092 102.044 6.39099 97.5369 6.39099C93.0298 6.39099 90.3105 9.51984 90.3105 14.277C90.3105 19.0341 92.9543 22.0991 97.5369 22.0991Z" fill="#1D1D1B" stroke="#1D1D1B" stroke-miterlimit="10"/>
<path d="M115.653 25.2175V3.32617H122.842C126.997 3.32617 129.615 3.32617 132.221 4.86931C135.016 6.60401 137.03 9.92442 137.03 14.2026C137.03 17.8743 135.671 20.9925 133.291 22.9294C130.534 25.2175 127.538 25.2175 122.741 25.2175H115.666H115.653ZM120.236 21.7055H123.22C126.09 21.7055 128.293 21.6736 129.88 20.3858C131.088 19.3216 132.183 17.0335 132.183 14.3304C132.183 11.6272 131.277 9.4668 129.54 8.17908C128.029 7.05099 126.103 6.89136 122.729 6.89136H120.236V21.7055Z" fill="#1D1D1B" stroke="#1D1D1B" stroke-miterlimit="10"/>
<path d="M147.505 6.77429V12.1806H159.717V15.6287H147.505V21.78H161.92V25.2281H142.973V3.32617H160.976V6.77429H147.505Z" fill="#1D1D1B" stroke="#1D1D1B" stroke-miterlimit="10"/>
<path d="M197.536 24.3981C200.834 24.3981 202.974 23.419 204.296 22.376C205.455 20.9712 206.94 18.7363 206.94 15.235C206.94 8.04078 203.113 4.13504 194.502 3.95412L199.286 0.26123C207.771 0.686924 211.825 5.25249 211.825 10.8823C211.825 16.0013 209.118 19.46 204.233 22.4505C202.748 24.2278 198.82 28.2612 193.217 28.2612C183.083 28.2612 179.256 23.0358 179.256 17.3741C179.256 11.3506 183.549 7.37031 188.887 3.28366C185.752 5.96553 184.065 9.04116 184.065 13.181C184.065 20.5881 188.32 24.3874 197.523 24.3874M194.288 17.1719L188.509 21.365L188.446 8.67932C188.811 8.25363 189.466 7.64702 190.662 6.79563L194.124 4.22018L194.288 17.1719ZM204.812 16.0864L199.764 19.9602L195.307 16.9059L200.394 12.9256L204.812 16.0864Z" fill="#1D1D1B"/>
<path d="M197.536 24.3981C200.834 24.3981 202.974 23.419 204.296 22.376C205.455 20.9712 206.94 18.7363 206.94 15.235C206.94 8.04078 203.113 4.13504 194.502 3.95412L199.286 0.26123C207.771 0.686924 211.825 5.25249 211.825 10.8823C211.825 16.0013 209.118 19.46 204.233 22.4505C202.748 24.2278 198.82 28.2612 193.217 28.2612C183.083 28.2612 179.256 23.0358 179.256 17.3741C179.256 11.3506 183.549 7.37031 188.887 3.28366C185.752 5.96553 184.065 9.04116 184.065 13.181C184.065 20.5881 188.32 24.3874 197.523 24.3874L197.536 24.3981ZM194.3 17.1826L188.522 21.3756L188.459 8.68997C188.824 8.26427 189.478 7.65766 190.674 6.80627L194.136 4.23082L194.3 17.1826ZM204.825 16.097L199.777 19.9708L195.32 16.9165L200.406 12.9363L204.825 16.097Z" fill="#1D1D1B"/>
<path d="M229.375 27.2391C228.481 26.6857 228.456 25.4832 228.456 22.3862C228.456 21.2688 228.758 15.8838 228.758 14.2342C228.758 13.17 228.494 11.8184 227.902 11.1798C226.718 10.0411 225.359 9.58349 224.138 9.58349C223.571 9.58349 222.614 10.222 221.657 10.8819C221.657 14.9153 221.695 20.3003 221.859 25.4832C221.859 26.8879 222.186 27.1008 222.853 27.2391H215.098C215.325 27.1327 215.564 27.005 215.589 25.7492C215.753 19.3212 215.753 12.7975 215.753 11.3927C215.753 7.99778 215.287 7.27411 213.537 7.1464C216.282 7.1464 220.273 6.85905 221.657 6.7207V10.8393C222.879 9.86019 224.729 8.50862 226.316 7.65723C227.474 7.01869 228.191 6.73135 229.022 6.73135C231.792 6.73135 234.662 8.91303 234.662 11.563C234.662 14.2129 234.36 20.1088 234.36 22.631C234.36 26.59 235.947 27.1114 237.105 27.2498H229.387L229.375 27.2391Z" fill="#1D1D1B"/>
<path d="M229.375 27.2391C228.481 26.6857 228.456 25.4832 228.456 22.3862C228.456 21.2688 228.758 15.8838 228.758 14.2342C228.758 13.17 228.494 11.8184 227.902 11.1798C226.718 10.0411 225.359 9.58349 224.138 9.58349C223.571 9.58349 222.614 10.222 221.657 10.8819C221.657 14.9153 221.695 20.3003 221.859 25.4832C221.859 26.8879 222.186 27.1008 222.853 27.2391H215.098C215.325 27.1327 215.564 27.005 215.589 25.7492C215.753 19.3212 215.753 12.7975 215.753 11.3927C215.753 7.99778 215.287 7.27411 213.537 7.1464C216.282 7.1464 220.273 6.85905 221.657 6.7207V10.8393C222.879 9.86019 224.729 8.50862 226.316 7.65723C227.474 7.01869 228.191 6.73135 229.022 6.73135C231.792 6.73135 234.662 8.91303 234.662 11.563C234.662 14.2129 234.36 20.1088 234.36 22.631C234.36 26.59 235.947 27.1114 237.105 27.2498H229.387L229.375 27.2391Z" fill="#1D1D1B"/>
<path d="M239.799 13.0425C240.857 11.9782 241.587 11.3397 243.526 9.77528C245.477 8.21085 247.819 6.6145 249.065 6.6145C251.306 6.6145 254.177 7.89158 256.191 9.45601L243.614 18.2679C244.042 21.4819 245.225 22.4077 248.171 23.472C249.33 23.8977 250.941 24.0786 251.633 24.0786C253.383 24.0786 254.567 23.6316 261 18.0231C254.63 23.7061 252.25 25.7494 250.777 26.6008C249.619 27.2074 248.436 27.5586 247.076 27.5586C245.225 27.5586 243.186 27.0797 241.763 26.3667C238.956 25.0364 237.898 22.727 237.898 18.2998C237.898 15.2242 238.288 14.5856 239.774 13.0425M243.601 18.2466L250.928 12.8296C248.952 11.2652 246.774 10.1478 244.432 10.1478C244.067 10.1478 243.941 10.0945 243.677 10.169C243.45 11.1269 243.412 12.4465 243.412 14.2557C243.412 15.8733 243.45 17.1717 243.614 18.2359" fill="#1D1D1B"/>
<path d="M239.799 13.0425C240.857 11.9782 241.587 11.3397 243.526 9.77528C245.477 8.21085 247.819 6.6145 249.065 6.6145C251.306 6.6145 254.177 7.89158 256.191 9.45601L243.614 18.2679C244.042 21.4819 245.225 22.4077 248.171 23.472C249.33 23.8977 250.941 24.0786 251.633 24.0786C253.383 24.0786 254.567 23.6316 261 18.0231C254.63 23.7061 252.25 25.7494 250.777 26.6008C249.619 27.2074 248.436 27.5586 247.076 27.5586C245.225 27.5586 243.186 27.0797 241.763 26.3667C238.956 25.0364 237.898 22.727 237.898 18.2998C237.898 15.2242 238.288 14.5856 239.774 13.0425H239.799ZM243.626 18.2466L250.954 12.8296C248.977 11.2652 246.799 10.1478 244.457 10.1478C244.092 10.1478 243.966 10.0945 243.702 10.169C243.475 11.1269 243.438 12.4465 243.438 14.2557C243.438 15.8733 243.475 17.1717 243.639 18.2359L243.626 18.2466Z" fill="#1D1D1B"/>
</svg>
