<?xml version="1.0" encoding="UTF-8"?><svg xmlns="http://www.w3.org/2000/svg" viewBox="0 0 810 810"><defs><style>.s{fill:#fefefe;}.t{fill:#a67d59;}.u{fill:#af8050;}.v{fill:#c79e69;}.w{fill:#c89f69;}.x{fill:#2b2a28;}.y{isolation:isolate;}</style></defs><g id="a" class="y"/><g id="b" class="y"/><g id="c" class="y"/><g id="d" class="y"/><g id="e" class="y"/><g id="f" class="y"/><g id="g" class="y"/><g id="h"/><g id="i"/><g id="j"/><g id="k"><g><g id="l"><rect class="x" width="810" height="810"/></g><g id="m"><rect class="t" x="473.25" y="70.5" width="1.5" height="176.25"/></g><g id="n"><rect class="t" x="445.5" y="70.5" width="1.5" height="176.25"/></g><g id="o"><rect class="t" x="417.75" y="70.5" width="1.5" height="176.25"/></g><g id="p"><rect class="t" x="390" y="70.5" width="1.5" height="176.25"/></g><g id="q"><rect class="t" x="362.25" y="70.5" width="1.5" height="176.25"/></g><g id="r"><rect class="t" x="334.5" y="70.5" width="1.5" height="176.25"/></g><g><path class="u" d="M408.49,411.2c-7.56,7.76-14.87,15.77-22.72,23.23-27.79,26.43-71.22,15.28-81.8-20.45-8.76-29.6,10.47-58.51,39.16-62.44,10.13-1.39,10.11-1.51,13.28,8.21q2.58,7.9-5.76,7.96c-17.75,.12-32.15,14.48-32.23,32.14-.08,17.47,14.44,31.93,32.14,32.3,9.14,.19,16.71-3.23,23-9.46,7.78-7.71,15.24-15.74,22.83-23.64,4.46-4.08,8.8-8.28,12.76-12.85,7.5-7.63,14.87-15.39,22.52-22.86,22.66-22.11,60.37-18.03,76.23,9.06,18.87,32.22-.94,69.95-35.45,74.26-8.51,1.06-8.53,1.03-11.37-7.11-.8-2.28-1.41-4.64-2.34-6.86-.99-2.36-.13-2.35,1.95-2.27,10.38,.38,20.07-1.78,27.88-9.1,9.99-9.37,12.1-20.91,7.99-33.6-4.04-12.47-13.16-19.32-25.86-21.51-11.16-1.92-20.53,1.61-28.31,9.78-6.94,7.29-14.02,14.43-21.04,21.64-4.29,4.53-8.58,9.05-12.87,13.58Z"/><path class="v" d="M409.16,386.2c-3.96,4.58-8.3,8.78-12.76,12.85-.15-1.57-1.42-2.35-2.37-3.35-7.93-8.28-16.91-15.59-23.99-24.61-12.03-15.32-14.16-32.66-6.76-50.33,7.1-16.94,20.43-26.4,39.08-28.93,26.96-3.65,49.43,15.98,53.79,38.11,.71,3.61,1.23,7.26,1.18,10.96-.02,1.55-.34,2.65-2.03,3.19-4.24,1.35-8.42,2.88-12.66,4.24-1.89,.61-2.43,.28-2.3-2.16,1.1-20.73-10.78-38.63-32.91-37.99-13.3,.38-23.42,6.82-28.74,19.29-5.64,13.21-3.74,25.38,6.58,35.8,6.72,6.79,13.51,13.5,20.32,20.2,1.06,1.04,1.9,2.45,3.58,2.72Z"/><path class="v" d="M408.49,411.2c4.29-4.53,8.58-9.05,12.87-13.58-.11,1.76,1.12,2.73,2.2,3.82,7.2,7.21,14.89,14.01,21.47,21.75,11.95,14.06,16.02,30.5,9.89,48.12-6.38,18.36-19.56,29.58-39.16,32.73-21.11,3.39-41.55-7.64-50.71-25.04-3.92-7.45-5.79-15.42-5.61-23.88,.04-2.02,.94-2.99,2.75-3.55,3.77-1.15,7.56-2.26,11.25-3.64,3-1.12,3.55-.24,3.18,2.71-1.33,10.4,1.04,19.83,8.56,27.39,8.87,8.92,19.76,12.11,31.86,8.81,12-3.27,19.54-11.53,22.63-23.62,2.69-10.5,.59-20.16-6.63-28.14-7.26-8.02-15.21-15.41-22.89-23.05-.42-.42-1.11-.56-1.68-.83Z"/></g><g><path class="s" d="M97.86,592.17l1.08,.54c0,.65,.14,1.23,.43,1.73,.5,.86,1.49,1.71,2.97,2.54,1.48,.83,3.17,1.57,5.08,2.21,1.91,.65,3.9,1.17,5.99,1.57,2.09,.4,3.96,.59,5.62,.59,1.22,0,2.81-.09,4.75-.27,1.94-.18,3.85-.56,5.72-1.13,1.87-.58,3.49-1.37,4.86-2.38,1.37-1.01,2.05-2.34,2.05-4s-.63-2.88-1.89-3.67c-1.26-.79-2.92-1.37-4.97-1.73-2.05-.36-4.39-.59-7.02-.7-2.63-.11-5.31-.27-8.05-.49-2.74-.22-5.42-.58-8.05-1.08-2.63-.5-4.97-1.35-7.02-2.54-2.05-1.19-3.71-2.81-4.97-4.86-1.26-2.05-1.89-4.73-1.89-8.05,0-2.23,.52-4.43,1.57-6.59,1.04-2.16,2.65-4.07,4.81-5.72,2.16-1.66,4.9-3.01,8.21-4.05,3.31-1.04,7.2-1.57,11.66-1.57,3.82,0,7.13,.29,9.94,.86,2.81,.58,5.24,1.19,7.29,1.84,2.05,.65,3.78,1.26,5.18,1.84,1.4,.58,2.57,.86,3.51,.86,1.01,0,1.73-.22,2.16-.65l1.3,.86-7.45,13.5-1.08-.43c-.15-1.01-.43-1.84-.86-2.48-.58-.86-1.53-1.71-2.86-2.54-1.33-.83-2.9-1.57-4.7-2.21-1.8-.65-3.74-1.17-5.83-1.57-2.09-.39-4.18-.59-6.26-.59-1.58,0-3.22,.13-4.91,.38-1.69,.25-3.22,.63-4.59,1.13-1.37,.5-2.5,1.17-3.4,2-.9,.83-1.35,1.85-1.35,3.08,0,1.73,.63,3.02,1.89,3.89,1.26,.86,2.92,1.51,4.97,1.94,2.05,.43,4.39,.72,7.02,.86,2.63,.14,5.31,.32,8.05,.54,2.74,.22,5.42,.59,8.05,1.13,2.63,.54,4.97,1.4,7.02,2.59,2.05,1.19,3.71,2.79,4.97,4.81,1.26,2.02,1.89,4.64,1.89,7.88,0,3.74-.99,6.8-2.97,9.18-1.98,2.38-4.45,4.25-7.4,5.62-2.95,1.37-6.14,2.29-9.56,2.75-3.42,.47-6.61,.7-9.56,.7-4.1,0-7.54-.23-10.31-.7-2.77-.47-5.08-1.04-6.91-1.73-1.84-.68-3.29-1.3-4.37-1.84-1.08-.54-2.02-.81-2.81-.81-.5,0-.97,.29-1.4,.86l-1.51-.86,5.94-13.07Z"/><path class="s" d="M164.6,609.99v-1.94c2.66,0,4-.65,4-1.94v-49.03c0-1.3-1.33-1.94-4-1.94v-1.94h38.02c6.91,0,12.35,1.28,16.31,3.83,3.96,2.56,5.94,6.89,5.94,13.01s-1.98,10.46-5.94,13.01c-3.96,2.56-9.4,3.83-16.31,3.83h-21.71v19.22c0,1.3,1.15,1.94,3.46,1.94v1.94h-19.76Zm39.31-33.05c2.38,0,4.41-.47,6.1-1.4,1.69-.93,2.54-2.77,2.54-5.51s-.85-4.57-2.54-5.51c-1.69-.94-3.73-1.4-6.1-1.4h-23v13.82h23Z"/><path class="s" d="M291.07,564.85c0-.79-.31-1.39-.92-1.78-.61-.4-1.67-.59-3.19-.59h-34.99v13.39h21.17c1.44,0,2.56-.2,3.35-.59,.79-.4,1.19-1.42,1.19-3.08h1.94v16.85h-1.94c0-1.66-.4-2.72-1.19-3.19-.79-.47-1.91-.7-3.35-.7h-21.17v14.9h36.07c1.08,0,1.96-.25,2.65-.76,.68-.5,1.03-1.19,1.03-2.05h1.94v14.8h-1.94c0-1.08-.34-1.69-1.03-1.84-.69-.14-1.57-.22-2.65-.22h-50.33v-1.94c.5,0,.95-.16,1.35-.49,.39-.32,.59-.81,.59-1.46v-49.03c0-.65-.2-1.13-.59-1.46-.4-.32-.85-.49-1.35-.49v-1.94h49.25c1.51,0,2.57-.23,3.19-.7,.61-.47,.92-1.1,.92-1.89h1.94v14.26h-1.94Z"/><path class="s" d="M369.69,602.21c-.22,0-.42-.02-.59-.05-.18-.04-.38-.05-.59-.05-.43,0-1.46,.43-3.08,1.3s-3.67,1.84-6.16,2.92c-2.48,1.08-5.31,2.02-8.48,2.81-3.17,.79-6.48,1.19-9.94,1.19-4.54,0-8.89-.58-13.07-1.73-4.18-1.15-7.87-2.93-11.07-5.35-3.2-2.41-5.74-5.42-7.61-9.02-1.87-3.6-2.81-7.81-2.81-12.64s.94-8.95,2.81-12.58c1.87-3.63,4.41-6.68,7.61-9.13,3.2-2.45,6.89-4.28,11.07-5.51,4.17-1.22,8.53-1.84,13.07-1.84,3.67,0,7,.29,9.99,.86,2.99,.58,5.6,1.19,7.83,1.84,2.23,.65,4,1.26,5.29,1.84,1.3,.58,2.09,.86,2.38,.86,.36,0,.67-.18,.92-.54,.25-.36,.45-.65,.59-.86l1.62,1.3-8.42,13.07-1.08-.76c0-.22-.02-.43-.05-.65-.04-.22-.09-.47-.16-.76-.15-.79-.86-1.6-2.16-2.43-1.3-.83-2.9-1.57-4.81-2.21-1.91-.65-3.93-1.19-6.05-1.62-2.12-.43-4.09-.65-5.89-.65-3.02,0-5.92,.43-8.69,1.3-2.77,.86-5.18,2.12-7.24,3.78-2.05,1.66-3.69,3.69-4.91,6.1-1.23,2.41-1.84,5.17-1.84,8.26s.61,5.85,1.84,8.26c1.22,2.41,2.86,4.45,4.91,6.1,2.05,1.66,4.46,2.92,7.24,3.78,2.77,.86,5.67,1.3,8.69,1.3,2.3,0,4.71-.27,7.24-.81,2.52-.54,4.82-1.22,6.91-2.05,2.09-.83,3.83-1.76,5.24-2.81,1.4-1.04,2.11-2.03,2.11-2.97,0-.5-.15-.94-.43-1.3l1.51-.86,7.13,11.45-.86,.86Z"/><path class="s" d="M387.4,608.05c1.87,0,2.81-.65,2.81-1.94v-49.03c0-1.3-.94-1.94-2.81-1.94v-1.94h17.93v1.94c-1.87,0-2.81,.65-2.81,1.94v49.03c0,1.3,.94,1.94,2.81,1.94v1.94h-17.93v-1.94Z"/><path class="s" d="M416.67,608.05c.94-.14,1.67-.61,2.21-1.4,.54-.79,1.06-1.69,1.57-2.7l19.98-42.01c.5-.94,.95-1.8,1.35-2.59,.39-.79,.59-1.47,.59-2.05,0-.72-.25-1.22-.76-1.51-.5-.29-1.04-.5-1.62-.65v-1.94h18.25v1.94c-.5,.15-1.01,.34-1.51,.59-.5,.25-.76,.77-.76,1.57,0,.58,.12,1.15,.38,1.73,.25,.58,.63,1.33,1.13,2.27l22.46,43.96c.36,.79,.85,1.37,1.46,1.73,.61,.36,1.31,.72,2.11,1.08v1.94h-19.01v-1.94c.29,0,.65-.11,1.08-.32,.43-.22,.65-.54,.65-.97,0-.72-.29-1.66-.86-2.81l-4.1-7.99h-26.35l-3.89,7.67c-.72,1.51-1.08,2.59-1.08,3.24,0,.79,.68,1.19,2.05,1.19v1.94h-15.34v-1.94Zm40.72-20.09l-9.07-20.09-10.15,20.09h19.22Z"/><path class="s" d="M548.43,612.04c0-1.08-.34-1.69-1.03-1.84-.68-.14-1.57-.22-2.65-.22h-51.41v-1.94c2.16,0,3.24-.65,3.24-1.94v-49.03c0-1.3-1.08-1.94-3.24-1.94v-1.94h18.58v1.94c-2.02,0-3.02,.65-3.02,1.94v42.98h35.86c1.08,0,1.96-.25,2.65-.76,.68-.5,1.03-1.19,1.03-2.05h1.94v14.8h-1.94Z"/><path class="s" d="M561.39,608.05c1.87,0,2.81-.65,2.81-1.94v-49.03c0-1.3-.94-1.94-2.81-1.94v-1.94h17.93v1.94c-1.87,0-2.81,.65-2.81,1.94v49.03c0,1.3,.93,1.94,2.81,1.94v1.94h-17.93v-1.94Z"/><path class="s" d="M627.49,606.1c0,1.3,.79,1.94,2.38,1.94v1.94h-16.63v-1.94c.5,0,.95-.16,1.35-.49,.39-.32,.59-.81,.59-1.46v-42.98h-17.82c-.65,0-1.28,.18-1.89,.54-.61,.36-.92,1.04-.92,2.05h-1.94v-15.12h1.94c0,1.01,.31,1.69,.92,2.05,.61,.36,1.24,.54,1.89,.54h47.95c.65,0,1.28-.18,1.89-.54,.61-.36,.92-1.04,.92-2.05h1.94v15.12h-1.94c0-1.01-.31-1.69-.92-2.05-.61-.36-1.24-.54-1.89-.54h-17.82v42.98Z"/><path class="s" d="M678.03,553.18v1.94c-.65,0-1.26,.09-1.84,.27-.58,.18-.86,.63-.86,1.35,0,.43,.52,1.46,1.57,3.08,1.04,1.62,2.27,3.46,3.67,5.51,1.4,2.05,2.86,4.16,4.37,6.32,1.51,2.16,2.74,4,3.67,5.51l12.64-17.39c.58-.86,1.04-1.55,1.4-2.05,.36-.5,.54-.97,.54-1.4,0-.5-.34-.83-1.03-.97-.69-.14-1.31-.22-1.89-.22v-1.94h18.9v1.94c-.58,0-1.12,.05-1.62,.16-.5,.11-1.03,.36-1.57,.76-.54,.4-1.12,.97-1.73,1.73-.61,.76-1.35,1.78-2.21,3.08l-18.36,26.03v19.22c0,1.3,.83,1.94,2.48,1.94v1.94h-17.06v-1.94c.65,0,1.19-.16,1.62-.49,.43-.32,.65-.81,.65-1.46v-19.22l-20.84-29.16c-.5-.72-1.28-1.33-2.32-1.84-1.04-.5-1.93-.76-2.65-.76v-1.94h22.46Z"/></g><g><path class="s" d="M146.59,639.94c1.6,0,3.05,.14,4.35,.42,1.3,.28,2.42,.73,3.35,1.35,.93,.62,1.65,1.42,2.15,2.4,.5,.98,.75,2.19,.75,3.62,0,2.2-.65,3.88-1.95,5.05-1.3,1.17-3.05,1.95-5.25,2.35l6.65,9.5c.23,.33,.51,.53,.83,.6,.32,.07,.61,.1,.88,.1v.9h-9.35v-.9c.3,0,.56-.05,.77-.15,.22-.1,.33-.23,.33-.4s-.07-.36-.2-.58c-.13-.22-.33-.51-.6-.88l-5.5-7.8h-7.15v8.9c0,.3,.11,.52,.33,.67,.22,.15,.61,.22,1.17,.22v.9h-8.65v-.9c.97,0,1.45-.3,1.45-.9v-22.7c0-.6-.48-.9-1.45-.9v-.9h17.1Zm-1.3,11.7c1.2,0,2.2-.09,3-.28,.8-.18,1.43-.44,1.9-.78,.47-.33,.8-.72,1-1.17,.2-.45,.3-.94,.3-1.47s-.1-1.03-.3-1.48c-.2-.45-.53-.84-1-1.17-.47-.33-1.1-.59-1.9-.77-.8-.18-1.8-.28-3-.28h-8.65v7.4h8.65Z"/><path class="s" d="M194.34,645.34c0-.37-.14-.64-.42-.82-.28-.18-.78-.28-1.48-.28h-16.2v6.2h9.8c.67,0,1.18-.09,1.55-.28,.37-.18,.55-.66,.55-1.42h.9v7.8h-.9c0-.77-.18-1.26-.55-1.47-.37-.22-.88-.33-1.55-.33h-9.8v6.9h16.7c.5,0,.91-.12,1.23-.35,.32-.23,.47-.55,.47-.95h.9v6.85h-.9c0-.5-.16-.78-.47-.85-.32-.07-.73-.1-1.23-.1h-23.3v-.9c.23,0,.44-.07,.62-.22,.18-.15,.28-.38,.28-.67v-22.7c0-.3-.09-.53-.28-.67-.18-.15-.39-.23-.62-.23v-.9h22.8c.7,0,1.19-.11,1.48-.33,.28-.22,.42-.51,.42-.88h.9v6.6h-.9Z"/><path class="s" d="M208.69,657.99l.5,.25c0,.3,.07,.57,.2,.8,.23,.4,.69,.79,1.38,1.17,.68,.38,1.47,.73,2.35,1.03,.88,.3,1.81,.54,2.78,.72,.97,.18,1.83,.28,2.6,.28,.57,0,1.3-.04,2.2-.12,.9-.08,1.78-.26,2.65-.53,.87-.27,1.62-.63,2.25-1.1,.63-.47,.95-1.08,.95-1.85s-.29-1.33-.88-1.7c-.58-.37-1.35-.63-2.3-.8-.95-.17-2.03-.28-3.25-.33s-2.46-.12-3.72-.23c-1.27-.1-2.51-.27-3.73-.5-1.22-.23-2.3-.62-3.25-1.17-.95-.55-1.72-1.3-2.3-2.25-.58-.95-.88-2.19-.88-3.72,0-1.03,.24-2.05,.73-3.05,.48-1,1.23-1.88,2.23-2.65,1-.77,2.27-1.39,3.8-1.88,1.53-.48,3.33-.72,5.4-.72,1.77,0,3.3,.13,4.6,.4,1.3,.27,2.43,.55,3.38,.85,.95,.3,1.75,.58,2.4,.85,.65,.27,1.19,.4,1.62,.4,.47,0,.8-.1,1-.3l.6,.4-3.45,6.25-.5-.2c-.07-.47-.2-.85-.4-1.15-.27-.4-.71-.79-1.33-1.18-.62-.38-1.34-.72-2.17-1.02-.83-.3-1.73-.54-2.7-.73-.97-.18-1.93-.27-2.9-.27-.73,0-1.49,.06-2.27,.17-.78,.12-1.49,.29-2.12,.53-.63,.23-1.16,.54-1.58,.92-.42,.38-.62,.86-.62,1.42,0,.8,.29,1.4,.88,1.8,.58,.4,1.35,.7,2.3,.9,.95,.2,2.03,.33,3.25,.4,1.22,.07,2.46,.15,3.73,.25,1.27,.1,2.51,.28,3.73,.53,1.22,.25,2.3,.65,3.25,1.2s1.72,1.29,2.3,2.22c.58,.93,.88,2.15,.88,3.65,0,1.73-.46,3.15-1.38,4.25-.92,1.1-2.06,1.97-3.42,2.6-1.37,.63-2.84,1.06-4.42,1.28-1.58,.22-3.06,.33-4.43,.33-1.9,0-3.49-.11-4.77-.33-1.28-.22-2.35-.48-3.2-.8-.85-.32-1.52-.6-2.02-.85s-.93-.38-1.3-.38c-.23,0-.45,.13-.65,.4l-.7-.4,2.75-6.05Z"/><path class="s" d="M257.64,664.44c0,.6,.37,.9,1.1,.9v.9h-7.7v-.9c.23,0,.44-.07,.62-.22,.18-.15,.27-.38,.27-.67v-19.9h-8.25c-.3,0-.59,.08-.88,.25-.28,.17-.42,.48-.42,.95h-.9v-7h.9c0,.47,.14,.78,.42,.95,.28,.17,.58,.25,.88,.25h22.2c.3,0,.59-.08,.88-.25,.28-.17,.42-.48,.42-.95h.9v7h-.9c0-.47-.14-.78-.42-.95-.28-.17-.58-.25-.88-.25h-8.25v19.9Z"/><path class="s" d="M274.89,665.34c.43-.07,.78-.28,1.03-.65,.25-.37,.49-.78,.72-1.25l9.25-19.45c.23-.43,.44-.83,.62-1.2s.28-.68,.28-.95c0-.33-.12-.57-.35-.7-.23-.13-.48-.23-.75-.3v-.9h8.45v.9c-.23,.07-.47,.16-.7,.28-.23,.12-.35,.36-.35,.72,0,.27,.06,.53,.17,.8,.12,.27,.29,.62,.53,1.05l10.4,20.35c.17,.37,.39,.63,.67,.8,.28,.17,.61,.33,.98,.5v.9h-8.8v-.9c.13,0,.3-.05,.5-.15,.2-.1,.3-.25,.3-.45,0-.33-.13-.77-.4-1.3l-1.9-3.7h-12.2l-1.8,3.55c-.33,.7-.5,1.2-.5,1.5,0,.37,.32,.55,.95,.55v.9h-7.1v-.9Zm18.85-9.3l-4.2-9.3-4.7,9.3h8.9Z"/><path class="s" d="M322.44,640.84c-.73,0-1.1,.3-1.1,.9v15c0,2.1,.68,3.54,2.02,4.33,1.35,.78,3.33,1.17,5.93,1.17s4.57-.39,5.92-1.17,2.02-2.23,2.02-4.33v-15c0-.6-.5-.9-1.5-.9v-.9h8v.9c-.8,0-1.2,.3-1.2,.9v14.75c0,1.97-.28,3.59-.85,4.88-.57,1.28-1.42,2.31-2.55,3.08-1.13,.77-2.54,1.28-4.23,1.55-1.68,.27-3.62,.4-5.83,.4s-4.14-.13-5.82-.4c-1.68-.27-3.09-.78-4.23-1.55-1.13-.77-1.98-1.79-2.55-3.08-.57-1.28-.85-2.91-.85-4.88v-14.75c0-.6-.47-.9-1.4-.9v-.9h8.2v.9Z"/><path class="s" d="M371.89,639.94c1.6,0,3.05,.14,4.35,.42,1.3,.28,2.42,.73,3.35,1.35,.93,.62,1.65,1.42,2.15,2.4,.5,.98,.75,2.19,.75,3.62,0,2.2-.65,3.88-1.95,5.05-1.3,1.17-3.05,1.95-5.25,2.35l6.65,9.5c.23,.33,.51,.53,.83,.6,.32,.07,.61,.1,.88,.1v.9h-9.35v-.9c.3,0,.56-.05,.77-.15,.22-.1,.33-.23,.33-.4s-.07-.36-.2-.58c-.13-.22-.33-.51-.6-.88l-5.5-7.8h-7.15v8.9c0,.3,.11,.52,.33,.67,.22,.15,.61,.22,1.17,.22v.9h-8.65v-.9c.97,0,1.45-.3,1.45-.9v-22.7c0-.6-.48-.9-1.45-.9v-.9h17.1Zm-1.3,11.7c1.2,0,2.2-.09,3-.28,.8-.18,1.43-.44,1.9-.78,.47-.33,.8-.72,1-1.17,.2-.45,.3-.94,.3-1.47s-.1-1.03-.3-1.48c-.2-.45-.53-.84-1-1.17-.47-.33-1.1-.59-1.9-.77-.8-.18-1.8-.28-3-.28h-8.65v7.4h8.65Z"/><path class="s" d="M391.69,665.34c.43-.07,.78-.28,1.03-.65,.25-.37,.49-.78,.72-1.25l9.25-19.45c.23-.43,.44-.83,.62-1.2s.28-.68,.28-.95c0-.33-.12-.57-.35-.7-.23-.13-.48-.23-.75-.3v-.9h8.45v.9c-.23,.07-.47,.16-.7,.28-.23,.12-.35,.36-.35,.72,0,.27,.06,.53,.18,.8,.12,.27,.29,.62,.53,1.05l10.4,20.35c.17,.37,.39,.63,.68,.8,.28,.17,.61,.33,.97,.5v.9h-8.8v-.9c.13,0,.3-.05,.5-.15,.2-.1,.3-.25,.3-.45,0-.33-.13-.77-.4-1.3l-1.9-3.7h-12.2l-1.8,3.55c-.33,.7-.5,1.2-.5,1.5,0,.37,.32,.55,.95,.55v.9h-7.1v-.9Zm18.85-9.3l-4.2-9.3-4.7,9.3h8.9Z"/><path class="s" d="M432.29,665.34c.63,0,.95-.3,.95-.9v-22.7c0-.6-.32-.9-.95-.9v-.9h8.55v.9c-.27,0-.4,.17-.4,.5,0,.27,.33,.73,1,1.4l14.35,14.9v-15.9c0-.6-.43-.9-1.3-.9v-.9h7.55v.9c-.63,0-.95,.3-.95,.9v22.7c0,.6,.32,.9,.95,.9v.9h-8.1v-.9c.43,0,.65-.15,.65-.45,0-.23-.27-.62-.8-1.15l-15.25-15.9v16.6c0,.6,.38,.9,1.15,.9v.9h-7.4v-.9Z"/><path class="s" d="M488.49,664.44c0,.6,.37,.9,1.1,.9v.9h-7.7v-.9c.23,0,.44-.07,.62-.22,.18-.15,.28-.38,.28-.67v-19.9h-8.25c-.3,0-.59,.08-.88,.25-.28,.17-.43,.48-.43,.95h-.9v-7h.9c0,.47,.14,.78,.43,.95,.28,.17,.57,.25,.88,.25h22.2c.3,0,.59-.08,.88-.25s.43-.48,.43-.95h.9v7h-.9c0-.47-.14-.78-.43-.95-.28-.17-.57-.25-.88-.25h-8.25v19.9Z"/><path class="s" d="M510.94,657.99l.5,.25c0,.3,.07,.57,.2,.8,.23,.4,.69,.79,1.38,1.17,.68,.38,1.47,.73,2.35,1.03,.88,.3,1.81,.54,2.78,.72,.97,.18,1.83,.28,2.6,.28,.57,0,1.3-.04,2.2-.12,.9-.08,1.78-.26,2.65-.53,.87-.27,1.62-.63,2.25-1.1,.63-.47,.95-1.08,.95-1.85s-.29-1.33-.88-1.7c-.58-.37-1.35-.63-2.3-.8s-2.03-.28-3.25-.33-2.46-.12-3.72-.23c-1.27-.1-2.51-.27-3.73-.5-1.22-.23-2.3-.62-3.25-1.17-.95-.55-1.72-1.3-2.3-2.25s-.88-2.19-.88-3.72c0-1.03,.24-2.05,.73-3.05,.48-1,1.22-1.88,2.22-2.65,1-.77,2.27-1.39,3.8-1.88,1.53-.48,3.33-.72,5.4-.72,1.77,0,3.3,.13,4.6,.4,1.3,.27,2.42,.55,3.38,.85,.95,.3,1.75,.58,2.4,.85,.65,.27,1.19,.4,1.62,.4,.47,0,.8-.1,1-.3l.6,.4-3.45,6.25-.5-.2c-.07-.47-.2-.85-.4-1.15-.27-.4-.71-.79-1.33-1.18-.62-.38-1.34-.72-2.17-1.02-.83-.3-1.73-.54-2.7-.73-.97-.18-1.93-.27-2.9-.27-.73,0-1.49,.06-2.27,.17-.78,.12-1.49,.29-2.12,.53-.63,.23-1.16,.54-1.58,.92-.42,.38-.62,.86-.62,1.42,0,.8,.29,1.4,.88,1.8,.58,.4,1.35,.7,2.3,.9s2.03,.33,3.25,.4c1.22,.07,2.46,.15,3.73,.25,1.27,.1,2.51,.28,3.72,.53s2.3,.65,3.25,1.2,1.72,1.29,2.3,2.22c.58,.93,.88,2.15,.88,3.65,0,1.73-.46,3.15-1.38,4.25-.92,1.1-2.06,1.97-3.42,2.6-1.37,.63-2.84,1.06-4.42,1.28-1.58,.22-3.06,.33-4.42,.33-1.9,0-3.49-.11-4.78-.33-1.28-.22-2.35-.48-3.2-.8-.85-.32-1.52-.6-2.02-.85s-.93-.38-1.3-.38c-.23,0-.45,.13-.65,.4l-.7-.4,2.75-6.05Z"/><path class="s" d="M589.49,667.19c0-.5-.16-.78-.48-.85s-.72-.1-1.22-.1h-23.8v-.9c1,0,1.5-.3,1.5-.9v-22.7c0-.6-.5-.9-1.5-.9v-.9h8.6v.9c-.93,0-1.4,.3-1.4,.9v19.9h16.6c.5,0,.91-.12,1.22-.35,.32-.23,.48-.55,.48-.95h.9v6.85h-.9Z"/><path class="s" d="M613.19,664.44c0,.6,.37,.9,1.1,.9v.9h-7.7v-.9c.23,0,.44-.07,.62-.22,.18-.15,.28-.38,.28-.67v-19.9h-8.25c-.3,0-.59,.08-.88,.25-.28,.17-.43,.48-.43,.95h-.9v-7h.9c0,.47,.14,.78,.43,.95,.28,.17,.57,.25,.88,.25h22.2c.3,0,.59-.08,.88-.25s.43-.48,.43-.95h.9v7h-.9c0-.47-.14-.78-.43-.95-.28-.17-.57-.25-.88-.25h-8.25v19.9Z"/><path class="s" d="M649.69,639.94c1.83,0,3.54,.27,5.12,.8s2.96,1.34,4.12,2.42c1.17,1.08,2.08,2.45,2.75,4.1,.67,1.65,1,3.59,1,5.82s-.33,4.18-1,5.83c-.67,1.65-1.58,3.02-2.75,4.1s-2.54,1.89-4.12,2.42-3.29,.8-5.12,.8h-16.6v-.9c.77,0,1.15-.3,1.15-.9v-22.7c0-.6-.38-.9-1.15-.9v-.9h16.6Zm-2,22c1.57,0,2.93-.13,4.1-.4,1.17-.27,2.13-.74,2.9-1.42,.77-.68,1.34-1.59,1.73-2.72,.38-1.13,.57-2.57,.57-4.3s-.19-3.17-.57-4.3c-.38-1.13-.96-2.04-1.73-2.72-.77-.68-1.73-1.16-2.9-1.42-1.17-.27-2.53-.4-4.1-.4h-7.75v17.7h7.75Z"/><path class="s" d="M673.29,662.99c0-.97,.35-1.8,1.05-2.5,.7-.7,1.53-1.05,2.5-1.05s1.8,.35,2.5,1.05c.7,.7,1.05,1.53,1.05,2.5s-.35,1.78-1.05,2.42c-.7,.65-1.53,.98-2.5,.98s-1.8-.33-2.5-.98c-.7-.65-1.05-1.46-1.05-2.42Z"/></g><g><path class="w" d="M148.5,737.52c.21,0,.4-.06,.56-.18,.16-.12,.24-.3,.24-.54v-18.24c0-.24-.08-.41-.24-.5s-.35-.14-.56-.14v-.72h7.48v.72c-.13,0-.27,.04-.42,.12-.15,.08-.22,.2-.22,.36,0,.13,.05,.31,.16,.52,.11,.21,.23,.44,.36,.68l5.72,10.4,5.76-10.28c.19-.35,.33-.62,.42-.82,.09-.2,.14-.38,.14-.54,0-.29-.17-.44-.52-.44v-.72h7.4v.72c-.21,0-.4,.05-.56,.14-.16,.09-.24,.26-.24,.5v18.24c0,.24,.08,.42,.24,.54,.16,.12,.35,.18,.56,.18v.72h-6.28v-.72c.72,0,1.08-.24,1.08-.72v-13.28h-.08l-8.04,14.72h-.12l-7.88-14.76h-.08v13.32c0,.48,.37,.72,1.12,.72v.72h-6v-.72Z"/><path class="w" d="M179.9,737.52c.32-.05,.58-.21,.78-.46,.2-.25,.35-.49,.46-.7l5.96-13c.16-.37,.29-.67,.38-.9,.09-.23,.14-.45,.14-.66,0-.16-.03-.26-.1-.3-.07-.04-.14-.09-.22-.14v-.72h6.04v.72c-.08,.05-.17,.09-.26,.12-.09,.03-.14,.13-.14,.32,0,.16,.06,.35,.18,.58,.12,.23,.25,.49,.38,.78l6.48,13.6c.13,.24,.28,.41,.44,.52,.16,.11,.33,.19,.52,.24v.72h-5.68v-.6c.13,0,.27-.04,.42-.12,.15-.08,.22-.23,.22-.44,0-.16-.03-.31-.08-.44-.05-.13-.12-.31-.2-.52l-1.08-2.28h-8.56l-1.12,2.16c-.11,.21-.19,.41-.26,.58-.07,.17-.1,.33-.1,.46,0,.21,.07,.35,.2,.4,.13,.05,.32,.08,.56,.08v.72h-5.36v-.72Zm13.36-6.64l-3.24-6.72-2.84,6.72h6.08Z"/><path class="w" d="M209.98,736.92c0,.4,.25,.6,.76,.6v.72h-5.24v-.72c.43,0,.64-.2,.64-.6v-14.96c0-.4-.21-.6-.64-.6v-.72h5.24v.72c-.51,0-.76,.2-.76,.6v6.52c.91-.75,1.84-1.5,2.8-2.26,.96-.76,1.83-1.46,2.6-2.1s1.41-1.18,1.92-1.62c.51-.44,.76-.71,.76-.82,0-.13-.07-.24-.22-.32s-.29-.12-.42-.12v-.6h6.6v.72c-.32,.11-.8,.41-1.44,.92l-6.68,5.4,6.32,7.84c.32,.4,.67,.81,1.04,1.22,.37,.41,.75,.67,1.12,.78v.72h-5.92v-.72c.29,0,.44-.08,.44-.24,0-.11-.06-.25-.18-.44-.12-.19-.35-.48-.7-.88l-4.92-6-3.12,2.48v4.48Z"/><path class="w" d="M229.38,737.52c.43,0,.72-.05,.88-.14,.16-.09,.24-.25,.24-.46v-14.96c0-.21-.08-.37-.24-.46-.16-.09-.45-.14-.88-.14v-.72h6.08v.72c-.75,0-1.12,.2-1.12,.6v14.96c0,.4,.37,.6,1.12,.6v.72h-6.08v-.72Z"/><path class="w" d="M243.34,737.52c.48,0,.72-.2,.72-.6v-14.96c0-.4-.24-.6-.72-.6v-.72h5.88v.72c-.19,.03-.28,.09-.28,.2,0,.13,.29,.49,.88,1.08l9.6,10.16v-10.84c0-.4-.27-.6-.8-.6v-.72h4.88v.72c-.48,0-.72,.2-.72,.6v14.96c0,.4,.24,.6,.72,.6v.72h-5.2v-.72c.19,0,.28-.07,.28-.2,0-.11-.13-.29-.38-.56-.25-.27-.54-.57-.86-.92l-9.92-10.56v11.64c0,.4,.28,.6,.84,.6v.72h-4.92v-.72Z"/><path class="w" d="M286.62,726.44l-.48-.28c.05-.27,.08-.41,.08-.44,0-.24-.17-.5-.52-.78-.35-.28-.8-.54-1.36-.78s-1.19-.43-1.9-.58c-.71-.15-1.42-.22-2.14-.22-.99,0-1.92,.11-2.8,.34-.88,.23-1.65,.59-2.32,1.08-.67,.49-1.2,1.13-1.6,1.9-.4,.77-.6,1.72-.6,2.84s.21,2.06,.64,2.82c.43,.76,.98,1.37,1.66,1.84s1.43,.81,2.26,1.02c.83,.21,1.63,.32,2.4,.32,1.15,0,2.23-.08,3.26-.24,1.03-.16,1.97-.47,2.82-.92v-2.52h-4.12c-.29,0-.55,.06-.76,.18s-.35,.34-.4,.66h-.72v-4.12h.72c.05,.27,.19,.44,.4,.52s.47,.12,.76,.12h7.84v.72c-.24,.11-.4,.23-.48,.36-.08,.13-.12,.33-.12,.6v3.8c0,.24,.03,.41,.1,.5,.07,.09,.23,.19,.5,.3v.48c-.24,.16-.62,.38-1.14,.66s-1.17,.55-1.96,.82-1.7,.49-2.74,.66c-1.04,.17-2.2,.26-3.48,.26-1.73,0-3.3-.19-4.7-.58s-2.59-.97-3.56-1.74c-.97-.77-1.72-1.71-2.24-2.82s-.78-2.37-.78-3.78,.26-2.67,.78-3.78c.52-1.11,1.27-2.05,2.24-2.84,.97-.79,2.16-1.39,3.56-1.8s2.97-.62,4.7-.62c1.04,0,1.96,.09,2.76,.28,.8,.19,1.49,.39,2.08,.6,.61,.21,1.11,.41,1.48,.6,.37,.19,.65,.28,.84,.28,.21,0,.37-.02,.48-.06s.24-.13,.4-.26l.48,.24-2.32,4.36Z"/><path class="w" d="M315.18,717.2v.72c-.24,0-.47,.03-.68,.1-.21,.07-.32,.23-.32,.5,0,.16,.19,.54,.58,1.14,.39,.6,.84,1.28,1.36,2.04s1.06,1.54,1.62,2.34,1.01,1.48,1.36,2.04l4.68-6.44c.21-.32,.39-.57,.52-.76,.13-.19,.2-.36,.2-.52,0-.19-.13-.31-.38-.36-.25-.05-.49-.08-.7-.08v-.72h7v.72c-.21,0-.41,.02-.6,.06-.19,.04-.38,.13-.58,.28-.2,.15-.41,.36-.64,.64-.23,.28-.5,.66-.82,1.14l-6.8,9.64v7.12c0,.48,.31,.72,.92,.72v.72h-6.32v-.72c.24,0,.44-.06,.6-.18,.16-.12,.24-.3,.24-.54v-7.12l-7.72-10.8c-.19-.27-.47-.49-.86-.68-.39-.19-.71-.28-.98-.28v-.72h8.32Z"/><path class="w" d="M344.06,720.4c1.47,0,2.85,.19,4.14,.56,1.29,.37,2.42,.93,3.38,1.68,.96,.75,1.72,1.69,2.28,2.82,.56,1.13,.84,2.46,.84,3.98s-.28,2.85-.84,3.98c-.56,1.13-1.32,2.07-2.28,2.82-.96,.75-2.09,1.29-3.38,1.62-1.29,.33-2.67,.5-4.14,.5s-2.85-.17-4.14-.5c-1.29-.33-2.42-.87-3.38-1.62-.96-.75-1.72-1.69-2.28-2.82-.56-1.13-.84-2.46-.84-3.98s.28-2.85,.84-3.98c.56-1.13,1.32-2.07,2.28-2.82,.96-.75,2.09-1.31,3.38-1.68,1.29-.37,2.67-.56,4.14-.56Zm0,2.96c-.85,0-1.69,.14-2.5,.42-.81,.28-1.54,.68-2.18,1.2-.64,.52-1.15,1.15-1.54,1.9-.39,.75-.58,1.6-.58,2.56s.19,1.81,.58,2.56c.39,.75,.9,1.38,1.54,1.9,.64,.52,1.37,.92,2.18,1.2,.81,.28,1.65,.42,2.5,.42s1.69-.14,2.5-.42c.81-.28,1.54-.68,2.18-1.2,.64-.52,1.15-1.15,1.54-1.9,.39-.75,.58-1.6,.58-2.56s-.19-1.81-.58-2.56c-.39-.75-.9-1.38-1.54-1.9-.64-.52-1.37-.92-2.18-1.2-.81-.28-1.65-.42-2.5-.42Z"/><path class="w" d="M365.98,721.36c-.59,0-.88,.2-.88,.6v9.19c0,1.28,.47,2.31,1.4,3.09,.93,.78,2.36,1.16,4.28,1.16s3.35-.39,4.28-1.16,1.4-1.8,1.4-3.09v-9.19c0-.4-.33-.6-1-.6v-.72h5.56v.72c-.59,0-.88,.2-.88,.6v10.12c0,.83-.19,1.62-.56,2.38-.37,.76-.94,1.43-1.7,2.02-.76,.59-1.73,1.05-2.92,1.38-1.19,.33-2.58,.5-4.18,.5s-2.99-.17-4.18-.5c-1.19-.33-2.16-.79-2.92-1.38-.76-.59-1.33-1.26-1.7-2.02-.37-.76-.56-1.55-.56-2.38v-10.12c0-.21-.08-.37-.24-.46-.16-.09-.47-.14-.92-.14v-.72h5.72v.72Z"/><path class="w" d="M420.9,721.52c0-.29-.11-.51-.34-.66s-.62-.22-1.18-.22h-12.96v4.96h7.84c.53,0,.95-.05,1.24-.16s.44-.35,.44-.72h.72v5.76h-.72c0-.61-.15-1.01-.44-1.18-.29-.17-.71-.26-1.24-.26h-7.84v7.76c0,.24,.11,.42,.34,.54,.23,.12,.51,.18,.86,.18v.72h-6.8v-.72c.69,0,1.04-.24,1.04-.72v-18.16c0-.48-.35-.72-1.04-.72v-.72h18.56c.56,0,.95-.09,1.18-.26,.23-.17,.34-.41,.34-.7h.72v5.28h-.72Z"/><path class="w" d="M442.34,724.36c0-.51-.41-.76-1.24-.76h-9.76v4h6.16c.45,0,.79-.03,1-.1,.21-.07,.32-.25,.32-.54h.72v4.24h-.8c.08-.29-.03-.47-.32-.54-.29-.07-.71-.1-1.24-.1h-5.84v4.72h10.24c.32,0,.59-.07,.8-.22,.21-.15,.32-.34,.32-.58h.72v4.2h-.72c0-.24-.11-.37-.32-.4-.21-.03-.48-.04-.8-.04h-14.68v-.72c.13,0,.27-.05,.4-.14,.13-.09,.2-.25,.2-.46v-14.96c0-.21-.07-.37-.2-.46-.13-.09-.27-.14-.4-.14v-.72h14.2c.83,0,1.24-.24,1.24-.72h.72v4.44h-.72Z"/><path class="w" d="M465.58,724.36c0-.51-.41-.76-1.24-.76h-9.76v4h6.16c.45,0,.79-.03,1-.1,.21-.07,.32-.25,.32-.54h.72v4.24h-.8c.08-.29-.03-.47-.32-.54-.29-.07-.71-.1-1.24-.1h-5.84v4.72h10.24c.32,0,.59-.07,.8-.22,.21-.15,.32-.34,.32-.58h.72v4.2h-.72c0-.24-.11-.37-.32-.4-.21-.03-.48-.04-.8-.04h-14.68v-.72c.13,0,.27-.05,.4-.14,.13-.09,.2-.25,.2-.46v-14.96c0-.21-.07-.37-.2-.46-.13-.09-.27-.14-.4-.14v-.72h14.2c.83,0,1.24-.24,1.24-.72h.72v4.44h-.72Z"/><path class="w" d="M478.94,720.64v.72c-.61,0-.92,.2-.92,.6v13.32h10.8c.32,0,.59-.07,.8-.22,.21-.15,.32-.35,.32-.62h.72v4.2h-.72c0-.21-.11-.33-.32-.36-.21-.03-.48-.04-.8-.04h-15.68v-.72c.69,0,1.04-.2,1.04-.6v-14.96c0-.4-.35-.6-1.04-.6v-.72h5.8Z"/><path class="w" d="M511.54,731.64l.4,.2c0,.24,.05,.45,.16,.64,.19,.32,.55,.63,1.1,.94,.55,.31,1.17,.58,1.88,.82,.71,.24,1.45,.43,2.22,.58s1.47,.22,2.08,.22c.45,0,1.04-.03,1.76-.1,.72-.07,1.43-.21,2.12-.42s1.29-.51,1.8-.88,.76-.87,.76-1.48-.23-1.07-.7-1.36c-.47-.29-1.08-.51-1.84-.64-.76-.13-1.63-.22-2.6-.26s-1.97-.1-2.98-.18c-1.01-.08-2.01-.21-2.98-.4s-1.84-.5-2.6-.94c-.76-.44-1.37-1.04-1.84-1.8-.47-.76-.7-1.75-.7-2.98,0-.83,.19-1.64,.58-2.44,.39-.8,.98-1.51,1.78-2.12,.8-.61,1.81-1.11,3.04-1.5,1.23-.39,2.67-.58,4.32-.58,1.41,0,2.64,.11,3.68,.32,1.04,.21,1.94,.44,2.7,.68,.76,.24,1.4,.47,1.92,.68,.52,.21,.95,.32,1.3,.32,.37,0,.64-.08,.8-.24l.48,.32-2.76,5-.4-.16c-.05-.37-.16-.68-.32-.92-.21-.32-.57-.63-1.06-.94s-1.07-.58-1.74-.82c-.67-.24-1.39-.43-2.16-.58-.77-.15-1.55-.22-2.32-.22-.59,0-1.19,.05-1.82,.14-.63,.09-1.19,.23-1.7,.42-.51,.19-.93,.43-1.26,.74-.33,.31-.5,.69-.5,1.14,0,.64,.23,1.12,.7,1.44s1.08,.56,1.84,.72c.76,.16,1.63,.27,2.6,.32,.97,.05,1.97,.12,2.98,.2s2.01,.22,2.98,.42c.97,.2,1.84,.52,2.6,.96,.76,.44,1.37,1.03,1.84,1.78,.47,.75,.7,1.72,.7,2.92,0,1.39-.37,2.52-1.1,3.4-.73,.88-1.65,1.57-2.74,2.08-1.09,.51-2.27,.85-3.54,1.02-1.27,.17-2.45,.26-3.54,.26-1.52,0-2.79-.09-3.82-.26-1.03-.17-1.88-.39-2.56-.64-.68-.25-1.22-.48-1.62-.68s-.75-.3-1.04-.3c-.19,0-.36,.11-.52,.32l-.56-.32,2.2-4.84Z"/><path class="w" d="M537.9,721.96c0-.4-.33-.6-1-.6v-.72h11.64c2.16,0,3.78,.39,4.86,1.16,1.08,.77,1.62,2.12,1.62,4.04s-.54,3.25-1.62,3.98-2.7,1.1-4.86,1.1h-6.8v6c0,.4,.28,.6,.84,.6v.72h-5.68v-.72c.67,0,1-.2,1-.6v-14.96Zm10.56,6c.77,0,1.42-.14,1.94-.42,.52-.28,.78-.85,.78-1.7s-.26-1.41-.78-1.74c-.52-.33-1.17-.5-1.94-.5h-6.72v4.36h6.72Z"/><path class="w" d="M576.18,724.36c0-.51-.41-.76-1.24-.76h-9.76v4h6.16c.45,0,.79-.03,1-.1,.21-.07,.32-.25,.32-.54h.72v4.24h-.8c.08-.29-.03-.47-.32-.54-.29-.07-.71-.1-1.24-.1h-5.84v4.72h10.24c.32,0,.59-.07,.8-.22,.21-.15,.32-.34,.32-.58h.72v4.2h-.72c0-.24-.11-.37-.32-.4-.21-.03-.48-.04-.8-.04h-14.68v-.72c.13,0,.27-.05,.4-.14,.13-.09,.2-.25,.2-.46v-14.96c0-.21-.07-.37-.2-.46-.13-.09-.27-.14-.4-.14v-.72h14.2c.83,0,1.24-.24,1.24-.72h.72v4.44h-.72Z"/><path class="w" d="M597.86,725.68c0-.05,0-.11-.02-.16s-.02-.12-.02-.2c0-.13-.13-.31-.4-.54s-.65-.45-1.14-.66c-.49-.21-1.07-.39-1.74-.54-.67-.15-1.4-.22-2.2-.22-.96,0-1.83,.13-2.62,.38-.79,.25-1.47,.63-2.06,1.14-.59,.51-1.04,1.13-1.36,1.88-.32,.75-.48,1.6-.48,2.56s.18,1.82,.54,2.58c.36,.76,.83,1.41,1.42,1.96,.59,.55,1.25,.96,2,1.24,.75,.28,1.51,.42,2.28,.42,.72,0,1.45-.09,2.2-.28,.75-.19,1.43-.41,2.04-.66,.61-.25,1.11-.53,1.5-.82,.39-.29,.58-.56,.58-.8v-.32c0-.16-.01-.29-.04-.4l.44-.4,2.96,4.24-.4,.2c-.32-.13-.55-.2-.68-.2-.21,0-.56,.12-1.04,.36-.48,.24-1.09,.51-1.82,.82-.73,.31-1.59,.57-2.56,.78-.97,.21-2.06,.32-3.26,.32s-2.44-.17-3.64-.52c-1.2-.35-2.27-.9-3.2-1.66-.93-.76-1.69-1.71-2.28-2.84-.59-1.13-.88-2.45-.88-3.94s.29-2.8,.88-3.92c.59-1.12,1.36-2.06,2.32-2.82,.96-.76,2.06-1.33,3.3-1.7,1.24-.37,2.51-.56,3.82-.56,1.01,0,1.94,.09,2.78,.28s1.58,.4,2.22,.64c.64,.24,1.17,.45,1.6,.64,.43,.19,.73,.28,.92,.28,.13,0,.25-.04,.34-.12,.09-.08,.19-.15,.3-.2l.48,.28-2.64,3.8-.44-.32Z"/><path class="w" d="M607.54,737.52c.43,0,.72-.05,.88-.14,.16-.09,.24-.25,.24-.46v-14.96c0-.21-.08-.37-.24-.46-.16-.09-.45-.14-.88-.14v-.72h6.08v.72c-.75,0-1.12,.2-1.12,.6v14.96c0,.4,.37,.6,1.12,.6v.72h-6.08v-.72Z"/><path class="w" d="M618.86,737.52c.32-.05,.58-.21,.78-.46s.35-.49,.46-.7l5.96-13c.16-.37,.29-.67,.38-.9,.09-.23,.14-.45,.14-.66,0-.16-.03-.26-.1-.3s-.14-.09-.22-.14v-.72h6.04v.72c-.08,.05-.17,.09-.26,.12-.09,.03-.14,.13-.14,.32,0,.16,.06,.35,.18,.58,.12,.23,.25,.49,.38,.78l6.48,13.6c.13,.24,.28,.41,.44,.52s.33,.19,.52,.24v.72h-5.68v-.6c.13,0,.27-.04,.42-.12s.22-.23,.22-.44c0-.16-.03-.31-.08-.44s-.12-.31-.2-.52l-1.08-2.28h-8.56l-1.12,2.16c-.11,.21-.19,.41-.26,.58-.07,.17-.1,.33-.1,.46,0,.21,.07,.35,.2,.4,.13,.05,.32,.08,.56,.08v.72h-5.36v-.72Zm13.36-6.64l-3.24-6.72-2.84,6.72h6.08Z"/><path class="w" d="M650.34,720.64v.72c-.61,0-.92,.2-.92,.6v13.32h10.8c.32,0,.59-.07,.8-.22,.21-.15,.32-.35,.32-.62h.72v4.2h-.72c0-.21-.11-.33-.32-.36-.21-.03-.48-.04-.8-.04h-15.68v-.72c.69,0,1.04-.2,1.04-.6v-14.96c0-.4-.35-.6-1.04-.6v-.72h5.8Z"/></g></g></g></svg>