<?xml version="1.0" encoding="UTF-8"?>
<svg version="1.1" xmlns="http://www.w3.org/2000/svg" width="594" height="340">
<path d="M0 0 C196.02 0 392.04 0 594 0 C594 112.2 594 224.4 594 340 C397.98 340 201.96 340 0 340 C0 227.8 0 115.6 0 0 Z " fill="#201E1E" transform="translate(0,0)"/>
<path d="M0 0 C7.44716383 5.52380184 12.9674915 13.31546612 14.3571167 22.56095886 C14.87095819 26.93411723 14.96722475 31.25799025 14.97363281 35.6574707 C14.98108017 36.90556015 14.98108017 36.90556015 14.98867798 38.17886353 C15.00317577 40.90701145 15.01008017 43.63510128 15.015625 46.36328125 C15.01986607 47.77143128 15.01986607 47.77143128 15.02419281 49.20802879 C15.03913385 54.17441459 15.04839587 59.14077171 15.05273438 64.10717773 C15.05821671 69.21102802 15.08225447 74.31461124 15.11070633 79.41837788 C15.12941476 83.36743416 15.13454263 87.31642707 15.13607025 91.26552391 C15.13907794 93.14601288 15.14704198 95.02650123 15.16025543 96.90694618 C15.2560919 111.5914593 14.83384298 124.45026606 4.1484375 135.6875 C-5.13154203 144.16236715 -15.83051331 146.47053609 -28.171875 146.18359375 C-39.72501411 145.63642576 -47.30549384 141.33880839 -55 132.9375 C-64.56500911 121.41601175 -63.48890954 107.67381283 -63.453125 93.5 C-63.45447473 91.61010692 -63.45641783 89.72021417 -63.45892334 87.83032227 C-63.46186009 83.88326691 -63.45762379 79.93630253 -63.44824219 75.98925781 C-63.43684857 70.95266985 -63.44341583 65.91629512 -63.45538712 60.87971497 C-63.46264496 56.98130716 -63.46029982 53.08294917 -63.45513153 49.18453979 C-63.45380587 47.32835871 -63.45540436 45.47217296 -63.46009064 43.61599731 C-63.48920417 28.84642925 -63.48710631 15.16111858 -53.015625 3.60546875 C-39.00861627 -9.17443024 -15.71344646 -9.95889581 0 0 Z " fill="#201D1E" transform="translate(247.1875,84.0625)"/>
<path d="M0 0 C0.71027344 0.44730469 1.42054687 0.89460938 2.15234375 1.35546875 C10.82183708 7.37729559 17.04069582 15.45959859 19 26 C19.31404613 30.46171116 19.32790294 34.91519383 19.3359375 39.38671875 C19.3459227 41.32681572 19.3459227 41.32681572 19.35610962 43.30610657 C19.3680416 46.03865902 19.3717949 48.77108548 19.37060547 51.50366211 C19.37040301 54.9721227 19.39764642 58.43975722 19.43214989 61.90802288 C19.46000548 65.25509711 19.45857457 68.60203059 19.4609375 71.94921875 C19.47530853 73.1777507 19.48967957 74.40628265 19.50448608 75.67204285 C19.45018904 86.06459547 17.52151327 95.64431112 11 104 C10.443125 104.825 9.88625 105.65 9.3125 106.5 C2.03325425 114.36945487 -6.75110075 117.37643877 -17.26953125 118.28125 C-29.80854295 118.63823254 -39.52213565 115.60343667 -48.9375 107.2890625 C-56.95182813 99.10201178 -59.55737064 88.5033133 -59.64343262 77.33076477 C-59.62703735 76.07305771 -59.61064209 74.81535065 -59.59375 73.51953125 C-59.59203211 72.17201342 -59.59211143 70.82449226 -59.59387207 69.47697449 C-59.59223433 66.67743162 -59.57382156 63.8787046 -59.54199219 61.0793457 C-59.50220252 57.51898629 -59.49797016 53.95968402 -59.50545502 50.39914417 C-59.50854552 47.62528562 -59.49633291 44.85165796 -59.47932434 42.07785606 C-59.46903625 40.13605959 -59.46844913 38.19421933 -59.46813965 36.25239563 C-59.30682808 24.10149927 -56.85922214 14.22955573 -48.3359375 5.24609375 C-36.30533922 -5.71328687 -14.07030792 -8.89375628 0 0 Z " fill="#201E1E" transform="translate(101,82)"/>
<path d="M0 0 C8.53241155 5.91946132 13.63938852 12.94045675 16.87890625 22.74609375 C17.37390625 24.23109375 17.37390625 24.23109375 17.87890625 25.74609375 C17.98729424 27.62988714 18.0377522 29.5172311 18.0559082 31.40405273 C18.07516106 33.14748207 18.07516106 33.14748207 18.09480286 34.9261322 C18.10218979 36.18543045 18.10957672 37.4447287 18.1171875 38.7421875 C18.12525925 40.04124527 18.13333099 41.34030304 18.14164734 42.6787262 C18.15667111 45.43514881 18.16650709 48.19154574 18.17407227 50.94799805 C18.18506402 54.44791329 18.21937845 57.9471799 18.25924397 61.44686794 C18.29199554 64.81611232 18.29621521 68.18529644 18.3046875 71.5546875 C18.32219559 72.79576767 18.33970367 74.03684784 18.35774231 75.3155365 C18.32909432 86.97477574 15.63889028 97.76175668 7.87890625 106.74609375 C2.5300357 111.92339675 -2.88914918 115.03048646 -10.12109375 116.74609375 C-10.88679687 116.92785156 -11.6525 117.10960937 -12.44140625 117.296875 C-24.36333342 119.2954488 -35.51437825 117.93450509 -45.49609375 110.87109375 C-54.31934328 103.65043444 -58.35187086 94.86956379 -60.12109375 83.74609375 C-60.4109988 79.34006542 -60.42525359 74.9457607 -60.421875 70.53125 C-60.42616013 69.28033066 -60.43044525 68.02941132 -60.43486023 66.74058533 C-60.44203718 63.4351278 -60.43900475 60.12985457 -60.43328857 56.82440186 C-60.43359329 54.8116125 -60.44363488 52.79911739 -60.45727539 50.78637695 C-60.48187925 46.88869618 -60.48592711 42.99149904 -60.484375 39.09375 C-60.49358475 37.90491714 -60.50279449 36.71608429 -60.51228333 35.4912262 C-60.44729759 23.68720058 -57.90000326 14.77462728 -50.12109375 5.74609375 C-47.63765822 3.34509591 -45.09375915 1.49794077 -42.12109375 -0.25390625 C-41.45207031 -0.66640625 -40.78304688 -1.07890625 -40.09375 -1.50390625 C-28.93034297 -7.15427747 -10.69445553 -6.32213669 0 0 Z " fill="#201E1E" transform="translate(532.12109375,82.25390625)"/>
<path d="M0 0 C9.29121297 7.94625157 16.70199689 19.95287674 17.83649826 32.36133194 C17.91708655 34.73576741 17.93764249 37.10319555 17.93505859 39.47900391 C17.94177582 40.37597992 17.94849304 41.27295593 17.95541382 42.19711304 C17.97433511 45.14839293 17.97831555 48.09944455 17.98046875 51.05078125 C17.9869025 53.11713756 17.99363128 55.18349297 18.00064087 57.24984741 C18.01260026 61.57885853 18.01632324 65.90778994 18.01513672 70.23681641 C18.01493401 75.75424492 18.04219231 81.27115557 18.07668114 86.78846169 C18.09904452 91.05758966 18.10297132 95.32659508 18.10191727 99.5957756 C18.10426072 101.62812452 18.11301255 103.66047747 18.128582 105.6927681 C18.26463716 125.29250856 15.01810866 140.13761061 1.19921875 154.93359375 C-11.39248012 166.40859762 -26.67683732 169.11185279 -43.10205078 168.43652344 C-55.62792483 167.46485217 -67.04640346 160.57682739 -75.51171875 151.5390625 C-87.66568861 136.52684973 -88.97495648 120.68485861 -88.88671875 102.2265625 C-88.88942063 100.21505039 -88.8933088 98.20353956 -88.89831543 96.19203186 C-88.9041764 91.99890574 -88.8957572 87.80612297 -88.87695312 83.61303711 C-88.85415101 78.27174299 -88.86731668 72.93125257 -88.89124298 67.58998775 C-88.90578082 63.44350765 -88.90105881 59.29721432 -88.89073181 55.15072823 C-88.88808731 53.18259139 -88.89125291 51.2144369 -88.90065002 49.24632072 C-88.96752503 31.3119005 -86.39936872 15.71289439 -73.66796875 1.94921875 C-52.57769271 -17.63169517 -22.24135237 -16.82877152 0 0 Z M-65.73046875 13.63671875 C-75.27410258 25.95717259 -74.65861284 39.83837102 -74.62109375 54.69921875 C-74.62244348 56.58911183 -74.62438658 58.47900458 -74.62689209 60.36889648 C-74.62982884 64.31595184 -74.62559254 68.26291622 -74.61621094 72.20996094 C-74.60481732 77.2465489 -74.61138458 82.28292363 -74.62335587 87.31950378 C-74.63061371 91.21791159 -74.62826857 95.11626958 -74.62310028 99.01467896 C-74.62177462 100.87086004 -74.62337311 102.72704579 -74.62805939 104.58322144 C-74.65907454 120.31750002 -74.27897328 133.01086377 -62.98046875 145.13671875 C-54.12498388 153.40832549 -43.08738343 154.90335027 -31.3984375 154.5703125 C-20.12454566 153.93026352 -11.67840056 148.8723766 -4.04296875 140.82421875 C1.64492804 132.18704214 3.96233515 123.78404476 3.88745117 113.49414062 C3.89029869 112.23882286 3.89029869 112.23882286 3.89320374 110.95814514 C3.89688231 108.21548837 3.886248 105.47310164 3.875 102.73046875 C3.87380629 100.8105065 3.87335544 98.89054366 3.87361145 96.97058105 C3.87205155 92.95609861 3.86380014 88.94170596 3.8503418 84.92724609 C3.83335288 79.79628842 3.82952783 74.66542923 3.83028698 69.53444672 C3.8300143 65.57264272 3.82451732 61.61086 3.81728554 57.64906311 C3.81411652 55.75773784 3.81213562 53.86641018 3.81139183 51.9750824 C3.80920941 49.32644598 3.8004245 46.67791121 3.78979492 44.02929688 C3.7904747 42.87102135 3.7904747 42.87102135 3.79116821 41.68934631 C3.72674517 30.64045188 1.7772213 20.3944088 -6.35546875 12.26171875 C-22.80579678 -1.28026399 -50.4028638 -3.27783519 -65.73046875 13.63671875 Z " fill="#F8F8F8" transform="translate(258.35546875,75.73828125)"/>
<path d="M0 0 C11.21095677 7.84435289 16.7802158 19.3406474 21 32 C21.09084396 33.85214456 21.1219511 35.70744305 21.12025452 37.56181335 C21.12231651 39.297108 21.12231651 39.297108 21.12442017 41.06745911 C21.11902725 42.97285713 21.11902725 42.97285713 21.11352539 44.91674805 C21.11324334 46.26692706 21.1134016 47.61710623 21.1139679 48.96728516 C21.11425517 52.63435933 21.10836971 56.30140089 21.10139394 59.96846747 C21.09514878 63.80016906 21.09455568 67.63187138 21.09336853 71.46357727 C21.09025865 78.72021628 21.08204987 85.97684026 21.07201904 93.23347265 C21.06084727 101.49456797 21.05534477 109.755664 21.05032361 118.016765 C21.03986698 135.01118561 21.02207307 152.00559064 21 169 C16.38 169 11.76 169 7 169 C6.99413376 167.34344391 6.98826752 165.68688782 6.98222351 163.98013306 C6.92496486 148.35460092 6.85236224 132.7292184 6.76428509 117.10383034 C6.71939689 109.07102397 6.6799663 101.03826125 6.65356445 93.00537109 C6.63052769 86.00059796 6.5970667 78.99596376 6.55129844 71.99130094 C6.52744241 68.2853647 6.50866392 64.5795654 6.50238609 60.87355423 C6.49516696 56.72751671 6.4646663 52.58195327 6.43237305 48.43603516 C6.43380814 47.21898895 6.43524323 46.00194275 6.4367218 44.74801636 C6.30887233 33.11094201 3.90518498 23.80039787 -4 15 C-6.8449243 12.67800445 -9.7814099 10.76100308 -13 9 C-13.62519531 8.6390625 -14.25039063 8.278125 -14.89453125 7.90625 C-23.72193192 4.10670092 -38.76031744 4.26860219 -47.6875 7.625 C-57.89538113 12.70231131 -65.23531963 20.10224104 -69 31 C-70.26678971 37.57462859 -70.17328924 44.14248506 -70.20532227 50.82006836 C-70.22017166 52.73817825 -70.22017166 52.73817825 -70.23532104 54.69503784 C-70.26222607 58.18416186 -70.28331306 61.67329921 -70.30332303 65.16246867 C-70.32527204 68.81533245 -70.35261689 72.46815583 -70.37937927 76.12098694 C-70.42918613 83.03038687 -70.47416922 89.93980938 -70.51740164 96.84925324 C-70.56687699 104.7187 -70.62175675 112.58810621 -70.67708123 120.45751369 C-70.79071682 136.63830526 -70.89740389 152.81913463 -71 169 C-75.62 169 -80.24 169 -85 169 C-85 110.59 -85 52.18 -85 -8 C-80.38 -8 -75.76 -8 -71 -8 C-70.67 -2.39 -70.34 3.22 -70 9 C-68.22625 7.47375 -66.4525 5.9475 -64.625 4.375 C-44.01416399 -12.9343997 -23.1423563 -13.75807545 0 0 Z " fill="#F9F8F8" transform="translate(399,73)"/>
<path d="M0 0 C2.76432774 2.33025975 5.40846986 4.72565238 8.00390625 7.2421875 C9.80686768 9.22029757 9.80686768 9.22029757 12 9 C13.18851281 7.3746221 13.18851281 7.3746221 14.3125 5.3125 C17.85458194 -0.51546041 21.33799857 -4.29543095 27.86328125 -6.5078125 C31.3089704 -7.30151786 34.47696208 -7.18873417 38 -7 C38 -2.05 38 2.9 38 8 C36.7625 8.20625 35.525 8.4125 34.25 8.625 C30.9602873 9.47358313 30.06648986 9.93001068 27.625 12.5 C23.53626741 21.30650096 23.72650317 30.60614565 23.75617027 40.14868927 C23.7618457 42.50585239 23.75247185 44.86253816 23.7389679 47.21966553 C23.70218626 53.91453324 23.68324119 60.6092328 23.69458008 67.30419922 C23.7004901 71.4203442 23.68189422 75.53581079 23.64869118 79.65181732 C23.64083341 81.20323538 23.64188067 82.75472933 23.65271568 84.30612946 C23.7594868 100.28118268 19.80459868 114.33939867 8.75 126.46875 C2.84671064 132.14498976 -3.47338133 135.84791272 -11 139 C-11.76441406 139.3403125 -12.52882813 139.680625 -13.31640625 140.03125 C-25.47684128 144.59934386 -41.36886555 143.26429183 -53 138 C-68.70395329 129.80573111 -76.36501952 118.38478939 -82 102 C-83.03341639 98.61841084 -83.14455737 95.49911441 -83.17700195 91.96899414 C-83.18983719 90.74994888 -83.20267242 89.53090363 -83.21589661 88.2749176 C-83.22328354 86.95829636 -83.23067047 85.64167511 -83.23828125 84.28515625 C-83.24439454 83.27242047 -83.24439454 83.27242047 -83.25063133 82.23922539 C-83.27147145 78.65810329 -83.28577599 75.07701915 -83.29516602 71.49584961 C-83.30616192 67.83128766 -83.34048683 64.16734446 -83.38033772 60.50299931 C-83.40674431 57.65702851 -83.41487936 54.81119897 -83.41844749 51.9651165 C-83.42557295 49.96852264 -83.45191562 47.97202628 -83.47883606 45.9756012 C-83.44337706 30.85645726 -78.72236506 17.04793528 -68.4375 5.75 C-49.79784489 -11.4862834 -21.18601703 -14.62397636 0 0 Z M-60 17 C-68.16272923 26.58853346 -69.46147899 36.99844253 -69.3984375 49.2421875 C-69.40130768 50.48694855 -69.40417786 51.73170959 -69.40713501 53.01419067 C-69.4091671 55.63462786 -69.40369743 58.25508052 -69.39111328 60.87548828 C-69.37507596 64.85614464 -69.39097844 68.8357815 -69.41015625 72.81640625 C-69.40817314 75.37500221 -69.40432806 77.93359755 -69.3984375 80.4921875 C-69.40451019 81.66756073 -69.41058289 82.84293396 -69.4168396 84.05392456 C-69.31588535 96.09629372 -67.31080629 107.98938153 -59.02734375 117.19140625 C-53.89196105 122.10941825 -48.73718935 124.84750449 -42 127 C-40.515 127.495 -40.515 127.495 -39 128 C-27.05934868 128.76092386 -16.12655938 127.81595343 -6 121 C-5.41605469 120.61457031 -4.83210937 120.22914063 -4.23046875 119.83203125 C3.09011964 114.39342419 7.35763144 104.83931773 9 96 C9.31408696 91.526576 9.32790229 87.06133831 9.3359375 82.578125 C9.3425943 81.28235535 9.3492511 79.98658569 9.35610962 78.65155029 C9.36804029 75.91480172 9.37179495 73.17817896 9.37060547 70.44140625 C9.3704028 66.96388069 9.39766805 63.48717714 9.43214989 60.00984573 C9.45997043 56.65759606 9.4585735 53.3054882 9.4609375 49.953125 C9.47530853 48.71943176 9.48967957 47.48573853 9.50448608 46.21466064 C9.44086911 34.03747606 6.14719782 24.48461097 -2.125 15.4375 C-11.1625125 6.65319367 -21.44881869 5.69496326 -33.4074707 5.68530273 C-44.32113232 5.85293055 -52.1231667 9.36460221 -60 17 Z " fill="#F8F8F8" transform="translate(541,72)"/>
<path d="M0 0 C0.90878906 0.46921875 1.81757812 0.9384375 2.75390625 1.421875 C8.34856144 4.52353182 12.74592659 8.23881851 17 13 C17.32871094 12.34773438 17.65742187 11.69546875 17.99609375 11.0234375 C21.80746365 4.02043264 26.15464347 -0.92303289 33.8359375 -3.65234375 C36.85412326 -4.13721475 39.94311512 -4 43 -4 C43 0.62 43 5.24 43 10 C41.9275 10.391875 40.855 10.78375 39.75 11.1875 C36.03433814 12.81638611 34.09826892 14.42517148 32 18 C29.72506565 25.64026852 29.7183725 33.16270283 29.72560501 41.07352448 C29.72658238 43.43873073 29.71348598 45.80349733 29.69662476 48.16864014 C29.65072387 54.8872948 29.62577896 61.6059006 29.61914062 68.32470703 C29.61408201 72.45259711 29.58961812 76.58002386 29.55381393 80.70775604 C29.54411922 82.26557361 29.54162651 83.82345574 29.54698563 85.38129425 C29.60178653 102.09565451 25.66773065 117.61296141 13.97265625 130.15625 C7.50733652 136.19908349 0.38445913 140.25717694 -8 143 C-9.06605469 143.35707031 -10.13210937 143.71414062 -11.23046875 144.08203125 C-25.38139873 147.52811265 -40.30029653 145.2066609 -52.75 137.8125 C-64.94275439 129.38905865 -73.10467542 118.0439103 -76.58757019 103.52079773 C-77.49417484 97.97957137 -77.34819212 92.34723114 -77.37109375 86.74609375 C-77.38008502 85.35856545 -77.38920721 83.97103799 -77.39845276 82.58351135 C-77.41487636 79.68122014 -77.42262985 76.77904329 -77.42553711 73.87670898 C-77.43089388 70.20105249 -77.46848805 66.52650908 -77.51428127 62.85116482 C-77.54439054 59.98450551 -77.55126798 57.11810239 -77.55226326 54.2512989 C-77.55838602 52.2514427 -77.58767823 50.25169892 -77.61778259 48.25205994 C-77.55165882 34.60486858 -73.89470562 22.56480857 -65 12 C-64.17628906 10.95779297 -64.17628906 10.95779297 -63.3359375 9.89453125 C-48.43945653 -7.06908255 -19.33808478 -10.54300174 0 0 Z M-45 13 C-45.71027344 13.43570313 -46.42054687 13.87140625 -47.15234375 14.3203125 C-54.9189856 19.6137779 -60.34939803 27.16247029 -62.56216431 36.32873535 C-63.04464437 39.27237826 -63.15637441 42.0697806 -63.19287109 45.05273438 C-63.20893402 46.25168335 -63.22499695 47.45063232 -63.24154663 48.68591309 C-63.28633939 54.17471927 -63.32750775 59.6633978 -63.35009766 65.15234375 C-63.36337807 68.03678514 -63.39112785 70.92050918 -63.43212891 73.8046875 C-63.48196289 77.31189492 -63.50627993 80.81845785 -63.51332474 84.32600403 C-63.52314301 86.28499243 -63.55726306 88.24381199 -63.59213257 90.20251465 C-63.56300759 102.71246273 -60.24521032 112.87574576 -51.390625 121.90625 C-42.51901821 129.67615399 -32.87789763 131.4936613 -21.33203125 131.23828125 C-9.86023087 130.41790631 -0.89134815 126.58949128 6.87890625 117.8984375 C14.05560072 108.00575088 15.61064859 97.01380345 15.53125 85.08984375 C15.5350769 83.80114883 15.53890381 82.51245392 15.54284668 81.18470764 C15.54869115 78.47767596 15.54034396 75.77117784 15.52148438 73.06420898 C15.49867344 69.62596979 15.51186181 66.18897872 15.53577423 62.75078487 C15.55384913 59.42620919 15.54113009 56.10195466 15.53125 52.77734375 C15.53934692 51.55933578 15.54744385 50.34132782 15.55578613 49.08641052 C15.42208694 36.76819812 12.02958141 27.12882256 3.33984375 18.31640625 C-7.36638711 8.53691064 -18.70444098 8.32304116 -32.56494141 8.82080078 C-37.29915905 9.16919819 -41.01329556 10.48783008 -45 13 Z " fill="#F9F9F9" transform="translate(105,69)"/>
<path d="M0 0 C13.23209825 0.32671848 24.91815506 4.20715807 35 13 C35.80050781 13.59425781 36.60101562 14.18851563 37.42578125 14.80078125 C45.46346351 21.66757201 52.2732134 32.81661464 53.21435547 43.41357422 C54.2412465 61.152237 51.49226088 76.02704027 40.19140625 90.28125 C30.20241094 101.08016385 16.13524517 106.86001911 1.56933594 107.47045898 C-13.48157662 107.6730803 -25.85306202 101.97357609 -37 92 C-35.34908222 87.70761377 -32.26245434 85.1206085 -29 82 C-25.93080701 83.46420216 -23.11645133 85.17423482 -20.25 87 C-9.70129799 93.29544079 1.40319018 93.41839275 13.25 90.4375 C23.47485151 87.18826941 29.93404458 81.40108449 35 72 C39.32825298 62.5425362 39.64754358 49.13621735 37.31640625 39.0390625 C36.3847025 36.83544782 35.34403621 34.97627754 34 33 C33.57589844 32.3090625 33.15179687 31.618125 32.71484375 30.90625 C27.34431966 22.88786305 19.35028218 18.08129205 10 16 C6.6581449 15.52259213 3.37182701 15.23745261 0 15 C0 10.05 0 5.1 0 0 Z " fill="#F7F7F7" transform="translate(511,221)"/>
<path d="M0 0 C13.41681475 -0.90654154 24.71637538 3.4274029 35 12 C35.76957031 12.62261719 36.53914063 13.24523437 37.33203125 13.88671875 C45.15473415 20.88317365 52.1572813 32.4732638 53.20874023 43.11206055 C53.9984711 61.10209111 51.39755022 76.19096399 39 90 C27.9823966 101.65105904 14.12729301 105.93819419 -1.625 106.4375 C-13.90337637 106.13276263 -26.33597683 101.3086086 -35.34375 92.78125 C-35.8903125 92.1934375 -36.436875 91.605625 -37 91 C-35.34908222 86.70761377 -32.26245434 84.1206085 -29 81 C-25.93080701 82.46420216 -23.11645133 84.17423482 -20.25 86 C-10.93507937 91.55912294 -1.27498715 92.46666408 9.41015625 90.3125 C19.39413496 87.50997966 27.30929235 83.55885272 32.71484375 74.44921875 C33.13894531 73.64097656 33.56304687 72.83273437 34 72 C34.41378906 71.22269531 34.82757813 70.44539063 35.25390625 69.64453125 C39.48707426 60.13096551 39.63842617 48.32539939 37.046875 38.3203125 C32.93113524 27.87466918 26.48550532 21.25946193 16.25 16.75 C10.85558429 14.69182293 5.74374591 14.29455107 0 14 C0 9.38 0 4.76 0 0 Z " fill="#F8F7F8" transform="translate(81,222)"/>
<path d="M0 0 C4.49626405 3.36481905 8.43491191 7.79993573 9.78515625 13.3359375 C10.39148679 20.85443617 8.73972678 26.11771534 3.97265625 32.0859375 C0.26861285 36.08666398 -2.70265225 38.07926404 -8.2734375 38.6484375 C-13.24011973 38.82883912 -17.08997615 38.84724095 -21.65234375 36.7734375 C-27.91827605 30.81316044 -31.81708434 26.34770601 -32.52734375 17.3984375 C-32.31588164 10.45983711 -29.04014099 5.16123474 -24.21484375 0.3359375 C-16.76617399 -4.13326436 -7.59055194 -4.3953504 0 0 Z " fill="#E83237" transform="translate(521.21484375,256.6640625)"/>
<path d="M0 0 C1.32 0 2.64 0 4 0 C4 11.22 4 22.44 4 34 C2.35 33.67 0.7 33.34 -1 33 C-1.495 33.495 -1.495 33.495 -2 34 C-3.66617115 34.04063832 -5.33388095 34.042721 -7 34 C-10.56429079 28.5050517 -10.70334387 23.3397297 -10 17 C-8.8125 13.8125 -8.8125 13.8125 -7 12 C-4.375 11.625 -4.375 11.625 -2 12 C-1.67 12.33 -1.34 12.66 -1 13 C-0.67 8.71 -0.34 4.42 0 0 Z " fill="#E6E3E4" transform="translate(242,276)"/>
<path d="M0 0 C2.475 0.495 2.475 0.495 5 1 C5.33 0.67 5.66 0.34 6 0 C7.66605828 -0.0450286 9.33378384 -0.03874921 11 0 C13.20872638 0 15.41877359 -0.0199416 17.625 -0.125 C20 0 20 0 22 2 C22.22705078 4.06298828 22.22705078 4.06298828 22.1953125 6.5703125 C22.18886719 7.46621094 22.18242187 8.36210937 22.17578125 9.28515625 C22.15902344 10.22230469 22.14226562 11.15945313 22.125 12.125 C22.11597656 13.06988281 22.10695312 14.01476562 22.09765625 14.98828125 C22.07404522 17.32577292 22.04111516 19.66276123 22 22 C20.68 22 19.36 22 18 22 C18 16.06 18 10.12 18 4 C16.68 4.33 15.36 4.66 14 5 C13.67 10.61 13.34 16.22 13 22 C11.68 22 10.36 22 9 22 C9 16.06 9 10.12 9 4 C7.68 4.33 6.36 4.66 5 5 C4.67 10.61 4.34 16.22 4 22 C2.68 22 1.36 22 0 22 C0 14.74 0 7.48 0 0 Z " fill="#E1E0E1" transform="translate(177,288)"/>
<path d="M0 0 C0 7.26 0 14.52 0 22 C-3.63 22 -7.26 22 -11 22 C-14.58568672 16.4720663 -14.64825847 11.36647874 -14 5 C-12.06884398 -2.5760736 -8.62951834 0 0 0 Z " fill="#CFCDCE" transform="translate(351,288)"/>
<path d="M0 0 C3.70769714 0.69519321 4.70019456 1.60978369 7 4.5625 C7.53125 7.62109375 7.53125 7.62109375 7.5 11 C7.5103125 12.11246094 7.520625 13.22492188 7.53125 14.37109375 C6.89602957 18.18708707 5.73238817 19.86476168 3 22.5625 C0 23.1875 0 23.1875 -3 22.5625 C-5.375 20.8125 -5.375 20.8125 -7 17.5625 C-7.74186947 12.08175002 -7.87487802 7.31225605 -5.375 2.3125 C-3 0.5625 -3 0.5625 0 0 Z " fill="#E5E5E5" transform="translate(216,287.4375)"/>
<path d="M0 0 C3.3 0 6.6 0 10 0 C10 6.93 10 13.86 10 21 C8.35 21 6.7 21 5 21 C3.32656552 21.29749946 1.65694085 21.62127066 0 22 C-3.32088139 18.4858398 -3.40512247 15.73926798 -3.375 11 C-3.38273437 9.783125 -3.39046875 8.56625 -3.3984375 7.3125 C-3 4 -3 4 0 0 Z " fill="#DDDEDE" transform="translate(397,288)"/>
<path d="M0 0 C3.0625 0.5625 3.0625 0.5625 5.4375 2.625 C7.40366018 6.17921263 7.37640173 8.560253 7.0625 12.5625 C3.7625 12.5625 0.4625 12.5625 -2.9375 12.5625 C-2.6075 14.5425 -2.2775 16.5225 -1.9375 18.5625 C0.03786745 18.21463292 0.03786745 18.21463292 2.0625 17.5625 C2.3925 16.9025 2.7225 16.2425 3.0625 15.5625 C4.0525 15.5625 5.0425 15.5625 6.0625 15.5625 C5.3125 20.3125 5.3125 20.3125 3.0625 22.5625 C-0.4375 22.4375 -0.4375 22.4375 -3.9375 21.5625 C-6.3265984 18.27846247 -6.23637189 15.02373692 -6.25 11.0625 C-6.26675781 9.9384375 -6.28351563 8.814375 -6.30078125 7.65625 C-5.76506241 3.09399921 -4.60798173 0.88237948 0 0 Z " fill="#F9F9F9" transform="translate(261.9375,287.4375)"/>
<path d="M0 0 C2.475 0.495 2.475 0.495 5 1 C5.33 0.67 5.66 0.34 6 0 C8.4375 -0.1875 8.4375 -0.1875 11 0 C13 2 13 2 13.22705078 4.06298828 C13.21134033 5.30411377 13.21134033 5.30411377 13.1953125 6.5703125 C13.18564453 7.91416016 13.18564453 7.91416016 13.17578125 9.28515625 C13.15902344 10.22230469 13.14226562 11.15945313 13.125 12.125 C13.11597656 13.06988281 13.10695313 14.01476562 13.09765625 14.98828125 C13.07404522 17.32577292 13.04111516 19.66276123 13 22 C11.68 22 10.36 22 9 22 C9 16.06 9 10.12 9 4 C7.68 4.33 6.36 4.66 5 5 C4.67 10.61 4.34 16.22 4 22 C2.68 22 1.36 22 0 22 C0 14.74 0 7.48 0 0 Z " fill="#E2E0E0" transform="translate(418,288)"/>
<path d="M0 0 C2.475 0.495 2.475 0.495 5 1 C5.33 0.67 5.66 0.34 6 0 C8.4375 -0.1875 8.4375 -0.1875 11 0 C13 2 13 2 13.22705078 4.06298828 C13.21134033 5.30411377 13.21134033 5.30411377 13.1953125 6.5703125 C13.18564453 7.91416016 13.18564453 7.91416016 13.17578125 9.28515625 C13.15902344 10.22230469 13.14226562 11.15945313 13.125 12.125 C13.11597656 13.06988281 13.10695313 14.01476562 13.09765625 14.98828125 C13.07404522 17.32577292 13.04111516 19.66276123 13 22 C11.68 22 10.36 22 9 22 C9 16.06 9 10.12 9 4 C7.35 4 5.7 4 4 4 C4 9.94 4 15.88 4 22 C2.68 22 1.36 22 0 22 C0 14.74 0 7.48 0 0 Z " fill="#E4E4E4" transform="translate(297,288)"/>
<path d="M0 0 C0.99 0.33 1.98 0.66 3 1 C3.33 5.29 3.66 9.58 4 14 C5.32 13.67 6.64 13.34 8 13 C8.33 10.03 8.66 7.06 9 4 C9.66 4 10.32 4 11 4 C12.04976964 7.14930893 12.10131595 9.38814456 12.0625 12.6875 C12.05347656 13.68136719 12.04445313 14.67523438 12.03515625 15.69921875 C12.02355469 16.45847656 12.01195312 17.21773438 12 18 C10.84951172 17.98453125 10.84951172 17.98453125 9.67578125 17.96875 C6.98839234 18.00013556 4.61388418 18.40254076 2 19 C-1.40625214 15.44136289 -1.34963791 12.62002922 -1.25 7.8125 C-1.22679687 5.93498047 -1.22679687 5.93498047 -1.203125 4.01953125 C-1 1 -1 1 0 0 Z " fill="#E0DFDF" transform="translate(395,291)"/>
<path d="M0 0 C-0.33 1.32 -0.66 2.64 -1 4 C-1.99 4 -2.98 4 -4 4 C-3.63899109 7.24908017 -3.36709039 8.65515751 -0.9375 10.9375 C1 13 1 13 1.5 16.0625 C1 19 1 19 -0.6875 20.875 C-3.33270547 22.16185671 -5.09433826 22.24213848 -8 22 C-8.33 20.68 -8.66 19.36 -9 18 C-7.02 18 -5.04 18 -3 18 C-4.03839484 14.9713484 -5.03219737 12.96212074 -7.125 10.5 C-9 8 -9 8 -9.4375 5.375 C-9 3 -9 3 -7.875 1.1875 C-5.22464043 -0.49106106 -3.06753576 -0.20450238 0 0 Z " fill="#E8E7E8" transform="translate(369,288)"/>
<path d="M0 0 C2.475 0.495 2.475 0.495 5 1 C7.23167185 0.63143136 7.23167185 0.63143136 9 0 C9 1.32 9 2.64 9 4 C8.35546875 4.16242188 7.7109375 4.32484375 7.046875 4.4921875 C4.5663746 5.95214403 4.5663746 5.95214403 4.390625 9.6953125 C4.32414708 11.17112237 4.27806121 12.64796017 4.25 14.125 C4.22035156 14.87910156 4.19070313 15.63320313 4.16015625 16.41015625 C4.08942068 18.27285953 4.04245017 20.13643755 4 22 C2.68 22 1.36 22 0 22 C0 14.74 0 7.48 0 0 Z " fill="#EBEAEB" transform="translate(279,288)"/>
<path d="M0 0 C2.5 0.125 2.5 0.125 3.5 1.125 C3.58669432 2.6137186 3.60703494 4.106445 3.59765625 5.59765625 C3.59443359 6.49677734 3.59121094 7.39589844 3.58789062 8.32226562 C3.57951172 9.26779297 3.57113281 10.21332031 3.5625 11.1875 C3.55798828 12.13689453 3.55347656 13.08628906 3.54882812 14.06445312 C3.5370011 16.41803065 3.52052025 18.77148477 3.5 21.125 C2.18 21.125 0.86 21.125 -0.5 21.125 C-0.54898438 19.84882813 -0.59796875 18.57265625 -0.6484375 17.2578125 C-0.72346191 15.58851928 -0.79900988 13.91924954 -0.875 12.25 C-0.92140625 10.98736328 -0.92140625 10.98736328 -0.96875 9.69921875 C-1.00742188 8.89355469 -1.04609375 8.08789062 -1.0859375 7.2578125 C-1.1173584 6.51418457 -1.1487793 5.77055664 -1.18115234 5.00439453 C-1.35419551 2.88489026 -1.35419551 2.88489026 -3.5 1.125 C-2.5 0.125 -2.5 0.125 0 0 Z " fill="#E9E9E9" transform="translate(195.5,288.875)"/>
<path d="M0 0 C1.32 0.66 2.64 1.32 4 2 C4.02696365 3.79158489 4.04637917 5.58328473 4.0625 7.375 C4.07410156 8.37273437 4.08570313 9.37046875 4.09765625 10.3984375 C4 13 4 13 3 15 C1.35 14.67 -0.3 14.34 -2 14 C-2.05389087 12.04196493 -2.09274217 10.08351091 -2.125 8.125 C-2.14820313 7.03445313 -2.17140625 5.94390625 -2.1953125 4.8203125 C-2 2 -2 2 0 0 Z " fill="#282929" transform="translate(215,291)"/>
<path d="M0 0 C0.99 0 1.98 0 3 0 C3.92188461 2.76565382 4.11785222 4.38283702 4.09765625 7.23046875 C4.09443359 8.03291016 4.09121094 8.83535156 4.08789062 9.66210938 C4.07532227 10.91217773 4.07532227 10.91217773 4.0625 12.1875 C4.05798828 13.03248047 4.05347656 13.87746094 4.04882812 14.74804688 C4.03705403 16.83206155 4.0191189 18.91603977 4 21 C2.68 21 1.36 21 0 21 C0 14.07 0 7.14 0 0 Z " fill="#ECEDEC" transform="translate(297,289)"/>
<path d="M0 0 C0.99 0 1.98 0 3 0 C3 6.6 3 13.2 3 20 C0.03 20 -2.94 20 -6 20 C-5 18 -5 18 -2 17 C-0.27490406 13.54980812 -0.98870837 9.64331314 -1.0625 5.84765625 C-1 3 -1 3 0 0 Z " fill="#F6F5F5" transform="translate(347,289)"/>
<path d="M0 0 C1.32 0 2.64 0 4 0 C4.94238698 2.82716095 5.13465647 4.63176123 5.125 7.5625 C5.12757813 8.34753906 5.13015625 9.13257813 5.1328125 9.94140625 C5 12 5 12 4 14 C2.68 14 1.36 14 0 14 C-1.31164842 11.37670316 -1.13262846 9.36301375 -1.125 6.4375 C-1.12757813 5.44621094 -1.13015625 4.45492188 -1.1328125 3.43359375 C-1 1 -1 1 0 0 Z " fill="#373536" transform="translate(342,292)"/>
<path d="M0 0 C1.65 0.33 3.3 0.66 5 1 C5.02696365 2.79158489 5.04637917 4.58328473 5.0625 6.375 C5.07410156 7.37273437 5.08570313 8.37046875 5.09765625 9.3984375 C5 12 5 12 4 14 C2.68 14 1.36 14 0 14 C-1.17635297 11.64729407 -1.13359359 10.179248 -1.125 7.5625 C-1.12757813 6.78003906 -1.13015625 5.99757813 -1.1328125 5.19140625 C-1 3 -1 3 0 0 Z " fill="#302E2F" transform="translate(237,292)"/>
<path d="M0 0 C1.32 0 2.64 0 4 0 C3.91327254 2.79322218 3.80644643 5.58312528 3.6875 8.375 C3.66494141 9.1690625 3.64238281 9.963125 3.61914062 10.78125 C3.52214925 12.86215581 3.27005175 14.93441332 3 17 C2.01 17.66 1.02 18.32 0 19 C-1.8855253 17.1144747 -1.13246689 14.42231169 -1.13671875 11.91796875 C-1.13285156 11.12003906 -1.12898437 10.32210938 -1.125 9.5 C-1.12886719 8.70207031 -1.13273438 7.90414063 -1.13671875 7.08203125 C-1.12660767 1.12660767 -1.12660767 1.12660767 0 0 Z " fill="#282727" transform="translate(182,292)"/>
<path d="M0 0 C2.2109885 0.42793326 3.98119242 0.99059621 6 2 C6.33 1.34 6.66 0.68 7 0 C8.4783226 2.95664519 8.06032783 5.74229737 8 9 C4.7 9 1.4 9 -2 9 C-2 8.67 -2 8.34 -2 8 C-0.02 8 1.96 8 4 8 C4 7.34 4 6.68 4 6 C2.02 6 0.04 6 -2 6 C-1.125 1.125 -1.125 1.125 0 0 Z " fill="#D2D2D2" transform="translate(261,291)"/>
<path d="M0 0 C0.763125 0.0825 1.52625 0.165 2.3125 0.25 C1.83167969 0.77078125 1.35085937 1.2915625 0.85546875 1.828125 C-1.13923865 4.95905813 -1.19068411 7.31368221 -1.375 11 C-1.44074219 12.17046875 -1.50648438 13.3409375 -1.57421875 14.546875 C-1.61160156 15.43890625 -1.64898437 16.3309375 -1.6875 17.25 C-3.0075 16.92 -4.3275 16.59 -5.6875 16.25 C-5.76883791 14.33404032 -5.82684367 12.41708068 -5.875 10.5 C-5.90980469 9.43265625 -5.94460937 8.3653125 -5.98046875 7.265625 C-5.56518312 2.99095163 -4.48519657 0.41722759 0 0 Z " fill="#E9E7E8" transform="translate(214.6875,288.75)"/>
<path d="M0 0 C1.98 0.495 1.98 0.495 4 1 C4 4.96 4 8.92 4 13 C2.68 13.33 1.36 13.66 0 14 C-1 13 -1 13 -1.1328125 10.3125 C-1.13023437 9.219375 -1.12765625 8.12625 -1.125 7 C-1.12757813 5.906875 -1.13015625 4.81375 -1.1328125 3.6875 C-1 1 -1 1 0 0 Z " fill="#1F201F" transform="translate(399,292)"/>
<path d="M0 0 C0.66 0 1.32 0 2 0 C1.88660796 2.64680904 1.75987127 5.29177518 1.625 7.9375 C1.57859375 9.06961914 1.57859375 9.06961914 1.53125 10.22460938 C1.4273685 12.15507395 1.22104386 14.07942081 1 16 C-1.49092811 17.24546405 -2.41080733 16.7767578 -5 16 C-5.33 16.99 -5.66 17.98 -6 19 C-6.33 18.34 -6.66 17.68 -7 17 C-8.66342837 18.66342837 -8.36048097 20.7825709 -8.5625 23.0625 C-8.64628906 23.98160156 -8.73007813 24.90070313 -8.81640625 25.84765625 C-8.87699219 26.55792969 -8.93757812 27.26820313 -9 28 C-9.33 28 -9.66 28 -10 28 C-10.46155734 18.23891706 -10.46155734 18.23891706 -8.8125 13.8125 C-7 12 -7 12 -4.375 11.625 C-2 12 -2 12 -1 13 C-0.67 8.71 -0.34 4.42 0 0 Z " fill="#D8D6D7" transform="translate(242,276)"/>
<path d="M0 0 C0.99 0 1.98 0 3 0 C3 6.6 3 13.2 3 20 C2.01 20 1.02 20 0 20 C0 13.4 0 6.8 0 0 Z " fill="#FDFBFC" transform="translate(380,289)"/>
<path d="M0 0 C1 2 1 2 0.5625 3.625 C-0.99844874 10.21567246 -0.12441038 16.06850217 3 22 C4.54960559 24.16760306 6.18436884 26.0371555 8 28 C6.125 27.6875 6.125 27.6875 4 27 C3.34 26.01 2.68 25.02 2 24 C1.01 23.67 0.02 23.34 -1 23 C-2.62634726 19.74730549 -2.18453471 16.195215 -2.1875 12.625 C-2.19974609 11.85671875 -2.21199219 11.0884375 -2.22460938 10.296875 C-2.24272755 3.31533639 -2.24272755 3.31533639 0 0 Z " fill="#491718" transform="translate(490,264)"/>
<path d="M0 0 C0.66 0.33 1.32 0.66 2 1 C2 1.66 2 2.32 2 3 C3.97536745 2.65213292 3.97536745 2.65213292 6 2 C6.33 1.34 6.66 0.68 7 0 C7.99 0 8.98 0 10 0 C9.25 4.75 9.25 4.75 7 7 C3.375 6.625 3.375 6.625 0 6 C-0.38218767 4.34385343 -0.71395102 2.67542976 -1 1 C-0.67 0.67 -0.34 0.34 0 0 Z " fill="#E7E6E7" transform="translate(258,303)"/>
<path d="M0 0 C0.33 0 0.66 0 1 0 C1 8.25 1 16.5 1 25 C0.34 25 -0.32 25 -1 25 C-2.17027179 17.45824847 -3.50031226 7.00062451 0 0 Z " fill="#FDFCFC" transform="translate(244,276)"/>
<path d="M0 0 C0.66 0 1.32 0 2 0 C3.04976964 3.14930893 3.10131595 5.38814456 3.0625 8.6875 C3.05347656 9.68136719 3.04445313 10.67523438 3.03515625 11.69921875 C3.02355469 12.45847656 3.01195312 13.21773438 3 14 C1.02 14 -0.96 14 -3 14 C-2.5359375 13.0409375 -2.5359375 13.0409375 -2.0625 12.0625 C-0.68064597 8.07950896 -0.3463457 4.18349151 0 0 Z " fill="#F6F7F6" transform="translate(404,295)"/>
<path d="M0 0 C0.66 0 1.32 0 2 0 C2 0.66 2 1.32 2 2 C2.66 2 3.32 2 4 2 C4 2.66 4 3.32 4 4 C3.34 4 2.68 4 2 4 C2 9.28 2 14.56 2 20 C1.34 20 0.68 20 0 20 C0 13.4 0 6.8 0 0 Z " fill="#FCFAFB" transform="translate(419,289)"/>
<path d="M0 0 C0.625 1.8125 0.625 1.8125 1 4 C0.01 5.485 0.01 5.485 -1 7 C-1.31837697 10.10003471 -1.31837697 10.10003471 -1.25 13.5 C-1.25773437 15.21703125 -1.25773437 15.21703125 -1.265625 16.96875 C-1.22885568 20.17666163 -1.22885568 20.17666163 1 23 C0.67 23.99 0.34 24.98 0 26 C-3.59576533 20.37184557 -4.73946359 15.73037197 -4 9 C-2.99345488 5.83216169 -1.48452511 2.96905021 0 0 Z " fill="#BF3940" transform="translate(493,261)"/>
<path d="M0 0 C4.95 0.99 4.95 0.99 10 2 C9.67 2.99 9.34 3.98 9 5 C9 4.34 9 3.68 9 3 C8.01 3 7.02 3 6 3 C5.67 3.99 5.34 4.98 5 6 C3.68 6 2.36 6 1 6 C0.67 4.02 0.34 2.04 0 0 Z " fill="#383737" transform="translate(259,300)"/>
<path d="M0 0 C3.0625 0.1875 3.0625 0.1875 5.0625 2.1875 C5.0625 3.1775 5.0625 4.1675 5.0625 5.1875 C4.175625 4.98125 3.28875 4.775 2.375 4.5625 C-1.1627711 4.16199761 -2.80382967 4.62066484 -5.9375 6.1875 C-3.64723154 0.23280201 -3.64723154 0.23280201 0 0 Z " fill="#E8E6E7" transform="translate(261.9375,287.8125)"/>
<path d="M0 0 C0 0.33 0 0.66 0 1 C-0.73605469 1.13277344 -1.47210937 1.26554688 -2.23046875 1.40234375 C-3.20628906 1.57894531 -4.18210937 1.75554687 -5.1875 1.9375 C-6.15042969 2.11152344 -7.11335938 2.28554688 -8.10546875 2.46484375 C-10.74239972 2.9523735 -13.3719905 3.46671105 -16 4 C-16 4.66 -16 5.32 -16 6 C-17.65 6.33 -19.3 6.66 -21 7 C-19.032932 3.64441341 -16.79950857 1.96593352 -13.18359375 0.52734375 C-8.85434497 -0.51818145 -4.41990699 -0.21580016 0 0 Z " fill="#BE3744" transform="translate(515,254)"/>
<path d="M0 0 C1.32 0 2.64 0 4 0 C3.67 3.63 3.34 7.26 3 11 C2.01 10.67 1.02 10.34 0 10 C0 6.7 0 3.4 0 0 Z " fill="#232121" transform="translate(342,292)"/>
<path d="M0 0 C2.0625 0.4375 2.0625 0.4375 4 1 C4 2.65 4 4.3 4 6 C2.02 6 0.04 6 -2 6 C-1.125 1.125 -1.125 1.125 0 0 Z " fill="#3E3F3E" transform="translate(261,291)"/>
<path d="M0 0 C2.8125 -0.25 2.8125 -0.25 6 0 C7.875 2 7.875 2 9 4 C8.67 4.33 8.34 4.66 8 5 C7.76807135 6.51469448 7.58784762 8.03754562 7.4375 9.5625 C7.35371094 10.38878906 7.26992187 11.21507812 7.18359375 12.06640625 C7.12300781 12.70449219 7.06242188 13.34257812 7 14 C6.67 14 6.34 14 6 14 C5.95101562 13.38511719 5.90203125 12.77023437 5.8515625 12.13671875 C5.77679688 11.32847656 5.70203125 10.52023437 5.625 9.6875 C5.55539063 8.88699219 5.48578125 8.08648437 5.4140625 7.26171875 C5.10435574 4.72775559 5.10435574 4.72775559 3 2 C2.01 1.34 1.02 0.68 0 0 Z " fill="#DFDFDF" transform="translate(213,288)"/>
<path d="M0 0 C0.90492188 0.02320313 1.80984375 0.04640625 2.7421875 0.0703125 C4.10730469 0.09738281 4.10730469 0.09738281 5.5 0.125 C6.19867188 0.14820313 6.89734375 0.17140625 7.6171875 0.1953125 C4.6171875 2.1953125 4.6171875 2.1953125 2.6171875 2.1953125 C2.6171875 2.8553125 2.6171875 3.5153125 2.6171875 4.1953125 C0.8046875 4.8828125 0.8046875 4.8828125 -1.3828125 5.1953125 C-3.1328125 3.7578125 -3.1328125 3.7578125 -4.3828125 2.1953125 C-2.3828125 0.1953125 -2.3828125 0.1953125 0 0 Z " fill="#D5D2D3" transform="translate(399.3828125,287.8046875)"/>
<path d="M0 0 C1.65 0 3.3 0 5 0 C5.66 1.32 6.32 2.64 7 4 C1.375 5.125 1.375 5.125 -2 4 C-1.34 2.68 -0.68 1.36 0 0 Z " fill="#E2E0E1" transform="translate(340,288)"/>
<path d="M0 0 C2.97 0 5.94 0 9 0 C9 1.32 9 2.64 9 4 C9.99 4 10.98 4 12 4 C11.67 5.32 11.34 6.64 11 8 C10.45730469 7.59007812 9.91460938 7.18015625 9.35546875 6.7578125 C8.64003906 6.21898437 7.92460938 5.68015625 7.1875 5.125 C6.47980469 4.59132813 5.77210938 4.05765625 5.04296875 3.5078125 C3.39543703 2.29185219 1.70375789 1.13583859 0 0 Z " fill="#461B18" transform="translate(515,254)"/>
<path d="M0 0 C0.66 0.33 1.32 0.66 2 1 C1.67 1.99 1.34 2.98 1 4 C-0.33333333 4.33333333 -1.66666667 4.66666667 -3 5 C-3.33 5.99 -3.66 6.98 -4 8 C-5.32 8 -6.64 8 -8 8 C-8 7.34 -8 6.68 -8 6 C-6.25 4.4921875 -6.25 4.4921875 -4 2.875 C-3.2575 2.33617187 -2.515 1.79734375 -1.75 1.2421875 C-1.1725 0.83226562 -0.595 0.42234375 0 0 Z " fill="#242424" transform="translate(115,201)"/>
<path d="M0 0 C0.7425 0.185625 1.485 0.37125 2.25 0.5625 C4.94990963 0.99203108 6.44631077 0.85122974 9 0 C9 1.32 9 2.64 9 4 C7.35 4.66 5.7 5.32 4 6 C3.67 4.35 3.34 2.7 3 1 C2.01 0.67 1.02 0.34 0 0 Z " fill="#CAC7C8" transform="translate(279,288)"/>
<path d="M0 0 C0.33 0.99 0.66 1.98 1 3 C-2.32307692 6.93846154 -2.32307692 6.93846154 -5.75 7.25 C-6.4925 7.1675 -7.235 7.085 -8 7 C-8 6.01 -8 5.02 -8 4 C-7.05125 3.896875 -6.1025 3.79375 -5.125 3.6875 C-1.70892499 3.31460705 -1.70892499 3.31460705 0 0 Z " fill="#ECEBEC" transform="translate(368,302)"/>
<path d="M0 0 C1.32 0.66 2.64 1.32 4 2 C4 3.32 4 4.64 4 6 C2.35 5.67 0.7 5.34 -1 5 C-0.67 3.35 -0.34 1.7 0 0 Z " fill="#252424" transform="translate(362,300)"/>
<path d="M0 0 C0.99 0.33 1.98 0.66 3 1 C2.88637738 2.4800841 2.75877092 3.95910074 2.625 5.4375 C2.52058594 6.67306641 2.52058594 6.67306641 2.4140625 7.93359375 C2.27742188 8.61550781 2.14078125 9.29742187 2 10 C1.01 10.495 1.01 10.495 0 11 C0 7.37 0 3.74 0 0 Z " fill="#FDFCFC" transform="translate(395,291)"/>
<path d="M0 0 C0.66 0.33 1.32 0.66 2 1 C-4.93548387 6.96774194 -4.93548387 6.96774194 -9 9 C-9.66 8.67 -10.32 8.34 -11 8 C-9.5433323 6.85204994 -8.08461063 5.70670581 -6.625 4.5625 C-5.40683594 3.60537109 -5.40683594 3.60537109 -4.1640625 2.62890625 C-2 1 -2 1 0 0 Z " fill="#E2E1E1" transform="translate(485,69)"/>
<path d="M0 0 C0.33 0 0.66 0 1 0 C1.25 2.8125 1.25 2.8125 1 6 C-1.2206051 8.467339 -2.43569203 8.96152446 -5.75 9.1875 C-6.4925 9.125625 -7.235 9.06375 -8 9 C-7.401875 8.731875 -6.80375 8.46375 -6.1875 8.1875 C-3.12739306 6.52629909 -1.37335723 5.18795481 -0.3125 1.8125 C-0.1578125 0.9153125 -0.1578125 0.9153125 0 0 Z " fill="#D2D0D1" transform="translate(369,301)"/>
<path d="M0 0 C1.32 0 2.64 0 4 0 C4 1.65 4 3.3 4 5 C2.68 5 1.36 5 0 5 C0 3.35 0 1.7 0 0 Z " fill="#232121" transform="translate(237,301)"/>
<path d="M0 0 C0.33 1.32 0.66 2.64 1 4 C0.01 4.33 -0.98 4.66 -2 5 C-2.66 5.99 -3.32 6.98 -4 8 C-4.33 6.35 -4.66 4.7 -5 3 C-4.360625 2.87625 -3.72125 2.7525 -3.0625 2.625 C-2.0415625 2.315625 -2.0415625 2.315625 -1 2 C-0.67 1.34 -0.34 0.68 0 0 Z " fill="#444242" transform="translate(369,289)"/>
<path d="M0 0 C0.8125 1.6875 0.8125 1.6875 1 4 C-1.4375 6.75 -1.4375 6.75 -4 9 C-4.66 8.67 -5.32 8.34 -6 8 C-5.38125 7.236875 -4.7625 6.47375 -4.125 5.6875 C-1.94402948 3.00374191 -1.94402948 3.00374191 0 0 Z " fill="#521919" transform="translate(529,282)"/>
<path d="M0 0 C0.99 0.33 1.98 0.66 3 1 C2 2 1 3 0 4 C-0.515625 4.556875 -1.03125 5.11375 -1.5625 5.6875 C-3 7 -3 7 -5 7 C-3.70700306 4.11562221 -2.34058637 2.12780579 0 0 Z " fill="#2A2A2A" transform="translate(342,85)"/>
<path d="M0 0 C0.66 0 1.32 0 2 0 C2.33 2.64 2.66 5.28 3 8 C2.01 7.67 1.02 7.34 0 7 C0 4.69 0 2.38 0 0 Z " fill="#FAF9FA" transform="translate(210,298)"/>
<path d="M0 0 C1.32 0 2.64 0 4 0 C3.67 1.32 3.34 2.64 3 4 C1.68 4 0.36 4 -1 4 C-0.67 2.68 -0.34 1.36 0 0 Z " fill="#E3E1E2" transform="translate(380,280)"/>
<path d="M0 0 C2.86095641 1.2824977 5.11365918 2.45343989 7 5 C7.1875 7.6875 7.1875 7.6875 7 10 C6.773125 9.4225 6.54625 8.845 6.3125 8.25 C4.67718931 5.44661024 2.52773272 3.99557846 0 2 C0 1.34 0 0.68 0 0 Z " fill="#C43D42" transform="translate(521,258)"/>
<path d="M0 0 C1.65 0 3.3 0 5 0 C5 0.66 5 1.32 5 2 C4.34 2 3.68 2 3 2 C2.67 2.99 2.34 3.98 2 5 C1.01 4.34 0.02 3.68 -1 3 C-0.67 2.01 -0.34 1.02 0 0 Z " fill="#2C2A2B" transform="translate(557,68)"/>
<path d="M0 0 C0.33 0 0.66 0 1 0 C1 1.98 1 3.96 1 6 C1.66 6 2.32 6 3 6 C3 6.99 3 7.98 3 9 C1.68 9.33 0.36 9.66 -1 10 C-0.67 6.7 -0.34 3.4 0 0 Z " fill="#E9E6E7" transform="translate(242,295)"/>
<path d="M0 0 C0.33 0 0.66 0 1 0 C0.67 2.64 0.34 5.28 0 8 C-0.99 7.67 -1.98 7.34 -3 7 C-2.38722388 4.03824877 -1.74627478 2.61941217 0 0 Z " fill="#2E2C2C" transform="translate(29,98)"/>
</svg>
