<svg width="80" height="80" viewBox="0 0 80 80" fill="none" xmlns="http://www.w3.org/2000/svg">
<path d="M38.6554 27.6943H30.7782C30.0879 27.6943 29.5282 28.254 29.5282 28.9443V35.0265C29.5282 35.7168 30.0879 36.2765 30.7782 36.2765C31.4685 36.2765 32.0282 35.7168 32.0282 35.0265V30.1943H37.4054V35.0265C37.4054 35.7168 37.9651 36.2765 38.6554 36.2765C39.3457 36.2765 39.9054 35.7168 39.9054 35.0265V28.9443C39.9054 28.254 39.3457 27.6943 38.6554 27.6943Z" fill="#B7946E"/>
<path d="M38.6554 39.1611H30.7782C30.0879 39.1611 29.5282 39.7208 29.5282 40.4111V46.4933C29.5282 47.1836 30.0879 47.7433 30.7782 47.7433C31.4685 47.7433 32.0282 47.1836 32.0282 46.4933V41.6611H37.4054V46.4933C37.4054 47.1836 37.9651 47.7433 38.6554 47.7433C39.3457 47.7433 39.9054 47.1836 39.9054 46.4933V40.4111C39.9054 39.7208 39.3457 39.1611 38.6554 39.1611Z" fill="#B7946E"/>
<path d="M75.304 41.0114C75.304 32.8798 69.0115 26.2029 61.0419 25.5626V18.3759C61.0419 17.6855 60.4822 17.1259 59.7919 17.1259H57.3547V10C57.3547 9.30969 56.795 8.75 56.1047 8.75H28.9838C28.2935 8.75 27.7338 9.30969 27.7338 10V17.1259H23.0042C22.3138 17.1259 21.7542 17.6855 21.7542 18.3759V27.6947H14.7253C14.035 27.6947 13.4753 28.2544 13.4753 28.9447V35.4718H9.83948C9.14917 35.4718 8.58948 36.0315 8.58948 36.7218V68.3759H6.25C5.55969 68.3759 5 68.9355 5 69.6259C5 70.3162 5.55969 70.8759 6.25 70.8759H9.83948H22.989C22.9944 70.8759 22.9988 70.8789 23.0042 70.8789H59.7919C59.7972 70.8789 59.8016 70.8759 59.807 70.8759H73.8531C74.5435 70.8759 75.1031 70.3162 75.1031 69.6259C75.1031 68.9355 74.5435 68.3759 73.8531 68.3759H61.0419V66.0859C63.1615 63.5509 75.304 48.6945 75.304 41.0114ZM30.2338 11.25H54.8547V17.1252H30.2338V11.25ZM72.804 41.0114C72.804 46.6415 64.1544 58.3565 59.7927 63.6775C59.6516 63.5055 59.5016 63.3196 59.352 63.1345C59.2266 62.9794 59.1074 62.8339 58.9764 62.6702C58.743 62.3782 58.496 62.0639 58.2475 61.7467C58.1628 61.6386 58.0837 61.5404 57.9974 61.4295C57.657 60.9921 57.3051 60.5339 56.9455 60.0588C56.8602 59.9461 56.7713 59.8249 56.6852 59.7103C56.4091 59.3432 56.1315 58.9725 55.8491 58.588C55.7204 58.4129 55.5898 58.23 55.4603 58.0517C55.2152 57.7145 54.97 57.3766 54.7233 57.0296C54.5808 56.829 54.4385 56.6234 54.2959 56.4201C54.0622 56.0867 53.8287 55.7528 53.5963 55.4134C53.4457 55.1935 53.297 54.9706 53.1476 54.7487C52.9263 54.42 52.7059 54.0907 52.4885 53.7591C52.3354 53.5254 52.1852 53.2909 52.0345 53.0563C51.8262 52.7319 51.6201 52.4071 51.4179 52.0821C51.2686 51.842 51.1225 51.6025 50.9772 51.3628C50.7829 51.0423 50.5928 50.7225 50.4067 50.4037C50.2664 50.1631 50.1286 49.9235 49.9936 49.6845C49.8152 49.3687 49.6441 49.0558 49.4763 48.744C49.3491 48.5075 49.223 48.2716 49.1026 48.0382C48.9436 47.7299 48.7953 47.4268 48.6492 47.1248C48.5389 46.8967 48.4275 46.6681 48.3253 46.4442C48.1883 46.1443 48.0666 45.8529 47.9454 45.5617C47.8566 45.3484 47.7634 45.1328 47.6836 44.9249C47.5706 44.6303 47.4786 44.3484 47.385 44.0657C47.3226 43.8769 47.2514 43.6826 47.1983 43.4996C47.1103 43.1969 47.0499 42.9121 46.9891 42.627C46.9582 42.4822 46.9136 42.3285 46.89 42.1887C46.8201 41.7735 46.7798 41.3783 46.7798 41.0114C46.7798 33.8367 52.6172 27.9993 59.7919 27.9993C66.9666 27.9993 72.804 33.8367 72.804 41.0114ZM46.0803 68.3759H41.3013V60.0079H46.0803V68.3759ZM15.9753 30.1947H21.7542V35.4718H15.9753V30.1947ZM11.0895 68.3759V37.9718H21.7511V68.3759H11.0895ZM48.5803 68.3759V58.7579C48.5803 58.0676 48.0206 57.5079 47.3303 57.5079H40.0513C39.361 57.5079 38.8013 58.0676 38.8013 58.7579V68.3759H24.2542V19.6259H58.5419V25.5493C58.4842 25.554 58.4287 25.566 58.3712 25.5713C58.1409 25.5923 57.9153 25.6281 57.688 25.6591C57.4119 25.6968 57.1357 25.733 56.8643 25.7851C56.6374 25.8287 56.4156 25.8846 56.1922 25.938C55.9285 26.001 55.6654 26.0641 55.407 26.1404C55.1865 26.2055 54.9709 26.2807 54.7545 26.3554C54.5026 26.4422 54.2522 26.5304 54.0063 26.6297C53.7942 26.7154 53.5869 26.8089 53.3794 26.9036C53.14 27.0129 52.9028 27.125 52.6699 27.2459C52.4679 27.3508 52.2702 27.4618 52.0734 27.5752C51.8472 27.7057 51.6244 27.84 51.4056 27.9813C51.2148 28.1046 51.0277 28.2319 50.8427 28.3632C50.6306 28.5136 50.4234 28.6691 50.2193 28.8297C50.0417 28.9697 49.8669 29.1119 49.6957 29.2593C49.4986 29.4289 49.3077 29.604 49.1194 29.7831C48.956 29.9385 48.7944 30.0949 48.6378 30.2572C48.457 30.4447 48.284 30.6385 48.1127 30.8349C47.965 31.0042 47.8179 31.1732 47.6775 31.3488C47.5137 31.5537 47.3595 31.7657 47.2061 31.9788C47.0756 32.1601 46.9444 32.3399 46.8216 32.5269C46.6756 32.7495 46.5412 32.9794 46.4064 33.2096C46.2948 33.4003 46.1806 33.5887 46.0771 33.7844C45.9501 34.0245 45.837 34.2722 45.7224 34.5195C45.6308 34.7174 45.5346 34.9122 45.451 35.1145C45.344 35.3738 45.2537 35.6406 45.1606 35.9066C45.0903 36.1076 45.0132 36.305 44.951 36.5096C44.8647 36.7936 44.798 37.0852 44.7278 37.3757C44.6805 37.5714 44.6241 37.7634 44.5844 37.962C44.5188 38.2893 44.4764 38.6241 44.4318 38.9584C44.4093 39.128 44.3752 39.2939 44.3581 39.4652C44.3076 39.974 44.2798 40.4894 44.2798 41.0114C44.2798 41.2605 44.2937 41.5177 44.3185 41.7812C44.3269 41.8701 44.3432 41.9635 44.3542 42.0541C44.3761 42.2321 44.3974 42.4099 44.4294 42.5936C44.4486 42.704 44.4749 42.8183 44.4976 42.9305C44.5318 43.0997 44.5654 43.2683 44.6073 43.4415C44.6372 43.5654 44.6732 43.6921 44.707 43.8178C44.752 43.9856 44.7969 44.1531 44.8485 44.3242C44.8883 44.4565 44.9329 44.5909 44.9765 44.725C45.0314 44.894 45.087 45.0631 45.1477 45.2348C45.1968 45.3739 45.2494 45.5145 45.3021 45.6551C45.3665 45.8269 45.4321 45.9991 45.5016 46.1731C45.5586 46.316 45.6179 46.4597 45.6783 46.6039C45.7518 46.7796 45.8272 46.9559 45.9053 47.1335C45.9696 47.2797 46.0351 47.426 46.1024 47.5733C46.1837 47.7509 46.2672 47.9293 46.3526 48.1084C46.424 48.2581 46.4958 48.4078 46.57 48.5585C46.6582 48.7377 46.749 48.9176 46.8408 49.0978C46.9179 49.249 46.9946 49.3999 47.0741 49.5517C47.1709 49.7369 47.2708 49.9223 47.3711 50.1081C47.4506 50.2553 47.5291 50.4021 47.6105 50.5495C47.7142 50.7373 47.8207 50.9251 47.9272 51.1132C48.0115 51.2618 48.0945 51.4101 48.1804 51.5588C48.292 51.7519 48.4066 51.9447 48.5207 52.1376C48.6036 52.2775 48.6849 52.4176 48.769 52.5573C48.903 52.78 49.0398 53.0018 49.1766 53.2236C49.2445 53.3337 49.3109 53.4443 49.3793 53.5542C49.5837 53.882 49.7904 54.2083 49.9991 54.5327C50.0706 54.6439 50.1432 54.7534 50.2151 54.864C50.3556 55.0803 50.4959 55.2966 50.6376 55.5106C50.7312 55.6521 50.8253 55.7911 50.9193 55.9315C51.0405 56.1126 51.1615 56.294 51.2831 56.4731C51.3812 56.6175 51.4791 56.7593 51.5773 56.9022C51.6957 57.0748 51.814 57.2474 51.9323 57.4176C52.0303 57.5586 52.1277 57.6968 52.2255 57.8361C52.3441 58.0049 52.4623 58.1735 52.5803 58.3396C52.6769 58.4757 52.7727 58.6091 52.8688 58.7432C52.9862 58.907 53.103 59.07 53.2194 59.2306C53.3154 59.3631 53.4101 59.493 53.5052 59.6233C53.6182 59.778 53.7305 59.9313 53.842 60.0826C53.9413 60.2174 54.0394 60.3497 54.1373 60.4815C54.24 60.6197 54.3416 60.7559 54.4427 60.8908C54.5427 61.0242 54.6416 61.1559 54.7398 61.2859C54.8408 61.4195 54.9398 61.5501 55.0387 61.6801C55.1295 61.7995 55.2197 61.9178 55.3085 62.0338C55.4135 62.1708 55.5157 62.3033 55.6177 62.4355C55.6969 62.538 55.7761 62.6407 55.8533 62.7402C55.9624 62.8806 56.0675 63.0151 56.1725 63.1492C56.2375 63.2322 56.3033 63.3167 56.3666 63.3971C56.4823 63.5442 56.5926 63.6835 56.7023 63.8217C56.7495 63.8812 56.7985 63.9435 56.8446 64.0013C56.9718 64.1612 57.0924 64.3118 57.21 64.4581C57.235 64.4891 57.2619 64.523 57.2864 64.5535C57.8359 65.2362 58.2706 65.7618 58.5419 66.0864V68.3759H48.5803Z" fill="#B7946E"/>
<path d="M53.9648 41.0109C53.9648 44.2323 56.579 46.8531 59.7919 46.8531C63.0139 46.8531 65.6348 44.2323 65.6348 41.0109C65.6348 37.7888 63.0139 35.168 59.7919 35.168C56.579 35.168 53.9648 37.7888 53.9648 41.0109ZM63.1348 41.0109C63.1348 42.8535 61.6351 44.3531 59.7919 44.3531C57.9572 44.3531 56.4648 42.8535 56.4648 41.0109C56.4648 39.1676 57.9572 37.668 59.7919 37.668C61.6351 37.668 63.1348 39.1676 63.1348 41.0109Z" fill="#B7946E"/>
</svg>
