<?xml version="1.0" encoding="utf-8"?>
<!-- Generator: Adobe Illustrator 26.1.0, SVG Export Plug-In . SVG Version: 6.00 Build 0)  -->
<svg version="1.1" xmlns="http://www.w3.org/2000/svg" xmlns:xlink="http://www.w3.org/1999/xlink" x="0px" y="0px"
	 viewBox="0 0 98.4 98.4" style="enable-background:new 0 0 98.4 98.4;" xml:space="preserve">
<style type="text/css">
	.st0{enable-background:new    ;}
	.st1{fill-rule:evenodd;clip-rule:evenodd;fill:#B7946E;}
	.st2{fill:#2B2A28;}
	.st3{fill:#2B2A28;stroke:#2B2A28;stroke-width:0.15;stroke-miterlimit:10;}
</style>
<g id="Ellipse_1_copy_00000006706203429974018320000001534581399715626655_" class="st0">
</g>
<g id="our_iconic_brands______our_iconic_brands______our_brands_00000074401199135446887650000016731327512303402170_">
	<g>
		<g id="Ellipse_1_copy">
			<g>
				
					<ellipse transform="matrix(0.1222 -0.9925 0.9925 0.1222 -5.6872 92.0174)" class="st1" cx="49.18" cy="49.22" rx="48.12" ry="48.12"/>
			</g>
		</g>
		<g id="F371_x2C__Arrow_x2C__left_x2C__up">
			<path class="st2" d="M38.79,49.41c0.06-0.06,0.13-0.09,0.24-0.09l20.96-0.12c0.18,0,0.33,0.14,0.33,0.33
				c0,0.18-0.15,0.33-0.33,0.33l-20.96,0.12c-0.18,0-0.33-0.14-0.33-0.33C38.7,49.54,38.73,49.46,38.79,49.41z"/>
			<path class="st2" d="M53.42,43.84c0.11-0.11,0.31-0.13,0.44,0l6.35,5.43c0.15,0.11,0.14,0.33,0.02,0.46
				c-0.11,0.15-0.33,0.15-0.46,0.02l-6.35-5.43C53.31,44.2,53.29,44,53.42,43.84C53.4,43.86,53.4,43.86,53.42,43.84z"/>
			<path class="st2" d="M53.34,54.79C53.36,54.77,53.36,54.77,53.34,54.79l6.43-5.52c0.15-0.11,0.35-0.09,0.46,0.02
				c0.11,0.15,0.09,0.35-0.02,0.46l-6.41,5.5c-0.15,0.11-0.35,0.09-0.46-0.02C53.23,55.09,53.23,54.9,53.34,54.79z"/>
		</g>
		<path class="st3" d="M87.67,48.98L85,51.65c-0.03,0.03-0.09,0.03-0.12,0l-2.63-2.64c-0.03-0.03-0.03-0.09,0-0.12l2.68-2.67
			c0.03-0.03,0.09-0.03,0.12,0l2.63,2.64C87.7,48.9,87.7,48.95,87.67,48.98z M84.94,51.48l2.56-2.55l-2.52-2.53l-2.56,2.55
			L84.94,51.48z"/>
		<path class="st3" d="M16.15,50.25l-2.74,2.6c-0.03,0.03-0.09,0.03-0.12,0l-2.56-2.7c-0.03-0.03-0.03-0.09,0-0.12l2.74-2.6
			c0.03-0.03,0.09-0.03,0.12,0l2.57,2.71C16.18,50.17,16.18,50.22,16.15,50.25z M13.36,52.68l2.62-2.48l-2.46-2.59l-2.62,2.48
			L13.36,52.68z"/>
		<g>
			<path class="st2" d="M10.81,37.62c0.47-1.54,2.57-2.07,4.66-1.43c2.09,0.64,3.53,2.28,3.08,3.79c-0.45,1.48-2.58,2.07-4.66,1.43
				C11.8,40.77,10.34,39.15,10.81,37.62z M18.33,39.91c0.31-1-0.91-1.95-3.2-2.64c-2.29-0.7-3.8-0.63-4.12,0.42
				c-0.31,1.02,0.9,1.94,3.19,2.64C16.49,41.02,18.03,40.91,18.33,39.91z"/>
			<path class="st2" d="M20.72,33.72c0.42-0.78,0.14-1.65-1-2.26l-3.76-2.02c-0.45-0.24-1.01-0.32-1.42-0.02l-0.03-0.01l0.71-1.33
				l0.03,0.01c-0.02,0.45,0.39,0.86,0.84,1.1l3.76,2.02c1.33,0.71,1.68,1.88,1.1,2.96c-0.62,1.14-1.82,1.57-3.15,0.85l-4.03-2.17
				c-0.45-0.24-0.76-0.25-1.05-0.05l-0.03-0.02l0.92-1.72l0.03,0.02c-0.02,0.39,0.14,0.66,0.59,0.9l4.02,2.16
				C19.32,34.73,20.29,34.49,20.72,33.72z"/>
			<path class="st2" d="M17.82,24.43c1.03-1.26,2.36-1.48,3.39-0.64c1.14,0.92,1.08,2.24,0.56,3.12c1.33,0.34,2.92,0.61,4.4,0.39
				l0.01,0.04c-1.41,0.7-3.34,0.98-5.2,0.4c-0.05,0.03-0.1,0.05-0.13,0.08l1.89,1.53c0.35,0.28,0.72,0.37,1.06,0.19l0.02,0.02
				l-1.27,1.56l-0.02-0.02c0.1-0.37-0.07-0.71-0.41-0.99l-4.49-3.65c-0.32-0.26-0.67-0.33-1.01-0.16l-0.02-0.02
				C16.98,25.6,17.4,24.95,17.82,24.43z M20.71,27.71c0.21-0.15,0.37-0.3,0.5-0.46c0.63-0.77,0.43-1.71-0.56-2.52
				c-1-0.81-2-0.95-2.57-0.24c-0.37,0.45-0.27,0.86,0.2,1.25L20.71,27.71z"/>
			<path class="st2" d="M27.83,25.31l-0.02-0.02c0.13-0.3,0.1-0.68-0.21-1.05l-3.71-4.5c-0.24-0.3-0.63-0.5-0.99-0.41l-0.02-0.02
				l1.55-1.28l0.02,0.02c-0.17,0.34-0.04,0.76,0.21,1.05l3.71,4.5c0.3,0.37,0.69,0.47,0.99,0.41l0.02,0.02L27.83,25.31z"/>
			<path class="st2" d="M28.18,20.33c-1.27-2.04-1.1-4.39,0.33-5.28c0.52-0.32,1.1-0.49,1.54-0.55l0.49,2.02l-0.02,0.01
				c-0.87-1.01-1.68-1.28-2.28-0.9c-0.79,0.49-0.65,2.04,0.33,3.61c1.1,1.76,2.52,2.6,3.59,1.93c0.6-0.37,0.92-1.05,0.69-2.18
				l0.06-0.01c0.67,1.59,0.24,2.71-0.61,3.24C31.13,22.95,29.35,22.21,28.18,20.33z"/>
			<path class="st2" d="M34.43,12.16c1.5-0.58,3.22,0.74,4.01,2.78c0.79,2.04,0.39,4.19-1.08,4.76c-1.44,0.56-3.22-0.75-4.01-2.78
				C32.56,14.89,32.94,12.74,34.43,12.16z M37.28,19.5c0.98-0.38,0.97-1.92,0.1-4.15c-0.87-2.23-1.86-3.38-2.87-2.98
				c-1,0.39-0.97,1.91-0.1,4.14C35.27,18.74,36.32,19.88,37.28,19.5z"/>
			<path class="st2" d="M45.26,17.75l-4.88-6.03l0.95,5.4c0.09,0.49,0.37,0.84,0.73,0.96l0.01,0.03l-1.32,0.23l-0.01-0.03
				c0.29-0.23,0.41-0.65,0.32-1.14l-0.97-5.5c-0.07-0.4-0.31-0.86-0.69-0.96l-0.01-0.03l1.28-0.23l3.92,4.95l-0.78-4.39
				c-0.07-0.39-0.28-0.85-0.71-0.96l-0.01-0.03l1.26-0.22l0.01,0.03c-0.31,0.22-0.35,0.75-0.28,1.14l1.2,6.79L45.26,17.75z"/>
			<path class="st2" d="M46.65,17.47l0-0.03c0.29-0.16,0.49-0.49,0.47-0.96l-0.21-5.83c-0.01-0.38-0.19-0.78-0.54-0.93l0-0.03
				l2.01-0.07l0,0.03c-0.34,0.17-0.49,0.58-0.48,0.96l0.21,5.83c0.02,0.48,0.27,0.79,0.54,0.93l0,0.03L46.65,17.47z"/>
			<path class="st2" d="M49.93,13.72c0.23-2.4,1.78-4.16,3.46-4c0.61,0.06,1.17,0.28,1.56,0.5l-0.84,1.9l-0.02,0
				c-0.08-1.33-0.56-2.03-1.27-2.1c-0.93-0.09-1.75,1.23-1.93,3.07c-0.19,2.07,0.43,3.6,1.68,3.71c0.7,0.07,1.37-0.28,1.87-1.32
				l0.05,0.03c-0.43,1.67-1.46,2.3-2.45,2.21C50.69,17.6,49.72,15.93,49.93,13.72z"/>
			<path class="st2" d="M59.62,11.17l0.01-0.03c0.71,0.13,1.42,0.28,2.13,0.54c1.5,0.53,2.25,1.42,1.89,2.42
				c-0.36,1.02-1.45,1.28-2.43,1.12c1.04,0.57,1.88,1.68,1.43,2.96c-0.43,1.2-1.66,1.7-3.45,1.07c-0.76-0.27-1.43-0.6-2.11-0.97
				l0.01-0.03c0.38-0.03,0.65-0.3,0.79-0.72l1.89-5.31C59.93,11.8,59.9,11.43,59.62,11.17z M59.36,19.06
				c1.03,0.36,1.89-0.23,2.32-1.44c0.43-1.2-0.02-2.12-1.24-2.56l-0.55-0.19l-1.11,3.13C58.6,18.5,58.81,18.87,59.36,19.06z
				 M60.76,12.41l-0.8,2.24l0.55,0.19c1,0.35,1.77-0.01,2.1-0.96c0.32-0.91-0.03-1.68-0.81-1.95C61.3,11.75,60.93,11.92,60.76,12.41
				z"/>
			<path class="st2" d="M68.56,14.77c1.41,0.82,1.82,2.11,1.16,3.25c-0.74,1.26-2.05,1.41-3,1.03c-0.13,1.36-0.15,2.99,0.29,4.41
				l-0.03,0.02c-0.91-1.29-1.48-3.15-1.2-5.08c-0.03-0.04-0.07-0.09-0.1-0.12l-1.22,2.1c-0.22,0.39-0.25,0.76-0.03,1.08l-0.02,0.03
				l-1.74-1.01l0.02-0.03c0.38,0.04,0.69-0.17,0.91-0.56l2.91-5c0.21-0.36,0.22-0.71,0-1.02l0.02-0.03
				C67.27,14.12,67.98,14.43,68.56,14.77z M65.77,18.13c0.18,0.19,0.36,0.31,0.54,0.42c0.86,0.5,1.75,0.17,2.4-0.94
				c0.65-1.11,0.63-2.12-0.16-2.58c-0.5-0.29-0.89-0.14-1.2,0.39L65.77,18.13z"/>
			<path class="st2" d="M74.61,19.1l0.09,0.08l-2.58,6.37c-0.32,0.8-0.37,1.19-0.24,1.5l-0.02,0.02l-1.64-1.41l0.02-0.02
				c0.32,0.09,0.77-0.15,1.05-0.82l0.55-1.29l-1.68-1.44l-1.21,0.75c-0.58,0.35-0.63,0.96-0.49,1.28l-0.02,0.02l-1.22-1.05
				l0.02-0.02c0.3,0.08,0.91-0.08,1.48-0.41L74.61,19.1z M71.96,23.28l1.31-3.13l-2.87,1.79L71.96,23.28z"/>
			<path class="st2" d="M74.79,31.09l2.96-7.17l-4.28,3.42c-0.39,0.31-0.56,0.73-0.49,1.1l-0.03,0.02l-0.83-1.05l0.03-0.02
				c0.34,0.14,0.77,0.05,1.16-0.26l4.36-3.48c0.32-0.25,0.61-0.68,0.52-1.06l0.03-0.02l0.81,1.01l-2.47,5.8l3.48-2.77
				c0.31-0.25,0.61-0.65,0.5-1.08l0.02-0.02l0.8,1l-0.02,0.02c-0.34-0.16-0.83,0.05-1.13,0.29l-5.38,4.3L74.79,31.09z"/>
			<path class="st2" d="M75.89,32.07l0.03-0.01c0.3,0.23,0.64,0.24,1.02,0.04l5.11-2.65c0.29-0.15,0.57-0.48,0.55-0.86l0.03-0.01
				c0.39,0.52,0.77,1.04,1.13,1.73c1.03,1.98,0.2,3.78-1.92,4.88c-2.44,1.27-4.3,0.49-5.11-1.07
				C76.35,33.41,76.07,32.64,75.89,32.07z M81.1,34.28c2.18-1.13,3.16-2.46,2.55-3.64c-0.25-0.49-0.65-0.57-1.19-0.28l-4.93,2.56
				c-0.56,0.29-0.76,0.72-0.5,1.22C77.62,35.28,78.82,35.46,81.1,34.28z"/>
			<path class="st2" d="M79.02,39.66c-0.23-0.75-0.23-1.62-0.19-2.17l2,0.07l0.01,0.05c-1.19,0.5-1.78,1.25-1.49,2.22
				c0.29,0.94,1.23,1.35,2,1.12c0.97-0.29,1.11-1.17,1.25-2.09c0.16-1,0.36-2.06,1.62-2.44c1.14-0.35,2.33,0.22,2.74,1.57
				c0.16,0.53,0.22,1.04,0.25,1.55l-1.85,0.05l-0.01-0.05c0.97-0.4,1.48-1.05,1.25-1.8c-0.2-0.67-0.9-1.03-1.7-0.79
				c-0.92,0.28-1.02,1.2-1.17,2.15c-0.17,0.97-0.43,1.99-1.68,2.36C80.79,41.83,79.49,41.21,79.02,39.66z"/>
			<path class="st2" d="M87.03,60.24c-0.44,1.54-2.54,2.11-4.64,1.5c-2.1-0.61-3.57-2.23-3.13-3.74c0.43-1.49,2.55-2.11,4.64-1.5
				C85.99,57.1,87.47,58.7,87.03,60.24z M79.46,58.06c-0.29,1.01,0.94,1.93,3.24,2.59c2.3,0.66,3.81,0.57,4.11-0.48
				c0.3-1.03-0.93-1.93-3.23-2.59C81.29,56.92,79.75,57.06,79.46,58.06z"/>
			<path class="st2" d="M77.18,64.28c-0.4,0.78-0.12,1.65,1.04,2.24L82,68.48c0.45,0.23,1.01,0.3,1.42,0l0.03,0.01l-0.69,1.34
				l-0.03-0.01c0.01-0.45-0.4-0.85-0.85-1.08l-3.79-1.96c-1.33-0.69-1.7-1.85-1.14-2.94c0.6-1.15,1.8-1.59,3.13-0.9l4.06,2.1
				c0.45,0.23,0.77,0.23,1.05,0.03l0.03,0.01l-0.9,1.73l-0.03-0.01c0.02-0.39-0.15-0.66-0.6-0.9l-4.04-2.09
				C78.56,63.24,77.59,63.5,77.18,64.28z"/>
			<path class="st2" d="M80.23,73.52c-1,1.28-2.34,1.52-3.38,0.7c-1.15-0.9-1.12-2.22-0.61-3.11c-1.33-0.32-2.94-0.56-4.41-0.32
				l-0.01-0.04c1.4-0.72,3.33-1.03,5.2-0.49c0.05-0.03,0.1-0.06,0.13-0.08l-1.91-1.5c-0.35-0.28-0.72-0.36-1.06-0.17l-0.03-0.02
				l1.24-1.58l0.02,0.02c-0.09,0.37,0.08,0.71,0.43,0.98l4.56,3.57c0.33,0.26,0.67,0.32,1.01,0.14l0.02,0.02
				C81.05,72.33,80.65,72.99,80.23,73.52z M77.29,70.29c-0.21,0.15-0.36,0.31-0.49,0.47c-0.61,0.79-0.4,1.71,0.61,2.51
				c1.01,0.79,2.01,0.92,2.58,0.2c0.36-0.46,0.26-0.87-0.23-1.24L77.29,70.29z"/>
			<path class="st2" d="M70.18,72.82l0.02,0.02c-0.13,0.3-0.09,0.69,0.22,1.05l3.78,4.45c0.25,0.29,0.64,0.5,1,0.39l0.02,0.02
				l-1.54,1.3l-0.02-0.02c0.16-0.34,0.03-0.76-0.22-1.05l-3.78-4.45c-0.31-0.36-0.7-0.46-1-0.39l-0.02-0.02L70.18,72.82z"/>
			<path class="st2" d="M69.91,77.8c1.31,2.02,1.17,4.37-0.25,5.29c-0.51,0.33-1.09,0.51-1.53,0.57l-0.52-2.01l0.02-0.01
				c0.89,1,1.7,1.25,2.3,0.86c0.78-0.51,0.62-2.05-0.39-3.6c-1.12-1.74-2.56-2.56-3.62-1.88c-0.59,0.38-0.91,1.07-0.65,2.19
				l-0.06,0.01c-0.7-1.58-0.28-2.71,0.56-3.25C66.92,75.23,68.71,75.94,69.91,77.8z"/>
			<path class="st2" d="M63.79,86.06c-1.49,0.61-3.23-0.69-4.05-2.72c-0.82-2.03-0.46-4.18,1.01-4.78c1.43-0.58,3.23,0.71,4.05,2.72
				C65.61,83.3,65.27,85.46,63.79,86.06z M60.82,78.76c-0.97,0.39-0.94,1.94-0.04,4.15c0.9,2.22,1.91,3.35,2.92,2.94
				c0.99-0.4,0.94-1.93,0.04-4.14C62.85,79.5,61.79,78.37,60.82,78.76z"/>
			<path class="st2" d="M52.89,80.63l4.97,5.95l-1.04-5.38c-0.09-0.49-0.38-0.83-0.74-0.94l-0.01-0.03l1.31-0.25l0.01,0.03
				c-0.28,0.23-0.4,0.66-0.31,1.15l1.06,5.48c0.08,0.4,0.32,0.86,0.7,0.95l0.01,0.03l-1.27,0.25l-3.99-4.88l0.84,4.37
				c0.07,0.39,0.29,0.84,0.72,0.95l0.01,0.03l-1.25,0.24l-0.01-0.03c0.3-0.23,0.34-0.75,0.27-1.14l-1.3-6.76L52.89,80.63z"/>
			<path class="st2" d="M51.52,80.94l0,0.03c-0.28,0.16-0.48,0.49-0.46,0.97l0.3,5.83c0.02,0.38,0.21,0.78,0.56,0.92l0,0.03
				l-2.01,0.1l0-0.03c0.33-0.17,0.48-0.59,0.46-0.97l-0.3-5.83c-0.03-0.48-0.28-0.79-0.56-0.92l0-0.03L51.52,80.94z"/>
			<path class="st2" d="M48.27,84.73c-0.19,2.4-1.72,4.18-3.4,4.05c-0.61-0.05-1.18-0.26-1.56-0.48l0.81-1.91l0.02,0
				c0.1,1.33,0.59,2.02,1.3,2.08c0.93,0.07,1.73-1.26,1.88-3.1c0.16-2.07-0.48-3.59-1.74-3.69c-0.7-0.06-1.37,0.3-1.84,1.34
				l-0.05-0.02c0.4-1.67,1.42-2.32,2.41-2.24C47.45,80.87,48.44,82.52,48.27,84.73z"/>
			<path class="st2" d="M38.64,87.44l-0.01,0.03c-0.71-0.12-1.42-0.26-2.14-0.5c-1.51-0.51-2.27-1.38-1.93-2.39
				c0.34-1.02,1.42-1.31,2.4-1.16c-1.05-0.55-1.91-1.65-1.48-2.94c0.41-1.21,1.63-1.73,3.43-1.12c0.77,0.26,1.44,0.57,2.13,0.93
				l-0.01,0.03c-0.38,0.04-0.64,0.31-0.78,0.73l-1.8,5.34C38.31,86.82,38.36,87.18,38.64,87.44z M37.48,86.22l0.76-2.25l-0.55-0.19
				c-1-0.34-1.77,0.04-2.09,1c-0.31,0.92,0.06,1.67,0.84,1.94C36.94,86.88,37.31,86.71,37.48,86.22z M38.77,79.54
				c-1.03-0.35-1.89,0.26-2.29,1.47c-0.41,1.21,0.05,2.12,1.28,2.53l0.55,0.19l1.06-3.15C39.53,80.1,39.32,79.73,38.77,79.54z"/>
			<path class="st2" d="M29.62,83.97c-1.42-0.8-1.86-2.08-1.2-3.24c0.72-1.28,2.03-1.44,2.98-1.07c0.11-1.37,0.11-2.99-0.36-4.4
				l0.03-0.02c0.93,1.27,1.53,3.13,1.27,5.06c0.04,0.04,0.07,0.09,0.1,0.12l1.19-2.12c0.22-0.39,0.24-0.77,0.01-1.08l0.02-0.03
				l1.76,0.99l-0.02,0.03c-0.38-0.04-0.69,0.18-0.91,0.57l-2.84,5.05c-0.2,0.36-0.21,0.71,0.01,1.02l-0.01,0.03
				C30.91,84.61,30.2,84.3,29.62,83.97z M32.36,80.57c-0.18-0.19-0.36-0.31-0.54-0.41c-0.87-0.49-1.76-0.14-2.39,0.98
				c-0.63,1.12-0.6,2.13,0.2,2.58c0.51,0.29,0.9,0.12,1.2-0.41L32.36,80.57z"/>
			<path class="st2" d="M23.53,79.74l-0.1-0.08l2.48-6.4c0.3-0.8,0.35-1.2,0.22-1.51l0.02-0.02l1.66,1.38l-0.02,0.02
				c-0.33-0.08-0.77,0.16-1.04,0.84l-0.53,1.3l1.7,1.41l1.2-0.77c0.57-0.36,0.62-0.97,0.46-1.29l0.02-0.02l1.23,1.03l-0.02,0.02
				c-0.3-0.08-0.91,0.09-1.47,0.43L23.53,79.74z M26.12,75.53l-1.26,3.15l2.84-1.83L26.12,75.53z"/>
			<path class="st2" d="M23.16,67.77l-2.85,7.21l4.23-3.48c0.38-0.32,0.55-0.73,0.47-1.1l0.02-0.02l0.85,1.03l-0.02,0.02
				c-0.34-0.14-0.77-0.04-1.15,0.28l-4.31,3.55c-0.31,0.26-0.6,0.69-0.5,1.07l-0.02,0.02l-0.82-1l2.38-5.84l-3.43,2.83
				c-0.3,0.25-0.6,0.66-0.49,1.09l-0.02,0.02l-0.81-0.98l0.02-0.02c0.35,0.16,0.82-0.06,1.13-0.31l5.31-4.38L23.16,67.77z"/>
			<path class="st2" d="M22.04,66.8l-0.03,0.01c-0.3-0.23-0.64-0.23-1.02-0.03l-5.06,2.73c-0.29,0.16-0.56,0.49-0.53,0.87
				l-0.03,0.01c-0.4-0.52-0.79-1.02-1.16-1.71c-1.06-1.96-0.26-3.77,1.84-4.91c2.42-1.3,4.28-0.56,5.12,0.99
				C21.56,65.47,21.86,66.24,22.04,66.8z M16.81,64.68c-2.16,1.17-3.11,2.51-2.48,3.67c0.26,0.48,0.65,0.55,1.19,0.26l4.88-2.64
				c0.56-0.3,0.75-0.73,0.48-1.23C20.27,63.62,19.06,63.46,16.81,64.68z"/>
			<path class="st2" d="M18.79,59.25c0.24,0.75,0.26,1.62,0.22,2.16l-2-0.04L17,61.33c1.19-0.52,1.76-1.28,1.45-2.24
				c-0.3-0.94-1.25-1.33-2.01-1.09c-0.97,0.31-1.09,1.19-1.22,2.11c-0.15,1-0.33,2.07-1.58,2.47c-1.14,0.36-2.33-0.18-2.76-1.52
				c-0.17-0.52-0.23-1.04-0.28-1.54l1.85-0.08l0.02,0.05c-0.97,0.42-1.47,1.07-1.23,1.82c0.21,0.66,0.91,1.02,1.71,0.76
				c0.91-0.29,1-1.21,1.14-2.16c0.16-0.98,0.4-1.99,1.64-2.39C16.98,57.1,18.3,57.71,18.79,59.25z"/>
		</g>
	</g>
</g>
</svg>
