<svg width="595" height="35" viewBox="0 0 595 35" fill="none" xmlns="http://www.w3.org/2000/svg">
<path d="M19.76 15.7461C21.2 15.7461 22.4 15.6461 23.36 15.4461C24.32 15.2061 25.08 14.8861 25.64 14.4861C26.2 14.0861 26.6 13.6261 26.84 13.1061C27.08 12.5461 27.2 11.9461 27.2 11.3061C27.2 10.6661 27.08 10.0861 26.84 9.56605C26.6 9.00605 26.2 8.52605 25.64 8.12605C25.08 7.72605 24.32 7.42605 23.36 7.22605C22.4 6.98605 21.2 6.86605 19.76 6.86605H9.38V15.7461H19.76ZM21.32 1.70605C23.24 1.70605 24.98 1.88605 26.54 2.24605C28.1 2.56605 29.44 3.10605 30.56 3.86605C31.68 4.58605 32.54 5.54605 33.14 6.74605C33.74 7.90605 34.04 9.34605 34.04 11.0661C34.04 13.7061 33.26 15.7261 31.7 17.1261C30.14 18.5261 28.04 19.4661 25.4 19.9461L33.38 31.3461C33.66 31.7461 33.98 31.9861 34.34 32.0661C34.74 32.1461 35.1 32.1861 35.42 32.1861V33.2661H24.2V32.1861C24.56 32.1861 24.86 32.1261 25.1 32.0061C25.38 31.8861 25.52 31.7261 25.52 31.5261C25.52 31.3261 25.44 31.1061 25.28 30.8661C25.12 30.5861 24.88 30.2261 24.56 29.7861L17.96 20.4261H9.38V31.1061C9.38 31.4661 9.5 31.7461 9.74 31.9461C10.02 32.1061 10.5 32.1861 11.18 32.1861V33.2661H0.8V32.1861C1.96 32.1861 2.54 31.8261 2.54 31.1061V3.86605C2.54 3.14605 1.96 2.78605 0.8 2.78605V1.70605H21.32ZM74.1008 8.18605C74.1008 7.74605 73.9208 7.42605 73.5608 7.22605C73.2408 6.98605 72.6608 6.86605 71.8208 6.86605H52.3808V14.3061H64.1408C64.9408 14.3061 65.5608 14.2061 66.0008 14.0061C66.4408 13.7661 66.6608 13.1861 66.6608 12.2661H67.7408V21.6261H66.6608C66.6608 20.7061 66.4408 20.1261 66.0008 19.8861C65.5608 19.6061 64.9408 19.4661 64.1408 19.4661H52.3808V27.7461H72.4208C73.0208 27.7461 73.5008 27.6061 73.8608 27.3261C74.2608 27.0461 74.4608 26.6661 74.4608 26.1861H75.5408V34.4061H74.4608C74.4608 33.8061 74.2608 33.4661 73.8608 33.3861C73.5008 33.3061 73.0208 33.2661 72.4208 33.2661H44.4608V32.1861C44.7408 32.1861 44.9808 32.1061 45.1808 31.9461C45.4208 31.7461 45.5408 31.4661 45.5408 31.1061V3.86605C45.5408 3.50605 45.4208 3.24605 45.1808 3.08605C44.9808 2.88605 44.7408 2.78605 44.4608 2.78605V1.70605H71.8208C72.6608 1.70605 73.2408 1.58605 73.5608 1.34605C73.9208 1.06605 74.1008 0.706051 74.1008 0.266052H75.1808V8.18605H74.1008ZM86.8203 23.3661L87.4203 23.6661C87.4203 24.0261 87.5003 24.3461 87.6603 24.6261C87.9403 25.1061 88.4803 25.5861 89.2803 26.0661C90.1203 26.5061 91.0603 26.9061 92.1003 27.2661C93.1803 27.6261 94.3003 27.9261 95.4603 28.1661C96.6203 28.3661 97.6603 28.4661 98.5803 28.4661C99.2603 28.4661 100.14 28.4261 101.22 28.3461C102.3 28.2261 103.36 28.0061 104.4 27.6861C105.44 27.3661 106.34 26.9261 107.1 26.3661C107.86 25.8061 108.24 25.0661 108.24 24.1461C108.24 23.2261 107.88 22.5461 107.16 22.1061C106.48 21.6661 105.56 21.3461 104.4 21.1461C103.28 20.9461 101.98 20.8261 100.5 20.7861C99.0603 20.7061 97.5803 20.6061 96.0603 20.4861C94.5403 20.3661 93.0403 20.1661 91.5603 19.8861C90.1203 19.6061 88.8203 19.1461 87.6603 18.5061C86.5403 17.8261 85.6203 16.9261 84.9003 15.8061C84.2203 14.6461 83.8803 13.1461 83.8803 11.3061C83.8803 10.0661 84.1603 8.84605 84.7203 7.64605C85.3203 6.44605 86.2203 5.38605 87.4203 4.46605C88.6203 3.54605 90.1403 2.80605 91.9803 2.24605C93.8203 1.64605 95.9803 1.34605 98.4603 1.34605C100.58 1.34605 102.42 1.50605 103.98 1.82605C105.54 2.14605 106.88 2.48605 108 2.84605C109.16 3.20605 110.12 3.54605 110.88 3.86605C111.68 4.18605 112.34 4.34605 112.86 4.34605C113.42 4.34605 113.82 4.22605 114.06 3.98605L114.78 4.46605L110.64 11.9661L110.04 11.7261C109.96 11.1661 109.8 10.7061 109.56 10.3461C109.24 9.86605 108.7 9.40605 107.94 8.96605C107.22 8.48605 106.36 8.06605 105.36 7.70605C104.36 7.34605 103.28 7.06605 102.12 6.86605C100.96 6.62605 99.8003 6.50605 98.6403 6.50605C97.7603 6.50605 96.8403 6.58605 95.8803 6.74605C94.9603 6.86605 94.1203 7.06605 93.3603 7.34605C92.6003 7.62605 91.9603 8.00605 91.4403 8.48605C90.9603 8.92605 90.7203 9.48605 90.7203 10.1661C90.7203 11.1261 91.0603 11.8461 91.7403 12.3261C92.4603 12.8061 93.3803 13.1661 94.5003 13.4061C95.6603 13.6461 96.9603 13.8061 98.4003 13.8861C99.8803 13.9661 101.38 14.0661 102.9 14.1861C104.42 14.3061 105.9 14.5261 107.34 14.8461C108.82 15.1261 110.12 15.6061 111.24 16.2861C112.4 16.9261 113.32 17.8061 114 18.9261C114.72 20.0461 115.08 21.5061 115.08 23.3061C115.08 25.3861 114.52 27.0861 113.4 28.4061C112.32 29.7261 110.96 30.7661 109.32 31.5261C107.68 32.2861 105.9 32.8061 103.98 33.0861C102.1 33.3261 100.34 33.4461 98.7003 33.4461C96.4203 33.4461 94.5003 33.3261 92.9403 33.0861C91.4203 32.8061 90.1403 32.4861 89.1003 32.1261C88.1003 31.7261 87.3003 31.3861 86.7003 31.1061C86.1003 30.7861 85.5803 30.6261 85.1403 30.6261C84.8603 30.6261 84.6003 30.7861 84.3603 31.1061L83.5203 30.6261L86.8203 23.3661ZM141.06 31.1061C141.06 31.8261 141.5 32.1861 142.38 32.1861V33.2661H133.14V32.1861C133.42 32.1861 133.66 32.1061 133.86 31.9461C134.1 31.7461 134.22 31.4661 134.22 31.1061V7.22605H124.32C123.96 7.22605 123.6 7.32605 123.24 7.52605C122.92 7.72605 122.76 8.10605 122.76 8.66605H121.68V0.266052H122.76C122.76 0.826051 122.92 1.20605 123.24 1.40605C123.6 1.60605 123.96 1.70605 124.32 1.70605H150.96C151.32 1.70605 151.66 1.60605 151.98 1.40605C152.34 1.20605 152.52 0.826051 152.52 0.266052H153.6V8.66605H152.52C152.52 8.10605 152.34 7.72605 151.98 7.52605C151.66 7.32605 151.32 7.22605 150.96 7.22605H141.06V31.1061ZM179.9 21.0261L174.86 9.86605L169.22 21.0261H179.9ZM157.28 32.1861C157.8 32.1061 158.2 31.8461 158.48 31.4061C158.8 30.9661 159.1 30.4661 159.38 29.9061L170.48 6.56605C170.76 6.04605 171 5.56605 171.2 5.12605C171.44 4.68605 171.56 4.30605 171.56 3.98605C171.56 3.58605 171.42 3.30605 171.14 3.14605C170.86 2.98605 170.56 2.86605 170.24 2.78605V1.70605H180.38V2.78605C180.1 2.86605 179.82 2.98605 179.54 3.14605C179.26 3.26605 179.12 3.54605 179.12 3.98605C179.12 4.30605 179.18 4.62605 179.3 4.94605C179.46 5.26605 179.68 5.68605 179.96 6.20605L192.44 30.6261C192.64 31.0661 192.9 31.3861 193.22 31.5861C193.58 31.7861 193.98 31.9861 194.42 32.1861V33.2661H183.86V32.1861C184.02 32.1861 184.22 32.1261 184.46 32.0061C184.7 31.8861 184.82 31.7061 184.82 31.4661C184.82 31.0661 184.66 30.5461 184.34 29.9061L182.06 25.4661H167.42L165.26 29.7261C164.86 30.5661 164.66 31.1661 164.66 31.5261C164.66 31.9661 165.04 32.1861 165.8 32.1861V33.2661H157.28V32.1861ZM209.839 2.78605C208.959 2.78605 208.519 3.14605 208.519 3.86605V21.8661C208.519 24.3861 209.319 26.1261 210.919 27.0861C212.559 28.0061 214.939 28.4661 218.059 28.4661C221.179 28.4661 223.539 28.0061 225.139 27.0861C226.779 26.1261 227.599 24.3861 227.599 21.8661V3.86605C227.599 3.14605 226.999 2.78605 225.799 2.78605V1.70605H235.399V2.78605C234.439 2.78605 233.959 3.14605 233.959 3.86605V21.5661C233.959 23.9261 233.619 25.8861 232.939 27.4461C232.259 28.9661 231.239 30.1861 229.879 31.1061C228.519 32.0261 226.819 32.6461 224.779 32.9661C222.779 33.2861 220.459 33.4461 217.819 33.4461C215.179 33.4461 212.839 33.2861 210.799 32.9661C208.799 32.6461 207.119 32.0261 205.759 31.1061C204.399 30.1861 203.379 28.9661 202.699 27.4461C202.019 25.8861 201.679 23.9261 201.679 21.5661V3.86605C201.679 3.14605 201.119 2.78605 199.999 2.78605V1.70605H209.839V2.78605ZM263.1 15.7461C264.54 15.7461 265.74 15.6461 266.7 15.4461C267.66 15.2061 268.42 14.8861 268.98 14.4861C269.54 14.0861 269.94 13.6261 270.18 13.1061C270.42 12.5461 270.54 11.9461 270.54 11.3061C270.54 10.6661 270.42 10.0861 270.18 9.56605C269.94 9.00605 269.54 8.52605 268.98 8.12605C268.42 7.72605 267.66 7.42605 266.7 7.22605C265.74 6.98605 264.54 6.86605 263.1 6.86605H252.72V15.7461H263.1ZM264.66 1.70605C266.58 1.70605 268.32 1.88605 269.88 2.24605C271.44 2.56605 272.78 3.10605 273.9 3.86605C275.02 4.58605 275.88 5.54605 276.48 6.74605C277.08 7.90605 277.38 9.34605 277.38 11.0661C277.38 13.7061 276.6 15.7261 275.04 17.1261C273.48 18.5261 271.38 19.4661 268.74 19.9461L276.72 31.3461C277 31.7461 277.32 31.9861 277.68 32.0661C278.08 32.1461 278.44 32.1861 278.76 32.1861V33.2661H267.54V32.1861C267.9 32.1861 268.2 32.1261 268.44 32.0061C268.72 31.8861 268.86 31.7261 268.86 31.5261C268.86 31.3261 268.78 31.1061 268.62 30.8661C268.46 30.5861 268.22 30.2261 267.9 29.7861L261.3 20.4261H252.72V31.1061C252.72 31.4661 252.84 31.7461 253.08 31.9461C253.36 32.1061 253.84 32.1861 254.52 32.1861V33.2661H244.14V32.1861C245.3 32.1861 245.88 31.8261 245.88 31.1061V3.86605C245.88 3.14605 245.3 2.78605 244.14 2.78605V1.70605H264.66ZM306.521 21.0261L301.481 9.86605L295.841 21.0261H306.521ZM283.901 32.1861C284.421 32.1061 284.821 31.8461 285.101 31.4061C285.421 30.9661 285.721 30.4661 286.001 29.9061L297.101 6.56605C297.381 6.04605 297.621 5.56605 297.821 5.12605C298.061 4.68605 298.181 4.30605 298.181 3.98605C298.181 3.58605 298.041 3.30605 297.761 3.14605C297.481 2.98605 297.181 2.86605 296.861 2.78605V1.70605H307.001V2.78605C306.721 2.86605 306.441 2.98605 306.161 3.14605C305.881 3.26605 305.741 3.54605 305.741 3.98605C305.741 4.30605 305.801 4.62605 305.921 4.94605C306.081 5.26605 306.301 5.68605 306.581 6.20605L319.061 30.6261C319.261 31.0661 319.521 31.3861 319.841 31.5861C320.201 31.7861 320.601 31.9861 321.041 32.1861V33.2661H310.481V32.1861C310.641 32.1861 310.841 32.1261 311.081 32.0061C311.321 31.8861 311.441 31.7061 311.441 31.4661C311.441 31.0661 311.281 30.5461 310.961 29.9061L308.681 25.4661H294.041L291.881 29.7261C291.481 30.5661 291.281 31.1661 291.281 31.5261C291.281 31.9661 291.661 32.1861 292.421 32.1861V33.2661H283.901V32.1861ZM328.12 32.1861C328.88 32.1861 329.26 31.8261 329.26 31.1061V3.86605C329.26 3.14605 328.88 2.78605 328.12 2.78605V1.70605H338.38V2.78605C338.06 2.78605 337.9 2.98605 337.9 3.38605C337.9 3.70605 338.3 4.26605 339.1 5.06605L356.32 22.9461V3.86605C356.32 3.14605 355.8 2.78605 354.76 2.78605V1.70605H363.82V2.78605C363.06 2.78605 362.68 3.14605 362.68 3.86605V31.1061C362.68 31.8261 363.06 32.1861 363.82 32.1861V33.2661H354.1V32.1861C354.62 32.1861 354.88 32.0061 354.88 31.6461C354.88 31.3661 354.56 30.9061 353.92 30.2661L335.62 11.1861V31.1061C335.62 31.8261 336.08 32.1861 337 32.1861V33.2661H328.12V32.1861ZM391.079 31.1061C391.079 31.8261 391.519 32.1861 392.399 32.1861V33.2661H383.159V32.1861C383.439 32.1861 383.679 32.1061 383.879 31.9461C384.119 31.7461 384.239 31.4661 384.239 31.1061V7.22605H374.339C373.979 7.22605 373.619 7.32605 373.259 7.52605C372.939 7.72605 372.779 8.10605 372.779 8.66605H371.699V0.266052H372.779C372.779 0.826051 372.939 1.20605 373.259 1.40605C373.619 1.60605 373.979 1.70605 374.339 1.70605H400.979C401.339 1.70605 401.679 1.60605 401.999 1.40605C402.359 1.20605 402.539 0.826051 402.539 0.266052H403.619V8.66605H402.539C402.539 8.10605 402.359 7.72605 401.999 7.52605C401.679 7.32605 401.339 7.22605 400.979 7.22605H391.079V31.1061ZM413.539 23.3661L414.139 23.6661C414.139 24.0261 414.219 24.3461 414.379 24.6261C414.659 25.1061 415.199 25.5861 415.999 26.0661C416.839 26.5061 417.779 26.9061 418.819 27.2661C419.899 27.6261 421.019 27.9261 422.179 28.1661C423.339 28.3661 424.379 28.4661 425.299 28.4661C425.979 28.4661 426.859 28.4261 427.939 28.3461C429.019 28.2261 430.079 28.0061 431.119 27.6861C432.159 27.3661 433.059 26.9261 433.819 26.3661C434.579 25.8061 434.959 25.0661 434.959 24.1461C434.959 23.2261 434.599 22.5461 433.879 22.1061C433.199 21.6661 432.279 21.3461 431.119 21.1461C429.999 20.9461 428.699 20.8261 427.219 20.7861C425.779 20.7061 424.299 20.6061 422.779 20.4861C421.259 20.3661 419.759 20.1661 418.279 19.8861C416.839 19.6061 415.539 19.1461 414.379 18.5061C413.259 17.8261 412.339 16.9261 411.619 15.8061C410.939 14.6461 410.599 13.1461 410.599 11.3061C410.599 10.0661 410.879 8.84605 411.439 7.64605C412.039 6.44605 412.939 5.38605 414.139 4.46605C415.339 3.54605 416.859 2.80605 418.699 2.24605C420.539 1.64605 422.699 1.34605 425.179 1.34605C427.299 1.34605 429.139 1.50605 430.699 1.82605C432.259 2.14605 433.599 2.48605 434.719 2.84605C435.879 3.20605 436.839 3.54605 437.599 3.86605C438.399 4.18605 439.059 4.34605 439.579 4.34605C440.139 4.34605 440.539 4.22605 440.779 3.98605L441.499 4.46605L437.359 11.9661L436.759 11.7261C436.679 11.1661 436.519 10.7061 436.279 10.3461C435.959 9.86605 435.419 9.40605 434.659 8.96605C433.939 8.48605 433.079 8.06605 432.079 7.70605C431.079 7.34605 429.999 7.06605 428.839 6.86605C427.679 6.62605 426.519 6.50605 425.359 6.50605C424.479 6.50605 423.559 6.58605 422.599 6.74605C421.679 6.86605 420.839 7.06605 420.079 7.34605C419.319 7.62605 418.679 8.00605 418.159 8.48605C417.679 8.92605 417.439 9.48605 417.439 10.1661C417.439 11.1261 417.779 11.8461 418.459 12.3261C419.179 12.8061 420.099 13.1661 421.219 13.4061C422.379 13.6461 423.679 13.8061 425.119 13.8861C426.599 13.9661 428.099 14.0661 429.619 14.1861C431.139 14.3061 432.619 14.5261 434.059 14.8461C435.539 15.1261 436.839 15.6061 437.959 16.2861C439.119 16.9261 440.039 17.8061 440.719 18.9261C441.439 20.0461 441.799 21.5061 441.799 23.3061C441.799 25.3861 441.239 27.0861 440.119 28.4061C439.039 29.7261 437.679 30.7661 436.039 31.5261C434.399 32.2861 432.619 32.8061 430.699 33.0861C428.819 33.3261 427.059 33.4461 425.419 33.4461C423.139 33.4461 421.219 33.3261 419.659 33.0861C418.139 32.8061 416.859 32.4861 415.819 32.1261C414.819 31.7261 414.019 31.3861 413.419 31.1061C412.819 30.7861 412.299 30.6261 411.859 30.6261C411.579 30.6261 411.319 30.7861 411.079 31.1061L410.239 30.6261L413.539 23.3661ZM498.78 34.4061C498.78 33.8061 498.58 33.4661 498.18 33.3861C497.82 33.3061 497.34 33.2661 496.74 33.2661H468.18V32.1861C469.38 32.1861 469.98 31.8261 469.98 31.1061V3.86605C469.98 3.14605 469.38 2.78605 468.18 2.78605V1.70605H478.5V2.78605C477.38 2.78605 476.82 3.14605 476.82 3.86605V27.7461H496.74C497.34 27.7461 497.82 27.6061 498.18 27.3261C498.58 27.0461 498.78 26.6661 498.78 26.1861H499.86V34.4061H498.78ZM522.74 31.1061C522.74 31.8261 523.18 32.1861 524.06 32.1861V33.2661H514.82V32.1861C515.1 32.1861 515.34 32.1061 515.54 31.9461C515.78 31.7461 515.9 31.4661 515.9 31.1061V7.22605H506C505.64 7.22605 505.28 7.32605 504.92 7.52605C504.6 7.72605 504.44 8.10605 504.44 8.66605H503.36V0.266052H504.44C504.44 0.826051 504.6 1.20605 504.92 1.40605C505.28 1.60605 505.64 1.70605 506 1.70605H532.64C533 1.70605 533.34 1.60605 533.66 1.40605C534.02 1.20605 534.2 0.826051 534.2 0.266052H535.28V8.66605H534.2C534.2 8.10605 534.02 7.72605 533.66 7.52605C533.34 7.32605 533 7.22605 532.64 7.22605H522.74V31.1061ZM559.659 28.1061C561.539 28.1061 563.179 27.9461 564.579 27.6261C565.979 27.3061 567.139 26.7461 568.059 25.9461C568.979 25.1061 569.659 24.0061 570.099 22.6461C570.579 21.2861 570.819 19.5661 570.819 17.4861C570.819 15.4061 570.579 13.6861 570.099 12.3261C569.659 10.9661 568.979 9.88605 568.059 9.08605C567.139 8.24605 565.979 7.66605 564.579 7.34605C563.179 7.02605 561.539 6.86605 559.659 6.86605H550.359V28.1061H559.659ZM562.059 1.70605C564.259 1.70605 566.299 2.02605 568.179 2.66605C570.099 3.30605 571.759 4.28605 573.159 5.60605C574.559 6.88605 575.659 8.52605 576.459 10.5261C577.259 12.4861 577.659 14.8061 577.659 17.4861C577.659 20.1661 577.259 22.5061 576.459 24.5061C575.659 26.4661 574.559 28.1061 573.159 29.4261C571.759 30.7061 570.099 31.6661 568.179 32.3061C566.299 32.9461 564.259 33.2661 562.059 33.2661H542.139V32.1861C543.059 32.1861 543.519 31.8261 543.519 31.1061V3.86605C543.519 3.14605 543.059 2.78605 542.139 2.78605V1.70605H562.059ZM585.86 29.3661C585.86 28.2061 586.28 27.2061 587.12 26.3661C587.96 25.5261 588.96 25.1061 590.12 25.1061C591.28 25.1061 592.28 25.5261 593.12 26.3661C593.96 27.2061 594.38 28.2061 594.38 29.3661C594.38 30.5261 593.96 31.5061 593.12 32.3061C592.28 33.0661 591.28 33.4461 590.12 33.4461C588.96 33.4461 587.96 33.0661 587.12 32.3061C586.28 31.5061 585.86 30.5261 585.86 29.3661Z" fill="#B7946E"/>
</svg>
