<svg width="41" height="161" viewBox="0 0 41 161" fill="none" xmlns="http://www.w3.org/2000/svg">
<path d="M23.1768 61.7006C23.6086 61.6495 23.9438 61.4421 24.1825 61.0785C24.4211 60.7148 24.5404 60.2688 24.5404 59.7404C24.5404 59.354 24.4779 59.016 24.3529 58.7262C24.2279 58.4393 24.0561 58.2148 23.8373 58.0529C23.6186 57.8938 23.37 57.8143 23.0916 57.8143C22.8586 57.8143 22.6583 57.8697 22.4907 57.9805C22.326 58.0941 22.1882 58.239 22.0774 58.4151C21.9694 58.5913 21.8799 58.7759 21.8089 58.9691C21.7407 59.1623 21.6853 59.3398 21.6427 59.5018L21.4041 60.3881C21.3444 60.6154 21.262 60.8683 21.1569 61.1467C21.0518 61.4279 20.9083 61.6964 20.7265 61.9521C20.5475 62.2106 20.3174 62.4236 20.0362 62.5913C19.7549 62.7589 19.4098 62.8427 19.0007 62.8427C18.5291 62.8427 18.1029 62.7191 17.7223 62.4719C17.3416 62.2276 17.039 61.8697 16.8146 61.3981C16.5902 60.9293 16.4779 60.3597 16.4779 59.6893C16.4779 59.0643 16.5788 58.5231 16.7805 58.0657C16.9822 57.6111 17.2634 57.2532 17.6242 56.9918C17.985 56.7333 18.4041 56.587 18.8813 56.5529L18.8813 57.6438C18.5518 57.6722 18.2791 57.783 18.0632 57.9762C17.8501 58.1722 17.691 58.4194 17.5859 58.7177C17.4836 59.0188 17.4325 59.3427 17.4325 59.6893C17.4325 60.0927 17.4978 60.4549 17.6285 60.7759C17.762 61.0969 17.9467 61.3512 18.1825 61.5387C18.4211 61.7262 18.6995 61.82 19.0177 61.82C19.3075 61.82 19.5433 61.739 19.7251 61.5771C19.9069 61.4151 20.0546 61.2021 20.1683 60.9379C20.2819 60.6736 20.3813 60.3881 20.4666 60.0813L20.7734 59.0075C20.9694 58.3256 21.2492 57.7859 21.6129 57.3881C21.9765 56.9904 22.4524 56.7915 23.0404 56.7915C23.5291 56.7915 23.9552 56.9236 24.3188 57.1879C24.6853 57.4549 24.9694 57.8129 25.1711 58.2617C25.3757 58.7134 25.4779 59.2177 25.4779 59.7745C25.4779 60.337 25.3771 60.837 25.1754 61.2745C24.9765 61.712 24.7038 62.0586 24.3572 62.3143C24.0106 62.5728 23.6171 62.7092 23.1768 62.7234L23.1768 61.7006ZM22.6313 76.403L22.6313 75.3462C22.9353 75.2837 23.2024 75.1743 23.4325 75.018C23.6626 74.8646 23.8558 74.6771 24.012 74.4555C24.1711 74.2368 24.2904 73.9939 24.37 73.7268C24.4495 73.4598 24.4893 73.1814 24.4893 72.8916C24.4893 72.3632 24.3558 71.8845 24.0887 71.4555C23.8217 71.0294 23.4282 70.6899 22.9083 70.4371C22.3884 70.1871 21.7507 70.0621 20.995 70.0621C20.2393 70.0621 19.6015 70.1871 19.0816 70.4371C18.5617 70.6899 18.1683 71.0294 17.9012 71.4555C17.6342 71.8845 17.5007 72.3632 17.5007 72.8916C17.5007 73.1814 17.5404 73.4598 17.62 73.7268C17.6995 73.9939 17.8174 74.2368 17.9737 74.4555C18.1328 74.6771 18.3274 74.8646 18.5575 75.018C18.7904 75.1743 19.0575 75.2837 19.3586 75.3462L19.3586 76.403C18.9126 76.3234 18.5134 76.1786 18.1612 75.9683C17.8089 75.7581 17.5092 75.4967 17.262 75.1842C17.0177 74.8717 16.8316 74.5209 16.7038 74.1317C16.5759 73.7453 16.512 73.332 16.512 72.8916C16.512 72.1473 16.6938 71.4854 17.0575 70.9058C17.4211 70.3263 17.9382 69.8703 18.6086 69.5379C19.2791 69.2055 20.0745 69.0393 20.995 69.0393C21.9154 69.0393 22.7109 69.2055 23.3813 69.5379C24.0518 69.8703 24.5688 70.3263 24.9325 70.9058C25.2961 71.4854 25.4779 72.1473 25.4779 72.8916C25.4779 73.332 25.414 73.7453 25.2862 74.1317C25.1583 74.5209 24.9708 74.8717 24.7237 75.1842C24.4794 75.4967 24.1811 75.7581 23.8288 75.9683C23.4794 76.1786 23.0802 76.3234 22.6313 76.403ZM16.6313 82.9107L25.3586 82.9107L25.3586 85.8596C25.3586 86.5414 25.2421 87.1011 25.0092 87.5386C24.7791 87.9761 24.4623 88.2999 24.0589 88.5102C23.6555 88.7204 23.1967 88.8255 22.6825 88.8255C22.1683 88.8255 21.7123 88.7204 21.3146 88.5102C20.9169 88.2999 20.6044 87.9775 20.3771 87.5428C20.1527 87.1082 20.0404 86.5528 20.0404 85.8766L20.0404 83.4903L20.995 83.4903L20.995 85.8425C20.995 86.3085 21.0632 86.6835 21.1995 86.9675C21.3359 87.2545 21.5291 87.4619 21.7791 87.5897C22.0319 87.7204 22.3331 87.7857 22.6825 87.7857C23.0319 87.7857 23.3373 87.7204 23.5987 87.5897C23.86 87.459 24.0617 87.2502 24.2038 86.9633C24.3487 86.6763 24.4211 86.2971 24.4211 85.8255L24.4211 83.9675L16.6313 83.9675L16.6313 82.9107ZM20.5518 87.0187L16.6313 89.1664L16.6313 87.9391L20.5518 85.8255L20.5518 87.0187ZM20.995 102.75C20.0745 102.75 19.2791 102.584 18.6086 102.252C17.9382 101.919 17.4211 101.463 17.0575 100.884C16.6938 100.304 16.512 99.6422 16.512 98.8979C16.512 98.1536 16.6938 97.4916 17.0575 96.9121C17.4211 96.3325 17.9382 95.8766 18.6086 95.5442C19.2791 95.2118 20.0745 95.0456 20.995 95.0456C21.9154 95.0456 22.7109 95.2118 23.3813 95.5442C24.0518 95.8766 24.5688 96.3325 24.9325 96.9121C25.2961 97.4916 25.4779 98.1536 25.4779 98.8979C25.4779 99.6422 25.2961 100.304 24.9325 100.884C24.5688 101.463 24.0518 101.919 23.3813 102.252C22.7109 102.584 21.9154 102.75 20.995 102.75ZM20.995 101.727C21.7507 101.727 22.3884 101.601 22.9083 101.348C23.4282 101.098 23.8217 100.759 24.0887 100.33C24.3558 99.9036 24.4893 99.4263 24.4893 98.8979C24.4893 98.3695 24.3558 97.8908 24.0887 97.4618C23.8217 97.0357 23.4282 96.6962 22.9083 96.4433C22.3884 96.1933 21.7507 96.0683 20.995 96.0683C20.2393 96.0683 19.6015 96.1933 19.0816 96.4433C18.5617 96.6962 18.1683 97.0357 17.9012 97.4618C17.6342 97.8908 17.5007 98.3695 17.5007 98.8979C17.5007 99.4263 17.6342 99.9036 17.9012 100.33C18.1683 100.759 18.5617 101.098 19.0816 101.348C19.6015 101.601 20.2393 101.727 20.995 101.727ZM16.6313 109.327L25.3586 109.327L25.3586 110.384L17.5688 110.384L17.5688 114.441L16.6313 114.441L16.6313 109.327ZM16.6313 120.877L25.3586 120.877L25.3586 121.934L17.5688 121.934L17.5688 125.991L16.6313 125.991L16.6313 120.877ZM25.3586 146.329L25.3586 147.386L19.5802 147.386C18.9836 147.386 18.4509 147.246 17.9822 146.964C17.5163 146.686 17.1484 146.292 16.8785 145.784C16.6115 145.275 16.4779 144.679 16.4779 143.994C16.4779 143.31 16.6115 142.713 16.8785 142.204C17.1484 141.696 17.5163 141.301 17.9822 141.02C18.4509 140.741 18.9836 140.602 19.5802 140.602L25.3586 140.602L25.3586 141.659L19.6654 141.659C19.2393 141.659 18.86 141.753 18.5277 141.94C18.1981 142.128 17.9382 142.395 17.7478 142.741C17.5603 143.091 17.4666 143.508 17.4666 143.994C17.4666 144.48 17.5603 144.898 17.7478 145.247C17.9382 145.596 18.1981 145.863 18.5277 146.048C18.86 146.236 19.2393 146.329 19.6654 146.329L25.3586 146.329ZM16.6313 154.297L25.3586 154.297L25.3586 157.246C25.3586 157.93 25.235 158.49 24.9879 158.925C24.7436 159.362 24.4126 159.686 23.995 159.896C23.5774 160.106 23.1115 160.211 22.5973 160.211C22.083 160.211 21.6157 160.106 21.1953 159.896C20.7748 159.689 20.4396 159.368 20.1896 158.933C19.9424 158.498 19.8188 157.942 19.8188 157.263L19.8188 155.149L20.7563 155.149L20.7563 157.228C20.7563 157.697 20.8373 158.074 20.9992 158.358C21.1612 158.642 21.3799 158.848 21.6555 158.976C21.9339 159.106 22.2478 159.172 22.5973 159.172C22.9467 159.172 23.2592 159.106 23.5348 158.976C23.8103 158.848 24.0262 158.64 24.1825 158.353C24.3416 158.067 24.4211 157.686 24.4211 157.211L24.4211 155.353L16.6313 155.353L16.6313 154.297Z" fill="#B18151"/>
<path d="M30.8837 12.0895C30.869 11.8244 30.7621 11.5729 30.5815 11.3784L25.4436 5.61827C25.3493 5.4912 25.2296 5.38519 25.0921 5.30699C24.9545 5.2288 24.8022 5.18015 24.6448 5.16415C24.4874 5.14814 24.3284 5.16514 24.1779 5.21405C24.0275 5.26296 23.8889 5.34271 23.771 5.4482C23.653 5.5537 23.5584 5.68262 23.4932 5.82674C23.4279 5.97086 23.3934 6.12701 23.3919 6.28522C23.3903 6.44342 23.4218 6.60021 23.4843 6.74556C23.5467 6.89092 23.6389 7.02165 23.7547 7.1294L28.8748 12.9073C29.0238 13.0846 29.2234 13.2123 29.447 13.2732C29.6705 13.3341 29.9073 13.3253 30.1257 13.2479C30.3441 13.1706 30.5337 13.0285 30.6691 12.8406C30.8046 12.6526 30.8794 12.4278 30.8837 12.1962C30.8854 12.1606 30.8854 12.125 30.8837 12.0895ZM21.7636 1.79598C21.7457 1.57288 21.6624 1.36001 21.5241 1.184C21.3858 1.00799 21.1988 0.876665 20.9862 0.806456C20.7737 0.736247 20.5452 0.730272 20.3293 0.789279C20.1134 0.848286 19.9197 0.969654 19.7724 1.1382L10.67 11.3784C10.4673 11.6047 10.3628 11.9023 10.3794 12.2057C10.3961 12.5091 10.5326 12.7934 10.7589 12.9962C10.9853 13.1989 11.2828 13.3034 11.5862 13.2868C11.8896 13.2701 12.174 13.1336 12.3767 12.9073L19.488 4.90715L19.488 36.0365C19.4858 36.1873 19.5137 36.337 19.5699 36.4769C19.6261 36.6168 19.7096 36.7442 19.8155 36.8515C19.9213 36.9589 20.0475 37.0442 20.1866 37.1024C20.3257 37.1606 20.475 37.1905 20.6258 37.1905C20.7765 37.1905 20.9258 37.1606 21.0649 37.1024C21.204 37.0442 21.3302 36.9589 21.436 36.8515C21.5419 36.7442 21.6254 36.6168 21.6816 36.4769C21.7378 36.337 21.7657 36.1873 21.7636 36.0365L21.7636 1.90265C21.7652 1.86712 21.7652 1.83152 21.7636 1.79598Z" fill="#B18151"/>
</svg>
