<svg width="294" height="78" viewBox="0 0 294 78" fill="none" xmlns="http://www.w3.org/2000/svg">
<g clip-path="url(#clip0_227_3558)">
<path fill-rule="evenodd" clip-rule="evenodd" d="M149.685 34.8351V1.28619H154.01V17.1874L161.652 1.28619H166.167L158.467 17.2329L166.167 34.8351H161.506L154.025 17.5974V34.8351H149.699H149.685ZM173.488 34.8351V1.28619H177.842V34.8351H173.488ZM191.11 34.8351V5.46272H185.119V1.28619H201.484V5.46272H195.494V34.8351H191.11ZM221.255 34.0757C220.524 34.4706 219.808 34.7592 219.063 34.9566C218.317 35.154 217.543 35.2452 216.71 35.2452C213.408 35.2452 210.938 33.8479 209.302 31.0383C207.665 28.2286 206.847 24.0065 206.847 18.3568C206.847 12.7071 207.724 8.22682 209.463 5.26528C211.216 2.30374 213.802 0.830566 217.222 0.830566C217.967 0.830566 218.683 0.906503 219.34 1.05838C219.998 1.21025 220.641 1.43806 221.24 1.72662V6.02465C220.626 5.70571 220.027 5.46272 219.457 5.31084C218.887 5.15897 218.361 5.08303 217.85 5.08303C215.527 5.08303 213.846 6.13096 212.78 8.24201C211.713 10.3379 211.187 13.7095 211.187 18.296C211.187 22.5789 211.698 25.7531 212.706 27.8185C213.715 29.884 215.278 30.9168 217.382 30.9168C217.981 30.9168 218.595 30.8104 219.209 30.5978C219.823 30.4004 220.495 30.0815 221.225 29.641V34.0605L221.255 34.0757ZM229.028 34.8351V1.28619H233.382V14.0436H241.171V1.28619H245.525V34.8351H241.171V18.2657H233.382V34.8351H229.028ZM255.067 34.8351V1.28619H267.984V5.34122H259.421V15.3193H267.253V19.3136H259.421V30.6738H267.984V34.8503H255.067V34.8351ZM276.429 34.8351V1.28619H280.448L289.01 24.5836V1.28619H293.146V34.8351H289.054L280.535 11.3402V34.8351H276.415H276.429ZM123.632 28.2438V24.4773H126.539L123.646 9.94299V9.97337V1.271H125.692L133.261 34.8199H128.863L127.314 28.2286H123.646L123.632 28.2438ZM64.4384 9.94299V9.97337V1.271H66.4841L74.0531 34.8199H69.6549L68.106 28.2286H64.4384V24.4621H67.3462L64.453 9.92781L64.4384 9.94299ZM123.632 1.28619H121.586L114.017 34.8351H118.415L119.92 28.2438H123.632V24.4773H120.724L123.632 9.98855V1.28619ZM80.3509 28.9576C81.3884 29.6106 82.3381 30.0966 83.2003 30.4156C84.0624 30.7345 84.8952 30.8864 85.6551 30.8864C86.9848 30.8864 88.0368 30.4915 88.8259 29.6714C89.6003 28.8665 89.9948 27.8033 89.9948 26.4517C89.9948 24.4773 88.5044 22.2144 85.5089 19.6781C85.1583 19.3744 84.8952 19.1314 84.7053 18.9947C82.7911 17.3544 81.4468 15.8357 80.687 14.4233C79.9272 13.026 79.5326 11.4465 79.5326 9.7C79.5326 7.17889 80.3071 5.06784 81.8559 3.38205C83.4048 1.69625 85.319 0.860941 87.6131 0.860941C88.6213 0.860941 89.5857 0.98244 90.5063 1.22544C91.4414 1.46844 92.362 1.84812 93.2679 2.36449V6.87514C92.435 6.26765 91.6022 5.79684 90.7985 5.50828C89.9948 5.20453 89.2058 5.06784 88.4167 5.06784C87.0432 5.06784 85.9473 5.4779 85.1144 6.3284C84.2962 7.1637 83.8724 8.27238 83.8724 9.66962C83.8724 11.5984 85.4651 13.8765 88.6213 16.5191C88.9135 16.7773 89.1473 16.9444 89.3081 17.0811C91.1492 18.6302 92.4496 20.1033 93.2241 21.531C93.9839 22.9586 94.3784 24.5836 94.3784 26.4213C94.3784 28.988 93.5894 31.1142 92.0113 32.7696C90.4332 34.4402 88.4167 35.2603 85.9473 35.2603C85.056 35.2603 84.1354 35.1237 83.2003 34.8503C82.2651 34.5769 81.3153 34.1517 80.3217 33.5897V28.9728L80.3509 28.9576ZM102.488 34.8351V1.28619H106.842V34.8351H102.488ZM64.4384 9.98855V1.28619H62.3928L54.8237 34.8351H59.2219L60.727 28.2438H64.4384V24.4773H61.5306L64.4384 9.98855Z" fill="white"/>
<path fill-rule="evenodd" clip-rule="evenodd" d="M170.332 54.366C170.814 54.3053 171.208 54.0775 171.53 53.6978C171.924 53.2422 172.114 52.6499 172.114 51.9361C172.114 51.2222 171.924 50.6148 171.559 50.1591C171.238 49.7491 170.828 49.5365 170.317 49.4757V48.1088H170.463C171.355 48.1088 172.085 48.4581 172.655 49.1568C173.225 49.8554 173.502 50.7666 173.502 51.8601C173.502 53.0447 173.166 53.9864 172.48 54.685C171.91 55.2621 171.179 55.6114 170.302 55.7025V54.3509L170.332 54.366ZM168.549 50.1895C169.09 49.7187 169.616 49.4757 170.142 49.4757C170.215 49.4757 170.273 49.4757 170.332 49.4757V48.1088C169.703 48.1392 169.104 48.367 168.549 48.7923V44.4639H167.146V55.2013C167.438 55.3532 167.848 55.4899 168.344 55.581C168.841 55.6873 169.323 55.7329 169.776 55.7329C169.966 55.7329 170.142 55.7329 170.317 55.7025V54.3509C170.215 54.3509 170.112 54.366 169.996 54.366C169.499 54.366 169.002 54.2901 168.534 54.1382V50.1743L168.549 50.1895Z" fill="white"/>
<path fill-rule="evenodd" clip-rule="evenodd" d="M179.26 48.291H180.823L175.826 59.3626H174.262L176.659 54.047L173.926 48.291H175.519L177.433 52.422L179.26 48.291Z" fill="white"/>
<path fill-rule="evenodd" clip-rule="evenodd" d="M62.1442 71.5885C60.9753 74.1096 59.8648 76.0991 59.6018 76.9344C59.4702 77.3141 59.3387 77.39 58.3597 77.39C57.9068 77.39 57.1323 76.9344 57.1323 76.7825C57.1323 76.6307 57.1908 76.4788 57.7168 76.1599C58.8858 75.3245 60.3908 72.6516 60.3908 71.5125C60.3908 69.2192 57.5853 68.1561 57.5853 67.6245C57.5853 67.3967 58.5643 67.3208 59.0757 67.3208C59.5433 67.3208 60.1278 67.7005 62.9187 70.2975C64.6137 71.8922 69.0996 74.9449 71.379 74.9449C74.243 74.9449 79.7809 72.5908 81.023 69.2192C81.2129 68.6877 81.4175 68.4447 81.6074 68.4447C81.8705 68.4447 82.7764 68.5965 82.7764 68.9003C82.7764 69.2952 82.0604 70.8139 82.0604 73.2591C82.0604 74.8537 83.5508 75.9169 83.5508 76.3877C83.5508 76.5395 82.3819 76.9192 81.9873 76.9192C81.5344 76.9192 81.3444 76.5395 81.2714 75.932C81.0814 74.8689 80.6138 72.9553 80.4239 72.4997L78.7873 73.4109C76.3763 74.793 73.5124 75.7042 71.1014 75.7042C69.2165 75.7042 67.5215 75.2486 64.716 73.335L62.115 71.5885H62.1442Z" fill="#E30613" stroke="#E30613" stroke-width="0.5" stroke-miterlimit="2.61"/>
<path fill-rule="evenodd" clip-rule="evenodd" d="M95.2403 73.654V74.4893H92.7563C91.4558 74.4893 90.9298 74.6412 90.4184 75.1727L89.1033 76.6307C88.9133 76.8585 89.0448 77.1623 88.5919 77.1623C87.6129 77.1623 86.9553 77.0104 86.9553 76.7826C86.9553 76.5396 87.3498 76.327 87.8028 76.0232C89.6878 74.4285 93.0778 70.9051 93.0778 70.2976C93.0778 70.0698 92.7563 69.766 92.1572 69.3863L90.0092 68.0195C89.4832 67.6398 89.0887 67.5487 89.0887 67.412C89.0887 67.2753 90.2576 66.8652 90.7252 66.8652C91.7042 66.8652 91.8357 66.8652 92.1572 67.412C92.2156 67.5639 92.6832 67.9435 93.0778 68.2473C93.8522 68.8548 94.5682 69.3863 95.2257 69.8571V71.5429L94.3052 70.9203L92.5371 72.8339C92.0841 73.2895 92.0257 73.4414 92.0257 73.5173C92.0257 73.6692 92.1572 73.7451 94.6997 73.7451C94.9042 73.7451 95.0211 73.6692 95.2257 73.6692L95.2403 73.654ZM98.4257 73.5781C98.1627 73.654 97.5052 73.654 95.2403 73.654V74.4893H99.7262C101.48 75.6284 102.736 76.4029 103.248 76.9345C103.438 77.0863 103.511 77.2382 103.774 77.2382H104.548C104.943 77.2382 105.849 76.7067 105.849 76.5396C105.849 76.084 105.264 76.3118 104.548 75.9321C101.363 74.1096 99.4048 72.9554 95.2403 69.8268V71.5126L98.4257 73.5629V73.5781Z" fill="#E30613"/>
<path d="M95.2403 73.654V74.4893M95.2403 73.654L95.2257 73.6692C95.0211 73.6692 94.9042 73.7451 94.6997 73.7451C92.1572 73.7451 92.0257 73.6692 92.0257 73.5173C92.0257 73.4414 92.0841 73.2895 92.5371 72.8339L94.3052 70.9203L95.2257 71.5429V69.8571C94.5682 69.3863 93.8522 68.8548 93.0778 68.2473C92.6832 67.9435 92.2156 67.5639 92.1572 67.412C91.8357 66.8652 91.7042 66.8652 90.7252 66.8652C90.2576 66.8652 89.0887 67.2753 89.0887 67.412C89.0887 67.5487 89.4832 67.6398 90.0092 68.0195L92.1572 69.3863C92.7563 69.766 93.0778 70.0698 93.0778 70.2976C93.0778 70.9051 89.6878 74.4285 87.8028 76.0232C87.3498 76.327 86.9553 76.5396 86.9553 76.7826C86.9553 77.0104 87.6129 77.1623 88.5919 77.1623C89.0448 77.1623 88.9133 76.8585 89.1033 76.6307L90.4184 75.1727C90.9298 74.6412 91.4558 74.4893 92.7563 74.4893H95.2403M95.2403 73.654C97.5052 73.654 98.1627 73.654 98.4257 73.5781V73.5629L95.2403 71.5126V69.8268C99.4048 72.9554 101.363 74.1096 104.548 75.9321C105.264 76.3118 105.849 76.084 105.849 76.5396C105.849 76.7067 104.943 77.2382 104.548 77.2382H103.774C103.511 77.2382 103.438 77.0863 103.248 76.9345C102.736 76.4029 101.48 75.6284 99.7262 74.4893H95.2403" stroke="#E30613" stroke-width="0.5" stroke-miterlimit="10"/>
<path fill-rule="evenodd" clip-rule="evenodd" d="M95.2403 73.654V74.4893H92.7563C91.4558 74.4893 90.9298 74.6412 90.4184 75.1727L89.1033 76.6307C88.9133 76.8585 89.0448 77.1623 88.5919 77.1623C87.6129 77.1623 86.9553 77.0104 86.9553 76.7826C86.9553 76.5396 87.3498 76.327 87.8028 76.0232C89.6878 74.4285 93.0778 70.9051 93.0778 70.2976C93.0778 70.0698 92.7563 69.766 92.1572 69.3863L90.0092 68.0195C89.4832 67.6398 89.0887 67.5487 89.0887 67.412C89.0887 67.2753 90.2576 66.8652 90.7252 66.8652C91.7042 66.8652 91.8357 66.8652 92.1572 67.412C92.2156 67.5639 92.6832 67.9435 93.0778 68.2473C93.8522 68.8548 94.5682 69.3863 95.2257 69.8571V71.5429L94.3052 70.9203L92.5371 72.8339C92.0841 73.2895 92.0257 73.4414 92.0257 73.5173C92.0257 73.6692 92.1572 73.7451 94.6997 73.7451C94.9042 73.7451 95.0211 73.6692 95.2257 73.6692L95.2403 73.654ZM98.4257 73.5781C98.1627 73.654 97.5052 73.654 95.2403 73.654V74.4893H99.7262C101.48 75.6284 102.736 76.4029 103.248 76.9345C103.438 77.0863 103.511 77.2382 103.774 77.2382H104.548C104.943 77.2382 105.849 76.7067 105.849 76.5396C105.849 76.084 105.264 76.3118 104.548 75.9321C101.363 74.1096 99.4048 72.9554 95.2403 69.8268V71.5126L98.4257 73.5629V73.5781Z" fill="#E30613"/>
<path d="M95.2403 73.654V74.4893M95.2403 73.654L95.2257 73.6692C95.0211 73.6692 94.9042 73.7451 94.6997 73.7451C92.1572 73.7451 92.0257 73.6692 92.0257 73.5173C92.0257 73.4414 92.0841 73.2895 92.5371 72.8339L94.3052 70.9203L95.2257 71.5429V69.8571C94.5682 69.3863 93.8522 68.8548 93.0778 68.2473C92.6832 67.9435 92.2156 67.5639 92.1572 67.412C91.8357 66.8652 91.7042 66.8652 90.7252 66.8652C90.2576 66.8652 89.0887 67.2753 89.0887 67.412C89.0887 67.5487 89.4832 67.6398 90.0092 68.0195L92.1572 69.3863C92.7563 69.766 93.0778 70.0698 93.0778 70.2976C93.0778 70.9051 89.6878 74.4285 87.8028 76.0232C87.3498 76.327 86.9553 76.5396 86.9553 76.7826C86.9553 77.0104 87.6129 77.1623 88.5919 77.1623C89.0448 77.1623 88.9133 76.8585 89.1033 76.6307L90.4184 75.1727C90.9298 74.6412 91.4558 74.4893 92.7563 74.4893H95.2403M95.2403 73.654C97.5052 73.654 98.1627 73.654 98.4257 73.5781V73.5629L95.2403 71.5126V69.8268C99.4048 72.9554 101.363 74.1096 104.548 75.9321C105.264 76.3118 105.849 76.084 105.849 76.5396C105.849 76.7067 104.943 77.2382 104.548 77.2382H103.774C103.511 77.2382 103.438 77.0863 103.248 76.9345C102.736 76.4029 101.48 75.6284 99.7262 74.4893H95.2403" stroke="#E30613" stroke-width="0.5" stroke-miterlimit="2.61"/>
<path fill-rule="evenodd" clip-rule="evenodd" d="M99.7263 74.4893C101.48 75.6284 102.736 76.4029 103.248 76.9345C103.438 77.0863 103.511 77.2382 103.774 77.2382H104.548C104.943 77.2382 105.849 76.7067 105.849 76.5396C105.849 76.084 105.264 76.3118 104.548 75.9321C101.348 74.1552 99.361 72.9554 95.2258 69.8571V71.4822L98.4112 73.5629C98.1628 73.6388 97.5344 73.7147 95.2258 73.7147V74.4741H99.7263V74.4893ZM95.2258 69.8723V71.4974L94.3198 70.9051L92.5518 72.8187C92.0988 73.2743 92.0403 73.4262 92.0403 73.5021C92.0403 73.654 92.1718 73.7299 94.7143 73.7299H95.2404V74.4893H92.7709C91.4705 74.4893 90.9444 74.6412 90.433 75.1727L89.1179 76.6307C88.928 76.8585 89.0595 77.1623 88.6065 77.1623C87.6275 77.1623 86.97 77.0104 86.97 76.7826C86.97 76.5396 87.3645 76.327 87.8175 76.0232C89.7024 74.4285 93.0924 70.9051 93.0924 70.2976C93.0924 70.0698 92.7709 69.766 92.1718 69.3863L90.0239 68.0195C89.4978 67.6398 89.1033 67.5487 89.1033 67.412C89.1033 67.2753 90.2723 66.8652 90.7399 66.8652C91.7189 66.8652 91.8504 66.8652 92.1718 67.412C92.2303 67.5639 92.6979 67.9435 93.0924 68.2473C93.8668 68.8396 94.5828 69.3863 95.2404 69.8723H95.2258Z" fill="#E30613" stroke="#E30613" stroke-width="0.5" stroke-miterlimit="10"/>
<path fill-rule="evenodd" clip-rule="evenodd" d="M99.7262 74.4893C101.48 75.6284 102.736 76.4029 103.248 76.9345C103.438 77.0863 103.511 77.2382 103.774 77.2382H104.548C104.943 77.2382 105.849 76.7067 105.849 76.5396C105.849 76.084 105.264 76.3118 104.548 75.9321C101.348 74.1552 99.3609 72.9554 95.2257 69.8571V71.4822L98.4111 73.5629C98.1627 73.6388 97.5344 73.7147 95.2257 73.7147V74.4741H99.7262V74.4893ZM95.2257 69.8723C94.5682 69.3863 93.8522 68.8396 93.0778 68.2473C92.6832 67.9435 92.2303 67.5639 92.1572 67.412C91.8357 66.8652 91.6896 66.8652 90.7252 66.8652C90.2722 66.8652 89.0887 67.2601 89.0887 67.412C89.0887 67.5639 89.4832 67.6398 90.0092 68.0195L92.1572 69.3863C92.7417 69.766 93.0778 70.0698 93.0778 70.2976C93.0778 70.9051 89.6878 74.4134 87.8028 76.0232C87.3498 76.327 86.9553 76.5548 86.9553 76.7826C86.9553 77.0104 87.6129 77.1623 88.5919 77.1623C89.0448 77.1623 88.9133 76.8585 89.1033 76.6307L90.4184 75.1727C90.9444 74.6412 91.4558 74.4893 92.7563 74.4893H95.2257V73.7299H94.6997C92.1572 73.7299 92.0257 73.654 92.0257 73.5021C92.0257 73.4262 92.0841 73.2743 92.5371 72.8187L94.3052 70.9051L95.2111 71.4974V69.8723H95.2257Z" fill="#E30613" stroke="#E30613" stroke-width="0.5" stroke-miterlimit="2.61"/>
<path fill-rule="evenodd" clip-rule="evenodd" d="M108.976 69.6748C108.976 69.3103 108.976 69.1433 108.786 68.9914C108.45 68.7028 108.318 68.5358 108.318 68.3839C108.318 68.0802 109.823 67.3208 110.276 67.3208C110.656 67.3208 111.314 67.5486 111.314 67.7005C111.314 68.0042 111.051 68.232 111.051 68.6117C110.919 69.5989 110.788 71.8163 110.788 75.7802C110.788 77.147 110.525 77.4508 109.94 77.4508C109.166 77.4508 109.034 77.223 109.034 71.9681C109.034 70.8139 108.976 70.2064 108.976 69.6748Z" fill="#E30613" stroke="#E30613" stroke-width="0.5" stroke-miterlimit="2.61"/>
<path fill-rule="evenodd" clip-rule="evenodd" d="M116.72 69.5989C114.967 68.3839 114.704 68.1561 114.704 68.0042C114.704 67.7764 115.215 67.4727 115.873 67.4727C116.063 67.4727 116.252 67.4727 118.284 68.7788C123.88 72.1352 127.27 73.7299 132.749 75.5675C132.881 74.5804 132.939 74.1247 132.939 73.2894C132.939 71.8314 132.881 70.6164 132.749 69.3863C132.749 68.475 131.96 68.3839 131.96 68.0194C131.96 67.6549 133.261 67.4878 133.845 67.4878C134.24 67.4878 134.751 67.5638 134.751 67.8827C134.751 68.2624 134.298 68.718 134.298 73.745C134.298 75.2638 134.561 75.8865 134.561 76.494C134.561 77.1015 133.319 77.4052 132.866 77.4052C132.413 77.4052 132.34 76.494 131.303 76.1143C122.901 73.0616 121.527 72.4541 119.642 71.2999C119.453 72.3022 119.379 74.8841 118.853 76.494C118.649 77.0255 118.269 77.2533 117.816 77.2533C117.495 77.2533 116.705 77.1015 116.705 76.7977C116.705 76.3421 118.137 75.036 118.137 71.9985C118.137 70.9961 117.684 70.3127 116.705 69.6293L116.72 69.5989Z" fill="#E30613" stroke="#E30613" stroke-width="0.5" stroke-miterlimit="2.61"/>
<path fill-rule="evenodd" clip-rule="evenodd" d="M145.842 76.0081C146.295 76.0081 146.821 75.7043 147.215 75.7043C147.478 75.7043 147.668 75.7954 147.668 75.9321C147.668 76.0081 147.274 77.1471 146.821 77.1471C146.499 77.1471 146.368 77.0712 145.842 76.9193H142.978C140.567 76.9193 140.172 76.9193 139.982 76.9952C139.719 77.0712 139.456 77.1471 139.135 77.1471C138.74 77.1471 138.156 76.3877 138.156 76.2359C138.156 76.084 138.609 75.9321 138.682 75.4765C138.755 74.7931 138.755 73.3351 138.755 71.5885C138.755 68.3081 137.907 67.9284 137.907 67.6246C137.907 67.3968 139.471 66.7134 139.865 66.7134C140.187 66.7134 140.786 66.8501 140.786 67.0931C140.786 67.3361 140.581 67.6246 140.581 67.9284C140.581 68.9155 140.392 69.9179 140.392 70.8292C140.392 71.4367 140.465 71.8923 140.465 72.6516C140.465 74.1096 140.143 75.6284 140.143 76.084C140.143 76.1599 140.26 76.1599 140.465 76.1599H141.049L145.871 76.0081H145.842Z" fill="#E30613" stroke="#E30613" stroke-width="0.5" stroke-miterlimit="2.61"/>
<path fill-rule="evenodd" clip-rule="evenodd" d="M157.692 73.654V74.4893H155.281C153.908 74.4893 153.396 74.6412 152.87 75.1727L151.555 76.6307C151.365 76.8585 151.497 77.1623 151.029 77.1623C150.05 77.1623 149.407 77.0104 149.407 76.7826C149.407 76.5396 149.802 76.327 150.255 76.0232C152.14 74.4285 155.53 70.9051 155.53 70.2976C155.53 70.0698 155.208 69.766 154.624 69.3863L152.476 68.0195C151.964 67.6398 151.57 67.5487 151.57 67.412C151.57 67.2753 152.753 66.8652 153.279 66.8652C154.185 66.8652 154.317 66.8652 154.638 67.412C154.697 67.5639 155.15 67.9435 155.544 68.2473C156.333 68.8548 157.049 69.3863 157.692 69.8571V71.5429L156.786 70.9203L155.018 72.8339C154.638 73.2895 154.507 73.4414 154.507 73.5173C154.507 73.6692 154.638 73.7451 157.166 73.7451C157.371 73.7451 157.502 73.6692 157.692 73.6692V73.654ZM160.892 73.5781C160.688 73.654 160.045 73.654 157.692 73.654V74.4893H162.193C163.946 75.6284 165.188 76.4029 165.773 76.9345C165.904 77.0863 165.963 77.2382 166.226 77.2382H167.015C167.395 77.2382 168.315 76.7067 168.315 76.5396C168.315 76.084 167.731 76.3118 167.015 75.9321C163.815 74.1096 161.871 72.9554 157.692 69.8268V71.5126L160.892 73.5629V73.5781Z" fill="#E30613"/>
<path d="M157.692 73.654V74.4893M157.692 73.654V73.6692C157.502 73.6692 157.371 73.7451 157.166 73.7451C154.638 73.7451 154.507 73.6692 154.507 73.5173C154.507 73.4414 154.638 73.2895 155.018 72.8339L156.786 70.9203L157.692 71.5429V69.8571C157.049 69.3863 156.333 68.8548 155.544 68.2473C155.15 67.9435 154.697 67.5639 154.638 67.412C154.317 66.8652 154.185 66.8652 153.279 66.8652C152.753 66.8652 151.57 67.2753 151.57 67.412C151.57 67.5487 151.964 67.6398 152.476 68.0195L154.624 69.3863C155.208 69.766 155.53 70.0698 155.53 70.2976C155.53 70.9051 152.14 74.4285 150.255 76.0232C149.802 76.327 149.407 76.5396 149.407 76.7826C149.407 77.0104 150.05 77.1623 151.029 77.1623C151.497 77.1623 151.365 76.8585 151.555 76.6307L152.87 75.1727C153.396 74.6412 153.908 74.4893 155.281 74.4893H157.692M157.692 73.654C160.045 73.654 160.688 73.654 160.892 73.5781V73.5629L157.692 71.5126V69.8268C161.871 72.9554 163.815 74.1096 167.015 75.9321C167.731 76.3118 168.315 76.084 168.315 76.5396C168.315 76.7067 167.395 77.2382 167.015 77.2382H166.226C165.963 77.2382 165.904 77.0863 165.773 76.9345C165.188 76.4029 163.946 75.6284 162.193 74.4893H157.692" stroke="#E30613" stroke-width="0.5" stroke-miterlimit="10"/>
<path fill-rule="evenodd" clip-rule="evenodd" d="M157.692 73.654V74.4893H155.281C153.908 74.4893 153.396 74.6412 152.87 75.1727L151.555 76.6307C151.365 76.8585 151.497 77.1623 151.029 77.1623C150.05 77.1623 149.407 77.0104 149.407 76.7826C149.407 76.5396 149.802 76.327 150.255 76.0232C152.14 74.4285 155.53 70.9051 155.53 70.2976C155.53 70.0698 155.208 69.766 154.624 69.3863L152.476 68.0195C151.964 67.6398 151.57 67.5487 151.57 67.412C151.57 67.2753 152.753 66.8652 153.279 66.8652C154.185 66.8652 154.317 66.8652 154.638 67.412C154.697 67.5639 155.15 67.9435 155.544 68.2473C156.333 68.8548 157.049 69.3863 157.692 69.8571V71.5429L156.786 70.9203L155.018 72.8339C154.638 73.2895 154.507 73.4414 154.507 73.5173C154.507 73.6692 154.638 73.7451 157.166 73.7451C157.371 73.7451 157.502 73.6692 157.692 73.6692V73.654ZM160.892 73.5781C160.688 73.654 160.045 73.654 157.692 73.654V74.4893H162.193C163.946 75.6284 165.188 76.4029 165.773 76.9345C165.904 77.0863 165.963 77.2382 166.226 77.2382H167.015C167.395 77.2382 168.315 76.7067 168.315 76.5396C168.315 76.084 167.731 76.3118 167.015 75.9321C163.815 74.1096 161.871 72.9554 157.692 69.8268V71.5126L160.892 73.5629V73.5781Z" fill="#E30613"/>
<path d="M157.692 73.654V74.4893M157.692 73.654V73.6692C157.502 73.6692 157.371 73.7451 157.166 73.7451C154.638 73.7451 154.507 73.6692 154.507 73.5173C154.507 73.4414 154.638 73.2895 155.018 72.8339L156.786 70.9203L157.692 71.5429V69.8571C157.049 69.3863 156.333 68.8548 155.544 68.2473C155.15 67.9435 154.697 67.5639 154.638 67.412C154.317 66.8652 154.185 66.8652 153.279 66.8652C152.753 66.8652 151.57 67.2753 151.57 67.412C151.57 67.5487 151.964 67.6398 152.476 68.0195L154.624 69.3863C155.208 69.766 155.53 70.0698 155.53 70.2976C155.53 70.9051 152.14 74.4285 150.255 76.0232C149.802 76.327 149.407 76.5396 149.407 76.7826C149.407 77.0104 150.05 77.1623 151.029 77.1623C151.497 77.1623 151.365 76.8585 151.555 76.6307L152.87 75.1727C153.396 74.6412 153.908 74.4893 155.281 74.4893H157.692M157.692 73.654C160.045 73.654 160.688 73.654 160.892 73.5781V73.5629L157.692 71.5126V69.8268C161.871 72.9554 163.815 74.1096 167.015 75.9321C167.731 76.3118 168.315 76.084 168.315 76.5396C168.315 76.7067 167.395 77.2382 167.015 77.2382H166.226C165.963 77.2382 165.904 77.0863 165.773 76.9345C165.188 76.4029 163.946 75.6284 162.193 74.4893H157.692" stroke="#E30613" stroke-width="0.5" stroke-miterlimit="2.61"/>
<path fill-rule="evenodd" clip-rule="evenodd" d="M162.193 74.4891C163.946 75.6281 165.188 76.4027 165.773 76.9342C165.904 77.0861 165.963 77.238 166.226 77.238H167.015C167.395 77.238 168.315 76.7064 168.315 76.5393C168.315 76.0837 167.731 76.3115 167.015 75.9319C163.8 74.1549 161.857 72.9399 157.692 69.8417V71.4819L160.878 73.5474C160.629 73.6234 159.986 73.6993 157.692 73.6993V74.4587H162.178L162.193 74.4891ZM157.707 69.8569V71.4971L156.786 70.9048L155.018 72.8184C154.638 73.2741 154.507 73.4259 154.507 73.5019C154.507 73.6537 154.638 73.7297 157.166 73.7297H157.692V74.4891H155.281C153.908 74.4891 153.396 74.6409 152.87 75.1725L151.555 76.6305C151.365 76.8583 151.497 77.162 151.029 77.162C150.05 77.162 149.407 77.0102 149.407 76.7823C149.407 76.5393 149.802 76.3267 150.255 76.023C152.14 74.4283 155.53 70.9048 155.53 70.2973C155.53 70.0695 155.208 69.7658 154.624 69.3861L152.476 68.0192C151.964 67.6395 151.57 67.5484 151.57 67.4117C151.57 67.2751 152.753 66.865 153.279 66.865C154.185 66.865 154.317 66.865 154.638 67.4117C154.697 67.5636 155.15 67.9433 155.544 68.247C156.333 68.8393 157.035 69.3861 157.707 69.8721V69.8569Z" fill="#E30613" stroke="#E30613" stroke-width="0.5" stroke-miterlimit="10"/>
<path fill-rule="evenodd" clip-rule="evenodd" d="M162.193 74.4894C163.946 75.6284 165.188 76.403 165.773 76.9345C165.904 77.0864 165.963 77.2383 166.226 77.2383H167.015C167.395 77.2383 168.315 76.7067 168.315 76.5396C168.315 76.084 167.731 76.3118 167.015 75.9321C163.8 74.1552 161.857 72.9402 157.692 69.842V71.4822L160.878 73.5477C160.629 73.6237 159.986 73.6996 157.692 73.6996V74.459H162.178L162.193 74.4894ZM157.707 69.8572C157.049 69.3712 156.333 68.8245 155.544 68.2321C155.15 67.9284 154.697 67.5487 154.638 67.3968C154.302 66.8501 154.185 66.8501 153.279 66.8501C152.753 66.8501 151.57 67.245 151.57 67.3968C151.57 67.5487 151.964 67.6247 152.476 68.0043L154.624 69.3712C155.208 69.7509 155.53 70.0546 155.53 70.2824C155.53 70.8899 152.154 74.3982 150.255 76.0081C149.787 76.3118 149.407 76.5396 149.407 76.7675C149.407 76.9953 150.065 77.1471 151.029 77.1471C151.482 77.1471 151.351 76.8434 151.555 76.6156L152.87 75.1576C153.396 74.626 153.908 74.4742 155.281 74.4742H157.692V73.7148H157.166C154.638 73.7148 154.507 73.6389 154.507 73.487C154.507 73.411 154.638 73.2592 155.018 72.8036L156.786 70.8899L157.707 71.4822V69.842V69.8572Z" fill="#E30613" stroke="#E30613" stroke-width="0.5" stroke-miterlimit="2.61"/>
<path fill-rule="evenodd" clip-rule="evenodd" d="M170.726 69.5989C168.958 68.3839 168.71 68.1561 168.71 68.0042C168.71 67.7764 169.236 67.4727 169.879 67.4727C170.069 67.4727 170.273 67.4727 172.29 68.7788C177.901 72.1352 181.276 73.7299 186.682 75.5675C186.887 74.5804 186.887 74.1247 186.887 73.2894C186.887 71.8314 186.814 70.6164 186.756 69.3863C186.682 68.475 185.981 68.3839 185.981 68.0194C185.981 67.6549 187.282 67.4878 187.866 67.4878C188.246 67.4878 188.714 67.5638 188.714 67.8827C188.714 68.2624 188.261 68.718 188.261 73.745C188.261 75.2638 188.597 75.8865 188.597 76.494C188.597 77.1015 187.296 77.4052 186.829 77.4052C186.361 77.4052 186.376 76.494 185.265 76.1143C176.863 73.0616 175.548 72.4541 173.663 71.2999C173.473 72.3022 173.342 74.8841 172.889 76.494C172.684 77.0255 172.231 77.2533 171.851 77.2533C171.471 77.2533 170.741 77.1015 170.741 76.7977C170.741 76.3421 172.114 75.036 172.114 71.9985C172.114 70.9961 171.72 70.3127 170.741 69.6293L170.726 69.5989Z" fill="#E30613" stroke="#E30613" stroke-width="0.5" stroke-miterlimit="2.61"/>
<path fill-rule="evenodd" clip-rule="evenodd" d="M194.704 68.308V73.0313C194.704 73.8666 194.646 74.7171 194.646 75.3853C194.646 76.2358 194.894 76.3877 195.552 76.3877C196.399 76.3877 197.174 76.3118 197.831 76.1599V76.9193C196.662 77.1471 195.625 77.2989 195.347 77.2989C194.953 77.2989 194.631 77.2989 194.368 77.223L192.863 77.1471C192.279 77.0711 192.016 76.9952 192.016 76.8433C192.016 76.4636 192.732 76.5396 192.863 75.6283C192.936 74.3374 192.995 72.8794 192.995 71.6644C192.995 70.6772 192.79 69.2193 192.6 68.6118C192.483 68.2321 191.563 68.6118 191.563 68.1561C191.563 67.8524 191.694 67.7765 192.6 67.6246L194.5 67.2449C195.216 67.093 195.742 67.093 195.932 67.093C196.063 67.093 196.838 67.093 197.817 67.2449V68.1561C197.291 68.0043 196.779 67.9283 196.443 67.9283C195.859 67.9283 195.07 68.1561 194.69 68.308H194.704ZM197.831 68.1561C199.263 68.6118 201.09 69.5989 201.09 71.5885C201.09 74.4133 199.862 75.7043 197.831 76.1599V76.9193C199.19 76.6155 200.695 76.1599 201.353 75.6283C202.58 74.4893 202.989 73.411 202.989 71.1329C202.989 68.5358 199.921 67.6246 197.846 67.2449V68.1561H197.831Z" fill="#E30613"/>
<path d="M197.831 76.1599C197.174 76.3118 196.399 76.3877 195.552 76.3877C194.894 76.3877 194.646 76.2358 194.646 75.3853C194.646 74.7171 194.704 73.8666 194.704 73.0313V68.308H194.69C195.07 68.1561 195.859 67.9283 196.443 67.9283C196.779 67.9283 197.291 68.0043 197.817 68.1561V67.2449C196.838 67.093 196.063 67.093 195.932 67.093C195.742 67.093 195.216 67.093 194.5 67.2449L192.6 67.6246C191.694 67.7765 191.563 67.8524 191.563 68.1561C191.563 68.6118 192.483 68.2321 192.6 68.6118C192.79 69.2193 192.995 70.6772 192.995 71.6644C192.995 72.8794 192.936 74.3374 192.863 75.6283C192.732 76.5396 192.016 76.4636 192.016 76.8433C192.016 76.9952 192.279 77.0711 192.863 77.1471L194.368 77.223C194.631 77.2989 194.953 77.2989 195.347 77.2989C195.625 77.2989 196.662 77.1471 197.831 76.9193M197.831 76.1599V76.9193M197.831 76.1599C199.862 75.7043 201.09 74.4133 201.09 71.5885C201.09 69.5989 199.263 68.6118 197.831 68.1561H197.846V67.2449C199.921 67.6246 202.989 68.5358 202.989 71.1329C202.989 73.411 202.58 74.4893 201.353 75.6283C200.695 76.1599 199.19 76.6155 197.831 76.9193" stroke="#E30613" stroke-width="0.5" stroke-miterlimit="10"/>
<path fill-rule="evenodd" clip-rule="evenodd" d="M194.704 68.308V73.0313C194.704 73.8666 194.646 74.7171 194.646 75.3853C194.646 76.2358 194.894 76.3877 195.552 76.3877C196.399 76.3877 197.174 76.3118 197.831 76.1599V76.9193C196.662 77.1471 195.625 77.2989 195.347 77.2989C194.953 77.2989 194.631 77.2989 194.368 77.223L192.863 77.1471C192.279 77.0711 192.016 76.9952 192.016 76.8433C192.016 76.4636 192.732 76.5396 192.863 75.6283C192.936 74.3374 192.995 72.8794 192.995 71.6644C192.995 70.6772 192.79 69.2193 192.6 68.6118C192.483 68.2321 191.563 68.6118 191.563 68.1561C191.563 67.8524 191.694 67.7765 192.6 67.6246L194.5 67.2449C195.216 67.093 195.742 67.093 195.932 67.093C196.063 67.093 196.838 67.093 197.817 67.2449V68.1561C197.291 68.0043 196.779 67.9283 196.443 67.9283C195.859 67.9283 195.07 68.1561 194.69 68.308H194.704ZM197.831 68.1561C199.263 68.6118 201.09 69.5989 201.09 71.5885C201.09 74.4133 199.862 75.7043 197.831 76.1599V76.9193C199.19 76.6155 200.695 76.1599 201.353 75.6283C202.58 74.4893 202.989 73.411 202.989 71.1329C202.989 68.5358 199.921 67.6246 197.846 67.2449V68.1561H197.831Z" fill="#E30613"/>
<path d="M197.831 76.1599C197.174 76.3118 196.399 76.3877 195.552 76.3877C194.894 76.3877 194.646 76.2358 194.646 75.3853C194.646 74.7171 194.704 73.8666 194.704 73.0313V68.308H194.69C195.07 68.1561 195.859 67.9283 196.443 67.9283C196.779 67.9283 197.291 68.0043 197.817 68.1561V67.2449C196.838 67.093 196.063 67.093 195.932 67.093C195.742 67.093 195.216 67.093 194.5 67.2449L192.6 67.6246C191.694 67.7765 191.563 67.8524 191.563 68.1561C191.563 68.6118 192.483 68.2321 192.6 68.6118C192.79 69.2193 192.995 70.6772 192.995 71.6644C192.995 72.8794 192.936 74.3374 192.863 75.6283C192.732 76.5396 192.016 76.4636 192.016 76.8433C192.016 76.9952 192.279 77.0711 192.863 77.1471L194.368 77.223C194.631 77.2989 194.953 77.2989 195.347 77.2989C195.625 77.2989 196.662 77.1471 197.831 76.9193M197.831 76.1599V76.9193M197.831 76.1599C199.862 75.7043 201.09 74.4133 201.09 71.5885C201.09 69.5989 199.263 68.6118 197.831 68.1561H197.846V67.2449C199.921 67.6246 202.989 68.5358 202.989 71.1329C202.989 73.411 202.58 74.4893 201.353 75.6283C200.695 76.1599 199.19 76.6155 197.831 76.9193" stroke="#E30613" stroke-width="0.5" stroke-miterlimit="2.61"/>
<path fill-rule="evenodd" clip-rule="evenodd" d="M197.861 76.9038C199.234 76.6 200.754 76.1596 201.338 75.628C202.566 74.489 202.975 73.4107 202.975 71.1326C202.975 68.5659 199.95 67.6243 197.861 67.2902V68.2014C199.278 68.6418 201.075 69.6594 201.075 71.6034C201.075 74.489 199.819 75.7343 197.861 76.19V76.919V76.9038ZM195.347 77.3138C194.953 77.3138 194.631 77.3138 194.368 77.2379L192.863 77.162C192.279 77.086 192.016 77.0101 192.016 76.8582C192.016 76.4785 192.732 76.5545 192.863 75.6432C192.936 74.3523 192.995 72.8943 192.995 71.6793C192.995 70.6921 192.79 69.2341 192.6 68.6266C192.483 68.247 191.563 68.6266 191.563 68.171C191.563 67.8673 191.694 67.7913 192.6 67.6395L194.5 67.2598C195.216 67.1079 195.742 67.1079 195.932 67.1079C196.034 67.1079 196.838 67.1383 197.846 67.3053V68.2166C197.261 68.0343 196.735 67.9584 196.443 67.9584C195.859 67.9584 195.07 68.1862 194.69 68.3381V73.0614C194.69 73.8967 194.631 74.7472 194.631 75.4154C194.631 76.2659 194.88 76.4178 195.537 76.4178C196.385 76.4178 197.159 76.357 197.846 76.19V76.919C196.662 77.1771 195.581 77.329 195.333 77.329L195.347 77.3138Z" fill="#E30613" stroke="#E30613" stroke-width="0.5" stroke-miterlimit="10"/>
<path fill-rule="evenodd" clip-rule="evenodd" d="M197.861 76.9041C199.234 76.6003 200.754 76.1599 201.338 75.6283C202.566 74.4893 202.975 73.411 202.975 71.1329C202.975 68.5662 199.95 67.6246 197.861 67.2905V68.2017C199.278 68.6421 201.075 69.6597 201.075 71.6037C201.075 74.4893 199.819 75.7346 197.861 76.1903V76.9193V76.9041ZM195.347 77.3141C195.596 77.3141 196.662 77.1623 197.861 76.9041V76.1751C197.174 76.3421 196.399 76.4029 195.552 76.4029C194.894 76.4029 194.646 76.251 194.646 75.4005C194.646 74.7171 194.704 73.8818 194.704 73.0465V68.3232C195.099 68.1713 195.873 67.9435 196.458 67.9435C196.75 67.9435 197.261 68.0194 197.861 68.2017V67.2905C196.838 67.1234 196.049 67.093 195.946 67.093C195.742 67.093 195.23 67.093 194.514 67.2449L192.615 67.6246C191.709 67.7765 191.577 67.8524 191.577 68.1561C191.577 68.6118 192.498 68.2321 192.615 68.6118C192.819 69.2193 193.009 70.6772 193.009 71.6644C193.009 72.8794 192.936 74.3374 192.878 75.6283C192.746 76.5396 192.03 76.4636 192.03 76.8433C192.03 76.9952 192.293 77.0711 192.878 77.1471L194.383 77.223C194.646 77.2989 194.967 77.2989 195.362 77.2989L195.347 77.3141Z" fill="#E30613"/>
<path d="M197.861 76.9041C199.234 76.6003 200.754 76.1599 201.338 75.6283C202.566 74.4893 202.975 73.411 202.975 71.1329C202.975 68.5662 199.95 67.6246 197.861 67.2905M197.861 76.9041V76.9193V76.1903C199.819 75.7346 201.075 74.4893 201.075 71.6037C201.075 69.6597 199.278 68.6421 197.861 68.2017M197.861 76.9041C196.662 77.1623 195.596 77.3141 195.347 77.3141L195.362 77.2989C194.967 77.2989 194.646 77.2989 194.383 77.223L192.878 77.1471C192.293 77.0711 192.03 76.9952 192.03 76.8433C192.03 76.4636 192.746 76.5396 192.878 75.6283C192.936 74.3374 193.009 72.8794 193.009 71.6644C193.009 70.6772 192.819 69.2193 192.615 68.6118C192.498 68.2321 191.577 68.6118 191.577 68.1561C191.577 67.8524 191.709 67.7765 192.615 67.6246L194.514 67.2449C195.23 67.093 195.742 67.093 195.946 67.093C196.049 67.093 196.838 67.1234 197.861 67.2905M197.861 76.9041V76.1751C197.174 76.3421 196.399 76.4029 195.552 76.4029C194.894 76.4029 194.646 76.251 194.646 75.4005C194.646 74.7171 194.704 73.8818 194.704 73.0465V68.3232C195.099 68.1713 195.873 67.9435 196.458 67.9435C196.75 67.9435 197.261 68.0194 197.861 68.2017M197.861 67.2905V68.2017" stroke="#E30613" stroke-width="0.5" stroke-miterlimit="2.61"/>
<path fill-rule="evenodd" clip-rule="evenodd" d="M62.1442 71.5885C60.9753 74.1096 59.8648 76.0991 59.6018 76.9344C59.4702 77.3141 59.3387 77.39 58.3597 77.39C57.9068 77.39 57.1323 76.9344 57.1323 76.7825C57.1323 76.6307 57.1908 76.4788 57.7168 76.1599C58.8858 75.3245 60.3908 72.6516 60.3908 71.5125C60.3908 69.2192 57.5853 68.1561 57.5853 67.6245C57.5853 67.3967 58.5643 67.3208 59.0757 67.3208C59.5433 67.3208 60.1278 67.7005 62.9187 70.2975C64.6137 71.8922 69.0996 74.9449 71.379 74.9449C74.243 74.9449 79.7809 72.5908 81.023 69.2192C81.2129 68.6877 81.4175 68.4447 81.6074 68.4447C81.8705 68.4447 82.7764 68.5965 82.7764 68.9003C82.7764 69.2952 82.0604 70.8139 82.0604 73.2591C82.0604 74.8537 83.5508 75.9169 83.5508 76.3877C83.5508 76.5395 82.3819 76.9192 81.9873 76.9192C81.5344 76.9192 81.3444 76.5395 81.2714 75.932C81.0814 74.8689 80.6138 72.9553 80.4239 72.4997L78.7873 73.4109C76.3763 74.793 73.5124 75.7042 71.1014 75.7042C69.2165 75.7042 67.5215 75.2486 64.716 73.335L62.115 71.5885H62.1442Z" fill="#E30613" stroke="#E30613" stroke-width="0.5" stroke-miterlimit="2.61"/>
<path fill-rule="evenodd" clip-rule="evenodd" d="M95.2403 73.654V74.4893H92.7563C91.4558 74.4893 90.9298 74.6412 90.4184 75.1727L89.1033 76.6307C88.9133 76.8585 89.0448 77.1623 88.5919 77.1623C87.6129 77.1623 86.9553 77.0104 86.9553 76.7826C86.9553 76.5396 87.3498 76.327 87.8028 76.0232C89.6878 74.4285 93.0778 70.9051 93.0778 70.2976C93.0778 70.0698 92.7563 69.766 92.1572 69.3863L90.0092 68.0195C89.4832 67.6398 89.0887 67.5487 89.0887 67.412C89.0887 67.2753 90.2576 66.8652 90.7252 66.8652C91.7042 66.8652 91.8357 66.8652 92.1572 67.412C92.2156 67.5639 92.6832 67.9435 93.0778 68.2473C93.8522 68.8548 94.5682 69.3863 95.2257 69.8571V71.5429L94.3052 70.9203L92.5371 72.8339C92.0841 73.2895 92.0257 73.4414 92.0257 73.5173C92.0257 73.6692 92.1572 73.7451 94.6997 73.7451C94.9042 73.7451 95.0211 73.6692 95.2257 73.6692L95.2403 73.654ZM98.4257 73.5781C98.1627 73.654 97.5052 73.654 95.2403 73.654V74.4893H99.7262C101.48 75.6284 102.736 76.4029 103.248 76.9345C103.438 77.0863 103.511 77.2382 103.774 77.2382H104.548C104.943 77.2382 105.849 76.7067 105.849 76.5396C105.849 76.084 105.264 76.3118 104.548 75.9321C101.363 74.1096 99.4048 72.9554 95.2403 69.8268V71.5126L98.4257 73.5629V73.5781Z" fill="#E30613"/>
<path d="M95.2403 73.654V74.4893M95.2403 73.654L95.2257 73.6692C95.0211 73.6692 94.9042 73.7451 94.6997 73.7451C92.1572 73.7451 92.0257 73.6692 92.0257 73.5173C92.0257 73.4414 92.0841 73.2895 92.5371 72.8339L94.3052 70.9203L95.2257 71.5429V69.8571C94.5682 69.3863 93.8522 68.8548 93.0778 68.2473C92.6832 67.9435 92.2156 67.5639 92.1572 67.412C91.8357 66.8652 91.7042 66.8652 90.7252 66.8652C90.2576 66.8652 89.0887 67.2753 89.0887 67.412C89.0887 67.5487 89.4832 67.6398 90.0092 68.0195L92.1572 69.3863C92.7563 69.766 93.0778 70.0698 93.0778 70.2976C93.0778 70.9051 89.6878 74.4285 87.8028 76.0232C87.3498 76.327 86.9553 76.5396 86.9553 76.7826C86.9553 77.0104 87.6129 77.1623 88.5919 77.1623C89.0448 77.1623 88.9133 76.8585 89.1033 76.6307L90.4184 75.1727C90.9298 74.6412 91.4558 74.4893 92.7563 74.4893H95.2403M95.2403 73.654C97.5052 73.654 98.1627 73.654 98.4257 73.5781V73.5629L95.2403 71.5126V69.8268C99.4048 72.9554 101.363 74.1096 104.548 75.9321C105.264 76.3118 105.849 76.084 105.849 76.5396C105.849 76.7067 104.943 77.2382 104.548 77.2382H103.774C103.511 77.2382 103.438 77.0863 103.248 76.9345C102.736 76.4029 101.48 75.6284 99.7262 74.4893H95.2403" stroke="#E30613" stroke-width="0.5" stroke-miterlimit="10"/>
<path fill-rule="evenodd" clip-rule="evenodd" d="M95.2403 73.654V74.4893H92.7563C91.4558 74.4893 90.9298 74.6412 90.4184 75.1727L89.1033 76.6307C88.9133 76.8585 89.0448 77.1623 88.5919 77.1623C87.6129 77.1623 86.9553 77.0104 86.9553 76.7826C86.9553 76.5396 87.3498 76.327 87.8028 76.0232C89.6878 74.4285 93.0778 70.9051 93.0778 70.2976C93.0778 70.0698 92.7563 69.766 92.1572 69.3863L90.0092 68.0195C89.4832 67.6398 89.0887 67.5487 89.0887 67.412C89.0887 67.2753 90.2576 66.8652 90.7252 66.8652C91.7042 66.8652 91.8357 66.8652 92.1572 67.412C92.2156 67.5639 92.6832 67.9435 93.0778 68.2473C93.8522 68.8548 94.5682 69.3863 95.2257 69.8571V71.5429L94.3052 70.9203L92.5371 72.8339C92.0841 73.2895 92.0257 73.4414 92.0257 73.5173C92.0257 73.6692 92.1572 73.7451 94.6997 73.7451C94.9042 73.7451 95.0211 73.6692 95.2257 73.6692L95.2403 73.654ZM98.4257 73.5781C98.1627 73.654 97.5052 73.654 95.2403 73.654V74.4893H99.7262C101.48 75.6284 102.736 76.4029 103.248 76.9345C103.438 77.0863 103.511 77.2382 103.774 77.2382H104.548C104.943 77.2382 105.849 76.7067 105.849 76.5396C105.849 76.084 105.264 76.3118 104.548 75.9321C101.363 74.1096 99.4048 72.9554 95.2403 69.8268V71.5126L98.4257 73.5629V73.5781Z" fill="#E30613"/>
<path d="M95.2403 73.654V74.4893M95.2403 73.654L95.2257 73.6692C95.0211 73.6692 94.9042 73.7451 94.6997 73.7451C92.1572 73.7451 92.0257 73.6692 92.0257 73.5173C92.0257 73.4414 92.0841 73.2895 92.5371 72.8339L94.3052 70.9203L95.2257 71.5429V69.8571C94.5682 69.3863 93.8522 68.8548 93.0778 68.2473C92.6832 67.9435 92.2156 67.5639 92.1572 67.412C91.8357 66.8652 91.7042 66.8652 90.7252 66.8652C90.2576 66.8652 89.0887 67.2753 89.0887 67.412C89.0887 67.5487 89.4832 67.6398 90.0092 68.0195L92.1572 69.3863C92.7563 69.766 93.0778 70.0698 93.0778 70.2976C93.0778 70.9051 89.6878 74.4285 87.8028 76.0232C87.3498 76.327 86.9553 76.5396 86.9553 76.7826C86.9553 77.0104 87.6129 77.1623 88.5919 77.1623C89.0448 77.1623 88.9133 76.8585 89.1033 76.6307L90.4184 75.1727C90.9298 74.6412 91.4558 74.4893 92.7563 74.4893H95.2403M95.2403 73.654C97.5052 73.654 98.1627 73.654 98.4257 73.5781V73.5629L95.2403 71.5126V69.8268C99.4048 72.9554 101.363 74.1096 104.548 75.9321C105.264 76.3118 105.849 76.084 105.849 76.5396C105.849 76.7067 104.943 77.2382 104.548 77.2382H103.774C103.511 77.2382 103.438 77.0863 103.248 76.9345C102.736 76.4029 101.48 75.6284 99.7262 74.4893H95.2403" stroke="#E30613" stroke-width="0.5" stroke-miterlimit="2.61"/>
<path fill-rule="evenodd" clip-rule="evenodd" d="M99.7263 74.4893C101.48 75.6284 102.736 76.4029 103.248 76.9345C103.438 77.0863 103.511 77.2382 103.774 77.2382H104.548C104.943 77.2382 105.849 76.7067 105.849 76.5396C105.849 76.084 105.264 76.3118 104.548 75.9321C101.348 74.1552 99.361 72.9554 95.2258 69.8571V71.4822L98.4112 73.5629C98.1628 73.6388 97.5344 73.7147 95.2258 73.7147V74.4741H99.7263V74.4893ZM95.2258 69.8723V71.4974L94.3198 70.9051L92.5518 72.8187C92.0988 73.2743 92.0403 73.4262 92.0403 73.5021C92.0403 73.654 92.1718 73.7299 94.7143 73.7299H95.2404V74.4893H92.7709C91.4705 74.4893 90.9444 74.6412 90.433 75.1727L89.1179 76.6307C88.928 76.8585 89.0595 77.1623 88.6065 77.1623C87.6275 77.1623 86.97 77.0104 86.97 76.7826C86.97 76.5396 87.3645 76.327 87.8175 76.0232C89.7024 74.4285 93.0924 70.9051 93.0924 70.2976C93.0924 70.0698 92.7709 69.766 92.1718 69.3863L90.0239 68.0195C89.4978 67.6398 89.1033 67.5487 89.1033 67.412C89.1033 67.2753 90.2723 66.8652 90.7399 66.8652C91.7189 66.8652 91.8504 66.8652 92.1718 67.412C92.2303 67.5639 92.6979 67.9435 93.0924 68.2473C93.8668 68.8396 94.5828 69.3863 95.2404 69.8723H95.2258Z" fill="#E30613" stroke="#E30613" stroke-width="0.5" stroke-miterlimit="10"/>
<path fill-rule="evenodd" clip-rule="evenodd" d="M99.7262 74.4893C101.48 75.6284 102.736 76.4029 103.248 76.9345C103.438 77.0863 103.511 77.2382 103.774 77.2382H104.548C104.943 77.2382 105.849 76.7067 105.849 76.5396C105.849 76.084 105.264 76.3118 104.548 75.9321C101.348 74.1552 99.3609 72.9554 95.2257 69.8571V71.4822L98.4111 73.5629C98.1627 73.6388 97.5344 73.7147 95.2257 73.7147V74.4741H99.7262V74.4893ZM95.2257 69.8723C94.5682 69.3863 93.8522 68.8396 93.0778 68.2473C92.6832 67.9435 92.2303 67.5639 92.1572 67.412C91.8357 66.8652 91.6896 66.8652 90.7252 66.8652C90.2722 66.8652 89.0887 67.2601 89.0887 67.412C89.0887 67.5639 89.4832 67.6398 90.0092 68.0195L92.1572 69.3863C92.7417 69.766 93.0778 70.0698 93.0778 70.2976C93.0778 70.9051 89.6878 74.4134 87.8028 76.0232C87.3498 76.327 86.9553 76.5548 86.9553 76.7826C86.9553 77.0104 87.6129 77.1623 88.5919 77.1623C89.0448 77.1623 88.9133 76.8585 89.1033 76.6307L90.4184 75.1727C90.9444 74.6412 91.4558 74.4893 92.7563 74.4893H95.2257V73.7299H94.6997C92.1572 73.7299 92.0257 73.654 92.0257 73.5021C92.0257 73.4262 92.0841 73.2743 92.5371 72.8187L94.3052 70.9051L95.2111 71.4974V69.8723H95.2257Z" fill="#E30613" stroke="#E30613" stroke-width="0.5" stroke-miterlimit="2.61"/>
<path fill-rule="evenodd" clip-rule="evenodd" d="M108.976 69.6748C108.976 69.3103 108.976 69.1433 108.786 68.9914C108.45 68.7028 108.318 68.5358 108.318 68.3839C108.318 68.0802 109.823 67.3208 110.276 67.3208C110.656 67.3208 111.314 67.5486 111.314 67.7005C111.314 68.0042 111.051 68.232 111.051 68.6117C110.919 69.5989 110.788 71.8163 110.788 75.7802C110.788 77.147 110.525 77.4508 109.94 77.4508C109.166 77.4508 109.034 77.223 109.034 71.9681C109.034 70.8139 108.976 70.2064 108.976 69.6748Z" fill="#E30613" stroke="#E30613" stroke-width="0.5" stroke-miterlimit="2.61"/>
<path fill-rule="evenodd" clip-rule="evenodd" d="M116.72 69.5989C114.967 68.3839 114.704 68.1561 114.704 68.0042C114.704 67.7764 115.215 67.4727 115.873 67.4727C116.063 67.4727 116.252 67.4727 118.284 68.7788C123.88 72.1352 127.27 73.7299 132.749 75.5675C132.881 74.5804 132.939 74.1247 132.939 73.2894C132.939 71.8314 132.881 70.6164 132.749 69.3863C132.749 68.475 131.96 68.3839 131.96 68.0194C131.96 67.6549 133.261 67.4878 133.845 67.4878C134.24 67.4878 134.751 67.5638 134.751 67.8827C134.751 68.2624 134.298 68.718 134.298 73.745C134.298 75.2638 134.561 75.8865 134.561 76.494C134.561 77.1015 133.319 77.4052 132.866 77.4052C132.413 77.4052 132.34 76.494 131.303 76.1143C122.901 73.0616 121.527 72.4541 119.642 71.2999C119.453 72.3022 119.379 74.8841 118.853 76.494C118.649 77.0255 118.269 77.2533 117.816 77.2533C117.495 77.2533 116.705 77.1015 116.705 76.7977C116.705 76.3421 118.137 75.036 118.137 71.9985C118.137 70.9961 117.684 70.3127 116.705 69.6293L116.72 69.5989Z" fill="#E30613" stroke="#E30613" stroke-width="0.5" stroke-miterlimit="2.61"/>
<path fill-rule="evenodd" clip-rule="evenodd" d="M145.842 76.0081C146.295 76.0081 146.821 75.7043 147.215 75.7043C147.478 75.7043 147.668 75.7954 147.668 75.9321C147.668 76.0081 147.274 77.1471 146.821 77.1471C146.499 77.1471 146.368 77.0712 145.842 76.9193H142.978C140.567 76.9193 140.172 76.9193 139.982 76.9952C139.719 77.0712 139.456 77.1471 139.135 77.1471C138.74 77.1471 138.156 76.3877 138.156 76.2359C138.156 76.084 138.609 75.9321 138.682 75.4765C138.755 74.7931 138.755 73.3351 138.755 71.5885C138.755 68.3081 137.907 67.9284 137.907 67.6246C137.907 67.3968 139.471 66.7134 139.865 66.7134C140.187 66.7134 140.786 66.8501 140.786 67.0931C140.786 67.3361 140.581 67.6246 140.581 67.9284C140.581 68.9155 140.392 69.9179 140.392 70.8292C140.392 71.4367 140.465 71.8923 140.465 72.6516C140.465 74.1096 140.143 75.6284 140.143 76.084C140.143 76.1599 140.26 76.1599 140.465 76.1599H141.049L145.871 76.0081H145.842Z" fill="#E30613" stroke="#E30613" stroke-width="0.5" stroke-miterlimit="2.61"/>
<path fill-rule="evenodd" clip-rule="evenodd" d="M157.692 73.654V74.4893H155.281C153.908 74.4893 153.396 74.6412 152.87 75.1727L151.555 76.6307C151.365 76.8585 151.497 77.1623 151.029 77.1623C150.05 77.1623 149.407 77.0104 149.407 76.7826C149.407 76.5396 149.802 76.327 150.255 76.0232C152.14 74.4285 155.53 70.9051 155.53 70.2976C155.53 70.0698 155.208 69.766 154.624 69.3863L152.476 68.0195C151.964 67.6398 151.57 67.5487 151.57 67.412C151.57 67.2753 152.753 66.8652 153.279 66.8652C154.185 66.8652 154.317 66.8652 154.638 67.412C154.697 67.5639 155.15 67.9435 155.544 68.2473C156.333 68.8548 157.049 69.3863 157.692 69.8571V71.5429L156.786 70.9203L155.018 72.8339C154.638 73.2895 154.507 73.4414 154.507 73.5173C154.507 73.6692 154.638 73.7451 157.166 73.7451C157.371 73.7451 157.502 73.6692 157.692 73.6692V73.654ZM160.892 73.5781C160.688 73.654 160.045 73.654 157.692 73.654V74.4893H162.193C163.946 75.6284 165.188 76.4029 165.773 76.9345C165.904 77.0863 165.963 77.2382 166.226 77.2382H167.015C167.395 77.2382 168.315 76.7067 168.315 76.5396C168.315 76.084 167.731 76.3118 167.015 75.9321C163.815 74.1096 161.871 72.9554 157.692 69.8268V71.5126L160.892 73.5629V73.5781Z" fill="#E30613"/>
<path d="M157.692 73.654V74.4893M157.692 73.654V73.6692C157.502 73.6692 157.371 73.7451 157.166 73.7451C154.638 73.7451 154.507 73.6692 154.507 73.5173C154.507 73.4414 154.638 73.2895 155.018 72.8339L156.786 70.9203L157.692 71.5429V69.8571C157.049 69.3863 156.333 68.8548 155.544 68.2473C155.15 67.9435 154.697 67.5639 154.638 67.412C154.317 66.8652 154.185 66.8652 153.279 66.8652C152.753 66.8652 151.57 67.2753 151.57 67.412C151.57 67.5487 151.964 67.6398 152.476 68.0195L154.624 69.3863C155.208 69.766 155.53 70.0698 155.53 70.2976C155.53 70.9051 152.14 74.4285 150.255 76.0232C149.802 76.327 149.407 76.5396 149.407 76.7826C149.407 77.0104 150.05 77.1623 151.029 77.1623C151.497 77.1623 151.365 76.8585 151.555 76.6307L152.87 75.1727C153.396 74.6412 153.908 74.4893 155.281 74.4893H157.692M157.692 73.654C160.045 73.654 160.688 73.654 160.892 73.5781V73.5629L157.692 71.5126V69.8268C161.871 72.9554 163.815 74.1096 167.015 75.9321C167.731 76.3118 168.315 76.084 168.315 76.5396C168.315 76.7067 167.395 77.2382 167.015 77.2382H166.226C165.963 77.2382 165.904 77.0863 165.773 76.9345C165.188 76.4029 163.946 75.6284 162.193 74.4893H157.692" stroke="#E30613" stroke-width="0.5" stroke-miterlimit="10"/>
<path fill-rule="evenodd" clip-rule="evenodd" d="M157.692 73.654V74.4893H155.281C153.908 74.4893 153.396 74.6412 152.87 75.1727L151.555 76.6307C151.365 76.8585 151.497 77.1623 151.029 77.1623C150.05 77.1623 149.407 77.0104 149.407 76.7826C149.407 76.5396 149.802 76.327 150.255 76.0232C152.14 74.4285 155.53 70.9051 155.53 70.2976C155.53 70.0698 155.208 69.766 154.624 69.3863L152.476 68.0195C151.964 67.6398 151.57 67.5487 151.57 67.412C151.57 67.2753 152.753 66.8652 153.279 66.8652C154.185 66.8652 154.317 66.8652 154.638 67.412C154.697 67.5639 155.15 67.9435 155.544 68.2473C156.333 68.8548 157.049 69.3863 157.692 69.8571V71.5429L156.786 70.9203L155.018 72.8339C154.638 73.2895 154.507 73.4414 154.507 73.5173C154.507 73.6692 154.638 73.7451 157.166 73.7451C157.371 73.7451 157.502 73.6692 157.692 73.6692V73.654ZM160.892 73.5781C160.688 73.654 160.045 73.654 157.692 73.654V74.4893H162.193C163.946 75.6284 165.188 76.4029 165.773 76.9345C165.904 77.0863 165.963 77.2382 166.226 77.2382H167.015C167.395 77.2382 168.315 76.7067 168.315 76.5396C168.315 76.084 167.731 76.3118 167.015 75.9321C163.815 74.1096 161.871 72.9554 157.692 69.8268V71.5126L160.892 73.5629V73.5781Z" fill="#E30613"/>
<path d="M157.692 73.654V74.4893M157.692 73.654V73.6692C157.502 73.6692 157.371 73.7451 157.166 73.7451C154.638 73.7451 154.507 73.6692 154.507 73.5173C154.507 73.4414 154.638 73.2895 155.018 72.8339L156.786 70.9203L157.692 71.5429V69.8571C157.049 69.3863 156.333 68.8548 155.544 68.2473C155.15 67.9435 154.697 67.5639 154.638 67.412C154.317 66.8652 154.185 66.8652 153.279 66.8652C152.753 66.8652 151.57 67.2753 151.57 67.412C151.57 67.5487 151.964 67.6398 152.476 68.0195L154.624 69.3863C155.208 69.766 155.53 70.0698 155.53 70.2976C155.53 70.9051 152.14 74.4285 150.255 76.0232C149.802 76.327 149.407 76.5396 149.407 76.7826C149.407 77.0104 150.05 77.1623 151.029 77.1623C151.497 77.1623 151.365 76.8585 151.555 76.6307L152.87 75.1727C153.396 74.6412 153.908 74.4893 155.281 74.4893H157.692M157.692 73.654C160.045 73.654 160.688 73.654 160.892 73.5781V73.5629L157.692 71.5126V69.8268C161.871 72.9554 163.815 74.1096 167.015 75.9321C167.731 76.3118 168.315 76.084 168.315 76.5396C168.315 76.7067 167.395 77.2382 167.015 77.2382H166.226C165.963 77.2382 165.904 77.0863 165.773 76.9345C165.188 76.4029 163.946 75.6284 162.193 74.4893H157.692" stroke="#E30613" stroke-width="0.5" stroke-miterlimit="2.61"/>
<path fill-rule="evenodd" clip-rule="evenodd" d="M162.193 74.4891C163.946 75.6281 165.188 76.4027 165.773 76.9342C165.904 77.0861 165.963 77.238 166.226 77.238H167.015C167.395 77.238 168.315 76.7064 168.315 76.5393C168.315 76.0837 167.731 76.3115 167.015 75.9319C163.8 74.1549 161.857 72.9399 157.692 69.8417V71.4819L160.878 73.5474C160.629 73.6234 159.986 73.6993 157.692 73.6993V74.4587H162.178L162.193 74.4891ZM157.707 69.8569V71.4971L156.786 70.9048L155.018 72.8184C154.638 73.2741 154.507 73.4259 154.507 73.5019C154.507 73.6537 154.638 73.7297 157.166 73.7297H157.692V74.4891H155.281C153.908 74.4891 153.396 74.6409 152.87 75.1725L151.555 76.6305C151.365 76.8583 151.497 77.162 151.029 77.162C150.05 77.162 149.407 77.0102 149.407 76.7823C149.407 76.5393 149.802 76.3267 150.255 76.023C152.14 74.4283 155.53 70.9048 155.53 70.2973C155.53 70.0695 155.208 69.7658 154.624 69.3861L152.476 68.0192C151.964 67.6395 151.57 67.5484 151.57 67.4117C151.57 67.2751 152.753 66.865 153.279 66.865C154.185 66.865 154.317 66.865 154.638 67.4117C154.697 67.5636 155.15 67.9433 155.544 68.247C156.333 68.8393 157.035 69.3861 157.707 69.8721V69.8569Z" fill="#E30613" stroke="#E30613" stroke-width="0.5" stroke-miterlimit="10"/>
<path fill-rule="evenodd" clip-rule="evenodd" d="M162.193 74.4894C163.946 75.6284 165.188 76.403 165.773 76.9345C165.904 77.0864 165.963 77.2383 166.226 77.2383H167.015C167.395 77.2383 168.315 76.7067 168.315 76.5396C168.315 76.084 167.731 76.3118 167.015 75.9321C163.8 74.1552 161.857 72.9402 157.692 69.842V71.4822L160.878 73.5477C160.629 73.6237 159.986 73.6996 157.692 73.6996V74.459H162.178L162.193 74.4894ZM157.707 69.8572C157.049 69.3712 156.333 68.8245 155.544 68.2321C155.15 67.9284 154.697 67.5487 154.638 67.3968C154.302 66.8501 154.185 66.8501 153.279 66.8501C152.753 66.8501 151.57 67.245 151.57 67.3968C151.57 67.5487 151.964 67.6247 152.476 68.0043L154.624 69.3712C155.208 69.7509 155.53 70.0546 155.53 70.2824C155.53 70.8899 152.154 74.3982 150.255 76.0081C149.787 76.3118 149.407 76.5396 149.407 76.7675C149.407 76.9953 150.065 77.1471 151.029 77.1471C151.482 77.1471 151.351 76.8434 151.555 76.6156L152.87 75.1576C153.396 74.626 153.908 74.4742 155.281 74.4742H157.692V73.7148H157.166C154.638 73.7148 154.507 73.6389 154.507 73.487C154.507 73.411 154.638 73.2592 155.018 72.8036L156.786 70.8899L157.707 71.4822V69.842V69.8572Z" fill="#E30613" stroke="#E30613" stroke-width="0.5" stroke-miterlimit="2.61"/>
<path fill-rule="evenodd" clip-rule="evenodd" d="M170.726 69.5989C168.958 68.3839 168.71 68.1561 168.71 68.0042C168.71 67.7764 169.236 67.4727 169.879 67.4727C170.069 67.4727 170.273 67.4727 172.29 68.7788C177.901 72.1352 181.276 73.7299 186.682 75.5675C186.887 74.5804 186.887 74.1247 186.887 73.2894C186.887 71.8314 186.814 70.6164 186.756 69.3863C186.682 68.475 185.981 68.3839 185.981 68.0194C185.981 67.6549 187.282 67.4878 187.866 67.4878C188.246 67.4878 188.714 67.5638 188.714 67.8827C188.714 68.2624 188.261 68.718 188.261 73.745C188.261 75.2638 188.597 75.8865 188.597 76.494C188.597 77.1015 187.296 77.4052 186.829 77.4052C186.361 77.4052 186.376 76.494 185.265 76.1143C176.863 73.0616 175.548 72.4541 173.663 71.2999C173.473 72.3022 173.342 74.8841 172.889 76.494C172.684 77.0255 172.231 77.2533 171.851 77.2533C171.471 77.2533 170.741 77.1015 170.741 76.7977C170.741 76.3421 172.114 75.036 172.114 71.9985C172.114 70.9961 171.72 70.3127 170.741 69.6293L170.726 69.5989Z" fill="#E30613" stroke="#E30613" stroke-width="0.5" stroke-miterlimit="2.61"/>
<path fill-rule="evenodd" clip-rule="evenodd" d="M194.704 68.308V73.0313C194.704 73.8666 194.646 74.7171 194.646 75.3853C194.646 76.2358 194.894 76.3877 195.552 76.3877C196.399 76.3877 197.174 76.3118 197.831 76.1599V76.9193C196.662 77.1471 195.625 77.2989 195.347 77.2989C194.953 77.2989 194.631 77.2989 194.368 77.223L192.863 77.1471C192.279 77.0711 192.016 76.9952 192.016 76.8433C192.016 76.4636 192.732 76.5396 192.863 75.6283C192.936 74.3374 192.995 72.8794 192.995 71.6644C192.995 70.6772 192.79 69.2193 192.6 68.6118C192.483 68.2321 191.563 68.6118 191.563 68.1561C191.563 67.8524 191.694 67.7765 192.6 67.6246L194.5 67.2449C195.216 67.093 195.742 67.093 195.932 67.093C196.063 67.093 196.838 67.093 197.817 67.2449V68.1561C197.291 68.0043 196.779 67.9283 196.443 67.9283C195.859 67.9283 195.07 68.1561 194.69 68.308H194.704ZM197.831 68.1561C199.263 68.6118 201.09 69.5989 201.09 71.5885C201.09 74.4133 199.862 75.7043 197.831 76.1599V76.9193C199.19 76.6155 200.695 76.1599 201.353 75.6283C202.58 74.4893 202.989 73.411 202.989 71.1329C202.989 68.5358 199.921 67.6246 197.846 67.2449V68.1561H197.831Z" fill="#E30613"/>
<path d="M197.831 76.1599C197.174 76.3118 196.399 76.3877 195.552 76.3877C194.894 76.3877 194.646 76.2358 194.646 75.3853C194.646 74.7171 194.704 73.8666 194.704 73.0313V68.308H194.69C195.07 68.1561 195.859 67.9283 196.443 67.9283C196.779 67.9283 197.291 68.0043 197.817 68.1561V67.2449C196.838 67.093 196.063 67.093 195.932 67.093C195.742 67.093 195.216 67.093 194.5 67.2449L192.6 67.6246C191.694 67.7765 191.563 67.8524 191.563 68.1561C191.563 68.6118 192.483 68.2321 192.6 68.6118C192.79 69.2193 192.995 70.6772 192.995 71.6644C192.995 72.8794 192.936 74.3374 192.863 75.6283C192.732 76.5396 192.016 76.4636 192.016 76.8433C192.016 76.9952 192.279 77.0711 192.863 77.1471L194.368 77.223C194.631 77.2989 194.953 77.2989 195.347 77.2989C195.625 77.2989 196.662 77.1471 197.831 76.9193M197.831 76.1599V76.9193M197.831 76.1599C199.862 75.7043 201.09 74.4133 201.09 71.5885C201.09 69.5989 199.263 68.6118 197.831 68.1561H197.846V67.2449C199.921 67.6246 202.989 68.5358 202.989 71.1329C202.989 73.411 202.58 74.4893 201.353 75.6283C200.695 76.1599 199.19 76.6155 197.831 76.9193" stroke="#E30613" stroke-width="0.5" stroke-miterlimit="10"/>
<path fill-rule="evenodd" clip-rule="evenodd" d="M194.704 68.308V73.0313C194.704 73.8666 194.646 74.7171 194.646 75.3853C194.646 76.2358 194.894 76.3877 195.552 76.3877C196.399 76.3877 197.174 76.3118 197.831 76.1599V76.9193C196.662 77.1471 195.625 77.2989 195.347 77.2989C194.953 77.2989 194.631 77.2989 194.368 77.223L192.863 77.1471C192.279 77.0711 192.016 76.9952 192.016 76.8433C192.016 76.4636 192.732 76.5396 192.863 75.6283C192.936 74.3374 192.995 72.8794 192.995 71.6644C192.995 70.6772 192.79 69.2193 192.6 68.6118C192.483 68.2321 191.563 68.6118 191.563 68.1561C191.563 67.8524 191.694 67.7765 192.6 67.6246L194.5 67.2449C195.216 67.093 195.742 67.093 195.932 67.093C196.063 67.093 196.838 67.093 197.817 67.2449V68.1561C197.291 68.0043 196.779 67.9283 196.443 67.9283C195.859 67.9283 195.07 68.1561 194.69 68.308H194.704ZM197.831 68.1561C199.263 68.6118 201.09 69.5989 201.09 71.5885C201.09 74.4133 199.862 75.7043 197.831 76.1599V76.9193C199.19 76.6155 200.695 76.1599 201.353 75.6283C202.58 74.4893 202.989 73.411 202.989 71.1329C202.989 68.5358 199.921 67.6246 197.846 67.2449V68.1561H197.831Z" fill="#E30613"/>
<path d="M197.831 76.1599C197.174 76.3118 196.399 76.3877 195.552 76.3877C194.894 76.3877 194.646 76.2358 194.646 75.3853C194.646 74.7171 194.704 73.8666 194.704 73.0313V68.308H194.69C195.07 68.1561 195.859 67.9283 196.443 67.9283C196.779 67.9283 197.291 68.0043 197.817 68.1561V67.2449C196.838 67.093 196.063 67.093 195.932 67.093C195.742 67.093 195.216 67.093 194.5 67.2449L192.6 67.6246C191.694 67.7765 191.563 67.8524 191.563 68.1561C191.563 68.6118 192.483 68.2321 192.6 68.6118C192.79 69.2193 192.995 70.6772 192.995 71.6644C192.995 72.8794 192.936 74.3374 192.863 75.6283C192.732 76.5396 192.016 76.4636 192.016 76.8433C192.016 76.9952 192.279 77.0711 192.863 77.1471L194.368 77.223C194.631 77.2989 194.953 77.2989 195.347 77.2989C195.625 77.2989 196.662 77.1471 197.831 76.9193M197.831 76.1599V76.9193M197.831 76.1599C199.862 75.7043 201.09 74.4133 201.09 71.5885C201.09 69.5989 199.263 68.6118 197.831 68.1561H197.846V67.2449C199.921 67.6246 202.989 68.5358 202.989 71.1329C202.989 73.411 202.58 74.4893 201.353 75.6283C200.695 76.1599 199.19 76.6155 197.831 76.9193" stroke="#E30613" stroke-width="0.5" stroke-miterlimit="2.61"/>
<path fill-rule="evenodd" clip-rule="evenodd" d="M197.861 76.9038C199.234 76.6 200.754 76.1596 201.338 75.628C202.566 74.489 202.975 73.4107 202.975 71.1326C202.975 68.5659 199.95 67.6243 197.861 67.2902V68.2014C199.278 68.6418 201.075 69.6594 201.075 71.6034C201.075 74.489 199.819 75.7343 197.861 76.19V76.919V76.9038ZM195.347 77.3138C194.953 77.3138 194.631 77.3138 194.368 77.2379L192.863 77.162C192.279 77.086 192.016 77.0101 192.016 76.8582C192.016 76.4785 192.732 76.5545 192.863 75.6432C192.936 74.3523 192.995 72.8943 192.995 71.6793C192.995 70.6921 192.79 69.2341 192.6 68.6266C192.483 68.247 191.563 68.6266 191.563 68.171C191.563 67.8673 191.694 67.7913 192.6 67.6395L194.5 67.2598C195.216 67.1079 195.742 67.1079 195.932 67.1079C196.034 67.1079 196.838 67.1383 197.846 67.3053V68.2166C197.261 68.0343 196.735 67.9584 196.443 67.9584C195.859 67.9584 195.07 68.1862 194.69 68.3381V73.0614C194.69 73.8967 194.631 74.7472 194.631 75.4154C194.631 76.2659 194.88 76.4178 195.537 76.4178C196.385 76.4178 197.159 76.357 197.846 76.19V76.919C196.662 77.1771 195.581 77.329 195.333 77.329L195.347 77.3138Z" fill="#E30613" stroke="#E30613" stroke-width="0.5" stroke-miterlimit="10"/>
<path fill-rule="evenodd" clip-rule="evenodd" d="M197.861 76.9041C199.234 76.6003 200.754 76.1599 201.338 75.6283C202.566 74.4893 202.975 73.411 202.975 71.1329C202.975 68.5662 199.95 67.6246 197.861 67.2905V68.2017C199.278 68.6421 201.075 69.6597 201.075 71.6037C201.075 74.4893 199.819 75.7346 197.861 76.1903V76.9193V76.9041ZM195.347 77.3141C195.596 77.3141 196.662 77.1623 197.861 76.9041V76.1751C197.174 76.3421 196.399 76.4029 195.552 76.4029C194.894 76.4029 194.646 76.251 194.646 75.4005C194.646 74.7171 194.704 73.8818 194.704 73.0465V68.3232C195.099 68.1713 195.873 67.9435 196.458 67.9435C196.75 67.9435 197.261 68.0194 197.861 68.2017V67.2905C196.838 67.1234 196.049 67.093 195.946 67.093C195.742 67.093 195.23 67.093 194.514 67.2449L192.615 67.6246C191.709 67.7765 191.577 67.8524 191.577 68.1561C191.577 68.6118 192.498 68.2321 192.615 68.6118C192.819 69.2193 193.009 70.6772 193.009 71.6644C193.009 72.8794 192.936 74.3374 192.878 75.6283C192.746 76.5396 192.03 76.4636 192.03 76.8433C192.03 76.9952 192.293 77.0711 192.878 77.1471L194.383 77.223C194.646 77.2989 194.967 77.2989 195.362 77.2989L195.347 77.3141Z" fill="#E30613"/>
<path d="M197.861 76.9041C199.234 76.6003 200.754 76.1599 201.338 75.6283C202.566 74.4893 202.975 73.411 202.975 71.1329C202.975 68.5662 199.95 67.6246 197.861 67.2905M197.861 76.9041V76.9193V76.1903C199.819 75.7346 201.075 74.4893 201.075 71.6037C201.075 69.6597 199.278 68.6421 197.861 68.2017M197.861 76.9041C196.662 77.1623 195.596 77.3141 195.347 77.3141L195.362 77.2989C194.967 77.2989 194.646 77.2989 194.383 77.223L192.878 77.1471C192.293 77.0711 192.03 76.9952 192.03 76.8433C192.03 76.4636 192.746 76.5396 192.878 75.6283C192.936 74.3374 193.009 72.8794 193.009 71.6644C193.009 70.6772 192.819 69.2193 192.615 68.6118C192.498 68.2321 191.577 68.6118 191.577 68.1561C191.577 67.8524 191.709 67.7765 192.615 67.6246L194.514 67.2449C195.23 67.093 195.742 67.093 195.946 67.093C196.049 67.093 196.838 67.1234 197.861 67.2905M197.861 76.9041V76.1751C197.174 76.3421 196.399 76.4029 195.552 76.4029C194.894 76.4029 194.646 76.251 194.646 75.4005C194.646 74.7171 194.704 73.8818 194.704 73.0465V68.3232C195.099 68.1713 195.873 67.9435 196.458 67.9435C196.75 67.9435 197.261 68.0194 197.861 68.2017M197.861 67.2905V68.2017" stroke="#E30613" stroke-width="0.5" stroke-miterlimit="2.61"/>
<path fill-rule="evenodd" clip-rule="evenodd" d="M220.232 67.1235C221.664 67.1235 222.511 67.5792 222.511 67.8829C222.511 68.1867 221.532 68.7182 221.079 68.7182C220.685 68.7182 220.422 67.9588 219.253 67.9588C214.182 67.9588 213.335 71.619 213.335 72.6062C213.335 73.8971 215.161 76.1145 217.894 76.1145C220.626 76.1145 222 74.7476 222.657 74.7476C223.052 74.7476 223.242 74.8995 223.242 75.1273C223.242 75.2943 222.19 76.0537 221.094 76.5093C220.378 76.7371 218.624 77.0409 217.178 77.0409C215.22 77.0409 211.581 75.9778 211.581 72.9251C211.581 68.0348 217.251 67.1235 220.246 67.1235H220.232Z" fill="#E30613" stroke="#E30613" stroke-width="0.5" stroke-miterlimit="2.61"/>
<path fill-rule="evenodd" clip-rule="evenodd" d="M228.254 76.1296C228.254 76.7371 227.874 76.9649 227.085 76.9649C226.69 76.9649 226.632 76.813 226.632 76.5093C226.632 75.3702 226.763 74.0641 226.763 72.6972C226.763 71.4822 226.69 69.8724 226.632 69.0371C226.632 68.5055 225.521 68.3536 225.521 68.0499C225.521 67.898 226.179 67.2905 226.953 67.2905C227.596 67.2905 228.97 67.6702 228.97 67.898C228.97 68.0499 228.575 68.4296 228.517 69.0371C228.517 69.8116 228.517 70.7229 228.444 71.5582H235.472V69.9483C235.472 69.113 235.355 68.4296 235.355 68.1258C235.355 67.8221 236.919 67.5943 237.576 67.5943C237.898 67.5943 238.102 67.6702 238.102 67.8221C238.102 68.0499 237.708 68.1258 237.518 68.8852C237.328 69.6446 237.255 70.7836 237.255 71.4822H238.102C238.424 71.4822 238.555 71.4822 238.555 71.7101C238.555 71.9379 238.365 72.3935 237.898 72.3935H237.503C237.313 72.3935 237.24 72.3935 237.24 72.5454L237.167 75.8258C237.167 76.1296 236.846 76.7371 236.393 76.7371C235.867 76.7371 235.735 76.6611 235.677 76.2815L235.414 72.3935C233.529 72.3935 229.423 72.5454 228.385 72.6972C228.327 72.8491 228.254 73.1529 228.254 73.3047V76.1296Z" fill="#E30613" stroke="#E30613" stroke-width="0.5" stroke-miterlimit="2.61"/>
<path fill-rule="evenodd" clip-rule="evenodd" d="M242.836 69.4168C242.836 69.113 242.836 68.9612 242.647 68.8093C242.31 68.5055 242.179 68.3537 242.179 68.2018C242.179 67.898 243.684 67.1387 244.137 67.1387C244.531 67.1387 245.174 67.3665 245.174 67.5184C245.174 67.7462 244.911 68.0499 244.911 68.4296C244.794 69.432 244.648 71.5582 244.648 75.6132C244.648 76.9801 244.385 77.2838 243.801 77.2838C243.026 77.2838 242.88 77.056 242.88 71.786C242.88 70.571 242.807 70.0243 242.807 69.432L242.836 69.4168Z" fill="#E30613" stroke="#E30613" stroke-width="0.5" stroke-miterlimit="2.61"/>
<path fill-rule="evenodd" clip-rule="evenodd" d="M251.063 69.4168C249.295 68.1866 249.032 67.9588 249.032 67.731C249.032 67.5791 249.616 67.2754 250.274 67.2754C250.405 67.2754 250.654 67.2754 252.685 68.5663C258.208 71.9227 261.671 73.5326 267.078 75.3551C267.209 74.3679 267.282 73.9123 267.282 73.0618C267.282 71.619 267.224 70.3888 267.151 69.1738C267.078 68.2626 266.303 68.1714 266.303 67.8069C266.303 67.4424 267.604 67.2754 268.203 67.2754C268.597 67.2754 269.109 67.3513 269.109 67.6551C269.109 68.0348 268.656 68.4904 268.656 73.4567C268.656 75.0665 268.919 75.674 268.919 76.2815C268.919 76.889 267.677 77.1927 267.224 77.1927C266.771 77.1927 266.698 76.2815 265.66 75.9018C257.259 72.8492 255.958 72.2417 254 71.0874C253.869 72.0746 253.737 74.6716 253.211 76.2815C253.094 76.8131 252.627 77.0409 252.247 77.0409C251.867 77.0409 251.136 76.8131 251.136 76.5852C251.136 76.1296 252.51 74.8235 252.51 71.786C252.51 70.7837 252.057 70.1154 251.078 69.432L251.063 69.4168Z" fill="#E30613" stroke="#E30613" stroke-width="0.5" stroke-miterlimit="2.61"/>
<path fill-rule="evenodd" clip-rule="evenodd" d="M280.228 73.4566V74.3071H277.817C276.444 74.3071 275.932 74.459 275.406 74.9906L274.106 76.4334C273.916 76.6612 274.048 76.9649 273.58 76.9649C272.616 76.9649 271.958 76.813 271.958 76.5852C271.958 76.3574 272.338 76.1296 272.806 75.7499C274.69 74.2312 278.08 70.647 278.08 70.1154C278.08 69.8117 277.744 69.5838 277.175 69.2042L275.012 67.7614C274.501 67.4576 274.106 67.3665 274.106 67.2298C274.106 67.002 275.275 66.6223 275.801 66.6223C276.722 66.6223 276.838 66.6982 277.175 67.2298C277.233 67.3817 277.701 67.7614 278.08 68.0651C278.855 68.5967 279.571 69.2194 280.228 69.6598V71.2696L279.322 70.7381L277.627 72.6365C277.175 73.0921 277.043 73.244 277.043 73.3199C277.043 73.4718 277.175 73.4718 279.717 73.4718H280.228V73.4566ZM283.428 73.3807C283.238 73.4566 282.581 73.4566 280.228 73.4566V74.3071H284.787C286.541 75.4462 287.71 76.2055 288.309 76.7523C288.44 76.8282 288.499 77.056 288.762 77.056H289.536C289.916 77.056 290.837 76.5245 290.837 76.2967C290.837 75.917 290.252 76.1448 289.536 75.7651C286.351 73.9426 284.393 72.7884 280.214 69.6598V71.2696L283.414 73.4111L283.428 73.3807Z" fill="#E30613"/>
<path d="M280.228 73.4566V74.3071M280.228 73.4566V73.4718H279.717C277.175 73.4718 277.043 73.4718 277.043 73.3199C277.043 73.244 277.175 73.0921 277.627 72.6365L279.322 70.7381L280.228 71.2696V69.6598C279.571 69.2194 278.855 68.5967 278.08 68.0651C277.701 67.7614 277.233 67.3817 277.175 67.2298C276.838 66.6982 276.722 66.6223 275.801 66.6223C275.275 66.6223 274.106 67.002 274.106 67.2298C274.106 67.3665 274.501 67.4576 275.012 67.7614L277.175 69.2042C277.744 69.5838 278.08 69.8117 278.08 70.1154C278.08 70.647 274.69 74.2312 272.806 75.7499C272.338 76.1296 271.958 76.3574 271.958 76.5852C271.958 76.813 272.616 76.9649 273.58 76.9649C274.048 76.9649 273.916 76.6612 274.106 76.4334L275.406 74.9906C275.932 74.459 276.444 74.3071 277.817 74.3071H280.228M280.228 73.4566C282.581 73.4566 283.238 73.4566 283.428 73.3807L283.414 73.4111L280.214 71.2696V69.6598C284.393 72.7884 286.351 73.9426 289.536 75.7651C290.252 76.1448 290.837 75.917 290.837 76.2967C290.837 76.5245 289.916 77.056 289.536 77.056H288.762C288.499 77.056 288.44 76.8282 288.309 76.7523C287.71 76.2055 286.541 75.4462 284.787 74.3071H280.228" stroke="#E30613" stroke-width="0.5" stroke-miterlimit="10"/>
<path fill-rule="evenodd" clip-rule="evenodd" d="M280.228 73.4566V74.3071H277.817C276.444 74.3071 275.932 74.459 275.406 74.9906L274.106 76.4334C273.916 76.6612 274.048 76.9649 273.58 76.9649C272.616 76.9649 271.958 76.813 271.958 76.5852C271.958 76.3574 272.338 76.1296 272.806 75.7499C274.69 74.2312 278.08 70.647 278.08 70.1154C278.08 69.8117 277.744 69.5838 277.175 69.2042L275.012 67.7614C274.501 67.4576 274.106 67.3665 274.106 67.2298C274.106 67.002 275.275 66.6223 275.801 66.6223C276.722 66.6223 276.838 66.6982 277.175 67.2298C277.233 67.3817 277.701 67.7614 278.08 68.0651C278.855 68.5967 279.571 69.2194 280.228 69.6598V71.2696L279.322 70.7381L277.627 72.6365C277.175 73.0921 277.043 73.244 277.043 73.3199C277.043 73.4718 277.175 73.4718 279.717 73.4718H280.228V73.4566ZM283.428 73.3807C283.238 73.4566 282.581 73.4566 280.228 73.4566V74.3071H284.787C286.541 75.4462 287.71 76.2055 288.309 76.7523C288.44 76.8282 288.499 77.056 288.762 77.056H289.536C289.916 77.056 290.837 76.5245 290.837 76.2967C290.837 75.917 290.252 76.1448 289.536 75.7651C286.351 73.9426 284.393 72.7884 280.214 69.6598V71.2696L283.414 73.4111L283.428 73.3807Z" fill="#E30613"/>
<path d="M280.228 73.4566V74.3071M280.228 73.4566V73.4718H279.717C277.175 73.4718 277.043 73.4718 277.043 73.3199C277.043 73.244 277.175 73.0921 277.627 72.6365L279.322 70.7381L280.228 71.2696V69.6598C279.571 69.2194 278.855 68.5967 278.08 68.0651C277.701 67.7614 277.233 67.3817 277.175 67.2298C276.838 66.6982 276.722 66.6223 275.801 66.6223C275.275 66.6223 274.106 67.002 274.106 67.2298C274.106 67.3665 274.501 67.4576 275.012 67.7614L277.175 69.2042C277.744 69.5838 278.08 69.8117 278.08 70.1154C278.08 70.647 274.69 74.2312 272.806 75.7499C272.338 76.1296 271.958 76.3574 271.958 76.5852C271.958 76.813 272.616 76.9649 273.58 76.9649C274.048 76.9649 273.916 76.6612 274.106 76.4334L275.406 74.9906C275.932 74.459 276.444 74.3071 277.817 74.3071H280.228M280.228 73.4566C282.581 73.4566 283.238 73.4566 283.428 73.3807L283.414 73.4111L280.214 71.2696V69.6598C284.393 72.7884 286.351 73.9426 289.536 75.7651C290.252 76.1448 290.837 75.917 290.837 76.2967C290.837 76.5245 289.916 77.056 289.536 77.056H288.762C288.499 77.056 288.44 76.8282 288.309 76.7523C287.71 76.2055 286.541 75.4462 284.787 74.3071H280.228" stroke="#E30613" stroke-width="0.5" stroke-miterlimit="2.61"/>
<path fill-rule="evenodd" clip-rule="evenodd" d="M284.787 74.3069C286.541 75.4459 287.71 76.2053 288.309 76.752C288.44 76.828 288.499 77.0558 288.762 77.0558H289.536C289.916 77.0558 290.837 76.5242 290.837 76.2964C290.837 75.9167 290.252 76.1446 289.536 75.7649C286.395 73.9272 284.393 72.7578 280.228 69.6747V71.3302L283.414 73.4108C283.165 73.4716 282.522 73.4868 280.228 73.4868V74.3373H284.787V74.3069ZM280.228 69.6595V71.315L279.322 70.7227L277.627 72.6211C277.175 73.0767 277.043 73.2286 277.043 73.3045C277.043 73.4564 277.175 73.4564 279.717 73.4564H280.228V74.3069H277.817C276.444 74.3069 275.932 74.4588 275.406 74.9903L274.106 76.4331C273.916 76.6609 274.048 76.9647 273.58 76.9647C272.616 76.9647 271.958 76.8128 271.958 76.585C271.958 76.3572 272.338 76.1294 272.806 75.7497C274.69 74.2309 278.08 70.6467 278.08 70.1152C278.08 69.8114 277.744 69.5836 277.175 69.2039L275.012 67.7611C274.501 67.4574 274.106 67.3662 274.106 67.2296C274.106 67.0018 275.275 66.6221 275.801 66.6221C276.722 66.6221 276.838 66.698 277.175 67.2296C277.233 67.3814 277.701 67.7611 278.08 68.0649C278.855 68.6572 279.571 69.1887 280.228 69.6747V69.6595Z" fill="#E30613"/>
<path d="M280.228 69.6747C284.393 72.7578 286.395 73.9272 289.536 75.7649C290.252 76.1446 290.837 75.9167 290.837 76.2964C290.837 76.5242 289.916 77.0558 289.536 77.0558H288.762C288.499 77.0558 288.44 76.828 288.309 76.752C287.71 76.2053 286.541 75.4459 284.787 74.3069V74.3373H280.228V73.4868C282.522 73.4868 283.165 73.4716 283.414 73.4108L280.228 71.3302V69.6747ZM280.228 69.6747C279.571 69.1887 278.855 68.6572 278.08 68.0649C277.701 67.7611 277.233 67.3814 277.175 67.2296C276.838 66.698 276.722 66.6221 275.801 66.6221C275.275 66.6221 274.106 67.0018 274.106 67.2296C274.106 67.3662 274.501 67.4574 275.012 67.7611L277.175 69.2039C277.744 69.5836 278.08 69.8114 278.08 70.1152C278.08 70.6467 274.69 74.2309 272.806 75.7497C272.338 76.1294 271.958 76.3572 271.958 76.585C271.958 76.8128 272.616 76.9647 273.58 76.9647C274.048 76.9647 273.916 76.6609 274.106 76.4331L275.406 74.9903C275.932 74.4588 276.444 74.3069 277.817 74.3069H280.228V73.4564H279.717C277.175 73.4564 277.043 73.4564 277.043 73.3045C277.043 73.2286 277.175 73.0767 277.627 72.6211L279.322 70.7227L280.228 71.315V69.6595V69.6747Z" stroke="#E30613" stroke-width="0.5" stroke-miterlimit="10"/>
<path fill-rule="evenodd" clip-rule="evenodd" d="M284.787 74.3072C286.541 75.4462 287.71 76.2056 288.309 76.7523C288.44 76.8283 288.499 77.0561 288.762 77.0561H289.536C289.916 77.0561 290.837 76.5245 290.837 76.2967C290.837 75.917 290.252 76.1449 289.536 75.7652C286.395 73.9275 284.393 72.7581 280.228 69.675V71.3305L283.414 73.4111C283.165 73.4719 282.522 73.4871 280.228 73.4871V74.3376H284.787V74.3072ZM280.228 69.6598C279.571 69.1738 278.855 68.6423 278.08 68.05C277.686 67.7462 277.233 67.3665 277.175 67.2147C276.853 66.6831 276.722 66.6072 275.801 66.6072C275.275 66.6072 274.106 66.9869 274.106 67.2147C274.106 67.3665 274.501 67.4425 275.012 67.7462L277.175 69.189C277.744 69.5687 278.08 69.7965 278.08 70.1003C278.08 70.6318 274.69 74.2161 272.806 75.7348C272.353 76.1145 271.958 76.3423 271.958 76.5701C271.958 76.7979 272.601 76.9498 273.58 76.9498C274.048 76.9498 273.916 76.646 274.106 76.4182L275.406 74.9754C275.932 74.4439 276.444 74.292 277.817 74.292H280.228V73.4415H279.717C277.175 73.4415 277.043 73.4415 277.043 73.2896C277.043 73.2137 277.175 73.0618 277.627 72.6062L279.322 70.7078L280.228 71.3001V69.6447V69.6598Z" fill="#E30613" stroke="#E30613" stroke-width="0.5" stroke-miterlimit="2.61"/>
<path fill-rule="evenodd" clip-rule="evenodd" d="M220.232 67.1235C221.664 67.1235 222.511 67.5792 222.511 67.8829C222.511 68.1867 221.532 68.7182 221.079 68.7182C220.685 68.7182 220.422 67.9588 219.253 67.9588C214.182 67.9588 213.335 71.619 213.335 72.6062C213.335 73.8971 215.161 76.1145 217.894 76.1145C220.626 76.1145 222 74.7476 222.657 74.7476C223.052 74.7476 223.242 74.8995 223.242 75.1273C223.242 75.2943 222.19 76.0537 221.094 76.5093C220.378 76.7371 218.624 77.0409 217.178 77.0409C215.22 77.0409 211.581 75.9778 211.581 72.9251C211.581 68.0348 217.251 67.1235 220.246 67.1235H220.232Z" fill="#E30613" stroke="#E30613" stroke-width="0.5" stroke-miterlimit="2.61"/>
<path fill-rule="evenodd" clip-rule="evenodd" d="M228.254 76.1296C228.254 76.7371 227.874 76.9649 227.085 76.9649C226.69 76.9649 226.632 76.813 226.632 76.5093C226.632 75.3702 226.763 74.0641 226.763 72.6972C226.763 71.4822 226.69 69.8724 226.632 69.0371C226.632 68.5055 225.521 68.3536 225.521 68.0499C225.521 67.898 226.179 67.2905 226.953 67.2905C227.596 67.2905 228.97 67.6702 228.97 67.898C228.97 68.0499 228.575 68.4296 228.517 69.0371C228.517 69.8116 228.517 70.7229 228.444 71.5582H235.472V69.9483C235.472 69.113 235.355 68.4296 235.355 68.1258C235.355 67.8221 236.919 67.5943 237.576 67.5943C237.898 67.5943 238.102 67.6702 238.102 67.8221C238.102 68.0499 237.708 68.1258 237.518 68.8852C237.328 69.6446 237.255 70.7836 237.255 71.4822H238.102C238.424 71.4822 238.555 71.4822 238.555 71.7101C238.555 71.9379 238.365 72.3935 237.898 72.3935H237.503C237.313 72.3935 237.24 72.3935 237.24 72.5454L237.167 75.8258C237.167 76.1296 236.846 76.7371 236.393 76.7371C235.867 76.7371 235.735 76.6611 235.677 76.2815L235.414 72.3935C233.529 72.3935 229.423 72.5454 228.385 72.6972C228.327 72.8491 228.254 73.1529 228.254 73.3047V76.1296Z" fill="#E30613" stroke="#E30613" stroke-width="0.5" stroke-miterlimit="2.61"/>
<path fill-rule="evenodd" clip-rule="evenodd" d="M242.836 69.4168C242.836 69.113 242.836 68.9612 242.647 68.8093C242.31 68.5055 242.179 68.3537 242.179 68.2018C242.179 67.898 243.684 67.1387 244.137 67.1387C244.531 67.1387 245.174 67.3665 245.174 67.5184C245.174 67.7462 244.911 68.0499 244.911 68.4296C244.794 69.432 244.648 71.5582 244.648 75.6132C244.648 76.9801 244.385 77.2838 243.801 77.2838C243.026 77.2838 242.88 77.056 242.88 71.786C242.88 70.571 242.807 70.0243 242.807 69.432L242.836 69.4168Z" fill="#E30613" stroke="#E30613" stroke-width="0.5" stroke-miterlimit="2.61"/>
<path fill-rule="evenodd" clip-rule="evenodd" d="M251.063 69.4168C249.295 68.1866 249.032 67.9588 249.032 67.731C249.032 67.5791 249.616 67.2754 250.274 67.2754C250.405 67.2754 250.654 67.2754 252.685 68.5663C258.208 71.9227 261.671 73.5326 267.078 75.3551C267.209 74.3679 267.282 73.9123 267.282 73.0618C267.282 71.619 267.224 70.3888 267.151 69.1738C267.078 68.2626 266.303 68.1714 266.303 67.8069C266.303 67.4424 267.604 67.2754 268.203 67.2754C268.597 67.2754 269.109 67.3513 269.109 67.6551C269.109 68.0348 268.656 68.4904 268.656 73.4567C268.656 75.0665 268.919 75.674 268.919 76.2815C268.919 76.889 267.677 77.1927 267.224 77.1927C266.771 77.1927 266.698 76.2815 265.66 75.9018C257.259 72.8492 255.958 72.2417 254 71.0874C253.869 72.0746 253.737 74.6716 253.211 76.2815C253.094 76.8131 252.627 77.0409 252.247 77.0409C251.867 77.0409 251.136 76.8131 251.136 76.5852C251.136 76.1296 252.51 74.8235 252.51 71.786C252.51 70.7837 252.057 70.1154 251.078 69.432L251.063 69.4168Z" fill="#E30613" stroke="#E30613" stroke-width="0.5" stroke-miterlimit="2.61"/>
<path fill-rule="evenodd" clip-rule="evenodd" d="M280.228 73.4566V74.3071H277.817C276.444 74.3071 275.932 74.459 275.406 74.9906L274.106 76.4334C273.916 76.6612 274.048 76.9649 273.58 76.9649C272.616 76.9649 271.958 76.813 271.958 76.5852C271.958 76.3574 272.338 76.1296 272.806 75.7499C274.69 74.2312 278.08 70.647 278.08 70.1154C278.08 69.8117 277.744 69.5838 277.175 69.2042L275.012 67.7614C274.501 67.4576 274.106 67.3665 274.106 67.2298C274.106 67.002 275.275 66.6223 275.801 66.6223C276.722 66.6223 276.838 66.6982 277.175 67.2298C277.233 67.3817 277.701 67.7614 278.08 68.0651C278.855 68.5967 279.571 69.2194 280.228 69.6598V71.2696L279.322 70.7381L277.627 72.6365C277.175 73.0921 277.043 73.244 277.043 73.3199C277.043 73.4718 277.175 73.4718 279.717 73.4718H280.228V73.4566ZM283.428 73.3807C283.238 73.4566 282.581 73.4566 280.228 73.4566V74.3071H284.787C286.541 75.4462 287.71 76.2055 288.309 76.7523C288.44 76.8282 288.499 77.056 288.762 77.056H289.536C289.916 77.056 290.837 76.5245 290.837 76.2967C290.837 75.917 290.252 76.1448 289.536 75.7651C286.351 73.9426 284.393 72.7884 280.214 69.6598V71.2696L283.414 73.4111L283.428 73.3807Z" fill="#E30613"/>
<path d="M280.228 73.4566V74.3071M280.228 73.4566V73.4718H279.717C277.175 73.4718 277.043 73.4718 277.043 73.3199C277.043 73.244 277.175 73.0921 277.627 72.6365L279.322 70.7381L280.228 71.2696V69.6598C279.571 69.2194 278.855 68.5967 278.08 68.0651C277.701 67.7614 277.233 67.3817 277.175 67.2298C276.838 66.6982 276.722 66.6223 275.801 66.6223C275.275 66.6223 274.106 67.002 274.106 67.2298C274.106 67.3665 274.501 67.4576 275.012 67.7614L277.175 69.2042C277.744 69.5838 278.08 69.8117 278.08 70.1154C278.08 70.647 274.69 74.2312 272.806 75.7499C272.338 76.1296 271.958 76.3574 271.958 76.5852C271.958 76.813 272.616 76.9649 273.58 76.9649C274.048 76.9649 273.916 76.6612 274.106 76.4334L275.406 74.9906C275.932 74.459 276.444 74.3071 277.817 74.3071H280.228M280.228 73.4566C282.581 73.4566 283.238 73.4566 283.428 73.3807L283.414 73.4111L280.214 71.2696V69.6598C284.393 72.7884 286.351 73.9426 289.536 75.7651C290.252 76.1448 290.837 75.917 290.837 76.2967C290.837 76.5245 289.916 77.056 289.536 77.056H288.762C288.499 77.056 288.44 76.8282 288.309 76.7523C287.71 76.2055 286.541 75.4462 284.787 74.3071H280.228" stroke="#E30613" stroke-width="0.5" stroke-miterlimit="10"/>
<path fill-rule="evenodd" clip-rule="evenodd" d="M280.228 73.4566V74.3071H277.817C276.444 74.3071 275.932 74.459 275.406 74.9906L274.106 76.4334C273.916 76.6612 274.048 76.9649 273.58 76.9649C272.616 76.9649 271.958 76.813 271.958 76.5852C271.958 76.3574 272.338 76.1296 272.806 75.7499C274.69 74.2312 278.08 70.647 278.08 70.1154C278.08 69.8117 277.744 69.5838 277.175 69.2042L275.012 67.7614C274.501 67.4576 274.106 67.3665 274.106 67.2298C274.106 67.002 275.275 66.6223 275.801 66.6223C276.722 66.6223 276.838 66.6982 277.175 67.2298C277.233 67.3817 277.701 67.7614 278.08 68.0651C278.855 68.5967 279.571 69.2194 280.228 69.6598V71.2696L279.322 70.7381L277.627 72.6365C277.175 73.0921 277.043 73.244 277.043 73.3199C277.043 73.4718 277.175 73.4718 279.717 73.4718H280.228V73.4566ZM283.428 73.3807C283.238 73.4566 282.581 73.4566 280.228 73.4566V74.3071H284.787C286.541 75.4462 287.71 76.2055 288.309 76.7523C288.44 76.8282 288.499 77.056 288.762 77.056H289.536C289.916 77.056 290.837 76.5245 290.837 76.2967C290.837 75.917 290.252 76.1448 289.536 75.7651C286.351 73.9426 284.393 72.7884 280.214 69.6598V71.2696L283.414 73.4111L283.428 73.3807Z" fill="#E30613"/>
<path d="M280.228 73.4566V74.3071M280.228 73.4566V73.4718H279.717C277.175 73.4718 277.043 73.4718 277.043 73.3199C277.043 73.244 277.175 73.0921 277.627 72.6365L279.322 70.7381L280.228 71.2696V69.6598C279.571 69.2194 278.855 68.5967 278.08 68.0651C277.701 67.7614 277.233 67.3817 277.175 67.2298C276.838 66.6982 276.722 66.6223 275.801 66.6223C275.275 66.6223 274.106 67.002 274.106 67.2298C274.106 67.3665 274.501 67.4576 275.012 67.7614L277.175 69.2042C277.744 69.5838 278.08 69.8117 278.08 70.1154C278.08 70.647 274.69 74.2312 272.806 75.7499C272.338 76.1296 271.958 76.3574 271.958 76.5852C271.958 76.813 272.616 76.9649 273.58 76.9649C274.048 76.9649 273.916 76.6612 274.106 76.4334L275.406 74.9906C275.932 74.459 276.444 74.3071 277.817 74.3071H280.228M280.228 73.4566C282.581 73.4566 283.238 73.4566 283.428 73.3807L283.414 73.4111L280.214 71.2696V69.6598C284.393 72.7884 286.351 73.9426 289.536 75.7651C290.252 76.1448 290.837 75.917 290.837 76.2967C290.837 76.5245 289.916 77.056 289.536 77.056H288.762C288.499 77.056 288.44 76.8282 288.309 76.7523C287.71 76.2055 286.541 75.4462 284.787 74.3071H280.228" stroke="#E30613" stroke-width="0.5" stroke-miterlimit="2.61"/>
<path fill-rule="evenodd" clip-rule="evenodd" d="M284.787 74.3069C286.541 75.4459 287.71 76.2053 288.309 76.752C288.44 76.828 288.499 77.0558 288.762 77.0558H289.536C289.916 77.0558 290.837 76.5242 290.837 76.2964C290.837 75.9167 290.252 76.1446 289.536 75.7649C286.395 73.9272 284.393 72.7578 280.228 69.6747V71.3302L283.414 73.4108C283.165 73.4716 282.522 73.4868 280.228 73.4868V74.3373H284.787V74.3069ZM280.228 69.6595V71.315L279.322 70.7227L277.627 72.6211C277.175 73.0767 277.043 73.2286 277.043 73.3045C277.043 73.4564 277.175 73.4564 279.717 73.4564H280.228V74.3069H277.817C276.444 74.3069 275.932 74.4588 275.406 74.9903L274.106 76.4331C273.916 76.6609 274.048 76.9647 273.58 76.9647C272.616 76.9647 271.958 76.8128 271.958 76.585C271.958 76.3572 272.338 76.1294 272.806 75.7497C274.69 74.2309 278.08 70.6467 278.08 70.1152C278.08 69.8114 277.744 69.5836 277.175 69.2039L275.012 67.7611C274.501 67.4574 274.106 67.3662 274.106 67.2296C274.106 67.0018 275.275 66.6221 275.801 66.6221C276.722 66.6221 276.838 66.698 277.175 67.2296C277.233 67.3814 277.701 67.7611 278.08 68.0649C278.855 68.6572 279.571 69.1887 280.228 69.6747V69.6595Z" fill="#E30613"/>
<path d="M280.228 69.6747C284.393 72.7578 286.395 73.9272 289.536 75.7649C290.252 76.1446 290.837 75.9167 290.837 76.2964C290.837 76.5242 289.916 77.0558 289.536 77.0558H288.762C288.499 77.0558 288.44 76.828 288.309 76.752C287.71 76.2053 286.541 75.4459 284.787 74.3069V74.3373H280.228V73.4868C282.522 73.4868 283.165 73.4716 283.414 73.4108L280.228 71.3302V69.6747ZM280.228 69.6747C279.571 69.1887 278.855 68.6572 278.08 68.0649C277.701 67.7611 277.233 67.3814 277.175 67.2296C276.838 66.698 276.722 66.6221 275.801 66.6221C275.275 66.6221 274.106 67.0018 274.106 67.2296C274.106 67.3662 274.501 67.4574 275.012 67.7611L277.175 69.2039C277.744 69.5836 278.08 69.8114 278.08 70.1152C278.08 70.6467 274.69 74.2309 272.806 75.7497C272.338 76.1294 271.958 76.3572 271.958 76.585C271.958 76.8128 272.616 76.9647 273.58 76.9647C274.048 76.9647 273.916 76.6609 274.106 76.4331L275.406 74.9903C275.932 74.4588 276.444 74.3069 277.817 74.3069H280.228V73.4564H279.717C277.175 73.4564 277.043 73.4564 277.043 73.3045C277.043 73.2286 277.175 73.0767 277.627 72.6211L279.322 70.7227L280.228 71.315V69.6595V69.6747Z" stroke="#E30613" stroke-width="0.5" stroke-miterlimit="10"/>
<path fill-rule="evenodd" clip-rule="evenodd" d="M284.787 74.3072C286.541 75.4462 287.71 76.2056 288.309 76.7523C288.44 76.8283 288.499 77.0561 288.762 77.0561H289.536C289.916 77.0561 290.837 76.5245 290.837 76.2967C290.837 75.917 290.252 76.1449 289.536 75.7652C286.395 73.9275 284.393 72.7581 280.228 69.675V71.3305L283.414 73.4111C283.165 73.4719 282.522 73.4871 280.228 73.4871V74.3376H284.787V74.3072ZM280.228 69.6598C279.571 69.1738 278.855 68.6423 278.08 68.05C277.686 67.7462 277.233 67.3665 277.175 67.2147C276.853 66.6831 276.722 66.6072 275.801 66.6072C275.275 66.6072 274.106 66.9869 274.106 67.2147C274.106 67.3665 274.501 67.4425 275.012 67.7462L277.175 69.189C277.744 69.5687 278.08 69.7965 278.08 70.1003C278.08 70.6318 274.69 74.2161 272.806 75.7348C272.353 76.1145 271.958 76.3423 271.958 76.5701C271.958 76.7979 272.601 76.9498 273.58 76.9498C274.048 76.9498 273.916 76.646 274.106 76.4182L275.406 74.9754C275.932 74.4439 276.444 74.292 277.817 74.292H280.228V73.4415H279.717C277.175 73.4415 277.043 73.4415 277.043 73.2896C277.043 73.2137 277.175 73.0618 277.627 72.6062L279.322 70.7078L280.228 71.3001V69.6447V69.6598Z" fill="#E30613" stroke="#E30613" stroke-width="0.5" stroke-miterlimit="2.61"/>
<path fill-rule="evenodd" clip-rule="evenodd" d="M27.2947 3.56429L7.51 3.71616L5.05518 3.86803L3.52092 5.46271L1.84054 7.37632L0.773861 9.9278C0.773861 9.9278 0.160156 13.1171 0.320888 13.588C0.48162 14.0588 0.934593 16.7773 3.53553 18.053H22.5458L31.7513 17.9012C31.7513 17.9012 35.7404 18.858 36.3541 22.1992C36.9678 25.5404 36.8071 30.9623 35.7404 32.8759C34.6737 34.7895 32.6719 35.5793 29.4572 35.7463C26.2426 35.8982 12.2881 35.5945 12.2881 35.5945C12.2881 35.5945 8.45978 33.9998 8.29904 32.0862C8.13831 30.1726 7.84607 26.0264 11.5137 24.2799L30.8308 23.9609L32.9787 24.4317L31.912 21.2424L0.467008 21.5765L0.160156 56.629L1.38756 58.6945C1.38756 58.6945 2.92183 61.3978 0.62774 61.2459C0.62774 61.2459 -0.132084 66.9868 0.62774 68.4144C1.38756 69.842 1.85515 73.1984 3.69626 73.3503C5.53737 73.5022 7.52461 74.626 7.52461 74.626C7.52461 74.626 7.21776 72.7124 8.89814 73.3503C10.5785 73.9882 12.7265 75.2639 15.0352 74.7779C17.3439 74.2919 20.0909 74.7779 20.0909 74.7779L22.385 74.626L27.6015 74.945H35.4189L37.26 73.9882L38.3267 72.0745L39.2473 74.14L41.7021 72.7124C41.7021 72.7124 43.9962 71.4367 43.9962 69.6901V64.4353C43.9962 64.4353 43.9962 62.2028 41.3952 62.0509C38.7943 61.899 24.0654 62.3698 24.0654 62.3698L13.1795 52.4828L11.7183 52.5284C11.7183 52.5284 12.8726 61.4889 10.7977 61.3674C8.72279 61.2459 8.03603 58.983 8.03603 58.983L8.15292 49.0657L8.03603 46.3168V44.0387L7.91913 42.4895C7.91913 42.4895 8.26982 39.2698 9.99404 39.8621C11.7183 40.4544 11.8351 42.7325 11.8351 42.7325V48.8227L32.5258 40.6974C32.5258 40.6974 34.9367 39.2698 35.7404 40.4544C36.5441 41.639 36.6609 42.611 34.8198 43.9172C32.9787 45.2385 17.2854 50.7363 17.2854 50.7363L23.8462 56.8264C23.8462 56.8264 24.9421 58.1477 27.1778 58.087C29.4134 58.0262 42.3012 57.7225 42.3012 57.7225C42.3012 57.7225 42.7542 56.9479 42.1843 56.7049C41.6144 56.4619 41.1468 56.2341 41.556 54.7306C41.9651 53.227 41.2053 52.6347 42.1843 51.6172C43.1633 50.5996 43.2802 50.4781 44.1423 50.1895C44.1423 50.1895 44.493 46.013 44.493 45.4055C44.493 44.798 44.6099 35.7919 44.6099 34.8351C44.6099 33.8783 44.3761 30.9471 44.3761 28.9728C44.3761 26.9984 44.493 24.4925 44.1423 24.0672C43.7916 23.642 43.1048 22.9282 43.1048 22.9282C43.1048 22.9282 42.9295 22.7459 42.9879 22.1536C43.0464 21.5613 44.2592 20.8323 44.2007 20.1793C44.1423 19.5262 43.7916 17.3696 43.7916 16.2913C43.7916 15.213 43.967 12.7678 43.7916 11.2643C43.6163 9.77592 44.0839 8.15088 43.5578 7.49782C43.0318 6.84476 42.345 6.0702 42.345 6.0702L41.4829 7.02701C41.4829 7.02701 40.8546 7.20926 40.7377 6.96626C40.6208 6.72326 40.5624 5.82721 40.5624 5.82721L41.0153 5.05265C41.0153 5.05265 40.387 4.52109 39.861 4.33884C39.3349 4.15659 39.6272 3.62504 38.6482 3.50354C37.6692 3.38204 34.6299 3.50354 34.1623 3.50354C33.6947 3.50354 31.6344 3.32129 31.6344 3.32129C31.6344 3.32129 30.8892 5.1134 29.6764 5.1134C28.4636 5.1134 27.8937 4.58184 27.8937 4.58184C27.8937 4.58184 27.4554 4.00472 27.2362 3.5491L27.2947 3.56429Z" fill="#E30613"/>
<path d="M31.9558 27.1655H13.3109C12.3586 27.1655 11.5867 27.9679 11.5867 28.9576V30.4764C11.5867 31.4661 12.3586 32.2685 13.3109 32.2685H31.9558C32.9081 32.2685 33.68 31.4661 33.68 30.4764V28.9576C33.68 27.9679 32.9081 27.1655 31.9558 27.1655Z" fill="#E30613"/>
</g>
<defs>
<clipPath id="clip0_227_3558">
<rect width="293" height="77" fill="white" transform="translate(0.160156 0.845703)"/>
</clipPath>
</defs>
</svg>
