<svg width="321" height="85" viewBox="0 0 321 85" fill="none" xmlns="http://www.w3.org/2000/svg">
<g clip-path="url(#clip0_227_3651)">
<path fill-rule="evenodd" clip-rule="evenodd" d="M175.731 8.81787C174.124 8.81787 172.053 12.0512 171.126 13.3198V12.0512C171.126 10.6743 170.43 8.81787 168.483 8.81787C167.911 8.81787 166.52 10.2102 165.484 10.7826V11.2467C168.591 12.1595 168.823 14.5884 168.823 18.8582C168.823 22.8961 168.251 24.9691 165.948 26.578V27.0422H173.892V26.578C171.713 24.9536 171.126 22.8961 171.126 18.8582C171.126 15.1763 172.161 13.4436 174.232 13.4436C175.391 13.4436 176.071 14.1397 176.999 14.9442C177.57 13.6756 178.142 12.407 178.838 11.1385C177.462 9.62234 176.875 8.83334 175.731 8.83334V8.81787Z" fill="white"/>
<path d="M175.731 8.81787C174.124 8.81787 172.053 12.0512 171.126 13.3198V12.0512C171.126 10.6743 170.43 8.81787 168.483 8.81787C167.911 8.81787 166.52 10.2102 165.484 10.7826V11.2467C168.591 12.1595 168.823 14.5884 168.823 18.8582C168.823 22.8961 168.251 24.9691 165.948 26.578V27.0422H173.892V26.578C171.713 24.9536 171.126 22.8961 171.126 18.8582C171.126 15.1763 172.161 13.4436 174.232 13.4436C175.391 13.4436 176.071 14.1397 176.999 14.9442C177.57 13.6756 178.142 12.407 178.838 11.1385C177.462 9.62234 176.875 8.83334 175.731 8.83334V8.81787Z" stroke="white" stroke-width="0.3" stroke-miterlimit="3.86"/>
<path d="M175.731 8.81787C174.124 8.81787 172.053 12.0512 171.126 13.3198V12.0512C171.126 10.6743 170.43 8.81787 168.483 8.81787C167.911 8.81787 166.52 10.2102 165.484 10.7826V11.2467C168.591 12.1595 168.823 14.5884 168.823 18.8582C168.823 22.8961 168.251 24.9691 165.948 26.578V27.0422H173.892V26.578C171.713 24.9536 171.126 22.8961 171.126 18.8582C171.126 15.1763 172.161 13.4436 174.232 13.4436C175.391 13.4436 176.071 14.1397 176.999 14.9442C177.57 13.6756 178.142 12.407 178.838 11.1385C177.462 9.62234 176.875 8.83334 175.731 8.83334V8.81787Z" fill="white"/>
<path d="M175.731 8.81787C174.124 8.81787 172.053 12.0512 171.126 13.3198V12.0512C171.126 10.6743 170.43 8.81787 168.483 8.81787C167.911 8.81787 166.52 10.2102 165.484 10.7826V11.2467C168.591 12.1595 168.823 14.5884 168.823 18.8582C168.823 22.8961 168.251 24.9691 165.948 26.578V27.0422H173.892V26.578C171.713 24.9536 171.126 22.8961 171.126 18.8582C171.126 15.1763 172.161 13.4436 174.232 13.4436C175.391 13.4436 176.071 14.1397 176.999 14.9442C177.57 13.6756 178.142 12.407 178.838 11.1385C177.462 9.62234 176.875 8.83334 175.731 8.83334V8.81787Z" stroke="white" stroke-width="0.3" stroke-miterlimit="3.86"/>
<path fill-rule="evenodd" clip-rule="evenodd" d="M212.699 18.5026C212.699 15.1609 214.894 13.7841 216.857 12.3917C217.892 12.8558 220.087 14.1244 220.087 16.1975C220.087 18.7346 217.892 19.075 216.625 19.075L216.285 19.5391C216.965 19.8795 217.661 20.0032 218.356 20.0032C220.891 20.0032 223.302 17.9302 223.302 15.0526C223.302 12.1751 220.535 10.9065 217.661 8.8335C214.662 11.6027 210.412 13.9078 210.412 18.8584C210.412 24.9693 215.481 26.934 218.016 27.8622C219.283 26.5937 220.659 25.4334 222.39 24.7527L222.282 24.2886C218.48 24.2886 212.715 23.5924 212.715 18.5335L212.699 18.5026Z" fill="white"/>
<path d="M212.699 18.5026C212.699 15.1609 214.894 13.7841 216.857 12.3917C217.892 12.8558 220.087 14.1244 220.087 16.1975C220.087 18.7346 217.892 19.075 216.625 19.075L216.285 19.5391C216.965 19.8795 217.661 20.0032 218.356 20.0032C220.891 20.0032 223.302 17.9302 223.302 15.0526C223.302 12.1751 220.535 10.9065 217.661 8.8335C214.662 11.6027 210.412 13.9078 210.412 18.8584C210.412 24.9693 215.481 26.934 218.016 27.8622C219.283 26.5937 220.659 25.4334 222.39 24.7527L222.282 24.2886C218.48 24.2886 212.715 23.5924 212.715 18.5335L212.699 18.5026Z" stroke="white" stroke-width="0.3" stroke-miterlimit="3.86"/>
<path d="M212.699 18.5026C212.699 15.1609 214.894 13.7841 216.857 12.3917C217.892 12.8558 220.087 14.1244 220.087 16.1975C220.087 18.7346 217.892 19.075 216.625 19.075L216.285 19.5391C216.965 19.8795 217.661 20.0032 218.356 20.0032C220.891 20.0032 223.302 17.9302 223.302 15.0526C223.302 12.1751 220.535 10.9065 217.661 8.8335C214.662 11.6027 210.412 13.9078 210.412 18.8584C210.412 24.9693 215.481 26.934 218.016 27.8622C219.283 26.5937 220.659 25.4334 222.39 24.7527L222.282 24.2886C218.48 24.2886 212.715 23.5924 212.715 18.5335L212.699 18.5026Z" fill="white"/>
<path d="M212.699 18.5026C212.699 15.1609 214.894 13.7841 216.857 12.3917C217.892 12.8558 220.087 14.1244 220.087 16.1975C220.087 18.7346 217.892 19.075 216.625 19.075L216.285 19.5391C216.965 19.8795 217.661 20.0032 218.356 20.0032C220.891 20.0032 223.302 17.9302 223.302 15.0526C223.302 12.1751 220.535 10.9065 217.661 8.8335C214.662 11.6027 210.412 13.9078 210.412 18.8584C210.412 24.9693 215.481 26.934 218.016 27.8622C219.283 26.5937 220.659 25.4334 222.39 24.7527L222.282 24.2886C218.48 24.2886 212.715 23.5924 212.715 18.5335L212.699 18.5026Z" stroke="white" stroke-width="0.3" stroke-miterlimit="3.86"/>
<path fill-rule="evenodd" clip-rule="evenodd" d="M151.312 21.9523C150.276 22.5248 149.117 23.2209 147.865 23.2209C147.34 23.2209 146.814 23.1436 146.32 23.0198L145.732 22.8342L145.609 22.7878C143.77 22.0452 142.348 20.4053 141.977 18.2549V18.193L141.884 17.1101L141.915 16.6769C142.054 15.3928 142.796 14.1088 143.878 13.227L143.986 13.1341L144.187 13.0104L144.434 12.8402L144.511 12.7938C145.207 12.407 145.995 12.1595 146.83 12.1595C149.704 12.1595 151.327 14.1243 151.327 17.1101V21.9523H151.312ZM153.615 23.685V17.1101C153.615 14.1243 154.186 11.9274 155.222 11.123C154.65 10.6589 152.795 8.81787 149.225 8.81787L148.422 8.86428L147.958 8.92617H147.881C146.042 9.20463 144.326 9.99363 142.951 11.2158L142.595 11.5407L142.471 11.6644L141.93 12.2523C141.127 13.227 140.524 14.3408 140.138 15.6249V15.7023L139.921 16.5222L139.875 16.7388L139.767 17.4814L139.736 17.7289L139.689 18.7345C139.689 24.2575 143.136 26.5626 144.975 27.8466C146.165 26.7327 147.742 25.7426 149.473 24.8453C150.091 24.5359 150.709 24.2265 151.312 23.9171V26.578L151.281 27.4444L151.25 27.8311L151.204 28.2643L151.142 28.713L151.095 29.0378L151.003 29.4865L150.925 29.7804L150.817 30.1672L150.724 30.4766L150.616 30.8015L150.462 31.1573L150.369 31.3739L150.106 31.869C149.117 33.5398 147.587 34.4216 145.64 34.4216C144.481 34.4216 143.337 34.1895 142.533 33.7409C143.105 33.2768 143.677 32.7044 143.677 32.132C143.677 30.8479 142.765 29.9506 141.73 29.9506C140.57 29.9506 139.767 30.9871 139.767 32.132C139.767 33.5088 141.606 35.9377 145.64 35.9377H146.552C148.468 35.783 150.044 35.1642 151.343 34.3752L151.42 34.3288L151.945 33.9729L152.316 33.7254L152.471 33.5862C154.341 32.1629 155.5 30.4457 156.103 29.5948C154.14 29.1307 153.692 27.398 153.568 23.716L153.615 23.685Z" fill="white"/>
<path d="M151.312 21.9523C150.276 22.5248 149.117 23.2209 147.865 23.2209C147.34 23.2209 146.814 23.1436 146.32 23.0198L145.732 22.8342L145.609 22.7878C143.77 22.0452 142.348 20.4053 141.977 18.2549V18.193L141.884 17.1101L141.915 16.6769C142.054 15.3928 142.796 14.1088 143.878 13.227L143.986 13.1341L144.187 13.0104L144.434 12.8402L144.511 12.7938C145.207 12.407 145.995 12.1595 146.83 12.1595C149.704 12.1595 151.327 14.1243 151.327 17.1101V21.9523H151.312ZM153.615 23.685V17.1101C153.615 14.1243 154.186 11.9274 155.222 11.123C154.65 10.6589 152.795 8.81787 149.225 8.81787L148.422 8.86428L147.958 8.92617H147.881C146.042 9.20463 144.326 9.99363 142.951 11.2158L142.595 11.5407L142.471 11.6644L141.93 12.2523C141.127 13.227 140.524 14.3408 140.138 15.6249V15.7023L139.921 16.5222L139.875 16.7388L139.767 17.4814L139.736 17.7289L139.689 18.7345C139.689 24.2575 143.136 26.5626 144.975 27.8466C146.165 26.7327 147.742 25.7426 149.473 24.8453C150.091 24.5359 150.709 24.2265 151.312 23.9171V26.578L151.281 27.4444L151.25 27.8311L151.204 28.2643L151.142 28.713L151.095 29.0378L151.003 29.4865L150.925 29.7804L150.817 30.1672L150.724 30.4766L150.616 30.8015L150.462 31.1573L150.369 31.3739L150.106 31.869C149.117 33.5398 147.587 34.4216 145.64 34.4216C144.481 34.4216 143.337 34.1895 142.533 33.7409C143.105 33.2768 143.677 32.7044 143.677 32.132C143.677 30.8479 142.765 29.9506 141.73 29.9506C140.57 29.9506 139.767 30.9871 139.767 32.132C139.767 33.5088 141.606 35.9377 145.64 35.9377H146.552C148.468 35.783 150.044 35.1642 151.343 34.3752L151.42 34.3288L151.945 33.9729L152.316 33.7254L152.471 33.5862C154.341 32.1629 155.5 30.4457 156.103 29.5948C154.14 29.1307 153.692 27.398 153.568 23.716L153.615 23.685Z" stroke="white" stroke-width="0.3" stroke-miterlimit="3.86"/>
<path d="M151.312 21.9523C150.276 22.5248 149.117 23.2209 147.865 23.2209C147.34 23.2209 146.814 23.1436 146.32 23.0198L145.732 22.8342L145.609 22.7878C143.77 22.0452 142.348 20.4053 141.977 18.2549V18.193L141.884 17.1101L141.915 16.6769C142.054 15.3928 142.796 14.1088 143.878 13.227L143.986 13.1341L144.187 13.0104L144.434 12.8402L144.511 12.7938C145.207 12.407 145.995 12.1595 146.83 12.1595C149.704 12.1595 151.327 14.1243 151.327 17.1101V21.9523H151.312ZM153.615 23.685V17.1101C153.615 14.1243 154.186 11.9274 155.222 11.123C154.65 10.6589 152.795 8.81787 149.225 8.81787L148.422 8.86428L147.958 8.92617H147.881C146.042 9.20463 144.326 9.99363 142.951 11.2158L142.595 11.5407L142.471 11.6644L141.93 12.2523C141.127 13.227 140.524 14.3408 140.138 15.6249V15.7023L139.921 16.5222L139.875 16.7388L139.767 17.4814L139.736 17.7289L139.689 18.7345C139.689 24.2575 143.136 26.5626 144.975 27.8466C146.165 26.7327 147.742 25.7426 149.473 24.8453C150.091 24.5359 150.709 24.2265 151.312 23.9171V26.578L151.281 27.4444L151.25 27.8311L151.204 28.2643L151.142 28.713L151.095 29.0378L151.003 29.4865L150.925 29.7804L150.817 30.1672L150.724 30.4766L150.616 30.8015L150.462 31.1573L150.369 31.3739L150.106 31.869C149.117 33.5398 147.587 34.4216 145.64 34.4216C144.481 34.4216 143.337 34.1895 142.533 33.7409C143.105 33.2768 143.677 32.7044 143.677 32.132C143.677 30.8479 142.765 29.9506 141.73 29.9506C140.57 29.9506 139.767 30.9871 139.767 32.132C139.767 33.5088 141.606 35.9377 145.64 35.9377H146.552C148.468 35.783 150.044 35.1642 151.343 34.3752L151.42 34.3288L151.945 33.9729L152.316 33.7254L152.471 33.5862C154.341 32.1629 155.5 30.4457 156.103 29.5948C154.14 29.1307 153.692 27.398 153.568 23.716L153.615 23.685Z" fill="white"/>
<path d="M151.312 21.9523C150.276 22.5248 149.117 23.2209 147.865 23.2209C147.34 23.2209 146.814 23.1436 146.32 23.0198L145.732 22.8342L145.609 22.7878C143.77 22.0452 142.348 20.4053 141.977 18.2549V18.193L141.884 17.1101L141.915 16.6769C142.054 15.3928 142.796 14.1088 143.878 13.227L143.986 13.1341L144.187 13.0104L144.434 12.8402L144.511 12.7938C145.207 12.407 145.995 12.1595 146.83 12.1595C149.704 12.1595 151.327 14.1243 151.327 17.1101V21.9523H151.312ZM153.615 23.685V17.1101C153.615 14.1243 154.186 11.9274 155.222 11.123C154.65 10.6589 152.795 8.81787 149.225 8.81787L148.422 8.86428L147.958 8.92617H147.881C146.042 9.20463 144.326 9.99363 142.951 11.2158L142.595 11.5407L142.471 11.6644L141.93 12.2523C141.127 13.227 140.524 14.3408 140.138 15.6249V15.7023L139.921 16.5222L139.875 16.7388L139.767 17.4814L139.736 17.7289L139.689 18.7345C139.689 24.2575 143.136 26.5626 144.975 27.8466C146.165 26.7327 147.742 25.7426 149.473 24.8453C150.091 24.5359 150.709 24.2265 151.312 23.9171V26.578L151.281 27.4444L151.25 27.8311L151.204 28.2643L151.142 28.713L151.095 29.0378L151.003 29.4865L150.925 29.7804L150.817 30.1672L150.724 30.4766L150.616 30.8015L150.462 31.1573L150.369 31.3739L150.106 31.869C149.117 33.5398 147.587 34.4216 145.64 34.4216C144.481 34.4216 143.337 34.1895 142.533 33.7409C143.105 33.2768 143.677 32.7044 143.677 32.132C143.677 30.8479 142.765 29.9506 141.73 29.9506C140.57 29.9506 139.767 30.9871 139.767 32.132C139.767 33.5088 141.606 35.9377 145.64 35.9377H146.552C148.468 35.783 150.044 35.1642 151.343 34.3752L151.42 34.3288L151.945 33.9729L152.316 33.7254L152.471 33.5862C154.341 32.1629 155.5 30.4457 156.103 29.5948C154.14 29.1307 153.692 27.398 153.568 23.716L153.615 23.685Z" stroke="white" stroke-width="0.3" stroke-miterlimit="3.86"/>
<path fill-rule="evenodd" clip-rule="evenodd" d="M194.401 19.075L194.046 19.5391C194.741 19.8795 195.437 20.0032 196.117 20.0032C198.636 20.0032 201.062 17.9302 201.062 15.0526C201.062 12.1751 198.419 10.9065 195.421 8.8335C192.546 11.6027 188.157 13.9078 188.157 18.8584C188.157 24.9693 193.335 26.934 195.761 27.8622C197.029 26.5937 198.404 25.4334 200.135 24.7527L200.027 24.2886C196.225 24.2886 190.584 23.5924 190.584 18.5335C190.584 15.1919 192.655 13.815 194.617 12.4227C195.653 12.8868 197.848 14.1554 197.848 16.2284C197.848 18.7656 195.668 19.1059 194.401 19.1059V19.075Z" fill="white"/>
<path d="M194.401 19.075L194.046 19.5391C194.741 19.8795 195.437 20.0032 196.117 20.0032C198.636 20.0032 201.062 17.9302 201.062 15.0526C201.062 12.1751 198.419 10.9065 195.421 8.8335C192.546 11.6027 188.157 13.9078 188.157 18.8584C188.157 24.9693 193.335 26.934 195.761 27.8622C197.029 26.5937 198.404 25.4334 200.135 24.7527L200.027 24.2886C196.225 24.2886 190.584 23.5924 190.584 18.5335C190.584 15.1919 192.655 13.815 194.617 12.4227C195.653 12.8868 197.848 14.1554 197.848 16.2284C197.848 18.7656 195.668 19.1059 194.401 19.1059V19.075Z" stroke="white" stroke-width="0.3" stroke-miterlimit="3.86"/>
<path d="M194.401 19.075L194.046 19.5391C194.741 19.8795 195.437 20.0032 196.117 20.0032C198.636 20.0032 201.062 17.9302 201.062 15.0526C201.062 12.1751 198.419 10.9065 195.421 8.8335C192.546 11.6027 188.157 13.9078 188.157 18.8584C188.157 24.9693 193.335 26.934 195.761 27.8622C197.029 26.5937 198.404 25.4334 200.135 24.7527L200.027 24.2886C196.225 24.2886 190.584 23.5924 190.584 18.5335C190.584 15.1919 192.655 13.815 194.617 12.4227C195.653 12.8868 197.848 14.1554 197.848 16.2284C197.848 18.7656 195.668 19.1059 194.401 19.1059V19.075Z" fill="white"/>
<path d="M194.401 19.075L194.046 19.5391C194.741 19.8795 195.437 20.0032 196.117 20.0032C198.636 20.0032 201.062 17.9302 201.062 15.0526C201.062 12.1751 198.419 10.9065 195.421 8.8335C192.546 11.6027 188.157 13.9078 188.157 18.8584C188.157 24.9693 193.335 26.934 195.761 27.8622C197.029 26.5937 198.404 25.4334 200.135 24.7527L200.027 24.2886C196.225 24.2886 190.584 23.5924 190.584 18.5335C190.584 15.1919 192.655 13.815 194.617 12.4227C195.653 12.8868 197.848 14.1554 197.848 16.2284C197.848 18.7656 195.668 19.1059 194.401 19.1059V19.075Z" stroke="white" stroke-width="0.3" stroke-miterlimit="3.86"/>
<path fill-rule="evenodd" clip-rule="evenodd" d="M101.314 13.6604C101.314 12.3918 102.813 11.9277 104.653 11.9277C106.384 11.9277 108.331 12.8405 109.722 14.1245C110.649 13.1963 111.561 12.3918 112.488 11.5873C110.186 9.74635 107.883 8.81812 104.884 8.81812C100.742 8.81812 98.3159 11.479 98.3159 13.5521C98.3159 17.6982 109.722 17.6982 109.722 21.9681C109.722 23.3449 108.578 24.7373 105.92 24.7373C103.849 24.7373 101.654 23.0046 100.155 21.736C99.2433 22.7725 98.0841 23.8091 96.9404 24.7373C99.5833 26.8103 102.473 27.8469 105.92 27.8469C109.722 27.8469 112.828 25.3097 112.828 21.9681C112.828 16.4451 101.314 16.6617 101.314 13.6759V13.6604Z" fill="white"/>
<path d="M101.314 13.6604C101.314 12.3918 102.813 11.9277 104.653 11.9277C106.384 11.9277 108.331 12.8405 109.722 14.1245C110.649 13.1963 111.561 12.3918 112.488 11.5873C110.186 9.74635 107.883 8.81812 104.884 8.81812C100.742 8.81812 98.3159 11.479 98.3159 13.5521C98.3159 17.6982 109.722 17.6982 109.722 21.9681C109.722 23.3449 108.578 24.7373 105.92 24.7373C103.849 24.7373 101.654 23.0046 100.155 21.736C99.2433 22.7725 98.0841 23.8091 96.9404 24.7373C99.5833 26.8103 102.473 27.8469 105.92 27.8469C109.722 27.8469 112.828 25.3097 112.828 21.9681C112.828 16.4451 101.314 16.6617 101.314 13.6759V13.6604Z" stroke="white" stroke-width="0.3" stroke-miterlimit="3.86"/>
<path d="M101.314 13.6604C101.314 12.3918 102.813 11.9277 104.653 11.9277C106.384 11.9277 108.331 12.8405 109.722 14.1245C110.649 13.1963 111.561 12.3918 112.488 11.5873C110.186 9.74635 107.883 8.81812 104.884 8.81812C100.742 8.81812 98.3159 11.479 98.3159 13.5521C98.3159 17.6982 109.722 17.6982 109.722 21.9681C109.722 23.3449 108.578 24.7373 105.92 24.7373C103.849 24.7373 101.654 23.0046 100.155 21.736C99.2433 22.7725 98.0841 23.8091 96.9404 24.7373C99.5833 26.8103 102.473 27.8469 105.92 27.8469C109.722 27.8469 112.828 25.3097 112.828 21.9681C112.828 16.4451 101.314 16.6617 101.314 13.6759V13.6604Z" fill="white"/>
<path d="M101.314 13.6604C101.314 12.3918 102.813 11.9277 104.653 11.9277C106.384 11.9277 108.331 12.8405 109.722 14.1245C110.649 13.1963 111.561 12.3918 112.488 11.5873C110.186 9.74635 107.883 8.81812 104.884 8.81812C100.742 8.81812 98.3159 11.479 98.3159 13.5521C98.3159 17.6982 109.722 17.6982 109.722 21.9681C109.722 23.3449 108.578 24.7373 105.92 24.7373C103.849 24.7373 101.654 23.0046 100.155 21.736C99.2433 22.7725 98.0841 23.8091 96.9404 24.7373C99.5833 26.8103 102.473 27.8469 105.92 27.8469C109.722 27.8469 112.828 25.3097 112.828 21.9681C112.828 16.4451 101.314 16.6617 101.314 13.6759V13.6604Z" stroke="white" stroke-width="0.3" stroke-miterlimit="3.86"/>
<path fill-rule="evenodd" clip-rule="evenodd" d="M125.966 4.78022C127.125 4.78022 128.037 3.85199 128.037 2.6917C128.037 1.53141 127.109 0.618652 125.966 0.618652C124.822 0.618652 123.895 1.54688 123.895 2.6917C123.895 3.83652 124.806 4.78022 125.966 4.78022Z" fill="white"/>
<path d="M125.966 4.78022C127.125 4.78022 128.037 3.85199 128.037 2.6917C128.037 1.53141 127.109 0.618652 125.966 0.618652C124.822 0.618652 123.895 1.54688 123.895 2.6917C123.895 3.83652 124.806 4.78022 125.966 4.78022Z" stroke="white" stroke-width="0.3" stroke-miterlimit="3.86"/>
<path d="M125.966 4.78022C127.125 4.78022 128.037 3.85199 128.037 2.6917C128.037 1.53141 127.109 0.618652 125.966 0.618652C124.822 0.618652 123.895 1.54688 123.895 2.6917C123.895 3.83652 124.806 4.78022 125.966 4.78022Z" fill="white"/>
<path d="M125.966 4.78022C127.125 4.78022 128.037 3.85199 128.037 2.6917C128.037 1.53141 127.109 0.618652 125.966 0.618652C124.822 0.618652 123.895 1.54688 123.895 2.6917C123.895 3.83652 124.806 4.78022 125.966 4.78022Z" stroke="white" stroke-width="0.3" stroke-miterlimit="3.86"/>
<path fill-rule="evenodd" clip-rule="evenodd" d="M127.464 18.5024C127.464 14.4646 128.16 11.9274 128.16 10.7826C128.16 10.5506 127.001 9.51404 126.089 8.81787C125.162 9.62234 123.786 10.5506 122.179 11.123V11.5716C124.822 12.2678 125.177 12.8402 125.177 18.4869C125.177 22.8651 124.605 24.9382 122.411 26.5471V27.0112H130.355V26.5471C128.052 24.9227 127.464 22.8651 127.464 18.4869V18.5024Z" fill="white"/>
<path d="M127.464 18.5024C127.464 14.4646 128.16 11.9274 128.16 10.7826C128.16 10.5506 127.001 9.51404 126.089 8.81787C125.162 9.62234 123.786 10.5506 122.179 11.123V11.5716C124.822 12.2678 125.177 12.8402 125.177 18.4869C125.177 22.8651 124.605 24.9382 122.411 26.5471V27.0112H130.355V26.5471C128.052 24.9227 127.464 22.8651 127.464 18.4869V18.5024Z" stroke="white" stroke-width="0.3" stroke-miterlimit="3.86"/>
<path d="M127.464 18.5024C127.464 14.4646 128.16 11.9274 128.16 10.7826C128.16 10.5506 127.001 9.51404 126.089 8.81787C125.162 9.62234 123.786 10.5506 122.179 11.123V11.5716C124.822 12.2678 125.177 12.8402 125.177 18.4869C125.177 22.8651 124.605 24.9382 122.411 26.5471V27.0112H130.355V26.5471C128.052 24.9227 127.464 22.8651 127.464 18.4869V18.5024Z" fill="white"/>
<path d="M127.464 18.5024C127.464 14.4646 128.16 11.9274 128.16 10.7826C128.16 10.5506 127.001 9.51404 126.089 8.81787C125.162 9.62234 123.786 10.5506 122.179 11.123V11.5716C124.822 12.2678 125.177 12.8402 125.177 18.4869C125.177 22.8651 124.605 24.9382 122.411 26.5471V27.0112H130.355V26.5471C128.052 24.9227 127.464 22.8651 127.464 18.4869V18.5024Z" stroke="white" stroke-width="0.3" stroke-miterlimit="3.86"/>
<path d="M17.1619 74.8307V71.6902H26.1413V78.2806C24.874 80.1526 23.2358 81.5758 21.2266 82.5505C19.2019 83.5251 16.8528 84.0047 14.179 84.0047C10.1606 84.0047 6.88415 82.9218 4.33404 80.7559C1.78393 78.59 0.516602 75.8363 0.516602 72.4946C0.516602 69.153 1.79938 66.3993 4.36495 64.2025C6.93051 62.0211 10.207 60.9227 14.1945 60.9227C16.7137 60.9227 18.9392 61.3559 20.8866 62.2222C22.8339 63.0886 24.4567 64.3726 25.7395 66.0434L23.1121 67.9308C22.1848 66.7241 20.9484 65.7804 19.372 65.0843C17.7955 64.3881 16.0645 64.0477 14.179 64.0477C11.1961 64.0477 8.75423 64.8367 6.85324 66.4147C4.95225 68.0082 3.99402 70.0039 3.99402 72.4173C3.99402 74.8307 4.93679 76.8419 6.83778 78.4199C8.72332 79.9979 11.1807 80.7869 14.1635 80.7869C16.0336 80.7869 17.7646 80.4465 19.3565 79.7658C20.9484 79.0851 22.0612 78.2187 22.6794 77.1667V74.8152H17.1464L17.1619 74.8307ZM36.6045 83.3086V61.4951H40.0201V80.168H56.1862V83.3086H36.5891H36.6045ZM71.7033 80.8023C74.6089 80.8023 76.989 80.0133 78.8281 78.4353C80.6673 76.8573 81.5791 74.8462 81.5791 72.4173C81.5791 69.9884 80.6518 67.9927 78.8127 66.4147C76.9735 64.8367 74.5934 64.0477 71.7033 64.0477C68.8131 64.0477 66.4485 64.8367 64.6248 66.4147C62.8011 67.9927 61.8738 70.0039 61.8738 72.4328C61.8738 74.8616 62.7856 76.8728 64.6248 78.4508C66.4485 80.0288 68.8131 80.8178 71.7033 80.8178V80.8023ZM71.7033 83.9893C67.824 83.9893 64.6402 82.8908 62.1365 80.694C59.6328 78.4972 58.3809 75.7435 58.3809 72.4173C58.3809 69.0911 59.6328 66.3219 62.121 64.156C64.6093 61.9902 67.8086 60.9072 71.7033 60.9072C75.598 60.9072 78.8436 61.9902 81.3319 64.156C83.8202 66.3219 85.072 69.0757 85.072 72.4328C85.072 75.7899 83.8202 78.5282 81.3164 80.725C78.8127 82.9218 75.6134 84.0047 71.7033 84.0047V83.9893ZM106.617 64.682H96.7562V69.8182H106.678C107.76 69.8182 108.579 69.6017 109.151 69.1685C109.692 68.7353 109.97 68.101 109.97 67.2347C109.97 66.3683 109.692 65.7495 109.151 65.3163C108.595 64.8832 107.76 64.682 106.632 64.682H106.617ZM107.76 73.0052H96.7407V80.1526H107.76C108.95 80.1526 109.878 79.8432 110.527 79.2089C111.176 78.5746 111.516 77.6928 111.516 76.5479C111.516 75.4031 111.191 74.5368 110.527 73.9179C109.878 73.2991 108.95 72.9897 107.76 72.9897V73.0052ZM93.3251 83.2931V61.5415H106.725C108.935 61.5415 110.604 61.9902 111.748 62.9029C112.891 63.8157 113.448 65.1462 113.448 66.9253C113.448 67.8226 113.278 68.5961 112.922 69.2923C112.567 69.9884 112.041 70.5454 111.361 70.9631C112.567 71.6438 113.479 72.4637 114.097 73.4538C114.7 74.4285 115.009 75.5269 115.009 76.7645C115.009 78.7912 114.329 80.3846 112.984 81.5449C111.64 82.7207 109.769 83.2931 107.389 83.2931H93.3406H93.3251ZM128.084 74.8616H136.6L132.365 66.5076L128.084 74.8616ZM120.202 83.2931L131.283 61.4796H133.431L144.605 83.2931H140.958L138.13 77.7546H126.631L123.818 83.2931H120.217H120.202ZM150.494 83.2931V61.4796H153.91V80.1526H170.076V83.2931H150.478H150.494ZM208.822 74.8152V71.6747H217.801V78.2652C216.534 80.1371 214.896 81.5604 212.887 82.535C210.862 83.5097 208.513 83.9893 205.839 83.9893C201.821 83.9893 198.544 82.9063 195.994 80.7404C193.444 78.5746 192.177 75.8208 192.177 72.4792C192.177 69.1375 193.459 66.3838 196.025 64.187C198.59 62.0056 201.867 60.9072 205.854 60.9072C208.374 60.9072 210.599 61.3404 212.547 62.2068C214.494 63.0731 216.117 64.3572 217.415 66.028L214.788 67.9154C213.86 66.7087 212.624 65.765 211.047 65.0688C209.471 64.3726 207.74 64.0323 205.854 64.0323C202.872 64.0323 200.43 64.8213 198.529 66.3993C196.628 67.9927 195.669 69.9884 195.669 72.4018C195.669 74.8152 196.612 76.8264 198.513 78.4044C200.399 79.9824 202.856 80.7714 205.854 80.7714C207.725 80.7714 209.456 80.431 211.047 79.7503C212.639 79.0696 213.752 78.2033 214.37 77.1513V74.7998H208.837L208.822 74.8152ZM230.181 70.5763H241.757C242.931 70.5763 243.828 70.3133 244.446 69.8028C245.064 69.2923 245.373 68.5497 245.373 67.606C245.373 66.6623 245.064 65.9197 244.446 65.4246C243.828 64.9296 242.931 64.6666 241.757 64.6666H230.181V70.5763ZM230.181 73.7632V83.2931H226.765V61.5415H241.772C243.998 61.5415 245.744 62.083 246.996 63.1505C248.264 64.2179 248.882 65.7031 248.882 67.606C248.882 69.153 248.387 70.499 247.398 71.6283C246.409 72.7577 245.111 73.4538 243.503 73.7168L249.546 83.2931H245.853L239.686 73.7632H230.196H230.181ZM258.789 83.2931V61.4332H262.25V83.2931H258.789ZM273.996 83.2931V61.4796H277.412V80.1526H293.578V83.2931H273.981H273.996ZM300.131 83.2931V61.4796H303.547V80.1526H319.713V83.2931H300.116H300.131Z" fill="#F39200" stroke="#F39200" stroke-width="0.5" stroke-miterlimit="3.86"/>
<path d="M0.546875 43.6575H319.712" stroke="#F39200" stroke-width="0.39" stroke-miterlimit="3.86"/>
</g>
<defs>
<clipPath id="clip0_227_3651">
<rect width="320" height="83.9895" fill="white" transform="translate(0.129883 0.401855)"/>
</clipPath>
</defs>
</svg>
