<svg width="317" height="149" viewBox="0 0 317 149" fill="none" xmlns="http://www.w3.org/2000/svg">
<g clip-path="url(#clip0_227_3415)">
<path d="M157.938 36.4917V72.1827C157.938 72.3616 158.085 72.5079 158.264 72.5079H159.615C159.794 72.5079 159.94 72.3616 159.94 72.1827V36.4917C159.94 36.4917 159.94 36.3941 159.989 36.3453C160.721 35.3372 163.358 32.0526 167.053 32.0038C169.364 31.9713 170.764 33.3209 171.545 34.4429C172.684 36.1177 172.977 38.0526 172.782 38.9469C172.749 39.077 172.831 39.1908 172.945 39.2396L174.198 39.7437C174.458 39.8412 174.621 39.7762 174.67 39.6299C175.175 37.9551 174.572 35.3209 173.205 33.3209C172.896 32.8656 172.538 32.4591 172.164 32.0851C172.05 31.9876 172.066 31.8087 172.164 31.7112C172.831 31.0608 173.4 30.1014 173.466 28.703C173.466 28.5567 173.352 28.4266 173.205 28.4266H171.74C171.594 28.4266 171.48 28.5404 171.48 28.6868C171.399 29.9388 170.682 30.4591 170.275 30.6543C170.21 30.6868 170.129 30.6868 170.064 30.6543C169.136 30.2315 168.111 30.0038 167.037 30.0201C164.205 30.0526 161.926 31.516 160.38 32.9307C160.217 33.077 159.94 32.9632 159.94 32.7356V26.5242H157.938V32.7356C157.938 32.9632 157.662 33.0933 157.499 32.9307C155.953 31.516 153.69 30.0526 150.842 30.0201C149.768 30.0038 148.759 30.2315 147.814 30.6543C147.749 30.6868 147.668 30.6868 147.619 30.6543C147.212 30.4591 146.496 29.9388 146.415 28.6868C146.415 28.5404 146.301 28.4266 146.154 28.4266H144.689C144.543 28.4266 144.413 28.5567 144.429 28.703C144.494 30.1014 145.064 31.077 145.731 31.7112C145.845 31.8087 145.845 31.9713 145.731 32.0851C145.357 32.4591 145.015 32.8656 144.689 33.3209C143.322 35.3209 142.72 37.9551 143.225 39.6299C143.273 39.7762 143.436 39.8412 143.583 39.7925L144.95 39.2396C145.064 39.1908 145.145 39.077 145.113 38.9469C144.901 38.0526 145.194 36.1177 146.333 34.4429C147.115 33.3209 148.514 31.9713 150.826 32.0038C154.52 32.0526 157.157 35.3372 157.889 36.3453C157.922 36.3941 157.938 36.4429 157.938 36.4917Z" fill="#1D1D1B"/>
<path d="M165.1 41.7924C165.669 41.4184 166.271 41.0119 167.004 40.0363C168.339 38.2639 168.729 35.8087 168.745 35.6948L168.892 34.7355C168.924 34.5566 168.762 34.394 168.583 34.4265L167.622 34.5729C163.928 35.1257 161.975 38.02 161.893 38.1501L161.73 38.394V44.2965C161.73 44.5404 162.04 44.6704 162.202 44.4916L163.439 43.1745C164.139 42.4265 164.628 42.1013 165.1 41.7924ZM163.716 39.1257C163.716 39.1257 163.732 39.0119 163.781 38.9469C164.172 38.4753 165.035 37.5647 166.369 36.9794C166.158 37.581 165.848 38.2802 165.425 38.833C164.904 39.5322 164.53 39.7761 164.009 40.1176C163.911 40.1826 163.814 40.2477 163.716 40.3127V39.1095V39.1257Z" fill="#1D1D1B"/>
<path d="M169.201 49.142C169.722 49.0281 170.194 48.9306 170.617 48.7517C172.294 48.02 173.303 47.0607 173.596 45.9224C173.856 44.9794 173.596 44.0037 172.88 43.0119C171.968 41.7761 170.878 41.4834 170.145 41.4672C167.948 41.4184 165.881 43.4834 164.856 44.7192C163.326 46.5728 163.179 49.7761 163.195 52.02V52.2476C163.195 53.8086 164.123 55.4834 166.711 55.4834C167.802 55.4834 168.453 55.0281 168.811 54.6379C169.706 53.6785 169.624 52.3289 169.608 52.1826L167.623 52.3289C167.623 52.4265 167.623 53.0119 167.346 53.2883C167.297 53.3371 167.151 53.4997 166.695 53.4997C165.637 53.4997 165.165 53.1094 165.165 52.2476V51.9875C165.165 51.8411 165.165 51.6785 165.165 51.5322C166.337 49.7273 167.834 49.4021 169.169 49.1257M166.353 45.9712C167.655 44.394 169.055 43.4346 170.015 43.4346H170.048C170.324 43.4346 170.764 43.5322 171.236 44.1826C171.594 44.6541 171.724 45.0607 171.626 45.4021C171.545 45.6948 171.203 46.2802 169.771 46.9143C169.543 47.0119 169.152 47.0932 168.746 47.1907C167.802 47.3859 166.581 47.646 165.376 48.459C165.572 47.3371 165.897 46.5241 166.337 45.9875" fill="#1D1D1B"/>
<path d="M178.283 49.142C178.3 48.9469 178.055 48.8656 177.958 49.0119L176.053 51.8412C174.475 54.1826 173.335 54.703 170.845 55.8574C170.243 56.1338 169.576 56.4428 168.827 56.8168C164.758 58.8168 162.691 61.5973 162.609 61.7273L162.414 61.9875V68.0363C162.414 68.1989 162.609 68.2802 162.723 68.1664L164.139 66.6542C166.613 64.0038 168.876 62.9143 171.073 61.8412C172.098 61.3534 173.059 60.8818 173.97 60.2802C177.111 58.2477 177.844 52.7517 177.876 52.5078L178.3 49.1257L178.283 49.142ZM174.556 56.5891C174.117 57.4347 173.563 58.1989 172.863 58.6379C172.049 59.1745 171.138 59.6135 170.178 60.0688C168.404 60.9306 166.451 61.8737 164.383 63.646V62.7355C164.383 62.7355 164.383 62.6542 164.432 62.6217C165.035 61.9062 166.825 60.0363 169.706 58.6054C170.438 58.2477 171.089 57.9387 171.691 57.6623C172.701 57.1908 173.547 56.8005 174.328 56.329C174.491 56.2314 174.67 56.4103 174.589 56.5729" fill="#1D1D1B"/>
<path d="M178.007 45.0607C177.974 45.7437 178.772 46.5404 178.772 46.5404C180.107 48.1827 182.141 46.8819 182.939 46.264C183.085 46.1502 183.053 45.9388 182.89 45.8575C182.271 45.5323 181.897 44.6217 181.409 44.1664C180.806 43.6136 179.7 43.9063 179.26 43.8412C178.902 43.7924 176.835 41.4835 176.103 40.638C175.989 40.5079 175.761 40.5404 175.712 40.7193L175.273 41.89C175.24 41.9876 175.273 42.0851 175.338 42.1502C175.891 42.6054 178.023 44.4591 178.007 45.0607Z" fill="#1D1D1B"/>
<path d="M184.37 37.9227C184.631 37.3211 184.794 36.6219 184.745 35.8902C184.696 35.2723 184.468 34.6382 184.126 34.1179C184.029 33.9715 183.817 33.939 183.671 34.0528L181.831 35.4837C181.978 35.6951 182.043 35.874 182.076 36.1179C182.108 36.3455 182.076 36.6219 181.962 36.9146C181.766 37.5 181.262 38.1016 180.741 38.378C180.269 38.6382 179.536 38.6707 178.739 38.4105C178.348 38.2805 177.941 38.1179 177.551 37.9065C177.355 37.8089 177.16 37.6951 176.965 37.565L176.672 37.3699L176.542 37.2723C176.542 37.2723 176.525 37.2236 176.444 37.2561C176.379 37.2886 176.232 37.4187 175.972 37.6301C175.76 37.8902 175.663 38.0528 175.63 38.1341C175.598 38.2154 175.663 38.1992 175.663 38.2317L175.793 38.378C176.102 38.7032 176.639 39.191 176.997 39.4675C177.307 39.6951 177.616 39.9227 177.974 40.1016C178.462 40.3618 179.016 40.5731 179.634 40.687C180.253 40.8008 180.969 40.752 181.604 40.5244C182.873 40.0528 183.785 39.126 184.338 37.939" fill="#1D1D1B"/>
<path d="M164.352 26.4917L163.489 28.134C163.375 28.3453 163.587 28.573 163.798 28.4917L165.556 27.8901C165.963 27.7437 166.435 27.6299 166.972 27.5161C169.251 26.9795 172.376 26.2315 176.07 21.9063C178.854 18.6543 177.649 13.9714 177.584 13.7762L177.031 11.6787C176.966 11.4348 176.64 11.4185 176.542 11.6461L175.712 13.6461C174.736 16.0039 172.311 18.6055 168.518 21.386C166.109 23.1421 164.417 26.3616 164.352 26.4917ZM169.69 22.9957C172.425 20.9957 174.459 19.1096 175.875 17.2559C175.777 18.3616 175.419 19.5974 174.557 20.6055C172.099 23.4835 169.999 24.5567 168.193 25.1258C167.949 25.2071 167.753 24.9144 167.916 24.7193C168.437 24.0852 169.023 23.4673 169.674 22.9957" fill="#1D1D1B"/>
<path d="M183.817 29.5323C183.052 30.5241 183.231 32.2802 183.817 32.4916C184.94 32.8981 185.461 31.5648 185.624 30.4103C185.738 29.6298 186.129 28.9794 186.373 28.6542C186.47 28.5241 186.422 28.3127 186.259 28.264C185.526 28.0363 184.485 28.6705 183.817 29.5323Z" fill="#1D1D1B"/>
<path d="M183.297 28.2153C183.297 28.2153 185.201 27.3209 184.859 26.134C184.518 24.9632 183.85 24.2153 183.411 24.2803C182.988 24.3291 181.718 25.3372 181.588 25.8738C181.425 26.5242 181.588 27.6299 181.588 27.6299C181.588 27.6299 182.499 27.5486 183.281 28.2315" fill="#1D1D1B"/>
<path d="M176.802 27.256C176.916 27.565 177.519 28.0202 178.446 28.817C178.967 27.8902 180.562 27.2235 180.562 27.2235V26.2479C180.562 25.8251 180.416 25.4024 180.139 25.0772C179.748 24.6381 179.309 24.3292 179.081 24.3129C178.642 24.2804 178.235 23.9715 177.193 24.6056C176.151 25.2398 176.705 26.9633 176.802 27.256Z" fill="#1D1D1B"/>
<path d="M175.761 29.012C175.126 29.0445 174.719 30.0851 174.638 31.012C174.556 31.9388 176.119 32.9144 176.558 32.8494C176.998 32.8006 178.137 31.4347 178.137 31.4347V29.5973C177.502 29.0445 176.379 28.9957 175.761 29.0282" fill="#1D1D1B"/>
<path d="M177.73 34.0365C178.381 34.3129 179.456 34.4755 179.928 34.4267C180.562 34.3779 182.402 34.0527 182.369 32.8332C182.369 32.3617 181.083 31.6787 179.993 31.9877C179.098 32.2316 178.154 32.7519 177.6 33.321C177.389 33.5486 177.47 33.9064 177.747 34.0365" fill="#1D1D1B"/>
<path d="M178.935 30.069C178.772 30.6381 179.342 31.4511 179.7 31.2072C180.058 30.9633 181.1 31.1259 181.523 31.2072C181.946 31.2885 182.369 30.6381 182.499 30.069C182.63 29.5162 182.434 28.7194 181.816 28.4267C180.204 27.6625 179.098 29.5162 178.935 30.069Z" fill="#1D1D1B"/>
<path d="M164.579 22.2804C166.076 20.5405 164.383 18.7194 163.456 17.695C163.293 17.5161 163.033 17.4511 162.805 17.5324C162.382 17.695 161.698 17.9389 161.112 18.069C160.77 18.1503 160.575 18.508 160.689 18.8332C161.242 20.443 162.805 24.3292 164.579 22.2641" fill="#1D1D1B"/>
<path d="M166.695 19.1421C167.639 19.2234 169.331 19.1421 169.185 17.386C169.071 15.9389 167.964 15.386 167.574 15.2397C167.492 15.2072 167.411 15.1909 167.313 15.1909H165.588C165.344 15.1909 165.1 15.321 164.969 15.5161L164.497 16.2153C164.318 16.4755 164.335 16.8169 164.497 17.0771C165.002 17.7763 166.011 19.0771 166.711 19.1259" fill="#1D1D1B"/>
<path d="M164.531 12.4754C164.319 12.7193 164.319 13.1096 164.547 13.3372C165.165 13.9226 166.321 14.4429 167.102 14.3291C168.095 14.1827 170.651 12.8006 169.772 11.2559C168.893 9.72745 167.249 10.0852 166.386 10.6705C165.8 11.077 164.97 11.9551 164.531 12.4754Z" fill="#1D1D1B"/>
<path d="M161.812 12.3943C162.349 12.2967 163.358 11.7926 163.537 11.6788C163.896 11.4512 166.044 10.0203 166.044 8.11783C166.044 6.21539 163.635 6.36173 163.635 6.36173C163.489 8.41051 161.861 10.3617 161.112 11.4186C160.901 11.6951 161.487 12.443 161.828 12.378" fill="#1D1D1B"/>
<path d="M162.773 16.5567C163.342 15.8575 164.693 14.6705 162.691 13.4022C162.463 13.2558 162.187 13.2071 161.926 13.2558C161.226 13.3859 160.429 13.6136 160.054 13.9875C159.078 14.9469 159.127 16.5079 159.664 16.8819C160.217 17.2721 162.17 17.2884 162.773 16.5567Z" fill="#1D1D1B"/>
<path d="M150.273 34.5729L149.312 34.4265C149.133 34.394 148.971 34.5566 149.003 34.7355L149.15 35.6948C149.15 35.7924 149.557 38.2477 150.891 40.0363C151.624 41.0119 152.226 41.4021 152.796 41.7924C153.268 42.1013 153.756 42.4265 154.456 43.1745L155.693 44.4916C155.855 44.6704 156.165 44.5566 156.165 44.2965V38.394L156.002 38.1501C155.921 38.02 153.967 35.1257 150.273 34.5729ZM154.163 40.329C154.065 40.2639 153.967 40.1989 153.87 40.1339C153.349 39.7924 152.991 39.5485 152.454 38.8493C152.031 38.2802 151.721 37.5973 151.51 36.9956C152.844 37.581 153.707 38.4916 154.098 38.9631C154.146 39.0119 154.163 39.0769 154.163 39.1257V40.329Z" fill="#1D1D1B"/>
<path d="M148.254 52.1828C148.254 52.3291 148.172 53.695 149.051 54.638C149.409 55.0283 150.077 55.4836 151.151 55.4836C153.739 55.4836 154.667 53.8088 154.667 52.2478V52.0202C154.683 49.7763 154.536 46.573 153.006 44.7193C151.981 43.4836 149.898 41.4023 147.717 41.4673C146.968 41.4836 145.894 41.7763 144.982 43.012C144.25 44.0039 144.006 44.9795 144.266 45.9226C144.575 47.0608 145.568 48.0039 147.245 48.7519C147.668 48.9307 148.156 49.0445 148.661 49.1421C149.995 49.4185 151.509 49.7437 152.665 51.5486C152.665 51.695 152.665 51.8413 152.665 52.0039V52.2641C152.665 53.1258 152.193 53.5161 151.135 53.5161C150.679 53.5161 150.532 53.3535 150.484 53.3047C150.223 53.012 150.207 52.4429 150.207 52.3454L148.221 52.199L148.254 52.1828ZM149.084 47.1909C148.677 47.1096 148.286 47.0283 148.058 46.9145C146.626 46.2803 146.284 45.695 146.203 45.4023C146.122 45.0771 146.252 44.6543 146.594 44.1828C147.066 43.5324 147.505 43.451 147.782 43.451H147.814C148.775 43.451 150.174 44.4104 151.476 45.9876C151.916 46.5242 152.241 47.3535 152.437 48.4592C151.249 47.6462 150.012 47.386 149.068 47.1909" fill="#1D1D1B"/>
<path d="M149.068 56.8333C148.319 56.4593 147.652 56.1503 147.05 55.8739C144.543 54.7194 143.404 54.1991 141.841 51.8577L139.937 49.0284C139.823 48.8658 139.579 48.9633 139.611 49.1585L140.035 52.5406C140.067 52.7682 140.783 58.2804 143.941 60.3129C144.869 60.9146 145.829 61.3699 146.854 61.8739C149.051 62.9308 151.314 64.0203 153.788 66.6869L155.204 68.1991C155.318 68.3292 155.513 68.2479 155.513 68.069V62.0203L155.318 61.7601C155.236 61.6463 153.153 58.8658 149.084 56.8495M153.511 63.6788C151.428 61.8902 149.475 60.9471 147.717 60.1016C146.757 59.63 145.845 59.191 145.031 58.6707C144.348 58.2316 143.778 57.4674 143.339 56.6219C143.257 56.4593 143.436 56.2804 143.599 56.378C144.38 56.8495 145.227 57.2398 146.236 57.7113C146.822 57.9877 147.473 58.2804 148.221 58.6544C151.102 60.069 152.876 61.9552 153.495 62.6707C153.527 62.7032 153.544 62.7357 153.544 62.7845V63.6951L153.511 63.6788Z" fill="#1D1D1B"/>
<path d="M141.776 40.6382C141.044 41.4674 138.977 43.7926 138.619 43.8414C138.179 43.8902 137.072 43.6138 136.47 44.1666C135.966 44.6219 135.591 45.5325 134.989 45.8577C134.826 45.939 134.794 46.1504 134.94 46.2642C135.738 46.8983 137.772 48.1829 139.107 46.5406C139.107 46.5406 139.904 45.7439 139.872 45.0609C139.856 44.4593 141.988 42.6219 142.541 42.1504C142.623 42.0853 142.639 41.9878 142.606 41.8902L142.167 40.7195C142.102 40.5569 141.89 40.5081 141.776 40.6382Z" fill="#1D1D1B"/>
<path d="M136.259 40.5081C136.91 40.752 137.626 40.7845 138.229 40.6707C138.847 40.5731 139.4 40.3455 139.889 40.0853C140.247 39.8902 140.556 39.6788 140.865 39.4512C141.223 39.1748 141.761 38.687 142.07 38.3618L142.2 38.2154C142.2 38.2154 142.265 38.1829 142.233 38.1179C142.2 38.0366 142.102 37.874 141.891 37.6138C141.63 37.4024 141.484 37.2723 141.419 37.2398C141.354 37.2073 141.354 37.2398 141.321 37.2561L141.191 37.3536L140.898 37.5488C140.703 37.6626 140.507 37.7764 140.312 37.8902C139.921 38.1016 139.514 38.2642 139.124 38.3943C138.326 38.6707 137.594 38.6382 137.122 38.378C136.601 38.0853 136.096 37.5 135.901 36.9146C135.787 36.6219 135.755 36.3455 135.787 36.1179C135.82 35.8902 135.885 35.6951 136.031 35.4837L134.192 34.0528C134.046 33.939 133.834 33.9715 133.736 34.1179C133.395 34.6382 133.167 35.2561 133.118 35.8902C133.053 36.6219 133.232 37.3211 133.492 37.9227C134.046 39.1097 134.973 40.0366 136.227 40.5081" fill="#1D1D1B"/>
<path d="M150.891 27.4997C151.428 27.6298 151.9 27.7436 152.307 27.8737L154.065 28.4753C154.293 28.5566 154.488 28.329 154.374 28.1176L153.528 26.4753C153.463 26.3452 151.77 23.1257 149.361 21.3696C145.569 18.5891 143.144 15.9875 142.167 13.6298L141.337 11.6298C141.24 11.4021 140.914 11.4184 140.849 11.6623L140.296 13.7599C140.247 13.955 139.042 18.6379 141.809 21.89C145.504 26.2152 148.629 26.9469 150.908 27.4997M148.189 22.9794C148.84 23.4509 149.443 24.0851 149.947 24.703C150.11 24.8981 149.915 25.1908 149.671 25.1095C147.88 24.5404 145.764 23.4672 143.307 20.5891C142.444 19.581 142.102 18.3452 141.988 17.2395C143.388 19.0769 145.439 20.9794 148.173 22.9794" fill="#1D1D1B"/>
<path d="M134.062 32.4916C134.647 32.2802 134.826 30.5241 134.062 29.5323C133.394 28.6705 132.353 28.0363 131.62 28.264C131.457 28.3127 131.409 28.5241 131.506 28.6542C131.75 28.9794 132.141 29.6298 132.255 30.4103C132.418 31.5648 132.938 32.8981 134.062 32.4916Z" fill="#1D1D1B"/>
<path d="M134.582 28.2152C135.38 27.5323 136.275 27.6136 136.275 27.6136C136.275 27.6136 136.438 26.5242 136.275 25.8575C136.145 25.3209 134.875 24.3291 134.452 24.264C134.029 24.2152 133.345 24.9469 133.003 26.1177C132.661 27.2884 134.501 28.2478 134.566 28.199" fill="#1D1D1B"/>
<path d="M139.432 28.8167C140.36 28.02 140.962 27.5647 141.076 27.2558C141.19 26.9468 141.727 25.2232 140.686 24.6054C139.644 23.9712 139.237 24.2802 138.798 24.3127C138.57 24.3289 138.13 24.6379 137.74 25.0769C137.463 25.4021 137.316 25.8249 137.316 26.2476V27.2232C137.316 27.2232 138.911 27.8737 139.432 28.8167Z" fill="#1D1D1B"/>
<path d="M143.241 30.9957C143.16 30.0689 142.753 29.0282 142.118 28.9957C141.483 28.9632 140.36 29.0282 139.726 29.5648V31.4022C139.726 31.4022 140.865 32.768 141.304 32.8331C141.744 32.8819 143.306 31.9225 143.225 30.9957" fill="#1D1D1B"/>
<path d="M135.527 32.8493C135.494 34.0526 137.333 34.3778 137.968 34.4428C138.44 34.4753 139.514 34.329 140.165 34.0526C140.442 33.9387 140.54 33.5648 140.312 33.3371C139.759 32.768 138.815 32.2477 137.919 32.0038C136.829 31.6948 135.543 32.3778 135.543 32.8493" fill="#1D1D1B"/>
<path d="M135.379 30.0689C135.51 30.6218 135.933 31.2884 136.356 31.2071C136.779 31.1258 137.821 30.9795 138.179 31.2071C138.537 31.451 139.107 30.638 138.944 30.0689C138.781 29.4998 137.691 27.6624 136.063 28.4266C135.445 28.7193 135.233 29.5161 135.379 30.0689Z" fill="#1D1D1B"/>
<path d="M158.948 24.8332C158.948 24.8332 161.438 24.882 160.787 22.134C160.298 20.1015 159.485 19.0934 159.127 18.7194C159.029 18.6218 158.866 18.6218 158.769 18.7194C158.41 19.0771 157.597 20.0853 157.108 22.134C156.457 24.882 158.899 24.8332 158.948 24.8332Z" fill="#1D1D1B"/>
<path d="M157.19 18.8496C157.303 18.5244 157.108 18.1667 156.766 18.0854C156.18 17.939 155.481 17.6951 155.074 17.5488C154.846 17.4675 154.585 17.5325 154.423 17.7114C153.495 18.752 151.802 20.5569 153.3 22.2967C155.057 24.3455 156.636 20.4593 157.19 18.8658" fill="#1D1D1B"/>
<path d="M153.413 16.2314L152.941 15.5322C152.795 15.3209 152.567 15.207 152.323 15.207H150.598C150.5 15.207 150.419 15.207 150.337 15.2558C149.946 15.4022 148.84 15.955 148.726 17.4022C148.579 19.1583 150.256 19.2233 151.216 19.1583C151.916 19.1095 152.925 17.8087 153.43 17.1095C153.609 16.8493 153.609 16.5078 153.43 16.2477" fill="#1D1D1B"/>
<path d="M150.777 14.3291C151.558 14.4429 152.714 13.9226 153.332 13.3372C153.577 13.1096 153.577 12.7193 153.349 12.4754C152.893 11.9551 152.079 11.077 151.493 10.6705C150.631 10.0852 148.987 9.72745 148.108 11.2559C147.229 12.7844 149.784 14.1827 150.777 14.3291Z" fill="#1D1D1B"/>
<path d="M154.342 11.6787C154.537 11.7925 155.53 12.2965 156.067 12.3941C156.409 12.4591 156.979 11.7274 156.783 11.4348C156.018 10.3778 154.407 8.42663 154.26 6.37785C154.26 6.37785 151.852 6.2315 151.852 8.13394C151.852 10.0364 153.984 11.4673 154.342 11.6949" fill="#1D1D1B"/>
<path d="M158.215 16.8982C158.769 16.508 158.801 14.9633 157.841 14.0039C157.467 13.6462 156.669 13.4023 155.969 13.2722C155.709 13.2234 155.432 13.2722 155.204 13.4185C153.202 14.6868 154.553 15.8738 155.123 16.573C155.725 17.3047 157.678 17.2885 158.232 16.8982" fill="#1D1D1B"/>
<path d="M157.971 10.9145C158.117 11.2559 158.443 11.5811 158.687 11.7925C158.768 11.8738 158.882 11.8901 158.98 11.8738C159.094 11.8738 159.191 11.8738 159.289 11.7925C159.533 11.5811 159.859 11.2559 160.005 10.9145C160.331 10.1177 162.268 8.67056 162.723 4.94698C162.821 4.1665 163.195 3.53235 163.212 3.10959C163.309 1.38601 161.535 3.07706 161.291 2.9795C161.047 2.86568 160.51 2.29658 159.989 1.36975C159.81 1.04454 159.615 0.784382 159.468 0.60552C159.338 0.459178 159.159 0.394138 158.98 0.410398C158.801 0.410398 158.622 0.459178 158.492 0.60552C158.329 0.784382 158.15 1.04454 157.971 1.36975C157.45 2.29658 156.929 2.88194 156.669 2.9795C156.424 3.09333 154.65 1.38601 154.748 3.10959C154.781 3.53235 155.139 4.1665 155.236 4.94698C155.692 8.67056 157.629 10.134 157.954 10.9145M158.768 4.29658C158.768 4.29658 158.866 4.28032 158.915 4.28032C158.915 4.28032 158.947 4.28032 158.964 4.28032C158.964 4.28032 158.996 4.28032 159.012 4.28032C159.061 4.28032 159.11 4.28032 159.159 4.29658C159.566 4.42666 160.607 4.88194 160.428 5.84129C160.282 6.62178 159.696 7.33723 159.322 7.72747C159.24 7.82503 159.11 7.85755 158.996 7.85755C158.996 7.85755 158.964 7.85755 158.947 7.85755C158.947 7.85755 158.915 7.85755 158.898 7.85755C158.784 7.85755 158.671 7.80877 158.573 7.72747C158.199 7.33723 157.613 6.62178 157.466 5.84129C157.287 4.88194 158.345 4.44292 158.736 4.29658" fill="#1D1D1B"/>
<path d="M26.5095 83.5647H23.6449C23.2055 83.5647 22.8799 83.8899 22.9125 84.2476L23.1241 86.1013C23.1458 86.3723 23.1078 86.3886 23.0101 86.1501C22.5219 85.142 20.8291 83.0769 14.8721 83.0769C7.30372 83.0769 0.956055 89.5485 0.956055 97.7436C0.956055 106.508 7.75945 112.459 16.9392 112.459C21.2686 112.459 24.3773 111.174 25.712 110.475C26.2002 110.231 26.363 109.792 26.1514 109.223L25.1749 106.605C24.9633 106.004 24.6866 106.004 24.0844 106.248C22.7985 106.768 20.1944 107.744 16.1905 107.744C11.0472 107.744 6.35971 103.548 6.35971 97.8411C6.35971 92.1338 9.87534 87.8249 15.7022 87.8249C19.2178 87.8249 22.2614 89.646 22.7823 92.5566C22.8148 92.7517 22.9776 93.207 23.5472 93.207H26.7048C27.1117 93.207 27.3884 92.8818 27.3884 92.4428L27.3558 84.394C27.3558 83.9062 27.1443 83.581 26.5095 83.581" fill="#1D1D1B"/>
<path d="M66.516 83.5647H57.0108C56.5225 83.5647 56.1644 83.7598 56.1644 84.3289V87.3533C56.1644 88.0037 56.5225 88.1663 57.0922 88.1663H58.4756C58.8825 88.1663 59.2894 88.4427 59.2894 88.9793V95.6948C59.2894 96.2151 58.9151 96.3452 58.557 96.3452H46.1384C45.7803 96.3452 45.4059 96.2314 45.4059 95.6948V88.9793C45.4059 88.459 45.8128 88.1663 46.2197 88.1663H47.6032C48.1729 88.1663 48.5309 88.0037 48.5309 87.3533V84.3289C48.5309 83.7598 48.1729 83.5647 47.6846 83.5647H38.1794C37.4469 83.5647 37.2842 83.8411 37.2842 84.4102V87.3208C37.2842 87.8411 37.6097 88.1663 38.1794 88.1663H39.5954C40.0837 88.1663 40.4092 88.3614 40.4092 89.0118V106.508C40.4092 106.947 40.2464 107.353 39.6768 107.353H38.0166C37.4958 107.353 37.2842 107.63 37.2842 108.036V111.305C37.2842 111.711 37.6097 111.955 38.0166 111.955H47.5707C48.0915 111.955 48.4984 111.63 48.4984 111.191V108.085C48.4984 107.646 48.2543 107.353 47.7334 107.353H46.3174C45.7477 107.353 45.4222 107.109 45.4222 106.54V101.451C45.4222 101.012 45.6664 100.768 46.1546 100.768H58.5733C59.0616 100.768 59.3057 101.012 59.3057 101.451V106.54C59.3057 107.109 58.9802 107.353 58.4105 107.353H56.962C56.4411 107.353 56.197 107.63 56.197 108.085V111.191C56.197 111.63 56.6039 111.955 57.1247 111.955H66.6625C67.0694 111.955 67.3949 111.711 67.3949 111.305V108.036C67.3949 107.63 67.1996 107.353 66.6625 107.353H65.0512C64.4815 107.353 64.3187 106.947 64.3187 106.508V89.0118C64.3187 88.3614 64.6443 88.1663 65.1325 88.1663H66.5486C67.1182 88.1663 67.4437 87.8411 67.4437 87.3208V84.4102C67.4437 83.8411 67.281 83.5647 66.5486 83.5647" fill="#1D1D1B"/>
<path d="M144.999 83.5647H135.494C134.762 83.5647 134.599 83.8411 134.599 84.4102V87.3208C134.599 87.8411 134.925 88.1663 135.494 88.1663H136.878C137.529 88.1663 137.724 88.3614 137.724 89.0118V100.166C137.724 105.63 135.087 107.89 130.807 107.89C126.526 107.89 124.052 105.63 124.052 100.215V89.0281C124.052 88.459 124.264 88.1826 124.898 88.1826H126.266C126.835 88.1826 127.161 87.8574 127.161 87.3371V84.4265C127.161 83.8574 126.998 83.581 126.266 83.581H116.76C116.272 83.581 115.914 83.7761 115.914 84.3452V87.3696C115.914 88.02 116.272 88.1826 116.842 88.1826H118.095C118.779 88.1826 119.023 88.459 119.023 88.9956V100.231C119.023 108.719 123.678 112.524 130.79 112.524C137.903 112.524 142.721 108.719 142.721 100.231V89.1257C142.721 88.4427 142.965 88.1988 143.486 88.1988H144.902C145.471 88.1988 145.829 88.0362 145.829 87.3858V84.3614C145.829 83.7923 145.471 83.5972 144.983 83.5972" fill="#1D1D1B"/>
<path d="M257.744 83.5647H248.239C247.506 83.5647 247.343 83.8411 247.343 84.4102V87.3208C247.343 87.8411 247.669 88.1663 248.239 88.1663H249.622C250.192 88.1663 250.468 88.4102 250.468 88.9793V101.792C250.468 102.231 250.224 102.231 249.866 101.792L234.73 84.1338C234.371 83.6948 233.916 83.5647 233.444 83.5647H229.082C228.349 83.5647 228.187 83.8411 228.187 84.4102V87.3208C228.187 87.8411 228.512 88.1663 229.082 88.1663H230.742C231.019 88.1663 231.312 88.3289 231.312 88.6541V106.963C231.312 107.207 231.23 107.37 230.905 107.37H228.919C228.398 107.37 228.187 107.646 228.187 108.052V111.321C228.187 111.727 228.512 111.971 228.919 111.971H238.506C239.026 111.971 239.433 111.646 239.433 111.207V108.101C239.433 107.662 239.189 107.37 238.668 107.37H236.731C236.406 107.37 236.325 107.207 236.325 106.931V94.2476C236.325 93.6785 236.52 93.5972 236.813 93.9224L251.331 111.467C251.526 111.744 251.982 111.987 252.422 111.987H254.651C255.302 111.987 255.498 111.662 255.498 111.174V88.9468C255.498 88.3452 255.856 88.1826 256.263 88.1826H257.679C258.248 88.1826 258.607 88.02 258.607 87.3696V84.3452C258.607 83.7761 258.248 83.581 257.76 83.581" fill="#1D1D1B"/>
<path d="M293.991 97.0606H282.712C282.142 97.0606 281.865 97.3858 281.865 97.7436V100.817C281.865 101.386 282.305 101.548 282.712 101.548H289.385C289.662 101.548 289.792 101.76 289.792 101.987V106.231C289.792 106.508 289.678 106.638 289.466 106.719C287.936 107.24 285.788 107.727 283.314 107.727C277.406 107.727 273.044 103.532 273.044 97.8249C273.044 92.1176 276.559 87.8086 282.386 87.8086C286.471 87.8086 288.897 89.8737 289.466 92.3777C289.548 92.7354 289.792 93.1907 290.475 93.1907H293.275C293.796 93.1907 294.089 92.833 294.089 92.2964V83.646C294.089 83.2883 293.926 83.0769 293.519 83.0769H290.117C289.678 83.0769 289.515 83.272 289.548 83.646L289.824 86.3615C289.824 86.5241 289.775 86.394 289.743 86.3289C289.417 85.4834 287.839 83.0932 281.523 83.0932C273.955 83.0932 267.607 89.5647 267.607 97.7598C267.607 105.955 274.004 112.475 283.623 112.475C289.401 112.475 293.34 110.134 294.349 109.435C294.512 109.321 294.626 109.158 294.626 108.833V97.6298C294.626 97.3045 294.43 97.0606 293.975 97.0606" fill="#1D1D1B"/>
<path d="M314.645 88.1663H316.012C316.582 88.1663 316.94 88.0037 316.94 87.3533V84.3289C316.94 83.7598 316.582 83.5647 316.094 83.5647H306.589C305.856 83.5647 305.693 83.8411 305.693 84.4102V87.3208C305.693 87.8411 306.019 88.1663 306.589 88.1663H308.005C308.493 88.1663 308.818 88.3777 308.818 89.0118V106.508C308.818 106.947 308.656 107.353 308.086 107.353H306.426C305.905 107.353 305.693 107.63 305.693 108.036V111.305C305.693 111.711 306.019 111.955 306.426 111.955H316.012C316.533 111.955 316.94 111.63 316.94 111.191V108.085C316.94 107.646 316.696 107.353 316.175 107.353H314.727C314.157 107.353 313.831 107.109 313.831 106.54V88.9631C313.831 88.4427 314.238 88.1501 314.645 88.1501" fill="#1D1D1B"/>
<path d="M92.1019 83.0769C83.5733 83.0769 76.9326 89.5484 76.9326 97.7436C76.9326 105.939 83.4105 112.41 92.1019 112.41C100.793 112.41 107.304 106.101 107.304 97.7436C107.304 89.3858 100.907 83.0769 92.1019 83.0769ZM92.1345 108.02C86.6332 108.02 82.3363 103.532 82.3363 97.8411C82.3363 92.1501 86.5029 87.6135 92.1345 87.6135C97.766 87.6135 101.916 92.02 101.916 97.8411C101.916 103.662 97.6358 108.02 92.1345 108.02Z" fill="#1D1D1B"/>
<path d="M180.384 107.435H179.977C176.624 107.435 176.006 104.41 173.825 102.459C173.743 102.378 173.825 102.345 173.906 102.296C177.584 100.556 179.131 97.4833 179.131 93.6459C179.131 87.7109 175.322 83.5483 167.754 83.5483H156.425C155.937 83.5483 155.579 83.7597 155.579 84.3126V87.337C155.579 87.9874 155.937 88.15 156.507 88.15H157.955C158.395 88.15 158.639 88.3613 158.639 88.8004V106.979C158.639 107.256 158.509 107.337 158.2 107.337H156.344C155.823 107.337 155.579 107.613 155.579 108.069V111.174C155.579 111.613 155.986 111.939 156.507 111.939H166.614C167.135 111.939 167.542 111.613 167.542 111.174V108.069C167.542 107.63 167.298 107.337 166.777 107.337H164.026C163.782 107.337 163.668 107.207 163.668 107.012V104.069C163.668 103.825 163.782 103.711 164.026 103.711H166.777C167.298 103.711 167.786 103.711 168.274 103.678C171.709 105.613 171.302 112.117 178.382 112.117C179.228 112.117 179.879 112.069 180.368 112.004C180.807 111.971 181.1 111.76 181.1 111.353V108.117C181.1 107.711 180.905 107.435 180.368 107.435M167.379 99.2719H164.629C163.978 99.2719 163.668 98.8654 163.668 98.3451V89.1744C163.668 88.3613 164.075 88.1662 164.759 88.1662H167.379C172.116 88.1662 173.694 90.5565 173.694 93.6622C173.694 96.7679 172.083 99.2719 167.379 99.2719Z" fill="#1D1D1B"/>
<path d="M218.453 107.353H217.362C216.679 107.353 216.06 106.914 215.865 106.426L206.034 84.524C205.758 83.8735 205.595 83.5483 204.781 83.5483H203.886C203.398 83.5483 203.121 83.8248 202.795 84.524L192.883 106.622C192.688 107.109 192.313 107.353 191.793 107.353H190.295C189.726 107.353 189.481 107.841 189.481 108.329V110.995C189.481 111.565 189.758 111.955 190.409 111.955H199.182C199.914 111.955 200.11 111.548 200.11 110.995V108.329C200.11 107.89 199.898 107.353 199.133 107.353H198.612C198.091 107.353 197.766 107.158 197.961 106.67L198.694 104.979C198.856 104.622 199.052 104.41 199.67 104.41H208.85C209.42 104.41 209.745 104.622 209.94 105.061L210.592 106.589C210.803 107.077 210.705 107.353 210.152 107.353H209.713C209.192 107.353 208.785 107.711 208.785 108.443V110.914C208.785 111.597 208.948 111.955 209.68 111.955H218.453C219.055 111.955 219.348 111.435 219.348 110.914V108.329C219.348 107.76 219.104 107.353 218.453 107.353ZM207.287 100.41H201.347C200.989 100.41 200.777 100.166 200.94 99.8085L204.13 92.4101C204.206 92.2475 204.271 92.1662 204.325 92.1662C204.325 92.1662 204.455 92.215 204.521 92.4101L207.727 99.8085C207.841 100.134 207.759 100.41 207.287 100.41Z" fill="#1D1D1B"/>
<path d="M1.65592 126.297H6.19695V126.736C5.80632 126.866 5.28549 127.321 5.28549 127.793V136.02C5.28549 138.02 5.62729 139.565 6.6364 140.541C7.54786 141.451 8.91506 141.988 10.3799 141.988C15.8487 141.988 15.8487 137.809 15.8487 135.776V128.004C15.8487 127.175 15.4255 126.849 14.7744 126.736V126.297H19.0225V126.736C18.404 126.784 17.9646 127.305 17.9646 127.939V136.589C17.9646 141.37 15.2953 144.118 10.266 144.118C7.69435 144.118 5.74122 143.354 4.45541 142.02C2.99056 140.557 2.55111 138.703 2.55111 136.167V128.134C2.55111 127.516 2.3558 126.98 1.63965 126.768V126.329L1.65592 126.297Z" fill="#1D1D1B"/>
<path d="M24.2962 133.988C24.931 133.467 26.4447 132.476 28.6257 132.476C31.0671 132.476 32.6621 134.037 32.6621 136.654V141.76C32.6621 142.524 32.9714 142.963 33.6224 143.175V143.614H29.3744V143.175C30.058 142.98 30.2858 142.394 30.2858 141.711V137.435C30.2858 136.215 30.1719 134.459 27.7142 134.459C26.5423 134.459 25.1426 135.077 24.3125 135.809V141.906C24.3125 142.541 24.5892 143.028 25.224 143.175V143.614H21.041V143.175C21.6595 143.028 21.9525 142.492 21.9525 141.858V136.199C21.9525 135.614 21.7083 135.224 21.041 135.142V134.719C21.9688 134.199 23.0267 133.272 23.8242 132.476H24.3125V133.988H24.2962Z" fill="#1D1D1B"/>
<path d="M46.3985 140.833C45.1452 142.931 43.4199 144.004 41.0599 144.004C37.9837 144.004 35.4609 141.955 35.4609 138.102C35.4609 135.711 36.9746 132.541 41.1087 132.541C42.2318 132.541 43.5501 132.882 44.5267 133.809C45.6986 134.963 45.8614 135.988 46.431 136.378L46.61 136.996L38.0814 139.37C38.5697 141.175 39.7741 142.102 41.3529 142.102C42.4759 142.102 43.7943 141.614 45.0964 139.955L46.3985 140.866V140.833ZM43.5339 136.069C42.9154 134.768 42.0202 134.167 40.8158 134.167C39.3509 134.167 37.8372 135.24 37.8372 137.614L43.5339 136.069Z" fill="#1D1D1B"/>
<path d="M55.6273 132.882H59.1429V133.321C58.7197 133.419 58.0687 134.134 57.792 134.427L54.6833 137.744L58.2803 142.02C58.6221 142.443 59.0778 143.077 59.4847 143.175V143.614H55.3994V143.175C55.6273 143.126 55.7087 143.028 55.7087 142.882C55.7087 142.606 55.3669 142.199 55.0739 141.858L53.0882 139.484L50.6956 142.004C50.305 142.427 50.1585 142.687 50.1585 142.866C50.1585 143.061 50.3538 143.158 50.5166 143.191V143.63H47.1475V143.191C47.6357 143.061 48.0101 142.622 48.4495 142.134L52.014 138.199L48.5147 134.02C48.238 133.695 48.0915 133.5 47.7008 133.337V132.898H51.8187V133.337C51.5746 133.451 51.4443 133.581 51.4443 133.744C51.4443 133.89 51.5746 134.085 51.7699 134.329L53.6091 136.476L55.5134 134.443C55.8389 134.134 56.0016 133.906 56.0016 133.711C56.0016 133.565 55.8877 133.435 55.611 133.321V132.882H55.6273Z" fill="#1D1D1B"/>
<path d="M63.944 133.939C65.7344 132.671 66.8574 132.492 67.8014 132.492C71.6426 132.492 72.8145 135.89 72.8145 137.955C72.8145 141.662 70.3893 143.939 67.2481 143.939C66.1738 143.939 65.0182 143.646 63.944 143.158V146.817C63.944 147.386 64.3021 147.727 64.8555 147.939V148.378H60.7051V147.939C61.2747 147.825 61.584 147.37 61.584 146.817V136.297C61.584 135.614 61.3398 135.272 60.7051 135.175V134.752C61.7467 134.134 63.1465 132.801 63.4883 132.508H63.9603V133.923L63.944 133.939ZM63.944 140.882C64.8066 141.695 66.0274 142.15 67.1178 142.15C69.0222 142.15 70.3893 140.784 70.3893 138.589C70.3893 136.215 69.1198 134.492 66.8737 134.492C65.7507 134.492 64.6439 135.158 63.944 135.711V140.882Z" fill="#1D1D1B"/>
<path d="M75.0443 127.971C75.972 127.451 77.1764 126.508 77.8763 125.776H78.3158V142.069C78.3158 142.557 78.7064 143.028 79.1947 143.175V143.614H75.0117V143.175C75.6465 143.045 75.9395 142.508 75.9395 142.118V129.565C75.9395 128.752 75.5977 128.411 75.028 128.345V127.988L75.0443 127.971Z" fill="#1D1D1B"/>
<path d="M81.2292 138.281C81.2292 135.077 83.752 132.362 87.5606 132.362C91.3692 132.362 93.3711 135.386 93.3711 138.118C93.3711 141.679 90.7832 144.102 87.0886 144.102C83.638 144.102 81.2129 141.565 81.2129 138.264M90.946 138.622C90.946 136.297 89.4323 134.004 87.0886 134.004C85.5261 134.004 83.5892 135.11 83.5892 137.793C83.5892 140.085 85.054 142.329 87.3815 142.329C89.3672 142.329 90.946 140.72 90.946 138.622Z" fill="#1D1D1B"/>
<path d="M95.0319 134.736C95.9108 134.248 97.2292 133.191 97.7988 132.508H98.3359V134.606C98.8568 134.069 99.7031 133.402 100.436 133.045C100.956 132.801 101.656 132.524 102.438 132.524C102.633 132.524 102.828 132.541 103.023 132.573L103.609 135.451L102.991 135.597C102.551 134.915 102.031 134.573 101.396 134.573C100.533 134.573 99.4915 135.24 98.3197 136.557V141.971C98.3197 142.541 98.6777 142.947 99.2474 143.142L99.2149 143.581H95.0319V143.142C95.6178 142.898 95.9434 142.606 95.9434 141.825V136.232C95.9434 135.614 95.7155 135.207 95.0156 135.158V134.719L95.0319 134.736Z" fill="#1D1D1B"/>
<path d="M115.817 140.833C114.564 142.931 112.838 144.004 110.494 144.004C107.418 144.004 104.896 141.955 104.896 138.102C104.896 135.711 106.409 132.541 110.543 132.541C111.666 132.541 112.985 132.882 113.961 133.809C115.133 134.963 115.312 135.988 115.866 136.378L116.045 136.996L107.516 139.37C108.004 141.175 109.209 142.102 110.787 142.102C111.91 142.102 113.229 141.614 114.531 139.955L115.833 140.866L115.817 140.833ZM112.952 136.069C112.334 134.768 111.438 134.167 110.234 134.167C108.769 134.167 107.256 135.24 107.256 137.614L112.952 136.069Z" fill="#1D1D1B"/>
<path d="M125.729 127.955C126.754 127.37 127.763 126.459 128.561 125.679H129V140.085C129 140.752 129.147 141.24 129.879 141.305V141.744C128.284 142.703 127.438 143.679 127.112 143.988H126.624V142.573C124.834 143.874 123.206 143.939 122.864 143.939C120.195 143.939 117.786 141.646 117.786 138.394C117.786 135.142 120.065 132.508 123.45 132.508C125.013 132.508 126.071 133.142 126.624 133.451V129.37C126.624 128.849 126.331 128.459 125.713 128.345V127.923L125.729 127.955ZM126.64 135.89C125.761 134.784 124.606 134.28 123.336 134.28C121.546 134.28 120.162 135.695 120.162 137.744C120.162 139.988 121.416 141.971 123.466 141.971C124.72 141.971 125.664 141.532 126.64 140.671V135.874V135.89Z" fill="#1D1D1B"/>
<path d="M151.152 127.971C152.079 127.451 153.284 126.508 153.984 125.776H154.423V142.069C154.423 142.557 154.814 143.028 155.302 143.175V143.614H151.119V143.175C151.754 143.045 152.047 142.508 152.047 142.118V129.565C152.047 128.752 151.705 128.411 151.135 128.345V127.988L151.152 127.971Z" fill="#1D1D1B"/>
<path d="M157.987 133.646C159.159 133.028 160.852 132.524 162.333 132.524C166.125 132.524 166.727 134.573 166.955 136.703L167.395 140.589C167.508 141.549 167.834 142.183 168.566 142.183C168.713 142.183 168.859 142.15 169.006 142.134L169.299 143.24C168.566 143.614 167.899 143.809 167.313 143.809C166.499 143.809 165.848 143.435 165.376 142.703C163.472 143.614 162.593 144.004 160.933 144.004C158.101 144.004 157.189 142.199 157.189 140.654C157.189 139.695 157.531 138.72 158.231 138.037C159.354 136.882 162.072 136.476 164.465 136.232C164.416 135.321 163.977 134.248 162.072 134.248C160.673 134.248 159.452 134.785 159.159 135.988L158.736 136.053L157.954 133.663L157.987 133.646ZM164.742 137.939C163.326 137.988 161.34 138.459 160.656 138.752C159.973 139.077 159.533 139.63 159.533 140.394C159.533 141.549 160.347 142.281 161.568 142.281C162.674 142.281 164.204 141.533 165.018 141.028L164.742 137.955V137.939Z" fill="#1D1D1B"/>
<path d="M177.958 132.882H181.328V133.321C180.986 133.532 180.563 134.15 180.351 134.622L176.022 144.02H174.361L169.527 134.443C169.234 133.906 168.909 133.484 168.795 133.321V132.882H172.783V133.321C172.245 133.419 172.05 133.776 172.05 134.15C172.05 134.313 172.083 134.476 172.148 134.589L175.517 141.191L178.251 135.272C178.447 134.833 178.577 134.492 178.577 134.199C178.577 133.809 178.382 133.516 177.958 133.321V132.882Z" fill="#1D1D1B"/>
<path d="M182.353 138.281C182.353 135.077 184.875 132.362 188.684 132.362C192.493 132.362 194.494 135.386 194.494 138.118C194.494 141.679 191.907 144.102 188.212 144.102C184.761 144.102 182.353 141.565 182.353 138.264M192.086 138.622C192.086 136.297 190.572 134.004 188.228 134.004C186.666 134.004 184.729 135.11 184.729 137.793C184.729 140.085 186.194 142.329 188.521 142.329C190.507 142.329 192.086 140.72 192.086 138.622Z" fill="#1D1D1B"/>
<path d="M196.09 134.719C197.001 134.199 198.124 133.175 198.824 132.476H199.361V139.337C199.361 140.801 199.882 142.004 201.884 142.004C202.958 142.004 204.212 141.565 205.383 140.638V136.004C205.383 135.695 205.172 135.175 204.391 135.191V134.719C205.367 134.199 206.539 133.207 207.206 132.476H207.776V140.394C207.776 140.98 208.069 141.256 208.704 141.37V141.76C207.744 142.28 206.474 143.321 205.872 144.037H205.4V142.492C203.756 143.711 202.145 144.004 201.119 144.004C198.531 144.004 197.018 142.541 197.018 139.679V136.183C197.018 135.598 196.725 135.175 196.106 135.159V134.719H196.09Z" fill="#1D1D1B"/>
<path d="M210.413 134.736C211.292 134.248 212.61 133.191 213.18 132.508H213.717V134.606C214.238 134.069 215.084 133.402 215.816 133.045C216.337 132.801 217.037 132.524 217.818 132.524C218.014 132.524 218.209 132.541 218.404 132.573L218.99 135.451L218.372 135.597C217.932 134.915 217.411 134.573 216.777 134.573C215.914 134.573 214.872 135.24 213.701 136.557V141.971C213.701 142.541 214.059 142.947 214.628 143.142L214.596 143.581H210.413V143.142C210.999 142.898 211.324 142.606 211.324 141.825V136.232C211.324 135.614 211.096 135.207 210.396 135.158V134.719L210.413 134.736Z" fill="#1D1D1B"/>
<path d="M220.585 140.118C221.35 141.435 222.668 142.199 224.231 142.199C225.386 142.199 225.924 141.679 225.924 140.947C225.924 139.923 224.703 139.679 222.554 138.508C220.943 137.63 220.357 136.671 220.357 135.533C220.357 133.533 221.968 132.524 224.117 132.524C225.289 132.524 226.396 132.768 227.519 133.207L227.812 135.939H227.226C226.103 134.638 225.126 134.232 224.247 134.232C223.189 134.232 222.685 134.622 222.685 135.337C222.685 136.378 224.247 136.736 226.233 137.825C228.218 138.947 228.316 140.297 228.316 140.801C228.316 143.175 226.233 143.972 224.019 143.972C222.75 143.972 221.692 143.728 220.276 143.012L219.999 140.102H220.618L220.585 140.118Z" fill="#1D1D1B"/>
<path d="M140.507 131.11C140.507 128.427 142.2 125.841 145.666 125.841C147.115 125.841 148.401 126.167 149.703 127.093L148.645 130.02L148.205 129.906C148.059 128.118 146.903 127.288 145.569 127.288C143.632 127.288 142.851 128.931 142.851 131.093V132.898H146.692V134.687H142.851V141.793C142.851 142.492 143.192 143.11 143.925 143.191V143.63H139.416V143.191C140.198 143.045 140.491 142.557 140.491 141.532V134.687H138.603V132.898H140.491V131.11H140.507Z" fill="#1D1D1B"/>
<path d="M233.134 138.28C233.134 135.077 235.657 132.362 239.466 132.362C243.274 132.362 245.276 135.386 245.276 138.118C245.276 141.679 242.688 144.101 238.994 144.101C235.543 144.101 233.118 141.565 233.118 138.264M242.851 138.622C242.851 136.297 241.338 134.004 238.994 134.004C237.431 134.004 235.494 135.11 235.494 137.792C235.494 140.085 236.959 142.329 239.287 142.329C241.272 142.329 242.851 140.719 242.851 138.622Z" fill="#1D1D1B"/>
<path d="M248.824 131.11C248.824 128.427 250.517 125.841 253.984 125.841C255.432 125.841 256.718 126.167 258.02 127.093L256.962 130.02L256.523 129.906C256.376 128.118 255.221 127.288 253.886 127.288C251.949 127.288 251.168 128.931 251.168 131.093V132.898H255.009V134.687H251.168V141.793C251.168 142.492 251.51 143.11 252.242 143.191V143.63H247.734V143.191C248.515 143.045 248.808 142.557 248.808 141.532V134.687H246.92V132.898H248.808V131.11H248.824Z" fill="#1D1D1B"/>
<path d="M262.008 126.297H266.581V126.736C265.963 126.866 265.67 127.37 265.67 127.988V141.906C265.67 142.817 266.109 143.028 266.598 143.175V143.614H262.057V143.175C262.675 143.045 262.984 142.687 262.984 141.76V128.183C262.984 127.646 262.838 126.915 262.008 126.736V126.297Z" fill="#1D1D1B"/>
<path d="M272.343 133.988C272.978 133.467 274.492 132.476 276.673 132.476C279.114 132.476 280.709 134.037 280.709 136.654V141.76C280.709 142.524 281.035 142.963 281.669 143.175V143.614H277.421V143.175C278.105 142.98 278.333 142.394 278.333 141.711V137.435C278.333 136.215 278.203 134.459 275.761 134.459C274.589 134.459 273.189 135.077 272.359 135.809V141.906C272.359 142.541 272.636 143.028 273.271 143.175V143.614H269.088V143.175C269.706 143.028 269.999 142.492 269.999 141.858V136.199C269.999 135.614 269.755 135.224 269.088 135.142V134.719C270.016 134.199 271.074 133.272 271.871 132.476H272.359V133.988H272.343Z" fill="#1D1D1B"/>
<path d="M291.386 127.955C292.411 127.37 293.421 126.459 294.218 125.679H294.658V140.085C294.658 140.752 294.804 141.24 295.536 141.305V141.744C293.941 142.703 293.095 143.679 292.77 143.988H292.281V142.573C290.491 143.874 288.863 143.939 288.521 143.939C285.852 143.939 283.443 141.646 283.443 138.394C283.443 135.142 285.722 132.508 289.107 132.508C290.67 132.508 291.728 133.142 292.281 133.451V129.37C292.281 128.849 291.988 128.459 291.37 128.345V127.923L291.386 127.955ZM292.298 135.89C291.419 134.784 290.263 134.28 288.993 134.28C287.203 134.28 285.82 135.695 285.82 137.744C285.82 139.988 287.073 141.971 289.124 141.971C290.377 141.971 291.321 141.532 292.298 140.671V135.874V135.89Z" fill="#1D1D1B"/>
<path d="M297.718 134.817C298.597 134.199 299.899 133.256 300.55 132.475H301.022V141.906C301.022 142.573 301.266 143.061 301.884 143.175V143.614H297.734V143.175C298.32 143.126 298.662 142.557 298.662 141.825V136.394C298.662 135.662 298.336 135.24 297.734 135.142V134.801L297.718 134.817ZM299.508 129.646C299.183 129.175 298.646 128.524 298.141 128.28V127.858C298.629 127.467 299.215 126.801 299.557 126.443H300.045C300.289 126.898 301.006 127.5 301.412 127.841V128.313C301.022 128.54 300.387 129.24 300.013 129.662H299.492L299.508 129.646Z" fill="#1D1D1B"/>
<path d="M304.912 133.646C306.084 133.028 307.776 132.524 309.257 132.524C313.05 132.524 313.652 134.573 313.88 136.703L314.319 140.589C314.433 141.549 314.759 142.183 315.491 142.183C315.638 142.183 315.784 142.15 315.931 142.134L316.224 143.24C315.491 143.614 314.824 143.809 314.238 143.809C313.424 143.809 312.773 143.435 312.301 142.703C310.397 143.614 309.518 144.004 307.858 144.004C305.026 144.004 304.114 142.199 304.114 140.654C304.114 139.695 304.456 138.719 305.156 138.036C306.279 136.882 308.997 136.475 311.39 136.231C311.341 135.321 310.901 134.248 308.997 134.248C307.597 134.248 306.377 134.784 306.084 135.988L305.677 136.053L304.896 133.662L304.912 133.646ZM311.666 137.939C310.25 137.988 308.265 138.459 307.581 138.752C306.897 139.077 306.458 139.63 306.458 140.394C306.458 141.549 307.272 142.28 308.493 142.28C309.599 142.28 311.129 141.532 311.943 141.028L311.666 137.955V137.939Z" fill="#1D1D1B"/>
</g>
<defs>
<clipPath id="clip0_227_3415">
<rect width="316" height="148" fill="white" transform="translate(0.939453 0.394043)"/>
</clipPath>
</defs>
</svg>
