<svg width="469" height="52" viewBox="0 0 469 52" fill="none" xmlns="http://www.w3.org/2000/svg">
<path d="M9.262 12.2415V22.1134H31.1942V28.4096H9.262V39.6418H35.151V45.938H1.09961V5.94531H33.4326V12.2415H9.262Z" fill="#1D1D1B" stroke="#1D1D1B" stroke-miterlimit="10"/>
<path d="M44.4443 5.94531H59.8647C65.5625 5.94531 70.9438 6.17851 74.6746 8.93797C77.5235 11.0561 79.2193 14.3403 79.2193 18.052C79.2193 21.7636 77.5235 25.2227 74.6746 27.3408C70.9438 30.1003 65.5625 30.3335 59.8647 30.3335H52.6067V45.9186H44.4443V5.94531ZM52.6067 23.9984H61.0404C64.2964 23.9984 66.1278 23.7652 67.4844 23.2405C69.5194 22.366 70.8082 20.3645 70.8082 18.0714C70.8082 15.7783 69.5194 13.7767 67.4844 12.9606C66.1278 12.4359 64.2964 12.2027 61.0404 12.2027H52.6067V24.0178V23.9984Z" fill="#1D1D1B" stroke="#1D1D1B" stroke-miterlimit="10"/>
<path d="M96.6966 45.9186H88.5342V5.94531H96.6966V45.938V45.9186Z" fill="#1D1D1B" stroke="#1D1D1B" stroke-miterlimit="10"/>
<path d="M136.966 16.2253C134.389 13.4659 130.183 11.406 125.005 11.406C119.827 11.406 116.504 13.699 116.504 16.75C116.504 19.801 118.742 20.8115 123.965 21.8025L129.527 22.8519C138.165 24.562 144.405 26.9717 144.405 34.259C144.405 41.5463 137.418 46.5988 125.864 46.5988C115.803 46.5988 108.952 42.3042 105.764 38.4176L112.547 34.1812C114.65 37.1739 119.76 40.3026 126.271 40.3026C132.444 40.3026 135.655 38.0678 135.655 34.9003C135.655 31.7327 132.467 30.6056 127.786 29.7311L121.614 28.5457C114.062 27.1271 107.753 24.3677 107.753 17.0804C107.753 9.79305 115.418 5.20691 125.209 5.20691C134.999 5.20691 140.426 9.26837 143.139 11.8529L136.966 16.2059V16.2253Z" fill="#1D1D1B" stroke="#1D1D1B" stroke-miterlimit="10"/>
<path d="M174.477 5.24573C187.93 5.24573 196.341 13.7184 196.341 25.9417C196.341 38.1649 188.518 46.6376 174.477 46.6376C160.436 46.6376 152.612 38.1066 152.612 25.9417C152.612 13.7767 161.046 5.24573 174.477 5.24573ZM174.477 40.2248C182.707 40.2248 187.455 34.6476 187.455 25.9417C187.455 17.2358 182.571 11.542 174.477 11.542C166.382 11.542 161.498 17.2552 161.498 25.9417C161.498 34.6281 166.246 40.2248 174.477 40.2248Z" fill="#1D1D1B" stroke="#1D1D1B" stroke-miterlimit="10"/>
<path d="M207.014 45.9186V5.94531H219.924C227.386 5.94531 232.089 5.94531 236.769 8.76307C241.789 11.9306 245.406 17.9937 245.406 25.8056C245.406 32.51 242.964 38.2038 238.691 41.7406C233.739 45.9186 228.358 45.9186 219.743 45.9186H207.036H207.014ZM215.244 39.5058H220.603C225.758 39.5058 229.715 39.4475 232.564 37.0961C234.734 35.1528 236.701 30.9748 236.701 26.0388C236.701 21.1029 235.073 17.158 231.953 14.8067C229.24 12.7468 225.78 12.4553 219.721 12.4553H215.244V39.5058Z" fill="#1D1D1B" stroke="#1D1D1B" stroke-miterlimit="10"/>
<path d="M264.218 12.2415V22.1134H286.15V28.4096H264.218V39.6418H290.107V45.938H256.078V5.94531H288.411V12.2415H264.218Z" fill="#1D1D1B" stroke="#1D1D1B" stroke-miterlimit="10"/>
<path d="M354.073 44.4223C359.997 44.4223 363.84 42.6344 366.214 40.73C368.295 38.1649 370.963 34.084 370.963 27.6906C370.963 14.554 364.089 7.42218 348.624 7.09182L357.215 0.348633C372.455 1.12595 379.736 9.46262 379.736 19.7426C379.736 29.0898 374.874 35.4054 366.101 40.866C363.433 44.1113 356.379 51.4764 346.317 51.4764C328.116 51.4764 321.242 41.9349 321.242 31.5966C321.242 20.5976 328.952 13.3298 338.539 5.86755C332.909 10.7646 329.879 16.3807 329.879 23.9401C329.879 37.4653 337.522 44.4028 354.05 44.4028M348.239 31.2274L337.861 38.8839L337.748 15.72C338.404 14.9427 339.579 13.835 341.727 12.2804L347.945 7.57764L348.239 31.2274ZM367.142 29.2452L358.075 36.3188L350.071 30.7416L359.205 23.4737L367.142 29.2452Z" fill="#1D1D1B"/>
<path d="M354.073 44.4223C359.997 44.4223 363.84 42.6344 366.214 40.73C368.295 38.1649 370.963 34.084 370.963 27.6906C370.963 14.554 364.089 7.42218 348.624 7.09182L357.215 0.348633C372.455 1.12595 379.736 9.46262 379.736 19.7426C379.736 29.0898 374.874 35.4054 366.101 40.866C363.433 44.1113 356.379 51.4764 346.317 51.4764C328.116 51.4764 321.242 41.9349 321.242 31.5966C321.242 20.5976 328.952 13.3298 338.539 5.86755C332.909 10.7646 329.879 16.3807 329.879 23.9401C329.879 37.4653 337.522 44.4028 354.05 44.4028L354.073 44.4223ZM348.262 31.2468L337.884 38.9033L337.77 15.7394C338.426 14.9621 339.602 13.8544 341.75 12.2998L347.968 7.59707L348.262 31.2468ZM367.164 29.2647L358.097 36.3382L350.093 30.761L359.228 23.4931L367.164 29.2647Z" fill="#1D1D1B"/>
<path d="M411.255 49.6109C409.649 48.6004 409.604 46.4045 409.604 40.7495C409.604 38.7091 410.147 28.8761 410.147 25.864C410.147 23.9207 409.672 21.4527 408.609 20.2868C406.484 18.2074 404.042 17.3718 401.849 17.3718C400.831 17.3718 399.113 18.5378 397.394 19.7426C397.394 27.1077 397.462 36.9407 397.756 46.4045C397.756 48.9696 398.344 49.3582 399.542 49.6109H385.614C386.021 49.4165 386.451 49.1834 386.496 46.8903C386.79 35.1529 386.79 23.2405 386.79 20.6754C386.79 14.4763 385.953 13.1549 382.811 12.9217C387.74 12.9217 394.907 12.397 397.394 12.1444V19.6649C399.588 17.8771 402.911 15.4091 405.76 13.8545C407.84 12.6885 409.129 12.1638 410.621 12.1638C415.596 12.1638 420.751 16.1476 420.751 20.9863C420.751 25.8251 420.208 36.5909 420.208 41.1965C420.208 48.4255 423.057 49.3777 425.137 49.6303H411.277L411.255 49.6109Z" fill="#1D1D1B"/>
<path d="M411.255 49.6109C409.649 48.6004 409.604 46.4045 409.604 40.7495C409.604 38.7091 410.147 28.8761 410.147 25.864C410.147 23.9207 409.672 21.4527 408.609 20.2868C406.484 18.2074 404.042 17.3718 401.849 17.3718C400.831 17.3718 399.113 18.5378 397.394 19.7426C397.394 27.1077 397.462 36.9407 397.756 46.4045C397.756 48.9696 398.344 49.3582 399.542 49.6109H385.614C386.021 49.4165 386.451 49.1834 386.496 46.8903C386.79 35.1529 386.79 23.2405 386.79 20.6754C386.79 14.4763 385.953 13.1549 382.811 12.9217C387.74 12.9217 394.907 12.397 397.394 12.1444V19.6649C399.588 17.8771 402.911 15.4091 405.76 13.8545C407.84 12.6885 409.129 12.1638 410.621 12.1638C415.596 12.1638 420.751 16.1476 420.751 20.9863C420.751 25.8251 420.208 36.5909 420.208 41.1965C420.208 48.4255 423.057 49.3777 425.137 49.6303H411.277L411.255 49.6109Z" fill="#1D1D1B"/>
<path d="M429.977 23.6874C431.876 21.7441 433.187 20.5781 436.669 17.7215C440.174 14.8649 444.38 11.95 446.618 11.95C450.643 11.95 455.798 14.2819 459.416 17.1385L436.828 33.2289C437.596 39.0976 439.722 40.7882 445.013 42.7315C447.093 43.5088 449.987 43.8392 451.231 43.8392C454.373 43.8392 456.499 43.023 468.053 32.7819C456.612 43.1591 452.338 46.8901 449.693 48.4448C447.613 49.5524 445.488 50.1937 443.046 50.1937C439.722 50.1937 436.059 49.3193 433.504 48.0173C428.462 45.5882 426.562 41.3712 426.562 33.2872C426.562 27.6711 427.263 26.5051 429.931 23.6874M436.805 33.19L449.964 23.2987C446.415 20.4421 442.503 18.4016 438.297 18.4016C437.642 18.4016 437.416 18.3045 436.941 18.4405C436.534 20.1895 436.466 22.5991 436.466 25.9027C436.466 28.8565 436.534 31.2273 436.828 33.1706" fill="#1D1D1B"/>
<path d="M429.977 23.6874C431.876 21.7441 433.187 20.5781 436.669 17.7215C440.174 14.8649 444.38 11.95 446.618 11.95C450.643 11.95 455.798 14.2819 459.416 17.1385L436.828 33.2289C437.596 39.0976 439.722 40.7882 445.013 42.7315C447.093 43.5088 449.987 43.8392 451.231 43.8392C454.373 43.8392 456.499 43.023 468.053 32.7819C456.612 43.1591 452.338 46.8901 449.693 48.4448C447.613 49.5524 445.488 50.1937 443.046 50.1937C439.722 50.1937 436.059 49.3193 433.504 48.0173C428.462 45.5882 426.562 41.3712 426.562 33.2872C426.562 27.6711 427.263 26.5051 429.931 23.6874H429.977ZM436.85 33.19L450.01 23.2987C446.46 20.4421 442.548 18.4016 438.343 18.4016C437.687 18.4016 437.461 18.3045 436.986 18.4405C436.579 20.1895 436.511 22.5991 436.511 25.9027C436.511 28.8565 436.579 31.2273 436.873 33.1706L436.85 33.19Z" fill="#1D1D1B"/>
</svg>
