<svg width="314" height="129" viewBox="0 0 314 129" fill="none" xmlns="http://www.w3.org/2000/svg">
<g clip-path="url(#clip0_227_4023)">
<path d="M22.0105 88.9343L9.2948 65.1223V86.2607C9.2948 86.7787 9.41208 87.1798 9.64662 87.4471C9.88117 87.7145 10.3 87.9317 10.9031 88.0988V88.9343H0.78418V88.0988C1.38729 87.9317 1.80612 87.7145 2.04067 87.4471C2.27521 87.1798 2.39249 86.7787 2.39249 86.2607V57.1014C2.39249 56.6001 2.27521 56.1991 2.04067 55.9317C1.80612 55.6644 1.38729 55.4471 0.78418 55.28V54.4612H14.0527V55.28C13.2653 55.4805 12.8632 55.9484 12.8632 56.667C12.8632 57.0012 12.9805 57.3855 13.2151 57.8367L22.6136 75.5829L32.1462 58.1375C32.565 57.3521 32.7828 56.8006 32.7828 56.4497C32.7828 55.7646 32.364 55.3803 31.5263 55.28V54.4612H44.577V55.28C43.9739 55.4471 43.5551 55.6644 43.3206 55.9317C43.086 56.1991 42.9687 56.5834 42.9687 57.1014V86.2607C42.9687 86.7787 43.086 87.1798 43.3206 87.4471C43.5551 87.7145 43.9739 87.9317 44.577 88.0988V88.9343H33.8047V88.0988C34.3911 87.9484 34.8099 87.7312 35.0445 87.4471C35.279 87.1631 35.413 86.7787 35.413 86.244V65.1056L22.0105 88.9176V88.9343ZM63.7762 73.7949V83.2529H85.9407C86.4433 83.2529 86.8454 83.1359 87.1134 82.902C87.3815 82.668 87.5993 82.2503 87.7668 81.6487H88.5877V90.5385H87.7668C87.5993 89.9369 87.3815 89.5192 87.1134 89.2852C86.8454 89.0513 86.46 88.9343 85.9407 88.9343H54.5955V88.0988C55.1986 87.9317 55.6174 87.7145 55.8519 87.4471C56.0865 87.1798 56.2038 86.7787 56.2038 86.2607V57.1348C56.2038 56.6168 56.0865 56.2158 55.8519 55.9484C55.6174 55.6811 55.1986 55.4638 54.5955 55.2967V54.4779H85.3208C85.8234 54.4779 86.2255 54.361 86.4768 54.127C86.7449 53.8931 86.9626 53.4753 87.1302 52.8737H87.9678V61.7636H87.1302C86.9626 61.162 86.7449 60.761 86.4768 60.5103C86.2087 60.2764 85.8234 60.1594 85.3208 60.1594H63.7595V68.3307H77.7484C78.251 68.3307 78.6363 68.2137 78.9044 67.9798C79.1724 67.7458 79.3902 67.3281 79.5577 66.7265H80.3786V75.4158H79.5577C79.3902 74.8309 79.1724 74.4132 78.9044 74.1792C78.6363 73.9453 78.251 73.8116 77.7484 73.8116H63.7595L63.7762 73.7949ZM108.943 83.2529H126.886C127.388 83.2529 127.79 83.1359 128.058 82.902C128.326 82.668 128.544 82.2503 128.712 81.6487H129.533V90.5385H128.712C128.544 89.9369 128.326 89.5192 128.058 89.2852C127.79 89.0513 127.405 88.9343 126.886 88.9343H96.6962V87.163L116.767 60.1427H99.5275C99.0082 60.1427 98.6061 60.2596 98.3381 60.4769C98.07 60.7108 97.8522 61.1286 97.6847 61.7301H96.847V52.8403H97.6847C97.869 53.4586 98.0868 53.8597 98.3548 54.0936C98.6061 54.3275 99.0082 54.4445 99.5275 54.4445H129.281V55.8816L108.96 83.2194L108.943 83.2529ZM149.67 83.2529H167.613C168.115 83.2529 168.517 83.1359 168.785 82.902C169.053 82.668 169.271 82.2503 169.439 81.6487H170.276V90.5385H169.439C169.271 89.9369 169.053 89.5192 168.785 89.2852C168.517 89.0513 168.132 88.9343 167.613 88.9343H137.407V87.163L157.477 60.1427H140.238C139.718 60.1427 139.316 60.2596 139.048 60.4769C138.78 60.7108 138.562 61.1286 138.395 61.7301H137.557V52.8403H138.395C138.579 53.4586 138.797 53.8597 139.065 54.0936C139.333 54.3275 139.718 54.4445 140.238 54.4445H169.991V55.8816L149.67 83.2194V83.2529ZM214.304 57.1348V76.4518C214.304 80.1114 213.634 82.8351 212.277 84.6565C209.847 87.915 204.838 89.5526 197.232 89.5526C191.737 89.5526 187.532 88.667 184.6 86.8957C182.891 85.8764 181.719 84.4727 181.065 82.7014C180.429 80.9469 180.11 78.8581 180.11 76.4351V57.1181C180.11 56.6001 179.993 56.1991 179.759 55.9317C179.524 55.6644 179.105 55.4471 178.502 55.28V54.4612H189.274V55.28C188.671 55.4304 188.269 55.6476 188.018 55.9317C187.783 56.1991 187.666 56.6001 187.666 57.1348V74.3463C187.666 76.3181 187.783 77.8053 188.001 78.7578C188.219 79.7103 188.638 80.5124 189.241 81.1474C190.849 82.8518 193.613 83.7207 197.517 83.7207C201.42 83.7207 204.218 82.8518 205.827 81.1474C206.413 80.5124 206.815 79.7103 207.033 78.7578C207.251 77.8053 207.368 76.3181 207.368 74.3463V57.1348C207.368 56.6168 207.251 56.2158 207.016 55.9484C206.782 55.6811 206.363 55.4638 205.76 55.2967V54.4779H215.912V55.2967C215.309 55.4638 214.89 55.6811 214.656 55.9484C214.421 56.2158 214.304 56.6168 214.304 57.1348ZM233.687 65.3395V86.2774C233.687 86.7954 233.804 87.1965 234.039 87.4638C234.274 87.7312 234.692 87.9484 235.295 88.1155V88.951H225.193V88.1155C225.796 87.9484 226.215 87.7312 226.45 87.4638C226.684 87.1965 226.802 86.7954 226.802 86.2774V57.1181C226.802 56.6168 226.684 56.2158 226.45 55.9484C226.215 55.6811 225.796 55.4638 225.193 55.2967V54.4779H236.904V55.2967C236.183 55.4805 235.832 55.8649 235.832 56.4664C235.832 56.8675 236.066 57.3187 236.535 57.8033L255.667 77.5547V57.1181C255.667 56.6168 255.55 56.2158 255.316 55.9484C255.081 55.6811 254.662 55.4638 254.059 55.2967V54.4779H264.161V55.2967C263.558 55.4638 263.139 55.6811 262.905 55.9484C262.67 56.2158 262.553 56.6001 262.553 57.1181V86.2774C262.553 86.7954 262.67 87.1965 262.905 87.4638C263.139 87.7312 263.558 87.9484 264.161 88.1155V88.951H253.305V88.1155C254.009 87.9651 254.361 87.5975 254.361 87.0294C254.361 86.6952 253.942 86.1103 253.121 85.2581L233.687 65.3395ZM299.812 80.1113H284.232L281.886 84.974C281.568 85.6591 281.4 86.1771 281.4 86.5615C281.4 87.3134 281.97 87.8315 283.092 88.1155V88.951H271.667V88.1155C272.337 87.9818 272.856 87.7479 273.208 87.4137C273.56 87.0795 273.962 86.4278 274.414 85.4419L287.113 58.973C287.515 58.1375 287.716 57.4523 287.716 56.951C287.716 56.1824 287.23 55.6309 286.242 55.28V54.4612H298.489V55.28C297.483 55.5641 296.997 56.0654 296.997 56.7672C296.997 57.2518 297.148 57.8033 297.467 58.4215L310.601 84.9573C311.154 86.0936 311.64 86.8623 312.075 87.2633C312.494 87.6811 313.064 87.9484 313.767 88.0821V88.9176H301.018V88.0821C302.141 87.8983 302.677 87.3803 302.677 86.5114C302.677 86.1437 302.509 85.6257 302.174 84.9406L299.779 80.0779L299.812 80.1113ZM297.651 75.4158L292.106 63.2508L286.46 75.4158H297.651Z" fill="#1D1D1B"/>
<path d="M100.867 21.659L105.123 15.1086L104.369 14.7243C104.118 14.7911 103.883 14.8246 103.665 14.858C103.431 14.8914 103.213 14.9081 102.995 14.9081C102.56 14.9081 101.99 14.7744 101.303 14.5238C100.616 14.2898 99.7785 14.0058 98.8068 13.6883C97.8519 13.3708 96.7126 13.0867 95.4561 12.8528C94.1829 12.6021 92.7589 12.4684 91.1673 12.4684C88.6041 12.4684 86.3089 12.8528 84.265 13.5713C82.2211 14.2898 80.462 15.2924 79.0213 16.5791C77.5637 17.8658 76.458 19.3697 75.6874 21.0909C74.9167 22.7953 74.5314 24.6502 74.5146 26.6554C74.5146 28.6105 74.9335 30.4486 75.7041 32.153C76.4915 33.8575 77.5805 35.3447 79.0045 36.6481C80.4285 37.9347 82.1038 38.9541 84.064 39.6726C86.0073 40.3911 88.1518 40.7588 90.4972 40.7755C92.1223 40.7755 93.6133 40.6084 94.9536 40.3243C96.3106 40.0235 97.5 39.6559 98.5722 39.2214C99.6444 38.787 100.566 38.3525 101.353 37.918C102.141 37.4836 102.794 37.1159 103.313 36.8152C103.816 36.5144 104.201 36.364 104.469 36.3473C104.587 36.3473 104.704 36.3807 104.821 36.4475C104.938 36.5144 105.056 36.5979 105.207 36.7316L105.893 36.3473L101.755 30.4152L101.001 30.7327C101.068 30.9499 101.102 31.1337 101.135 31.2841C101.169 31.4345 101.186 31.5347 101.186 31.6016C101.186 31.8188 100.934 32.1363 100.432 32.5374C99.9293 32.9384 99.2256 33.3729 98.3377 33.8073C97.4498 34.2418 96.3943 34.6261 95.2049 34.9269C94.0154 35.2277 92.7086 35.3948 91.3181 35.4115C89.2575 35.4115 87.4984 35.0272 85.9906 34.3086C84.4996 33.5734 83.3436 32.5541 82.5227 31.2507C81.7018 29.9473 81.2997 28.3932 81.2829 26.6052C81.2829 24.8173 81.7185 23.2465 82.5562 21.9097C83.3771 20.5562 84.5498 19.5201 86.0409 18.7682C87.5319 18.0162 89.291 17.6152 91.3181 17.6152C92.4908 17.6152 93.6301 17.7488 94.7023 17.9828C95.7745 18.2 96.7294 18.5008 97.5671 18.8684C98.4047 19.2193 99.0581 19.587 99.5439 19.988C100.03 20.3723 100.281 20.7233 100.281 21.0575C100.281 21.0909 100.281 21.1243 100.281 21.1911C100.281 21.2413 100.264 21.2914 100.231 21.3081L100.918 21.6757L100.867 21.659ZM131.14 16.5958L121.558 36.1468C121.323 36.6648 121.089 37.1327 120.871 37.5504C120.636 37.9682 120.351 38.3358 120.016 38.6366C119.681 38.9374 119.195 39.1713 118.609 39.3384V40.1572H128.058V39.3384C127.505 39.1546 127.103 38.9541 126.852 38.7368C126.6 38.5196 126.483 38.2355 126.483 37.9013C126.483 37.7509 126.517 37.5838 126.567 37.3833C126.634 37.1995 126.701 36.9823 126.801 36.765L128.359 33.3896H140.824L142.516 36.765C142.616 36.9823 142.683 37.1828 142.75 37.3833C142.801 37.5671 142.834 37.7342 142.834 37.9013C142.834 38.2355 142.717 38.5196 142.449 38.7368C142.181 38.9541 141.779 39.1713 141.209 39.3384V40.1572H151.73V39.3384C151.194 39.188 150.758 38.9708 150.407 38.6867C150.055 38.4026 149.753 38.0517 149.485 37.6173C149.217 37.1828 148.932 36.6982 148.664 36.1468L138.763 16.5958C138.663 16.3786 138.596 16.1781 138.529 16.011C138.478 15.8272 138.445 15.6434 138.445 15.4763C138.445 15.1253 138.579 14.858 138.847 14.6408C139.115 14.4235 139.517 14.223 140.07 14.0392V13.2204H129.683V14.0392C130.253 14.1896 130.671 14.4235 130.956 14.6909C131.241 14.9582 131.375 15.2924 131.375 15.6768C131.375 15.7938 131.358 15.9441 131.325 16.0945C131.274 16.2449 131.224 16.4287 131.124 16.6126L131.14 16.5958ZM134.525 20.9071L138.847 29.5295H130.336L134.525 20.9071ZM191.469 13.2204H166.858V14.0392C167.478 14.1562 167.897 14.34 168.115 14.5906C168.333 14.858 168.433 15.259 168.433 15.8439V37.517C168.433 38.1018 168.333 38.5196 168.115 38.7703C167.897 39.0376 167.478 39.2047 166.858 39.3217V40.1405H176.441V39.3217C175.821 39.2047 175.419 39.0209 175.185 38.7703C174.967 38.5029 174.866 38.1018 174.866 37.517V28.7107H185.069C185.655 28.694 186.074 28.7943 186.326 28.9948C186.594 29.1953 186.761 29.5964 186.878 30.2146H187.699V22.528H186.878C186.778 22.9791 186.661 23.3133 186.543 23.5306C186.409 23.7478 186.225 23.8815 186.007 23.9483C185.773 23.9985 185.471 24.0486 185.086 24.0319H174.95V18.6512H191.485C192.072 18.6345 192.491 18.718 192.742 18.9353C192.993 19.1358 193.178 19.5368 193.295 20.1551H194.099V11.7833H193.295C193.194 12.2345 193.077 12.5687 192.943 12.7692C192.809 12.9697 192.625 13.1201 192.407 13.1535C192.172 13.2037 191.854 13.2204 191.485 13.2204H191.469ZM236.753 13.2204H212.142V14.0392C212.762 14.1562 213.181 14.34 213.399 14.5906C213.616 14.858 213.717 15.259 213.717 15.8439V37.517C213.717 38.1018 213.616 38.5196 213.399 38.7703C213.181 39.0376 212.762 39.2047 212.142 39.3217V40.1405H237.439C238.026 40.1405 238.445 40.2408 238.696 40.4413C238.947 40.6585 239.132 41.0763 239.249 41.6945H240.07V33.2559H239.249C239.148 33.7071 239.031 34.0413 238.897 34.2585C238.763 34.4757 238.579 34.6094 238.361 34.6763C238.143 34.7431 237.825 34.7765 237.439 34.7598H220.217V28.694H230.353C230.939 28.6773 231.358 28.7776 231.626 28.9781C231.877 29.1786 232.062 29.5797 232.179 30.1979H233V22.5112H232.179C232.078 22.9624 231.961 23.2966 231.844 23.5139C231.71 23.7311 231.526 23.8648 231.291 23.9316C231.073 23.9817 230.755 24.0319 230.37 24.0152H220.234V18.6345H236.769C237.356 18.6178 237.775 18.7013 238.026 18.9186C238.277 19.1191 238.461 19.5201 238.579 20.1384H239.4V11.7666H238.579C238.478 12.2178 238.361 12.552 238.244 12.7525C238.11 12.953 237.925 13.1034 237.708 13.1368C237.473 13.187 237.155 13.2037 236.786 13.2037L236.753 13.2204Z" fill="#1D1D1B"/>
<path d="M222.161 9.74472L229.415 1.85751C229.868 1.37292 230.337 0.988584 230.839 0.704511C231.325 0.437148 231.794 0.303467 232.23 0.303467C232.783 0.303467 233.252 0.503989 233.637 0.905033C234.022 1.30608 234.223 1.79067 234.223 2.35882C234.223 2.8267 234.056 3.26117 233.754 3.62879C233.436 4.01313 232.866 4.4643 232.029 4.98232L224.121 9.74472H222.178H222.161Z" fill="#1D1D1B"/>
<path d="M11.0703 127.585V127.201C11.5897 127.067 12.0085 126.633 12.3436 125.914C12.3603 125.847 12.3938 125.78 12.4273 125.73L18.0061 114.083C18.0731 113.95 18.1067 113.866 18.1234 113.816C18.1234 113.766 18.1402 113.716 18.1402 113.665C18.1402 113.498 18.0731 113.365 17.9391 113.231C17.8051 113.114 17.6041 113.014 17.3528 112.93V112.563H19.6982V116.506L17.202 121.653H19.6982V123.692H16.2135L15.1748 125.998C15.1246 126.131 15.0911 126.231 15.0576 126.298C15.0408 126.382 15.0241 126.449 15.0241 126.516C15.0241 126.683 15.0743 126.8 15.1916 126.9C15.2921 127 15.4764 127.084 15.7445 127.167V127.552H11.0703V127.585ZM65.5852 124.895C65.8868 124.895 66.0878 124.845 66.1716 124.761C66.2721 124.677 66.3391 124.494 66.4061 124.21H66.7915V128.27H66.4061C66.3559 128.003 66.2721 127.802 66.1548 127.702C66.0376 127.602 65.8533 127.552 65.5852 127.552H52.1492V127.167C52.4507 127.1 52.635 127 52.7188 126.9C52.8025 126.783 52.8528 126.616 52.8528 126.348V113.766C52.8528 113.482 52.8025 113.298 52.7188 113.181C52.6182 113.081 52.434 112.997 52.1492 112.93V112.563H56.8736V112.93C56.6055 112.997 56.4045 113.081 56.3039 113.181C56.2034 113.298 56.1532 113.482 56.1532 113.766V124.861H65.5685L65.5852 124.895ZM46.1012 124.895C46.4028 124.895 46.6038 124.845 46.6876 124.761C46.7881 124.677 46.8551 124.494 46.9222 124.21H47.3075V128.27H46.9222C46.8719 128.003 46.7881 127.802 46.6709 127.702C46.5536 127.602 46.3693 127.552 46.1012 127.552H32.6652V127.167C32.9667 127.1 33.151 127 33.2348 126.9C33.3186 126.783 33.3688 126.616 33.3688 126.348V113.766C33.3688 113.482 33.3186 113.298 33.2348 113.181C33.1343 113.081 32.95 112.997 32.6652 112.93V112.563H37.3896V112.93C37.1048 112.997 36.9205 113.081 36.82 113.181C36.7195 113.298 36.6692 113.482 36.6692 113.766V124.861H46.0845L46.1012 124.895ZM89.3245 112.613V115.069C89.1235 115.069 88.9224 115.052 88.7214 115.052H84.7174V125.078H88.7214C88.9224 125.078 89.1402 125.078 89.3245 125.062V127.568C88.9392 127.568 88.5371 127.585 88.1183 127.585H80.6966V127.201C80.9982 127.134 81.1824 127.034 81.2662 126.933C81.35 126.816 81.4002 126.649 81.4002 126.382V113.799C81.4002 113.515 81.35 113.331 81.2662 113.214C81.1657 113.114 80.9814 113.03 80.6966 112.964V112.596H88.1183C88.5371 112.596 88.9392 112.596 89.3245 112.613ZM19.6982 112.596H22.4457V112.964C22.1609 113.064 21.9766 113.147 21.8761 113.248C21.7756 113.331 21.7253 113.465 21.7253 113.599C21.7253 113.665 21.7253 113.732 21.7589 113.816C21.7756 113.899 21.8091 114 21.8594 114.1L27.6225 125.764C27.8738 126.265 28.0916 126.616 28.2926 126.816C28.4936 127.017 28.7282 127.151 29.013 127.201V127.585H23.6017V127.201C23.8698 127.117 24.0373 127.017 24.1546 126.933C24.2551 126.833 24.3221 126.716 24.3221 126.549C24.3221 126.482 24.3221 126.415 24.2886 126.332C24.2718 126.265 24.2383 126.165 24.1713 126.031L23.0824 123.725H19.6815V121.686H22.1777L19.7485 116.406L19.6815 116.54V112.596H19.6982ZM89.3245 127.568V125.062C90.7318 124.978 91.8375 124.56 92.6249 123.809C93.5128 122.956 93.9484 121.703 93.9484 120.049C93.9484 118.394 93.5128 117.158 92.6249 116.322C91.8542 115.587 90.7485 115.169 89.3245 115.086V112.629C90.5475 112.68 91.5527 112.797 92.3066 112.997C93.295 113.264 94.1662 113.699 94.9033 114.284C95.674 114.919 96.2771 115.737 96.6959 116.74C97.1147 117.743 97.3158 118.846 97.3158 120.065C97.3158 121.285 97.1147 122.422 96.6959 123.424C96.2771 124.427 95.6907 125.246 94.9033 125.897C94.1662 126.499 93.3118 126.933 92.3066 127.184C91.5527 127.384 90.5475 127.501 89.3245 127.552V127.568ZM108.356 112.596V116.54L105.86 121.686H108.356V123.725H104.871L103.833 126.031C103.783 126.165 103.749 126.265 103.715 126.332C103.699 126.415 103.682 126.482 103.682 126.549C103.682 126.716 103.732 126.833 103.85 126.933C103.95 127.034 104.134 127.117 104.402 127.201V127.585H99.7282V127.201C100.248 127.067 100.666 126.633 101.001 125.914C101.018 125.847 101.052 125.78 101.085 125.73L106.664 114.083C106.731 113.95 106.765 113.866 106.781 113.816C106.781 113.766 106.798 113.716 106.798 113.665C106.798 113.498 106.731 113.365 106.597 113.231C106.463 113.114 106.262 113.014 106.011 112.93V112.563H108.356V112.596ZM117.336 127.084C117.202 127.017 117.068 126.933 116.967 126.816C116.766 126.616 116.548 126.265 116.297 125.764L110.534 114.1C110.484 113.983 110.45 113.883 110.434 113.816C110.417 113.732 110.4 113.665 110.4 113.599C110.4 113.465 110.45 113.348 110.551 113.248C110.651 113.147 110.836 113.064 111.12 112.964V112.596H108.373V116.54L108.44 116.406L110.869 121.686H108.373V123.725H111.774L112.863 126.031C112.913 126.165 112.963 126.265 112.98 126.332C112.997 126.415 113.014 126.482 113.014 126.549C113.014 126.716 112.963 126.833 112.846 126.933C112.729 127.034 112.561 127.117 112.293 127.201V127.585H117.353V127.084H117.336ZM117.336 112.596V113.064C117.219 113.03 117.118 112.98 116.984 112.964V112.596H117.336ZM117.336 113.064C117.57 113.147 117.788 113.264 117.972 113.398C118.257 113.599 118.542 113.933 118.877 114.384L123.769 121.285V126.365C123.769 126.633 123.719 126.816 123.635 126.933C123.551 127.034 123.367 127.117 123.082 127.184V127.568H127.79V127.184C127.488 127.117 127.321 127.034 127.22 126.95C127.136 126.85 127.103 126.666 127.103 126.365V121.051L131.961 114.367C132.229 114 132.514 113.699 132.833 113.448C133.151 113.214 133.486 113.03 133.838 112.93V112.563H128.493V112.93C128.745 113.014 128.929 113.097 129.046 113.214C129.164 113.331 129.231 113.465 129.231 113.632C129.231 113.716 129.231 113.799 129.18 113.866C129.147 113.933 129.113 114.016 129.046 114.083L125.629 118.662L122.479 114.083C122.479 114.083 122.412 113.966 122.379 113.866C122.362 113.766 122.345 113.665 122.345 113.565C122.345 113.431 122.395 113.315 122.496 113.214C122.596 113.114 122.781 113.03 123.065 112.93V112.563H117.319V113.03L117.336 113.064ZM117.336 127.585V127.084C117.436 127.134 117.554 127.184 117.688 127.217V127.602H117.336V127.585ZM154.36 112.596V115.169H150.139V119.28H154.36V121.636L154.226 121.452H150.139V126.382C150.139 126.666 150.189 126.85 150.273 126.95C150.356 127.05 150.557 127.134 150.842 127.201V127.585H146.118V127.201C146.403 127.151 146.587 127.067 146.687 126.95C146.771 126.833 146.821 126.649 146.821 126.382V113.799C146.821 113.532 146.771 113.348 146.687 113.248C146.604 113.131 146.403 113.047 146.118 112.964V112.596H154.344H154.36ZM206.865 115.253C206.58 115.253 206.379 115.303 206.279 115.387C206.178 115.47 206.094 115.654 206.044 115.938H205.675V111.894H206.044C206.111 112.162 206.195 112.362 206.312 112.462C206.429 112.563 206.614 112.613 206.882 112.613H219.48C219.765 112.613 219.966 112.563 220.066 112.479C220.167 112.379 220.234 112.195 220.301 111.911H220.686V115.988H220.301C220.251 115.704 220.167 115.52 220.05 115.42C219.932 115.32 219.748 115.27 219.48 115.27H214.806V126.399C214.806 126.683 214.856 126.883 214.94 126.983C215.024 127.084 215.208 127.151 215.493 127.217V127.602H210.835V127.217C211.103 127.151 211.305 127.05 211.388 126.95C211.472 126.833 211.539 126.649 211.556 126.382V115.253H206.882H206.865ZM186.845 126.415L188.453 122.839L188.922 123.04C188.922 123.04 188.906 123.09 188.889 123.123C188.872 123.207 188.855 123.274 188.839 123.324C188.839 123.692 189.458 124.093 190.681 124.544C191.904 124.978 193.161 125.212 194.468 125.212C195.624 125.212 196.578 125.012 197.332 124.627C198.07 124.243 198.455 123.758 198.455 123.19C198.455 122.238 197.198 121.72 194.685 121.603C193.747 121.569 193.027 121.519 192.507 121.486C190.698 121.335 189.358 120.901 188.47 120.216C187.582 119.531 187.146 118.578 187.146 117.342C187.146 115.854 187.783 114.668 189.056 113.749C190.33 112.847 192.022 112.379 194.116 112.379C195.841 112.379 197.734 112.83 199.795 113.732C200.314 113.95 200.616 114.066 200.717 114.066C200.784 114.066 200.851 114.05 200.934 114C201.001 113.966 201.119 113.883 201.269 113.782L201.621 113.95L199.795 117.492L199.326 117.241C199.326 117.241 199.326 117.191 199.326 117.175C199.326 117.175 199.326 117.124 199.326 117.091C199.326 116.64 198.756 116.172 197.617 115.671C196.478 115.169 195.272 114.919 194.032 114.919C192.926 114.919 192.055 115.086 191.368 115.437C190.698 115.788 190.363 116.222 190.363 116.774C190.363 117.576 191.435 118.044 193.596 118.16C194.719 118.244 195.607 118.311 196.26 118.394C198.07 118.612 199.46 119.113 200.398 119.865C201.353 120.634 201.822 121.619 201.822 122.839C201.822 124.276 201.119 125.463 199.728 126.399C198.338 127.334 196.528 127.802 194.334 127.802C192.139 127.802 190.229 127.351 188.319 126.465C187.951 126.298 187.733 126.215 187.666 126.215C187.565 126.215 187.481 126.231 187.431 126.282C187.381 126.332 187.331 126.399 187.28 126.532L186.811 126.399L186.845 126.415ZM180.78 124.895C181.082 124.895 181.283 124.845 181.383 124.761C181.484 124.677 181.568 124.494 181.635 124.21H182.003V128.287H181.635C181.568 128.019 181.484 127.819 181.383 127.719C181.266 127.618 181.082 127.568 180.797 127.568H167.143V127.184C167.445 127.117 167.629 127.017 167.713 126.917C167.796 126.8 167.847 126.633 167.847 126.365V113.782C167.847 113.498 167.796 113.315 167.713 113.198C167.612 113.097 167.428 113.014 167.143 112.947V112.579H180.629C180.914 112.579 181.115 112.529 181.216 112.446C181.316 112.345 181.4 112.162 181.467 111.877H181.836V115.955H181.467C181.4 115.687 181.333 115.504 181.233 115.403C181.132 115.32 180.964 115.27 180.763 115.27H171.164V118.562H177.195C177.497 118.562 177.698 118.511 177.781 118.445C177.882 118.361 177.966 118.177 178.033 117.876H178.401V121.67H178.033C177.982 121.402 177.899 121.218 177.798 121.118C177.681 121.035 177.497 120.984 177.195 120.984H171.164V124.895H180.814H180.78ZM154.36 121.636V119.28H154.779C156.153 119.28 157.125 119.113 157.711 118.779C158.297 118.445 158.582 117.91 158.582 117.158C158.582 116.406 158.297 115.921 157.728 115.621C157.158 115.32 156.136 115.169 154.662 115.169H154.36V112.596H155.583C157.544 112.596 159.051 112.98 160.14 113.732C161.229 114.484 161.765 115.554 161.765 116.924C161.765 118.044 161.43 118.979 160.76 119.698C160.09 120.433 159.068 120.985 157.678 121.352L160.861 125.78C161.045 126.048 161.263 126.282 161.497 126.482C161.732 126.683 162.117 126.917 162.636 127.201V127.585H157.108V127.201C157.309 127.167 157.477 127.117 157.577 127.034C157.694 126.95 157.745 126.85 157.745 126.716C157.745 126.699 157.711 126.599 157.627 126.449C157.544 126.298 157.477 126.148 157.393 126.031L154.377 121.636H154.36ZM232.95 112.329V114.902H232.916C231.274 114.902 229.951 115.37 228.962 116.306C227.957 117.241 227.455 118.461 227.455 119.982C227.455 121.503 227.957 122.739 228.946 123.658C229.951 124.594 231.274 125.045 232.933 125.045V127.836H232.899C230.42 127.836 228.359 127.1 226.717 125.613C225.076 124.126 224.255 122.288 224.255 120.065C224.255 117.843 225.059 116.005 226.701 114.534C228.326 113.064 230.386 112.329 232.916 112.329H232.95ZM232.95 127.836V125.045C234.608 125.045 235.932 124.577 236.937 123.641C237.942 122.722 238.445 121.486 238.445 119.965C238.445 118.445 237.942 117.208 236.937 116.289C235.932 115.37 234.608 114.902 232.95 114.902V112.329C235.479 112.329 237.557 113.064 239.182 114.518C240.807 115.988 241.628 117.826 241.628 120.065C241.628 122.305 240.807 124.143 239.165 125.63C237.523 127.1 235.463 127.836 232.95 127.836ZM254.913 112.596V115.019H250.524V118.294H254.913V120.951H250.524V125.028H254.913V127.568H246.52V127.184C246.821 127.117 247.006 127.017 247.106 126.917C247.19 126.8 247.24 126.633 247.24 126.365V113.782C247.24 113.498 247.19 113.315 247.106 113.198C247.006 113.097 246.821 113.014 246.537 112.947V112.579H254.93L254.913 112.596ZM254.913 127.585V125.045H255.349C256.856 125.045 257.895 124.895 258.465 124.577C259.034 124.276 259.302 123.758 259.302 123.006C259.302 122.254 259.001 121.77 258.398 121.436C257.795 121.118 256.806 120.951 255.466 120.951H254.93V118.294H256.253C257.158 118.294 257.828 118.16 258.264 117.893C258.699 117.626 258.917 117.225 258.917 116.673C258.917 116.055 258.699 115.637 258.247 115.387C257.795 115.136 257.007 115.019 255.868 115.019H254.947V112.596H256.722C258.415 112.596 259.738 112.93 260.693 113.599C261.631 114.267 262.117 115.219 262.117 116.406C262.117 117.091 261.949 117.693 261.614 118.211C261.279 118.729 260.76 119.163 260.073 119.514C260.928 119.948 261.564 120.45 261.983 121.051C262.385 121.636 262.603 122.355 262.603 123.19C262.603 124.577 262.067 125.647 260.995 126.432C259.922 127.201 258.398 127.585 256.438 127.585H254.997H254.913ZM274.029 112.596V116.54L271.532 121.686H274.029V123.725H270.544L269.505 126.031C269.455 126.165 269.421 126.265 269.388 126.332C269.371 126.415 269.354 126.482 269.354 126.549C269.354 126.716 269.405 126.833 269.522 126.933C269.622 127.034 269.807 127.117 270.075 127.201V127.585H265.401V127.201C265.92 127.067 266.339 126.633 266.674 125.914C266.691 125.847 266.724 125.78 266.758 125.73L272.336 114.083C272.403 113.95 272.437 113.866 272.454 113.816C272.454 113.766 272.47 113.716 272.47 113.665C272.47 113.498 272.403 113.365 272.269 113.231C272.135 113.114 271.934 113.014 271.683 112.93V112.563H274.029V112.596ZM274.029 123.742V121.703H276.525L274.096 116.423L274.029 116.556V112.613H276.776V112.98C276.491 113.081 276.307 113.164 276.206 113.264C276.106 113.348 276.056 113.482 276.056 113.615C276.056 113.682 276.056 113.749 276.089 113.833C276.106 113.916 276.139 114.016 276.19 114.117L281.953 125.78C282.204 126.282 282.439 126.633 282.623 126.833C282.824 127.034 283.059 127.167 283.343 127.217V127.602H277.932V127.217C278.2 127.134 278.368 127.034 278.485 126.95C278.585 126.85 278.652 126.733 278.652 126.566C278.652 126.499 278.652 126.432 278.619 126.348C278.602 126.282 278.569 126.181 278.502 126.048L277.413 123.742H274.012H274.029ZM295.238 112.596V115.169H291.016V119.28H295.238V121.636L295.104 121.452H291.016V126.382C291.016 126.666 291.067 126.85 291.15 126.95C291.234 127.05 291.435 127.134 291.72 127.201V127.585H286.995V127.201C287.28 127.151 287.465 127.067 287.565 126.95C287.649 126.833 287.699 126.649 287.699 126.382V113.799C287.699 113.532 287.649 113.348 287.565 113.248C287.481 113.131 287.28 113.047 286.995 112.964V112.596H295.221H295.238ZM295.238 121.636V119.28H295.657C297.031 119.28 298.002 119.113 298.589 118.779C299.175 118.445 299.46 117.91 299.46 117.158C299.46 116.406 299.175 115.921 298.605 115.621C298.036 115.32 297.014 115.169 295.54 115.169H295.238V112.596H296.461C298.421 112.596 299.929 112.98 301.018 113.732C302.107 114.484 302.643 115.554 302.643 116.924C302.643 118.044 302.308 118.979 301.638 119.698C300.968 120.433 299.946 120.985 298.555 121.352L301.738 125.78C301.923 126.048 302.14 126.282 302.375 126.482C302.609 126.683 302.995 126.917 303.514 127.201V127.585H297.986V127.201C298.187 127.167 298.354 127.117 298.455 127.034C298.572 126.95 298.622 126.85 298.622 126.716C298.622 126.699 298.589 126.599 298.505 126.449C298.421 126.298 298.354 126.148 298.27 126.031L295.255 121.636H295.238Z" fill="#1D1D1B"/>
</g>
<defs>
<clipPath id="clip0_227_4023">
<rect width="313" height="128" fill="white" transform="translate(0.78418 0.303467)"/>
</clipPath>
</defs>
</svg>
