<svg width="401" height="67" viewBox="0 0 401 67" fill="none" xmlns="http://www.w3.org/2000/svg">
<path fill-rule="evenodd" clip-rule="evenodd" d="M20.266 25.1483V31.2691H20.215H20.1469H20.0958L19.7042 31.1841L19.3978 31.1331L19.0914 31.0991L18.802 31.0651H18.5125L18.2231 31.0481H17.9167H17.6273H17.0485L16.4867 31.0821L15.9419 31.1331L15.4141 31.2011L14.9034 31.2862L14.4097 31.3882L13.933 31.5072L13.4734 31.6432L13.0308 31.7962L12.6052 31.9663L12.1966 32.1533L11.805 32.3573L11.4305 32.5783L11.056 32.8334L10.6984 33.1054L10.3239 33.4115L9.98343 33.7005L9.69402 33.9895L9.42163 34.2956L9.16627 34.6016L8.92793 34.9417L8.70662 35.2987L8.50233 35.6728L8.31506 36.0638L8.14482 36.4719L7.9916 36.914L7.85541 37.373L7.73624 37.8491L7.6341 38.3422L7.54897 38.8693L7.48088 39.4133L7.42981 40.0254L7.39576 40.3995L7.36171 40.7395V41.0796L7.32766 41.4196V41.7597L7.31064 42.0997V42.7798L7.32766 43.1199V43.4599L7.36171 43.8L7.39576 44.14L7.42981 44.4801L7.46385 44.8201L7.51493 45.1432L7.566 45.4662L7.61707 45.7893L7.66814 46.1123L7.73624 46.4353L7.80434 46.7584L7.88946 47.0814L7.97458 47.4045L8.0597 47.7275L8.14482 48.0506L8.22994 48.3736L8.33209 48.6967L8.43423 49.0197L8.53638 49.3428L8.65555 49.6658L8.77471 49.9889L8.89388 50.2949L9.01305 50.601L9.35354 51.3831L9.69402 52.0972L10.0515 52.7603L10.4261 53.3554L10.8006 53.8824L11.1751 54.3585L11.5667 54.7666L11.9582 55.1236L12.3668 55.4296L12.7924 55.6847L13.218 55.9057L13.6607 56.0757L14.1203 56.2118L14.614 56.3138L15.1247 56.3648H15.7036L15.993 56.3818H16.2994H16.5888H16.8782H17.1676H17.44L17.7124 56.3648H17.9678L18.2231 56.3308L18.4785 56.2968L18.7339 56.2628L18.9722 56.2288L19.2105 56.1948L19.4489 56.1438L19.6872 56.0927L20.0107 56.0077L20.249 55.9737V61.8736H20.1639L19.8404 61.9246L19.517 61.9586L19.1935 61.9926L18.853 62.0266L18.5125 62.0606L18.1721 62.0946L17.8316 62.1286L17.4911 62.1626L17.1506 62.1966H16.8101L16.4696 62.2306H16.1292L15.7887 62.2646H15.4482H15.1077H14.5459L14.0011 62.2306L13.4564 62.1966L12.9286 62.1456L12.4009 62.0776L11.8901 61.9926L11.3964 61.8906L10.9027 61.7886L10.4261 61.6696L9.96641 61.5335L9.50675 61.3805L9.0471 61.2105L8.60447 61.0235L8.17887 60.8194L7.77029 60.5984L7.36171 60.3604L6.97015 60.1053L6.59562 59.8503L6.22109 59.5783L5.86358 59.2892L5.5231 58.9832L5.18261 58.6601L4.85916 58.3201L4.55272 57.963L4.26331 57.606L3.99092 57.2319L3.71854 56.8409L3.46317 56.4498L3.22483 56.0417L3.00352 55.6167L2.79923 55.1746L2.61196 54.7496L2.45875 54.3925L2.30553 54.0184L2.15231 53.6274L2.01612 53.2363L1.87992 52.8453L1.76076 52.4542L1.64159 52.0462L1.52242 51.6381L1.42027 51.213L1.31813 50.788L1.23301 50.3459L1.14789 49.9039L1.07979 49.4618L1.01169 49.0027L0.943595 48.5437L0.892523 48.0846L0.858474 47.6085L0.807402 47.1324L0.773353 46.6394L0.739305 46.1463V45.6532L0.705257 45.1432V44.6331L0.688232 44.106V43.0519L0.705257 42.5078V41.9637L0.739305 41.4196L0.773353 40.8585L0.807402 40.2805L0.84145 39.7024L0.892523 38.9033L0.977643 38.0871L1.09681 37.288L1.25003 36.5059L1.4373 35.7408L1.64159 34.9927L1.87992 34.2616L2.15231 33.5475L2.45875 32.8674L2.79923 32.2043L3.15674 31.5582L3.54829 30.9461L3.9739 30.351L4.43355 29.7899L4.91023 29.2629L5.42095 28.7698L5.98275 28.2767L6.56157 27.8177L7.15742 27.3756L7.78731 26.9675L8.43423 26.5935L9.09817 26.2534L9.77914 25.9474L10.4771 25.6753L11.1921 25.4373L11.9242 25.2333L12.6903 25.0632L13.4734 24.9272L14.2735 24.8252L15.0907 24.7402L15.9249 24.6892H16.7761H17.2357H17.6784L18.104 24.7402L18.5125 24.7912L18.9211 24.8422L19.3127 24.8932L19.7042 24.9612L20.0447 25.0122H20.0788H20.1639H20.249L20.266 25.1483ZM92.057 56.6708L90.3375 58.7961H89.5374H89.4012H89.282L89.1629 58.8131H89.0607L88.9415 58.8471L88.8054 58.8812L88.4479 59.0002H88.0903L87.9712 59.0172H87.869L87.7499 59.0682L87.6137 59.1022L87.4604 59.1362L87.2562 59.1872L86.9838 59.2212L86.3709 59.1872L85.7921 59.1192L85.2133 59.0002L84.6515 58.8301L84.0897 58.6091L83.5449 58.3371L83.0342 58.014L82.5405 57.64L82.0638 57.2149L81.6552 56.7558L81.2977 56.2628L81.0253 55.7357L80.821 55.1746L80.6848 54.6135L80.5997 54.0355L80.5657 53.4574V53.1173L80.6167 52.7943L80.6678 52.4882L80.7359 52.1992L80.821 51.9271L80.9061 51.6721L81.0083 51.4341L81.2977 50.805L81.9106 50.5159L82.0978 50.4309L82.3191 50.3459L82.5575 50.2439L82.8299 50.1589L83.1363 50.0909L83.4598 50.0569H83.8002H84.1067L84.3961 50.0909L84.6855 50.1419L84.9749 50.2099L85.2643 50.2949L85.5537 50.3799L85.8432 50.4819L86.1326 50.601L86.439 50.737L86.7454 50.873L87.0519 51.026L87.3583 51.196L87.6647 51.3661L87.9712 51.5531L88.2776 51.7571L88.6011 51.9782L89.248 52.5052L89.8268 53.0153L90.3375 53.5424L90.7631 54.0525L91.1206 54.5625L91.4271 55.0726L91.6654 55.5827L92.0229 56.7048L92.057 56.6708ZM91.8016 12.9745L91.7676 13.2805L91.7335 13.6036L91.6995 13.9436L91.6484 14.3007L91.5973 14.6747L91.5463 15.0658L91.4952 15.4739L91.4271 15.9159L91.359 16.375L91.2909 16.8511L91.2228 17.3441L91.1377 17.8542L91.0696 18.3813L90.9845 18.9254L90.8993 19.4864L90.8142 20.0815L90.7291 20.6766L90.6269 21.3057L90.5248 21.9518L90.4227 22.6149L90.3205 23.295L90.1332 24.5362L89.8779 26.2024L89.7587 27.0015L89.6225 27.7836L89.4863 28.5318L89.3672 29.2629L89.248 29.96L89.1288 30.6401L89.0096 31.2862L88.8905 31.9152L88.7883 32.5103L88.6862 33.0884L88.584 33.6495L88.4819 34.1766L88.3798 34.6866L88.2946 35.1797L88.2095 35.6388L88.1244 36.0808L88.0393 36.5059L87.9542 36.897L87.8861 37.271L87.818 37.6111L87.7499 37.9341L87.6818 38.2402L87.6307 38.5122L87.5796 38.7672L87.5285 39.0053L87.4775 39.2263L87.4264 39.4303L87.3923 39.6004L87.3583 39.7534L87.3243 39.8894L87.2732 40.0254L87.2221 40.1614L87.0178 40.6545L83.1704 43.0519L82.8299 40.6715L82.7958 40.3825L82.7618 40.0934L82.7277 39.7874L82.6937 39.4813L82.6596 39.1753L82.6256 38.8693L82.5915 38.5632L82.5575 38.2402L82.5234 37.9171V37.5941L82.4894 37.271V36.948L82.4553 36.6249V36.2849V35.9618V34.6866V34.3636V34.0406V33.7005V33.3605L82.4724 33.0204V32.6634L82.5064 32.3063V31.9492L82.5575 31.5752L82.5915 31.2011L82.6256 30.8101L82.6596 30.436V30.096L82.7107 29.7219V29.3479L82.7618 28.9738L82.7958 28.5998L82.8299 28.2257L82.8639 27.8347L82.915 27.4436L82.949 27.0525L83.0001 26.6615L83.0512 26.2704L83.1023 25.8794L83.1533 25.4713L83.2044 25.0632L83.2555 24.6552L83.3236 24.2301L83.3917 23.8221L83.4598 23.397L83.5279 22.9719L83.596 22.5469L83.6641 22.1218L83.7322 21.6968L83.8002 21.2717L83.8854 20.8296L83.9705 20.3876L84.0556 19.9455L84.1407 19.5034L84.2259 19.0614L84.311 18.6193L84.3961 18.1773L84.4982 17.7182L84.6004 17.2761L84.7025 16.8171L84.8047 16.358L84.9068 15.8819L85.009 15.4229L85.1111 14.9638L85.2133 14.5047L85.3154 14.0457L85.4175 13.5866L85.5197 13.1275L85.6218 12.6855L85.724 12.2434L85.8261 11.8013L85.9283 11.3593L86.0304 10.9172L86.1326 10.4751L86.2347 10.0331L86.3369 9.59101L86.439 9.14894L86.5411 8.70688L86.6433 8.26481L86.7454 7.82275L86.8476 7.39769L86.9497 6.95563L87.137 6.0885L87.2391 5.66344L87.3413 5.22137L87.7328 3.48712L88.4308 0.443681L90.5588 2.84103L90.8993 3.3511L91.1887 3.87818L91.4271 4.43926L91.6143 5.03435L91.7676 5.64644L91.8867 6.27553L91.9719 6.88762L92.0059 7.09165L92.0399 7.34668L92.074 7.60172V7.85676L92.1251 8.1288V8.40084L92.1421 8.68988V8.97892V9.28496V9.59101L92.1251 9.91405V10.2371L92.074 10.5772L92.0399 10.9172L92.0059 11.2743L91.9719 11.5633V11.9033L91.9548 12.1414V12.3964L91.9038 12.6685L91.8697 12.9575L91.8016 12.9745ZM20.266 61.9586V56.0587L20.5895 56.0077L21.0662 55.9227L21.5428 55.8207L22.0025 55.7187L22.4622 55.5997L22.9048 55.4637L23.3474 55.3276L23.79 55.1746L24.2156 55.0046L24.6412 54.8346L25.0669 54.6475L25.4754 54.4435L25.884 54.2395L26.2926 54.0184L26.6841 53.7804L27.0757 53.5254L27.7567 53.0833L28.3866 52.6242L28.9824 52.1482L29.5272 51.6551L30.0379 51.145L30.5146 50.618L30.9402 50.0909L31.3317 49.5468L31.6893 48.9857L32.0127 48.4076L32.2851 47.8125L32.5234 47.2005L32.7277 46.5714L32.898 45.9253L33.0171 45.2622L33.1023 44.5991V43.902V43.1879L33.0342 42.4908L32.932 41.8277L32.7788 41.1816L32.5915 40.5525L32.3702 39.9404L32.0978 39.3283L31.7914 38.7502L31.4509 38.1722L31.0594 37.6111L30.6338 37.067L30.1401 36.5229L29.6123 35.9958L29.0335 35.4688L28.3866 34.9417L27.8929 34.5336L27.4162 34.1766L26.9395 33.8365L26.4628 33.5305L25.9862 33.2244L25.4925 32.9524L24.9988 32.6974L24.5051 32.4593L23.9943 32.2383L23.4836 32.0513L22.9559 31.8812L22.4281 31.7282L21.8833 31.5922L21.3386 31.4732L20.8789 31.3882H20.8619L20.1639 31.2862V25.1653H20.249L20.3512 25.1823H20.4533L20.5554 25.2163H20.6065L21.3215 25.3183L22.1046 25.4543L22.8878 25.6413L23.6538 25.8454L24.4029 26.0834L25.152 26.3554L25.901 26.6615L26.6331 26.9845L27.3481 27.3416L28.0631 27.7326L28.7611 28.1407L29.4421 28.5828L30.106 29.0418L30.7529 29.5179L31.3828 30.011L32.0127 30.538L32.4553 30.9461L32.8639 31.3372L33.2555 31.7452L33.647 32.1533L34.0045 32.5613L34.362 32.9864L34.7025 33.4115L35.026 33.8365L35.3324 34.2786L35.6218 34.7207L35.9112 35.1627L36.1666 35.6218L36.422 36.0808L36.6603 36.5399L36.8816 37.016L37.0859 37.4921L37.2732 37.9681L37.4434 38.4442L37.5966 38.9373L37.7328 39.4303L37.869 39.9234L37.9882 40.4165L38.0903 40.9265L38.1755 41.4366L38.2436 41.9467L38.2946 42.4738L38.3287 43.0008V43.5279L38.3627 44.055V44.5821L38.3457 45.1262L38.3117 45.6532L38.2776 46.1293L38.2265 46.6394L38.1584 47.1495L38.0733 47.6425L37.9712 48.1356L37.869 48.6117L37.7499 49.0877L37.6137 49.5638L37.4604 50.0229L37.2902 50.4819L37.1029 50.924L36.8986 51.3661L36.6773 51.8081L36.456 52.2332L36.2007 52.6582L35.9453 53.0663L35.6729 53.4744L35.3835 53.8824L35.0771 54.2735L34.7536 54.6645L34.4301 55.0386L34.0897 55.4126L33.7322 55.7697L33.3576 56.1267L32.9831 56.4668L32.5915 56.8068L32.183 57.1299L31.7573 57.4529L31.3147 57.776L30.8721 58.082L30.4124 58.3881L29.9017 58.7111L29.2888 59.0172L28.727 59.2892L28.1482 59.5442L27.5864 59.7823L27.0246 60.0203L26.4458 60.2413L25.867 60.4624L25.2882 60.6664L24.7093 60.8704L24.1305 61.0575L23.5517 61.2445L22.9559 61.4145L22.36 61.5675L21.7642 61.7206L21.1683 61.8566L20.5214 61.9926L20.232 62.0266L20.266 61.9586ZM174.658 37.237V46.0443L174.573 46.1123L174.113 46.5714L173.722 46.9964L173.381 47.3705L173.109 47.7105L172.905 47.9826L172.735 48.2206L172.564 48.4756L172.411 48.7137L172.275 48.9517L172.156 49.1897L172.037 49.4278L171.934 49.6658L171.832 49.9039L171.747 50.1419L171.662 50.3799L171.594 50.618L171.526 50.856L171.475 51.094L171.424 51.3321L171.373 51.5701L171.322 51.8251V51.9611L171.305 52.0292V52.1992L171.356 52.4032L171.39 52.6412L171.424 52.9303L171.458 53.2363L171.492 53.5934V53.7294L171.594 54.0014L171.645 54.1375L171.713 54.1035L171.951 54.0014L172.173 53.9164L172.377 53.8144L172.581 53.7124L172.786 53.6104L172.973 53.5084L173.16 53.3894L173.671 53.0663L174.233 52.5052L174.641 52.1992V59.4252H174.59L174.284 59.5442L173.994 59.6463L173.705 59.7483L173.415 59.8333L173.143 59.9183L172.871 60.0033L172.598 60.0713L172.326 60.1393L172.054 60.1903L171.781 60.2413L171.509 60.2754L171.236 60.3094H170.981L170.692 60.3434L170.011 60.3094L169.33 60.1903L168.666 59.9863L168.036 59.6803L167.44 59.2552L166.912 58.7451L166.47 58.133L166.112 57.4529L165.993 57.1469L165.908 56.8919L165.823 56.6198L165.755 56.3478L165.687 56.0587L165.635 55.7697L165.584 55.4807L165.533 55.1746L165.499 54.8686V54.5455L165.465 54.2225V53.5594L165.499 53.2193L165.533 52.8793L165.567 52.5562L165.618 52.0462L165.687 51.4851L165.772 50.924L165.874 50.3629L165.993 49.7848L166.129 49.2068L166.282 48.6287L166.453 48.0506L166.555 47.7615L163.814 51.5871L163.507 51.9952L163.201 52.4032L162.878 52.8113L162.554 53.2193L162.214 53.6274L161.873 54.0355L161.516 54.4265L161.158 54.8346L160.801 55.2256L160.426 55.6337L160.052 56.0417L159.677 56.4498L159.285 56.8409L158.894 57.2319L158.485 57.64L157.958 58.15L157.43 58.6261L156.919 59.0682L156.408 59.4932L155.915 59.8843L155.421 60.2413L154.927 60.5644L154.434 60.8534L153.957 61.1085L153.48 61.3465L153.004 61.5335L152.527 61.7036L152.05 61.8226L151.573 61.9246L151.097 61.9756H150.654L150.195 61.9926H149.326H148.901H148.475H148.049H147.624L147.198 61.9756H146.773L146.347 61.9586H145.938L145.513 61.9246H145.104L144.696 61.8906H144.287L143.879 61.8396H143.47L143.061 61.7886L142.653 61.7546L142.261 61.7206L141.87 61.6866L141.478 61.6525L141.087 61.6185L140.695 61.5845L140.303 61.5335L139.929 61.4825L139.554 61.4315L139.18 61.3805L138.805 61.3295L138.431 61.2785L138.056 61.2275L137.665 61.1595L137.137 61.0575L136.626 60.9554L136.116 60.8534L135.622 60.7344L135.128 60.6154L134.651 60.4964L134.175 60.3774L133.715 60.2583L133.255 60.1393L132.796 60.0033L132.353 59.8673L131.911 59.7313L131.468 59.5953L131.042 59.4422L130.617 59.2892L130.208 59.1362L129.8 58.9832L129.408 58.8301L129.016 58.6601L128.625 58.4901L128.25 58.3201L127.876 58.15L127.518 57.963L127.161 57.776L126.803 57.589L126.463 57.3849L126.122 57.1809L125.782 56.9769L125.458 56.7558L125.135 56.5348L124.829 56.3138L124.539 56.0927L123.824 55.5487L123.143 54.9536L122.496 54.3415L121.9 53.6954L121.356 53.0153L120.862 52.3182L120.436 51.5871L120.045 50.839L119.721 50.0569L119.449 49.2578L119.228 48.4416L119.074 47.5915L118.972 46.7244L118.921 45.8403V44.9391L118.989 44.055L119.023 43.6129L119.057 43.1539L119.108 42.6948L119.159 42.2357L119.228 41.7767L119.296 41.3176L119.381 40.8585L119.483 40.3995L119.585 39.9404L119.704 39.4813L119.823 39.0223L119.96 38.5632L120.096 38.1041L120.249 37.6451L120.402 37.169L120.572 36.7099L120.743 36.2509L120.93 35.7748L121.117 35.3157L121.322 34.8567L121.543 34.3976L121.764 33.9385L122.002 33.4795L122.241 33.0204L122.479 32.5443L122.735 32.0853L122.99 31.6262L123.262 31.1671L123.535 30.7081L123.824 30.249L124.113 29.7899L124.42 29.3139L124.794 28.7868L125.152 28.2767L125.527 27.7836L125.901 27.3076L126.276 26.8485L126.65 26.4064L127.025 25.9814L127.399 25.5733L127.791 25.1823L128.182 24.8082L128.574 24.4342L128.965 24.0941L129.374 23.7541L129.783 23.431L130.191 23.125L130.6 22.8359L131.008 22.5639L131.434 22.3088L131.859 22.0708L132.285 21.8498L132.711 21.6458L133.136 21.4587L133.579 21.2887L134.022 21.1357L134.464 20.9997L134.924 20.8806L135.383 20.7786L135.826 20.6936L136.286 20.6256L136.745 20.5746L137.205 20.5406H137.682L138.465 20.5576L139.231 20.6426L139.997 20.7616L140.746 20.9487L141.478 21.1867L142.193 21.4757L142.891 21.8158L143.555 22.2068L144.202 22.6659L144.832 23.176L145.428 23.7371L146.007 24.3491L146.551 25.0122L147.079 25.7263L147.573 26.4915L148.049 27.3076L148.237 27.6816L148.407 28.0387L148.577 28.3957L148.747 28.7528L148.901 29.1098L149.054 29.4669L149.207 29.8239L149.343 30.181L149.48 30.538L149.599 30.9121L149.718 31.2862L149.82 31.6602L149.922 32.0343L150.024 32.4083L150.109 32.7824L150.195 33.1564L150.28 33.5305L150.348 33.9045L150.416 34.2786L150.484 34.6526L150.535 35.0437L150.586 35.4348L150.637 35.8088L150.671 36.1829L150.705 36.5739V36.965L150.739 37.356V37.7471V38.1381V38.5292L150.722 38.9203L150.501 43.749L147.845 39.4643L147.539 38.9713L147.215 38.4612L146.602 37.4921L146.058 36.6419L145.666 36.0298L145.36 35.5368L145.036 35.0437L144.73 34.5506L144.423 34.0576L144.1 33.5645L143.776 33.0714L143.47 32.5613L143.181 32.0853L142.755 31.4902L142.312 30.9121L141.887 30.368L141.461 29.8749L141.053 29.4159L140.661 29.0078L140.269 28.6338L139.895 28.3107L139.537 28.0217L139.214 27.7836L138.908 27.5966L138.635 27.4436L138.38 27.3416L138.175 27.2736L138.005 27.2396H137.852H137.358L136.848 27.3076L136.337 27.4096L135.809 27.5626L135.281 27.7666L134.754 28.0217L134.209 28.3277L133.664 28.6848L133.119 29.1098L132.557 29.5859L131.996 30.113L131.434 30.7081L130.872 31.3542L130.31 32.0683L129.748 32.8334L129.187 33.6665L128.948 34.0406L128.71 34.4146L128.489 34.7887L128.267 35.1627L128.046 35.5368L127.842 35.9108L127.637 36.2849L127.45 36.6419L127.263 37.016L127.093 37.373L126.922 37.7301L126.752 38.0871L126.599 38.4442L126.446 38.8012L126.31 39.1583L126.173 39.5153L126.037 39.8724L125.901 40.2294L125.782 40.5865L125.663 40.9265L125.561 41.2666L125.458 41.6066L125.356 41.9467L125.271 42.2867L125.186 42.6268L125.101 42.9668L125.033 43.3069L124.965 43.6469L124.914 43.987L124.863 44.327L124.811 44.6671L124.777 44.9561V45.4322V45.9083L124.829 46.3673L124.914 46.8264L125.033 47.2685L125.186 47.6935L125.373 48.1186L125.578 48.5267L125.833 48.9347L126.122 49.3428L126.446 49.7338L126.82 50.1249L127.229 50.5159L127.689 50.89L128.199 51.264L128.761 51.6381L129.204 51.9271L129.663 52.1992L130.157 52.4712L130.668 52.7263L131.213 52.9813L131.774 53.2193L132.37 53.4574L132.983 53.6954L133.63 53.9164L134.311 54.1205L135.009 54.3245L135.741 54.5115L136.49 54.6985L137.273 54.8686L138.073 55.0386L138.89 55.1916L139.537 55.2936L140.184 55.3956L140.831 55.4807L141.478 55.5657L142.125 55.6337L142.772 55.7017L143.419 55.7527L144.066 55.8037L144.713 55.8377L145.343 55.8717L145.973 55.9057L146.602 55.9397H147.232L147.862 55.9737H148.492H149.105H149.531L149.939 55.9397L150.348 55.9057L150.739 55.8547L151.114 55.7867L151.488 55.7187L151.846 55.6337L152.203 55.5317L152.544 55.4126L152.884 55.2936L153.225 55.1576L153.548 55.0046L153.872 54.8346L154.195 54.6645L154.502 54.4775L154.808 54.2905L155.217 54.0014L155.659 53.6784L156.102 53.3554L156.545 53.0323L157.004 52.7093L157.464 52.4032L157.924 52.0802L158.383 51.7571L158.843 51.4341L159.302 51.128L159.779 50.822L160.239 50.5159L160.715 50.2099L161.192 49.9039L161.669 49.5808L167.219 45.9083L167.321 45.6872L167.61 45.0922L167.917 44.4801L168.257 43.868L168.598 43.2729L168.87 42.7628L169.176 42.2527L169.483 41.7767L169.806 41.3176L170.13 40.8755L170.453 40.4505L170.777 40.0594L171.117 39.6854L171.458 39.3283L171.798 39.0053L172.156 38.6992L172.513 38.4102L172.871 38.1551L173.228 37.9171L173.586 37.7131L174.028 37.458L174.403 37.339L174.522 37.305L174.658 37.237ZM60.7836 54.6475L60.6814 54.1885L60.5793 53.7124L60.4601 53.2363L60.358 52.7773L60.0515 51.6891L59.7281 50.669L59.4046 49.7338L59.0641 48.8667L58.7236 48.0846L58.3661 47.3705L58.0086 46.7414L57.6511 46.1973L57.2936 45.7382L56.9531 45.3472L56.6126 45.0411L56.2892 44.8031L55.9998 44.6331L55.7274 44.5311L55.472 44.4631H55.2167H55.0634L54.8932 44.4971L54.6889 44.5651L54.4506 44.6841L54.1782 44.8541L53.8888 45.0922L53.5653 45.3812L53.2248 45.7212L52.8673 46.1123L52.4928 46.5714L52.1012 47.0814L51.6927 47.6425L51.2841 48.2546L50.8585 48.9347L50.4158 49.6658L49.9902 50.4139L49.122 52.1482L48.7134 52.9643L48.3219 53.7294L47.9644 54.4435L47.6239 55.1236L47.3004 55.7527L47.011 56.3308L46.7386 56.8749L46.4833 57.3679L46.2449 57.81L46.0406 58.2181L45.8534 58.5751L45.6831 58.8982L45.5299 59.1702L44.5425 60.8704L43.2827 59.7313L43.1806 59.6803L43.0274 59.5953L42.8401 59.4762L42.4826 59.1702L42.2783 58.7791L42.2102 58.6601L42.1421 58.5241L42.074 58.3541L42.0229 58.15L41.9889 57.946V57.793V57.691V56.3478L42.057 55.5487V55.1236L42.091 54.7155V54.3075L42.1251 53.8824V53.4574L42.1591 53.0493V52.6242L42.1932 52.2162L42.2272 51.3831V50.958L42.2442 50.5329V49.6998L42.2783 49.2748V48.8667V48.4416V48.0166V47.6085V46.3673V45.9593V45.5512L42.2613 45.1432V44.7351L42.2272 44.327V43.919L42.1932 43.5109V43.0859L42.1591 42.6608V42.2187L42.1251 41.7767V41.3346L42.074 40.8925V40.4505L42.0229 40.0084V39.5664L41.9719 39.1073V38.6482L41.9208 38.1892V37.7301L41.8697 37.271L41.8357 36.812L41.8016 36.3359L41.7676 35.8598L41.7335 35.3837L41.6995 34.8907L41.6314 33.9385L41.5973 33.4455L41.5633 32.9524L41.5122 32.4593L41.4611 31.9663L41.4101 31.4562L41.359 30.9461L41.3079 30.436L41.2568 29.926L41.2058 29.4159L41.1547 28.8888L41.0866 28.3617L40.9334 27.0355L40.8483 26.3724L40.7631 25.7093L40.678 25.0462L40.5929 24.3832L40.5078 23.7031L40.4227 23.023L40.3375 22.3429L40.2524 21.6628L40.1673 20.9827L40.0822 20.3026L39.997 19.6225L39.9119 18.9254L39.8268 18.2283L39.7247 17.3441L39.8098 16.732L39.8609 16.358L39.8949 16.0349V15.7459L39.929 15.5079V15.3208V15.1848V14.4537L40.5248 13.9436L40.7121 13.7906L40.9334 13.6206L41.1887 13.4166L41.4782 13.1955L41.8016 12.9405L42.1591 12.6515L44.2701 10.9682L44.866 13.6546L44.9851 14.1817L45.1043 14.7087L45.2064 15.2358L45.3086 15.7629L45.4107 16.29L45.5129 16.8171L45.615 17.3441L45.7172 17.8712L45.8193 18.3983L45.9215 18.9084L46.0066 19.4184L46.0917 19.9285L46.1768 20.4386L46.2619 20.9487L46.3471 21.4587L46.4322 21.9688L46.5003 22.4789L46.5684 22.9889L46.6365 23.499L46.7046 23.9921L46.7727 24.4852L46.8408 24.9782L46.9089 25.4713L46.9599 25.9644L47.011 26.4575L47.0621 26.9505L47.1132 27.4436L47.1642 27.9197L47.2153 28.3957L47.2664 28.8718L47.3174 29.3479L47.3515 29.8409L47.3855 30.334L47.4196 30.8271L47.4536 31.3202L47.4877 31.8132L47.5217 32.3063L47.5558 32.7994V33.2924L47.6069 33.7855V34.2786L47.6409 34.7717V35.2647L47.6579 35.7578V36.2339L47.6749 36.7269V37.203V37.6961V38.1892V38.6652V39.6344V40.1274V40.6205L47.6579 41.0966V41.5896V41.6577L47.743 41.5896L47.9984 41.3686L48.2538 41.1306L48.4921 40.9095L48.7304 40.6885L48.9518 40.4675L49.2752 40.1614L49.7689 39.8214L50.1435 39.5664L50.518 39.3283L50.8755 39.0903L51.233 38.8693L51.5735 38.6652L51.914 38.4782L52.2545 38.3082L52.5949 38.1551L52.9354 38.0191L53.2759 37.9001L53.5994 37.7981L53.9398 37.7131L54.2803 37.6451L54.6208 37.6111H54.9613H55.6082L56.2381 37.6791L56.851 37.7981L57.4639 37.9681L58.0597 38.1892L58.6385 38.4612L59.2003 38.7672L59.7281 39.1243L60.2388 39.5323L60.7325 39.9744L61.2092 40.4675L61.6688 40.9946L62.0944 41.5726L62.503 42.1847L62.9116 42.8308L63.2521 43.4599L63.5585 43.919L63.882 44.4631L64.1884 45.0411L64.4948 45.6362L64.7842 46.2653L65.0566 46.9114L65.329 47.5745L65.5844 48.2716L65.8397 48.9857L66.0781 49.7338L66.3164 50.4989L66.5377 51.2981L66.7591 52.1142L66.9633 52.9643L67.1676 53.8484L67.3549 54.7155L67.5081 55.2766L67.6613 55.8717L67.8145 56.4838L67.9507 57.0959L68.0869 57.708L68.2231 58.3201L68.3593 58.9322L68.4955 59.5442L68.6317 60.1393L68.7679 60.7344L68.9041 61.3295L69.0403 61.9246L69.1765 62.5197L69.3127 63.0978L69.4659 63.6758L69.9085 65.3591L68.3764 66.0902L67.8486 66.3112L67.3208 66.5153L66.7761 66.6853L66.2313 66.8383L65.6695 66.9403L65.0907 67.0083L64.5459 67.0423H61.805L61.9072 65.2741V64.951L61.9242 64.628V63.6248L61.9072 63.2848V62.9277L61.8731 62.5707V62.2136L61.822 61.8396L61.788 61.4655L61.7539 61.0915L61.7029 60.7004L61.6518 60.3094L61.6007 59.9183L61.5497 59.5102L61.4816 59.1022L61.4135 58.6941L61.3454 58.2691L61.2773 57.844L61.2092 57.4189L61.124 56.9939L61.0389 56.5518L60.9538 56.1097L60.8517 55.6677L60.7665 55.2086L60.6644 54.7496L60.7836 54.6475ZM203.497 57.4019L202.254 56.6878L201.812 56.5008L201.352 56.3478L200.875 56.2458L200.348 56.1608L199.786 56.1097L199.19 56.0757H198.56H195.632H195.104L194.611 56.0587H194.134L193.657 56.0077L193.198 55.9567L192.772 55.9057L192.346 55.8377L191.938 55.7697L191.546 55.6847L191.172 55.5997L190.814 55.4977L190.457 55.3786L190.116 55.2596L189.793 55.1236L189.486 54.9706L189.163 54.8006L188.737 54.5795L188.363 54.3415L187.988 54.0865L187.631 53.8144L187.29 53.5254L186.967 53.2023L186.643 52.8623L186.337 52.4882L186.047 52.0972L185.775 51.6721L185.503 51.23L185.247 50.754L185.009 50.2439L184.788 49.6998L184.583 49.1387L184.396 48.5437L184.243 48.0336L184.107 47.5405L183.97 47.0814L183.851 46.6394L183.732 46.2313L183.63 45.8573L183.545 45.5172L183.46 45.2112L183.392 44.9221L183.324 44.6671L183.272 44.4631L183.221 44.293V44.157L183.17 44.072L183.153 43.851L182.796 42.9498L182.489 42.2697L182.183 41.6237L181.859 41.0116L181.536 40.4335L181.196 39.9064L180.838 39.3963L180.464 38.9373L180.072 38.5122L179.646 38.1211L179.204 37.7811L178.727 37.4921L178.216 37.254L177.689 37.084L177.144 36.982L176.599 36.948H176.242L175.918 36.999L175.612 37.05L175.322 37.118L175.033 37.186L174.76 37.271L174.624 37.322V46.1293L175.05 45.7212L176.088 44.7861V44.7011L176.19 44.5821L176.429 44.31L176.667 44.055L176.905 43.817L177.042 43.681L177.076 43.749L177.229 43.987L177.416 44.259L177.484 44.4631L177.637 44.8881L177.757 45.2452L177.842 45.5342L177.893 45.7723L177.927 45.9423V46.0613L177.876 46.3673V46.6054V46.7074V46.7924L177.859 46.8774V46.9794L177.791 47.1154L177.723 47.3025L177.569 47.6255L177.467 47.9316L177.399 48.1526L177.331 48.3566L177.246 48.5437L177.161 48.7307L177.076 48.9007L176.974 49.0877L176.837 49.3088L176.531 49.8528L176.242 50.3289L175.935 50.771L175.629 51.179L175.322 51.5531L174.999 51.8761L174.675 52.1652L174.59 52.2162V59.4422L174.846 59.3402L176.054 58.8982V58.7281L176.224 58.6431L176.463 58.5241L176.718 58.3881L176.991 58.2351L177.246 58.065L177.672 57.793L178.063 57.538L178.438 57.2999L178.795 57.0959L179.119 56.8919L179.425 56.7218L179.714 56.5518L179.987 56.4158L180.225 56.2968L180.429 56.1948L180.617 56.1097L180.77 56.0417L180.855 56.0077L180.94 56.0417L181.11 56.1438L181.315 56.2628L181.553 56.4158L181.842 56.6028L182.149 56.8238L182.489 57.0619L182.847 57.3339L183.238 57.623L183.647 57.929L184.09 58.2691L184.566 58.6261L185.043 59.0002L185.554 59.4082L186.081 59.8163L186.609 60.2073L187.137 60.5644L187.665 60.8874L188.192 61.1935L188.72 61.4655L189.231 61.7036L189.742 61.9246L190.252 62.1116L190.763 62.2646L191.257 62.4007L191.751 62.5027L192.244 62.5707L192.738 62.6217H193.215H193.538H193.845L194.151 62.6047H194.474L194.798 62.5537L195.121 62.5197L195.462 62.4857L195.802 62.4347L196.143 62.3667L196.5 62.2986L196.858 62.2306L197.215 62.1456L197.573 62.0606L197.947 61.9586L198.322 61.8566L198.713 61.7376L199.445 61.4655L200.126 61.1765L200.739 60.8534L201.301 60.5134L201.795 60.1393L202.237 59.7653L202.612 59.3742L203.446 58.3541V57.487L203.497 57.4019ZM203.497 12.4134V43.2389V43.0008L203.463 42.4228V41.8447L203.412 41.2666L203.378 40.6715L203.344 40.0764V39.4643L203.293 38.8693V38.2572L203.242 37.6451L203.208 37.033V36.4039L203.157 35.7748V35.1457L203.123 34.5166V33.8705L203.089 33.2244V32.5783L203.055 31.9322V31.2862L203.021 30.6231V29.943L203.004 27.9877V27.3756V26.7805V23.9581V23.431V22.9209V22.4279V21.9348V21.4587V20.9997V20.5576V20.1325V19.7075V19.2994V18.9084V18.5343L203.021 18.1602V17.8032L203.038 17.4631V17.1401L203.072 16.8171V16.511L203.106 16.222V15.9499L203.14 15.6779V15.4229L203.208 14.9128L203.242 14.4197L203.276 13.9266L203.327 13.4336L203.378 12.9575L203.429 12.4984V12.4304L203.497 12.4134ZM203.497 43.2389V43.5619L203.548 44.123L203.582 44.6841L203.616 45.2452L203.65 45.7893L203.684 46.3333L203.719 46.8774L203.753 47.4045L203.787 47.9316L203.821 48.4586L203.855 48.9687L203.889 49.5808L203.923 50.1929L203.957 50.788L203.991 51.3661L204.042 51.9271L204.076 52.4882L204.11 53.0323L204.144 53.5594L204.195 54.0695L204.246 54.5795L204.297 55.0726L204.331 55.5487L204.382 56.0077L204.434 56.4498L204.485 56.8919L204.536 57.2999L204.587 57.708L204.638 58.099L204.689 58.4731L204.74 58.8301L204.791 59.1872L204.859 59.5272L204.927 59.8503L204.995 60.1563L205.063 60.4454L205.132 60.7344L205.2 61.0065L205.285 61.2785L205.37 61.5335L205.455 61.7716L205.557 62.0096L206.323 63.6418L208.077 62.5027L208.502 62.1626L208.894 61.8056L209.251 61.4145L209.558 60.9895L209.83 60.5474L210.069 60.0883L210.273 59.6293L210.443 59.1532L210.596 58.6771L210.732 58.2011L210.835 57.725L210.937 57.2319L211.022 56.7558L211.107 56.2798L211.192 55.7527L211.226 55.2426L211.26 54.7496V54.2395L211.277 53.6954V53.1343L211.26 52.5562L211.226 51.9611L211.192 51.3321L211.158 50.686L211.107 50.0229L211.039 49.3428L210.971 48.6457L210.886 47.9146L210.801 47.1665L210.698 46.4013L210.579 45.5852L210.494 45.1942L210.426 44.8541L210.358 44.5141L210.29 44.174L210.239 43.834L210.188 43.4939L210.137 43.1539L210.086 42.8138L210.034 42.4738L209.983 42.1337L209.932 41.7937L209.898 41.4536L209.847 41.1136L209.813 40.7735L209.779 40.4165L209.745 40.1104V39.8384L209.694 39.3623V38.8693L209.643 38.5462V38.2062L209.609 37.8661V37.5261L209.575 37.186V36.846L209.541 36.5059V36.1659L209.524 35.8088V35.4518L209.507 35.0777V34.3636L209.473 34.0065V33.6325V33.2584V32.5103V32.1363V31.7452V31.3542V30.9631V30.572V30.181L209.49 29.7899V29.3989L209.524 29.0078V28.5998L209.558 28.1917V27.7836L209.592 27.3756V26.9675L209.626 26.5595V26.1514L209.66 25.7433V25.3353L209.694 24.9272L209.779 23.125L209.847 21.6968V21.2887L209.915 20.0985V19.7075L209.966 19.3164V18.9254L210 18.5343V18.1432L210.034 17.7522V17.3781L210.069 17.0041L210.103 16.63V16.256L210.137 15.8479V15.3548V14.9128V14.0286V13.6036V13.1785V12.7535V12.3284L210.12 11.9203V11.5123L210.103 11.1042V10.6962L210.069 10.3051V9.91405L210.034 9.523V9.13194L210 8.75789V8.38383L209.949 8.00978V7.63572L209.898 7.27867L209.864 6.92162L209.83 6.56457L209.796 6.20752L209.762 5.86747L209.728 5.52742L209.694 5.18737L209.66 4.84732L209.626 4.50727L209.592 4.18422L209.558 3.86118L209.132 0.375671L206.834 3.11307L206.579 3.43612L206.34 3.75916L206.119 4.08221L205.915 4.42226L205.71 4.76231L205.523 5.10236L205.336 5.45941L205.166 5.81646L205.012 6.17351L204.859 6.53056L204.723 6.90462L204.604 7.27867L204.485 7.66973L204.382 8.06079L204.314 8.38383L204.212 8.70688L204.093 9.11494L203.991 9.523L203.889 9.93106L203.804 10.3561L203.736 10.7812L203.667 11.2232L203.599 11.6653L203.548 12.1244L203.497 12.5154V43.3409V43.2389ZM203.497 58.2691V57.4019L203.974 57.674L203.497 58.2691ZM275.68 58.8471L275.578 58.5241L275.458 58.1841L275.339 57.844L275.22 57.5039L275.101 57.1639L274.982 56.8238L274.863 56.4838L274.726 56.1438L274.59 55.8037L274.454 55.4467L274.318 55.0896L274.182 54.7325L274.028 54.3755L273.875 54.0184L273.722 53.6614L273.569 53.3043L273.398 52.9473L273.245 52.5902L273.075 52.2332L272.905 51.8591L272.735 51.4851L272.564 51.111L272.394 50.737L272.207 50.3629L272.02 49.9889L271.832 49.6148L271.645 49.2408L271.458 48.8837L271.032 47.9996L270.589 47.1324L270.147 46.2993L269.704 45.5172L269.262 44.7691L268.819 44.055L268.376 43.3749L267.934 42.7288L267.491 42.1337L267.048 41.5726L266.606 41.0456L266.163 40.5525L265.721 40.0934L265.278 39.6684L264.818 39.2943L262.912 37.8831L262.077 40.1444L261.873 40.6545L261.669 41.1646L261.447 41.6747L261.209 42.1677L260.971 42.6608L260.715 43.1369L260.46 43.6129L260.188 44.072L259.915 44.5311L259.626 44.9901L259.337 45.4322L259.03 45.8743L258.724 46.2993L258.4 46.7244L258.06 47.1665L257.736 47.5915L257.43 47.9826L257.106 48.3566L256.766 48.7307L256.425 49.0877L256.068 49.4448L255.693 49.8018L255.319 50.1419L254.927 50.4819L254.536 50.822L254.127 51.145L253.701 51.4681L253.531 51.5871L253.429 51.111L253.344 50.652L253.259 50.1929L253.191 49.7508L253.123 49.2918L253.072 48.8497L253.021 48.4076L252.969 47.9656L252.918 47.5235L252.884 47.0814L252.85 46.6394L252.816 46.2823V45.3982L252.833 44.9051V44.3951L252.867 43.868V43.3239L252.918 42.7628L252.952 42.1847L252.986 41.5896L253.021 40.9946L253.055 40.3825L253.089 39.7364L253.123 39.0903L253.157 38.4272L253.191 37.7471L253.361 34.7207L250.654 36.0128L250.041 36.3869L249.462 36.829L248.935 37.339L248.458 37.9341L248.049 38.5802L247.692 39.2943L247.42 40.0254L247.334 40.2465L247.249 40.5185L247.164 40.7905L247.096 41.0626L247.028 41.3516L246.96 41.6577L246.909 41.9637L246.858 42.2697L246.807 42.5758L246.756 42.8988L246.705 43.2389L246.653 43.5789L246.619 43.919L246.568 44.259L246.534 44.6161L246.483 45.0411V46.4864V46.8094V47.1495V47.5065V47.8806L246.5 48.2716V48.4756L244.696 48.5097H244.287L243.862 48.5777L243.436 48.6457L242.993 48.7307L242.551 48.8327L242.108 48.9517L241.665 49.1047L241.223 49.2578L240.763 49.4448L240.303 49.6488L239.827 49.8698L239.35 50.1249L238.873 50.3969L238.38 50.686L237.852 51.026L237.46 51.3321L237.103 51.6041L236.745 51.8761L236.388 52.1482L236.03 52.4202L235.656 52.6923L235.281 52.9643L234.907 53.2363L234.532 53.5084L234.158 53.7804L233.766 54.0525L233.375 54.3245L232.983 54.5965L232.592 54.8686L232.2 55.1406L231.808 55.4126L231.4 55.7017L231.008 55.9567L230.634 56.1948L230.276 56.3988L229.919 56.5858L229.578 56.7558L229.238 56.9089L228.914 57.0279L228.608 57.1299L228.301 57.2149L227.995 57.2829L227.706 57.3339L227.416 57.3679L227.127 57.4019H226.837L226.548 57.4359H226.088L225.663 57.3849L225.271 57.3339L224.897 57.2489L224.556 57.1469L224.233 57.0279L223.943 56.8919L223.671 56.7388L223.416 56.5518L223.177 56.3478L222.956 56.1267L222.735 55.8717L222.53 55.5827L222.343 55.2766L222.156 54.9196L221.985 54.5625L221.917 54.3415L221.832 54.0695L221.764 53.7634L221.713 53.4234L221.662 53.0493L221.611 52.6582L221.577 52.2332V51.7911L221.543 51.3151V50.822V50.3119V49.7848L221.577 49.2238L221.611 48.6457L221.645 48.0506L221.679 47.4385L221.73 46.5544L221.781 45.7382L221.849 44.9561L221.934 44.208L222.02 43.4939L222.122 42.8138L222.241 42.1677L222.36 41.5556L222.496 40.9776L222.632 40.4505L222.786 39.9574L222.939 39.4983L223.092 39.0733L223.245 38.6822L223.398 38.3422L223.552 38.0701L223.688 37.8491L223.858 37.6111L224.028 37.39L224.216 37.186L224.403 36.999L224.59 36.829L224.794 36.6759L224.999 36.5399L225.203 36.4209L225.407 36.3189L225.629 36.2339L225.867 36.1489L226.122 36.0978L226.395 36.0468L226.667 36.0128H226.922H227.042H227.127L227.246 36.0808L227.382 36.1659L227.552 36.3019L227.757 36.5059L227.978 36.7609L228.199 37.084L228.438 37.458L228.693 37.9001L228.948 38.3932L229.204 38.9543L229.459 39.5664L229.731 40.2294L229.987 40.9436L230.242 41.6747L230.344 42.0997L230.481 42.5588L230.617 43.0008L230.753 43.4089L230.889 43.8L231.025 44.174L231.162 44.5141L231.298 44.8371L231.434 45.1432L231.57 45.4152L231.706 45.6702L231.825 45.9083L231.945 46.1123L232.064 46.2993L232.166 46.4694L234.396 49.8698L234.873 45.2792L234.941 44.5821L234.992 43.902L235.026 43.2389V42.5928L235.043 41.9637V41.3516V40.7565L235.009 40.1784L234.975 39.6174L234.924 39.0733L234.873 38.5462L234.805 38.0361L234.737 37.5431L234.668 37.067L234.583 36.5569L234.396 35.8258L234.175 35.1457L233.936 34.4996L233.647 33.8875L233.341 33.3094L233 32.7824L232.626 32.2893L232.2 31.8302L231.757 31.4222L231.281 31.0651L230.77 30.7591L230.225 30.504L229.663 30.3L229.068 30.164L228.455 30.079L227.842 30.045H227.127L226.429 30.13L225.748 30.249L225.067 30.402L224.403 30.5891L223.756 30.8271L223.126 31.1161L222.513 31.4392L221.917 31.8132L221.339 32.2213L220.777 32.6634L220.249 33.1564L219.738 33.6835L219.245 34.2446L218.785 34.8397L218.325 35.4858L217.985 36.0638L217.678 36.6249L217.389 37.203L217.117 37.7811L216.844 38.3762L216.589 38.9713L216.35 39.5834L216.129 40.2124L215.925 40.8415L215.738 41.4876L215.567 42.1507L215.414 42.8308L215.278 43.5109L215.159 44.208L215.057 44.9221L214.954 45.6872L214.92 46.4524V47.1835V47.8976V48.5947L214.972 49.2918L215.023 49.9889L215.091 50.669L215.193 51.3491L215.312 52.0122L215.448 52.6753L215.601 53.3213L215.789 53.9674L215.993 54.5965L216.231 55.2256L216.487 55.8377L216.759 56.3988L217.048 57.0619L217.389 57.742L217.763 58.3881L218.172 58.9832L218.615 59.5442L219.091 60.0713L219.602 60.5474L220.13 60.9725L220.692 61.3635L221.287 61.7036L221.9 61.9926L222.547 62.2306L223.211 62.4177L223.892 62.5367L224.59 62.6217H225.305H225.867L226.446 62.5707L227.042 62.4857L227.655 62.3667L228.284 62.2136L228.931 62.0266L229.595 61.8226L230.293 61.5845L231.008 61.3125L231.723 61.0065L232.472 60.6664L233.238 60.2924L234.022 59.8843L234.822 59.4422L235.639 58.9662L236.456 58.4731L237.137 58.099L237.835 57.691L238.516 57.2829L239.18 56.8749L239.844 56.4668L240.474 56.0587L241.104 55.6507L241.716 55.2426L242.295 54.8176L242.874 54.3925L243.436 53.9674L243.981 53.5424L244.508 53.1003L245.019 52.6582L245.496 52.2162L246.245 51.4851L246.653 49.5298V49.8868L246.705 50.3799L246.739 50.89L246.79 51.4341L246.841 51.9611L246.892 52.4542L246.943 52.9303L246.994 53.3894L247.062 53.8144L247.13 54.2225L247.198 54.5965L247.266 54.9536L247.334 55.2766L247.386 55.5827L247.454 55.8717L247.505 56.1267L247.556 56.3648L247.607 56.5688V56.6538L247.641 56.7558L247.709 57.0279L247.794 57.2489L247.896 57.4529L247.998 57.657L248.032 57.708V58.8641L249.99 58.8131L250.569 58.7791L251.148 58.7111L251.727 58.6091L252.289 58.4901L252.85 58.3371L253.412 58.15L253.974 57.946L254.519 57.708L255.063 57.4529L255.608 57.1639L256.153 56.8579L256.681 56.5178L257.208 56.1608L257.736 55.7697L258.247 55.3616L258.69 54.9876L259.132 54.6135L259.558 54.2395L259.966 53.8484L260.375 53.4404L260.767 53.0323L261.158 52.6072L261.533 52.1822L261.907 51.7401L262.265 51.2811L262.622 50.805L262.963 50.3289L263.15 50.0569L263.269 50.2439L263.473 50.584L263.695 50.941L263.916 51.3321L264.154 51.7401L264.41 52.1822L264.682 52.6412L264.954 53.1343L265.244 53.6444L265.533 54.1545L265.976 54.9876L266.453 55.8207L266.946 56.6028L267.457 57.3339L267.985 58.014L268.513 58.6431L269.074 59.2212L269.653 59.7483L270.249 60.2073L270.862 60.6154L271.492 60.9725L272.156 61.2615L272.82 61.4995L273.518 61.6696L274.216 61.7716L275.816 61.8566V58.7111L275.68 58.8471ZM275.68 39.7194V45.5852L274.658 45.8063V41.8447L274.76 41.3856L274.897 41.0116L275.067 40.6545L275.254 40.3145L275.492 39.9744L275.68 39.7194ZM275.68 61.9926L276.701 62.0436L276.003 59.8333L275.901 59.5102L275.799 59.1872L275.697 58.8641V61.9926H275.68ZM323.347 37.016L323.024 37.22L322.547 37.5091L322.105 37.7981L321.679 38.1041L321.287 38.4102L320.93 38.7162L320.589 39.0223L320.283 39.3283L319.994 39.6514L319.738 39.9744L319.517 40.3145L319.313 40.6545L319.142 41.0116L319.023 41.3856L318.921 41.8447V45.8063L321.032 45.3302L321.509 45.1942L321.985 45.0411L322.479 44.8541L322.99 44.6501L323.33 44.4971V36.999L323.347 37.016ZM323.347 20.1835V32.2043L322.598 32.9694L321.815 30.334L321.696 29.943L321.577 29.5519L321.475 29.1608L321.373 28.7868L321.27 28.4127L321.168 28.0387L321.066 27.6646L320.964 27.2906L320.862 26.9165L320.76 26.5425L320.658 26.1684L320.572 25.8624L320.045 25.9644L319.449 26.0664L318.853 26.1684L318.274 26.2704L317.695 26.3724L317.117 26.4745L316.538 26.5765L315.959 26.6785L315.397 26.7805L314.835 26.8825L314.274 26.9845L313.729 27.0865L313.184 27.2056L312.639 27.3246L311.822 27.4776L311.056 27.6306L310.307 27.8006L309.575 27.9707L308.86 28.1407L308.179 28.3277L307.532 28.5148L306.902 28.7018L306.306 28.9058L305.727 29.1098L305.183 29.3139L304.672 29.5349L304.178 29.7559L303.736 29.977L303.31 30.215L302.918 30.453L302.34 30.8271L301.812 31.2011L301.318 31.5752L300.858 31.9492L300.433 32.3233L300.041 32.6974L299.701 33.0714L299.394 33.4625L299.122 33.8365L298.884 34.2276L298.679 34.6186L298.509 35.0097L298.373 35.4178L298.271 35.8258L298.186 36.2509L298.135 36.6759V38.3762V38.8352V39.3113L298.152 39.7874V40.2805L298.186 40.7735L298.22 41.2666L298.254 41.7597L298.288 42.2697L298.339 42.7798L298.39 43.2899L298.458 43.817L298.543 44.344L298.628 45.0071L298.713 45.6532L298.799 46.2823L298.884 46.8944L298.969 47.4895L299.054 48.0676L299.122 48.6287L299.19 49.1897L299.258 49.7168L299.326 50.2439L299.394 50.754L299.445 51.247L299.497 51.7231L299.548 52.1822L299.599 52.6242L299.633 53.0493L299.667 53.4744L299.701 53.8654L299.735 54.2565V54.6305L299.786 54.9876V55.3276L299.82 55.6507V55.9737L299.837 56.2798V56.5688V56.8409V57.3509L299.82 57.589V57.827L299.786 57.98V58.4901L299.735 59.0682L299.684 59.6293L299.599 60.1733L299.497 60.7004L299.377 61.2105L299.224 61.7036L299.037 62.2306L298.73 62.8087L298.424 63.3188L298.084 63.8119L297.692 64.2879L297.249 64.73L296.773 65.1381L296.245 65.4951L294.015 66.7703L293.623 64.3049L293.555 63.7949L293.487 63.2508L293.419 62.6897L293.368 62.1116L293.317 61.5165L293.266 60.9044L293.232 60.2583L293.198 59.5953V58.9152L293.164 58.2011V56.7218L293.198 55.9567L293.232 55.1576L293.266 54.3755V51.3831V50.4989V49.6658V48.8837V48.1696L293.249 47.5235V46.9284L293.232 46.3843V45.9083L293.198 45.4832V45.1262L293.147 44.8371L293.112 44.6161L293.061 44.344L293.01 43.5449L292.959 42.8478L292.891 42.1677L292.823 41.5216L292.738 40.8925L292.636 40.2635L292.534 39.6514L292.414 39.0563L292.295 38.4782L292.159 37.9171L292.006 37.356L291.853 36.812L291.682 36.2679L291.648 36.1999L291.563 36.2509L291.172 36.5229L290.746 36.829L290.286 37.169L289.793 37.5261L289.248 37.9171L288.669 38.3422L288.056 38.8012L287.409 39.2773L286.728 39.7874L285.996 40.3315L285.213 40.9095L284.532 41.3856L283.885 41.8277L283.255 42.2527L282.643 42.6438L282.047 43.0179L281.468 43.3579L280.889 43.681L280.344 43.987L279.8 44.259L279.272 44.5141L278.761 44.7351L278.25 44.9391L277.757 45.1262L277.28 45.2792L276.803 45.4152L275.714 45.6702V39.8044L275.782 39.7194L276.071 39.3963L276.378 39.0903L276.718 38.7842L277.076 38.4782L277.467 38.1722L277.893 37.8661L278.335 37.5601L278.812 37.271L279.306 36.965L279.817 36.6759L280.651 36.2169L281.451 35.7748L282.2 35.3667L282.898 34.9757L283.562 34.6186L284.175 34.2786L284.737 33.9725L285.264 33.6835L285.741 33.4285L286.167 33.1904L286.541 32.9864L286.865 32.7994L287.137 32.6464L287.358 32.5103L287.529 32.4083L287.614 32.3573L288.09 32.0003L288.55 31.6262L288.976 31.2521L289.35 30.8951L289.708 30.521L290.031 30.147L290.321 29.7729L290.576 29.3989L290.797 29.0248L291.001 28.6508L291.172 28.2597L291.308 27.8857L291.427 27.4946L291.529 27.0865L291.597 26.6785L291.631 26.2874V23.329L291.563 22.8869L291.495 22.3769L291.427 21.8838L291.376 21.4247L291.325 20.9827L291.274 20.5746L291.24 20.1835L291.206 19.8095L291.172 19.4694V19.1634L291.138 18.8744V18.3303L291.172 18.0582L291.223 17.8032V16.0009L291.716 15.5079L291.836 15.3888L291.989 15.2528L292.159 15.0998L292.363 14.9298L292.585 14.7598L292.823 14.5727L294.321 13.5356L295.223 15.1848L295.394 15.5419L295.564 15.9159L295.734 16.307L295.887 16.732L296.041 17.1741L296.194 17.6332L296.347 18.1262L296.483 18.6363L296.619 19.1804L296.756 19.7415L296.875 20.3196L296.994 20.9316L297.096 21.5607L297.198 22.2068L297.283 22.9209L297.334 23.567L297.386 24.1451L297.437 24.7062L297.488 25.2503L297.539 25.7774L297.59 26.2874L297.641 26.7805L297.692 27.2396L297.743 27.6986L297.777 27.9707L297.964 27.8687L298.39 27.6136L298.799 27.3756L299.207 27.1376L299.616 26.8995L300.024 26.6615L300.433 26.4404L300.824 26.2194L301.216 25.9984L301.608 25.7944L301.999 25.5903L302.391 25.3863L302.765 25.1993L303.14 25.0122L303.514 24.8252L303.889 24.6382L304.263 24.4682L304.638 24.2981L305.012 24.1281L305.387 23.9581L305.744 23.8051L306.102 23.652L306.459 23.499L306.817 23.346L307.174 23.21L307.532 23.074L307.889 22.9379L308.196 22.8189L308.604 22.6489L309.047 22.4789L309.49 22.3088L309.932 22.1558L310.375 22.0028L310.818 21.8498L311.26 21.7138L311.703 21.5777L312.145 21.4417L312.588 21.3227L313.014 21.2037L313.439 21.0847L313.865 20.9657L314.291 20.8636L314.716 20.7786L315.142 20.6936L315.567 20.6086L315.993 20.5236L316.402 20.4556L316.827 20.3876L317.236 20.3196L317.644 20.2686L318.053 20.2175L318.461 20.1665L318.87 20.1155L319.279 20.0815L319.687 20.0475L320.079 20.0135H320.47L320.862 19.9795H321.253H321.662H322.275L322.888 20.0815L323.416 20.2005L323.347 20.1835ZM323.347 32.2043L324.539 30.9801L324.828 30.6911L325.101 30.419L325.356 30.147L325.612 29.8749L325.85 29.5859L326.071 29.2969L326.207 29.1098L326.463 28.8378L326.769 28.4467L327.042 28.0557L327.28 27.6646L327.484 27.2566L327.637 26.8315L327.74 26.3894L327.774 25.9644L327.74 25.3523L327.672 24.7912L327.552 24.2301L327.382 23.6861L327.161 23.159L326.905 22.6659L326.599 22.1898L326.156 21.5947L325.561 21.1527L325.084 20.8296L324.573 20.5576L324.028 20.3366L323.467 20.1665H323.398V32.1703L323.347 32.2043ZM371.287 37.237L371.168 37.271L370.794 37.39L370.351 37.6451L370.011 37.8491L369.653 38.0871L369.296 38.3422L368.938 38.6312L368.598 38.9373L368.24 39.2603L367.9 39.6174L367.559 39.9914L367.219 40.3825L366.895 40.8075L366.572 41.2496L366.248 41.7087L365.942 42.1847L365.635 42.6948L365.363 43.2049L365.023 43.8L364.682 44.4121L364.376 45.0241L364.086 45.6192L363.831 46.2143L363.593 46.8094L363.371 47.4045L363.167 47.9996L362.997 48.5777L362.843 49.1557L362.707 49.7338L362.588 50.3119L362.486 50.873L362.401 51.4341L362.333 51.9952L362.282 52.5052L362.248 52.8113L362.214 53.1683V53.5084L362.18 53.8484V54.4945L362.214 54.8176L362.248 55.1236L362.282 55.4296L362.333 55.7357L362.384 56.0247L362.452 56.2968L362.52 56.5688L362.605 56.8409L362.69 57.0959L362.809 57.4019L363.15 58.082L363.593 58.6941L364.12 59.2042L364.716 59.6293L365.346 59.9353L366.01 60.1393L366.691 60.2583L367.372 60.2924H367.661L367.934 60.2583L368.189 60.2243L368.461 60.1903L368.734 60.1393L368.989 60.0883L369.262 60.0203L369.534 59.9523L369.806 59.8673L370.079 59.7823L370.368 59.6973L370.658 59.5953L370.947 59.4932L371.253 59.3912H371.304V52.1482L370.896 52.4542L370.334 53.0153L369.823 53.3383L369.636 53.4574L369.449 53.5594L369.245 53.6614L369.04 53.7634L368.836 53.8654L368.615 53.9504L368.393 54.0525L368.325 54.0865L368.274 53.9504L368.172 53.6784V53.5424L368.138 53.1853L368.104 52.8793L368.053 52.5902L368.019 52.3522L367.985 52.1482V51.9782L367.968 51.9101V51.7741L368.036 51.5191L368.087 51.2811L368.138 51.043L368.206 50.805L368.274 50.5669L368.342 50.3289L368.427 50.0909L368.513 49.8528L368.615 49.6148L368.717 49.3768L368.836 49.1387L368.955 48.9007L369.091 48.6627L369.245 48.4246L369.415 48.1696L369.585 47.9316L369.789 47.6595L370.062 47.3195L370.402 46.9454L370.794 46.5204L371.253 46.0613L371.339 45.9933V37.186L371.287 37.237ZM371.287 22.9549V28.1237L371.049 28.4637L370.726 28.8548L370.47 29.1268L370.334 29.3139L370.113 29.6029L369.874 29.8749L369.619 30.147L369.347 30.419L369.074 30.7081L368.785 30.9971L366.844 32.9694L366.061 30.334L365.942 29.943L365.84 29.5519L365.738 29.1608L365.635 28.7868L365.533 28.4127L365.431 28.0387L365.329 27.6646L365.125 26.9165L365.023 26.5425L364.92 26.1684L364.835 25.8624L364.291 25.9644L363.695 26.0664L363.116 26.1684L362.537 26.2704L361.958 26.3724L361.379 26.4745L360.801 26.5765L360.222 26.6785L359.66 26.7805L359.098 26.8825L358.536 26.9845L357.992 27.0865L357.447 27.2056L356.885 27.3246L356.068 27.4776L355.285 27.6306L354.536 27.8006L353.804 27.9707L353.089 28.1407L352.408 28.3277L351.744 28.5148L351.114 28.7018L350.518 28.9058L349.939 29.1098L349.394 29.3139L348.884 29.5349L348.407 29.7559L347.947 29.977L347.522 30.215L347.113 30.453L346.534 30.8271L346.007 31.2011L345.513 31.5752L345.053 31.9492L344.628 32.3233L344.236 32.6974L343.896 33.0714L343.589 33.4625L343.317 33.8365L343.078 34.2276L342.874 34.6186L342.704 35.0097L342.568 35.4178L342.449 35.8258L342.363 36.2509L342.312 36.7269L342.278 37.118V37.5431L342.244 37.9681V38.4102V38.8523V39.3113L342.278 39.7704L342.312 40.2465L342.346 40.7225L342.38 41.2156L342.432 41.7087L342.483 42.2187L342.551 42.7288L342.619 43.2559L342.687 43.783L342.772 44.327L342.874 44.9901L342.959 45.6362L343.044 46.2653L343.129 46.8774L343.215 47.4725L343.3 48.0506L343.368 48.6117L343.436 49.1727L343.504 49.6998L343.572 50.2269L343.64 50.737L343.691 51.23L343.742 51.7061L343.793 52.1652L343.845 52.6072L343.896 53.0323L343.93 53.4574L343.964 53.8484L343.998 54.2395V54.6135L344.049 54.9706V55.3106L344.083 55.6337V55.9567L344.1 56.2628V56.5518V56.8409V57.1129V57.3679V57.606L344.066 57.844V57.997L344.049 58.5071L344.015 59.0852L343.947 59.6463L343.879 60.1903L343.776 60.7174L343.657 61.2275L343.504 61.7206L343.317 62.2476L343.01 62.8257L342.704 63.3358L342.363 63.8289L341.972 64.3049L341.529 64.747L341.053 65.1551L340.525 65.5121L338.295 66.7873L337.903 64.3219L337.835 63.8119L337.767 63.2678L337.699 62.7067L337.648 62.1286L337.597 61.5335L337.546 60.9214L337.512 60.2754L337.477 59.6123V58.9322L337.443 58.2181V56.7388L337.477 55.9737L337.512 55.1746L337.546 54.3925V50.5159V49.6828V48.9007V48.1866V47.5405L337.529 46.9454V46.4013L337.494 45.9253V45.5002L337.46 45.1432L337.426 44.8541L337.392 44.6331L337.341 44.3781L337.29 43.5959L337.239 42.8988L337.171 42.2187L337.103 41.5556L337.018 40.9265L336.916 40.2975L336.814 39.6854L336.694 39.0903L336.558 38.5122L336.422 37.9511L336.269 37.39L336.116 36.846L335.945 36.3189L335.911 36.2509L335.826 36.3019L335.435 36.5739L335.009 36.88L334.549 37.22L334.039 37.5771L333.511 37.9681L332.932 38.3932L332.319 38.8523L331.672 39.3283L330.991 39.8384L330.259 40.3825L329.476 40.9606L328.795 41.4366L328.148 41.8787L327.518 42.3037L326.905 42.6948L326.31 43.0689L325.731 43.4089L325.169 43.732L324.607 44.038L324.062 44.31L323.535 44.5651L323.364 44.6331V37.135L323.535 37.033L324.045 36.7439L324.88 36.2849L325.68 35.8428L326.429 35.4348L327.127 35.0437L327.791 34.6866L328.404 34.3466L328.965 34.0406L329.493 33.7515L329.97 33.4965L330.395 33.2584L330.77 33.0544L331.093 32.8674L331.366 32.7144L331.587 32.5783L331.757 32.4763L331.842 32.4253L332.302 32.0683L332.762 31.6942L333.187 31.3202L333.562 30.9631L333.919 30.5891L334.243 30.215L334.532 29.8409L334.788 29.4669L335.009 29.0928L335.213 28.7188L335.383 28.3277L335.537 27.9537L335.656 27.5626L335.758 27.1546L335.826 26.7465L335.877 26.3554V23.397L335.809 22.9549L335.741 22.4449L335.673 21.9518L335.605 21.4927L335.554 21.0507L335.52 20.6426L335.469 20.2516L335.435 19.8775V19.5374L335.383 19.2314V18.9424V18.6703V18.3983L335.418 18.1262L335.469 17.8712V16.0689L335.962 15.5759L336.081 15.4569L336.235 15.3208L336.405 15.1678L336.609 14.9978L336.831 14.8278L337.069 14.6407L338.567 13.6036L339.469 15.2528L339.64 15.6099L339.81 15.9839L339.98 16.375L340.15 16.8001L340.303 17.2421L340.457 17.7182L340.61 18.2113L340.746 18.7213L340.882 19.2654L341.018 19.8265L341.138 20.4046L341.257 21.0167L341.359 21.6458L341.461 22.2918L341.546 23.006L341.597 23.652L341.648 24.2301L341.699 24.7912L341.751 25.3353L341.802 25.8624L341.853 26.3724L341.904 26.8655L341.955 27.3246L342.006 27.7666L342.04 28.0387L342.227 27.9367L342.653 27.6816L343.061 27.4436L343.47 27.2056L343.879 26.9675L344.287 26.7295L344.679 26.5085L345.07 26.2874L345.462 26.0664L345.853 25.8624L346.245 25.6583L346.636 25.4543L347.011 25.2673L347.386 25.0803L347.76 24.8932L348.135 24.7062L348.509 24.5362L348.884 24.3661L349.258 24.1961L349.633 24.0261L349.99 23.8731L350.348 23.7201L350.705 23.567L351.063 23.414L351.42 23.278L351.778 23.142L352.135 23.006L352.459 22.8869L352.867 22.7169L353.31 22.5469L353.753 22.3769L354.195 22.2238L354.638 22.0708L355.08 21.9178L355.523 21.7818L355.966 21.6458L356.408 21.5097L356.834 21.3907L357.26 21.2717L357.685 21.1527L358.111 21.0337L358.536 20.9316L358.962 20.8466L359.388 20.7616L359.813 20.6766L360.222 20.5916L360.647 20.5236L361.073 20.4556L361.482 20.3876L361.89 20.3366L362.299 20.2856L362.707 20.2345L363.116 20.1835L363.524 20.1495L363.933 20.1155L364.325 20.0815H364.716L365.108 20.0475H365.499H365.908H366.521L367.134 20.1495L367.729 20.2686L368.291 20.4386L368.836 20.6596L369.347 20.9316L369.84 21.2547L370.419 21.6968L370.862 22.2748L371.168 22.7509L371.322 23.023L371.287 22.9549ZM371.287 28.1237V22.9549L371.407 23.193L371.628 23.7201L371.798 24.2641L371.934 24.8252L372.002 25.3863V25.9984V26.4234L371.9 26.8655L371.747 27.2906L371.56 27.6986L371.322 28.0897L371.287 28.1407V28.1237ZM371.287 59.3742V52.1482L371.373 52.0972L371.696 51.8081L372.02 51.4851L372.326 51.111L372.632 50.703L372.939 50.2609L373.228 49.7848L373.552 49.2408L373.688 49.0197L373.79 48.8327L373.875 48.6627L373.96 48.4756L374.028 48.2886L374.113 48.0846L374.182 47.8636L374.284 47.5575L374.437 47.2345L374.505 47.0474L374.556 46.9114V46.8094L374.59 46.7244V46.6394V46.5374V46.2993L374.641 45.9933V45.7042L374.556 45.4662L374.454 45.1772L374.335 44.8201L374.182 44.3951L374.113 44.208L373.909 43.936L373.756 43.698L373.705 43.6299L373.569 43.766L373.33 44.004L373.092 44.259L372.854 44.5311L372.752 44.6501V44.7351L371.713 45.6702L371.287 46.0783V37.271L371.424 37.22L371.696 37.135L371.968 37.067L372.258 36.999L372.564 36.948L372.888 36.914H373.245L373.79 36.931L374.335 37.033L374.863 37.203L375.373 37.441L375.85 37.7301L376.293 38.0701L376.718 38.4612L377.11 38.8863L377.484 39.3453L377.842 39.8554L378.182 40.3825L378.506 40.9606L378.829 41.5726L379.136 42.2187L379.425 42.8988L379.783 43.8V44.004H379.8V44.089L379.851 44.225L379.885 44.3951L379.936 44.5991L380.004 44.8541L380.072 45.1432L380.157 45.4492L380.242 45.7893L380.344 46.1633L380.464 46.5714L380.583 47.0134L380.719 47.4725L380.855 47.9656L380.991 48.4756L381.179 49.0707L381.383 49.6318L381.604 50.1759L381.842 50.686L382.098 51.162L382.37 51.6041L382.643 52.0292L382.932 52.4202L383.238 52.7943L383.562 53.1343L383.885 53.4574L384.226 53.7464L384.583 54.0184L384.958 54.2735L385.332 54.5115L385.758 54.7325L386.081 54.9026L386.388 55.0556L386.711 55.1916L387.052 55.3106L387.409 55.4296L387.767 55.5317L388.141 55.6167L388.533 55.7017L388.925 55.7697L389.35 55.8377L389.793 55.8887L390.235 55.9397L390.695 55.9737H391.172L391.665 56.0077H392.193H395.121H395.751L396.347 56.0587L396.909 56.1097L397.437 56.1948L397.93 56.2968L398.39 56.4498L398.833 56.6368L400.569 57.64L399.258 59.2552L398.884 59.6463L398.441 60.0203L397.947 60.3944L397.403 60.7344L396.79 61.0575L396.109 61.3465L395.377 61.6185L394.985 61.7376L394.611 61.8396L394.253 61.9416L393.896 62.0266L393.538 62.1116L393.181 62.1796L392.84 62.2476L392.5 62.3157L392.159 62.3667L391.836 62.4007L391.512 62.4347L391.189 62.4687H390.865L390.559 62.5027H390.252H389.929H389.469L388.976 62.4347L388.482 62.3667L387.988 62.2646L387.477 62.1286L386.967 61.9756L386.456 61.7886L385.945 61.5675L385.435 61.3295L384.907 61.0575L384.379 60.7514L383.851 60.4284L383.324 60.0713L382.796 59.6803L382.268 59.2722L381.757 58.8641L381.281 58.4901L380.804 58.133L380.361 57.793L379.953 57.487L379.561 57.1979L379.204 56.9259L378.863 56.6878L378.557 56.4668L378.284 56.2798L378.029 56.1267L377.825 56.0077L377.655 55.9057L377.569 55.8717L377.484 55.9057L377.331 55.9737L377.144 56.0587L376.939 56.1608L376.701 56.2798L376.429 56.4158L376.139 56.5858L375.833 56.7558L375.509 56.9599L375.152 57.1639L374.777 57.4019L374.386 57.657L373.96 57.929L373.705 58.099L373.433 58.2521L373.177 58.3881L372.939 58.5071L372.769 58.5921V58.7621L371.56 59.2042L371.304 59.3062L371.287 59.3742Z" fill="#1D1D1B"/>
</svg>
