<svg width="20" height="20" viewBox="0 0 20 20" fill="none" xmlns="http://www.w3.org/2000/svg">
<path d="M15.2978 3.57227C14.6479 3.57227 14.1279 4.09785 14.1279 4.74212C14.1279 5.38639 14.6535 5.91198 15.2978 5.91198C15.942 5.91198 16.4676 5.38639 16.4676 4.74212C16.4676 4.09785 15.942 3.57227 15.2978 3.57227Z" fill="black"/>
<path d="M10.0873 5.07617C7.3747 5.07617 5.16504 7.2859 5.16504 9.9986C5.16504 12.7113 7.3747 14.921 10.0873 14.921C12.8 14.921 15.0096 12.7113 15.0096 9.9986C15.0096 7.2859 12.8 5.07617 10.0873 5.07617ZM10.0873 13.1521C8.34673 13.1521 6.9339 11.7393 6.9339 9.9986C6.9339 8.25795 8.34673 6.84508 10.0873 6.84508C11.8279 6.84508 13.2408 8.25795 13.2408 9.9986C13.2408 11.7393 11.8279 13.1521 10.0873 13.1521Z" fill="black"/>
<path d="M13.9927 20.0006H6.00735C2.69568 20.0006 0 17.3048 0 13.993V6.00751C0 2.69575 2.69568 0 6.00735 0H13.9927C17.3043 0 20 2.69575 20 6.00751V13.993C20 17.3048 17.3043 20.0006 13.9927 20.0006ZM6.00735 1.88759C3.73552 1.88759 1.88189 3.73562 1.88189 6.01316V13.9987C1.88189 16.2706 3.72987 18.1243 6.00735 18.1243H13.9927C16.2645 18.1243 18.1181 16.2762 18.1181 13.9987V6.01316C18.1181 3.74127 16.2701 1.88759 13.9927 1.88759H6.00735Z" fill="black"/>
</svg>
