<svg width="954" height="95" viewBox="0 0 954 95" fill="none" xmlns="http://www.w3.org/2000/svg">
<path d="M9.5 63.94L11.14 64.76C11.14 65.744 11.3587 66.6187 11.796 67.384C12.5613 68.696 14.0373 70.008 16.224 71.32C18.52 72.5227 21.0893 73.616 23.932 74.6C26.884 75.584 29.9453 76.404 33.116 77.06C36.2867 77.6067 39.1293 77.88 41.644 77.88C43.5027 77.88 45.908 77.7707 48.86 77.552C51.812 77.224 54.7093 76.6227 57.552 75.748C60.3947 74.8733 62.8547 73.6707 64.932 72.14C67.0093 70.6093 68.048 68.5867 68.048 66.072C68.048 63.5573 67.064 61.6987 65.096 60.496C63.2373 59.2933 60.7227 58.4187 57.552 57.872C54.4907 57.3253 50.9373 56.9973 46.892 56.888C42.956 56.6693 38.9107 56.396 34.756 56.068C30.6013 55.74 26.5013 55.1933 22.456 54.428C18.52 53.6627 14.9667 52.4053 11.796 50.656C8.73467 48.7973 6.22 46.3373 4.252 43.276C2.39333 40.1053 1.464 36.0053 1.464 30.976C1.464 27.5867 2.22933 24.252 3.76 20.972C5.4 17.692 7.86 14.7947 11.14 12.28C14.42 9.76533 18.5747 7.74266 23.604 6.212C28.6333 4.572 34.5373 3.752 41.316 3.752C47.1107 3.752 52.14 4.18933 56.404 5.06399C60.668 5.93866 64.3307 6.86799 67.392 7.852C70.5627 8.836 73.1867 9.76533 75.264 10.64C77.4507 11.5147 79.2547 11.952 80.676 11.952C82.2067 11.952 83.3 11.624 83.956 10.968L85.924 12.28L74.608 32.78L72.968 32.124C72.7493 30.5933 72.312 29.336 71.656 28.352C70.7813 27.04 69.3053 25.7827 67.228 24.58C65.26 23.268 62.9093 22.12 60.176 21.136C57.4427 20.152 54.4907 19.3867 51.32 18.84C48.1493 18.184 44.9787 17.856 41.808 17.856C39.4027 17.856 36.888 18.0747 34.264 18.512C31.7493 18.84 29.4533 19.3867 27.376 20.152C25.2987 20.9173 23.5493 21.956 22.128 23.268C20.816 24.4707 20.16 26.0013 20.16 27.86C20.16 30.484 21.0893 32.452 22.948 33.764C24.916 35.076 27.4307 36.06 30.492 36.716C33.6627 37.372 37.216 37.8093 41.152 38.028C45.1973 38.2467 49.2973 38.52 53.452 38.848C57.6067 39.176 61.652 39.7773 65.588 40.652C69.6333 41.4173 73.1867 42.7293 76.248 44.588C79.4187 46.3373 81.9333 48.7427 83.792 51.804C85.76 54.8653 86.744 58.856 86.744 63.776C86.744 69.4613 85.2133 74.108 82.152 77.716C79.2 81.324 75.4827 84.1667 71 86.244C66.5173 88.3213 61.652 89.7427 56.404 90.508C51.2653 91.164 46.4547 91.492 41.972 91.492C35.74 91.492 30.492 91.164 26.228 90.508C22.0733 89.7427 18.5747 88.868 15.732 87.884C12.9987 86.7907 10.812 85.8613 9.172 85.096C7.532 84.2213 6.11067 83.784 4.908 83.784C4.14267 83.784 3.432 84.2213 2.776 85.096L0.48 83.784L9.5 63.94ZM170.547 40.816C174.155 40.816 177.216 40.1053 179.731 38.684C182.355 37.2627 183.667 34.4747 183.667 30.32C183.667 26.1653 182.355 23.3773 179.731 21.956C177.216 20.5347 174.155 19.824 170.547 19.824H135.615V40.816H170.547ZM110.851 91V88.048C114.896 88.048 116.919 87.064 116.919 85.096V10.64C116.919 8.672 114.896 7.688 110.851 7.688V4.736H168.579C179.075 4.736 187.329 6.704 193.343 10.64C199.356 14.4667 202.363 21.0267 202.363 30.32C202.363 39.6133 199.356 46.228 193.343 50.164C187.329 53.9907 179.075 55.904 168.579 55.904H135.615V85.096C135.615 87.064 137.364 88.048 140.863 88.048V91H110.851ZM302.893 22.448C302.893 21.2453 302.401 20.3707 301.417 19.824C300.543 19.168 298.957 18.84 296.661 18.84H243.525V39.176H275.669C277.856 39.176 279.551 38.9027 280.753 38.356C281.956 37.7 282.557 36.1147 282.557 33.6H285.509V59.184H282.557C282.557 56.6693 281.956 55.084 280.753 54.428C279.551 53.6627 277.856 53.28 275.669 53.28H243.525V75.912H298.301C299.941 75.912 301.253 75.5293 302.237 74.764C303.331 73.9987 303.877 72.96 303.877 71.648H306.829V94.116H303.877C303.877 92.476 303.331 91.5467 302.237 91.328C301.253 91.1093 299.941 91 298.301 91H221.877V88.048C222.643 88.048 223.299 87.8293 223.845 87.392C224.501 86.8453 224.829 86.08 224.829 85.096V10.64C224.829 9.656 224.501 8.94533 223.845 8.508C223.299 7.96133 222.643 7.688 221.877 7.688V4.736H296.661C298.957 4.736 300.543 4.408 301.417 3.752C302.401 2.98666 302.893 2.00266 302.893 0.799998H305.845V22.448H302.893ZM422.284 79.192C421.956 79.192 421.628 79.192 421.3 79.192C421.081 79.0827 420.808 79.028 420.48 79.028C419.824 79.028 418.239 79.684 415.724 80.996C413.319 82.308 410.203 83.784 406.376 85.424C402.659 87.064 398.395 88.4853 393.584 89.688C388.773 90.8907 383.744 91.492 378.496 91.492C371.608 91.492 364.993 90.6173 358.652 88.868C352.311 87.1187 346.68 84.44 341.76 80.832C336.949 77.1147 333.123 72.5227 330.28 67.056C327.437 61.5893 326.016 55.1933 326.016 47.868C326.016 40.652 327.437 34.3107 330.28 28.844C333.123 23.268 336.949 18.6213 341.76 14.904C346.68 11.1867 352.311 8.39866 358.652 6.53999C364.993 4.68133 371.608 3.752 378.496 3.752C384.072 3.752 389.101 4.18933 393.584 5.06399C398.176 5.93866 402.167 6.86799 405.556 7.852C408.945 8.836 411.624 9.76533 413.592 10.64C415.56 11.5147 416.763 11.952 417.2 11.952C417.747 11.952 418.184 11.6787 418.512 11.132C418.949 10.5853 419.277 10.148 419.496 9.81999L421.956 11.788L409.164 31.632L407.524 30.484C407.524 30.156 407.469 29.828 407.36 29.5C407.36 29.172 407.305 28.7893 407.196 28.352C406.977 27.1493 405.884 25.9467 403.916 24.744C401.948 23.432 399.488 22.284 396.536 21.3C393.693 20.316 390.632 19.496 387.352 18.84C384.181 18.184 381.229 17.856 378.496 17.856C373.904 17.856 369.476 18.512 365.212 19.824C361.057 21.136 357.395 23.0493 354.224 25.564C351.163 28.0787 348.703 31.1947 346.844 34.912C344.985 38.52 344.056 42.6747 344.056 47.376C344.056 52.0773 344.985 56.2867 346.844 60.004C348.703 63.612 351.163 66.6733 354.224 69.188C357.395 71.7027 361.057 73.616 365.212 74.928C369.476 76.24 373.904 76.896 378.496 76.896C381.995 76.896 385.657 76.5133 389.484 75.748C393.311 74.8733 396.809 73.8347 399.98 72.632C403.151 71.32 405.775 69.8987 407.852 68.368C410.039 66.728 411.132 65.1973 411.132 63.776C411.132 63.0107 410.913 62.3547 410.476 61.808L412.772 60.496L423.596 77.88L422.284 79.192ZM449.128 88.048C451.97 88.048 453.392 87.064 453.392 85.096V10.64C453.392 8.672 451.97 7.688 449.128 7.688V4.736H476.352V7.688C473.509 7.688 472.088 8.672 472.088 10.64V85.096C472.088 87.064 473.509 88.048 476.352 88.048V91H449.128V88.048ZM555.401 57.544L541.625 27.04L526.209 57.544H555.401ZM493.573 88.048C494.994 87.8293 496.088 87.1187 496.853 85.916C497.728 84.7133 498.548 83.3467 499.313 81.816L529.653 18.02C530.418 16.5987 531.074 15.2867 531.621 14.084C532.277 12.8813 532.605 11.8427 532.605 10.968C532.605 9.87466 532.222 9.10933 531.457 8.67199C530.692 8.23466 529.872 7.90666 528.997 7.688V4.736H556.713V7.688C555.948 7.90666 555.182 8.23466 554.417 8.67199C553.652 9 553.269 9.76533 553.269 10.968C553.269 11.8427 553.433 12.7173 553.761 13.592C554.198 14.4667 554.8 15.6147 555.565 17.036L589.677 83.784C590.224 84.9867 590.934 85.8613 591.809 86.408C592.793 86.9547 593.886 87.5013 595.089 88.048V91H566.225V88.048C566.662 88.048 567.209 87.884 567.865 87.556C568.521 87.228 568.849 86.736 568.849 86.08C568.849 84.9867 568.412 83.5653 567.537 81.816L561.305 69.68H521.289L515.385 81.324C514.292 83.62 513.745 85.26 513.745 86.244C513.745 87.4467 514.784 88.048 516.861 88.048V91H493.573V88.048ZM693.652 94.116C693.652 92.476 693.105 91.5467 692.012 91.328C691.028 91.1093 689.716 91 688.076 91H610.012V88.048C613.292 88.048 614.932 87.064 614.932 85.096V10.64C614.932 8.672 613.292 7.688 610.012 7.688V4.736H638.22V7.688C635.158 7.688 633.628 8.672 633.628 10.64V75.912H688.076C689.716 75.912 691.028 75.5293 692.012 74.764C693.105 73.9987 693.652 72.96 693.652 71.648H696.604V94.116H693.652ZM713.385 88.048C716.228 88.048 717.649 87.064 717.649 85.096V10.64C717.649 8.672 716.228 7.688 713.385 7.688V4.736H740.609V7.688C737.767 7.688 736.345 8.672 736.345 10.64V85.096C736.345 87.064 737.767 88.048 740.609 88.048V91H713.385V88.048ZM813.755 85.096C813.755 87.064 814.957 88.048 817.363 88.048V91H792.107V88.048C792.872 88.048 793.528 87.8293 794.075 87.392C794.731 86.8453 795.059 86.08 795.059 85.096V19.824H767.999C767.015 19.824 766.031 20.0973 765.047 20.644C764.172 21.1907 763.735 22.2293 763.735 23.76H760.783V0.799998H763.735C763.735 2.33066 764.172 3.36933 765.047 3.916C766.031 4.46266 767.015 4.736 767.999 4.736H840.815C841.799 4.736 842.728 4.46266 843.603 3.916C844.587 3.36933 845.079 2.33066 845.079 0.799998H848.031V23.76H845.079C845.079 22.2293 844.587 21.1907 843.603 20.644C842.728 20.0973 841.799 19.824 840.815 19.824H813.755V85.096ZM890.561 4.736V7.688C889.577 7.688 888.647 7.852 887.773 8.18C886.898 8.39866 886.461 9.05466 886.461 10.148C886.461 10.804 887.226 12.3893 888.757 14.904C890.397 17.3093 892.255 20.0973 894.333 23.268C896.519 26.3293 898.761 29.5 901.057 32.78C903.353 36.06 905.211 38.848 906.633 41.144L925.821 14.74C926.695 13.428 927.406 12.3893 927.953 11.624C928.499 10.8587 928.773 10.148 928.773 9.492C928.773 8.72667 928.226 8.23466 927.133 8.01599C926.149 7.79733 925.219 7.688 924.345 7.688V4.736H953.045V7.688C952.17 7.688 951.35 7.79733 950.585 8.01599C949.819 8.12533 948.999 8.508 948.125 9.164C947.359 9.71066 946.485 10.5853 945.501 11.788C944.626 12.8813 943.533 14.412 942.221 16.38L914.341 55.904V85.096C914.341 87.064 915.598 88.048 918.113 88.048V91H892.201V88.048C893.185 88.048 894.005 87.8293 894.661 87.392C895.317 86.8453 895.645 86.08 895.645 85.096V55.904L863.993 11.624C863.227 10.5307 862.025 9.60133 860.385 8.83599C858.854 8.07066 857.542 7.688 856.449 7.688V4.736H890.561Z" fill="#B7946E"/>
</svg>
