<svg width="145" height="24" viewBox="0 0 145 24" fill="none" xmlns="http://www.w3.org/2000/svg">
<g clip-path="url(#clip0_628_1000)">
<path fill-rule="evenodd" clip-rule="evenodd" d="M7.11551 8.95524V11.1588H7.09699H7.07231H7.0538L6.91186 11.1282L6.80077 11.1098L6.68969 11.0976L6.58478 11.0853H6.47987L6.37496 11.0792H6.26387H6.15896H5.94914L5.74549 11.0914L5.54801 11.1098L5.3567 11.1343L5.17156 11.1649L4.99259 11.2016L4.8198 11.2445L4.65317 11.2934L4.49272 11.3485L4.33844 11.4097L4.19033 11.477L4.04839 11.5505L3.91262 11.6301L3.77685 11.7219L3.64726 11.8198L3.51149 11.93L3.38806 12.034L3.28315 12.1381L3.18441 12.2483L3.09184 12.3585L3.00545 12.4809L2.92522 12.6094L2.85116 12.7441L2.78328 12.8849L2.72157 13.0318L2.66603 13.1909L2.61666 13.3562L2.57346 13.5275L2.53643 13.7051L2.50557 13.8948L2.48089 14.0907L2.46237 14.311L2.45003 14.4457L2.43769 14.5681V14.6905L2.42535 14.8129V14.9353L2.41918 15.0578V15.3026L2.42535 15.425V15.5474L2.43769 15.6699L2.45003 15.7923L2.46237 15.9147L2.47472 16.0371L2.49323 16.1534L2.51175 16.2697L2.53026 16.386L2.54877 16.5023L2.57346 16.6186L2.59814 16.7349L2.629 16.8512L2.65986 16.9675L2.69071 17.0838L2.72157 17.2001L2.75242 17.3164L2.78945 17.4327L2.82648 17.549L2.86351 17.6653L2.90671 17.7816L2.9499 17.8979L2.9931 18.008L3.0363 18.1182L3.15973 18.3998L3.28315 18.6568L3.41275 18.8956L3.54852 19.1098L3.68428 19.2995L3.82005 19.4709L3.96199 19.6178L4.10393 19.7464L4.25204 19.8565L4.40632 19.9484L4.5606 20.0279L4.72106 20.0891L4.88768 20.1381L5.06665 20.1748L5.25179 20.1932H5.46161L5.56652 20.1993H5.6776H5.78252H5.88743H5.99234H6.09108L6.18982 20.1932H6.28239L6.37496 20.181L6.46753 20.1687L6.56009 20.1565L6.64649 20.1442L6.73289 20.132L6.81929 20.1136L6.90568 20.0953L7.02294 20.0647L7.10934 20.0524V22.1764H7.07848L6.96123 22.1947L6.84397 22.207L6.72672 22.2192L6.60329 22.2314L6.47987 22.2437L6.35644 22.2559L6.23302 22.2682L6.10959 22.2804L5.98617 22.2927H5.86274L5.73932 22.3049H5.61589L5.49247 22.3171H5.36904H5.24562H5.04196L4.84448 22.3049L4.647 22.2927L4.45569 22.2743L4.26438 22.2498L4.07925 22.2192L3.90028 22.1825L3.72131 22.1458L3.54852 22.1029L3.38189 22.0539L3.21527 21.9989L3.04865 21.9376L2.88819 21.8703L2.73391 21.7969L2.5858 21.7173L2.43769 21.6316L2.29575 21.5398L2.15998 21.448L2.02422 21.35L1.89462 21.246L1.77119 21.1358L1.64777 21.0195L1.53051 20.8971L1.41943 20.7686L1.31452 20.64L1.21578 20.5054L1.11704 20.3646L1.02447 20.2238L0.938073 20.0769L0.857846 19.9239L0.783791 19.7647L0.715907 19.6117L0.660366 19.4832L0.604825 19.3485L0.549283 19.2077L0.499913 19.0669L0.450543 18.9262L0.407344 18.7854L0.364145 18.6385L0.320947 18.4916L0.283919 18.3386L0.246891 18.1855L0.216035 18.0264L0.185179 17.8673L0.160494 17.7081L0.135809 17.5428L0.111124 17.3776L0.0926099 17.2123L0.0802673 17.0409L0.0617535 16.8695L0.049411 16.692L0.0370685 16.5145V16.337L0.024726 16.1534V15.9698L0.0185547 15.78V15.4005L0.024726 15.2047V15.0088L0.0370685 14.8129L0.049411 14.6109L0.0617535 14.4028L0.0740961 14.1947L0.0926099 13.907L0.123466 13.6132L0.166665 13.3256L0.222206 13.044L0.29009 12.7686L0.364145 12.4992L0.450543 12.236L0.549283 11.979L0.660366 11.7341L0.783791 11.4954L0.913388 11.2628L1.05533 11.0425L1.20961 10.8282L1.37623 10.6262L1.54903 10.4365L1.73417 10.259L1.93782 10.0815L2.14764 9.91622L2.36363 9.75708L2.59197 9.61018L2.82648 9.47552L3.06716 9.3531L3.31401 9.24292L3.56703 9.14499L3.82622 9.0593L4.09159 8.98585L4.3693 8.92464L4.65317 8.87567L4.94322 8.83895L5.23944 8.80834L5.54184 8.78998H5.8504H6.01702H6.17748L6.33176 8.80834L6.47987 8.8267L6.62798 8.84507L6.76992 8.86343L6.91186 8.88791L7.03528 8.90627H7.04762H7.07848H7.10934L7.11551 8.95524ZM33.1397 20.3034L32.5164 21.0685H32.2264H32.177H32.1338L32.0906 21.0746H32.0536L32.0104 21.0868L31.961 21.0991L31.8314 21.1419H31.7018L31.6586 21.148H31.6216L31.5784 21.1664L31.529 21.1787L31.4735 21.1909L31.3994 21.2093L31.3007 21.2215L31.0785 21.2093L30.8687 21.1848L30.6589 21.1419L30.4552 21.0807L30.2516 21.0011L30.0541 20.9032L29.869 20.7869L29.69 20.6523L29.5172 20.4992L29.3691 20.334L29.2395 20.1565L29.1407 19.9667L29.0667 19.7647L29.0173 19.5627L28.9865 19.3546L28.9741 19.1465V19.0241L28.9926 18.9078L29.0112 18.7976L29.0358 18.6936L29.0667 18.5956L29.0975 18.5038L29.1346 18.4181L29.2395 18.1917L29.4617 18.0876L29.5295 18.057L29.6098 18.0264L29.6962 17.9897L29.7949 17.9591L29.906 17.9346L30.0232 17.9223H30.1467H30.2577L30.3627 17.9346L30.4676 17.9529L30.5725 17.9774L30.6774 18.008L30.7823 18.0386L30.8872 18.0754L30.9921 18.1182L31.1032 18.1672L31.2143 18.2161L31.3254 18.2712L31.4365 18.3324L31.5475 18.3937L31.6586 18.461L31.7697 18.5344L31.887 18.614L32.1215 18.8038L32.3313 18.9874L32.5164 19.1771L32.6707 19.3608L32.8003 19.5444L32.9114 19.728L32.9978 19.9116L33.1274 20.3156L33.1397 20.3034ZM33.0472 4.57269L33.0348 4.68286L33.0225 4.79916L33.0101 4.92158L32.9916 5.05012L32.9731 5.18478L32.9546 5.32556L32.9361 5.47246L32.9114 5.6316L32.8867 5.79686L32.862 5.96825L32.8373 6.14575L32.8065 6.32938L32.7818 6.51913L32.7509 6.715L32.7201 6.91699L32.6892 7.13122L32.6584 7.34545L32.6213 7.57192L32.5843 7.80452L32.5473 8.04323L32.5103 8.28806L32.4424 8.73489L32.3498 9.33474L32.3066 9.62242L32.2572 9.90398L32.2079 10.1733L32.1647 10.4365L32.1215 10.6875L32.0783 10.9323L32.0351 11.1649L31.9919 11.3914L31.9548 11.6056L31.9178 11.8137L31.8808 12.0157L31.8438 12.2054L31.8067 12.3891L31.7759 12.5666L31.745 12.7318L31.7142 12.891L31.6833 13.044L31.6525 13.1848L31.6278 13.3194L31.6031 13.4419L31.5784 13.5581L31.5537 13.6683L31.5352 13.7663L31.5167 13.8581L31.4982 13.9438L31.4797 14.0233L31.4611 14.0968L31.4488 14.158L31.4365 14.2131L31.4241 14.2621L31.4056 14.311L31.3871 14.36L31.313 14.5375L29.9183 15.4005L29.7949 14.5436L29.7826 14.4396L29.7702 14.3355L29.7579 14.2253L29.7455 14.1152L29.7332 14.005L29.7208 13.8948L29.7085 13.7846L29.6962 13.6683L29.6838 13.552V13.4357L29.6715 13.3194V13.2031L29.6591 13.0868V12.9644V12.8481V12.3891V12.2728V12.1565V12.034V11.9116L29.6653 11.7892V11.6607L29.6776 11.5321V11.4036L29.6962 11.2689L29.7085 11.1343L29.7208 10.9935L29.7332 10.8588V10.7364L29.7517 10.6018V10.4671L29.7702 10.3324L29.7826 10.1978L29.7949 10.0631L29.8072 9.92234L29.8258 9.78156L29.8381 9.64078L29.8566 9.5L29.8751 9.35922L29.8936 9.21844L29.9122 9.07154L29.9307 8.92464L29.9492 8.77774L29.9739 8.62471L29.9986 8.47781L30.0232 8.32479L30.0479 8.17177L30.0726 8.01875L30.0973 7.86572L30.122 7.7127L30.1467 7.55968L30.1775 7.40054L30.2084 7.24139L30.2392 7.08225L30.2701 6.92311L30.3009 6.76396L30.3318 6.60482L30.3627 6.44568L30.3997 6.28041L30.4367 6.12127L30.4737 5.95601L30.5108 5.79074L30.5478 5.61936L30.5848 5.45409L30.6219 5.28883L30.6589 5.12357L30.6959 4.9583L30.7329 4.79304L30.77 4.62777L30.807 4.46863L30.844 4.30949L30.881 4.15035L30.9181 3.9912L30.9551 3.83206L30.9921 3.67292L31.0292 3.51377L31.0662 3.35463L31.1032 3.19549L31.1402 3.03634L31.1773 2.8772L31.2143 2.71806L31.2513 2.56504L31.2883 2.40589L31.3562 2.09373L31.3933 1.94071L31.4303 1.78156L31.5722 1.15723L31.8252 0.0615929L32.5967 0.924638L32.7201 1.10826L32.825 1.29801L32.9114 1.5L32.9793 1.71423L33.0348 1.93458L33.078 2.16106L33.1089 2.38141L33.1212 2.45486L33.1336 2.54667L33.1459 2.63849V2.7303L33.1644 2.82823V2.92617L33.1706 3.03022V3.13428V3.24445V3.35463L33.1644 3.47093V3.58722L33.1459 3.70964L33.1336 3.83206L33.1212 3.9606L33.1089 4.06465V4.18707L33.1027 4.27276V4.36458L33.0842 4.46251L33.0718 4.56657L33.0472 4.57269ZM7.11551 22.207V20.083L7.23276 20.0647L7.40556 20.034L7.57835 19.9973L7.74498 19.9606L7.9116 19.9178L8.07205 19.8688L8.23251 19.8198L8.39296 19.7647L8.54724 19.7035L8.70152 19.6423L8.8558 19.575L9.00391 19.5015L9.15202 19.4281L9.30013 19.3485L9.44207 19.2628L9.58401 19.171L9.83086 19.0119L10.0592 18.8466L10.2752 18.6752L10.4727 18.4977L10.6578 18.3141L10.8306 18.1243L10.9849 17.9346L11.1268 17.7387L11.2564 17.5367L11.3737 17.3286L11.4724 17.1144L11.5588 16.894L11.6329 16.6676L11.6946 16.435L11.7378 16.1963L11.7686 15.9575V15.7066V15.4495L11.744 15.1985L11.7069 14.9598L11.6514 14.7272L11.5835 14.5008L11.5033 14.2804L11.4045 14.0601L11.2935 13.852L11.17 13.6438L11.0281 13.4419L10.8738 13.246L10.6948 13.0501L10.5035 12.8604L10.2937 12.6706L10.0592 12.4809L9.88023 12.334L9.70744 12.2054L9.53464 12.083L9.36185 11.9728L9.18905 11.8627L9.01009 11.7647L8.83112 11.6729L8.65215 11.5872L8.46701 11.5077L8.28188 11.4403L8.09057 11.3791L7.89926 11.324L7.70178 11.2751L7.5043 11.2322L7.33767 11.2016H7.3315L7.07848 11.1649V8.96136H7.10934L7.14636 8.96748H7.18339L7.22042 8.97973H7.23893L7.49813 9.01645L7.782 9.06542L8.06588 9.13275L8.34359 9.2062L8.61512 9.29189L8.88666 9.38982L9.1582 9.5L9.42356 9.6163L9.68275 9.74484L9.94195 9.88562L10.195 10.0325L10.4418 10.1917L10.6825 10.3569L10.917 10.5283L11.1453 10.7058L11.3737 10.8956L11.5341 11.0425L11.6822 11.1832L11.8242 11.3301L11.9661 11.477L12.0957 11.6239L12.2253 11.777L12.3487 11.93L12.466 12.083L12.5771 12.2422L12.682 12.4013L12.7869 12.5604L12.8795 12.7257L12.972 12.891L13.0584 13.0562L13.1387 13.2276L13.2127 13.399L13.2806 13.5704L13.3423 13.7418L13.3979 13.9193L13.4472 14.0968L13.4966 14.2743L13.5398 14.4518L13.5768 14.6354L13.6077 14.8191L13.6324 15.0027L13.6509 15.1924L13.6632 15.3822V15.5719L13.6756 15.7617V15.9514L13.6694 16.1473L13.657 16.337L13.6447 16.5084L13.6262 16.692L13.6015 16.8757L13.5706 17.0532L13.5336 17.2307L13.4966 17.4021L13.4534 17.5735L13.404 17.7448L13.3485 17.9101L13.2868 18.0754L13.2189 18.2345L13.1448 18.3937L13.0646 18.5528L12.9844 18.7058L12.8918 18.8588L12.7992 19.0057L12.7005 19.1526L12.5956 19.2995L12.4845 19.4403L12.3673 19.5811L12.25 19.7158L12.1266 19.8504L11.997 19.979L11.8612 20.1075L11.7254 20.2299L11.5835 20.3523L11.4354 20.4686L11.2811 20.5849L11.1207 20.7012L10.9602 20.8114L10.7936 20.9216L10.6084 21.0379L10.3863 21.148L10.1826 21.246L9.9728 21.3378L9.76915 21.4235L9.5655 21.5092L9.35568 21.5888L9.14585 21.6683L8.93603 21.7418L8.72621 21.8152L8.51639 21.8826L8.30656 21.9499L8.09057 22.0111L7.87457 22.0662L7.65858 22.1213L7.44258 22.1702L7.20808 22.2192L7.10317 22.2314L7.11551 22.207ZM63.0827 13.3072V16.4778L63.0518 16.5023L62.8852 16.6676L62.7433 16.8206L62.6199 16.9552L62.5211 17.0777L62.4471 17.1756L62.3853 17.2613L62.3236 17.3531L62.2681 17.4388L62.2187 17.5245L62.1755 17.6102L62.1323 17.6959L62.0953 17.7816L62.0583 17.8673L62.0274 17.9529L61.9966 18.0386L61.9719 18.1243L61.9472 18.21L61.9287 18.2957L61.9102 18.3814L61.8916 18.4671L61.8731 18.5589V18.6079L61.867 18.6324V18.6936L61.8855 18.767L61.8978 18.8527L61.9102 18.9568L61.9225 19.0669L61.9348 19.1955V19.2445L61.9719 19.3424L61.9904 19.3914L62.0151 19.3791L62.1015 19.3424L62.1817 19.3118L62.2557 19.2751L62.3298 19.2383L62.4039 19.2016L62.4717 19.1649L62.5396 19.122L62.7248 19.0057L62.9284 18.8038L63.0765 18.6936V21.295H63.058L62.9469 21.3378L62.842 21.3745L62.7371 21.4112L62.6322 21.4419L62.5335 21.4725L62.4347 21.5031L62.336 21.5275L62.2372 21.552L62.1385 21.5704L62.0398 21.5888L61.941 21.601L61.8423 21.6132H61.7497L61.6448 21.6255L61.3979 21.6132L61.1511 21.5704L60.9104 21.4969L60.6821 21.3868L60.4661 21.2337L60.2748 21.0501L60.1143 20.8298L59.9847 20.5849L59.9415 20.4748L59.9107 20.3829L59.8798 20.285L59.8551 20.1871L59.8304 20.083L59.8119 19.979L59.7934 19.8749L59.7749 19.7647L59.7626 19.6546V19.5383L59.7502 19.422V19.1832L59.7626 19.0608L59.7749 18.9384L59.7872 18.8221L59.8058 18.6385L59.8304 18.4365L59.8613 18.2345L59.8983 18.0325L59.9415 17.8244L59.9909 17.6163L60.0464 17.4082L60.1082 17.2001L60.1452 17.096L59.1516 18.4732L59.0405 18.6201L58.9294 18.767L58.8122 18.9139L58.6949 19.0608L58.5715 19.2077L58.4481 19.3546L58.3185 19.4954L58.1889 19.6423L58.0593 19.7831L57.9235 19.93L57.7878 20.0769L57.652 20.2238L57.51 20.3646L57.3681 20.5054L57.22 20.6523L57.0287 20.8359L56.8374 21.0073L56.6522 21.1664L56.4671 21.3194L56.2881 21.4602L56.1092 21.5888L55.9302 21.705L55.7512 21.8091L55.5784 21.9009L55.4056 21.9866L55.2328 22.0539L55.0601 22.1152L54.8873 22.158L54.7145 22.1947L54.5417 22.2131H54.3812L54.2146 22.2192H53.8999H53.7456H53.5913H53.437H53.2827L53.1284 22.2131H52.9742L52.8199 22.207H52.6718L52.5175 22.1947H52.3694L52.2213 22.1825H52.0732L51.9251 22.1641H51.7769L51.6288 22.1458L51.4807 22.1335L51.3388 22.1213L51.1968 22.109L51.0549 22.0968L50.913 22.0845L50.771 22.0723L50.6291 22.0539L50.4933 22.0356L50.3576 22.0172L50.2218 21.9989L50.086 21.9805L49.9502 21.9621L49.8145 21.9438L49.6725 21.9193L49.4812 21.8826L49.2961 21.8458L49.111 21.8091L48.932 21.7663L48.753 21.7234L48.5802 21.6806L48.4074 21.6377L48.2408 21.5949L48.0742 21.552L47.9076 21.5031L47.7471 21.4541L47.5867 21.4051L47.4262 21.3562L47.2719 21.3011L47.1176 21.246L46.9695 21.1909L46.8214 21.1358L46.6795 21.0807L46.5375 21.0195L46.3956 20.9583L46.2598 20.8971L46.1241 20.8359L45.9945 20.7686L45.8649 20.7012L45.7353 20.6339L45.6119 20.5604L45.4884 20.487L45.365 20.4135L45.2477 20.334L45.1305 20.2544L45.0194 20.1748L44.9145 20.0953L44.6553 19.8994L44.4085 19.6852L44.1739 19.4648L43.958 19.2322L43.7605 18.9874L43.5815 18.7364L43.4272 18.4732L43.2853 18.2039L43.168 17.9223L43.0693 17.6347L42.9891 17.3409L42.9335 17.0348L42.8965 16.7226L42.878 16.4044V16.08L42.9027 15.7617L42.915 15.6025L42.9273 15.4373L42.9459 15.272L42.9644 15.1067L42.9891 14.9415L43.0137 14.7762L43.0446 14.6109L43.0816 14.4457L43.1187 14.2804L43.1619 14.1152L43.2051 13.9499L43.2544 13.7846L43.3038 13.6194L43.3593 13.4541L43.4149 13.2827L43.4766 13.1174L43.5383 12.9522L43.6062 12.7808L43.6741 12.6155L43.7481 12.4503L43.8284 12.285L43.9086 12.1197L43.995 11.9545L44.0814 11.7892L44.1678 11.6178L44.2603 11.4526L44.3529 11.2873L44.4517 11.122L44.5504 10.9568L44.6553 10.7915L44.7602 10.6262L44.8713 10.4549L45.0071 10.2651L45.1367 10.0815L45.2724 9.90398L45.4082 9.73259L45.544 9.56733L45.6797 9.40819L45.8155 9.25517L45.9513 9.10826L46.0932 8.96748L46.2351 8.83282L46.3771 8.69816L46.519 8.57575L46.6671 8.45333L46.8152 8.33703L46.9634 8.22686L47.1115 8.1228L47.2596 8.02487L47.4139 7.93305L47.5681 7.84736L47.7224 7.76779L47.8767 7.69434L48.031 7.62701L48.1914 7.5658L48.3519 7.51071L48.5123 7.46175L48.679 7.4189L48.8456 7.38217L49.006 7.35157L49.1727 7.32709L49.3393 7.30872L49.5059 7.29648H49.6787L49.9626 7.3026L50.2403 7.33321L50.518 7.37605L50.7895 7.44338L51.0549 7.52908L51.3141 7.63313L51.5671 7.75555L51.8078 7.89633L52.0423 8.06159L52.2706 8.24522L52.4866 8.44721L52.6965 8.66756L52.8939 8.90627L53.0852 9.16335L53.2642 9.43879L53.437 9.73259L53.5049 9.86726L53.5666 9.99579L53.6283 10.1243L53.69 10.2529L53.7456 10.3814L53.8011 10.5099L53.8567 10.6385L53.906 10.767L53.9554 10.8956L53.9986 11.0302L54.0418 11.1649L54.0788 11.2995L54.1159 11.4342L54.1529 11.5689L54.1837 11.7035L54.2146 11.8382L54.2454 11.9728L54.2701 12.1075L54.2948 12.2422L54.3195 12.3768L54.338 12.5176L54.3565 12.6584L54.375 12.793L54.3874 12.9277L54.3997 13.0685V13.2093L54.4121 13.35V13.4908V13.6316V13.7724L54.4059 13.9132L54.3257 15.6515L53.363 14.109L53.2519 13.9315L53.1346 13.7479L52.9125 13.399L52.715 13.093L52.573 12.8726L52.462 12.6951L52.3447 12.5176L52.2336 12.3401L52.1225 12.1626L52.0053 11.9851L51.888 11.8076L51.7769 11.6239L51.672 11.4526L51.5177 11.2383L51.3573 11.0302L51.203 10.8344L51.0487 10.6568L50.9006 10.4916L50.7587 10.3447L50.6167 10.21L50.481 10.0937L50.3514 9.98967L50.2341 9.90398L50.123 9.83665L50.0243 9.78156L49.9317 9.74484L49.8577 9.72035L49.796 9.70811H49.7404H49.5615L49.3763 9.73259L49.1912 9.76932L48.9999 9.82441L48.8086 9.89786L48.6173 9.98967L48.4198 10.0998L48.2223 10.2284L48.0248 10.3814L47.8212 10.5528L47.6175 10.7425L47.4139 10.9568L47.2102 11.1894L47.0066 11.4464L46.8029 11.7219L46.5993 12.0218L46.5129 12.1565L46.4265 12.2911L46.3462 12.4258L46.266 12.5604L46.1858 12.6951L46.1117 12.8298L46.0377 12.9644L45.9698 13.093L45.9019 13.2276L45.8402 13.3562L45.7785 13.4847L45.7168 13.6132L45.6612 13.7418L45.6057 13.8703L45.5563 13.9989L45.5069 14.1274L45.4576 14.2559L45.4082 14.3845L45.365 14.513L45.3218 14.6354L45.2848 14.7578L45.2477 14.8803L45.2107 15.0027L45.1799 15.1251L45.149 15.2475L45.1181 15.3699L45.0935 15.4923L45.0688 15.6148L45.0503 15.7372L45.0318 15.8596L45.0132 15.982L45.0009 16.0861V16.2575V16.4288L45.0194 16.5941L45.0503 16.7594L45.0935 16.9185L45.149 17.0715L45.2169 17.2246L45.2909 17.3715L45.3835 17.5184L45.4884 17.6653L45.6057 17.806L45.7414 17.9468L45.8896 18.0876L46.0562 18.2223L46.2413 18.3569L46.445 18.4916L46.6054 18.5956L46.772 18.6936L46.951 18.7915L47.1362 18.8833L47.3336 18.9751L47.5373 19.0608L47.7533 19.1465L47.9754 19.2322L48.21 19.3118L48.4568 19.3852L48.7098 19.4587L48.9752 19.526L49.2467 19.5933L49.5306 19.6546L49.8207 19.7158L50.1169 19.7708L50.3514 19.8076L50.5859 19.8443L50.8204 19.8749L51.0549 19.9055L51.2894 19.93L51.5239 19.9545L51.7584 19.9728L51.9929 19.9912L52.2274 20.0034L52.4558 20.0157L52.6841 20.0279L52.9125 20.0402H53.1408L53.3691 20.0524H53.5975H53.8196H53.9739L54.122 20.0402L54.2701 20.0279L54.4121 20.0096L54.5478 19.9851L54.6836 19.9606L54.8132 19.93L54.9428 19.8933L55.0662 19.8504L55.1897 19.8076L55.3131 19.7586L55.4303 19.7035L55.5476 19.6423L55.6648 19.5811L55.7759 19.5138L55.887 19.4464L56.0351 19.3424L56.1956 19.2261L56.356 19.1098L56.5165 18.9935L56.6831 18.8772L56.8497 18.767L57.0163 18.6507L57.183 18.5344L57.3496 18.4181L57.5162 18.308L57.689 18.1978L57.8556 18.0876L58.0284 17.9774L58.2012 17.8673L58.374 17.751L60.3859 16.4288L60.4229 16.3493L60.5278 16.135L60.6389 15.9147L60.7623 15.6943L60.8857 15.4801L60.9845 15.2965L61.0956 15.1129L61.2066 14.9415L61.3239 14.7762L61.4411 14.6171L61.5584 14.464L61.6757 14.3233L61.7991 14.1886L61.9225 14.0601L62.0459 13.9438L62.1755 13.8336L62.3051 13.7295L62.4347 13.6377L62.5643 13.552L62.6939 13.4786L62.8544 13.3868L62.9901 13.3439L63.0333 13.3317L63.0827 13.3072ZM21.8031 19.575L21.7661 19.4097L21.7291 19.2383L21.6859 19.0669L21.6488 18.9017L21.5378 18.5099L21.4205 18.1427L21.3032 17.806L21.1798 17.4939L21.0564 17.2123L20.9268 16.9552L20.7972 16.7288L20.6676 16.5329L20.538 16.3676L20.4146 16.2269L20.2912 16.1167L20.1739 16.031L20.069 15.9698L19.9703 15.9331L19.8777 15.9086H19.7851H19.7296L19.6679 15.9208L19.5938 15.9453L19.5074 15.9881L19.4087 16.0494L19.3038 16.135L19.1865 16.2391L19.0631 16.3615L18.9335 16.5023L18.7977 16.6676L18.6558 16.8512L18.5077 17.0532L18.3595 17.2735L18.2053 17.5184L18.0448 17.7816L17.8905 18.0509L17.5758 18.6752L17.4277 18.969L17.2857 19.2445L17.1562 19.5015L17.0327 19.7464L16.9155 19.9728L16.8106 20.181L16.7118 20.3768L16.6193 20.5543L16.5329 20.7135L16.4588 20.8604L16.3909 20.9889L16.3292 21.1052L16.2737 21.2031L15.9157 21.8152L15.4591 21.4051L15.422 21.3868L15.3665 21.3562L15.2986 21.3133L15.169 21.2031L15.095 21.0624L15.0703 21.0195L15.0456 20.9705L15.0209 20.9093L15.0024 20.8359L14.99 20.7624V20.7073V20.6706V20.1871L15.0147 19.8994V19.7464L15.0271 19.5995V19.4526L15.0394 19.2995V19.1465L15.0518 18.9996V18.8466L15.0641 18.6997L15.0764 18.3998V18.2467L15.0826 18.0937V17.7938L15.095 17.6408V17.4939V17.3409V17.1878V17.0409V16.5941V16.4472V16.3003L15.0888 16.1534V16.0065L15.0764 15.8596V15.7127L15.0641 15.5658V15.4128L15.0518 15.2598V15.1006L15.0394 14.9415V14.7823L15.0209 14.6232V14.464L15.0024 14.3049V14.1458L14.9839 13.9805V13.8152L14.9654 13.65V13.4847L14.9468 13.3194L14.9345 13.1542L14.9222 12.9828L14.9098 12.8114L14.8975 12.64L14.8851 12.4625L14.8604 12.1197L14.8481 11.9422L14.8358 11.7647L14.8172 11.5872L14.7987 11.4097L14.7802 11.2261L14.7617 11.0425L14.7432 10.8588L14.7247 10.6752L14.7062 10.4916L14.6876 10.3018L14.663 10.1121L14.6074 9.63466L14.5766 9.39595L14.5457 9.15723L14.5149 8.91852L14.484 8.6798L14.4531 8.43497L14.4223 8.19013L14.3914 7.9453L14.3606 7.70046L14.3297 7.45563L14.2989 7.21079L14.268 6.96595L14.2371 6.715L14.2063 6.46404L14.1693 6.14575L14.2001 5.9254L14.2186 5.79074L14.231 5.67445V5.57039L14.2433 5.4847V5.41737V5.3684V5.1052L14.4593 4.92158L14.5272 4.86649L14.6074 4.80528L14.7 4.73183L14.8049 4.65226L14.9222 4.56045L15.0518 4.45639L15.817 3.85042L16.033 4.81752L16.0762 5.00727L16.1194 5.19702L16.1564 5.38677L16.1934 5.57651L16.2305 5.76626L16.2675 5.95601L16.3045 6.14575L16.3415 6.3355L16.3786 6.52525L16.4156 6.70888L16.4465 6.8925L16.4773 7.07613L16.5082 7.25976L16.539 7.44338L16.5699 7.62701L16.6007 7.81064L16.6254 7.99426L16.6501 8.17789L16.6748 8.36152L16.6995 8.53902L16.7242 8.71653L16.7488 8.89403L16.7735 9.07154L16.792 9.24904L16.8106 9.42655L16.8291 9.60406L16.8476 9.78156L16.8661 9.95295L16.8846 10.1243L16.9031 10.2957L16.9216 10.4671L16.934 10.6446L16.9463 10.8221L16.9587 10.9996L16.971 11.1771L16.9834 11.3546L16.9957 11.5321L17.008 11.7096V11.8871L17.0266 12.0647V12.2422L17.0389 12.4197V12.5972L17.0451 12.7747V12.9461L17.0512 13.1236V13.295V13.4725V13.65V13.8213V14.1702V14.3477V14.5252L17.0451 14.6966V14.8741V14.8986L17.0759 14.8741L17.1685 14.7946L17.2611 14.7089L17.3475 14.6293L17.4339 14.5497L17.5141 14.4702L17.6313 14.36L17.8103 14.2376L17.9461 14.1458L18.0818 14.0601L18.2114 13.9744L18.341 13.8948L18.4645 13.8213L18.5879 13.754L18.7113 13.6928L18.8347 13.6377L18.9582 13.5888L19.0816 13.5459L19.1988 13.5092L19.3223 13.4786L19.4457 13.4541L19.5691 13.4419H19.6925H19.9271L20.1554 13.4663L20.3776 13.5092L20.5997 13.5704L20.8157 13.65L21.0255 13.7479L21.2292 13.8581L21.4205 13.9866L21.6056 14.1335L21.7846 14.2927L21.9574 14.4702L22.124 14.6599L22.2783 14.868L22.4264 15.0884L22.5745 15.321L22.6979 15.5474L22.809 15.7127L22.9263 15.9086L23.0374 16.1167L23.1484 16.3309L23.2534 16.5574L23.3521 16.79L23.4508 17.0287L23.5434 17.2796L23.636 17.5367L23.7224 17.806L23.8088 18.0815L23.889 18.3692L23.9692 18.663L24.0433 18.969L24.1173 19.2873L24.1852 19.5995L24.2408 19.8015L24.2963 20.0157L24.3518 20.236L24.4012 20.4564L24.4506 20.6767L24.5 20.8971L24.5493 21.1174L24.5987 21.3378L24.6481 21.552L24.6974 21.7663L24.7468 21.9805L24.7962 22.1947L24.8455 22.409L24.8949 22.6171L24.9505 22.8252L25.1109 23.4311L24.5555 23.6943L24.3642 23.7739L24.1729 23.8474L23.9754 23.9086L23.7779 23.9637L23.5743 24.0004L23.3644 24.0249L23.167 24.0371H22.1734L22.2104 23.4005V23.2842L22.2166 23.1679V22.8068L22.2104 22.6844V22.5559L22.1981 22.4273V22.2988L22.1796 22.1641L22.1672 22.0295L22.1549 21.8948L22.1364 21.754L22.1178 21.6132L22.0993 21.4725L22.0808 21.3256L22.0561 21.1787L22.0315 21.0318L22.0068 20.8787L21.9821 20.7257L21.9574 20.5727L21.9265 20.4197L21.8957 20.2605L21.8648 20.1014L21.8278 19.9422L21.7969 19.777L21.7599 19.6117L21.8031 19.575ZM73.5368 20.5666L73.0863 20.3095L72.9259 20.2422L72.7592 20.1871L72.5864 20.1503L72.3951 20.1197L72.1915 20.1014L71.9755 20.0891H71.7472H70.6857H70.4944L70.3154 20.083H70.1426L69.9698 20.0647L69.8032 20.0463L69.6489 20.0279L69.4946 20.0034L69.3465 19.979L69.2046 19.9484L69.0688 19.9178L68.9392 19.881L68.8096 19.8382L68.6862 19.7953L68.5689 19.7464L68.4579 19.6913L68.3406 19.6301L68.1863 19.5505L68.0506 19.4648L67.9148 19.373L67.7852 19.2751L67.6618 19.171L67.5445 19.0547L67.4273 18.9323L67.3162 18.7976L67.2113 18.6568L67.1125 18.5038L67.0138 18.3447L66.9212 18.1733L66.8348 17.9897L66.7546 17.7938L66.6805 17.5918L66.6127 17.3776L66.5571 17.194L66.5077 17.0165L66.4584 16.8512L66.4152 16.692L66.372 16.5451L66.335 16.4105L66.3041 16.2881L66.2732 16.1779L66.2486 16.0738L66.2239 15.982L66.2054 15.9086L66.1868 15.8474V15.7984L66.1683 15.7678L66.1622 15.6882L66.0326 15.3638L65.9215 15.119L65.8104 14.8864L65.6931 14.666L65.5759 14.4579L65.4525 14.2682L65.3229 14.0845L65.1871 13.9193L65.0452 13.7663L64.8909 13.6255L64.7304 13.5031L64.5576 13.399L64.3725 13.3133L64.1812 13.2521L63.9837 13.2154L63.7862 13.2031H63.6566L63.5394 13.2215L63.4283 13.2399L63.3234 13.2643L63.2185 13.2888L63.1197 13.3194L63.0704 13.3378V16.5084L63.2246 16.3615L63.6011 16.0249V15.9943L63.6381 15.9514L63.7245 15.8535L63.8109 15.7617L63.8973 15.676L63.9467 15.627L63.959 15.6515L64.0146 15.7372L64.0824 15.8351L64.1071 15.9086L64.1627 16.0616L64.2059 16.1901L64.2367 16.2942L64.2552 16.3799L64.2676 16.4411V16.4839L64.2491 16.5941V16.6798V16.7165V16.7471L64.2429 16.7777V16.8145L64.2182 16.8634L64.1935 16.9308L64.138 17.0471L64.101 17.1572L64.0763 17.2368L64.0516 17.3103L64.0207 17.3776L63.9899 17.4449L63.959 17.5061L63.922 17.5735L63.8726 17.653L63.7615 17.8489L63.6566 18.0203L63.5455 18.1794L63.4345 18.3263L63.3234 18.461L63.2061 18.5773L63.0889 18.6813L63.058 18.6997V21.3011L63.1506 21.2643L63.5887 21.1052V21.044L63.6505 21.0134L63.7369 20.9705L63.8294 20.9216L63.9282 20.8665L64.0207 20.8053L64.175 20.7073L64.3169 20.6155L64.4527 20.5298L64.5823 20.4564L64.6996 20.3829L64.8106 20.3217L64.9156 20.2605L65.0143 20.2116L65.1007 20.1687L65.1748 20.132L65.2426 20.1014L65.2982 20.0769L65.329 20.0647L65.3599 20.0769L65.4216 20.1136L65.4957 20.1565L65.5821 20.2116L65.687 20.2789L65.7981 20.3585L65.9215 20.4441L66.0511 20.5421L66.193 20.6461L66.3411 20.7563L66.5016 20.8787L66.6744 21.0073L66.8472 21.1419L67.0323 21.2888L67.2236 21.4357L67.4149 21.5765L67.6062 21.705L67.7975 21.8213L67.9889 21.9315L68.1802 22.0295L68.3653 22.1152L68.5504 22.1947L68.7356 22.2621L68.9207 22.3171L69.0997 22.3661L69.2786 22.4028L69.4576 22.4273L69.6366 22.4457H69.8094H69.9266H70.0377L70.1488 22.4396H70.266L70.3833 22.4212L70.5006 22.409L70.624 22.3967L70.7474 22.3783L70.8708 22.3539L71.0004 22.3294L71.13 22.3049L71.2596 22.2743L71.3892 22.2437L71.525 22.207L71.6608 22.1702L71.8027 22.1274L72.0681 22.0295L72.3149 21.9254L72.5371 21.8091L72.7407 21.6867L72.9197 21.552L73.0801 21.4174L73.2159 21.2766L73.5183 20.9093V20.5972L73.5368 20.5666ZM73.5368 4.3707V15.4679V15.3822L73.5245 15.1741V14.966L73.506 14.7578L73.4936 14.5436L73.4813 14.3294V14.109L73.4628 13.8948V13.6744L73.4443 13.4541L73.4319 13.2337V13.0073L73.4134 12.7808V12.5543L73.4011 12.3279V12.0953L73.3887 11.8627V11.6301L73.3764 11.3975V11.1649L73.364 10.9262V10.6813L73.3578 9.97743V9.75708V9.54285V8.52678V8.33703V8.15341V7.9759V7.79839V7.62701V7.46175V7.3026V7.14958V6.99656V6.84966V6.70888V6.57422L73.364 6.43956V6.31102L73.3702 6.1886V6.0723L73.3825 5.95601V5.84583L73.3949 5.74178V5.64384L73.4072 5.54591V5.45409L73.4319 5.27047L73.4443 5.09296L73.4566 4.91546L73.4751 4.73795L73.4936 4.56657L73.5121 4.4013V4.37682L73.5368 4.3707ZM73.5368 15.4679V15.5842L73.5553 15.7862L73.5677 15.9881L73.58 16.1901L73.5924 16.386L73.6047 16.5819L73.617 16.7777L73.6294 16.9675L73.6417 17.1572L73.6541 17.347L73.6664 17.5306L73.6788 17.751L73.6911 17.9713L73.7034 18.1855L73.7158 18.3937L73.7343 18.5956L73.7466 18.7976L73.759 18.9935L73.7713 19.1832L73.7898 19.3669L73.8083 19.5505L73.8269 19.728L73.8392 19.8994L73.8577 20.0647L73.8762 20.2238L73.8948 20.3829L73.9133 20.5298L73.9318 20.6767L73.9503 20.8175L73.9688 20.9522L73.9873 21.0807L74.0058 21.2093L74.0305 21.3317L74.0552 21.448L74.0799 21.5581L74.1046 21.6622L74.1293 21.7663L74.1539 21.8642L74.1848 21.9621L74.2157 22.0539L74.2465 22.1396L74.2835 22.2253L74.5612 22.8129L75.1969 22.4028L75.3512 22.2804L75.4931 22.1519L75.6227 22.0111L75.7338 21.8581L75.8325 21.6989L75.9189 21.5337L75.993 21.3684L76.0547 21.197L76.1102 21.0256L76.1596 20.8542L76.1966 20.6829L76.2337 20.5054L76.2645 20.334L76.2954 20.1626L76.3262 19.9728L76.3386 19.7892L76.3509 19.6117V19.4281L76.3571 19.2322V19.0302L76.3509 18.8221L76.3386 18.6079L76.3262 18.3814L76.3139 18.1488L76.2954 17.9101L76.2707 17.6653L76.246 17.4143L76.2151 17.1511L76.1843 16.8818L76.1473 16.6064L76.1041 16.3125L76.0732 16.1718L76.0485 16.0494L76.0238 15.9269L75.9992 15.8045L75.9806 15.6821L75.9621 15.5597L75.9436 15.4373L75.9251 15.3148L75.9066 15.1924L75.8881 15.07L75.8696 14.9476L75.8572 14.8252L75.8387 14.7028L75.8264 14.5803L75.814 14.4518L75.8017 14.3416V14.2437L75.7832 14.0723V13.8948L75.7646 13.7785V13.6561L75.7523 13.5337V13.4112L75.74 13.2888V13.1664L75.7276 13.044V12.9216L75.7214 12.793V12.6645L75.7153 12.5298V12.2728L75.7029 12.1442V12.0096V11.8749V11.6056V11.4709V11.3301V11.1894V11.0486V10.9078V10.767L75.7091 10.6262V10.4855L75.7214 10.3447V10.1978L75.7338 10.0509V9.90398L75.7461 9.75708V9.61018L75.7585 9.46328V9.31637L75.7708 9.16947V9.02257L75.7832 8.87567L75.814 8.22686L75.8387 7.7127V7.5658L75.8634 7.13734V6.99656L75.8819 6.85578V6.715L75.8942 6.57422V6.43344L75.9066 6.29266V6.158L75.9189 6.02334L75.9313 5.88868V5.75402L75.9436 5.60712V5.42961V5.27047V4.95218V4.79916V4.64614V4.49312V4.34009L75.9374 4.19319V4.04629L75.9313 3.89939V3.75249L75.9189 3.61171V3.47093L75.9066 3.33015V3.18937L75.8942 3.05471V2.92005L75.8757 2.78539V2.65073L75.8572 2.52219L75.8449 2.39365L75.8325 2.26511L75.8202 2.13657L75.8078 2.01416L75.7955 1.89174L75.7832 1.76932L75.7708 1.6469L75.7585 1.52449L75.7461 1.40819L75.7338 1.29189L75.5795 0.0371094L74.7464 1.02257L74.6538 1.13887L74.5674 1.25517L74.4872 1.37146L74.4131 1.49388L74.3391 1.6163L74.2712 1.73872L74.2033 1.86725L74.1416 1.99579L74.0861 2.12433L74.0305 2.25287L73.9811 2.38753L73.938 2.52219L73.8948 2.66297L73.8577 2.80375L73.833 2.92005L73.796 3.03634L73.7528 3.18325L73.7158 3.33015L73.6788 3.47705L73.6479 3.63007L73.6232 3.78309L73.5985 3.94224L73.5738 4.10138L73.5553 4.26664L73.5368 4.40742V15.5046V15.4679ZM73.5368 20.8787V20.5666L73.7096 20.6645L73.5368 20.8787ZM99.703 21.0868L99.6659 20.9705L99.6227 20.8481L99.5796 20.7257L99.5363 20.6033L99.4931 20.4809L99.45 20.3585L99.4068 20.236L99.3574 20.1136L99.308 19.9912L99.2586 19.8627L99.2093 19.7341L99.1599 19.6056L99.1044 19.477L99.0488 19.3485L98.9933 19.22L98.9377 19.0914L98.876 18.9629L98.8205 18.8344L98.7588 18.7058L98.6971 18.5712L98.6353 18.4365L98.5736 18.3018L98.5119 18.1672L98.444 18.0325L98.3762 17.8979L98.3083 17.7632L98.2404 17.6285L98.1725 17.5L98.0182 17.1817L97.8578 16.8695L97.6973 16.5696L97.5369 16.2881L97.3764 16.0187L97.216 15.7617L97.0555 15.5168L96.895 15.2842L96.7346 15.07L96.5742 14.868L96.4137 14.6783L96.2532 14.5008L96.0928 14.3355L95.9323 14.1825L95.7657 14.0478L95.0745 13.5398L94.7721 14.3539L94.6981 14.5375L94.624 14.7211L94.5438 14.9047L94.4574 15.0823L94.371 15.2598L94.2784 15.4311L94.1859 15.6025L94.0871 15.7678L93.9884 15.9331L93.8835 16.0983L93.7786 16.2575L93.6675 16.4166L93.5564 16.5696L93.4391 16.7226L93.3157 16.8818L93.1985 17.0348L93.0874 17.1756L92.9701 17.3103L92.8467 17.4449L92.7233 17.5735L92.5937 17.702L92.4579 17.8305L92.3221 17.9529L92.1802 18.0754L92.0383 18.1978L91.8902 18.3141L91.7359 18.4304L91.6742 18.4732L91.6371 18.3018L91.6063 18.1366L91.5754 17.9713L91.5507 17.8122L91.526 17.6469L91.5075 17.4878L91.489 17.3286L91.4705 17.1695L91.452 17.0103L91.4397 16.8512L91.4273 16.692L91.415 16.5635V16.2452L91.4211 16.0677V15.8841L91.4335 15.6943V15.4985L91.452 15.2965L91.4643 15.0884L91.4767 14.8741L91.489 14.6599L91.5014 14.4396L91.5137 14.207L91.526 13.9744L91.5384 13.7357L91.5507 13.4908L91.6124 12.4013L90.6312 12.8665L90.409 13.0011L90.1992 13.1603L90.0079 13.3439L89.8351 13.5581L89.687 13.7907L89.5574 14.0478L89.4587 14.311L89.4278 14.3906L89.397 14.4885L89.3661 14.5865L89.3414 14.6844L89.3167 14.7884L89.2921 14.8986L89.2735 15.0088L89.255 15.119L89.2365 15.2292L89.218 15.3454L89.1995 15.4679L89.181 15.5903L89.1686 15.7127L89.1501 15.8351L89.1378 15.9637L89.1193 16.1167V16.637V16.7533V16.8757V17.0042V17.1389L89.1254 17.2796V17.3531L88.4713 17.3653H88.3232L88.1689 17.3898L88.0146 17.4143L87.8541 17.4449L87.6937 17.4816L87.5332 17.5245L87.3728 17.5796L87.2123 17.6347L87.0457 17.702L86.8791 17.7754L86.7063 17.855L86.5335 17.9468L86.3607 18.0448L86.1817 18.1488L85.9904 18.2712L85.8485 18.3814L85.7189 18.4793L85.5893 18.5773L85.4597 18.6752L85.3301 18.7731L85.1943 18.8711L85.0586 18.969L84.9228 19.0669L84.787 19.1649L84.6513 19.2628L84.5093 19.3608L84.3674 19.4587L84.2254 19.5566L84.0835 19.6546L83.9416 19.7525L83.7996 19.8504L83.6515 19.9545L83.5096 20.0463L83.3738 20.132L83.2442 20.2054L83.1146 20.2728L82.9912 20.334L82.8678 20.3891L82.7505 20.4319L82.6394 20.4686L82.5283 20.4992L82.4173 20.5237L82.3124 20.5421L82.2074 20.5543L82.1025 20.5666H81.9976L81.8927 20.5788H81.7261L81.5718 20.5604L81.4299 20.5421L81.2941 20.5115L81.1707 20.4748L81.0534 20.4319L80.9485 20.3829L80.8498 20.3279L80.7572 20.2605L80.6708 20.1871L80.5906 20.1075L80.5103 20.0157L80.4363 19.9116L80.3684 19.8015L80.3005 19.6729L80.2388 19.5444L80.2141 19.4648L80.1833 19.3669L80.1586 19.2567L80.1401 19.1343L80.1216 18.9996L80.103 18.8588L80.0907 18.7058V18.5467L80.0784 18.3753V18.1978V18.0142V17.8244L80.0907 17.6224L80.103 17.4143L80.1154 17.2001L80.1277 16.9797L80.1462 16.6614L80.1647 16.3676L80.1894 16.0861L80.2203 15.8168L80.2511 15.5597L80.2882 15.3148L80.3314 15.0823L80.3746 14.8619L80.424 14.6538L80.4733 14.464L80.5289 14.2865L80.5844 14.1213L80.6399 13.9682L80.6955 13.8275L80.751 13.7051L80.8066 13.6071L80.8559 13.5275L80.9176 13.4419L80.9794 13.3623L81.0472 13.2888L81.1151 13.2215L81.183 13.1603L81.2571 13.1052L81.3311 13.0562L81.4052 13.0134L81.4792 12.9767L81.5595 12.9461L81.6459 12.9155L81.7384 12.8971L81.8372 12.8787L81.9359 12.8665H82.0285H82.0717H82.1025L82.1457 12.891L82.1951 12.9216L82.2568 12.9705L82.3309 13.044L82.4111 13.1358L82.4913 13.2521L82.5777 13.3868L82.6703 13.5459L82.7629 13.7234L82.8554 13.9254L82.948 14.1458L83.0467 14.3845L83.1393 14.6415L83.2319 14.9047L83.2689 15.0578L83.3183 15.223L83.3676 15.3822L83.417 15.5291L83.4664 15.6699L83.5158 15.8045L83.5651 15.9269L83.6145 16.0432L83.6639 16.1534L83.7132 16.2513L83.7626 16.3432L83.8058 16.4288L83.849 16.5023L83.8922 16.5696L83.9292 16.6308L84.7377 17.855L84.9105 16.2024L84.9351 15.9514L84.9537 15.7066L84.966 15.4679V15.2353L84.9722 15.0088V14.7884V14.5742L84.9598 14.3661L84.9475 14.1641L84.929 13.9682L84.9105 13.7785L84.8858 13.5949L84.8611 13.4174L84.8364 13.246L84.8055 13.0624L84.7377 12.7992L84.6574 12.5543L84.571 12.3217L84.4661 12.1014L84.355 11.8933L84.2316 11.7035L84.0958 11.526L83.9416 11.3608L83.7811 11.2139L83.6083 11.0853L83.4232 10.9751L83.2257 10.8833L83.022 10.8099L82.8061 10.7609L82.5839 10.7303L82.3617 10.7181H82.1025L81.8495 10.7487L81.6027 10.7915L81.3558 10.8466L81.1151 10.9139L80.8806 10.9996L80.6523 11.1037L80.4301 11.22L80.2141 11.3546L80.0043 11.5015L79.8007 11.6607L79.6093 11.8382L79.4242 12.0279L79.2452 12.2299L79.0786 12.4441L78.912 12.6767L78.7886 12.8849L78.6775 13.0868L78.5726 13.295L78.4738 13.5031L78.3751 13.7173L78.2825 13.9315L78.1961 14.1519L78.1159 14.3783L78.0418 14.6048L77.974 14.8374L77.9122 15.0761L77.8567 15.321L77.8073 15.5658L77.7641 15.8168L77.7271 16.0738L77.6901 16.3493L77.6777 16.6247V16.8879V17.145V17.3959L77.6963 17.6469L77.7148 17.8979L77.7394 18.1427L77.7765 18.3875L77.8197 18.6262L77.869 18.865L77.9246 19.0976L77.9925 19.3301L78.0665 19.5566L78.1529 19.7831L78.2455 20.0034L78.3442 20.2054L78.4491 20.4441L78.5726 20.689L78.7083 20.9216L78.8564 21.1358L79.0169 21.3378L79.1897 21.5275L79.3748 21.6989L79.5661 21.852L79.7698 21.9927L79.9858 22.1152L80.208 22.2192L80.4425 22.3049L80.6831 22.3722L80.93 22.4151L81.183 22.4457H81.4422H81.6459L81.8557 22.4273L82.0717 22.3967L82.2938 22.3539L82.5222 22.2988L82.7567 22.2314L82.9974 22.158L83.2504 22.0723L83.5096 21.9744L83.7688 21.8642L84.0403 21.7418L84.318 21.6071L84.6019 21.4602L84.8919 21.3011L85.1882 21.1297L85.4844 20.9522L85.7312 20.8175L85.9843 20.6706L86.2311 20.5237L86.4718 20.3768L86.7125 20.2299L86.9408 20.083L87.1691 19.9361L87.3913 19.7892L87.6011 19.6362L87.8109 19.4832L88.0146 19.3301L88.2121 19.1771L88.4034 19.018L88.5885 18.8588L88.7613 18.6997L89.0329 18.4365L89.181 17.7326V17.8611L89.1995 18.0386L89.2118 18.2223L89.2303 18.4181L89.2488 18.6079L89.2674 18.7854L89.2859 18.9568L89.3044 19.122L89.3291 19.2751L89.3538 19.422L89.3784 19.5566L89.4031 19.6852L89.4278 19.8015L89.4463 19.9116L89.471 20.0157L89.4895 20.1075L89.508 20.1932L89.5266 20.2666V20.2972L89.5389 20.334L89.5636 20.4319L89.5944 20.5115L89.6315 20.5849L89.6685 20.6584L89.6808 20.6767V21.093L90.3905 21.0746L90.6004 21.0624L90.8102 21.0379L91.02 21.0011L91.2237 20.9583L91.4273 20.9032L91.631 20.8359L91.8346 20.7624L92.0321 20.6767L92.2296 20.5849L92.4271 20.4809L92.6245 20.3707L92.8158 20.2483L93.0072 20.1197L93.1985 19.979L93.3836 19.8321L93.5441 19.6974L93.7045 19.5627L93.8588 19.4281L94.0069 19.2873L94.155 19.1404L94.297 18.9935L94.4389 18.8405L94.5747 18.6875L94.7104 18.5283L94.84 18.363L94.9696 18.1917L95.093 18.0203L95.1609 17.9223L95.2041 17.9897L95.2782 18.1121L95.3584 18.2406L95.4386 18.3814L95.525 18.5283L95.6176 18.6875L95.7163 18.8527L95.8151 19.0302L95.92 19.2139L96.0249 19.3975L96.1854 19.6974L96.3581 19.9973L96.5371 20.2789L96.7223 20.5421L96.9136 20.7869L97.1049 21.0134L97.3085 21.2215L97.5183 21.4112L97.7343 21.5765L97.9565 21.7234L98.1848 21.852L98.4255 21.956L98.6662 22.0417L98.9192 22.1029L99.1722 22.1396L99.7523 22.1702V21.0379L99.703 21.0868ZM99.703 14.2008V16.3125L99.3327 16.3921V14.966L99.3697 14.8007L99.4191 14.666L99.4808 14.5375L99.5487 14.4151L99.6351 14.2927L99.703 14.2008ZM99.703 22.2192L100.073 22.2376L99.8202 21.4419L99.7832 21.3256L99.7462 21.2093L99.7092 21.093V22.2192H99.703ZM116.983 13.2276L116.865 13.3011L116.692 13.4051L116.532 13.5092L116.378 13.6194L116.236 13.7295L116.106 13.8397L115.983 13.9499L115.872 14.0601L115.767 14.1764L115.674 14.2927L115.594 14.4151L115.52 14.5375L115.458 14.666L115.415 14.8007L115.378 14.966V16.3921L116.143 16.2207L116.316 16.1718L116.489 16.1167L116.668 16.0494L116.853 15.9759L116.976 15.9208V13.2215L116.983 13.2276ZM116.983 7.16794V11.4954L116.711 11.7709L116.427 10.8221L116.384 10.6813L116.341 10.5406L116.304 10.3998L116.267 10.2651L116.23 10.1305L116.193 9.99579L116.156 9.86113L116.119 9.72647L116.082 9.59181L116.044 9.45715L116.007 9.3225L115.977 9.21232L115.785 9.24904L115.569 9.28577L115.353 9.3225L115.143 9.35922L114.934 9.39595L114.724 9.43267L114.514 9.4694L114.304 9.50612L114.101 9.54285L113.897 9.57957L113.693 9.6163L113.496 9.65302L113.298 9.69587L113.101 9.73872L112.805 9.7938L112.527 9.84889L112.255 9.9101L111.99 9.97131L111.731 10.0325L111.484 10.0998L111.249 10.1672L111.021 10.2345L110.805 10.308L110.595 10.3814L110.398 10.4549L110.213 10.5344L110.034 10.614L109.873 10.6936L109.719 10.7793L109.577 10.865L109.367 10.9996L109.176 11.1343L108.997 11.2689L108.83 11.4036L108.676 11.5383L108.534 11.6729L108.411 11.8076L108.3 11.9484L108.201 12.083L108.114 12.2238L108.04 12.3646L107.979 12.5054L107.929 12.6523L107.892 12.7992L107.861 12.9522L107.843 13.1052V13.7173V13.8826V14.0539L107.849 14.2253V14.4028L107.861 14.5803L107.874 14.7578L107.886 14.9353L107.898 15.119L107.917 15.3026L107.935 15.4862L107.96 15.676L107.991 15.8657L108.022 16.1044L108.053 16.337L108.084 16.5635L108.114 16.7839L108.145 16.9981L108.176 17.2062L108.201 17.4082L108.225 17.6102L108.25 17.7999L108.275 17.9897L108.3 18.1733L108.318 18.3508L108.337 18.5222L108.355 18.6875L108.374 18.8466L108.386 18.9996L108.398 19.1526L108.411 19.2934L108.423 19.4342V19.5689L108.441 19.6974V19.8198L108.454 19.9361V20.0524L108.46 20.1626V20.2666V20.3646V20.5482L108.454 20.6339V20.7196L108.441 20.7747V20.9583L108.423 21.1664L108.404 21.3684L108.374 21.5643L108.337 21.754L108.293 21.9376L108.238 22.1152L108.17 22.3049L108.059 22.513L107.948 22.6966L107.824 22.8741L107.682 23.0455L107.522 23.2047L107.349 23.3516L107.158 23.4801L106.349 23.9392L106.207 23.0516L106.183 22.868L106.158 22.6722L106.133 22.4702L106.115 22.2621L106.096 22.0478L106.078 21.8275L106.066 21.5949L106.053 21.3562V21.1113L106.041 20.8542V20.3217L106.053 20.0463L106.066 19.7586L106.078 19.477V18.3998V18.0815V17.7816V17.5V17.2429L106.072 17.0103V16.7961L106.066 16.6002V16.4288L106.053 16.2758V16.1473L106.035 16.0432L106.022 15.9637L106.004 15.8657L105.985 15.578L105.967 15.3271L105.942 15.0823L105.917 14.8497L105.887 14.6232L105.85 14.3967L105.813 14.1764L105.769 13.9621L105.726 13.754L105.677 13.552L105.621 13.35L105.566 13.1542L105.504 12.9583L105.492 12.9338L105.461 12.9522L105.319 13.0501L105.165 13.1603L104.998 13.2827L104.819 13.4112L104.621 13.552L104.412 13.7051L104.189 13.8703L103.955 14.0417L103.708 14.2253L103.443 14.4212L103.159 14.6293L102.912 14.8007L102.678 14.9598L102.449 15.1129L102.227 15.2536L102.011 15.3883L101.801 15.5107L101.591 15.627L101.394 15.7372L101.196 15.8351L101.005 15.9269L100.82 16.0065L100.635 16.08L100.456 16.1473L100.283 16.2024L100.11 16.2513L99.7153 16.3432V14.2314L99.74 14.2008L99.8449 14.0845L99.956 13.9744L100.079 13.8642L100.209 13.754L100.351 13.6438L100.505 13.5337L100.666 13.4235L100.838 13.3194L101.017 13.2093L101.203 13.1052L101.505 12.9399L101.795 12.7808L102.067 12.6339L102.32 12.4931L102.56 12.3646L102.782 12.2422L102.986 12.132L103.177 12.0279L103.35 11.9361L103.504 11.8504L103.64 11.777L103.757 11.7096L103.856 11.6546L103.936 11.6056L103.998 11.5689L104.029 11.5505L104.202 11.422L104.368 11.2873L104.523 11.1526L104.658 11.0241L104.788 10.8894L104.905 10.7548L105.01 10.6201L105.103 10.4855L105.183 10.3508L105.257 10.2161L105.319 10.0754L105.368 9.94071L105.411 9.79992L105.448 9.65302L105.473 9.50612L105.485 9.36534V8.30031L105.461 8.14116L105.436 7.95754L105.411 7.78003L105.393 7.61477L105.374 7.45563L105.356 7.30872L105.344 7.16794L105.331 7.03328L105.319 6.91087V6.80069L105.306 6.69663V6.50077L105.319 6.40283L105.337 6.31102V5.6622L105.516 5.4847L105.56 5.44185L105.615 5.39289L105.677 5.3378L105.751 5.27659L105.831 5.21538L105.917 5.14805L106.461 4.77468L106.788 5.3684L106.849 5.49694L106.911 5.6316L106.973 5.77238L107.028 5.9254L107.084 6.08455L107.139 6.24981L107.195 6.42732L107.244 6.61094L107.294 6.80681L107.343 7.0088L107.386 7.21691L107.429 7.43726L107.466 7.66373L107.503 7.89633L107.534 8.15341L107.553 8.386L107.571 8.59411L107.59 8.7961L107.608 8.99197L107.627 9.18172L107.645 9.36534L107.664 9.54285L107.682 9.70811L107.701 9.87337L107.713 9.97131L107.781 9.93458L107.935 9.84277L108.084 9.75708L108.232 9.67139L108.38 9.58569L108.528 9.5L108.676 9.42043L108.818 9.34086L108.96 9.26129L109.102 9.18784L109.244 9.11439L109.386 9.04093L109.521 8.9736L109.657 8.90627L109.793 8.83895L109.929 8.77162L110.065 8.71041L110.2 8.6492L110.336 8.58799L110.472 8.52678L110.601 8.47169L110.731 8.4166L110.861 8.36152L110.99 8.30643L111.12 8.25746L111.249 8.20849L111.379 8.15953L111.49 8.11668L111.638 8.05547L111.799 7.99426L111.959 7.93305L112.12 7.87797L112.28 7.82288L112.44 7.76779L112.601 7.71882L112.761 7.66986L112.922 7.62089L113.082 7.57804L113.237 7.5352L113.391 7.49235L113.545 7.4495L113.699 7.41278L113.854 7.38217L114.008 7.35157L114.162 7.32097L114.317 7.29036L114.465 7.26588L114.619 7.24139L114.767 7.21691L114.915 7.19855L115.063 7.18018L115.211 7.16182L115.359 7.14346L115.508 7.13122L115.656 7.11898L115.798 7.10673H115.94L116.082 7.09449H116.223H116.372H116.594L116.816 7.13122L117.007 7.17406L116.983 7.16794ZM116.983 11.4954L117.414 11.0547L117.519 10.9507L117.618 10.8527L117.711 10.7548L117.803 10.6568L117.89 10.5528L117.97 10.4487L118.019 10.3814L118.112 10.2835L118.223 10.1427L118.322 10.0019L118.408 9.86113L118.482 9.71423L118.538 9.56121L118.575 9.40207L118.587 9.24904L118.575 9.02869L118.55 8.8267L118.507 8.62471L118.445 8.42885L118.365 8.2391L118.272 8.06159L118.161 7.89021L118.001 7.67598L117.785 7.51683L117.612 7.40054L117.427 7.3026L117.229 7.22303L117.026 7.16182H117.001V11.4832L116.983 11.4954ZM134.361 13.3072L134.318 13.3194L134.182 13.3623L134.021 13.4541L133.898 13.5275L133.768 13.6132L133.639 13.7051L133.509 13.8091L133.386 13.9193L133.256 14.0356L133.133 14.1641L133.009 14.2988L132.886 14.4396L132.769 14.5926L132.651 14.7517L132.534 14.917L132.423 15.0884L132.312 15.272L132.213 15.4556L132.09 15.6699L131.966 15.8902L131.855 16.1106L131.75 16.3248L131.658 16.539L131.571 16.7533L131.491 16.9675L131.417 17.1817L131.355 17.3898L131.3 17.5979L131.25 17.806L131.207 18.0142L131.17 18.2161L131.139 18.4181L131.115 18.6201L131.096 18.8038L131.084 18.9139L131.072 19.0425V19.1649L131.059 19.2873V19.5199L131.072 19.6362L131.084 19.7464L131.096 19.8565L131.115 19.9667L131.133 20.0708L131.158 20.1687L131.183 20.2666L131.213 20.3646L131.244 20.4564L131.288 20.5666L131.411 20.8114L131.571 21.0318L131.763 21.2154L131.979 21.3684L132.207 21.4786L132.448 21.552L132.695 21.5949L132.941 21.6071H133.046L133.145 21.5949L133.238 21.5826L133.336 21.5704L133.435 21.552L133.528 21.5337L133.626 21.5092L133.725 21.4847L133.824 21.4541L133.923 21.4235L134.028 21.3929L134.132 21.3562L134.237 21.3194L134.348 21.2827H134.367V18.6752L134.219 18.7854L134.015 18.9874L133.83 19.1037L133.762 19.1465L133.694 19.1832L133.62 19.22L133.546 19.2567L133.472 19.2934L133.392 19.324L133.312 19.3608L133.287 19.373L133.268 19.324L133.231 19.2261V19.1771L133.219 19.0486L133.207 18.9384L133.188 18.8344L133.176 18.7487L133.164 18.6752V18.614L133.157 18.5895V18.5406L133.182 18.4487L133.201 18.363L133.219 18.2774L133.244 18.1917L133.268 18.106L133.293 18.0203L133.324 17.9346L133.355 17.8489L133.392 17.7632L133.429 17.6775L133.472 17.5918L133.515 17.5061L133.565 17.4204L133.62 17.3347L133.682 17.2429L133.744 17.1572L133.818 17.0593L133.916 16.9369L134.04 16.8022L134.182 16.6492L134.348 16.4839L134.379 16.4594V13.2888L134.361 13.3072ZM134.361 8.16565V10.0264L134.274 10.1488L134.157 10.2896L134.065 10.3875L134.015 10.4549L133.935 10.5589L133.849 10.6568L133.756 10.7548L133.657 10.8527L133.559 10.9568L133.454 11.0608L132.75 11.7709L132.466 10.8221L132.423 10.6813L132.386 10.5406L132.349 10.3998L132.312 10.2651L132.275 10.1305L132.238 9.99579L132.201 9.86113L132.127 9.59181L132.09 9.45715L132.053 9.3225L132.022 9.21232L131.824 9.24904L131.608 9.28577L131.399 9.3225L131.189 9.35922L130.979 9.39595L130.769 9.43267L130.559 9.4694L130.349 9.50612L130.146 9.54285L129.942 9.57957L129.739 9.6163L129.541 9.65302L129.344 9.69587L129.14 9.73872L128.844 9.7938L128.56 9.84889L128.288 9.9101L128.023 9.97131L127.764 10.0325L127.517 10.0998L127.276 10.1672L127.048 10.2345L126.832 10.308L126.622 10.3814L126.425 10.4549L126.239 10.5344L126.067 10.614L125.9 10.6936L125.746 10.7793L125.598 10.865L125.388 10.9996L125.196 11.1343L125.017 11.2689L124.851 11.4036L124.697 11.5383L124.555 11.6729L124.431 11.8076L124.32 11.9484L124.221 12.083L124.135 12.2238L124.061 12.3646L123.999 12.5054L123.95 12.6523L123.907 12.7992L123.876 12.9522L123.857 13.1236L123.845 13.2643V13.4174L123.833 13.5704V13.7295V13.8887V14.0539L123.845 14.2192L123.857 14.3906L123.87 14.562L123.882 14.7395L123.9 14.917L123.919 15.1006L123.944 15.2842L123.968 15.474L123.993 15.6637L124.024 15.8596L124.061 16.0983L124.092 16.3309L124.123 16.5574L124.154 16.7777L124.184 16.992L124.215 17.2001L124.24 17.4021L124.265 17.6041L124.289 17.7938L124.314 17.9836L124.339 18.1672L124.357 18.3447L124.376 18.5161L124.394 18.6813L124.413 18.8405L124.431 18.9935L124.444 19.1465L124.456 19.2873L124.468 19.4281V19.5627L124.487 19.6913V19.8137L124.499 19.93V20.0463L124.505 20.1565V20.2605V20.3646V20.4625V20.5543V20.64L124.493 20.7257V20.7808L124.487 20.9644L124.474 21.1725L124.45 21.3745L124.425 21.5704L124.388 21.7601L124.345 21.9438L124.289 22.1213L124.221 22.311L124.11 22.5191L123.999 22.7028L123.876 22.8803L123.734 23.0516L123.573 23.2108L123.401 23.3577L123.209 23.4862L122.401 23.9453L122.259 23.0578L122.234 22.8741L122.21 22.6783L122.185 22.4763L122.166 22.2682L122.148 22.0539L122.129 21.8336L122.117 21.601L122.105 21.3623V21.1174L122.092 20.8604V20.3279L122.105 20.0524L122.117 19.7647L122.129 19.4832V18.0876V17.7877V17.5061V17.249V17.0165L122.123 16.8022V16.6064L122.111 16.435V16.2819L122.098 16.1534L122.086 16.0494L122.074 15.9698L122.055 15.878L122.037 15.5964L122.018 15.3454L121.994 15.1006L121.969 14.8619L121.938 14.6354L121.901 14.409L121.864 14.1886L121.821 13.9744L121.771 13.7663L121.722 13.5643L121.666 13.3623L121.611 13.1664L121.549 12.9767L121.537 12.9522L121.506 12.9705L121.364 13.0685L121.21 13.1787L121.043 13.3011L120.858 13.4296L120.667 13.5704L120.457 13.7234L120.235 13.8887L120 14.0601L119.753 14.2437L119.488 14.4396L119.204 14.6477L118.957 14.8191L118.723 14.9782L118.494 15.1312L118.272 15.272L118.056 15.4067L117.846 15.5291L117.643 15.6454L117.439 15.7555L117.242 15.8535L117.05 15.9453L116.989 15.9698V13.2705L117.05 13.2337L117.236 13.1297L117.538 12.9644L117.828 12.8053L118.1 12.6584L118.353 12.5176L118.593 12.3891L118.815 12.2666L119.019 12.1565L119.21 12.0524L119.383 11.9606L119.537 11.8749L119.673 11.8015L119.79 11.7341L119.889 11.679L119.969 11.6301L120.031 11.5933L120.062 11.575L120.229 11.4464L120.395 11.3118L120.549 11.1771L120.685 11.0486L120.815 10.9139L120.932 10.7793L121.037 10.6446L121.13 10.5099L121.21 10.3753L121.284 10.2406L121.346 10.0998L121.401 9.96519L121.444 9.82441L121.481 9.67751L121.506 9.53061L121.525 9.38982V8.32479L121.5 8.16565L121.475 7.98202L121.451 7.80452L121.426 7.63925L121.407 7.48011L121.395 7.33321L121.376 7.19243L121.364 7.05777V6.93535L121.346 6.82517V6.72112V6.62318V6.52525L121.358 6.42732L121.376 6.3355V5.68669L121.555 5.50918L121.599 5.46634L121.654 5.41737L121.716 5.36228L121.79 5.30107L121.87 5.23986L121.957 5.17253L122.5 4.79916L122.827 5.39289L122.888 5.52142L122.95 5.65608L123.012 5.79686L123.074 5.94989L123.129 6.10903L123.185 6.28041L123.24 6.45792L123.29 6.64155L123.339 6.83742L123.388 7.0394L123.431 7.24751L123.475 7.46787L123.512 7.69434L123.549 7.92693L123.58 8.18401L123.598 8.4166L123.617 8.62471L123.635 8.8267L123.654 9.02257L123.672 9.21232L123.691 9.39595L123.709 9.57345L123.728 9.73872L123.746 9.89786L123.759 9.99579L123.826 9.95907L123.981 9.86726L124.129 9.78156L124.277 9.69587L124.425 9.61018L124.573 9.52448L124.715 9.44491L124.857 9.36534L124.999 9.28577L125.141 9.21232L125.283 9.13887L125.425 9.06542L125.561 8.99809L125.696 8.93076L125.832 8.86343L125.968 8.7961L126.104 8.73489L126.239 8.67368L126.375 8.61247L126.511 8.55126L126.641 8.49618L126.77 8.44109L126.9 8.386L127.029 8.33091L127.159 8.28194L127.289 8.23298L127.418 8.18401L127.535 8.14116L127.683 8.07996L127.844 8.01875L128.004 7.95754L128.165 7.90245L128.325 7.84736L128.486 7.79227L128.646 7.74331L128.807 7.69434L128.967 7.64537L129.121 7.60253L129.276 7.55968L129.43 7.51683L129.584 7.47399L129.739 7.43726L129.893 7.40666L130.047 7.37605L130.201 7.34545L130.349 7.31484L130.504 7.29036L130.658 7.26588L130.806 7.24139L130.954 7.22303L131.102 7.20467L131.25 7.18631L131.399 7.16794L131.547 7.1557L131.695 7.14346L131.837 7.13122H131.979L132.121 7.11898H132.263H132.411H132.633L132.855 7.1557L133.071 7.19855L133.275 7.25976L133.472 7.33933L133.657 7.43726L133.836 7.55356L134.046 7.7127L134.207 7.92081L134.318 8.0922L134.373 8.19013L134.361 8.16565ZM134.361 10.0264V8.16565L134.404 8.25134L134.484 8.44109L134.546 8.63696L134.595 8.83895L134.62 9.04093V9.26129V9.41431L134.583 9.57345L134.527 9.72647L134.46 9.87337L134.373 10.0142L134.361 10.0325V10.0264ZM134.361 21.2766V18.6752L134.392 18.6568L134.509 18.5528L134.626 18.4365L134.737 18.3018L134.848 18.1549L134.959 17.9958L135.064 17.8244L135.182 17.6285L135.231 17.549L135.268 17.4816L135.299 17.4204L135.33 17.3531L135.354 17.2858L135.385 17.2123L135.41 17.1327L135.447 17.0226L135.502 16.9063L135.527 16.8389L135.546 16.79V16.7533L135.558 16.7226V16.692V16.6553V16.5696L135.577 16.4594V16.3554L135.546 16.2697L135.509 16.1656L135.465 16.0371L135.41 15.8841L135.385 15.8168L135.311 15.7188L135.256 15.6331L135.237 15.6086L135.188 15.6576L135.101 15.7433L135.015 15.8351L134.929 15.9331L134.892 15.9759V16.0065L134.515 16.3432L134.361 16.4901V13.3194L134.41 13.3011L134.509 13.2705L134.608 13.246L134.713 13.2215L134.824 13.2031L134.941 13.1909H135.07L135.268 13.197L135.465 13.2337L135.657 13.295L135.842 13.3806L136.015 13.4847L136.175 13.6071L136.329 13.7479L136.471 13.9009L136.607 14.0662L136.737 14.2498L136.86 14.4396L136.977 14.6477L137.095 14.868L137.206 15.1006L137.311 15.3454L137.44 15.6699V15.7433H137.446V15.7739L137.465 15.8229L137.477 15.8841L137.496 15.9575L137.52 16.0494L137.545 16.1534L137.576 16.2636L137.607 16.386L137.644 16.5207L137.687 16.6676L137.73 16.8267L137.78 16.992L137.829 17.1695L137.878 17.3531L137.946 17.5673L138.02 17.7693L138.101 17.9652L138.187 18.1488L138.28 18.3202L138.378 18.4793L138.477 18.6324L138.582 18.7731L138.693 18.9078L138.81 19.0302L138.928 19.1465L139.051 19.2506L139.181 19.3485L139.316 19.4403L139.452 19.526L139.606 19.6056L139.724 19.6668L139.835 19.7219L139.952 19.7708L140.075 19.8137L140.205 19.8565L140.335 19.8933L140.47 19.9239L140.612 19.9545L140.754 19.979L140.909 20.0034L141.069 20.0218L141.229 20.0402L141.396 20.0524H141.569L141.748 20.0647H141.939H143.001H143.229L143.445 20.083L143.649 20.1014L143.84 20.132L144.019 20.1687L144.185 20.2238L144.346 20.2911L144.975 20.6523L144.5 21.2337L144.364 21.3745L144.204 21.5092L144.025 21.6438L143.827 21.7663L143.605 21.8826L143.358 21.9866L143.093 22.0845L142.951 22.1274L142.815 22.1641L142.686 22.2008L142.556 22.2314L142.427 22.2621L142.297 22.2865L142.174 22.311L142.05 22.3355L141.927 22.3539L141.809 22.3661L141.692 22.3783L141.575 22.3906H141.458L141.347 22.4028H141.236H141.118H140.952L140.773 22.3783L140.594 22.3539L140.415 22.3171L140.23 22.2682L140.045 22.2131L139.859 22.1458L139.674 22.0662L139.489 21.9805L139.298 21.8826L139.106 21.7724L138.915 21.6561L138.724 21.5275L138.533 21.3868L138.341 21.2399L138.156 21.093L137.983 20.9583L137.811 20.8298L137.65 20.7073L137.502 20.5972L137.36 20.4931L137.23 20.3952L137.107 20.3095L136.996 20.2299L136.897 20.1626L136.805 20.1075L136.731 20.0647L136.669 20.0279L136.638 20.0157L136.607 20.0279L136.552 20.0524L136.484 20.083L136.41 20.1197L136.323 20.1626L136.225 20.2116L136.12 20.2728L136.009 20.334L135.891 20.4074L135.762 20.4809L135.626 20.5666L135.484 20.6584L135.33 20.7563L135.237 20.8175L135.138 20.8726L135.046 20.9216L134.959 20.9644L134.898 20.995V21.0562L134.46 21.2154L134.367 21.2521L134.361 21.2766Z" fill="#1D1D1B"/>
</g>
<defs>
<clipPath id="clip0_628_1000">
<rect width="145" height="24" fill="white"/>
</clipPath>
</defs>
</svg>
