<svg width="141" height="40" viewBox="0 0 141 40" fill="none" xmlns="http://www.w3.org/2000/svg">
<g clip-path="url(#clip0_628_1489)">
<path d="M9.56201 39.2891L3.83386 28.7335V38.1039C3.83386 38.3335 3.88669 38.5113 3.99235 38.6298C4.098 38.7483 4.28668 38.8446 4.55837 38.9187V39.2891H0V38.9187C0.271691 38.8446 0.460365 38.7483 0.566023 38.6298C0.67168 38.5113 0.724509 38.3335 0.724509 38.1039V25.178C0.724509 24.9557 0.67168 24.778 0.566023 24.6594C0.460365 24.5409 0.271691 24.4446 0 24.3705V24.0076H5.9772V24.3705C5.62249 24.4594 5.44136 24.6668 5.44136 24.9854C5.44136 25.1335 5.49419 25.3039 5.59985 25.5039L9.8337 33.3705L14.1279 25.6372C14.3166 25.2891 14.4147 25.0446 14.4147 24.8891C14.4147 24.5854 14.226 24.415 13.8487 24.3705V24.0076H19.7278V24.3705C19.4561 24.4446 19.2674 24.5409 19.1618 24.6594C19.0561 24.778 19.0033 24.9483 19.0033 25.178V38.1039C19.0033 38.3335 19.0561 38.5113 19.1618 38.6298C19.2674 38.7483 19.4561 38.8446 19.7278 38.9187V39.2891H14.8751V38.9187C15.1392 38.852 15.3279 38.7557 15.4335 38.6298C15.5392 38.5039 15.5996 38.3335 15.5996 38.0965V28.7261L9.56201 39.2817V39.2891ZM28.3766 32.578V36.7705H38.3612C38.5876 36.7705 38.7688 36.7187 38.8895 36.615C39.0103 36.5113 39.1084 36.3261 39.1839 36.0594H39.5537V40.0002H39.1839C39.1084 39.7335 39.0103 39.5483 38.8895 39.4446C38.7688 39.3409 38.5952 39.2891 38.3612 39.2891H24.2409V38.9187C24.5126 38.8446 24.7012 38.7483 24.8069 38.6298C24.9125 38.5113 24.9654 38.3335 24.9654 38.1039V25.1928C24.9654 24.9631 24.9125 24.7854 24.8069 24.6668C24.7012 24.5483 24.5126 24.452 24.2409 24.378V24.015H38.082C38.3084 24.015 38.4895 23.9631 38.6027 23.8594C38.7235 23.7557 38.8216 23.5705 38.8971 23.3039H39.2744V27.2446H38.8971C38.8216 26.978 38.7235 26.8002 38.6027 26.6891C38.482 26.5854 38.3084 26.5335 38.082 26.5335H28.3691V30.1557H34.6708C34.8972 30.1557 35.0708 30.1039 35.1915 30.0002C35.3123 29.8965 35.4104 29.7113 35.4858 29.4446H35.8556V33.2965H35.4858C35.4104 33.0372 35.3123 32.852 35.1915 32.7483C35.0708 32.6446 34.8972 32.5854 34.6708 32.5854H28.3691L28.3766 32.578ZM48.7232 36.7705H56.806C57.0324 36.7705 57.2136 36.7187 57.3343 36.615C57.4551 36.5113 57.5532 36.3261 57.6286 36.0594H57.9984V40.0002H57.6286C57.5532 39.7335 57.4551 39.5483 57.3343 39.4446C57.2136 39.3409 57.04 39.2891 56.806 39.2891H43.2064V38.5039L52.2477 26.5261H44.4818C44.2479 26.5261 44.0667 26.578 43.946 26.6742C43.8252 26.7779 43.7271 26.9631 43.6517 27.2298H43.2743V23.2891H43.6517C43.7347 23.5631 43.8328 23.7409 43.9535 23.8446C44.0667 23.9483 44.2479 24.0002 44.4818 24.0002H57.8852V24.6372L48.7308 36.7557L48.7232 36.7705ZM67.0699 36.7705H75.1527C75.3791 36.7705 75.5602 36.7187 75.681 36.615C75.8017 36.5113 75.8999 36.3261 75.9753 36.0594H76.3527V40.0002H75.9753C75.8999 39.7335 75.8017 39.5483 75.681 39.4446C75.5602 39.3409 75.3867 39.2891 75.1527 39.2891H61.5455V38.5039L70.5868 26.5261H62.821C62.587 26.5261 62.4059 26.578 62.2851 26.6742C62.1644 26.7779 62.0663 26.9631 61.9908 27.2298H61.6134V23.2891H61.9908C62.0738 23.5631 62.1719 23.7409 62.2927 23.8446C62.4134 23.9483 62.587 24.0002 62.821 24.0002H76.2244V24.6372L67.0699 36.7557V36.7705ZM96.1861 25.1928V33.7557C96.1861 35.378 95.8842 36.5854 95.2729 37.3928C94.1786 38.8372 91.9221 39.5631 88.4958 39.5631C86.0203 39.5631 84.1261 39.1705 82.8053 38.3854C82.0355 37.9335 81.5073 37.3113 81.2129 36.5261C80.9261 35.7483 80.7827 34.8224 80.7827 33.7483V25.1854C80.7827 24.9557 80.7299 24.778 80.6243 24.6594C80.5186 24.5409 80.3299 24.4446 80.0582 24.3705V24.0076H84.9109V24.3705C84.6392 24.4372 84.4581 24.5335 84.3449 24.6594C84.2393 24.778 84.1864 24.9557 84.1864 25.1928V32.8224C84.1864 33.6965 84.2393 34.3557 84.3374 34.778C84.4355 35.2002 84.6241 35.5557 84.8958 35.8372C85.6203 36.5928 86.8656 36.978 88.624 36.978C90.3825 36.978 91.6428 36.5928 92.3673 35.8372C92.6315 35.5557 92.8126 35.2002 92.9107 34.778C93.0088 34.3557 93.0617 33.6965 93.0617 32.8224V25.1928C93.0617 24.9631 93.0088 24.7854 92.9032 24.6668C92.7975 24.5483 92.6088 24.452 92.3372 24.378V24.015H96.9106V24.378C96.6389 24.452 96.4502 24.5483 96.3446 24.6668C96.2389 24.7854 96.1861 24.9631 96.1861 25.1928ZM104.918 28.8298V38.1113C104.918 38.3409 104.971 38.5187 105.076 38.6372C105.182 38.7557 105.371 38.852 105.642 38.9261V39.2965H101.092V38.9261C101.363 38.852 101.552 38.7557 101.658 38.6372C101.763 38.5187 101.816 38.3409 101.816 38.1113V25.1854C101.816 24.9631 101.763 24.7854 101.658 24.6668C101.552 24.5483 101.363 24.452 101.092 24.378V24.015H106.367V24.378C106.042 24.4594 105.884 24.6298 105.884 24.8965C105.884 25.0742 105.99 25.2742 106.201 25.4891L114.82 34.2446V25.1854C114.82 24.9631 114.767 24.7854 114.661 24.6668C114.555 24.5483 114.367 24.452 114.095 24.378V24.015H118.646V24.378C118.374 24.452 118.186 24.5483 118.08 24.6668C117.974 24.7854 117.921 24.9557 117.921 25.1854V38.1113C117.921 38.3409 117.974 38.5187 118.08 38.6372C118.186 38.7557 118.374 38.852 118.646 38.9261V39.2965H113.755V38.9261C114.072 38.8594 114.231 38.6965 114.231 38.4446C114.231 38.2965 114.042 38.0372 113.672 37.6594L104.918 28.8298ZM134.706 35.378H127.687L126.631 37.5335C126.487 37.8372 126.412 38.0668 126.412 38.2372C126.412 38.5705 126.668 38.8002 127.174 38.9261V39.2965H122.027V38.9261C122.329 38.8668 122.563 38.7631 122.721 38.615C122.88 38.4668 123.061 38.178 123.265 37.7409L128.985 26.0076C129.166 25.6372 129.257 25.3335 129.257 25.1113C129.257 24.7705 129.038 24.5261 128.593 24.3705V24.0076H134.11V24.3705C133.657 24.4965 133.438 24.7187 133.438 25.0298C133.438 25.2446 133.506 25.4891 133.649 25.7631L139.566 37.5261C139.815 38.0298 140.034 38.3705 140.23 38.5483C140.419 38.7335 140.675 38.852 140.992 38.9113V39.2817H135.249V38.9113C135.755 38.8298 135.996 38.6002 135.996 38.215C135.996 38.052 135.921 37.8224 135.77 37.5187L134.691 35.3631L134.706 35.378ZM133.732 33.2965L131.234 27.9039L128.691 33.2965H133.732Z" fill="#1D1D1B"/>
<path d="M45.0857 9.46624L47.0027 6.56254L46.6631 6.39217C46.5499 6.4218 46.4442 6.43661 46.3461 6.45142C46.2404 6.46624 46.1423 6.47365 46.0442 6.47365C45.848 6.47365 45.5914 6.41439 45.282 6.30328C44.9725 6.19957 44.5952 6.07365 44.1575 5.93291C43.7273 5.79217 43.2141 5.66624 42.6481 5.56254C42.0745 5.45143 41.433 5.39217 40.716 5.39217C39.5614 5.39217 38.5274 5.56254 37.6067 5.88105C36.686 6.19957 35.8935 6.64402 35.2445 7.21439C34.5879 7.78476 34.0898 8.45142 33.7426 9.21439C33.3955 9.96994 33.2219 10.7922 33.2144 11.6811C33.2144 12.5477 33.403 13.3625 33.7502 14.1181C34.1049 14.8736 34.5955 15.5329 35.2369 16.1107C35.8784 16.6811 36.6331 17.1329 37.5161 17.4514C38.3916 17.7699 39.3576 17.9329 40.4142 17.9403C41.1462 17.9403 41.8179 17.8662 42.4217 17.7403C43.033 17.607 43.5688 17.444 44.0518 17.2514C44.5348 17.0588 44.9499 16.8662 45.3046 16.6736C45.6593 16.4811 45.9536 16.3181 46.1876 16.1848C46.414 16.0514 46.5876 15.9848 46.7083 15.9774C46.7612 15.9774 46.814 15.9922 46.8668 16.0218C46.9196 16.0514 46.9725 16.0885 47.0404 16.1477L47.3498 15.9774L45.4857 13.3477L45.1461 13.4885C45.1763 13.5848 45.1914 13.6662 45.2065 13.7329C45.2216 13.7996 45.2291 13.844 45.2291 13.8736C45.2291 13.9699 45.1159 14.1107 44.8895 14.2885C44.6631 14.4662 44.3461 14.6588 43.9461 14.8514C43.5462 15.044 43.0707 15.2144 42.5349 15.3477C41.999 15.4811 41.4104 15.5551 40.784 15.5625C39.8557 15.5625 39.0633 15.3922 38.384 15.0736C37.7123 14.7477 37.1916 14.2959 36.8218 13.7181C36.452 13.1403 36.2709 12.4514 36.2633 11.6588C36.2633 10.8662 36.4596 10.1699 36.8369 9.57735C37.2067 8.97735 37.735 8.51809 38.4067 8.18476C39.0784 7.85142 39.8708 7.67365 40.784 7.67365C41.3123 7.67365 41.8254 7.73291 42.3085 7.83661C42.7915 7.93291 43.2216 8.06624 43.599 8.2292C43.9763 8.38476 44.2707 8.54772 44.4895 8.7255C44.7084 8.89587 44.8216 9.05142 44.8216 9.19957C44.8216 9.21439 44.8216 9.2292 44.8216 9.25883C44.8216 9.28105 44.814 9.30328 44.799 9.31068L45.1084 9.47365L45.0857 9.46624ZM58.7231 7.2218L54.4062 15.8885C54.3006 16.1181 54.1949 16.3255 54.0968 16.5107C53.9912 16.6959 53.8629 16.8588 53.7119 16.9922C53.561 17.1255 53.3421 17.2292 53.078 17.3033V17.6662H57.3345V17.3033C57.0854 17.2218 56.9043 17.1329 56.7911 17.0366C56.6779 16.9403 56.625 16.8144 56.625 16.6662C56.625 16.5996 56.6401 16.5255 56.6628 16.4366C56.693 16.3551 56.7232 16.2588 56.7684 16.1625L57.4703 14.6662H63.0853L63.8475 16.1625C63.8928 16.2588 63.923 16.3477 63.9532 16.4366C63.9758 16.5181 63.9909 16.5922 63.9909 16.6662C63.9909 16.8144 63.9381 16.9403 63.8173 17.0366C63.6966 17.1329 63.5154 17.2292 63.2588 17.3033V17.6662H67.9983V17.3033C67.7568 17.2366 67.5606 17.1403 67.4021 17.0144C67.2436 16.8885 67.1078 16.7329 66.987 16.5403C66.8663 16.3477 66.738 16.1329 66.6172 15.8885L62.157 7.2218C62.1117 7.1255 62.0815 7.03661 62.0513 6.96254C62.0287 6.88105 62.0136 6.79957 62.0136 6.7255C62.0136 6.56994 62.074 6.45142 62.1947 6.35513C62.3155 6.25883 62.4966 6.16994 62.7456 6.08846V5.7255H58.0665V6.08846C58.3231 6.15513 58.5118 6.25883 58.6401 6.37735C58.7684 6.49587 58.8288 6.64402 58.8288 6.81439C58.8288 6.86624 58.8212 6.93291 58.8061 6.99957C58.7835 7.06624 58.7608 7.14772 58.7156 7.2292L58.7231 7.2218ZM60.2476 9.13291L62.1947 12.9551H58.3609L60.2476 9.13291ZM85.8997 5.7255H74.8132V6.08846C75.0925 6.14031 75.2812 6.2218 75.3793 6.33291C75.4774 6.45143 75.5227 6.6292 75.5227 6.88846V16.4959C75.5227 16.7551 75.4774 16.9403 75.3793 17.0514C75.2812 17.1699 75.0925 17.244 74.8132 17.2959V17.6588H79.1301V17.2959C78.8509 17.244 78.6697 17.1625 78.5641 17.0514C78.466 16.9329 78.4207 16.7551 78.4207 16.4959V12.5922H83.0168C83.2809 12.5848 83.4696 12.6292 83.5828 12.7181C83.7036 12.807 83.779 12.9848 83.8319 13.2588H84.2017V9.85143H83.8319C83.7866 10.0514 83.7338 10.1996 83.6809 10.2959C83.6205 10.3922 83.5375 10.4514 83.4394 10.4811C83.3338 10.5033 83.1979 10.5255 83.0243 10.5181H78.4584V8.13291H85.9073C86.1714 8.1255 86.3601 8.16254 86.4733 8.25883C86.5865 8.34772 86.6695 8.5255 86.7224 8.79957H87.0846V5.08846H86.7224C86.6771 5.28846 86.6242 5.43661 86.5639 5.5255C86.5035 5.61439 86.4205 5.68105 86.3224 5.69587C86.2167 5.71809 86.0733 5.7255 85.9073 5.7255H85.8997ZM106.299 5.7255H95.2127V6.08846C95.4919 6.14031 95.6806 6.2218 95.7787 6.33291C95.8768 6.45143 95.9221 6.6292 95.9221 6.88846V16.4959C95.9221 16.7551 95.8768 16.9403 95.7787 17.0514C95.6806 17.1699 95.4919 17.244 95.2127 17.2959V17.6588H106.609C106.873 17.6588 107.061 17.7033 107.175 17.7922C107.288 17.8885 107.371 18.0736 107.424 18.3477H107.793V14.607H107.424C107.378 14.807 107.326 14.9551 107.265 15.0514C107.205 15.1477 107.122 15.207 107.024 15.2366C106.926 15.2662 106.782 15.2811 106.609 15.2736H98.8503V12.5848H103.416C103.68 12.5774 103.869 12.6218 103.99 12.7107C104.103 12.7996 104.186 12.9773 104.239 13.2514H104.609V9.84402H104.239C104.194 10.044 104.141 10.1922 104.088 10.2885C104.028 10.3848 103.945 10.444 103.839 10.4736C103.741 10.4959 103.597 10.5181 103.424 10.5107H98.8579V8.1255H106.307C106.571 8.11809 106.76 8.15513 106.873 8.25143C106.986 8.34031 107.069 8.51809 107.122 8.79217H107.492V5.08105H107.122C107.077 5.28105 107.024 5.4292 106.971 5.51809C106.911 5.60698 106.827 5.67365 106.729 5.68846C106.624 5.71068 106.48 5.71809 106.314 5.71809L106.299 5.7255Z" fill="#1D1D1B"/>
<path d="M99.7256 4.18519L102.993 0.688889C103.197 0.474074 103.409 0.303704 103.635 0.177778C103.854 0.0592593 104.065 0 104.261 0C104.51 0 104.722 0.0888889 104.895 0.266667C105.069 0.444444 105.159 0.659259 105.159 0.911111C105.159 1.11852 105.084 1.31111 104.948 1.47407C104.805 1.64444 104.548 1.84444 104.171 2.07407L100.609 4.18519H99.7331H99.7256Z" fill="#1D1D1B"/>
</g>
<defs>
<clipPath id="clip0_628_1489">
<rect width="141" height="40" fill="white"/>
</clipPath>
</defs>
</svg>
