<svg width="141" height="43" viewBox="0 0 141 43" fill="none" xmlns="http://www.w3.org/2000/svg">
<g clip-path="url(#clip0_628_1339)">
<path fill-rule="evenodd" clip-rule="evenodd" d="M77.3749 4.21191C76.6666 4.21191 75.7541 5.8303 75.3455 6.46527V5.8303C75.3455 5.14113 75.039 4.21191 74.181 4.21191C73.929 4.21191 73.3161 4.90883 72.8599 5.19534V5.42764C74.2287 5.88451 74.3308 7.10023 74.3308 9.23743C74.3308 11.2585 74.0788 12.2961 73.0642 13.1014V13.3337H76.5645V13.1014C75.6043 12.2884 75.3455 11.2585 75.3455 9.23743C75.3455 7.39448 75.8018 6.52721 76.7143 6.52721C77.225 6.52721 77.5247 6.87567 77.9333 7.27833C78.1852 6.64337 78.4372 6.0084 78.7437 5.37344C78.1376 4.61457 77.8788 4.21966 77.3749 4.21966V4.21191Z" fill="#2B2A28"/>
<path d="M77.3749 4.21191C76.6666 4.21191 75.7541 5.8303 75.3455 6.46527V5.8303C75.3455 5.14113 75.039 4.21191 74.181 4.21191C73.929 4.21191 73.3161 4.90883 72.8599 5.19534V5.42764C74.2287 5.88451 74.3308 7.10023 74.3308 9.23743C74.3308 11.2585 74.0788 12.2961 73.0642 13.1014V13.3337H76.5645V13.1014C75.6043 12.2884 75.3455 11.2585 75.3455 9.23743C75.3455 7.39448 75.8018 6.52721 76.7143 6.52721C77.225 6.52721 77.5247 6.87567 77.9333 7.27833C78.1852 6.64337 78.4372 6.0084 78.7437 5.37344C78.1376 4.61457 77.8788 4.21966 77.3749 4.21966V4.21191Z" stroke="#2B2A28" stroke-width="0.3" stroke-miterlimit="3.86"/>
<path d="M77.3749 4.21191C76.6666 4.21191 75.7541 5.8303 75.3455 6.46527V5.8303C75.3455 5.14113 75.039 4.21191 74.181 4.21191C73.929 4.21191 73.3161 4.90883 72.8599 5.19534V5.42764C74.2287 5.88451 74.3308 7.10023 74.3308 9.23743C74.3308 11.2585 74.0788 12.2961 73.0642 13.1014V13.3337H76.5645V13.1014C75.6043 12.2884 75.3455 11.2585 75.3455 9.23743C75.3455 7.39448 75.8018 6.52721 76.7143 6.52721C77.225 6.52721 77.5247 6.87567 77.9333 7.27833C78.1852 6.64337 78.4372 6.0084 78.7437 5.37344C78.1376 4.61457 77.8788 4.21966 77.3749 4.21966V4.21191Z" fill="#2B2A28"/>
<path d="M77.3749 4.21191C76.6666 4.21191 75.7541 5.8303 75.3455 6.46527V5.8303C75.3455 5.14113 75.039 4.21191 74.181 4.21191C73.929 4.21191 73.3161 4.90883 72.8599 5.19534V5.42764C74.2287 5.88451 74.3308 7.10023 74.3308 9.23743C74.3308 11.2585 74.0788 12.2961 73.0642 13.1014V13.3337H76.5645V13.1014C75.6043 12.2884 75.3455 11.2585 75.3455 9.23743C75.3455 7.39448 75.8018 6.52721 76.7143 6.52721C77.225 6.52721 77.5247 6.87567 77.9333 7.27833C78.1852 6.64337 78.4372 6.0084 78.7437 5.37344C78.1376 4.61457 77.8788 4.21966 77.3749 4.21966V4.21191Z" stroke="#2B2A28" stroke-width="0.3" stroke-miterlimit="3.86"/>
<path fill-rule="evenodd" clip-rule="evenodd" d="M93.6641 9.0594C93.6641 7.38681 94.6311 6.69764 95.496 6.00073C95.9523 6.23303 96.9193 6.868 96.9193 7.90562C96.9193 9.17555 95.9523 9.34591 95.3939 9.34591L95.244 9.57821C95.5437 9.74857 95.8501 9.81052 96.1566 9.81052C97.2734 9.81052 98.3357 8.77289 98.3357 7.3326C98.3357 5.89232 97.1168 5.25735 95.8501 4.21973C94.529 5.60581 92.6562 6.75959 92.6562 9.2375C92.6562 12.2962 94.8899 13.2796 96.0067 13.7442C96.5652 13.1092 97.1712 12.5285 97.934 12.1878L97.8863 11.9555C96.211 11.9555 93.6709 11.607 93.6709 9.07489L93.6641 9.0594Z" fill="#2B2A28"/>
<path d="M93.6641 9.0594C93.6641 7.38681 94.6311 6.69764 95.496 6.00073C95.9523 6.23303 96.9193 6.868 96.9193 7.90562C96.9193 9.17555 95.9523 9.34591 95.3939 9.34591L95.244 9.57821C95.5437 9.74857 95.8501 9.81052 96.1566 9.81052C97.2734 9.81052 98.3357 8.77289 98.3357 7.33261C98.3357 5.89232 97.1168 5.25735 95.8501 4.21973C94.529 5.60581 92.6562 6.75959 92.6562 9.2375C92.6562 12.2962 94.8899 13.2796 96.0067 13.7442C96.5652 13.1092 97.1712 12.5285 97.934 12.1878L97.8863 11.9555C96.211 11.9555 93.6709 11.607 93.6709 9.07489L93.6641 9.0594Z" stroke="#2B2A28" stroke-width="0.3" stroke-miterlimit="3.86"/>
<path d="M93.6641 9.0594C93.6641 7.38681 94.6311 6.69764 95.496 6.00073C95.9523 6.23303 96.9193 6.868 96.9193 7.90562C96.9193 9.17555 95.9523 9.34591 95.3939 9.34591L95.244 9.57821C95.5437 9.74857 95.8501 9.81052 96.1566 9.81052C97.2734 9.81052 98.3357 8.77289 98.3357 7.3326C98.3357 5.89232 97.1168 5.25735 95.8501 4.21973C94.529 5.60581 92.6562 6.75959 92.6562 9.2375C92.6562 12.2962 94.8899 13.2796 96.0067 13.7442C96.5652 13.1092 97.1712 12.5285 97.934 12.1878L97.8863 11.9555C96.211 11.9555 93.6709 11.607 93.6709 9.07489L93.6641 9.0594Z" fill="#2B2A28"/>
<path d="M93.6641 9.0594C93.6641 7.38681 94.6311 6.69764 95.496 6.00073C95.9523 6.23303 96.9193 6.868 96.9193 7.90562C96.9193 9.17555 95.9523 9.34591 95.3939 9.34591L95.244 9.57821C95.5437 9.74857 95.8501 9.81052 96.1566 9.81052C97.2734 9.81052 98.3357 8.77289 98.3357 7.33261C98.3357 5.89232 97.1168 5.25735 95.8501 4.21973C94.529 5.60581 92.6562 6.75959 92.6562 9.2375C92.6562 12.2962 94.8899 13.2796 96.0067 13.7442C96.5652 13.1092 97.1712 12.5285 97.934 12.1878L97.8863 11.9555C96.211 11.9555 93.6709 11.607 93.6709 9.07489L93.6641 9.0594Z" stroke="#2B2A28" stroke-width="0.3" stroke-miterlimit="3.86"/>
<path fill-rule="evenodd" clip-rule="evenodd" d="M66.6152 10.7861C66.159 11.0726 65.6482 11.4211 65.0966 11.4211C64.8651 11.4211 64.6335 11.3824 64.4156 11.3204L64.1568 11.2275L64.1023 11.2043C63.292 10.8326 62.6654 10.0118 62.502 8.93544V8.90446L62.4612 8.36242L62.4748 8.1456C62.5361 7.50289 62.8629 6.86018 63.3396 6.41881L63.3873 6.37234L63.4758 6.3104L63.5848 6.22522L63.6188 6.20199C63.9253 6.0084 64.2726 5.88451 64.6403 5.88451C65.907 5.88451 66.622 6.86793 66.622 8.36242V10.7861H66.6152ZM67.6299 11.6534V8.36242C67.6299 6.86793 67.8819 5.76835 68.3381 5.36569C68.0862 5.13339 67.269 4.21191 65.6959 4.21191L65.3418 4.23514L65.1375 4.26612H65.1034C64.293 4.4055 63.5371 4.80042 62.931 5.41215L62.7744 5.57477L62.7199 5.63671L62.4816 5.93097C62.1275 6.41881 61.8619 6.97634 61.6916 7.61904V7.65776L61.5963 8.06817L61.5759 8.17658L61.5282 8.54826L61.5146 8.67216L61.4941 9.17548C61.4941 11.9399 63.0128 13.0937 63.8231 13.7364C64.3475 13.1789 65.0421 12.6833 65.8048 12.2342C66.0772 12.0793 66.3496 11.9244 66.6152 11.7695V13.1014L66.6016 13.5351L66.588 13.7286L66.5676 13.9455L66.5403 14.17L66.5199 14.3326L66.479 14.5572L66.445 14.7043L66.3973 14.8979L66.3564 15.0528L66.3088 15.2154L66.2407 15.3935L66.1998 15.5019L66.084 15.7497C65.6482 16.586 64.974 17.0274 64.116 17.0274C63.6052 17.0274 63.1013 16.9112 62.7472 16.6867C62.9991 16.4544 63.2511 16.1678 63.2511 15.8813C63.2511 15.2386 62.8493 14.7895 62.3931 14.7895C61.8823 14.7895 61.5282 15.3083 61.5282 15.8813C61.5282 16.5705 62.3386 17.7862 64.116 17.7862H64.5178C65.3622 17.7088 66.0568 17.3991 66.6288 17.0041L66.6629 16.9809L66.8944 16.8028L67.0579 16.6789L67.126 16.6092C67.95 15.8968 68.4607 15.0373 68.7263 14.6114C67.8614 14.3791 67.664 13.5118 67.6095 11.6689L67.6299 11.6534Z" fill="#2B2A28"/>
<path d="M66.6152 10.7861C66.159 11.0726 65.6482 11.4211 65.0966 11.4211C64.8651 11.4211 64.6335 11.3824 64.4156 11.3204L64.1568 11.2275L64.1023 11.2043C63.292 10.8326 62.6654 10.0118 62.502 8.93544V8.90446L62.4612 8.36242L62.4748 8.1456C62.5361 7.50289 62.8629 6.86018 63.3396 6.41881L63.3873 6.37234L63.4758 6.3104L63.5848 6.22522L63.6188 6.20199C63.9253 6.0084 64.2726 5.88451 64.6403 5.88451C65.907 5.88451 66.622 6.86793 66.622 8.36242V10.7861H66.6152ZM67.6299 11.6534V8.36242C67.6299 6.86793 67.8819 5.76835 68.3381 5.36569C68.0862 5.13339 67.269 4.21191 65.6959 4.21191L65.3418 4.23514L65.1375 4.26612H65.1034C64.293 4.4055 63.5371 4.80042 62.931 5.41215L62.7744 5.57477L62.7199 5.63671L62.4816 5.93097C62.1275 6.41881 61.8619 6.97634 61.6916 7.61904V7.65776L61.5963 8.06817L61.5759 8.17658L61.5282 8.54826L61.5146 8.67216L61.4941 9.17548C61.4941 11.9399 63.0128 13.0937 63.8231 13.7364C64.3475 13.1789 65.0421 12.6833 65.8048 12.2342C66.0772 12.0793 66.3496 11.9244 66.6152 11.7695V13.1014L66.6016 13.5351L66.588 13.7286L66.5676 13.9455L66.5403 14.17L66.5199 14.3326L66.479 14.5572L66.445 14.7043L66.3973 14.8979L66.3564 15.0528L66.3088 15.2154L66.2407 15.3935L66.1998 15.5019L66.084 15.7497C65.6482 16.586 64.974 17.0274 64.116 17.0274C63.6052 17.0274 63.1013 16.9112 62.7472 16.6867C62.9991 16.4544 63.2511 16.1678 63.2511 15.8813C63.2511 15.2386 62.8493 14.7895 62.3931 14.7895C61.8823 14.7895 61.5282 15.3083 61.5282 15.8813C61.5282 16.5705 62.3386 17.7862 64.116 17.7862H64.5178C65.3622 17.7088 66.0568 17.3991 66.6288 17.0041L66.6629 16.9809L66.8944 16.8028L67.0579 16.6789L67.126 16.6092C67.95 15.8968 68.4607 15.0373 68.7263 14.6114C67.8614 14.3791 67.664 13.5118 67.6095 11.6689L67.6299 11.6534Z" stroke="#2B2A28" stroke-width="0.3" stroke-miterlimit="3.86"/>
<path d="M66.6152 10.7861C66.159 11.0726 65.6482 11.4211 65.0966 11.4211C64.8651 11.4211 64.6335 11.3824 64.4156 11.3204L64.1568 11.2275L64.1023 11.2043C63.292 10.8326 62.6654 10.0118 62.502 8.93544V8.90446L62.4612 8.36242L62.4748 8.1456C62.5361 7.50289 62.8629 6.86018 63.3396 6.41881L63.3873 6.37234L63.4758 6.3104L63.5848 6.22522L63.6188 6.20199C63.9253 6.0084 64.2726 5.88451 64.6403 5.88451C65.907 5.88451 66.622 6.86793 66.622 8.36242V10.7861H66.6152ZM67.6299 11.6534V8.36242C67.6299 6.86793 67.8819 5.76835 68.3381 5.36569C68.0862 5.13339 67.269 4.21191 65.6959 4.21191L65.3418 4.23514L65.1375 4.26612H65.1034C64.293 4.4055 63.5371 4.80042 62.931 5.41215L62.7744 5.57477L62.7199 5.63671L62.4816 5.93097C62.1275 6.41881 61.8619 6.97634 61.6916 7.61904V7.65776L61.5963 8.06817L61.5759 8.17658L61.5282 8.54826L61.5146 8.67216L61.4941 9.17548C61.4941 11.9399 63.0128 13.0937 63.8231 13.7364C64.3475 13.1789 65.0421 12.6833 65.8048 12.2342C66.0772 12.0793 66.3496 11.9244 66.6152 11.7695V13.1014L66.6016 13.5351L66.588 13.7286L66.5676 13.9455L66.5403 14.17L66.5199 14.3326L66.479 14.5572L66.445 14.7043L66.3973 14.8979L66.3564 15.0528L66.3088 15.2154L66.2407 15.3935L66.1998 15.5019L66.084 15.7497C65.6482 16.586 64.974 17.0274 64.116 17.0274C63.6052 17.0274 63.1013 16.9112 62.7472 16.6867C62.9991 16.4544 63.2511 16.1678 63.2511 15.8813C63.2511 15.2386 62.8493 14.7895 62.3931 14.7895C61.8823 14.7895 61.5282 15.3083 61.5282 15.8813C61.5282 16.5705 62.3386 17.7862 64.116 17.7862H64.5178C65.3622 17.7088 66.0568 17.3991 66.6288 17.0041L66.6629 16.9809L66.8944 16.8028L67.0579 16.6789L67.126 16.6092C67.95 15.8968 68.4607 15.0373 68.7263 14.6114C67.8614 14.3791 67.664 13.5118 67.6095 11.6689L67.6299 11.6534Z" fill="#2B2A28"/>
<path d="M66.6152 10.7861C66.159 11.0726 65.6482 11.4211 65.0966 11.4211C64.8651 11.4211 64.6335 11.3824 64.4156 11.3204L64.1568 11.2275L64.1023 11.2043C63.292 10.8326 62.6654 10.0118 62.502 8.93544V8.90446L62.4612 8.36242L62.4748 8.1456C62.5361 7.50289 62.8629 6.86018 63.3396 6.41881L63.3873 6.37234L63.4758 6.3104L63.5848 6.22522L63.6188 6.20199C63.9253 6.0084 64.2726 5.88451 64.6403 5.88451C65.907 5.88451 66.622 6.86793 66.622 8.36242V10.7861H66.6152ZM67.6299 11.6534V8.36242C67.6299 6.86793 67.8819 5.76835 68.3381 5.36569C68.0862 5.13339 67.269 4.21191 65.6959 4.21191L65.3418 4.23514L65.1375 4.26612H65.1034C64.293 4.4055 63.5371 4.80042 62.931 5.41215L62.7744 5.57477L62.7199 5.63671L62.4816 5.93097C62.1275 6.41881 61.8619 6.97634 61.6916 7.61904V7.65776L61.5963 8.06817L61.5759 8.17658L61.5282 8.54826L61.5146 8.67216L61.4941 9.17548C61.4941 11.9399 63.0128 13.0937 63.8231 13.7364C64.3475 13.1789 65.0421 12.6833 65.8048 12.2342C66.0772 12.0793 66.3496 11.9244 66.6152 11.7695V13.1014L66.6016 13.5351L66.588 13.7286L66.5676 13.9455L66.5403 14.17L66.5199 14.3326L66.479 14.5572L66.445 14.7043L66.3973 14.8979L66.3564 15.0528L66.3088 15.2154L66.2407 15.3935L66.1998 15.5019L66.084 15.7497C65.6482 16.586 64.974 17.0274 64.116 17.0274C63.6052 17.0274 63.1013 16.9112 62.7472 16.6867C62.9991 16.4544 63.2511 16.1678 63.2511 15.8813C63.2511 15.2386 62.8493 14.7895 62.3931 14.7895C61.8823 14.7895 61.5282 15.3083 61.5282 15.8813C61.5282 16.5705 62.3386 17.7862 64.116 17.7862H64.5178C65.3622 17.7088 66.0568 17.3991 66.6288 17.0041L66.6629 16.9809L66.8944 16.8028L67.0579 16.6789L67.126 16.6092C67.95 15.8968 68.4607 15.0373 68.7263 14.6114C67.8614 14.3791 67.664 13.5118 67.6095 11.6689L67.6299 11.6534Z" stroke="#2B2A28" stroke-width="0.3" stroke-miterlimit="3.86"/>
<path fill-rule="evenodd" clip-rule="evenodd" d="M85.6013 9.34591L85.4447 9.57821C85.7511 9.74857 86.0576 9.81052 86.3572 9.81052C87.4672 9.81052 88.5364 8.77289 88.5364 7.3326C88.5364 5.89232 87.3719 5.25735 86.0508 4.21973C84.7841 5.60581 82.8501 6.75959 82.8501 9.2375C82.8501 12.2962 85.1314 13.2796 86.2006 13.7442C86.759 13.1092 87.3651 12.5285 88.1278 12.1878L88.0801 11.9555C86.4049 11.9555 83.9193 11.607 83.9193 9.07489C83.9193 7.4023 84.8318 6.71313 85.6967 6.01621C86.1529 6.24852 87.1199 6.88348 87.1199 7.92111C87.1199 9.19104 86.1597 9.3614 85.6013 9.3614V9.34591Z" fill="#2B2A28"/>
<path d="M85.6013 9.34591L85.4447 9.57821C85.7511 9.74857 86.0576 9.81052 86.3572 9.81052C87.4672 9.81052 88.5364 8.77289 88.5364 7.33261C88.5364 5.89232 87.3719 5.25735 86.0508 4.21973C84.7841 5.60581 82.8501 6.75959 82.8501 9.2375C82.8501 12.2962 85.1314 13.2796 86.2006 13.7442C86.759 13.1092 87.3651 12.5285 88.1278 12.1878L88.0801 11.9555C86.4049 11.9555 83.9193 11.607 83.9193 9.07489C83.9193 7.4023 84.8318 6.71313 85.6967 6.01621C86.1529 6.24852 87.1199 6.88348 87.1199 7.92111C87.1199 9.19104 86.1597 9.3614 85.6013 9.3614V9.34591Z" stroke="#2B2A28" stroke-width="0.3" stroke-miterlimit="3.86"/>
<path d="M85.6013 9.34591L85.4447 9.57821C85.7511 9.74857 86.0576 9.81052 86.3572 9.81052C87.4672 9.81052 88.5364 8.77289 88.5364 7.3326C88.5364 5.89232 87.3719 5.25735 86.0508 4.21973C84.7841 5.60581 82.8501 6.75959 82.8501 9.2375C82.8501 12.2962 85.1314 13.2796 86.2006 13.7442C86.759 13.1092 87.3651 12.5285 88.1278 12.1878L88.0801 11.9555C86.4049 11.9555 83.9193 11.607 83.9193 9.07489C83.9193 7.4023 84.8318 6.71313 85.6967 6.01621C86.1529 6.24852 87.1199 6.88348 87.1199 7.92111C87.1199 9.19104 86.1597 9.3614 85.6013 9.3614V9.34591Z" fill="#2B2A28"/>
<path d="M85.6013 9.34591L85.4447 9.57821C85.7511 9.74857 86.0576 9.81052 86.3572 9.81052C87.4672 9.81052 88.5364 8.77289 88.5364 7.33261C88.5364 5.89232 87.3719 5.25735 86.0508 4.21973C84.7841 5.60581 82.8501 6.75959 82.8501 9.2375C82.8501 12.2962 85.1314 13.2796 86.2006 13.7442C86.759 13.1092 87.3651 12.5285 88.1278 12.1878L88.0801 11.9555C86.4049 11.9555 83.9193 11.607 83.9193 9.07489C83.9193 7.4023 84.8318 6.71313 85.6967 6.01621C86.1529 6.24852 87.1199 6.88348 87.1199 7.92111C87.1199 9.19104 86.1597 9.3614 85.6013 9.3614V9.34591Z" stroke="#2B2A28" stroke-width="0.3" stroke-miterlimit="3.86"/>
<path fill-rule="evenodd" clip-rule="evenodd" d="M44.5849 6.63562C44.5849 6.00066 45.2455 5.76835 46.0559 5.76835C46.8186 5.76835 47.6767 6.22522 48.2895 6.86793C48.6981 6.40332 49.0999 6.00066 49.5085 5.598C48.4938 4.67652 47.4792 4.21191 46.158 4.21191C44.333 4.21191 43.2638 5.54379 43.2638 6.58142C43.2638 8.65667 48.2895 8.65667 48.2895 10.7939C48.2895 11.483 47.7856 12.18 46.6143 12.18C45.7018 12.18 44.7348 11.3127 44.0742 10.6777C43.6724 11.1965 43.1617 11.7153 42.6577 12.18C43.8222 13.2176 45.0957 13.7364 46.6143 13.7364C48.2895 13.7364 49.6583 12.4665 49.6583 10.7939C49.6583 8.02945 44.5849 8.13786 44.5849 6.64337V6.63562Z" fill="#2B2A28"/>
<path d="M44.5849 6.63562C44.5849 6.00066 45.2455 5.76835 46.0559 5.76835C46.8186 5.76835 47.6767 6.22522 48.2895 6.86793C48.6981 6.40332 49.0999 6.00066 49.5085 5.598C48.4938 4.67652 47.4792 4.21191 46.158 4.21191C44.333 4.21191 43.2638 5.54379 43.2638 6.58142C43.2638 8.65667 48.2895 8.65667 48.2895 10.7939C48.2895 11.483 47.7856 12.18 46.6143 12.18C45.7018 12.18 44.7348 11.3127 44.0742 10.6777C43.6724 11.1965 43.1617 11.7153 42.6577 12.18C43.8222 13.2176 45.0957 13.7364 46.6143 13.7364C48.2895 13.7364 49.6583 12.4665 49.6583 10.7939C49.6583 8.02945 44.5849 8.13786 44.5849 6.64337V6.63562Z" stroke="#2B2A28" stroke-width="0.3" stroke-miterlimit="3.86"/>
<path d="M44.5849 6.63562C44.5849 6.00066 45.2455 5.76835 46.0559 5.76835C46.8186 5.76835 47.6767 6.22522 48.2895 6.86793C48.6981 6.40332 49.0999 6.00066 49.5085 5.598C48.4938 4.67652 47.4792 4.21191 46.158 4.21191C44.333 4.21191 43.2638 5.54379 43.2638 6.58142C43.2638 8.65667 48.2895 8.65667 48.2895 10.7939C48.2895 11.483 47.7856 12.18 46.6143 12.18C45.7018 12.18 44.7348 11.3127 44.0742 10.6777C43.6724 11.1965 43.1617 11.7153 42.6577 12.18C43.8222 13.2176 45.0957 13.7364 46.6143 13.7364C48.2895 13.7364 49.6583 12.4665 49.6583 10.7939C49.6583 8.02945 44.5849 8.13786 44.5849 6.64337V6.63562Z" fill="#2B2A28"/>
<path d="M44.5849 6.63562C44.5849 6.00066 45.2455 5.76835 46.0559 5.76835C46.8186 5.76835 47.6767 6.22522 48.2895 6.86793C48.6981 6.40332 49.0999 6.00066 49.5085 5.598C48.4938 4.67652 47.4792 4.21191 46.158 4.21191C44.333 4.21191 43.2638 5.54379 43.2638 6.58142C43.2638 8.65667 48.2895 8.65667 48.2895 10.7939C48.2895 11.483 47.7856 12.18 46.6143 12.18C45.7018 12.18 44.7348 11.3127 44.0742 10.6777C43.6724 11.1965 43.1617 11.7153 42.6577 12.18C43.8222 13.2176 45.0957 13.7364 46.6143 13.7364C48.2895 13.7364 49.6583 12.4665 49.6583 10.7939C49.6583 8.02945 44.5849 8.13786 44.5849 6.64337V6.63562Z" stroke="#2B2A28" stroke-width="0.3" stroke-miterlimit="3.86"/>
<path fill-rule="evenodd" clip-rule="evenodd" d="M55.4467 2.19139C55.9575 2.19139 56.3592 1.72679 56.3592 1.14602C56.3592 0.565264 55.9506 0.108398 55.4467 0.108398C54.9428 0.108398 54.5342 0.573007 54.5342 1.14602C54.5342 1.71904 54.936 2.19139 55.4467 2.19139Z" fill="#2B2A28"/>
<path d="M55.4467 2.19139C55.9575 2.19139 56.3592 1.72679 56.3592 1.14602C56.3592 0.565264 55.9506 0.108398 55.4467 0.108398C54.9428 0.108398 54.5342 0.573007 54.5342 1.14602C54.5342 1.71904 54.936 2.19139 55.4467 2.19139Z" stroke="#2B2A28" stroke-width="0.3" stroke-miterlimit="3.86"/>
<path d="M55.4467 2.19139C55.9575 2.19139 56.3592 1.72679 56.3592 1.14602C56.3592 0.565264 55.9506 0.108398 55.4467 0.108398C54.9428 0.108398 54.5342 0.573007 54.5342 1.14602C54.5342 1.71904 54.936 2.19139 55.4467 2.19139Z" fill="#2B2A28"/>
<path d="M55.4467 2.19139C55.9575 2.19139 56.3592 1.72679 56.3592 1.14602C56.3592 0.565264 55.9506 0.108398 55.4467 0.108398C54.9428 0.108398 54.5342 0.573007 54.5342 1.14602C54.5342 1.71904 54.936 2.19139 55.4467 2.19139Z" stroke="#2B2A28" stroke-width="0.3" stroke-miterlimit="3.86"/>
<path fill-rule="evenodd" clip-rule="evenodd" d="M56.1073 9.05933C56.1073 7.03828 56.4138 5.76835 56.4138 5.19534C56.4138 5.07918 55.903 4.56037 55.5012 4.21191C55.0926 4.61457 54.4866 5.07918 53.7783 5.36569V5.59025C54.9428 5.93871 55.0995 6.22522 55.0995 9.05159C55.0995 11.243 54.8475 12.2806 53.8805 13.0859V13.3182H57.3808V13.0859C56.3661 12.2729 56.1073 11.243 56.1073 9.05159V9.05933Z" fill="#2B2A28"/>
<path d="M56.1073 9.05933C56.1073 7.03828 56.4138 5.76835 56.4138 5.19534C56.4138 5.07918 55.903 4.56037 55.5012 4.21191C55.0926 4.61457 54.4866 5.07918 53.7783 5.36569V5.59025C54.9428 5.93871 55.0995 6.22522 55.0995 9.05159C55.0995 11.243 54.8475 12.2806 53.8805 13.0859V13.3182H57.3808V13.0859C56.3661 12.2729 56.1073 11.243 56.1073 9.05159V9.05933Z" stroke="#2B2A28" stroke-width="0.3" stroke-miterlimit="3.86"/>
<path d="M56.1073 9.05933C56.1073 7.03828 56.4138 5.76835 56.4138 5.19534C56.4138 5.07918 55.903 4.56037 55.5012 4.21191C55.0926 4.61457 54.4866 5.07918 53.7783 5.36569V5.59025C54.9428 5.93871 55.0995 6.22522 55.0995 9.05159C55.0995 11.243 54.8475 12.2806 53.8805 13.0859V13.3182H57.3808V13.0859C56.3661 12.2729 56.1073 11.243 56.1073 9.05159V9.05933Z" fill="#2B2A28"/>
<path d="M56.1073 9.05933C56.1073 7.03828 56.4138 5.76835 56.4138 5.19534C56.4138 5.07918 55.903 4.56037 55.5012 4.21191C55.0926 4.61457 54.4866 5.07918 53.7783 5.36569V5.59025C54.9428 5.93871 55.0995 6.22522 55.0995 9.05159C55.0995 11.243 54.8475 12.2806 53.8805 13.0859V13.3182H57.3808V13.0859C56.3661 12.2729 56.1073 11.243 56.1073 9.05159V9.05933Z" stroke="#2B2A28" stroke-width="0.3" stroke-miterlimit="3.86"/>
<path d="M7.50472 37.2543V35.6824H11.4613V38.9811C10.9029 39.918 10.181 40.6304 9.29574 41.1183C8.40364 41.6061 7.36853 41.8462 6.1904 41.8462C4.41982 41.8462 2.97611 41.3041 1.85247 40.22C0.728826 39.136 0.17041 37.7576 0.17041 36.085C0.17041 34.4124 0.735636 33.0341 1.86609 31.9345C2.99654 30.8427 4.44025 30.2929 6.19722 30.2929C7.30724 30.2929 8.28787 30.5097 9.14592 30.9434C10.004 31.377 10.719 32.0197 11.2842 32.856L10.1266 33.8007C9.71796 33.1967 9.17316 32.7244 8.47855 32.3759C7.78393 32.0274 7.02122 31.8571 6.1904 31.8571C4.87608 31.8571 3.80011 32.252 2.96249 33.0418C2.12487 33.8394 1.70265 34.8383 1.70265 36.0463C1.70265 37.2543 2.11806 38.2609 2.95568 39.0508C3.78649 39.8406 4.86927 40.2355 6.18359 40.2355C7.0076 40.2355 7.77031 40.0652 8.47174 39.7245C9.17316 39.3837 9.66348 38.9501 9.93588 38.4236V37.2465H7.49792L7.50472 37.2543ZM16.0716 41.4977V30.5794H17.5766V39.9258H24.6998V41.4977H16.0648H16.0716ZM31.537 40.2433C32.8173 40.2433 33.866 39.8484 34.6764 39.0585C35.4868 38.2687 35.8886 37.262 35.8886 36.0463C35.8886 34.8306 35.48 33.8317 34.6696 33.0418C33.8592 32.252 32.8105 31.8571 31.537 31.8571C30.2636 31.8571 29.2217 32.252 28.4181 33.0418C27.6145 33.8317 27.2059 34.8383 27.2059 36.054C27.2059 37.2698 27.6077 38.2764 28.4181 39.0663C29.2217 39.8561 30.2636 40.251 31.537 40.251V40.2433ZM31.537 41.8384C29.8277 41.8384 28.4249 41.2886 27.3217 40.1891C26.2185 39.0895 25.6669 37.7112 25.6669 36.0463C25.6669 34.3815 26.2185 32.9954 27.3149 31.9113C28.4113 30.8272 29.8209 30.2852 31.537 30.2852C33.2531 30.2852 34.6832 30.8272 35.7796 31.9113C36.876 32.9954 37.4276 34.3737 37.4276 36.054C37.4276 37.7344 36.876 39.105 35.7728 40.2045C34.6696 41.3041 33.26 41.8462 31.537 41.8462V41.8384ZM46.9207 32.1746H42.576V34.7454H46.9479C47.4246 34.7454 47.7856 34.637 48.0375 34.4202C48.2759 34.2034 48.3985 33.8859 48.3985 33.4522C48.3985 33.0186 48.2759 32.7089 48.0375 32.492C47.7924 32.2752 47.4246 32.1746 46.9275 32.1746H46.9207ZM47.4246 36.3406H42.5691V39.918H47.4246C47.949 39.918 48.3576 39.7632 48.6436 39.4457C48.9296 39.1282 49.0795 38.6868 49.0795 38.1138C49.0795 37.5408 48.9365 37.1072 48.6436 36.7974C48.3576 36.4877 47.949 36.3328 47.4246 36.3328V36.3406ZM41.0642 41.49V30.6026H46.9684C47.9422 30.6026 48.6777 30.8272 49.1816 31.2841C49.6855 31.7409 49.9307 32.4069 49.9307 33.2974C49.9307 33.7465 49.8558 34.1337 49.6992 34.4821C49.5425 34.8306 49.311 35.1093 49.0114 35.3184C49.5425 35.6591 49.9443 36.0695 50.2167 36.5651C50.4823 37.053 50.6185 37.6027 50.6185 38.2222C50.6185 39.2366 50.3189 40.0342 49.7264 40.615C49.1339 41.2035 48.3099 41.49 47.2612 41.49H41.071H41.0642ZM56.3797 37.2698H60.132L58.2661 33.0883L56.3797 37.2698ZM52.9067 41.49L57.7894 30.5717H58.736L63.6596 41.49H62.0524L60.8062 38.7178H55.7396L54.5002 41.49H52.9135H52.9067ZM66.2542 41.49V30.5717H67.7591V39.918H74.8824V41.49H66.2473H66.2542ZM91.9549 37.2465V35.6746H95.9115V38.9733C95.3531 39.9103 94.6312 40.6227 93.7459 41.1105C92.8538 41.5984 91.8187 41.8384 90.6406 41.8384C88.87 41.8384 87.4263 41.2964 86.3026 40.2123C85.179 39.1282 84.6206 37.7499 84.6206 36.0773C84.6206 34.4047 85.1858 33.0263 86.3163 31.9268C87.4467 30.8349 88.8904 30.2852 90.6474 30.2852C91.7574 30.2852 92.738 30.502 93.5961 30.9356C94.4542 31.3692 95.1692 32.012 95.7412 32.8482L94.5835 33.793C94.1749 33.189 93.6301 32.7166 92.9355 32.3682C92.2409 32.0197 91.4782 31.8493 90.6474 31.8493C89.3331 31.8493 88.2571 32.2443 87.4195 33.0341C86.5818 33.8317 86.1596 34.8306 86.1596 36.0386C86.1596 37.2465 86.575 38.2532 87.4127 39.043C88.2435 39.8329 89.3263 40.2278 90.6474 40.2278C91.4714 40.2278 92.2341 40.0574 92.9355 39.7167C93.637 39.376 94.1273 38.9424 94.3997 38.4158V37.2388H91.9617L91.9549 37.2465ZM101.366 35.1248H106.467C106.984 35.1248 107.379 34.9932 107.652 34.7377C107.924 34.4821 108.06 34.1104 108.06 33.6381C108.06 33.1657 107.924 32.794 107.652 32.5463C107.379 32.2985 106.984 32.1668 106.467 32.1668H101.366V35.1248ZM101.366 36.72V41.49H99.8613V30.6026H106.474C107.454 30.6026 108.224 30.8737 108.775 31.408C109.334 31.9423 109.606 32.6856 109.606 33.6381C109.606 34.4124 109.388 35.0861 108.953 35.6514C108.517 36.2167 107.945 36.5651 107.236 36.6968L109.899 41.49H108.272L105.554 36.72H101.373H101.366ZM113.971 41.49V30.5484H115.497V41.49H113.971ZM120.672 41.49V30.5717H122.177V39.918H129.301V41.49H120.666H120.672ZM132.188 41.49V30.5717H133.693V39.918H140.816V41.49H132.181H132.188Z" fill="#2B2A28" stroke="#2B2A28" stroke-width="0.5" stroke-miterlimit="3.86"/>
<path d="M0.184082 21.6504H140.816" stroke="#2B2A28" stroke-width="0.39" stroke-miterlimit="3.86"/>
</g>
<defs>
<clipPath id="clip0_628_1339">
<rect width="141" height="42.0393" fill="white"/>
</clipPath>
</defs>
</svg>
