<svg width="71" height="83" viewBox="0 0 71 83" fill="none" xmlns="http://www.w3.org/2000/svg">
<path d="M24.5 32.9996C24.5 32.6018 24.658 32.2202 24.9393 31.9389C25.2206 31.6576 25.6022 31.4996 26 31.4996H47C47.3978 31.4996 47.7794 31.6576 48.0607 31.9389C48.342 32.2202 48.5 32.6018 48.5 32.9996C48.5 33.3974 48.342 33.779 48.0607 34.0603C47.7794 34.3416 47.3978 34.4996 47 34.4996H26C25.6022 34.4996 25.2206 34.3416 24.9393 34.0603C24.658 33.779 24.5 33.3974 24.5 32.9996ZM26 49.4996H47C47.3978 49.4996 47.7794 49.3416 48.0607 49.0603C48.342 48.779 48.5 48.3974 48.5 47.9996C48.5 47.6018 48.342 47.2202 48.0607 46.9389C47.7794 46.6576 47.3978 46.4996 47 46.4996H26C25.6022 46.4996 25.2206 46.6576 24.9393 46.9389C24.658 47.2202 24.5 47.6018 24.5 47.9996C24.5 48.3974 24.658 48.779 24.9393 49.0603C25.2206 49.3416 25.6022 49.4996 26 49.4996ZM25.835 10.4996C26.0436 10.7354 26.2999 10.9242 26.5869 11.0535C26.874 11.1828 27.1852 11.2497 27.5 11.2497C27.8148 11.2497 28.126 11.1828 28.4131 11.0535C28.7001 10.9242 28.9564 10.7354 29.165 10.4996C29.2774 10.3889 29.3734 10.2626 29.45 10.1246C29.6486 9.78308 29.7522 9.39465 29.75 8.9996C29.75 8.40286 29.5129 7.83056 29.091 7.40861C28.669 6.98665 28.0967 6.7496 27.5 6.7496C26.9033 6.7496 26.331 6.98665 25.909 7.40861C25.4871 7.83056 25.25 8.40286 25.25 8.9996C25.2478 9.39465 25.3514 9.78308 25.55 10.1246C25.6266 10.2626 25.7226 10.3889 25.835 10.4996ZM9.8 35.3651C9.98802 35.5876 10.2198 35.769 10.481 35.898C10.7421 36.0271 11.0271 36.1009 11.318 36.1151H11.4065C11.9601 36.1123 12.4906 35.8926 12.884 35.5031L20.3 28.1996C20.5842 27.9211 20.7462 27.5411 20.7503 27.1432C20.7544 26.7453 20.6002 26.3621 20.3218 26.0779C20.0433 25.7936 19.6633 25.6316 19.2654 25.6275C18.8675 25.6235 18.4842 25.7776 18.2 26.0561L11.474 32.6996L9.896 30.8291C9.6392 30.5252 9.27219 30.3357 8.87569 30.3023C8.47919 30.269 8.08569 30.3946 7.78175 30.6513C7.47781 30.9081 7.28833 31.2752 7.255 31.6717C7.22166 32.0682 7.3472 32.4617 7.604 32.7656L9.8 35.3651ZM11.318 51.1226H11.4065C11.9601 51.1198 12.4906 50.9001 12.884 50.5106L20.3 43.1996C20.5842 42.9211 20.7462 42.5411 20.7503 42.1432C20.7544 41.7453 20.6002 41.3621 20.3218 41.0779C20.0433 40.7936 19.6633 40.6316 19.2654 40.6275C18.8675 40.6235 18.4842 40.7776 18.2 41.0561L11.474 47.6996L9.896 45.8291C9.6392 45.5252 9.27219 45.3357 8.87569 45.3023C8.47919 45.269 8.08569 45.3946 7.78175 45.6514C7.47781 45.9081 7.28833 46.2752 7.255 46.6717C7.22166 47.0682 7.3472 47.4617 7.604 47.7656L9.8 50.3651C9.98801 50.5897 10.2205 50.7729 10.4828 50.9033C10.745 51.0337 11.0315 51.1083 11.324 51.1226H11.318ZM19.7 57.5561L12.974 64.1996L11.396 62.3291C11.1392 62.0252 10.7722 61.8357 10.3757 61.8023C9.97919 61.769 9.58569 61.8946 9.28175 62.1514C8.97781 62.4081 8.78833 62.7752 8.755 63.1717C8.72167 63.5682 8.8472 63.9617 9.104 64.2656L11.3 66.8651C11.4873 67.089 11.7188 67.2718 11.98 67.4021C12.2412 67.5324 12.5265 67.6075 12.818 67.6226H12.9065C13.4601 67.6198 13.9906 67.4001 14.384 67.0106L21.8 59.6996C22.0842 59.4211 22.2462 59.0411 22.2503 58.6432C22.2544 58.2453 22.1002 57.8621 21.8218 57.5779C21.5433 57.2936 21.1633 57.1316 20.7654 57.1275C20.3675 57.1235 19.9842 57.2776 19.7 57.5561ZM60.5 62.9996C60.4982 64.1837 60.1456 65.3408 59.4866 66.3246C58.8276 67.3085 57.8918 68.075 56.7975 68.5273C55.7032 68.9796 54.4993 69.0975 53.338 68.866C52.1767 68.6346 51.11 68.0642 50.2727 67.2269C49.4354 66.3896 48.865 65.3229 48.6336 64.1616C48.4021 63.0003 48.52 61.7964 48.9723 60.7021C49.4246 59.6077 50.1911 58.672 51.175 58.013C52.1588 57.354 53.3159 57.0014 54.5 56.9996C56.0913 56.9996 57.6174 57.6317 58.7426 58.757C59.8679 59.8822 60.5 61.4083 60.5 62.9996ZM57.5 62.9996C57.5 62.4063 57.3241 61.8262 56.9944 61.3329C56.6648 60.8395 56.1962 60.455 55.648 60.228C55.0999 60.0009 54.4967 59.9415 53.9147 60.0572C53.3328 60.173 52.7982 60.4587 52.3787 60.8783C51.9591 61.2978 51.6734 61.8324 51.5576 62.4143C51.4419 62.9963 51.5013 63.5995 51.7284 64.1476C51.9554 64.6958 52.3399 65.1644 52.8333 65.494C53.3266 65.8237 53.9067 65.9996 54.5 65.9996C55.2949 65.9972 56.0566 65.6804 56.6187 65.1183C57.1808 64.5562 57.4976 63.7945 57.5 62.9996ZM71 65.9996C71.0068 70.2922 69.3322 74.4167 66.335 77.4896C65.6223 78.2297 64.8386 78.898 63.995 79.4846C61.2199 81.4438 57.9069 82.4969 54.5099 82.4996C51.1129 82.5023 47.7982 81.4544 45.02 79.4996H5C3.80762 79.496 2.6651 79.0208 1.82195 78.1776C0.97881 77.3345 0.503561 76.192 0.5 74.9996V14.9996C0.503561 13.8072 0.97881 12.6647 1.82195 11.8216C2.6651 10.9784 3.80762 10.5032 5 10.4996H11V8.9996C11.0024 8.20468 11.3192 7.443 11.8813 6.8809C12.4434 6.31881 13.2051 6.00197 14 5.9996H18.02C18.8701 4.20469 20.2123 2.68799 21.8905 1.62591C23.5687 0.563828 25.514 0 27.5 0C29.486 0 31.4313 0.563828 33.1095 1.62591C34.7877 2.68799 36.1299 4.20469 36.98 5.9996H41C41.7949 6.00197 42.5566 6.31881 43.1187 6.8809C43.6808 7.443 43.9976 8.20468 44 8.9996V10.4996H50C51.1924 10.5032 52.3349 10.9784 53.178 11.8216C54.0212 12.6647 54.4964 13.8072 54.5 14.9996V49.4996C58.8752 49.5024 63.0704 51.2417 66.1642 54.3354C69.2579 57.4292 70.9972 61.6244 71 65.9996ZM14 10.4996V14.9996H41V8.9996H34.85C34.6316 7.91073 34.1701 6.88523 33.5 5.9996C32.8014 5.06813 31.8955 4.3121 30.8541 3.79139C29.8127 3.27069 28.6643 2.9996 27.5 2.9996C26.3357 2.9996 25.1873 3.27069 24.1459 3.79139C23.1045 4.3121 22.1986 5.06813 21.5 5.9996C20.8299 6.88523 20.3684 7.91073 20.15 8.9996H14V10.4996ZM41.765 76.4996C39.3258 73.5447 37.9942 69.8312 38 65.9996H26C25.6022 65.9996 25.2206 65.8416 24.9393 65.5603C24.658 65.279 24.5 64.8974 24.5 64.4996C24.5 64.1018 24.658 63.7202 24.9393 63.4389C25.2206 63.1576 25.6022 62.9996 26 62.9996H38.27C38.8795 59.7155 40.4701 56.6933 42.8319 54.3315C45.1937 51.9697 48.2159 50.3791 51.5 49.7696V14.9996C51.5 14.6018 51.342 14.2202 51.0607 13.9389C50.7794 13.6576 50.3978 13.4996 50 13.4996H44V14.9996C43.9976 15.7945 43.6808 16.5562 43.1187 17.1183C42.5566 17.6804 41.7949 17.9972 41 17.9996H14C13.2051 17.9972 12.4434 17.6804 11.8813 17.1183C11.3192 16.5562 11.0024 15.7945 11 14.9996V13.4996H5C4.60218 13.4996 4.22064 13.6576 3.93934 13.9389C3.65804 14.2202 3.5 14.6018 3.5 14.9996V74.9996C3.5 75.3974 3.65804 75.779 3.93934 76.0603C4.22064 76.3416 4.60218 76.4996 5 76.4996H41.765ZM62.315 76.9946C61.3347 75.8912 60.1309 75.0089 58.7835 74.4063C57.4361 73.8037 55.976 73.4947 54.5 73.4996C51.7512 73.4961 49.1113 74.5737 47.15 76.4996C46.9799 76.6497 46.8242 76.8154 46.685 76.9946C48.1597 78.0503 49.8336 78.7954 51.605 79.1846C52.5554 79.3963 53.5263 79.5019 54.5 79.4996C57.3028 79.5019 60.0358 78.6259 62.315 76.9946ZM68 65.9996C67.9944 62.4209 66.5703 58.9903 64.0398 56.4598C61.5093 53.9293 58.0787 52.5052 54.5 52.4996C53.491 52.5014 52.4852 52.6121 51.5 52.8296C49.0227 53.4026 46.756 54.6597 44.958 56.4576C43.1601 58.2556 41.903 60.5223 41.33 62.9996C41.1125 63.9848 41.0018 64.9906 41 65.9996C40.9987 69.3156 42.222 72.5152 44.435 74.9846C46.3008 72.9018 48.771 71.4543 51.5 70.8446C52.4834 70.6147 53.4901 70.4989 54.5 70.4996C56.3989 70.4963 58.2771 70.8941 60.0116 71.667C61.7461 72.4399 63.2977 73.5704 64.565 74.9846C66.778 72.5152 68.0013 69.3156 68 65.9996Z" fill="#B7946E"/>
</svg>
