<svg width="271" height="21" viewBox="0 0 271 21" fill="none" xmlns="http://www.w3.org/2000/svg">
<path d="M5.51 2.22C5.16 2.22 4.985 2.44167 4.985 2.885C4.985 3.00167 4.99667 3.14167 5.02 3.305C5.06667 3.46833 5.16 3.73667 5.3 4.11L9.045 13.84H9.115L12.825 3.97C12.9417 3.66667 13.0117 3.445 13.035 3.305C13.0817 3.14167 13.105 3.00167 13.105 2.885C13.105 2.44167 12.9533 2.22 12.65 2.22V1.59H18.635V2.22C18.4717 2.22 18.355 2.27833 18.285 2.395C18.215 2.51167 18.18 2.64 18.18 2.78C18.18 3.01333 18.2967 3.41 18.53 3.97L22.275 13.84H22.345L26.125 3.76C26.2883 3.41 26.37 3.095 26.37 2.815C26.37 2.675 26.3117 2.54667 26.195 2.43C26.0783 2.29 25.9383 2.22 25.775 2.22V1.59H30.955V2.22C30.6983 2.22 30.5 2.36 30.36 2.64C30.2433 2.92 30.1033 3.27 29.94 3.69L24.9 17.06C24.76 17.4333 24.6317 17.76 24.515 18.04C24.4217 18.32 24.375 18.5533 24.375 18.74C24.375 18.9033 24.4333 19.055 24.55 19.195C24.6667 19.3117 24.83 19.37 25.04 19.37V20H19.51V19.37C19.65 19.3233 19.79 19.2533 19.93 19.16C20.0933 19.0667 20.175 18.9383 20.175 18.775C20.175 18.5883 20.1283 18.3783 20.035 18.145C19.965 17.9117 19.8367 17.585 19.65 17.165L15.625 6.84H15.555L11.74 16.955C11.39 17.865 11.215 18.4367 11.215 18.67C11.215 19.0433 11.3667 19.2767 11.67 19.37V20H6.245V19.37C6.385 19.37 6.525 19.335 6.665 19.265C6.805 19.195 6.875 19.0783 6.875 18.915C6.875 18.7283 6.82833 18.53 6.735 18.32C6.665 18.11 6.58333 17.8883 6.49 17.655L0.89 3.2C0.796667 2.94333 0.691667 2.73333 0.575 2.57C0.481667 2.38333 0.318333 2.26667 0.085 2.22V1.59H5.51V2.22ZM55.8518 5.37C55.8518 5.11333 55.7468 4.92667 55.5368 4.81C55.3501 4.67 55.0118 4.6 54.5218 4.6H43.1818V8.94H50.0418C50.5084 8.94 50.8701 8.88167 51.1268 8.765C51.3834 8.625 51.5118 8.28667 51.5118 7.75H52.1418V13.21H51.5118C51.5118 12.6733 51.3834 12.335 51.1268 12.195C50.8701 12.0317 50.5084 11.95 50.0418 11.95H43.1818V16.78H54.8718C55.2218 16.78 55.5018 16.6983 55.7118 16.535C55.9451 16.3717 56.0618 16.15 56.0618 15.87H56.6918V20.665H56.0618C56.0618 20.315 55.9451 20.1167 55.7118 20.07C55.5018 20.0233 55.2218 20 54.8718 20H38.5618V19.37C38.7251 19.37 38.8651 19.3233 38.9818 19.23C39.1218 19.1133 39.1918 18.95 39.1918 18.74V2.85C39.1918 2.64 39.1218 2.48833 38.9818 2.395C38.8651 2.27833 38.7251 2.22 38.5618 2.22V1.59H54.5218C55.0118 1.59 55.3501 1.52 55.5368 1.38C55.7468 1.21667 55.8518 1.00667 55.8518 0.75H56.4818V5.37H55.8518ZM82.4865 20.665C82.4865 20.315 82.3698 20.1167 82.1365 20.07C81.9265 20.0233 81.6465 20 81.2965 20H64.6365V19.37C65.3365 19.37 65.6865 19.16 65.6865 18.74V2.85C65.6865 2.43 65.3365 2.22 64.6365 2.22V1.59H70.6565V2.22C70.0032 2.22 69.6765 2.43 69.6765 2.85V16.78H81.2965C81.6465 16.78 81.9265 16.6983 82.1365 16.535C82.3698 16.3717 82.4865 16.15 82.4865 15.87H83.1165V20.665H82.4865ZM109.728 17.48C109.658 17.48 109.588 17.48 109.518 17.48C109.471 17.4567 109.413 17.445 109.343 17.445C109.203 17.445 108.865 17.585 108.328 17.865C107.815 18.145 107.15 18.46 106.333 18.81C105.54 19.16 104.63 19.4633 103.603 19.72C102.576 19.9767 101.503 20.105 100.383 20.105C98.913 20.105 97.5013 19.9183 96.148 19.545C94.7946 19.1717 93.593 18.6 92.543 17.83C91.5163 17.0367 90.6996 16.0567 90.093 14.89C89.4863 13.7233 89.183 12.3583 89.183 10.795C89.183 9.255 89.4863 7.90167 90.093 6.735C90.6996 5.545 91.5163 4.55333 92.543 3.76C93.593 2.96667 94.7946 2.37167 96.148 1.975C97.5013 1.57833 98.913 1.38 100.383 1.38C101.573 1.38 102.646 1.47333 103.603 1.66C104.583 1.84667 105.435 2.045 106.158 2.255C106.881 2.465 107.453 2.66333 107.873 2.85C108.293 3.03667 108.55 3.13 108.643 3.13C108.76 3.13 108.853 3.07167 108.923 2.955C109.016 2.83833 109.086 2.745 109.133 2.675L109.658 3.095L106.928 7.33L106.578 7.085C106.578 7.015 106.566 6.945 106.543 6.875C106.543 6.805 106.531 6.72333 106.508 6.63C106.461 6.37333 106.228 6.11667 105.808 5.86C105.388 5.58 104.863 5.335 104.233 5.125C103.626 4.915 102.973 4.74 102.273 4.6C101.596 4.46 100.966 4.39 100.383 4.39C99.403 4.39 98.458 4.53 97.548 4.81C96.6613 5.09 95.8796 5.49833 95.203 6.035C94.5496 6.57167 94.0246 7.23667 93.628 8.03C93.2313 8.8 93.033 9.68667 93.033 10.69C93.033 11.6933 93.2313 12.5917 93.628 13.385C94.0246 14.155 94.5496 14.8083 95.203 15.345C95.8796 15.8817 96.6613 16.29 97.548 16.57C98.458 16.85 99.403 16.99 100.383 16.99C101.13 16.99 101.911 16.9083 102.728 16.745C103.545 16.5583 104.291 16.3367 104.968 16.08C105.645 15.8 106.205 15.4967 106.648 15.17C107.115 14.82 107.348 14.4933 107.348 14.19C107.348 14.0267 107.301 13.8867 107.208 13.77L107.698 13.49L110.008 17.2L109.728 17.48ZM129.667 4.6C128.78 4.6 127.893 4.74 127.007 5.02C126.12 5.3 125.315 5.70833 124.592 6.245C123.892 6.75833 123.32 7.4 122.877 8.17C122.433 8.94 122.212 9.815 122.212 10.795C122.212 11.775 122.433 12.65 122.877 13.42C123.32 14.19 123.892 14.8433 124.592 15.38C125.315 15.8933 126.12 16.29 127.007 16.57C127.893 16.85 128.78 16.99 129.667 16.99C130.553 16.99 131.44 16.85 132.327 16.57C133.213 16.29 134.007 15.8933 134.707 15.38C135.43 14.8433 136.013 14.19 136.457 13.42C136.9 12.65 137.122 11.775 137.122 10.795C137.122 9.815 136.9 8.94 136.457 8.17C136.013 7.4 135.43 6.75833 134.707 6.245C134.007 5.70833 133.213 5.3 132.327 5.02C131.44 4.74 130.553 4.6 129.667 4.6ZM129.667 1.38C130.95 1.38 132.257 1.57833 133.587 1.975C134.917 2.34833 136.13 2.92 137.227 3.69C138.323 4.46 139.222 5.44 139.922 6.63C140.622 7.79667 140.972 9.185 140.972 10.795C140.972 12.405 140.622 13.805 139.922 14.995C139.222 16.1617 138.323 17.13 137.227 17.9C136.13 18.67 134.917 19.23 133.587 19.58C132.257 19.93 130.95 20.105 129.667 20.105C128.383 20.105 127.077 19.93 125.747 19.58C124.417 19.23 123.203 18.67 122.107 17.9C121.01 17.13 120.112 16.1617 119.412 14.995C118.712 13.805 118.362 12.405 118.362 10.795C118.362 9.185 118.712 7.79667 119.412 6.63C120.112 5.44 121.01 4.46 122.107 3.69C123.203 2.92 124.417 2.34833 125.747 1.975C127.077 1.57833 128.383 1.38 129.667 1.38ZM149.873 19.37C150.06 19.37 150.223 19.3233 150.363 19.23C150.503 19.1133 150.573 18.95 150.573 18.74V2.78C150.573 2.57 150.503 2.43 150.363 2.36C150.223 2.26667 150.06 2.22 149.873 2.22V1.59H156.418V2.22C156.301 2.22 156.173 2.255 156.033 2.325C155.916 2.395 155.858 2.5 155.858 2.64C155.858 2.75667 155.905 2.90833 155.998 3.095C156.091 3.28167 156.196 3.48 156.313 3.69L161.318 12.79L166.358 3.795C166.521 3.49167 166.638 3.25833 166.708 3.095C166.801 2.90833 166.848 2.745 166.848 2.605C166.848 2.34833 166.696 2.22 166.393 2.22V1.59H172.868V2.22C172.681 2.22 172.518 2.26667 172.378 2.36C172.238 2.43 172.168 2.57 172.168 2.78V18.74C172.168 18.95 172.238 19.1133 172.378 19.23C172.518 19.3233 172.681 19.37 172.868 19.37V20H167.373V19.37C168.003 19.37 168.318 19.16 168.318 18.74V7.12H168.248L161.213 20H161.108L154.213 7.085H154.143V18.74C154.143 19.16 154.47 19.37 155.123 19.37V20H149.873V19.37ZM199.748 5.37C199.748 5.11333 199.643 4.92667 199.433 4.81C199.247 4.67 198.908 4.6 198.418 4.6H187.078V8.94H193.938C194.405 8.94 194.767 8.88167 195.023 8.765C195.28 8.625 195.408 8.28667 195.408 7.75H196.038V13.21H195.408C195.408 12.6733 195.28 12.335 195.023 12.195C194.767 12.0317 194.405 11.95 193.938 11.95H187.078V16.78H198.768C199.118 16.78 199.398 16.6983 199.608 16.535C199.842 16.3717 199.958 16.15 199.958 15.87H200.588V20.665H199.958C199.958 20.315 199.842 20.1167 199.608 20.07C199.398 20.0233 199.118 20 198.768 20H182.458V19.37C182.622 19.37 182.762 19.3233 182.878 19.23C183.018 19.1133 183.088 18.95 183.088 18.74V2.85C183.088 2.64 183.018 2.48833 182.878 2.395C182.762 2.27833 182.622 2.22 182.458 2.22V1.59H198.418C198.908 1.59 199.247 1.52 199.433 1.38C199.643 1.21667 199.748 1.00667 199.748 0.75H200.378V5.37H199.748ZM233.127 18.74C233.127 19.16 233.384 19.37 233.897 19.37V20H228.507V19.37C228.67 19.37 228.81 19.3233 228.927 19.23C229.067 19.1133 229.137 18.95 229.137 18.74V4.81H223.362C223.152 4.81 222.942 4.86833 222.732 4.985C222.545 5.10167 222.452 5.32333 222.452 5.65H221.822V0.75H222.452C222.452 1.07667 222.545 1.29833 222.732 1.415C222.942 1.53167 223.152 1.59 223.362 1.59H238.902C239.112 1.59 239.31 1.53167 239.497 1.415C239.707 1.29833 239.812 1.07667 239.812 0.75H240.442V5.65H239.812C239.812 5.32333 239.707 5.10167 239.497 4.985C239.31 4.86833 239.112 4.81 238.902 4.81H233.127V18.74ZM258.969 4.6C258.082 4.6 257.195 4.74 256.309 5.02C255.422 5.3 254.617 5.70833 253.894 6.245C253.194 6.75833 252.622 7.4 252.179 8.17C251.735 8.94 251.514 9.815 251.514 10.795C251.514 11.775 251.735 12.65 252.179 13.42C252.622 14.19 253.194 14.8433 253.894 15.38C254.617 15.8933 255.422 16.29 256.309 16.57C257.195 16.85 258.082 16.99 258.969 16.99C259.855 16.99 260.742 16.85 261.629 16.57C262.515 16.29 263.309 15.8933 264.009 15.38C264.732 14.8433 265.315 14.19 265.759 13.42C266.202 12.65 266.424 11.775 266.424 10.795C266.424 9.815 266.202 8.94 265.759 8.17C265.315 7.4 264.732 6.75833 264.009 6.245C263.309 5.70833 262.515 5.3 261.629 5.02C260.742 4.74 259.855 4.6 258.969 4.6ZM258.969 1.38C260.252 1.38 261.559 1.57833 262.889 1.975C264.219 2.34833 265.432 2.92 266.529 3.69C267.625 4.46 268.524 5.44 269.224 6.63C269.924 7.79667 270.274 9.185 270.274 10.795C270.274 12.405 269.924 13.805 269.224 14.995C268.524 16.1617 267.625 17.13 266.529 17.9C265.432 18.67 264.219 19.23 262.889 19.58C261.559 19.93 260.252 20.105 258.969 20.105C257.685 20.105 256.379 19.93 255.049 19.58C253.719 19.23 252.505 18.67 251.409 17.9C250.312 17.13 249.414 16.1617 248.714 14.995C248.014 13.805 247.664 12.405 247.664 10.795C247.664 9.185 248.014 7.79667 248.714 6.63C249.414 5.44 250.312 4.46 251.409 3.69C252.505 2.92 253.719 2.34833 255.049 1.975C256.379 1.57833 257.685 1.38 258.969 1.38Z" fill="#B7946E"/>
</svg>
